<?xml version='1.0' encoding='utf-8'?>
<svg xmlns="http://www.w3.org/2000/svg" id="chart-ba0faa7f-ae50-4449-8656-199477700d4f" class="pygal-chart pygal-sparkline" viewBox="0 0 200 50" width="200" height="50"><!--Generated with pygal 3.0.4 (etree) ©Kozea 2012-2016 on 2024-06-30--><!--http://pygal.org--><!--http://github.com/Kozea/pygal--><defs><style type="text/css">#chart-ba0faa7f-ae50-4449-8656-199477700d4f{-webkit-user-select:none;-webkit-font-smoothing:antialiased;font-family:Consolas,"Liberation Mono",Menlo,Courier,monospace}#chart-ba0faa7f-ae50-4449-8656-199477700d4f .title{font-family:Consolas,"Liberation Mono",Menlo,Courier,monospace;font-size:16px}#chart-ba0faa7f-ae50-4449-8656-199477700d4f .legends .legend text{font-family:Consolas,"Liberation Mono",Menlo,Courier,monospace;font-size:14px}#chart-ba0faa7f-ae50-4449-8656-199477700d4f .axis text{font-family:Consolas,"Liberation Mono",Menlo,Courier,monospace;font-size:10px}#chart-ba0faa7f-ae50-4449-8656-199477700d4f .axis text.major{font-family:Consolas,"Liberation Mono",Menlo,Courier,monospace;font-size:10px}#chart-ba0faa7f-ae50-4449-8656-199477700d4f .text-overlay text.value{font-family:Consolas,"Liberation Mono",Menlo,Courier,monospace;font-size:16px}#chart-ba0faa7f-ae50-4449-8656-199477700d4f .text-overlay text.label{font-family:Consolas,"Liberation Mono",Menlo,Courier,monospace;font-size:10px}#chart-ba0faa7f-ae50-4449-8656-199477700d4f .tooltip{font-family:Consolas,"Liberation Mono",Menlo,Courier,monospace;font-size:14px}#chart-ba0faa7f-ae50-4449-8656-199477700d4f text.no_data{font-family:Consolas,"Liberation Mono",Menlo,Courier,monospace;font-size:64px}
#chart-ba0faa7f-ae50-4449-8656-199477700d4f{background-color:rgba(249,249,249,1)}#chart-ba0faa7f-ae50-4449-8656-199477700d4f path,#chart-ba0faa7f-ae50-4449-8656-199477700d4f line,#chart-ba0faa7f-ae50-4449-8656-199477700d4f rect,#chart-ba0faa7f-ae50-4449-8656-199477700d4f circle{-webkit-transition:150ms;-moz-transition:150ms;transition:150ms}#chart-ba0faa7f-ae50-4449-8656-199477700d4f .graph &gt; .background{fill:rgba(249,249,249,1)}#chart-ba0faa7f-ae50-4449-8656-199477700d4f .plot &gt; .background{fill:rgba(255,255,255,1)}#chart-ba0faa7f-ae50-4449-8656-199477700d4f .graph{fill:rgba(0,0,0,.87)}#chart-ba0faa7f-ae50-4449-8656-199477700d4f text.no_data{fill:rgba(0,0,0,1)}#chart-ba0faa7f-ae50-4449-8656-199477700d4f .title{fill:rgba(0,0,0,1)}#chart-ba0faa7f-ae50-4449-8656-199477700d4f .legends .legend text{fill:rgba(0,0,0,.87)}#chart-ba0faa7f-ae50-4449-8656-199477700d4f .legends .legend:hover text{fill:rgba(0,0,0,1)}#chart-ba0faa7f-ae50-4449-8656-199477700d4f .axis .line{stroke:rgba(0,0,0,1)}#chart-ba0faa7f-ae50-4449-8656-199477700d4f .axis .guide.line{stroke:rgba(0,0,0,.54)}#chart-ba0faa7f-ae50-4449-8656-199477700d4f .axis .major.line{stroke:rgba(0,0,0,.87)}#chart-ba0faa7f-ae50-4449-8656-199477700d4f .axis text.major{fill:rgba(0,0,0,1)}#chart-ba0faa7f-ae50-4449-8656-199477700d4f .axis.y .guides:hover .guide.line,#chart-ba0faa7f-ae50-4449-8656-199477700d4f .line-graph .axis.x .guides:hover .guide.line,#chart-ba0faa7f-ae50-4449-8656-199477700d4f .stackedline-graph .axis.x .guides:hover .guide.line,#chart-ba0faa7f-ae50-4449-8656-199477700d4f .xy-graph .axis.x .guides:hover .guide.line{stroke:rgba(0,0,0,1)}#chart-ba0faa7f-ae50-4449-8656-199477700d4f .axis .guides:hover text{fill:rgba(0,0,0,1)}#chart-ba0faa7f-ae50-4449-8656-199477700d4f .reactive{fill-opacity:.7;stroke-opacity:.8;stroke-width:1}#chart-ba0faa7f-ae50-4449-8656-199477700d4f .ci{stroke:rgba(0,0,0,.87)}#chart-ba0faa7f-ae50-4449-8656-199477700d4f .reactive.active,#chart-ba0faa7f-ae50-4449-8656-199477700d4f .active .reactive{fill-opacity:.8;stroke-opacity:.9;stroke-width:4}#chart-ba0faa7f-ae50-4449-8656-199477700d4f .ci .reactive.active{stroke-width:1.5}#chart-ba0faa7f-ae50-4449-8656-199477700d4f .series text{fill:rgba(0,0,0,1)}#chart-ba0faa7f-ae50-4449-8656-199477700d4f .tooltip rect{fill:rgba(255,255,255,1);stroke:rgba(0,0,0,1);-webkit-transition:opacity 150ms;-moz-transition:opacity 150ms;transition:opacity 150ms}#chart-ba0faa7f-ae50-4449-8656-199477700d4f .tooltip .label{fill:rgba(0,0,0,.87)}#chart-ba0faa7f-ae50-4449-8656-199477700d4f .tooltip .label{fill:rgba(0,0,0,.87)}#chart-ba0faa7f-ae50-4449-8656-199477700d4f .tooltip .legend{font-size:.8em;fill:rgba(0,0,0,.54)}#chart-ba0faa7f-ae50-4449-8656-199477700d4f .tooltip .x_label{font-size:.6em;fill:rgba(0,0,0,1)}#chart-ba0faa7f-ae50-4449-8656-199477700d4f .tooltip .xlink{font-size:.5em;text-decoration:underline}#chart-ba0faa7f-ae50-4449-8656-199477700d4f .tooltip .value{font-size:1.5em}#chart-ba0faa7f-ae50-4449-8656-199477700d4f .bound{font-size:.5em}#chart-ba0faa7f-ae50-4449-8656-199477700d4f .max-value{font-size:.75em;fill:rgba(0,0,0,.54)}#chart-ba0faa7f-ae50-4449-8656-199477700d4f .map-element{fill:rgba(255,255,255,1);stroke:rgba(0,0,0,.54) !important}#chart-ba0faa7f-ae50-4449-8656-199477700d4f .map-element .reactive{fill-opacity:inherit;stroke-opacity:inherit}#chart-ba0faa7f-ae50-4449-8656-199477700d4f .color-0,#chart-ba0faa7f-ae50-4449-8656-199477700d4f .color-0 a:visited{stroke:#F44336;fill:#F44336}#chart-ba0faa7f-ae50-4449-8656-199477700d4f .text-overlay .color-0 text{fill:black}
#chart-ba0faa7f-ae50-4449-8656-199477700d4f text.no_data{text-anchor:middle}#chart-ba0faa7f-ae50-4449-8656-199477700d4f .guide.line{fill:none}#chart-ba0faa7f-ae50-4449-8656-199477700d4f .centered{text-anchor:middle}#chart-ba0faa7f-ae50-4449-8656-199477700d4f .title{text-anchor:middle}#chart-ba0faa7f-ae50-4449-8656-199477700d4f .legends .legend text{fill-opacity:1}#chart-ba0faa7f-ae50-4449-8656-199477700d4f .axis.x text{text-anchor:middle}#chart-ba0faa7f-ae50-4449-8656-199477700d4f .axis.x:not(.web) text[transform]{text-anchor:start}#chart-ba0faa7f-ae50-4449-8656-199477700d4f .axis.x:not(.web) text[transform].backwards{text-anchor:end}#chart-ba0faa7f-ae50-4449-8656-199477700d4f .axis.y text{text-anchor:end}#chart-ba0faa7f-ae50-4449-8656-199477700d4f .axis.y text[transform].backwards{text-anchor:start}#chart-ba0faa7f-ae50-4449-8656-199477700d4f .axis.y2 text{text-anchor:start}#chart-ba0faa7f-ae50-4449-8656-199477700d4f .axis.y2 text[transform].backwards{text-anchor:end}#chart-ba0faa7f-ae50-4449-8656-199477700d4f .axis .guide.line{stroke-dasharray:4,4;stroke:black}#chart-ba0faa7f-ae50-4449-8656-199477700d4f .axis .major.guide.line{stroke-dasharray:6,6;stroke:black}#chart-ba0faa7f-ae50-4449-8656-199477700d4f .horizontal .axis.y .guide.line,#chart-ba0faa7f-ae50-4449-8656-199477700d4f .horizontal .axis.y2 .guide.line,#chart-ba0faa7f-ae50-4449-8656-199477700d4f .vertical .axis.x .guide.line{opacity:0}#chart-ba0faa7f-ae50-4449-8656-199477700d4f .horizontal .axis.always_show .guide.line,#chart-ba0faa7f-ae50-4449-8656-199477700d4f .vertical .axis.always_show .guide.line{opacity:1 !important}#chart-ba0faa7f-ae50-4449-8656-199477700d4f .axis.y .guides:hover .guide.line,#chart-ba0faa7f-ae50-4449-8656-199477700d4f .axis.y2 .guides:hover .guide.line,#chart-ba0faa7f-ae50-4449-8656-199477700d4f .axis.x .guides:hover .guide.line{opacity:1}#chart-ba0faa7f-ae50-4449-8656-199477700d4f .axis .guides:hover text{opacity:1}#chart-ba0faa7f-ae50-4449-8656-199477700d4f .nofill{fill:none}#chart-ba0faa7f-ae50-4449-8656-199477700d4f .subtle-fill{fill-opacity:.2}#chart-ba0faa7f-ae50-4449-8656-199477700d4f .dot{stroke-width:1px;fill-opacity:1;stroke-opacity:1}#chart-ba0faa7f-ae50-4449-8656-199477700d4f .dot.active{stroke-width:5px}#chart-ba0faa7f-ae50-4449-8656-199477700d4f .dot.negative{fill:transparent}#chart-ba0faa7f-ae50-4449-8656-199477700d4f text,#chart-ba0faa7f-ae50-4449-8656-199477700d4f tspan{stroke:none !important}#chart-ba0faa7f-ae50-4449-8656-199477700d4f .series text.active{opacity:1}#chart-ba0faa7f-ae50-4449-8656-199477700d4f .tooltip rect{fill-opacity:.95;stroke-width:.5}#chart-ba0faa7f-ae50-4449-8656-199477700d4f .tooltip text{fill-opacity:1}#chart-ba0faa7f-ae50-4449-8656-199477700d4f .showable{visibility:hidden}#chart-ba0faa7f-ae50-4449-8656-199477700d4f .showable.shown{visibility:visible}#chart-ba0faa7f-ae50-4449-8656-199477700d4f .gauge-background{fill:rgba(229,229,229,1);stroke:none}#chart-ba0faa7f-ae50-4449-8656-199477700d4f .bg-lines{stroke:rgba(249,249,249,1);stroke-width:2px}</style><script type="text/javascript">window.pygal = window.pygal || {};window.pygal.config = window.pygal.config || {};window.pygal.config['ba0faa7f-ae50-4449-8656-199477700d4f'] = {"allow_interruptions": false, "box_mode": "extremes", "classes": ["pygal-chart", "pygal-sparkline"], "css": ["file://style.css", "file://graph.css"], "defs": [], "disable_xml_declaration": false, "dots_size": 2.5, "dynamic_print_values": false, "explicit_size": true, "fill": false, "force_uri_protocol": "https", "formatter": null, "half_pie": false, "height": 50, "include_x_axis": false, "inner_radius": 0, "interpolate": "cubic", "interpolation_parameters": {}, "interpolation_precision": 250, "inverse_y_axis": false, "js": [], "legend_at_bottom": false, "legend_at_bottom_columns": null, "legend_box_size": 12, "logarithmic": false, "margin": 10, "margin_bottom": null, "margin_left": null, "margin_right": null, "margin_top": null, "max_scale": 2, "min_scale": 1, "missing_value_fill_truncation": "x", "no_data_text": "", "no_prefix": false, "order_min": null, "pretty_print": false, "print_labels": false, "print_values": false, "print_values_position": "center", "print_zeroes": true, "range": null, "rounded_bars": null, "secondary_range": null, "show_dots": false, "show_legend": false, "show_minor_x_labels": true, "show_minor_y_labels": true, "show_only_major_dots": false, "show_x_guides": false, "show_x_labels": false, "show_y_guides": true, "show_y_labels": true, "spacing": 0, "stack_from_top": false, "strict": false, "stroke": true, "stroke_style": null, "style": {"background": "rgba(249, 249, 249, 1)", "ci_colors": [], "colors": ["#F44336", "#3F51B5", "#009688", "#FFC107", "#FF5722", "#9C27B0", "#03A9F4", "#8BC34A", "#FF9800", "#E91E63", "#2196F3", "#4CAF50", "#FFEB3B", "#673AB7", "#00BCD4", "#CDDC39", "#9E9E9E", "#607D8B"], "dot_opacity": "1", "font_family": "Consolas, \"Liberation Mono\", Menlo, Courier, monospace", "foreground": "rgba(0, 0, 0, .87)", "foreground_strong": "rgba(0, 0, 0, 1)", "foreground_subtle": "rgba(0, 0, 0, .54)", "guide_stroke_color": "black", "guide_stroke_dasharray": "4,4", "label_font_family": "Consolas, \"Liberation Mono\", Menlo, Courier, monospace", "label_font_size": 10, "legend_font_family": "Consolas, \"Liberation Mono\", Menlo, Courier, monospace", "legend_font_size": 14, "major_guide_stroke_color": "black", "major_guide_stroke_dasharray": "6,6", "major_label_font_family": "Consolas, \"Liberation Mono\", Menlo, Courier, monospace", "major_label_font_size": 10, "no_data_font_family": "Consolas, \"Liberation Mono\", Menlo, Courier, monospace", "no_data_font_size": 64, "opacity": ".7", "opacity_hover": ".8", "plot_background": "rgba(255, 255, 255, 1)", "stroke_opacity": ".8", "stroke_opacity_hover": ".9", "stroke_width": "1", "stroke_width_hover": "4", "title_font_family": "Consolas, \"Liberation Mono\", Menlo, Courier, monospace", "title_font_size": 16, "tooltip_font_family": "Consolas, \"Liberation Mono\", Menlo, Courier, monospace", "tooltip_font_size": 14, "transition": "150ms", "value_background": "rgba(229, 229, 229, 1)", "value_colors": [], "value_font_family": "Consolas, \"Liberation Mono\", Menlo, Courier, monospace", "value_font_size": 16, "value_label_font_family": "Consolas, \"Liberation Mono\", Menlo, Courier, monospace", "value_label_font_size": 10}, "title": null, "tooltip_border_radius": 0, "tooltip_fancy_mode": true, "truncate_label": null, "truncate_legend": null, "width": 200, "x_label_rotation": 0, "x_labels": ["2024/6", "2024/5", "2024/3", "2024/1", "2023/12", "2023/11"], "x_labels_major": null, "x_labels_major_count": null, "x_labels_major_every": null, "x_title": null, "xrange": null, "y_label_rotation": 0, "y_labels": null, "y_labels_major": null, "y_labels_major_count": null, "y_labels_major_every": null, "y_title": null, "zero": 0, "legends": [""]}</script></defs><title>Pygal</title><g class="graph line-graph vertical"><rect x="0" y="0" width="200" height="50" class="background" /><g transform="translate(82, 10)" class="plot"><rect x="0" y="0" width="108.0" height="30" class="background" /><g class="axis y always_show"><path d="M0.000000 30.000000 h108.000000" class="line" /><g class="guides"><path d="M0.000000 29.423077 h108.000000" class="guide line" /><text x="-5" y="32.92307692307692" class="">0.6484098024</text><title>0.6484098024</title></g><g class="guides"><path d="M0.000000 0.576923 h108.000000" class="guide line" /><text x="-5" y="4.076923076923077" class="">10.04720464</text><title>10.04720464</title></g></g><g class="series serie-0 color-0"><path d="M2.076923 9.929200 L2.160000 9.943826 2.243077 9.958454 2.326154 9.973083 2.409231 9.987715 2.492308 10.002351 2.575385 10.016991 2.658462 10.031637 2.741538 10.046290 2.824615 10.060951 2.907692 10.075620 2.990769 10.090299 3.073846 10.104988 3.156923 10.119689 3.240000 10.134402 3.323077 10.149128 3.406154 10.163869 3.489231 10.178624 3.572308 10.193396 3.655385 10.208186 3.738462 10.222993 3.821538 10.237819 3.904615 10.252666 3.987692 10.267533 4.070769 10.282422 4.153846 10.297335 4.236923 10.312271 4.320000 10.327231 4.403077 10.342218 4.486154 10.357231 4.569231 10.372272 4.652308 10.387341 4.735385 10.402440 4.818462 10.417570 4.901538 10.432731 4.984615 10.447924 5.067692 10.463151 5.150769 10.478411 5.233846 10.493708 5.316923 10.509040 5.400000 10.524410 5.483077 10.539817 5.566154 10.555264 5.649231 10.570751 5.732308 10.586279 5.815385 10.601849 5.898462 10.617461 5.981538 10.633118 6.064615 10.648819 6.147692 10.664566 6.230769 10.680360 6.313846 10.696201 6.396923 10.712091 6.480000 10.728030 6.563077 10.744020 6.646154 10.760062 6.729231 10.776156 6.812308 10.792303 6.895385 10.808504 6.978462 10.824761 7.061538 10.841074 7.144615 10.857445 7.227692 10.873873 7.310769 10.890360 7.393846 10.906908 7.476923 10.923516 7.560000 10.940187 7.643077 10.956920 7.726154 10.973717 7.809231 10.990579 7.892308 11.007507 7.975385 11.024501 8.058462 11.041563 8.141538 11.058694 8.224615 11.075894 8.307692 11.093165 8.390769 11.110508 8.473846 11.127922 8.556923 11.145410 8.640000 11.162973 8.723077 11.180611 8.806154 11.198324 8.889231 11.216116 8.972308 11.233985 9.055385 11.251933 9.138462 11.269962 9.221538 11.288071 9.304615 11.306263 9.387692 11.324537 9.470769 11.342895 9.553846 11.361338 9.636923 11.379867 9.720000 11.398482 9.803077 11.417185 9.886154 11.435977 9.969231 11.454859 10.052308 11.473830 10.135385 11.492894 10.218462 11.512050 10.301538 11.531299 10.384615 11.550642 10.467692 11.570081 10.550769 11.589616 10.633846 11.609249 10.716923 11.628979 10.800000 11.648809 10.883077 11.668738 10.966154 11.688769 11.049231 11.708902 11.132308 11.729137 11.215385 11.749477 11.298462 11.769921 11.381538 11.790471 11.464615 11.811128 11.547692 11.831892 11.630769 11.852765 11.713846 11.873748 11.796923 11.894841 11.880000 11.916046 11.963077 11.937363 12.046154 11.958794 12.129231 11.980339 12.212308 12.001999 12.295385 12.023776 12.378462 12.045669 12.461538 12.067681 12.544615 12.089812 12.627692 12.112063 12.710769 12.134436 12.793846 12.156930 12.876923 12.179547 12.960000 12.202288 13.043077 12.225153 13.126154 12.248145 13.209231 12.271263 13.292308 12.294509 13.375385 12.317884 13.458462 12.341388 13.541538 12.365023 13.624615 12.388790 13.707692 12.412689 13.790769 12.436721 13.873846 12.460887 13.956923 12.485189 14.040000 12.509628 14.123077 12.534203 14.206154 12.558917 14.289231 12.583770 14.372308 12.608762 14.455385 12.633896 14.538462 12.659172 14.621538 12.684591 14.704615 12.710154 14.787692 12.735861 14.870769 12.761715 14.953846 12.787715 15.036923 12.813863 15.120000 12.840159 15.203077 12.866606 15.286154 12.893202 15.369231 12.919951 15.452308 12.946851 15.535385 12.973906 15.618462 13.001114 15.701538 13.028478 15.784615 13.055998 15.867692 13.083676 15.950769 13.111511 16.033846 13.139506 16.116923 13.167661 16.200000 13.195977 16.283077 13.224455 16.366154 13.253096 16.449231 13.281901 16.532308 13.310870 16.615385 13.340006 16.698462 13.369308 16.781538 13.398778 16.864615 13.428417 16.947692 13.458225 17.030769 13.488204 17.113846 13.518354 17.196923 13.548677 17.280000 13.579174 17.363077 13.609845 17.446154 13.640691 17.529231 13.671713 17.612308 13.702913 17.695385 13.734291 17.778462 13.765848 17.861538 13.797585 17.944615 13.829503 18.027692 13.861603 18.110769 13.893887 18.193846 13.926354 18.276923 13.959006 18.360000 13.991844 18.443077 14.024868 18.526154 14.058081 18.609231 14.091482 18.692308 14.125072 18.775385 14.158854 18.858462 14.192827 18.941538 14.226992 19.024615 14.261351 19.107692 14.295904 19.190769 14.330653 19.273846 14.365598 19.356923 14.400740 19.440000 14.436080 19.523077 14.471620 19.606154 14.507360 19.689231 14.543300 19.772308 14.579443 19.855385 14.615789 19.938462 14.652339 20.021538 14.689093 20.104615 14.726054 20.187692 14.763221 20.270769 14.800596 20.353846 14.838180 20.436923 14.875973 20.520000 14.913977 20.603077 14.952193 20.686154 14.990621 20.769231 15.029263 20.852308 15.068119 20.935385 15.107190 21.018462 15.146478 21.101538 15.185983 21.184615 15.225706 21.267692 15.265648 21.350769 15.305811 21.433846 15.346194 21.516923 15.386800 21.600000 15.427629 21.683077 15.468681 21.766154 15.509959 21.849231 15.551462 21.932308 15.593192 22.015385 15.635150 22.098462 15.677337 22.181538 15.719753 22.264615 15.762400 22.347692 15.805279 22.430769 15.848390 22.513846 15.891735 22.596923 15.935314 22.680000 15.979128 22.763077 16.023179 22.846154 16.067467 22.929231 16.111992 23.012308 16.156754 23.095385 16.201749 23.178462 16.246975 23.261538 16.292430 23.344615 16.338110 23.427692 16.384015 23.510769 16.430141 23.593846 16.476486 23.676923 16.523048 23.760000 16.569823 23.843077 16.616811 23.926154 16.664008 24.009231 16.711411 24.092308 16.759020 24.175385 16.806830 24.258462 16.854840 24.341538 16.903048 24.424615 16.951450 24.507692 17.000045 24.590769 17.048830 24.673846 17.097803 24.756923 17.146961 24.840000 17.196302 24.923077 17.245823 25.006154 17.295522 25.089231 17.345397 25.172308 17.395445 25.255385 17.445665 25.338462 17.496052 25.421538 17.546605 25.504615 17.597323 25.587692 17.648201 25.670769 17.699238 25.753846 17.750431 25.836923 17.801779 25.920000 17.853278 26.003077 17.904926 26.086154 17.956721 26.169231 18.008660 26.252308 18.060741 26.335385 18.112962 26.418462 18.165319 26.501538 18.217812 26.584615 18.270437 26.667692 18.323191 26.750769 18.376074 26.833846 18.429081 26.916923 18.482211 27.000000 18.535461 27.083077 18.588829 27.166154 18.642313 27.249231 18.695909 27.332308 18.749616 27.415385 18.803432 27.498462 18.857353 27.581538 18.911377 27.664615 18.965503 27.747692 19.019727 27.830769 19.074048 27.913846 19.128462 27.996923 19.182967 28.080000 19.237562 28.163077 19.292243 28.246154 19.347008 28.329231 19.401855 28.412308 19.456781 28.495385 19.511784 28.578462 19.566862 28.661538 19.622012 28.744615 19.677231 28.827692 19.732518 28.910769 19.787870 28.993846 19.843284 29.076923 19.898758 29.160000 19.954290 29.243077 20.009877 29.326154 20.065517 29.409231 20.121208 29.492308 20.176946 29.575385 20.232730 29.658462 20.288557 29.741538 20.344425 29.824615 20.400332 29.907692 20.456274 29.990769 20.512250 30.073846 20.568258 30.156923 20.624293 30.240000 20.680356 30.323077 20.736442 30.406154 20.792550 30.489231 20.848677 30.572308 20.904820 30.655385 20.960978 30.738462 21.017148 30.821538 21.073328 30.904615 21.129514 30.987692 21.185705 31.070769 21.241899 31.153846 21.298092 31.236923 21.354283 31.320000 21.410469 31.403077 21.466647 31.486154 21.522816 31.569231 21.578973 31.652308 21.635114 31.735385 21.691239 31.818462 21.747345 31.901538 21.803429 31.984615 21.859488 32.067692 21.915521 32.150769 21.971525 32.233846 22.027498 32.316923 22.083437 32.400000 22.139339 32.483077 22.195203 32.566154 22.251026 32.649231 22.306805 32.732308 22.362538 32.815385 22.418223 32.898462 22.473858 32.981538 22.529439 33.064615 22.584965 33.147692 22.640433 33.230769 22.695840 33.313846 22.751185 33.396923 22.806464 33.480000 22.861677 33.563077 22.916819 33.646154 22.971889 33.729231 23.026884 33.812308 23.081801 33.895385 23.136640 33.978462 23.191396 34.061538 23.246068 34.144615 23.300653 34.227692 23.355149 34.310769 23.409553 34.393846 23.463863 34.476923 23.518077 34.560000 23.572191 34.643077 23.626205 34.726154 23.680115 34.809231 23.733919 34.892308 23.787614 34.975385 23.841199 35.058462 23.894670 35.141538 23.948025 35.224615 24.001263 35.307692 24.054379 35.390769 24.107373 35.473846 24.160242 35.556923 24.212983 35.640000 24.265593 35.723077 24.318071 35.806154 24.370415 35.889231 24.422620 35.972308 24.474686 36.055385 24.526610 36.138462 24.578389 36.221538 24.630021 36.304615 24.681504 36.387692 24.732835 36.470769 24.784012 36.553846 24.835032 36.636923 24.885893 36.720000 24.936592 36.803077 24.987128 36.886154 25.037498 36.969231 25.087698 37.052308 25.137728 37.135385 25.187584 37.218462 25.237264 37.301538 25.286766 37.384615 25.336088 37.467692 25.385226 37.550769 25.434178 37.633846 25.482943 37.716923 25.531517 37.800000 25.579899 37.883077 25.628085 37.966154 25.676074 38.049231 25.723863 38.132308 25.771449 38.215385 25.818831 38.298462 25.866005 38.381538 25.912970 38.464615 25.959723 38.547692 26.006261 38.630769 26.052583 38.713846 26.098685 38.796923 26.144566 38.880000 26.190222 38.963077 26.235652 39.046154 26.280853 39.129231 26.325823 39.212308 26.370560 39.295385 26.415060 39.378462 26.459321 39.461538 26.503342 39.544615 26.547120 39.627692 26.590651 39.710769 26.633935 39.793846 26.676968 39.876923 26.719748 39.960000 26.762273 40.043077 26.804539 40.126154 26.846546 40.209231 26.888290 40.292308 26.929769 40.375385 26.970981 40.458462 27.011923 40.541538 27.052593 40.624615 27.092988 40.707692 27.133106 40.790769 27.172945 40.873846 27.212502 40.956923 27.251774 41.040000 27.290760 41.123077 27.329457 41.206154 27.367862 41.289231 27.405973 41.372308 27.443789 41.455385 27.481305 41.538462 27.518520 41.621538 27.555432 41.704615 27.592038 41.787692 27.628336 41.870769 27.664322 41.953846 27.699996 42.036923 27.735354 42.120000 27.770394 42.203077 27.805114 42.286154 27.839511 42.369231 27.873583 42.452308 27.907327 42.535385 27.940741 42.618462 27.973823 42.701538 28.006570 42.784615 28.038980 42.867692 28.071050 42.950769 28.102778 43.033846 28.134161 43.116923 28.165198 43.200000 28.195886 43.283077 28.226221 43.366154 28.256203 43.449231 28.285828 43.532308 28.315095 43.615385 28.344000 43.698462 28.372541 43.781538 28.400718 43.864615 28.428530 43.947692 28.455976 44.030769 28.483056 44.113846 28.509767 44.196923 28.536111 44.280000 28.562085 44.363077 28.587690 44.446154 28.612925 44.529231 28.637788 44.612308 28.662279 44.695385 28.686398 44.778462 28.710143 44.861538 28.733513 44.944615 28.756509 45.027692 28.779129 45.110769 28.801373 45.193846 28.823240 45.276923 28.844728 45.360000 28.865838 45.443077 28.886568 45.526154 28.906918 45.609231 28.926888 45.692308 28.946475 45.775385 28.965680 45.858462 28.984502 45.941538 29.002940 46.024615 29.020993 46.107692 29.038660 46.190769 29.055942 46.273846 29.072836 46.356923 29.089343 46.440000 29.105461 46.523077 29.121190 46.606154 29.136529 46.689231 29.151478 46.772308 29.166035 46.855385 29.180199 46.938462 29.193971 47.021538 29.207349 47.104615 29.220333 47.187692 29.232921 47.270769 29.245113 47.353846 29.256909 47.436923 29.268307 47.520000 29.279307 47.603077 29.289908 47.686154 29.300109 47.769231 29.309910 47.852308 29.319310 47.935385 29.328308 48.018462 29.336903 48.101538 29.345094 48.184615 29.352881 48.267692 29.360264 48.350769 29.367240 48.433846 29.373810 48.516923 29.379973 48.600000 29.385728 48.683077 29.391075 48.766154 29.396011 48.849231 29.400538 48.932308 29.404654 49.015385 29.408357 49.098462 29.411649 49.181538 29.414527 49.264615 29.416991 49.347692 29.419041 49.430769 29.420675 49.513846 29.421893 49.596923 29.422694 49.680000 29.423077 49.763077 29.423042 49.846154 29.422587 49.929231 29.421713 50.012308 29.420418 50.095385 29.418701 50.178462 29.416562 50.261538 29.414000 50.344615 29.411015 50.427692 29.407605 50.510769 29.403770 50.593846 29.399508 50.676923 29.394821 50.760000 29.389705 50.843077 29.384162 50.926154 29.378189 51.009231 29.371787 51.092308 29.364954 51.175385 29.357690 51.258462 29.349995 51.341538 29.341866 51.424615 29.333304 51.507692 29.324308 51.590769 29.314876 51.673846 29.305010 51.756923 29.294706 51.840000 29.283966 51.923077 29.272787 52.006154 29.261170 52.089231 29.249113 52.172308 29.236616 52.255385 29.223678 52.338462 29.210299 52.421538 29.196476 52.504615 29.182211 52.587692 29.167502 52.670769 29.152348 52.753846 29.136748 52.836923 29.120703 52.920000 29.104210 53.003077 29.087270 53.086154 29.069881 53.169231 29.052043 53.252308 29.033755 53.335385 29.015016 53.418462 28.995826 53.501538 28.976184 53.584615 28.956089 53.667692 28.935540 53.750769 28.914536 53.833846 28.893077 53.916923 28.871163 54.000000 28.848791 54.083077 28.825963 54.166154 28.802676 54.249231 28.778930 54.332308 28.754724 54.415385 28.730058 54.498462 28.704930 54.581538 28.679341 54.664615 28.653289 54.747692 28.626773 54.830769 28.599793 54.913846 28.572349 54.996923 28.544438 55.080000 28.516061 55.163077 28.487217 55.246154 28.457905 55.329231 28.428125 55.412308 28.397874 55.495385 28.367154 55.578462 28.335962 55.661538 28.304299 55.744615 28.272164 55.827692 28.239555 55.910769 28.206472 55.993846 28.172915 56.076923 28.138882 56.160000 28.104373 56.243077 28.069387 56.326154 28.033923 56.409231 27.997980 56.492308 27.961559 56.575385 27.924658 56.658462 27.887275 56.741538 27.849412 56.824615 27.811066 56.907692 27.772237 56.990769 27.732925 57.073846 27.693128 57.156923 27.652845 57.240000 27.612077 57.323077 27.570822 57.406154 27.529080 57.489231 27.486850 57.572308 27.444130 57.655385 27.400921 57.738462 27.357221 57.821538 27.313030 57.904615 27.268347 57.987692 27.223172 58.070769 27.177503 58.153846 27.131340 58.236923 27.084681 58.320000 27.037528 58.403077 26.989877 58.486154 26.941730 58.569231 26.893084 58.652308 26.843940 58.735385 26.794296 58.818462 26.744152 58.901538 26.693507 58.984615 26.642361 59.067692 26.590712 59.150769 26.538559 59.233846 26.485903 59.316923 26.432742 59.400000 26.379076 59.483077 26.324903 59.566154 26.270224 59.649231 26.215036 59.732308 26.159341 59.815385 26.103136 59.898462 26.046421 59.981538 25.989195 60.064615 25.931458 60.147692 25.873209 60.230769 25.814447 60.313846 25.755171 60.396923 25.695380 60.480000 25.635075 60.563077 25.574253 60.646154 25.512915 60.729231 25.451059 60.812308 25.388685 60.895385 25.325792 60.978462 25.262379 61.061538 25.198446 61.144615 25.133992 61.227692 25.069015 61.310769 25.003516 61.393846 24.937494 61.476923 24.870947 61.560000 24.803876 61.643077 24.736278 61.726154 24.668154 61.809231 24.599503 61.892308 24.530324 61.975385 24.460617 62.058462 24.390380 62.141538 24.319612 62.224615 24.248314 62.307692 24.176484 62.390769 24.104121 62.473846 24.031226 62.556923 23.957796 62.640000 23.883832 62.723077 23.809332 62.806154 23.734296 62.889231 23.658723 62.972308 23.582612 63.055385 23.505963 63.138462 23.428774 63.221538 23.351046 63.304615 23.272777 63.387692 23.193966 63.470769 23.114614 63.553846 23.034718 63.636923 22.954279 63.720000 22.873295 63.803077 22.791766 63.886154 22.709691 63.969231 22.627069 64.052308 22.543900 64.135385 22.460182 64.218462 22.375916 64.301538 22.291100 64.384615 22.205733 64.467692 22.119817 64.550769 22.033356 64.633846 21.946356 64.716923 21.858826 64.800000 21.770770 64.883077 21.682196 64.966154 21.593111 65.049231 21.503520 65.132308 21.413431 65.215385 21.322850 65.298462 21.231784 65.381538 21.140239 65.464615 21.048221 65.547692 20.955738 65.630769 20.862796 65.713846 20.769402 65.796923 20.675562 65.880000 20.581282 65.963077 20.486570 66.046154 20.391432 66.129231 20.295875 66.212308 20.199904 66.295385 20.103527 66.378462 20.006751 66.461538 19.909581 66.544615 19.812025 66.627692 19.714089 66.710769 19.615779 66.793846 19.517103 66.876923 19.418066 66.960000 19.318676 67.043077 19.218939 67.126154 19.118861 67.209231 19.018449 67.292308 18.917710 67.375385 18.816651 67.458462 18.715277 67.541538 18.613596 67.624615 18.511614 67.707692 18.409338 67.790769 18.306774 67.873846 18.203928 67.956923 18.100808 68.040000 17.997420 68.123077 17.893771 68.206154 17.789867 68.289231 17.685714 68.372308 17.581320 68.455385 17.476691 68.538462 17.371834 68.621538 17.266754 68.704615 17.161459 68.787692 17.055956 68.870769 16.950250 68.953846 16.844349 69.036923 16.738259 69.120000 16.631986 69.203077 16.525538 69.286154 16.418920 69.369231 16.312140 69.452308 16.205204 69.535385 16.098118 69.618462 15.990890 69.701538 15.883525 69.784615 15.776031 69.867692 15.668413 69.950769 15.560679 70.033846 15.452835 70.116923 15.344888 70.200000 15.236844 70.283077 15.128710 70.366154 15.020492 70.449231 14.912197 70.532308 14.803832 70.615385 14.695403 70.698462 14.586916 70.781538 14.478379 70.864615 14.369798 70.947692 14.261180 71.030769 14.152531 71.113846 14.043857 71.196923 13.935166 71.280000 13.826463 71.363077 13.717756 71.446154 13.609051 71.529231 13.500355 71.612308 13.391673 71.695385 13.283014 71.778462 13.174383 71.861538 13.065787 71.944615 12.957232 72.027692 12.848726 72.110769 12.740275 72.193846 12.631884 72.276923 12.523562 72.360000 12.415314 72.443077 12.307147 72.526154 12.199068 72.609231 12.091083 72.692308 11.983199 72.775385 11.875423 72.858462 11.767760 72.941538 11.660218 73.024615 11.552803 73.107692 11.445522 73.190769 11.338381 73.273846 11.231388 73.356923 11.124547 73.440000 11.017867 73.523077 10.911354 73.606154 10.805014 73.689231 10.698853 73.772308 10.592880 73.855385 10.487099 73.938462 10.381518 74.021538 10.276143 74.104615 10.170981 74.187692 10.066038 74.270769 9.961321 74.353846 9.856837 74.436923 9.752592 74.520000 9.648593 74.603077 9.544846 74.686154 9.441358 74.769231 9.338135 74.852308 9.235185 74.935385 9.132513 75.018462 9.030126 75.101538 8.928031 75.184615 8.826235 75.267692 8.724744 75.350769 8.623564 75.433846 8.522703 75.516923 8.422166 75.600000 8.321960 75.683077 8.222093 75.766154 8.122570 75.849231 8.023398 75.932308 7.924584 76.015385 7.826134 76.098462 7.728056 76.181538 7.630354 76.264615 7.533037 76.347692 7.436110 76.430769 7.339580 76.513846 7.243455 76.596923 7.147739 76.680000 7.052441 76.763077 6.957566 76.846154 6.863121 76.929231 6.769113 77.012308 6.675549 77.095385 6.582434 77.178462 6.489776 77.261538 6.397581 77.344615 6.305855 77.427692 6.214606 77.510769 6.123840 77.593846 6.033563 77.676923 5.943782 77.760000 5.854504 77.843077 5.765735 77.926154 5.677482 78.009231 5.589751 78.092308 5.502549 78.175385 5.415882 78.258462 5.329758 78.341538 5.244182 78.424615 5.159162 78.507692 5.074703 78.590769 4.990813 78.673846 4.907498 78.756923 4.824765 78.840000 4.742620 78.923077 4.661070 79.006154 4.580121 79.089231 4.499780 79.172308 4.420054 79.255385 4.340948 79.338462 4.262471 79.421538 4.184628 79.504615 4.107426 79.587692 4.030871 79.670769 3.954970 79.753846 3.879730 79.836923 3.805158 79.920000 3.731259 80.003077 3.658041 80.086154 3.585509 80.169231 3.513672 80.252308 3.442534 80.335385 3.372103 80.418462 3.302386 80.501538 3.233388 80.584615 3.165117 80.667692 3.097580 80.750769 3.030781 80.833846 2.964730 80.916923 2.899431 81.000000 2.834891 81.083077 2.771118 81.166154 2.708117 81.249231 2.645896 81.332308 2.584460 81.415385 2.523817 81.498462 2.463972 81.581538 2.404934 81.664615 2.346707 81.747692 2.289299 81.830769 2.232717 81.913846 2.176966 81.996923 2.122054 82.080000 2.067987 82.163077 2.014772 82.246154 1.962415 82.329231 1.910922 82.412308 1.860302 82.495385 1.810559 82.578462 1.761701 82.661538 1.713734 82.744615 1.666665 82.827692 1.620500 82.910769 1.575246 82.993846 1.530910 83.076923 1.487498 83.160000 1.445016 83.243077 1.403472 83.326154 1.362872 83.409231 1.323222 83.492308 1.284529 83.575385 1.246800 83.658462 1.210042 83.741538 1.174259 83.824615 1.139461 83.907692 1.105652 83.990769 1.072840 84.073846 1.041031 84.156923 1.010232 84.240000 0.980449 84.323077 0.951689 84.406154 0.923959 84.489231 0.897265 84.572308 0.871613 84.655385 0.847011 84.738462 0.823464 84.821538 0.800980 84.904615 0.779565 84.987692 0.759226 85.070769 0.739969 85.153846 0.721800 85.236923 0.704726 85.320000 0.688742 85.403077 0.673844 85.486154 0.660029 85.569231 0.647292 85.652308 0.635628 85.735385 0.625034 85.818462 0.615504 85.901538 0.607034 85.984615 0.599621 86.067692 0.593258 86.150769 0.587944 86.233846 0.583671 86.316923 0.580438 86.400000 0.578238 86.483077 0.577068 86.566154 0.576923 86.649231 0.577799 86.732308 0.579692 86.815385 0.582597 86.898462 0.586509 86.981538 0.591425 87.064615 0.597340 87.147692 0.604249 87.230769 0.612149 87.313846 0.621034 87.396923 0.630901 87.480000 0.641745 87.563077 0.653562 87.646154 0.666347 87.729231 0.680096 87.812308 0.694804 87.895385 0.710468 87.978462 0.727082 88.061538 0.744643 88.144615 0.763146 88.227692 0.782586 88.310769 0.802960 88.393846 0.824262 88.476923 0.846490 88.560000 0.869637 88.643077 0.893700 88.726154 0.918674 88.809231 0.944555 88.892308 0.971339 88.975385 0.999021 89.058462 1.027597 89.141538 1.057062 89.224615 1.087413 89.307692 1.118644 89.390769 1.150751 89.473846 1.183730 89.556923 1.217577 89.640000 1.252287 89.723077 1.287856 89.806154 1.324279 89.889231 1.361552 89.972308 1.399671 90.055385 1.438631 90.138462 1.478428 90.221538 1.519057 90.304615 1.560514 90.387692 1.602796 90.470769 1.645896 90.553846 1.689812 90.636923 1.734538 90.720000 1.780070 90.803077 1.826404 90.886154 1.873535 90.969231 1.921460 91.052308 1.970173 91.135385 2.019671 91.218462 2.069948 91.301538 2.121001 91.384615 2.172825 91.467692 2.225416 91.550769 2.278769 91.633846 2.332880 91.716923 2.387745 91.800000 2.443359 91.883077 2.499718 91.966154 2.556817 92.049231 2.614653 92.132308 2.673220 92.215385 2.732514 92.298462 2.792532 92.381538 2.853268 92.464615 2.914718 92.547692 2.976878 92.630769 3.039743 92.713846 3.103310 92.796923 3.167573 92.880000 3.232528 92.963077 3.298171 93.046154 3.364498 93.129231 3.431504 93.212308 3.499185 93.295385 3.567536 93.378462 3.636553 93.461538 3.706231 93.544615 3.776567 93.627692 3.847556 93.710769 3.919193 93.793846 3.991474 93.876923 4.064395 93.960000 4.137951 94.043077 4.212139 94.126154 4.286952 94.209231 4.362388 94.292308 4.438442 94.375385 4.515109 94.458462 4.592385 94.541538 4.670266 94.624615 4.748747 94.707692 4.827824 94.790769 4.907492 94.873846 4.987748 94.956923 5.068586 95.040000 5.150003 95.123077 5.231993 95.206154 5.314553 95.289231 5.397679 95.372308 5.481365 95.455385 5.565608 95.538462 5.650403 95.621538 5.735745 95.704615 5.821631 95.787692 5.908055 95.870769 5.995015 95.953846 6.082504 96.036923 6.170519 96.120000 6.259056 96.203077 6.348109 96.286154 6.437675 96.369231 6.527750 96.452308 6.618328 96.535385 6.709406 96.618462 6.800979 96.701538 6.893043 96.784615 6.985593 96.867692 7.078624 96.950769 7.172134 97.033846 7.266117 97.116923 7.360568 97.200000 7.455484 97.283077 7.550860 97.366154 7.646692 97.449231 7.742975 97.532308 7.839705 97.615385 7.936877 97.698462 8.034488 97.781538 8.132532 97.864615 8.231006 97.947692 8.329905 98.030769 8.429224 98.113846 8.528960 98.196923 8.629107 98.280000 8.729662 98.363077 8.830621 98.446154 8.931977 98.529231 9.033728 98.612308 9.135869 98.695385 9.238396 98.778462 9.341304 98.861538 9.444589 98.944615 9.548246 99.027692 9.652271 99.110769 9.756660 99.193846 9.861408 99.276923 9.966511 99.360000 10.071964 99.443077 10.177764 99.526154 10.283905 99.609231 10.390384 99.692308 10.497195 99.775385 10.604336 99.858462 10.711800 99.941538 10.819585 100.024615 10.927685 100.107692 11.036096 100.190769 11.144813 100.273846 11.253833 100.356923 11.363151 100.440000 11.472763 100.523077 11.582663 100.606154 11.692849 100.689231 11.803315 100.772308 11.914057 100.855385 12.025070 100.938462 12.136351 101.021538 12.247895 101.104615 12.359697 101.187692 12.471754 101.270769 12.584060 101.353846 12.696611 101.436923 12.809404 101.520000 12.922433 101.603077 13.035694 101.686154 13.149183 101.769231 13.262896 101.852308 13.376827 101.935385 13.490974 102.018462 13.605330 102.101538 13.719893 102.184615 13.834657 102.267692 13.949618 102.350769 14.064772 102.433846 14.180115 102.516923 14.295641 102.600000 14.411348 102.683077 14.527229 102.766154 14.643281 102.849231 14.759500 102.932308 14.875881 103.015385 14.992420 103.098462 15.109112 103.181538 15.225953 103.264615 15.342938 103.347692 15.460064 103.430769 15.577325 103.513846 15.694719 103.596923 15.812239 103.680000 15.929881 103.763077 16.047642 103.846154 16.165517 103.929231 16.283502 104.012308 16.401592 104.095385 16.519782 104.178462 16.638069 104.261538 16.756448 104.344615 16.874914 104.427692 16.993464 104.510769 17.112093 104.593846 17.230796 104.676923 17.349569 104.760000 17.468408 104.843077 17.587308 104.926154 17.706265 105.009231 17.825275 105.092308 17.944333 105.175385 18.063435 105.258462 18.182576 105.341538 18.301753 105.424615 18.420959 105.507692 18.540193 105.590769 18.659448 105.673846 18.778721 105.756923 18.898006 105.840000 19.017301 105.923077 19.136600" class="line reactive nofill" /></g></g><g class="titles" /><g transform="translate(82, 10)" class="plot overlay"><g class="series serie-0 color-0" /></g><g transform="translate(82, 10)" class="plot text-overlay"><g class="series serie-0 color-0" /></g><g transform="translate(82, 10)" class="plot tooltip-overlay"><g transform="translate(0 0)" style="opacity: 0" class="tooltip"><rect rx="0" ry="0" width="0" height="0" class="tooltip-box" /><g class="text" /></g></g></g></svg>