<?xml version='1.0' encoding='utf-8'?>
<svg xmlns="http://www.w3.org/2000/svg" id="chart-9f8d8ad3-51d2-4f56-b400-8d7f00d770b1" class="pygal-chart pygal-sparkline" viewBox="0 0 200 50" width="200" height="50"><!--Generated with pygal 3.0.4 (etree) ©Kozea 2012-2016 on 2024-03-22--><!--http://pygal.org--><!--http://github.com/Kozea/pygal--><defs><style type="text/css">#chart-9f8d8ad3-51d2-4f56-b400-8d7f00d770b1{-webkit-user-select:none;-webkit-font-smoothing:antialiased;font-family:Consolas,"Liberation Mono",Menlo,Courier,monospace}#chart-9f8d8ad3-51d2-4f56-b400-8d7f00d770b1 .title{font-family:Consolas,"Liberation Mono",Menlo,Courier,monospace;font-size:16px}#chart-9f8d8ad3-51d2-4f56-b400-8d7f00d770b1 .legends .legend text{font-family:Consolas,"Liberation Mono",Menlo,Courier,monospace;font-size:14px}#chart-9f8d8ad3-51d2-4f56-b400-8d7f00d770b1 .axis text{font-family:Consolas,"Liberation Mono",Menlo,Courier,monospace;font-size:10px}#chart-9f8d8ad3-51d2-4f56-b400-8d7f00d770b1 .axis text.major{font-family:Consolas,"Liberation Mono",Menlo,Courier,monospace;font-size:10px}#chart-9f8d8ad3-51d2-4f56-b400-8d7f00d770b1 .text-overlay text.value{font-family:Consolas,"Liberation Mono",Menlo,Courier,monospace;font-size:16px}#chart-9f8d8ad3-51d2-4f56-b400-8d7f00d770b1 .text-overlay text.label{font-family:Consolas,"Liberation Mono",Menlo,Courier,monospace;font-size:10px}#chart-9f8d8ad3-51d2-4f56-b400-8d7f00d770b1 .tooltip{font-family:Consolas,"Liberation Mono",Menlo,Courier,monospace;font-size:14px}#chart-9f8d8ad3-51d2-4f56-b400-8d7f00d770b1 text.no_data{font-family:Consolas,"Liberation Mono",Menlo,Courier,monospace;font-size:64px}
#chart-9f8d8ad3-51d2-4f56-b400-8d7f00d770b1{background-color:rgba(249,249,249,1)}#chart-9f8d8ad3-51d2-4f56-b400-8d7f00d770b1 path,#chart-9f8d8ad3-51d2-4f56-b400-8d7f00d770b1 line,#chart-9f8d8ad3-51d2-4f56-b400-8d7f00d770b1 rect,#chart-9f8d8ad3-51d2-4f56-b400-8d7f00d770b1 circle{-webkit-transition:150ms;-moz-transition:150ms;transition:150ms}#chart-9f8d8ad3-51d2-4f56-b400-8d7f00d770b1 .graph &gt; .background{fill:rgba(249,249,249,1)}#chart-9f8d8ad3-51d2-4f56-b400-8d7f00d770b1 .plot &gt; .background{fill:rgba(255,255,255,1)}#chart-9f8d8ad3-51d2-4f56-b400-8d7f00d770b1 .graph{fill:rgba(0,0,0,.87)}#chart-9f8d8ad3-51d2-4f56-b400-8d7f00d770b1 text.no_data{fill:rgba(0,0,0,1)}#chart-9f8d8ad3-51d2-4f56-b400-8d7f00d770b1 .title{fill:rgba(0,0,0,1)}#chart-9f8d8ad3-51d2-4f56-b400-8d7f00d770b1 .legends .legend text{fill:rgba(0,0,0,.87)}#chart-9f8d8ad3-51d2-4f56-b400-8d7f00d770b1 .legends .legend:hover text{fill:rgba(0,0,0,1)}#chart-9f8d8ad3-51d2-4f56-b400-8d7f00d770b1 .axis .line{stroke:rgba(0,0,0,1)}#chart-9f8d8ad3-51d2-4f56-b400-8d7f00d770b1 .axis .guide.line{stroke:rgba(0,0,0,.54)}#chart-9f8d8ad3-51d2-4f56-b400-8d7f00d770b1 .axis .major.line{stroke:rgba(0,0,0,.87)}#chart-9f8d8ad3-51d2-4f56-b400-8d7f00d770b1 .axis text.major{fill:rgba(0,0,0,1)}#chart-9f8d8ad3-51d2-4f56-b400-8d7f00d770b1 .axis.y .guides:hover .guide.line,#chart-9f8d8ad3-51d2-4f56-b400-8d7f00d770b1 .line-graph .axis.x .guides:hover .guide.line,#chart-9f8d8ad3-51d2-4f56-b400-8d7f00d770b1 .stackedline-graph .axis.x .guides:hover .guide.line,#chart-9f8d8ad3-51d2-4f56-b400-8d7f00d770b1 .xy-graph .axis.x .guides:hover .guide.line{stroke:rgba(0,0,0,1)}#chart-9f8d8ad3-51d2-4f56-b400-8d7f00d770b1 .axis .guides:hover text{fill:rgba(0,0,0,1)}#chart-9f8d8ad3-51d2-4f56-b400-8d7f00d770b1 .reactive{fill-opacity:.7;stroke-opacity:.8;stroke-width:1}#chart-9f8d8ad3-51d2-4f56-b400-8d7f00d770b1 .ci{stroke:rgba(0,0,0,.87)}#chart-9f8d8ad3-51d2-4f56-b400-8d7f00d770b1 .reactive.active,#chart-9f8d8ad3-51d2-4f56-b400-8d7f00d770b1 .active .reactive{fill-opacity:.8;stroke-opacity:.9;stroke-width:4}#chart-9f8d8ad3-51d2-4f56-b400-8d7f00d770b1 .ci .reactive.active{stroke-width:1.5}#chart-9f8d8ad3-51d2-4f56-b400-8d7f00d770b1 .series text{fill:rgba(0,0,0,1)}#chart-9f8d8ad3-51d2-4f56-b400-8d7f00d770b1 .tooltip rect{fill:rgba(255,255,255,1);stroke:rgba(0,0,0,1);-webkit-transition:opacity 150ms;-moz-transition:opacity 150ms;transition:opacity 150ms}#chart-9f8d8ad3-51d2-4f56-b400-8d7f00d770b1 .tooltip .label{fill:rgba(0,0,0,.87)}#chart-9f8d8ad3-51d2-4f56-b400-8d7f00d770b1 .tooltip .label{fill:rgba(0,0,0,.87)}#chart-9f8d8ad3-51d2-4f56-b400-8d7f00d770b1 .tooltip .legend{font-size:.8em;fill:rgba(0,0,0,.54)}#chart-9f8d8ad3-51d2-4f56-b400-8d7f00d770b1 .tooltip .x_label{font-size:.6em;fill:rgba(0,0,0,1)}#chart-9f8d8ad3-51d2-4f56-b400-8d7f00d770b1 .tooltip .xlink{font-size:.5em;text-decoration:underline}#chart-9f8d8ad3-51d2-4f56-b400-8d7f00d770b1 .tooltip .value{font-size:1.5em}#chart-9f8d8ad3-51d2-4f56-b400-8d7f00d770b1 .bound{font-size:.5em}#chart-9f8d8ad3-51d2-4f56-b400-8d7f00d770b1 .max-value{font-size:.75em;fill:rgba(0,0,0,.54)}#chart-9f8d8ad3-51d2-4f56-b400-8d7f00d770b1 .map-element{fill:rgba(255,255,255,1);stroke:rgba(0,0,0,.54) !important}#chart-9f8d8ad3-51d2-4f56-b400-8d7f00d770b1 .map-element .reactive{fill-opacity:inherit;stroke-opacity:inherit}#chart-9f8d8ad3-51d2-4f56-b400-8d7f00d770b1 .color-0,#chart-9f8d8ad3-51d2-4f56-b400-8d7f00d770b1 .color-0 a:visited{stroke:#F44336;fill:#F44336}#chart-9f8d8ad3-51d2-4f56-b400-8d7f00d770b1 .text-overlay .color-0 text{fill:black}
#chart-9f8d8ad3-51d2-4f56-b400-8d7f00d770b1 text.no_data{text-anchor:middle}#chart-9f8d8ad3-51d2-4f56-b400-8d7f00d770b1 .guide.line{fill:none}#chart-9f8d8ad3-51d2-4f56-b400-8d7f00d770b1 .centered{text-anchor:middle}#chart-9f8d8ad3-51d2-4f56-b400-8d7f00d770b1 .title{text-anchor:middle}#chart-9f8d8ad3-51d2-4f56-b400-8d7f00d770b1 .legends .legend text{fill-opacity:1}#chart-9f8d8ad3-51d2-4f56-b400-8d7f00d770b1 .axis.x text{text-anchor:middle}#chart-9f8d8ad3-51d2-4f56-b400-8d7f00d770b1 .axis.x:not(.web) text[transform]{text-anchor:start}#chart-9f8d8ad3-51d2-4f56-b400-8d7f00d770b1 .axis.x:not(.web) text[transform].backwards{text-anchor:end}#chart-9f8d8ad3-51d2-4f56-b400-8d7f00d770b1 .axis.y text{text-anchor:end}#chart-9f8d8ad3-51d2-4f56-b400-8d7f00d770b1 .axis.y text[transform].backwards{text-anchor:start}#chart-9f8d8ad3-51d2-4f56-b400-8d7f00d770b1 .axis.y2 text{text-anchor:start}#chart-9f8d8ad3-51d2-4f56-b400-8d7f00d770b1 .axis.y2 text[transform].backwards{text-anchor:end}#chart-9f8d8ad3-51d2-4f56-b400-8d7f00d770b1 .axis .guide.line{stroke-dasharray:4,4;stroke:black}#chart-9f8d8ad3-51d2-4f56-b400-8d7f00d770b1 .axis .major.guide.line{stroke-dasharray:6,6;stroke:black}#chart-9f8d8ad3-51d2-4f56-b400-8d7f00d770b1 .horizontal .axis.y .guide.line,#chart-9f8d8ad3-51d2-4f56-b400-8d7f00d770b1 .horizontal .axis.y2 .guide.line,#chart-9f8d8ad3-51d2-4f56-b400-8d7f00d770b1 .vertical .axis.x .guide.line{opacity:0}#chart-9f8d8ad3-51d2-4f56-b400-8d7f00d770b1 .horizontal .axis.always_show .guide.line,#chart-9f8d8ad3-51d2-4f56-b400-8d7f00d770b1 .vertical .axis.always_show .guide.line{opacity:1 !important}#chart-9f8d8ad3-51d2-4f56-b400-8d7f00d770b1 .axis.y .guides:hover .guide.line,#chart-9f8d8ad3-51d2-4f56-b400-8d7f00d770b1 .axis.y2 .guides:hover .guide.line,#chart-9f8d8ad3-51d2-4f56-b400-8d7f00d770b1 .axis.x .guides:hover .guide.line{opacity:1}#chart-9f8d8ad3-51d2-4f56-b400-8d7f00d770b1 .axis .guides:hover text{opacity:1}#chart-9f8d8ad3-51d2-4f56-b400-8d7f00d770b1 .nofill{fill:none}#chart-9f8d8ad3-51d2-4f56-b400-8d7f00d770b1 .subtle-fill{fill-opacity:.2}#chart-9f8d8ad3-51d2-4f56-b400-8d7f00d770b1 .dot{stroke-width:1px;fill-opacity:1;stroke-opacity:1}#chart-9f8d8ad3-51d2-4f56-b400-8d7f00d770b1 .dot.active{stroke-width:5px}#chart-9f8d8ad3-51d2-4f56-b400-8d7f00d770b1 .dot.negative{fill:transparent}#chart-9f8d8ad3-51d2-4f56-b400-8d7f00d770b1 text,#chart-9f8d8ad3-51d2-4f56-b400-8d7f00d770b1 tspan{stroke:none !important}#chart-9f8d8ad3-51d2-4f56-b400-8d7f00d770b1 .series text.active{opacity:1}#chart-9f8d8ad3-51d2-4f56-b400-8d7f00d770b1 .tooltip rect{fill-opacity:.95;stroke-width:.5}#chart-9f8d8ad3-51d2-4f56-b400-8d7f00d770b1 .tooltip text{fill-opacity:1}#chart-9f8d8ad3-51d2-4f56-b400-8d7f00d770b1 .showable{visibility:hidden}#chart-9f8d8ad3-51d2-4f56-b400-8d7f00d770b1 .showable.shown{visibility:visible}#chart-9f8d8ad3-51d2-4f56-b400-8d7f00d770b1 .gauge-background{fill:rgba(229,229,229,1);stroke:none}#chart-9f8d8ad3-51d2-4f56-b400-8d7f00d770b1 .bg-lines{stroke:rgba(249,249,249,1);stroke-width:2px}</style><script type="text/javascript">window.pygal = window.pygal || {};window.pygal.config = window.pygal.config || {};window.pygal.config['9f8d8ad3-51d2-4f56-b400-8d7f00d770b1'] = {"allow_interruptions": false, "box_mode": "extremes", "classes": ["pygal-chart", "pygal-sparkline"], "css": ["file://style.css", "file://graph.css"], "defs": [], "disable_xml_declaration": false, "dots_size": 2.5, "dynamic_print_values": false, "explicit_size": true, "fill": false, "force_uri_protocol": "https", "formatter": null, "half_pie": false, "height": 50, "include_x_axis": false, "inner_radius": 0, "interpolate": "cubic", "interpolation_parameters": {}, "interpolation_precision": 250, "inverse_y_axis": false, "js": [], "legend_at_bottom": false, "legend_at_bottom_columns": null, "legend_box_size": 12, "logarithmic": false, "margin": 10, "margin_bottom": null, "margin_left": null, "margin_right": null, "margin_top": null, "max_scale": 2, "min_scale": 1, "missing_value_fill_truncation": "x", "no_data_text": "", "no_prefix": false, "order_min": null, "pretty_print": false, "print_labels": false, "print_values": false, "print_values_position": "center", "print_zeroes": true, "range": null, "rounded_bars": null, "secondary_range": null, "show_dots": false, "show_legend": false, "show_minor_x_labels": true, "show_minor_y_labels": true, "show_only_major_dots": false, "show_x_guides": false, "show_x_labels": true, "show_y_guides": true, "show_y_labels": true, "spacing": 0, "stack_from_top": false, "strict": false, "stroke": true, "stroke_style": null, "style": {"background": "rgba(249, 249, 249, 1)", "ci_colors": [], "colors": ["#F44336", "#3F51B5", "#009688", "#FFC107", "#FF5722", "#9C27B0", "#03A9F4", "#8BC34A", "#FF9800", "#E91E63", "#2196F3", "#4CAF50", "#FFEB3B", "#673AB7", "#00BCD4", "#CDDC39", "#9E9E9E", "#607D8B"], "dot_opacity": "1", "font_family": "Consolas, \"Liberation Mono\", Menlo, Courier, monospace", "foreground": "rgba(0, 0, 0, .87)", "foreground_strong": "rgba(0, 0, 0, 1)", "foreground_subtle": "rgba(0, 0, 0, .54)", "guide_stroke_color": "black", "guide_stroke_dasharray": "4,4", "label_font_family": "Consolas, \"Liberation Mono\", Menlo, Courier, monospace", "label_font_size": 10, "legend_font_family": "Consolas, \"Liberation Mono\", Menlo, Courier, monospace", "legend_font_size": 14, "major_guide_stroke_color": "black", "major_guide_stroke_dasharray": "6,6", "major_label_font_family": "Consolas, \"Liberation Mono\", Menlo, Courier, monospace", "major_label_font_size": 10, "no_data_font_family": "Consolas, \"Liberation Mono\", Menlo, Courier, monospace", "no_data_font_size": 64, "opacity": ".7", "opacity_hover": ".8", "plot_background": "rgba(255, 255, 255, 1)", "stroke_opacity": ".8", "stroke_opacity_hover": ".9", "stroke_width": "1", "stroke_width_hover": "4", "title_font_family": "Consolas, \"Liberation Mono\", Menlo, Courier, monospace", "title_font_size": 16, "tooltip_font_family": "Consolas, \"Liberation Mono\", Menlo, Courier, monospace", "tooltip_font_size": 14, "transition": "150ms", "value_background": "rgba(229, 229, 229, 1)", "value_colors": [], "value_font_family": "Consolas, \"Liberation Mono\", Menlo, Courier, monospace", "value_font_size": 16, "value_label_font_family": "Consolas, \"Liberation Mono\", Menlo, Courier, monospace", "value_label_font_size": 10}, "title": null, "tooltip_border_radius": 0, "tooltip_fancy_mode": true, "truncate_label": null, "truncate_legend": null, "width": 200, "x_label_rotation": 0, "x_labels": ["2024/3", "2024/2", "2024/1"], "x_labels_major": null, "x_labels_major_count": null, "x_labels_major_every": null, "x_title": null, "xrange": null, "y_label_rotation": 0, "y_labels": null, "y_labels_major": null, "y_labels_major_count": null, "y_labels_major_every": null, "y_title": null, "zero": 0, "legends": [""]}</script></defs><title>Pygal</title><g class="graph line-graph vertical"><rect x="0" y="0" width="200" height="50" class="background" /><g transform="translate(76, 10)" class="plot"><rect x="0" y="0" width="114.0" height="20" class="background" /><g class="axis y always_show"><path d="M0.000000 20.000000 h114.000000" class="line" /><g class="guides"><path d="M0.000000 19.615385 h114.000000" class="guide line" /><text x="-5" y="23.115384615384617" class="">4</text><title>4</title></g><g class="guides"><path d="M0.000000 0.384615 h114.000000" class="guide line" /><text x="-5" y="3.884615384615387" class="">14.48450765</text><title>14.48450765</title></g></g><g class="axis x"><g class="guides"><path d="M2.192308 0.000000 v20.000000" class="line" /><text x="2.1923076923076925" y="35.0" class="">2024…</text><title>2024/3</title></g><g class="guides"><path d="M57.000000 0.000000 v20.000000" class="guide line" /><text x="57.0" y="35.0" class="">2024…</text><title>2024/2</title></g><g class="guides"><path d="M111.807692 0.000000 v20.000000" class="guide line" /><text x="111.8076923076923" y="35.0" class="">2024…</text><title>2024/1</title></g></g><g class="series serie-0 color-0"><path d="M2.192308 4.941720 L2.411538 4.905036 2.630769 4.868354 2.850000 4.831677 3.069231 4.795005 3.288462 4.758343 3.507692 4.721691 3.726923 4.685051 3.946154 4.648427 4.165385 4.611819 4.384615 4.575230 4.603846 4.538662 4.823077 4.502118 5.042308 4.465599 5.261538 4.429108 5.480769 4.392646 5.700000 4.356215 5.919231 4.319819 6.138462 4.283458 6.357692 4.247136 6.576923 4.210854 6.796154 4.174614 7.015385 4.138418 7.234615 4.102269 7.453846 4.066168 7.673077 4.030118 7.892308 3.994121 8.111538 3.958179 8.330769 3.922294 8.550000 3.886468 8.769231 3.850703 8.988462 3.815002 9.207692 3.779366 9.426923 3.743798 9.646154 3.708300 9.865385 3.672873 10.084615 3.637520 10.303846 3.602244 10.523077 3.567046 10.742308 3.531927 10.961538 3.496892 11.180769 3.461941 11.400000 3.427076 11.619231 3.392300 11.838462 3.357615 12.057692 3.323024 12.276923 3.288527 12.496154 3.254127 12.715385 3.219827 12.934615 3.185628 13.153846 3.151532 13.373077 3.117543 13.592308 3.083661 13.811538 3.049889 14.030769 3.016229 14.250000 2.982683 14.469231 2.949253 14.688462 2.915941 14.907692 2.882750 15.126923 2.849682 15.346154 2.816738 15.565385 2.783921 15.784615 2.751233 16.003846 2.718676 16.223077 2.686252 16.442308 2.653963 16.661538 2.621812 16.880769 2.589800 17.100000 2.557929 17.319231 2.526203 17.538462 2.494622 17.757692 2.463189 17.976923 2.431906 18.196154 2.400775 18.415385 2.369798 18.634615 2.338978 18.853846 2.308316 19.073077 2.277815 19.292308 2.247477 19.511538 2.217303 19.730769 2.187297 19.950000 2.157459 20.169231 2.127792 20.388462 2.098299 20.607692 2.068981 20.826923 2.039841 21.046154 2.010880 21.265385 1.982101 21.484615 1.953506 21.703846 1.925097 21.923077 1.896875 22.142308 1.868844 22.361538 1.841006 22.580769 1.813361 22.800000 1.785913 23.019231 1.758664 23.238462 1.731616 23.457692 1.704770 23.676923 1.678129 23.896154 1.651696 24.115385 1.625471 24.334615 1.599458 24.553846 1.573658 24.773077 1.548074 24.992308 1.522708 25.211538 1.497561 25.430769 1.472636 25.650000 1.447935 25.869231 1.423460 26.088462 1.399214 26.307692 1.375197 26.526923 1.351413 26.746154 1.327864 26.965385 1.304551 27.184615 1.281477 27.403846 1.258644 27.623077 1.236054 27.842308 1.213709 28.061538 1.191612 28.280769 1.169763 28.500000 1.148166 28.719231 1.126823 28.938462 1.105735 29.157692 1.084905 29.376923 1.064335 29.596154 1.044027 29.815385 1.023983 30.034615 1.004206 30.253846 0.984696 30.473077 0.965458 30.692308 0.946491 30.911538 0.927800 31.130769 0.909385 31.350000 0.891249 31.569231 0.873394 31.788462 0.855823 32.007692 0.838536 32.226923 0.821537 32.446154 0.804828 32.665385 0.788410 32.884615 0.772286 33.103846 0.756457 33.323077 0.740927 33.542308 0.725696 33.761538 0.710768 33.980769 0.696144 34.200000 0.681826 34.419231 0.667817 34.638462 0.654119 34.857692 0.640733 35.076923 0.627662 35.296154 0.614908 35.515385 0.602473 35.734615 0.590359 35.953846 0.578569 36.173077 0.567104 36.392308 0.555966 36.611538 0.545158 36.830769 0.534682 37.050000 0.524540 37.269231 0.514733 37.488462 0.505265 37.707692 0.496137 37.926923 0.487351 38.146154 0.478910 38.365385 0.470815 38.584615 0.463069 38.803846 0.455674 39.023077 0.448631 39.242308 0.441944 39.461538 0.435613 39.680769 0.429642 39.900000 0.424032 40.119231 0.418785 40.338462 0.413904 40.557692 0.409391 40.776923 0.405248 40.996154 0.401476 41.215385 0.398079 41.434615 0.395057 41.653846 0.392414 41.873077 0.390151 42.092308 0.388270 42.311538 0.386775 42.530769 0.385665 42.750000 0.384945 42.969231 0.384615 43.188462 0.384679 43.407692 0.385138 43.626923 0.385993 43.846154 0.387249 44.065385 0.388905 44.284615 0.390966 44.503846 0.393432 44.723077 0.396305 44.942308 0.399589 45.161538 0.403285 45.380769 0.407395 45.600000 0.411921 45.819231 0.416866 46.038462 0.422231 46.257692 0.428018 46.476923 0.434231 46.696154 0.440870 46.915385 0.447938 47.134615 0.455437 47.353846 0.463370 47.573077 0.471737 47.792308 0.480542 48.011538 0.489787 48.230769 0.499473 48.450000 0.509603 48.669231 0.520178 48.888462 0.531202 49.107692 0.542676 49.326923 0.554602 49.546154 0.566982 49.765385 0.579819 49.984615 0.593114 50.203846 0.606870 50.423077 0.621088 50.642308 0.635772 50.861538 0.650922 51.080769 0.666541 51.300000 0.682632 51.519231 0.699196 51.738462 0.716236 51.957692 0.733752 52.176923 0.751749 52.396154 0.770227 52.615385 0.789190 52.834615 0.808638 53.053846 0.828574 53.273077 0.849001 53.492308 0.869920 53.711538 0.891333 53.930769 0.913243 54.150000 0.935652 54.369231 0.958561 54.588462 0.981973 54.807692 1.005890 55.026923 1.030315 55.246154 1.055248 55.465385 1.080693 55.684615 1.106652 55.903846 1.133126 56.123077 1.160117 56.342308 1.187629 56.561538 1.215662 56.780769 1.244220 57.000000 1.273303 57.219231 1.302914 57.438462 1.333052 57.657692 1.363713 57.876923 1.394896 58.096154 1.426599 58.315385 1.458820 58.534615 1.491556 58.753846 1.524806 58.973077 1.558567 59.192308 1.592837 59.411538 1.627614 59.630769 1.662897 59.850000 1.698682 60.069231 1.734968 60.288462 1.771753 60.507692 1.809034 60.726923 1.846810 60.946154 1.885078 61.165385 1.923836 61.384615 1.963083 61.603846 2.002815 61.823077 2.043032 62.042308 2.083730 62.261538 2.124907 62.480769 2.166563 62.700000 2.208693 62.919231 2.251297 63.138462 2.294372 63.357692 2.337917 63.576923 2.381928 63.796154 2.426404 64.015385 2.471343 64.234615 2.516742 64.453846 2.562600 64.673077 2.608915 64.892308 2.655684 65.111538 2.702905 65.330769 2.750576 65.550000 2.798694 65.769231 2.847259 65.988462 2.896268 66.207692 2.945718 66.426923 2.995608 66.646154 3.045935 66.865385 3.096697 67.084615 3.147892 67.303846 3.199519 67.523077 3.251574 67.742308 3.304057 67.961538 3.356964 68.180769 3.410293 68.400000 3.464043 68.619231 3.518212 68.838462 3.572797 69.057692 3.627796 69.276923 3.683206 69.496154 3.739027 69.715385 3.795256 69.934615 3.851890 70.153846 3.908928 70.373077 3.966368 70.592308 4.024206 70.811538 4.082442 71.030769 4.141074 71.250000 4.200098 71.469231 4.259513 71.688462 4.319317 71.907692 4.379507 72.126923 4.440082 72.346154 4.501040 72.565385 4.562378 72.784615 4.624094 73.003846 4.686186 73.223077 4.748653 73.442308 4.811491 73.661538 4.874699 73.880769 4.938274 74.100000 5.002215 74.319231 5.066520 74.538462 5.131186 74.757692 5.196211 74.976923 5.261593 75.196154 5.327330 75.415385 5.393420 75.634615 5.459861 75.853846 5.526651 76.073077 5.593787 76.292308 5.661267 76.511538 5.729090 76.730769 5.797253 76.950000 5.865754 77.169231 5.934591 77.388462 6.003762 77.607692 6.073264 77.826923 6.143097 78.046154 6.213256 78.265385 6.283741 78.484615 6.354550 78.703846 6.425679 78.923077 6.497128 79.142308 6.568894 79.361538 6.640974 79.580769 6.713367 79.800000 6.786071 80.019231 6.859083 80.238462 6.932402 80.457692 7.006025 80.676923 7.079950 80.896154 7.154175 81.115385 7.228698 81.334615 7.303517 81.553846 7.378630 81.773077 7.454034 81.992308 7.529728 82.211538 7.605709 82.430769 7.681975 82.650000 7.758525 82.869231 7.835355 83.088462 7.912464 83.307692 7.989851 83.526923 8.067512 83.746154 8.145445 83.965385 8.223649 84.184615 8.302121 84.403846 8.380860 84.623077 8.459862 84.842308 8.539127 85.061538 8.618652 85.280769 8.698434 85.500000 8.778472 85.719231 8.858764 85.938462 8.939307 86.157692 9.020099 86.376923 9.101139 86.596154 9.182423 86.815385 9.263951 87.034615 9.345720 87.253846 9.427727 87.473077 9.509971 87.692308 9.592450 87.911538 9.675161 88.130769 9.758102 88.350000 9.841271 88.569231 9.924667 88.788462 10.008287 89.007692 10.092128 89.226923 10.176189 89.446154 10.260468 89.665385 10.344962 89.884615 10.429670 90.103846 10.514589 90.323077 10.599718 90.542308 10.685053 90.761538 10.770593 90.980769 10.856336 91.200000 10.942280 91.419231 11.028423 91.638462 11.114762 91.857692 11.201295 92.076923 11.288021 92.296154 11.374937 92.515385 11.462041 92.734615 11.549331 92.953846 11.636804 93.173077 11.724460 93.392308 11.812295 93.611538 11.900307 93.830769 11.988495 94.050000 12.076856 94.269231 12.165389 94.488462 12.254090 94.707692 12.342958 94.926923 12.431992 95.146154 12.521187 95.365385 12.610544 95.584615 12.700059 95.803846 12.789730 96.023077 12.879555 96.242308 12.969533 96.461538 13.059661 96.680769 13.149936 96.900000 13.240358 97.119231 13.330923 97.338462 13.421629 97.557692 13.512475 97.776923 13.603459 97.996154 13.694577 98.215385 13.785829 98.434615 13.877212 98.653846 13.968724 98.873077 14.060362 99.092308 14.152125 99.311538 14.244011 99.530769 14.336017 99.750000 14.428141 99.969231 14.520382 100.188462 14.612737 100.407692 14.705203 100.626923 14.797780 100.846154 14.890464 101.065385 14.983254 101.284615 15.076148 101.503846 15.169143 101.723077 15.262237 101.942308 15.355429 102.161538 15.448715 102.380769 15.542095 102.600000 15.635565 102.819231 15.729125 103.038462 15.822770 103.257692 15.916501 103.476923 16.010313 103.696154 16.104207 103.915385 16.198178 104.134615 16.292225 104.353846 16.386346 104.573077 16.480539 104.792308 16.574802 105.011538 16.669133 105.230769 16.763528 105.450000 16.857988 105.669231 16.952508 105.888462 17.047088 106.107692 17.141725 106.326923 17.236417 106.546154 17.331161 106.765385 17.425957 106.984615 17.520800 107.203846 17.615691 107.423077 17.710625 107.642308 17.805602 107.861538 17.900620 108.080769 17.995675 108.300000 18.090766 108.519231 18.185891 108.738462 18.281047 108.957692 18.376234 109.176923 18.471447 109.396154 18.566686 109.615385 18.661949 109.834615 18.757232 110.053846 18.852534 110.273077 18.947854 110.492308 19.043188 110.711538 19.138535 110.930769 19.233892 111.150000 19.329258 111.369231 19.424630 111.588462 19.520006 111.807692 19.615385" class="line reactive nofill" /></g></g><g class="titles" /><g transform="translate(76, 10)" class="plot overlay"><g class="series serie-0 color-0" /></g><g transform="translate(76, 10)" class="plot text-overlay"><g class="series serie-0 color-0" /></g><g transform="translate(76, 10)" class="plot tooltip-overlay"><g transform="translate(0 0)" style="opacity: 0" class="tooltip"><rect rx="0" ry="0" width="0" height="0" class="tooltip-box" /><g class="text" /></g></g></g></svg>