<?xml version='1.0' encoding='utf-8'?>
<svg xmlns="http://www.w3.org/2000/svg" id="chart-0c9d9120-abb5-45be-b312-fbb7579e73ec" class="pygal-chart pygal-sparkline" viewBox="0 0 200 50" width="200" height="50"><!--Generated with pygal 3.0.5 (etree) ©Kozea 2012-2016 on 2024-11-07--><!--http://pygal.org--><!--http://github.com/Kozea/pygal--><defs><style type="text/css">#chart-0c9d9120-abb5-45be-b312-fbb7579e73ec{-webkit-user-select:none;-webkit-font-smoothing:antialiased;font-family:Consolas,"Liberation Mono",Menlo,Courier,monospace}#chart-0c9d9120-abb5-45be-b312-fbb7579e73ec .title{font-family:Consolas,"Liberation Mono",Menlo,Courier,monospace;font-size:16px}#chart-0c9d9120-abb5-45be-b312-fbb7579e73ec .legends .legend text{font-family:Consolas,"Liberation Mono",Menlo,Courier,monospace;font-size:14px}#chart-0c9d9120-abb5-45be-b312-fbb7579e73ec .axis text{font-family:Consolas,"Liberation Mono",Menlo,Courier,monospace;font-size:10px}#chart-0c9d9120-abb5-45be-b312-fbb7579e73ec .axis text.major{font-family:Consolas,"Liberation Mono",Menlo,Courier,monospace;font-size:10px}#chart-0c9d9120-abb5-45be-b312-fbb7579e73ec .text-overlay text.value{font-family:Consolas,"Liberation Mono",Menlo,Courier,monospace;font-size:16px}#chart-0c9d9120-abb5-45be-b312-fbb7579e73ec .text-overlay text.label{font-family:Consolas,"Liberation Mono",Menlo,Courier,monospace;font-size:10px}#chart-0c9d9120-abb5-45be-b312-fbb7579e73ec .tooltip{font-family:Consolas,"Liberation Mono",Menlo,Courier,monospace;font-size:14px}#chart-0c9d9120-abb5-45be-b312-fbb7579e73ec text.no_data{font-family:Consolas,"Liberation Mono",Menlo,Courier,monospace;font-size:64px}
#chart-0c9d9120-abb5-45be-b312-fbb7579e73ec{background-color:rgba(249,249,249,1)}#chart-0c9d9120-abb5-45be-b312-fbb7579e73ec path,#chart-0c9d9120-abb5-45be-b312-fbb7579e73ec line,#chart-0c9d9120-abb5-45be-b312-fbb7579e73ec rect,#chart-0c9d9120-abb5-45be-b312-fbb7579e73ec circle{-webkit-transition:150ms;-moz-transition:150ms;transition:150ms}#chart-0c9d9120-abb5-45be-b312-fbb7579e73ec .graph &gt; .background{fill:rgba(249,249,249,1)}#chart-0c9d9120-abb5-45be-b312-fbb7579e73ec .plot &gt; .background{fill:rgba(255,255,255,1)}#chart-0c9d9120-abb5-45be-b312-fbb7579e73ec .graph{fill:rgba(0,0,0,.87)}#chart-0c9d9120-abb5-45be-b312-fbb7579e73ec text.no_data{fill:rgba(0,0,0,1)}#chart-0c9d9120-abb5-45be-b312-fbb7579e73ec .title{fill:rgba(0,0,0,1)}#chart-0c9d9120-abb5-45be-b312-fbb7579e73ec .legends .legend text{fill:rgba(0,0,0,.87)}#chart-0c9d9120-abb5-45be-b312-fbb7579e73ec .legends .legend:hover text{fill:rgba(0,0,0,1)}#chart-0c9d9120-abb5-45be-b312-fbb7579e73ec .axis .line{stroke:rgba(0,0,0,1)}#chart-0c9d9120-abb5-45be-b312-fbb7579e73ec .axis .guide.line{stroke:rgba(0,0,0,.54)}#chart-0c9d9120-abb5-45be-b312-fbb7579e73ec .axis .major.line{stroke:rgba(0,0,0,.87)}#chart-0c9d9120-abb5-45be-b312-fbb7579e73ec .axis text.major{fill:rgba(0,0,0,1)}#chart-0c9d9120-abb5-45be-b312-fbb7579e73ec .axis.y .guides:hover .guide.line,#chart-0c9d9120-abb5-45be-b312-fbb7579e73ec .line-graph .axis.x .guides:hover .guide.line,#chart-0c9d9120-abb5-45be-b312-fbb7579e73ec .stackedline-graph .axis.x .guides:hover .guide.line,#chart-0c9d9120-abb5-45be-b312-fbb7579e73ec .xy-graph .axis.x .guides:hover .guide.line{stroke:rgba(0,0,0,1)}#chart-0c9d9120-abb5-45be-b312-fbb7579e73ec .axis .guides:hover text{fill:rgba(0,0,0,1)}#chart-0c9d9120-abb5-45be-b312-fbb7579e73ec .reactive{fill-opacity:.7;stroke-opacity:.8;stroke-width:1}#chart-0c9d9120-abb5-45be-b312-fbb7579e73ec .ci{stroke:rgba(0,0,0,.87)}#chart-0c9d9120-abb5-45be-b312-fbb7579e73ec .reactive.active,#chart-0c9d9120-abb5-45be-b312-fbb7579e73ec .active .reactive{fill-opacity:.8;stroke-opacity:.9;stroke-width:4}#chart-0c9d9120-abb5-45be-b312-fbb7579e73ec .ci .reactive.active{stroke-width:1.5}#chart-0c9d9120-abb5-45be-b312-fbb7579e73ec .series text{fill:rgba(0,0,0,1)}#chart-0c9d9120-abb5-45be-b312-fbb7579e73ec .tooltip rect{fill:rgba(255,255,255,1);stroke:rgba(0,0,0,1);-webkit-transition:opacity 150ms;-moz-transition:opacity 150ms;transition:opacity 150ms}#chart-0c9d9120-abb5-45be-b312-fbb7579e73ec .tooltip .label{fill:rgba(0,0,0,.87)}#chart-0c9d9120-abb5-45be-b312-fbb7579e73ec .tooltip .label{fill:rgba(0,0,0,.87)}#chart-0c9d9120-abb5-45be-b312-fbb7579e73ec .tooltip .legend{font-size:.8em;fill:rgba(0,0,0,.54)}#chart-0c9d9120-abb5-45be-b312-fbb7579e73ec .tooltip .x_label{font-size:.6em;fill:rgba(0,0,0,1)}#chart-0c9d9120-abb5-45be-b312-fbb7579e73ec .tooltip .xlink{font-size:.5em;text-decoration:underline}#chart-0c9d9120-abb5-45be-b312-fbb7579e73ec .tooltip .value{font-size:1.5em}#chart-0c9d9120-abb5-45be-b312-fbb7579e73ec .bound{font-size:.5em}#chart-0c9d9120-abb5-45be-b312-fbb7579e73ec .max-value{font-size:.75em;fill:rgba(0,0,0,.54)}#chart-0c9d9120-abb5-45be-b312-fbb7579e73ec .map-element{fill:rgba(255,255,255,1);stroke:rgba(0,0,0,.54) !important}#chart-0c9d9120-abb5-45be-b312-fbb7579e73ec .map-element .reactive{fill-opacity:inherit;stroke-opacity:inherit}#chart-0c9d9120-abb5-45be-b312-fbb7579e73ec .color-0,#chart-0c9d9120-abb5-45be-b312-fbb7579e73ec .color-0 a:visited{stroke:#F44336;fill:#F44336}#chart-0c9d9120-abb5-45be-b312-fbb7579e73ec .text-overlay .color-0 text{fill:black}
#chart-0c9d9120-abb5-45be-b312-fbb7579e73ec text.no_data{text-anchor:middle}#chart-0c9d9120-abb5-45be-b312-fbb7579e73ec .guide.line{fill:none}#chart-0c9d9120-abb5-45be-b312-fbb7579e73ec .centered{text-anchor:middle}#chart-0c9d9120-abb5-45be-b312-fbb7579e73ec .title{text-anchor:middle}#chart-0c9d9120-abb5-45be-b312-fbb7579e73ec .legends .legend text{fill-opacity:1}#chart-0c9d9120-abb5-45be-b312-fbb7579e73ec .axis.x text{text-anchor:middle}#chart-0c9d9120-abb5-45be-b312-fbb7579e73ec .axis.x:not(.web) text[transform]{text-anchor:start}#chart-0c9d9120-abb5-45be-b312-fbb7579e73ec .axis.x:not(.web) text[transform].backwards{text-anchor:end}#chart-0c9d9120-abb5-45be-b312-fbb7579e73ec .axis.y text{text-anchor:end}#chart-0c9d9120-abb5-45be-b312-fbb7579e73ec .axis.y text[transform].backwards{text-anchor:start}#chart-0c9d9120-abb5-45be-b312-fbb7579e73ec .axis.y2 text{text-anchor:start}#chart-0c9d9120-abb5-45be-b312-fbb7579e73ec .axis.y2 text[transform].backwards{text-anchor:end}#chart-0c9d9120-abb5-45be-b312-fbb7579e73ec .axis .guide.line{stroke-dasharray:4,4;stroke:black}#chart-0c9d9120-abb5-45be-b312-fbb7579e73ec .axis .major.guide.line{stroke-dasharray:6,6;stroke:black}#chart-0c9d9120-abb5-45be-b312-fbb7579e73ec .horizontal .axis.y .guide.line,#chart-0c9d9120-abb5-45be-b312-fbb7579e73ec .horizontal .axis.y2 .guide.line,#chart-0c9d9120-abb5-45be-b312-fbb7579e73ec .vertical .axis.x .guide.line{opacity:0}#chart-0c9d9120-abb5-45be-b312-fbb7579e73ec .horizontal .axis.always_show .guide.line,#chart-0c9d9120-abb5-45be-b312-fbb7579e73ec .vertical .axis.always_show .guide.line{opacity:1 !important}#chart-0c9d9120-abb5-45be-b312-fbb7579e73ec .axis.y .guides:hover .guide.line,#chart-0c9d9120-abb5-45be-b312-fbb7579e73ec .axis.y2 .guides:hover .guide.line,#chart-0c9d9120-abb5-45be-b312-fbb7579e73ec .axis.x .guides:hover .guide.line{opacity:1}#chart-0c9d9120-abb5-45be-b312-fbb7579e73ec .axis .guides:hover text{opacity:1}#chart-0c9d9120-abb5-45be-b312-fbb7579e73ec .nofill{fill:none}#chart-0c9d9120-abb5-45be-b312-fbb7579e73ec .subtle-fill{fill-opacity:.2}#chart-0c9d9120-abb5-45be-b312-fbb7579e73ec .dot{stroke-width:1px;fill-opacity:1;stroke-opacity:1}#chart-0c9d9120-abb5-45be-b312-fbb7579e73ec .dot.active{stroke-width:5px}#chart-0c9d9120-abb5-45be-b312-fbb7579e73ec .dot.negative{fill:transparent}#chart-0c9d9120-abb5-45be-b312-fbb7579e73ec text,#chart-0c9d9120-abb5-45be-b312-fbb7579e73ec tspan{stroke:none !important}#chart-0c9d9120-abb5-45be-b312-fbb7579e73ec .series text.active{opacity:1}#chart-0c9d9120-abb5-45be-b312-fbb7579e73ec .tooltip rect{fill-opacity:.95;stroke-width:.5}#chart-0c9d9120-abb5-45be-b312-fbb7579e73ec .tooltip text{fill-opacity:1}#chart-0c9d9120-abb5-45be-b312-fbb7579e73ec .showable{visibility:hidden}#chart-0c9d9120-abb5-45be-b312-fbb7579e73ec .showable.shown{visibility:visible}#chart-0c9d9120-abb5-45be-b312-fbb7579e73ec .gauge-background{fill:rgba(229,229,229,1);stroke:none}#chart-0c9d9120-abb5-45be-b312-fbb7579e73ec .bg-lines{stroke:rgba(249,249,249,1);stroke-width:2px}</style><script type="text/javascript">window.pygal = window.pygal || {};window.pygal.config = window.pygal.config || {};window.pygal.config['0c9d9120-abb5-45be-b312-fbb7579e73ec'] = {"allow_interruptions": false, "box_mode": "extremes", "classes": ["pygal-chart", "pygal-sparkline"], "css": ["file://style.css", "file://graph.css"], "defs": [], "disable_xml_declaration": false, "dots_size": 2.5, "dynamic_print_values": false, "explicit_size": true, "fill": false, "force_uri_protocol": "https", "formatter": null, "half_pie": false, "height": 50, "include_x_axis": false, "inner_radius": 0, "interpolate": "cubic", "interpolation_parameters": {}, "interpolation_precision": 250, "inverse_y_axis": false, "js": [], "legend_at_bottom": false, "legend_at_bottom_columns": null, "legend_box_size": 12, "logarithmic": false, "margin": 10, "margin_bottom": null, "margin_left": null, "margin_right": null, "margin_top": null, "max_scale": 2, "min_scale": 1, "missing_value_fill_truncation": "x", "no_data_text": "", "no_prefix": false, "order_min": null, "pretty_print": false, "print_labels": false, "print_values": false, "print_values_position": "center", "print_zeroes": true, "range": null, "rounded_bars": null, "secondary_range": null, "show_dots": false, "show_legend": false, "show_minor_x_labels": true, "show_minor_y_labels": true, "show_only_major_dots": false, "show_x_guides": false, "show_x_labels": false, "show_y_guides": true, "show_y_labels": true, "spacing": 0, "stack_from_top": false, "strict": false, "stroke": true, "stroke_style": null, "style": {"background": "rgba(249, 249, 249, 1)", "ci_colors": [], "colors": ["#F44336", "#3F51B5", "#009688", "#FFC107", "#FF5722", "#9C27B0", "#03A9F4", "#8BC34A", "#FF9800", "#E91E63", "#2196F3", "#4CAF50", "#FFEB3B", "#673AB7", "#00BCD4", "#CDDC39", "#9E9E9E", "#607D8B"], "dot_opacity": "1", "font_family": "Consolas, \"Liberation Mono\", Menlo, Courier, monospace", "foreground": "rgba(0, 0, 0, .87)", "foreground_strong": "rgba(0, 0, 0, 1)", "foreground_subtle": "rgba(0, 0, 0, .54)", "guide_stroke_color": "black", "guide_stroke_dasharray": "4,4", "label_font_family": "Consolas, \"Liberation Mono\", Menlo, Courier, monospace", "label_font_size": 10, "legend_font_family": "Consolas, \"Liberation Mono\", Menlo, Courier, monospace", "legend_font_size": 14, "major_guide_stroke_color": "black", "major_guide_stroke_dasharray": "6,6", "major_label_font_family": "Consolas, \"Liberation Mono\", Menlo, Courier, monospace", "major_label_font_size": 10, "no_data_font_family": "Consolas, \"Liberation Mono\", Menlo, Courier, monospace", "no_data_font_size": 64, "opacity": ".7", "opacity_hover": ".8", "plot_background": "rgba(255, 255, 255, 1)", "stroke_opacity": ".8", "stroke_opacity_hover": ".9", "stroke_width": "1", "stroke_width_hover": "4", "title_font_family": "Consolas, \"Liberation Mono\", Menlo, Courier, monospace", "title_font_size": 16, "tooltip_font_family": "Consolas, \"Liberation Mono\", Menlo, Courier, monospace", "tooltip_font_size": 14, "transition": "150ms", "value_background": "rgba(229, 229, 229, 1)", "value_colors": [], "value_font_family": "Consolas, \"Liberation Mono\", Menlo, Courier, monospace", "value_font_size": 16, "value_label_font_family": "Consolas, \"Liberation Mono\", Menlo, Courier, monospace", "value_label_font_size": 10}, "title": null, "tooltip_border_radius": 0, "tooltip_fancy_mode": true, "truncate_label": null, "truncate_legend": null, "width": 200, "x_label_rotation": 0, "x_labels": ["2024/10", "2024/9", "2024/8", "2024/7"], "x_labels_major": null, "x_labels_major_count": null, "x_labels_major_every": null, "x_title": null, "xrange": null, "y_label_rotation": 0, "y_labels": null, "y_labels_major": null, "y_labels_major_count": null, "y_labels_major_every": null, "y_title": null, "zero": 0, "legends": [""]}</script></defs><title>Pygal</title><g class="graph line-graph vertical"><rect x="0" y="0" width="200" height="50" class="background" /><g transform="translate(82, 10)" class="plot"><rect x="0" y="0" width="108.0" height="30" class="background" /><g class="axis y always_show"><path d="M0.000000 30.000000 h108.000000" class="line" /><g class="guides"><path d="M0.000000 29.423077 h108.000000" class="guide line" /><text x="-5" y="32.92307692307692" class="">0.9522973824</text><title>0.9522973824</title></g><g class="guides"><path d="M0.000000 0.576923 h108.000000" class="guide line" /><text x="-5" y="4.076923076923077" class="">15</text><title>15</title></g></g><g class="series serie-0 color-0"><path d="M2.076923 0.576923 L2.215385 0.758173 2.353846 0.939416 2.492308 1.120646 2.630769 1.301857 2.769231 1.483043 2.907692 1.664197 3.046154 1.845313 3.184615 2.026385 3.323077 2.207405 3.461538 2.388368 3.600000 2.569268 3.738462 2.750098 3.876923 2.930851 4.015385 3.111522 4.153846 3.292103 4.292308 3.472590 4.430769 3.652974 4.569231 3.833250 4.707692 4.013412 4.846154 4.193453 4.984615 4.373367 5.123077 4.553147 5.261538 4.732787 5.400000 4.912281 5.538462 5.091622 5.676923 5.270805 5.815385 5.449822 5.953846 5.628667 6.092308 5.807334 6.230769 5.985816 6.369231 6.164108 6.507692 6.342203 6.646154 6.520094 6.784615 6.697775 6.923077 6.875240 7.061538 7.052482 7.200000 7.229495 7.338462 7.406273 7.476923 7.582809 7.615385 7.759097 7.753846 7.935131 7.892308 8.110904 8.030769 8.286410 8.169231 8.461642 8.307692 8.636594 8.446154 8.811260 8.584615 8.985634 8.723077 9.159708 8.861538 9.333478 9.000000 9.506935 9.138462 9.680075 9.276923 9.852890 9.415385 10.025374 9.553846 10.197521 9.692308 10.369325 9.830769 10.540779 9.969231 10.711877 10.107692 10.882612 10.246154 11.052978 10.384615 11.222969 10.523077 11.392579 10.661538 11.561800 10.800000 11.730627 10.938462 11.899053 11.076923 12.067072 11.215385 12.234678 11.353846 12.401864 11.492308 12.568624 11.630769 12.734951 11.769231 12.900839 11.907692 13.066282 12.046154 13.231274 12.184615 13.395807 12.323077 13.559876 12.461538 13.723475 12.600000 13.886596 12.738462 14.049234 12.876923 14.211382 13.015385 14.373034 13.153846 14.534184 13.292308 14.694824 13.430769 14.854950 13.569231 15.014554 13.707692 15.173630 13.846154 15.332171 13.984615 15.490172 14.123077 15.647626 14.261538 15.804527 14.400000 15.960868 14.538462 16.116642 14.676923 16.271845 14.815385 16.426468 14.953846 16.580506 15.092308 16.733953 15.230769 16.886802 15.369231 17.039046 15.507692 17.190680 15.646154 17.341697 15.784615 17.492090 15.923077 17.641854 16.061538 17.790982 16.200000 17.939467 16.338462 18.087304 16.476923 18.234485 16.615385 18.381005 16.753846 18.526857 16.892308 18.672035 17.030769 18.816532 17.169231 18.960342 17.307692 19.103459 17.446154 19.245876 17.584615 19.387587 17.723077 19.528586 17.861538 19.668865 18.000000 19.808420 18.138462 19.947244 18.276923 20.085329 18.415385 20.222670 18.553846 20.359261 18.692308 20.495095 18.830769 20.630165 18.969231 20.764466 19.107692 20.897991 19.246154 21.030733 19.384615 21.162687 19.523077 21.293846 19.661538 21.424203 19.800000 21.553752 19.938462 21.682488 20.076923 21.810402 20.215385 21.937490 20.353846 22.063744 20.492308 22.189159 20.630769 22.313728 20.769231 22.437445 20.907692 22.560303 21.046154 22.682295 21.184615 22.803417 21.323077 22.923660 21.461538 23.043020 21.600000 23.161489 21.738462 23.279061 21.876923 23.395730 22.015385 23.511489 22.153846 23.626332 22.292308 23.740253 22.430769 23.853246 22.569231 23.965303 22.707692 24.076419 22.846154 24.186587 22.984615 24.295801 23.123077 24.404055 23.261538 24.511341 23.400000 24.617655 23.538462 24.722989 23.676923 24.827337 23.815385 24.930693 23.953846 25.033050 24.092308 25.134402 24.230769 25.234743 24.369231 25.334066 24.507692 25.432365 24.646154 25.529634 24.784615 25.625866 24.923077 25.721054 25.061538 25.815193 25.200000 25.908277 25.338462 26.000298 25.476923 26.091250 25.615385 26.181127 25.753846 26.269923 25.892308 26.357632 26.030769 26.444246 26.169231 26.529760 26.307692 26.614167 26.446154 26.697461 26.584615 26.779636 26.723077 26.860684 26.861538 26.940601 27.000000 27.019379 27.138462 27.097012 27.276923 27.173493 27.415385 27.248817 27.553846 27.322977 27.692308 27.395967 27.830769 27.467780 27.969231 27.538410 28.107692 27.607850 28.246154 27.676095 28.384615 27.743137 28.523077 27.808971 28.661538 27.873590 28.800000 27.936987 28.938462 27.999157 29.076923 28.060093 29.215385 28.119789 29.353846 28.178238 29.492308 28.235434 29.630769 28.291370 29.769231 28.346041 29.907692 28.399439 30.046154 28.451559 30.184615 28.502394 30.323077 28.551938 30.461538 28.600185 30.600000 28.647127 30.738462 28.692759 30.876923 28.737075 31.015385 28.780067 31.153846 28.821730 31.292308 28.862057 31.430769 28.901042 31.569231 28.938679 31.707692 28.974961 31.846154 29.009881 31.984615 29.043434 32.123077 29.075613 32.261538 29.106412 32.400000 29.135824 32.538462 29.163843 32.676923 29.190463 32.815385 29.215677 32.953846 29.239479 33.092308 29.261863 33.230769 29.282821 33.369231 29.302349 33.507692 29.320439 33.646154 29.337085 33.784615 29.352281 33.923077 29.366020 34.061538 29.378297 34.200000 29.389104 34.338462 29.398435 34.476923 29.406284 34.615385 29.412645 34.753846 29.417511 34.892308 29.420876 35.030769 29.422733 35.169231 29.423077 35.307692 29.421900 35.446154 29.419197 35.584615 29.414961 35.723077 29.409185 35.861538 29.401864 36.000000 29.392991 36.138462 29.382560 36.276923 29.370563 36.415385 29.356996 36.553846 29.341851 36.692308 29.325122 36.830769 29.306807 36.969231 29.286913 37.107692 29.265453 37.246154 29.242439 37.384615 29.217883 37.523077 29.191798 37.661538 29.164195 37.800000 29.135086 37.938462 29.104484 38.076923 29.072401 38.215385 29.038848 38.353846 29.003838 38.492308 28.967384 38.630769 28.929496 38.769231 28.890187 38.907692 28.849469 39.046154 28.807355 39.184615 28.763855 39.323077 28.718984 39.461538 28.672752 39.600000 28.625171 39.738462 28.576255 39.876923 28.526014 40.015385 28.474461 40.153846 28.421607 40.292308 28.367467 40.430769 28.312050 40.569231 28.255369 40.707692 28.197437 40.846154 28.138265 40.984615 28.077866 41.123077 28.016251 41.261538 27.953434 41.400000 27.889425 41.538462 27.824236 41.676923 27.757881 41.815385 27.690371 41.953846 27.621718 42.092308 27.551934 42.230769 27.481032 42.369231 27.409023 42.507692 27.335920 42.646154 27.261734 42.784615 27.186478 42.923077 27.110164 43.061538 27.032804 43.200000 26.954409 43.338462 26.874993 43.476923 26.794567 43.615385 26.713143 43.753846 26.630734 43.892308 26.547351 44.030769 26.463006 44.169231 26.377712 44.307692 26.291481 44.446154 26.204325 44.584615 26.116255 44.723077 26.027285 44.861538 25.937425 45.000000 25.846689 45.138462 25.755088 45.276923 25.662634 45.415385 25.569340 45.553846 25.475217 45.692308 25.380278 45.830769 25.284535 45.969231 25.187999 46.107692 25.090683 46.246154 24.992600 46.384615 24.893760 46.523077 24.794176 46.661538 24.693861 46.800000 24.592826 46.938462 24.491084 47.076923 24.388646 47.215385 24.285524 47.353846 24.181732 47.492308 24.077280 47.630769 23.972181 47.769231 23.866447 47.907692 23.760090 48.046154 23.653122 48.184615 23.545556 48.323077 23.437403 48.461538 23.328675 48.600000 23.219385 48.738462 23.109544 48.876923 22.999165 49.015385 22.888260 49.153846 22.776841 49.292308 22.664920 49.430769 22.552509 49.569231 22.439620 49.707692 22.326265 49.846154 22.212456 49.984615 22.098206 50.123077 21.983527 50.261538 21.868430 50.400000 21.752928 50.538462 21.637032 50.676923 21.520756 50.815385 21.404110 50.953846 21.287108 51.092308 21.169761 51.230769 21.052081 51.369231 20.934080 51.507692 20.815770 51.646154 20.697165 51.784615 20.578274 51.923077 20.459112 52.061538 20.339689 52.200000 20.220018 52.338462 20.100112 52.476923 19.979981 52.615385 19.859638 52.753846 19.739096 52.892308 19.618366 53.030769 19.497460 53.169231 19.376391 53.307692 19.255170 53.446154 19.133810 53.584615 19.012323 53.723077 18.890721 53.861538 18.769016 54.000000 18.647220 54.138462 18.525345 54.276923 18.403403 54.415385 18.281407 54.553846 18.159367 54.692308 18.037298 54.830769 17.915210 54.969231 17.793116 55.107692 17.671027 55.246154 17.548957 55.384615 17.426916 55.523077 17.304918 55.661538 17.182973 55.800000 17.061095 55.938462 16.939295 56.076923 16.817586 56.215385 16.695979 56.353846 16.574487 56.492308 16.453121 56.630769 16.331894 56.769231 16.210818 56.907692 16.089905 57.046154 15.969167 57.184615 15.848616 57.323077 15.728265 57.461538 15.608124 57.600000 15.488208 57.738462 15.368526 57.876923 15.249092 58.015385 15.129918 58.153846 15.011016 58.292308 14.892398 58.430769 14.774075 58.569231 14.656061 58.707692 14.538367 58.846154 14.421004 58.984615 14.303987 59.123077 14.187325 59.261538 14.071033 59.400000 13.955120 59.538462 13.839601 59.676923 13.724486 59.815385 13.609788 59.953846 13.495519 60.092308 13.381691 60.230769 13.268317 60.369231 13.155407 60.507692 13.042975 60.646154 12.931032 60.784615 12.819591 60.923077 12.708663 61.061538 12.598261 61.200000 12.488397 61.338462 12.379083 61.476923 12.270330 61.615385 12.162152 61.753846 12.054559 61.892308 11.947565 62.030769 11.841182 62.169231 11.735420 62.307692 11.630294 62.446154 11.525813 62.584615 11.421992 62.723077 11.318841 62.861538 11.216373 63.000000 11.114600 63.138462 11.013534 63.276923 10.913187 63.415385 10.813572 63.553846 10.714700 63.692308 10.616583 63.830769 10.519233 63.969231 10.422664 64.107692 10.326886 64.246154 10.231911 64.384615 10.137753 64.523077 10.044422 64.661538 9.951932 64.800000 9.860293 64.938462 9.769519 65.076923 9.679621 65.215385 9.590612 65.353846 9.502503 65.492308 9.415307 65.630769 9.329035 65.769231 9.243700 65.907692 9.159314 66.046154 9.075889 66.184615 8.993437 66.323077 8.911970 66.461538 8.831500 66.600000 8.752040 66.738462 8.673601 66.876923 8.596195 67.015385 8.519835 67.153846 8.444533 67.292308 8.370301 67.430769 8.297150 67.569231 8.225093 67.707692 8.154143 67.846154 8.084310 67.984615 8.015608 68.123077 7.948048 68.261538 7.881642 68.400000 7.816403 68.538462 7.752342 68.676923 7.689472 68.815385 7.627805 68.953846 7.567353 69.092308 7.508127 69.230769 7.450141 69.369231 7.393406 69.507692 7.337934 69.646154 7.283737 69.784615 7.230828 69.923077 7.179218 70.061538 7.128920 70.200000 7.079945 70.338462 7.032306 70.476923 6.986015 70.615385 6.941084 70.753846 6.897525 70.892308 6.855351 71.030769 6.814572 71.169231 6.775201 71.307692 6.737251 71.446154 6.700731 71.584615 6.665637 71.723077 6.631965 71.861538 6.599707 72.000000 6.568859 72.138462 6.539415 72.276923 6.511369 72.415385 6.484716 72.553846 6.459449 72.692308 6.435563 72.830769 6.413052 72.969231 6.391911 73.107692 6.372133 73.246154 6.353714 73.384615 6.336646 73.523077 6.320925 73.661538 6.306545 73.800000 6.293500 73.938462 6.281785 74.076923 6.271393 74.215385 6.262319 74.353846 6.254557 74.492308 6.248101 74.630769 6.242946 74.769231 6.239086 74.907692 6.236516 75.046154 6.235228 75.184615 6.235219 75.323077 6.236482 75.461538 6.239011 75.600000 6.242800 75.738462 6.247845 75.876923 6.254138 76.015385 6.261675 76.153846 6.270450 76.292308 6.280456 76.430769 6.291689 76.569231 6.304142 76.707692 6.317810 76.846154 6.332687 76.984615 6.348767 77.123077 6.366045 77.261538 6.384515 77.400000 6.404171 77.538462 6.425007 77.676923 6.447017 77.815385 6.470197 77.953846 6.494540 78.092308 6.520040 78.230769 6.546692 78.369231 6.574490 78.507692 6.603428 78.646154 6.633501 78.784615 6.664702 78.923077 6.697027 79.061538 6.730469 79.200000 6.765022 79.338462 6.800682 79.476923 6.837441 79.615385 6.875295 79.753846 6.914238 79.892308 6.954264 80.030769 6.995367 80.169231 7.037541 80.307692 7.080781 80.446154 7.125081 80.584615 7.170436 80.723077 7.216839 80.861538 7.264284 81.000000 7.312767 81.138462 7.362282 81.276923 7.412822 81.415385 7.464382 81.553846 7.516956 81.692308 7.570539 81.830769 7.625124 81.969231 7.680706 82.107692 7.737280 82.246154 7.794839 82.384615 7.853378 82.523077 7.912891 82.661538 7.973373 82.800000 8.034817 82.938462 8.097218 83.076923 8.160570 83.215385 8.224867 83.353846 8.290105 83.492308 8.356276 83.630769 8.423376 83.769231 8.491398 83.907692 8.560336 84.046154 8.630186 84.184615 8.700942 84.323077 8.772596 84.461538 8.845145 84.600000 8.918582 84.738462 8.992901 84.876923 9.068097 85.015385 9.144164 85.153846 9.221096 85.292308 9.298887 85.430769 9.377533 85.569231 9.457026 85.707692 9.537362 85.846154 9.618534 85.984615 9.700537 86.123077 9.783365 86.261538 9.867013 86.400000 9.951474 86.538462 10.036743 86.676923 10.122814 86.815385 10.209682 86.953846 10.297341 87.092308 10.385784 87.230769 10.475007 87.369231 10.565003 87.507692 10.655767 87.646154 10.747294 87.784615 10.839576 87.923077 10.932609 88.061538 11.026387 88.200000 11.120905 88.338462 11.216155 88.476923 11.312134 88.615385 11.408834 88.753846 11.506250 88.892308 11.604378 89.030769 11.703209 89.169231 11.802740 89.307692 11.902964 89.446154 12.003876 89.584615 12.105470 89.723077 12.207740 89.861538 12.310680 90.000000 12.414285 90.138462 12.518549 90.276923 12.623466 90.415385 12.729030 90.553846 12.835237 90.692308 12.942079 90.830769 13.049551 90.969231 13.157649 91.107692 13.266365 91.246154 13.375694 91.384615 13.485630 91.523077 13.596168 91.661538 13.707302 91.800000 13.819026 91.938462 13.931335 92.076923 14.044222 92.215385 14.157683 92.353846 14.271710 92.492308 14.386299 92.630769 14.501444 92.769231 14.617139 92.907692 14.733379 93.046154 14.850157 93.184615 14.967468 93.323077 15.085306 93.461538 15.203665 93.600000 15.322540 93.738462 15.441925 93.876923 15.561815 94.015385 15.682203 94.153846 15.803083 94.292308 15.924451 94.430769 16.046300 94.569231 16.168624 94.707692 16.291419 94.846154 16.414677 94.984615 16.538394 95.123077 16.662564 95.261538 16.787180 95.400000 16.912238 95.538462 17.037731 95.676923 17.163654 95.815385 17.290001 95.953846 17.416766 96.092308 17.543944 96.230769 17.671529 96.369231 17.799515 96.507692 17.927896 96.646154 18.056666 96.784615 18.185821 96.923077 18.315354 97.061538 18.445259 97.200000 18.575531 97.338462 18.706164 97.476923 18.837152 97.615385 18.968490 97.753846 19.100171 97.892308 19.232191 98.030769 19.364543 98.169231 19.497221 98.307692 19.630221 98.446154 19.763535 98.584615 19.897159 98.723077 20.031087 98.861538 20.165313 99.000000 20.299831 99.138462 20.434635 99.276923 20.569720 99.415385 20.705080 99.553846 20.840710 99.692308 20.976603 99.830769 21.112753 99.969231 21.249156 100.107692 21.385806 100.246154 21.522696 100.384615 21.659821 100.523077 21.797175 100.661538 21.934753 100.800000 22.072548 100.938462 22.210555 101.076923 22.348769 101.215385 22.487183 101.353846 22.625792 101.492308 22.764590 101.630769 22.903572 101.769231 23.042731 101.907692 23.182062 102.046154 23.321559 102.184615 23.461216 102.323077 23.601029 102.461538 23.740990 102.600000 23.881094 102.738462 24.021337 102.876923 24.161710 103.015385 24.302210 103.153846 24.442830 103.292308 24.583565 103.430769 24.724409 103.569231 24.865356 103.707692 25.006400 103.846154 25.147536 103.984615 25.288758 104.123077 25.430060 104.261538 25.571436 104.400000 25.712882 104.538462 25.854390 104.676923 25.995956 104.815385 26.137573 104.953846 26.279236 105.092308 26.420939 105.230769 26.562677 105.369231 26.704443 105.507692 26.846232 105.646154 26.988038 105.784615 27.129856 105.923077 27.271680" class="line reactive nofill" /></g></g><g class="titles" /><g transform="translate(82, 10)" class="plot overlay"><g class="series serie-0 color-0" /></g><g transform="translate(82, 10)" class="plot text-overlay"><g class="series serie-0 color-0" /></g><g transform="translate(82, 10)" class="plot tooltip-overlay"><g transform="translate(0 0)" style="opacity: 0" class="tooltip"><rect rx="0" ry="0" width="0" height="0" class="tooltip-box" /><g class="text" /></g></g></g></svg>