<?xml version='1.0' encoding='utf-8'?>
<svg xmlns="http://www.w3.org/2000/svg" id="chart-1f0c5820-d21e-4340-a007-162573c7f559" class="pygal-chart pygal-sparkline" viewBox="0 0 200 50" width="200" height="50"><!--Generated with pygal 3.0.4 (etree) ©Kozea 2012-2016 on 2024-06-30--><!--http://pygal.org--><!--http://github.com/Kozea/pygal--><defs><style type="text/css">#chart-1f0c5820-d21e-4340-a007-162573c7f559{-webkit-user-select:none;-webkit-font-smoothing:antialiased;font-family:Consolas,"Liberation Mono",Menlo,Courier,monospace}#chart-1f0c5820-d21e-4340-a007-162573c7f559 .title{font-family:Consolas,"Liberation Mono",Menlo,Courier,monospace;font-size:16px}#chart-1f0c5820-d21e-4340-a007-162573c7f559 .legends .legend text{font-family:Consolas,"Liberation Mono",Menlo,Courier,monospace;font-size:14px}#chart-1f0c5820-d21e-4340-a007-162573c7f559 .axis text{font-family:Consolas,"Liberation Mono",Menlo,Courier,monospace;font-size:10px}#chart-1f0c5820-d21e-4340-a007-162573c7f559 .axis text.major{font-family:Consolas,"Liberation Mono",Menlo,Courier,monospace;font-size:10px}#chart-1f0c5820-d21e-4340-a007-162573c7f559 .text-overlay text.value{font-family:Consolas,"Liberation Mono",Menlo,Courier,monospace;font-size:16px}#chart-1f0c5820-d21e-4340-a007-162573c7f559 .text-overlay text.label{font-family:Consolas,"Liberation Mono",Menlo,Courier,monospace;font-size:10px}#chart-1f0c5820-d21e-4340-a007-162573c7f559 .tooltip{font-family:Consolas,"Liberation Mono",Menlo,Courier,monospace;font-size:14px}#chart-1f0c5820-d21e-4340-a007-162573c7f559 text.no_data{font-family:Consolas,"Liberation Mono",Menlo,Courier,monospace;font-size:64px}
#chart-1f0c5820-d21e-4340-a007-162573c7f559{background-color:rgba(249,249,249,1)}#chart-1f0c5820-d21e-4340-a007-162573c7f559 path,#chart-1f0c5820-d21e-4340-a007-162573c7f559 line,#chart-1f0c5820-d21e-4340-a007-162573c7f559 rect,#chart-1f0c5820-d21e-4340-a007-162573c7f559 circle{-webkit-transition:150ms;-moz-transition:150ms;transition:150ms}#chart-1f0c5820-d21e-4340-a007-162573c7f559 .graph &gt; .background{fill:rgba(249,249,249,1)}#chart-1f0c5820-d21e-4340-a007-162573c7f559 .plot &gt; .background{fill:rgba(255,255,255,1)}#chart-1f0c5820-d21e-4340-a007-162573c7f559 .graph{fill:rgba(0,0,0,.87)}#chart-1f0c5820-d21e-4340-a007-162573c7f559 text.no_data{fill:rgba(0,0,0,1)}#chart-1f0c5820-d21e-4340-a007-162573c7f559 .title{fill:rgba(0,0,0,1)}#chart-1f0c5820-d21e-4340-a007-162573c7f559 .legends .legend text{fill:rgba(0,0,0,.87)}#chart-1f0c5820-d21e-4340-a007-162573c7f559 .legends .legend:hover text{fill:rgba(0,0,0,1)}#chart-1f0c5820-d21e-4340-a007-162573c7f559 .axis .line{stroke:rgba(0,0,0,1)}#chart-1f0c5820-d21e-4340-a007-162573c7f559 .axis .guide.line{stroke:rgba(0,0,0,.54)}#chart-1f0c5820-d21e-4340-a007-162573c7f559 .axis .major.line{stroke:rgba(0,0,0,.87)}#chart-1f0c5820-d21e-4340-a007-162573c7f559 .axis text.major{fill:rgba(0,0,0,1)}#chart-1f0c5820-d21e-4340-a007-162573c7f559 .axis.y .guides:hover .guide.line,#chart-1f0c5820-d21e-4340-a007-162573c7f559 .line-graph .axis.x .guides:hover .guide.line,#chart-1f0c5820-d21e-4340-a007-162573c7f559 .stackedline-graph .axis.x .guides:hover .guide.line,#chart-1f0c5820-d21e-4340-a007-162573c7f559 .xy-graph .axis.x .guides:hover .guide.line{stroke:rgba(0,0,0,1)}#chart-1f0c5820-d21e-4340-a007-162573c7f559 .axis .guides:hover text{fill:rgba(0,0,0,1)}#chart-1f0c5820-d21e-4340-a007-162573c7f559 .reactive{fill-opacity:.7;stroke-opacity:.8;stroke-width:1}#chart-1f0c5820-d21e-4340-a007-162573c7f559 .ci{stroke:rgba(0,0,0,.87)}#chart-1f0c5820-d21e-4340-a007-162573c7f559 .reactive.active,#chart-1f0c5820-d21e-4340-a007-162573c7f559 .active .reactive{fill-opacity:.8;stroke-opacity:.9;stroke-width:4}#chart-1f0c5820-d21e-4340-a007-162573c7f559 .ci .reactive.active{stroke-width:1.5}#chart-1f0c5820-d21e-4340-a007-162573c7f559 .series text{fill:rgba(0,0,0,1)}#chart-1f0c5820-d21e-4340-a007-162573c7f559 .tooltip rect{fill:rgba(255,255,255,1);stroke:rgba(0,0,0,1);-webkit-transition:opacity 150ms;-moz-transition:opacity 150ms;transition:opacity 150ms}#chart-1f0c5820-d21e-4340-a007-162573c7f559 .tooltip .label{fill:rgba(0,0,0,.87)}#chart-1f0c5820-d21e-4340-a007-162573c7f559 .tooltip .label{fill:rgba(0,0,0,.87)}#chart-1f0c5820-d21e-4340-a007-162573c7f559 .tooltip .legend{font-size:.8em;fill:rgba(0,0,0,.54)}#chart-1f0c5820-d21e-4340-a007-162573c7f559 .tooltip .x_label{font-size:.6em;fill:rgba(0,0,0,1)}#chart-1f0c5820-d21e-4340-a007-162573c7f559 .tooltip .xlink{font-size:.5em;text-decoration:underline}#chart-1f0c5820-d21e-4340-a007-162573c7f559 .tooltip .value{font-size:1.5em}#chart-1f0c5820-d21e-4340-a007-162573c7f559 .bound{font-size:.5em}#chart-1f0c5820-d21e-4340-a007-162573c7f559 .max-value{font-size:.75em;fill:rgba(0,0,0,.54)}#chart-1f0c5820-d21e-4340-a007-162573c7f559 .map-element{fill:rgba(255,255,255,1);stroke:rgba(0,0,0,.54) !important}#chart-1f0c5820-d21e-4340-a007-162573c7f559 .map-element .reactive{fill-opacity:inherit;stroke-opacity:inherit}#chart-1f0c5820-d21e-4340-a007-162573c7f559 .color-0,#chart-1f0c5820-d21e-4340-a007-162573c7f559 .color-0 a:visited{stroke:#F44336;fill:#F44336}#chart-1f0c5820-d21e-4340-a007-162573c7f559 .text-overlay .color-0 text{fill:black}
#chart-1f0c5820-d21e-4340-a007-162573c7f559 text.no_data{text-anchor:middle}#chart-1f0c5820-d21e-4340-a007-162573c7f559 .guide.line{fill:none}#chart-1f0c5820-d21e-4340-a007-162573c7f559 .centered{text-anchor:middle}#chart-1f0c5820-d21e-4340-a007-162573c7f559 .title{text-anchor:middle}#chart-1f0c5820-d21e-4340-a007-162573c7f559 .legends .legend text{fill-opacity:1}#chart-1f0c5820-d21e-4340-a007-162573c7f559 .axis.x text{text-anchor:middle}#chart-1f0c5820-d21e-4340-a007-162573c7f559 .axis.x:not(.web) text[transform]{text-anchor:start}#chart-1f0c5820-d21e-4340-a007-162573c7f559 .axis.x:not(.web) text[transform].backwards{text-anchor:end}#chart-1f0c5820-d21e-4340-a007-162573c7f559 .axis.y text{text-anchor:end}#chart-1f0c5820-d21e-4340-a007-162573c7f559 .axis.y text[transform].backwards{text-anchor:start}#chart-1f0c5820-d21e-4340-a007-162573c7f559 .axis.y2 text{text-anchor:start}#chart-1f0c5820-d21e-4340-a007-162573c7f559 .axis.y2 text[transform].backwards{text-anchor:end}#chart-1f0c5820-d21e-4340-a007-162573c7f559 .axis .guide.line{stroke-dasharray:4,4;stroke:black}#chart-1f0c5820-d21e-4340-a007-162573c7f559 .axis .major.guide.line{stroke-dasharray:6,6;stroke:black}#chart-1f0c5820-d21e-4340-a007-162573c7f559 .horizontal .axis.y .guide.line,#chart-1f0c5820-d21e-4340-a007-162573c7f559 .horizontal .axis.y2 .guide.line,#chart-1f0c5820-d21e-4340-a007-162573c7f559 .vertical .axis.x .guide.line{opacity:0}#chart-1f0c5820-d21e-4340-a007-162573c7f559 .horizontal .axis.always_show .guide.line,#chart-1f0c5820-d21e-4340-a007-162573c7f559 .vertical .axis.always_show .guide.line{opacity:1 !important}#chart-1f0c5820-d21e-4340-a007-162573c7f559 .axis.y .guides:hover .guide.line,#chart-1f0c5820-d21e-4340-a007-162573c7f559 .axis.y2 .guides:hover .guide.line,#chart-1f0c5820-d21e-4340-a007-162573c7f559 .axis.x .guides:hover .guide.line{opacity:1}#chart-1f0c5820-d21e-4340-a007-162573c7f559 .axis .guides:hover text{opacity:1}#chart-1f0c5820-d21e-4340-a007-162573c7f559 .nofill{fill:none}#chart-1f0c5820-d21e-4340-a007-162573c7f559 .subtle-fill{fill-opacity:.2}#chart-1f0c5820-d21e-4340-a007-162573c7f559 .dot{stroke-width:1px;fill-opacity:1;stroke-opacity:1}#chart-1f0c5820-d21e-4340-a007-162573c7f559 .dot.active{stroke-width:5px}#chart-1f0c5820-d21e-4340-a007-162573c7f559 .dot.negative{fill:transparent}#chart-1f0c5820-d21e-4340-a007-162573c7f559 text,#chart-1f0c5820-d21e-4340-a007-162573c7f559 tspan{stroke:none !important}#chart-1f0c5820-d21e-4340-a007-162573c7f559 .series text.active{opacity:1}#chart-1f0c5820-d21e-4340-a007-162573c7f559 .tooltip rect{fill-opacity:.95;stroke-width:.5}#chart-1f0c5820-d21e-4340-a007-162573c7f559 .tooltip text{fill-opacity:1}#chart-1f0c5820-d21e-4340-a007-162573c7f559 .showable{visibility:hidden}#chart-1f0c5820-d21e-4340-a007-162573c7f559 .showable.shown{visibility:visible}#chart-1f0c5820-d21e-4340-a007-162573c7f559 .gauge-background{fill:rgba(229,229,229,1);stroke:none}#chart-1f0c5820-d21e-4340-a007-162573c7f559 .bg-lines{stroke:rgba(249,249,249,1);stroke-width:2px}</style><script type="text/javascript">window.pygal = window.pygal || {};window.pygal.config = window.pygal.config || {};window.pygal.config['1f0c5820-d21e-4340-a007-162573c7f559'] = {"allow_interruptions": false, "box_mode": "extremes", "classes": ["pygal-chart", "pygal-sparkline"], "css": ["file://style.css", "file://graph.css"], "defs": [], "disable_xml_declaration": false, "dots_size": 2.5, "dynamic_print_values": false, "explicit_size": true, "fill": false, "force_uri_protocol": "https", "formatter": null, "half_pie": false, "height": 50, "include_x_axis": false, "inner_radius": 0, "interpolate": "cubic", "interpolation_parameters": {}, "interpolation_precision": 250, "inverse_y_axis": false, "js": [], "legend_at_bottom": false, "legend_at_bottom_columns": null, "legend_box_size": 12, "logarithmic": false, "margin": 10, "margin_bottom": null, "margin_left": null, "margin_right": null, "margin_top": null, "max_scale": 2, "min_scale": 1, "missing_value_fill_truncation": "x", "no_data_text": "", "no_prefix": false, "order_min": null, "pretty_print": false, "print_labels": false, "print_values": false, "print_values_position": "center", "print_zeroes": true, "range": null, "rounded_bars": null, "secondary_range": null, "show_dots": false, "show_legend": false, "show_minor_x_labels": true, "show_minor_y_labels": true, "show_only_major_dots": false, "show_x_guides": false, "show_x_labels": false, "show_y_guides": true, "show_y_labels": true, "spacing": 0, "stack_from_top": false, "strict": false, "stroke": true, "stroke_style": null, "style": {"background": "rgba(249, 249, 249, 1)", "ci_colors": [], "colors": ["#F44336", "#3F51B5", "#009688", "#FFC107", "#FF5722", "#9C27B0", "#03A9F4", "#8BC34A", "#FF9800", "#E91E63", "#2196F3", "#4CAF50", "#FFEB3B", "#673AB7", "#00BCD4", "#CDDC39", "#9E9E9E", "#607D8B"], "dot_opacity": "1", "font_family": "Consolas, \"Liberation Mono\", Menlo, Courier, monospace", "foreground": "rgba(0, 0, 0, .87)", "foreground_strong": "rgba(0, 0, 0, 1)", "foreground_subtle": "rgba(0, 0, 0, .54)", "guide_stroke_color": "black", "guide_stroke_dasharray": "4,4", "label_font_family": "Consolas, \"Liberation Mono\", Menlo, Courier, monospace", "label_font_size": 10, "legend_font_family": "Consolas, \"Liberation Mono\", Menlo, Courier, monospace", "legend_font_size": 14, "major_guide_stroke_color": "black", "major_guide_stroke_dasharray": "6,6", "major_label_font_family": "Consolas, \"Liberation Mono\", Menlo, Courier, monospace", "major_label_font_size": 10, "no_data_font_family": "Consolas, \"Liberation Mono\", Menlo, Courier, monospace", "no_data_font_size": 64, "opacity": ".7", "opacity_hover": ".8", "plot_background": "rgba(255, 255, 255, 1)", "stroke_opacity": ".8", "stroke_opacity_hover": ".9", "stroke_width": "1", "stroke_width_hover": "4", "title_font_family": "Consolas, \"Liberation Mono\", Menlo, Courier, monospace", "title_font_size": 16, "tooltip_font_family": "Consolas, \"Liberation Mono\", Menlo, Courier, monospace", "tooltip_font_size": 14, "transition": "150ms", "value_background": "rgba(229, 229, 229, 1)", "value_colors": [], "value_font_family": "Consolas, \"Liberation Mono\", Menlo, Courier, monospace", "value_font_size": 16, "value_label_font_family": "Consolas, \"Liberation Mono\", Menlo, Courier, monospace", "value_label_font_size": 10}, "title": null, "tooltip_border_radius": 0, "tooltip_fancy_mode": true, "truncate_label": null, "truncate_legend": null, "width": 200, "x_label_rotation": 0, "x_labels": ["2024/6", "2024/5", "2024/3", "2023/11", "2023/9", "2023/5"], "x_labels_major": null, "x_labels_major_count": null, "x_labels_major_every": null, "x_title": null, "xrange": null, "y_label_rotation": 0, "y_labels": null, "y_labels_major": null, "y_labels_major_count": null, "y_labels_major_every": null, "y_title": null, "zero": 0, "legends": [""]}</script></defs><title>Pygal</title><g class="graph line-graph vertical"><rect x="0" y="0" width="200" height="50" class="background" /><g transform="translate(76, 10)" class="plot"><rect x="0" y="0" width="114.0" height="30" class="background" /><g class="axis y always_show"><path d="M0.000000 30.000000 h114.000000" class="line" /><g class="guides"><path d="M0.000000 29.423077 h114.000000" class="guide line" /><text x="-5" y="32.92307692307692" class="">1.712816586</text><title>1.712816586</title></g><g class="guides"><path d="M0.000000 0.576923 h114.000000" class="guide line" /><text x="-5" y="4.076923076923077" class="">10</text><title>10</title></g></g><g class="series serie-0 color-0"><path d="M2.192308 0.576923 L2.280000 0.724349 2.367692 0.871772 2.455385 1.019188 2.543077 1.166593 2.630769 1.313984 2.718462 1.461359 2.806154 1.608712 2.893846 1.756041 2.981538 1.903343 3.069231 2.050613 3.156923 2.197849 3.244615 2.345047 3.332308 2.492203 3.420000 2.639314 3.507692 2.786377 3.595385 2.933388 3.683077 3.080344 3.770769 3.227240 3.858462 3.374075 3.946154 3.520843 4.033846 3.667543 4.121538 3.814170 4.209231 3.960721 4.296923 4.107192 4.384615 4.253580 4.472308 4.399882 4.560000 4.546093 4.647692 4.692211 4.735385 4.838233 4.823077 4.984154 4.910769 5.129971 4.998462 5.275681 5.086154 5.421280 5.173846 5.566766 5.261538 5.712133 5.349231 5.857379 5.436923 6.002501 5.524615 6.147495 5.612308 6.292357 5.700000 6.437085 5.787692 6.581674 5.875385 6.726121 5.963077 6.870423 6.050769 7.014576 6.138462 7.158576 6.226154 7.302422 6.313846 7.446108 6.401538 7.589631 6.489231 7.732988 6.576923 7.876176 6.664615 8.019191 6.752308 8.162029 6.840000 8.304687 6.927692 8.447162 7.015385 8.589450 7.103077 8.731548 7.190769 8.873452 7.278462 9.015159 7.366154 9.156665 7.453846 9.297968 7.541538 9.439062 7.629231 9.579945 7.716923 9.720614 7.804615 9.861065 7.892308 10.001295 7.980000 10.141299 8.067692 10.281076 8.155385 10.420620 8.243077 10.559929 8.330769 10.699000 8.418462 10.837828 8.506154 10.976411 8.593846 11.114744 8.681538 11.252825 8.769231 11.390650 8.856923 11.528215 8.944615 11.665518 9.032308 11.802554 9.120000 11.939320 9.207692 12.075813 9.295385 12.212029 9.383077 12.347965 9.470769 12.483617 9.558462 12.618982 9.646154 12.754056 9.733846 12.888836 9.821538 13.023319 9.909231 13.157500 9.996923 13.291378 10.084615 13.424947 10.172308 13.558205 10.260000 13.691148 10.347692 13.823772 10.435385 13.956075 10.523077 14.088053 10.610769 14.219702 10.698462 14.351019 10.786154 14.482000 10.873846 14.612642 10.961538 14.742942 11.049231 14.872895 11.136923 15.002499 11.224615 15.131751 11.312308 15.260645 11.400000 15.389181 11.487692 15.517352 11.575385 15.645157 11.663077 15.772592 11.750769 15.899653 11.838462 16.026337 11.926154 16.152641 12.013846 16.278560 12.101538 16.404092 12.189231 16.529233 12.276923 16.653979 12.364615 16.778328 12.452308 16.902275 12.540000 17.025818 12.627692 17.148952 12.715385 17.271674 12.803077 17.393982 12.890769 17.515870 12.978462 17.637337 13.066154 17.758378 13.153846 17.878989 13.241538 17.999169 13.329231 18.118912 13.416923 18.238216 13.504615 18.357078 13.592308 18.475492 13.680000 18.593458 13.767692 18.710969 13.855385 18.828024 13.943077 18.944619 14.030769 19.060751 14.118462 19.176415 14.206154 19.291609 14.293846 19.406328 14.381538 19.520571 14.469231 19.634332 14.556923 19.747609 14.644615 19.860398 14.732308 19.972696 14.820000 20.084499 14.907692 20.195804 14.995385 20.306607 15.083077 20.416905 15.170769 20.526694 15.258462 20.635971 15.346154 20.744733 15.433846 20.852976 15.521538 20.960696 15.609231 21.067890 15.696923 21.174556 15.784615 21.280688 15.872308 21.386284 15.960000 21.491340 16.047692 21.595853 16.135385 21.699819 16.223077 21.803235 16.310769 21.906098 16.398462 22.008404 16.486154 22.110149 16.573846 22.211330 16.661538 22.311944 16.749231 22.411986 16.836923 22.511455 16.924615 22.610346 17.012308 22.708655 17.100000 22.806380 17.187692 22.903516 17.275385 23.000061 17.363077 23.096011 17.450769 23.191362 17.538462 23.286111 17.626154 23.380255 17.713846 23.473790 17.801538 23.566712 17.889231 23.659018 17.976923 23.750706 18.064615 23.841770 18.152308 23.932208 18.240000 24.022016 18.327692 24.111192 18.415385 24.199730 18.503077 24.287629 18.590769 24.374884 18.678462 24.461492 18.766154 24.547450 18.853846 24.632753 18.941538 24.717400 19.029231 24.801385 19.116923 24.884706 19.204615 24.967359 19.292308 25.049342 19.380000 25.130649 19.467692 25.211278 19.555385 25.291226 19.643077 25.370489 19.730769 25.449063 19.818462 25.526945 19.906154 25.604132 19.993846 25.680620 20.081538 25.756405 20.169231 25.831485 20.256923 25.905855 20.344615 25.979513 20.432308 26.052454 20.520000 26.124676 20.607692 26.196175 20.695385 26.266947 20.783077 26.336989 20.870769 26.406297 20.958462 26.474869 21.046154 26.542700 21.133846 26.609787 21.221538 26.676127 21.309231 26.741717 21.396923 26.806552 21.484615 26.870629 21.572308 26.933945 21.660000 26.996496 21.747692 27.058279 21.835385 27.119291 21.923077 27.179528 22.010769 27.238986 22.098462 27.297662 22.186154 27.355553 22.273846 27.412655 22.361538 27.468965 22.449231 27.524479 22.536923 27.579194 22.624615 27.633106 22.712308 27.686211 22.800000 27.738508 22.887692 27.789991 22.975385 27.840657 23.063077 27.890504 23.150769 27.939527 23.238462 27.987723 23.326154 28.035089 23.413846 28.081621 23.501538 28.127316 23.589231 28.172170 23.676923 28.216180 23.764615 28.259342 23.852308 28.301653 23.940000 28.343109 24.027692 28.383708 24.115385 28.423445 24.203077 28.462318 24.290769 28.500331 24.378462 28.537491 24.466154 28.573801 24.553846 28.609267 24.641538 28.643894 24.729231 28.677688 24.816923 28.710654 24.904615 28.742797 24.992308 28.774123 25.080000 28.804636 25.167692 28.834343 25.255385 28.863248 25.343077 28.891356 25.430769 28.918673 25.518462 28.945204 25.606154 28.970954 25.693846 28.995929 25.781538 29.020134 25.869231 29.043574 25.956923 29.066255 26.044615 29.088181 26.132308 29.109358 26.220000 29.129791 26.307692 29.149486 26.395385 29.168448 26.483077 29.186681 26.570769 29.204192 26.658462 29.220986 26.746154 29.237067 26.833846 29.252442 26.921538 29.267115 27.009231 29.281091 27.096923 29.294377 27.184615 29.306976 27.272308 29.318895 27.360000 29.330139 27.447692 29.340713 27.535385 29.350622 27.623077 29.359872 27.710769 29.368468 27.798462 29.376414 27.886154 29.383717 27.973846 29.390382 28.061538 29.396413 28.149231 29.401817 28.236923 29.406598 28.324615 29.410762 28.412308 29.414314 28.500000 29.417259 28.587692 29.419602 28.675385 29.421350 28.763077 29.422506 28.850769 29.423077 28.938462 29.423067 29.026154 29.422482 29.113846 29.421328 29.201538 29.419608 29.289231 29.417330 29.376923 29.414497 29.464615 29.411116 29.552308 29.407191 29.640000 29.402728 29.727692 29.397731 29.815385 29.392207 29.903077 29.386161 29.990769 29.379598 30.078462 29.372522 30.166154 29.364940 30.253846 29.356857 30.341538 29.348277 30.429231 29.339207 30.516923 29.329651 30.604615 29.319615 30.692308 29.309104 30.780000 29.298123 30.867692 29.286678 30.955385 29.274773 31.043077 29.262415 31.130769 29.249607 31.218462 29.236357 31.306154 29.222668 31.393846 29.208547 31.481538 29.193998 31.569231 29.179026 31.656923 29.163638 31.744615 29.147838 31.832308 29.131631 31.920000 29.115023 32.007692 29.098019 32.095385 29.080624 32.183077 29.062844 32.270769 29.044684 32.358462 29.026149 32.446154 29.007244 32.533846 28.987975 32.621538 28.968347 32.709231 28.948365 32.796923 28.928035 32.884615 28.907361 32.972308 28.886349 33.060000 28.865005 33.147692 28.843333 33.235385 28.821339 33.323077 28.799028 33.410769 28.776405 33.498462 28.753476 33.586154 28.730246 33.673846 28.706720 33.761538 28.682904 33.849231 28.658802 33.936923 28.634420 34.024615 28.609763 34.112308 28.584837 34.200000 28.559647 34.287692 28.534198 34.375385 28.508495 34.463077 28.482544 34.550769 28.456349 34.638462 28.429917 34.726154 28.403252 34.813846 28.376359 34.901538 28.349245 34.989231 28.321914 35.076923 28.294371 35.164615 28.266622 35.252308 28.238672 35.340000 28.210527 35.427692 28.182191 35.515385 28.153670 35.603077 28.124968 35.690769 28.096093 35.778462 28.067048 35.866154 28.037838 35.953846 28.008470 36.041538 27.978949 36.129231 27.949279 36.216923 27.919466 36.304615 27.889515 36.392308 27.859432 36.480000 27.829222 36.567692 27.798890 36.655385 27.768441 36.743077 27.737881 36.830769 27.707214 36.918462 27.676447 37.006154 27.645584 37.093846 27.614631 37.181538 27.583593 37.269231 27.552475 37.356923 27.521282 37.444615 27.490020 37.532308 27.458695 37.620000 27.427310 37.707692 27.395872 37.795385 27.364386 37.883077 27.332858 37.970769 27.301291 38.058462 27.269692 38.146154 27.238066 38.233846 27.206419 38.321538 27.174754 38.409231 27.143079 38.496923 27.111397 38.584615 27.079715 38.672308 27.048037 38.760000 27.016369 38.847692 26.984717 38.935385 26.953084 39.023077 26.921477 39.110769 26.889901 39.198462 26.858361 39.286154 26.826863 39.373846 26.795411 39.461538 26.764012 39.549231 26.732669 39.636923 26.701389 39.724615 26.670177 39.812308 26.639038 39.900000 26.607977 39.987692 26.577000 40.075385 26.546112 40.163077 26.515317 40.250769 26.484622 40.338462 26.454032 40.426154 26.423552 40.513846 26.393187 40.601538 26.362942 40.689231 26.332824 40.776923 26.302836 40.864615 26.272984 40.952308 26.243274 41.040000 26.213711 41.127692 26.184300 41.215385 26.155046 41.303077 26.125955 41.390769 26.097032 41.478462 26.068282 41.566154 26.039711 41.653846 26.011323 41.741538 25.983124 41.829231 25.955119 41.916923 25.927314 42.004615 25.899714 42.092308 25.872324 42.180000 25.845149 42.267692 25.818195 42.355385 25.791466 42.443077 25.764969 42.530769 25.738708 42.618462 25.712689 42.706154 25.686917 42.793846 25.661397 42.881538 25.636135 42.969231 25.611135 43.056923 25.586403 43.144615 25.561945 43.232308 25.537765 43.320000 25.513869 43.407692 25.490262 43.495385 25.466949 43.583077 25.443937 43.670769 25.421229 43.758462 25.398831 43.846154 25.376749 43.933846 25.354987 44.021538 25.333551 44.109231 25.312447 44.196923 25.291679 44.284615 25.271253 44.372308 25.251175 44.460000 25.231448 44.547692 25.212079 44.635385 25.193073 44.723077 25.174435 44.810769 25.156171 44.898462 25.138285 44.986154 25.120783 45.073846 25.103671 45.161538 25.086953 45.249231 25.070634 45.336923 25.054721 45.424615 25.039218 45.512308 25.024131 45.600000 25.009464 45.687692 24.995224 45.775385 24.981415 45.863077 24.968043 45.950769 24.955113 46.038462 24.942629 46.126154 24.930597 46.213846 24.919013 46.301538 24.907873 46.389231 24.897173 46.476923 24.886908 46.564615 24.877074 46.652308 24.867667 46.740000 24.858683 46.827692 24.850118 46.915385 24.841966 47.003077 24.834225 47.090769 24.826889 47.178462 24.819955 47.266154 24.813417 47.353846 24.807273 47.441538 24.801518 47.529231 24.796147 47.616923 24.791156 47.704615 24.786541 47.792308 24.782297 47.880000 24.778421 47.967692 24.774909 48.055385 24.771755 48.143077 24.768956 48.230769 24.766507 48.318462 24.764404 48.406154 24.762643 48.493846 24.761220 48.581538 24.760131 48.669231 24.759370 48.756923 24.758934 48.844615 24.758819 48.932308 24.759020 49.020000 24.759534 49.107692 24.760355 49.195385 24.761480 49.283077 24.762904 49.370769 24.764624 49.458462 24.766634 49.546154 24.768931 49.633846 24.771510 49.721538 24.774368 49.809231 24.777499 49.896923 24.780900 49.984615 24.784566 50.072308 24.788493 50.160000 24.792677 50.247692 24.797114 50.335385 24.801799 50.423077 24.806728 50.510769 24.811897 50.598462 24.817301 50.686154 24.822937 50.773846 24.828800 50.861538 24.834885 50.949231 24.841190 51.036923 24.847708 51.124615 24.854437 51.212308 24.861371 51.300000 24.868507 51.387692 24.875840 51.475385 24.883366 51.563077 24.891082 51.650769 24.898981 51.738462 24.907061 51.826154 24.915317 51.913846 24.923745 52.001538 24.932340 52.089231 24.941098 52.176923 24.950016 52.264615 24.959088 52.352308 24.968311 52.440000 24.977680 52.527692 24.987191 52.615385 24.996840 52.703077 25.006622 52.790769 25.016534 52.878462 25.026571 52.966154 25.036728 53.053846 25.047002 53.141538 25.057388 53.229231 25.067882 53.316923 25.078480 53.404615 25.089177 53.492308 25.099970 53.580000 25.110853 53.667692 25.121823 53.755385 25.132876 53.843077 25.144007 53.930769 25.155212 54.018462 25.166486 54.106154 25.177826 54.193846 25.189227 54.281538 25.200685 54.369231 25.212196 54.456923 25.223756 54.544615 25.235359 54.632308 25.247003 54.720000 25.258682 54.807692 25.270392 54.895385 25.282130 54.983077 25.293891 55.070769 25.305670 55.158462 25.317464 55.246154 25.329268 55.333846 25.341077 55.421538 25.352889 55.509231 25.364698 55.596923 25.376500 55.684615 25.388291 55.772308 25.400067 55.860000 25.411823 55.947692 25.423555 56.035385 25.435259 56.123077 25.446931 56.210769 25.458566 56.298462 25.470160 56.386154 25.481709 56.473846 25.493209 56.561538 25.504655 56.649231 25.516043 56.736923 25.527369 56.824615 25.538629 56.912308 25.549818 57.000000 25.560932 57.087692 25.571967 57.175385 25.582919 57.263077 25.593783 57.350769 25.604555 57.438462 25.615231 57.526154 25.625806 57.613846 25.636277 57.701538 25.646639 57.789231 25.656888 57.876923 25.667019 57.964615 25.677029 58.052308 25.686913 58.140000 25.696666 58.227692 25.706286 58.315385 25.715766 58.403077 25.725104 58.490769 25.734294 58.578462 25.743333 58.666154 25.752216 58.753846 25.760939 58.841538 25.769498 58.929231 25.777889 59.016923 25.786107 59.104615 25.794148 59.192308 25.802008 59.280000 25.809682 59.367692 25.817166 59.455385 25.824457 59.543077 25.831549 59.630769 25.838439 59.718462 25.845122 59.806154 25.851595 59.893846 25.857852 59.981538 25.863889 60.069231 25.869703 60.156923 25.875288 60.244615 25.880642 60.332308 25.885759 60.420000 25.890635 60.507692 25.895266 60.595385 25.899648 60.683077 25.903777 60.770769 25.907647 60.858462 25.911256 60.946154 25.914598 61.033846 25.917670 61.121538 25.920467 61.209231 25.922985 61.296923 25.925220 61.384615 25.927167 61.472308 25.928823 61.560000 25.930182 61.647692 25.931241 61.735385 25.931996 61.823077 25.932441 61.910769 25.932574 61.998462 25.932389 62.086154 25.931883 62.173846 25.931051 62.261538 25.929889 62.349231 25.928393 62.436923 25.926558 62.524615 25.924380 62.612308 25.921855 62.700000 25.918979 62.787692 25.915747 62.875385 25.912156 62.963077 25.908200 63.050769 25.903876 63.138462 25.899179 63.226154 25.894106 63.313846 25.888651 63.401538 25.882811 63.489231 25.876582 63.576923 25.869958 63.664615 25.862937 63.752308 25.855513 63.840000 25.847683 63.927692 25.839441 64.015385 25.830785 64.103077 25.821709 64.190769 25.812209 64.278462 25.802282 64.366154 25.791923 64.453846 25.781127 64.541538 25.769890 64.629231 25.758209 64.716923 25.746078 64.804615 25.733494 64.892308 25.720453 64.980000 25.706949 65.067692 25.692979 65.155385 25.678539 65.243077 25.663625 65.330769 25.648231 65.418462 25.632354 65.506154 25.615990 65.593846 25.599134 65.681538 25.581782 65.769231 25.563930 65.856923 25.545573 65.944615 25.526708 66.032308 25.507330 66.120000 25.487435 66.207692 25.467018 66.295385 25.446076 66.383077 25.424603 66.470769 25.402596 66.558462 25.380051 66.646154 25.356964 66.733846 25.333329 66.821538 25.309143 66.909231 25.284401 66.996923 25.259100 67.084615 25.233235 67.172308 25.206802 67.260000 25.179796 67.347692 25.152213 67.435385 25.124050 67.523077 25.095301 67.610769 25.065963 67.698462 25.036031 67.786154 25.005500 67.873846 24.974368 67.961538 24.942629 68.049231 24.910281 68.136923 24.877328 68.224615 24.843773 68.312308 24.809623 68.400000 24.774883 68.487692 24.739557 68.575385 24.703651 68.663077 24.667169 68.750769 24.630117 68.838462 24.592500 68.926154 24.554322 69.013846 24.515590 69.101538 24.476307 69.189231 24.436480 69.276923 24.396112 69.364615 24.355210 69.452308 24.313778 69.540000 24.271821 69.627692 24.229344 69.715385 24.186353 69.803077 24.142852 69.890769 24.098847 69.978462 24.054342 70.066154 24.009343 70.153846 23.963854 70.241538 23.917881 70.329231 23.871429 70.416923 23.824503 70.504615 23.777107 70.592308 23.729248 70.680000 23.680930 70.767692 23.632157 70.855385 23.582936 70.943077 23.533271 71.030769 23.483167 71.118462 23.432629 71.206154 23.381663 71.293846 23.330273 71.381538 23.278465 71.469231 23.226243 71.556923 23.173613 71.644615 23.120580 71.732308 23.067148 71.820000 23.013323 71.907692 22.959110 71.995385 22.904513 72.083077 22.849539 72.170769 22.794191 72.258462 22.738476 72.346154 22.682398 72.433846 22.625962 72.521538 22.569173 72.609231 22.512036 72.696923 22.454557 72.784615 22.396741 72.872308 22.338591 72.960000 22.280115 73.047692 22.221315 73.135385 22.162199 73.223077 22.102770 73.310769 22.043034 73.398462 21.982996 73.486154 21.922661 73.573846 21.862033 73.661538 21.801119 73.749231 21.739923 73.836923 21.678449 73.924615 21.616704 74.012308 21.554693 74.100000 21.492419 74.187692 21.429889 74.275385 21.367107 74.363077 21.304079 74.450769 21.240809 74.538462 21.177303 74.626154 21.113566 74.713846 21.049602 74.801538 20.985417 74.889231 20.921016 74.976923 20.856404 75.064615 20.791585 75.152308 20.726566 75.240000 20.661351 75.327692 20.595944 75.415385 20.530352 75.503077 20.464580 75.590769 20.398631 75.678462 20.332512 75.766154 20.266227 75.853846 20.199782 75.941538 20.133181 76.029231 20.066430 76.116923 19.999534 76.204615 19.932497 76.292308 19.865325 76.380000 19.798023 76.467692 19.730595 76.555385 19.663048 76.643077 19.595386 76.730769 19.527613 76.818462 19.459736 76.906154 19.391759 76.993846 19.323687 77.081538 19.255526 77.169231 19.187280 77.256923 19.118954 77.344615 19.050554 77.432308 18.982084 77.520000 18.913550 77.607692 18.844956 77.695385 18.776309 77.783077 18.707612 77.870769 18.638870 77.958462 18.570090 78.046154 18.501276 78.133846 18.432432 78.221538 18.363565 78.309231 18.294679 78.396923 18.225778 78.484615 18.156870 78.572308 18.087957 78.660000 18.019046 78.747692 17.950141 78.835385 17.881248 78.923077 17.812371 79.010769 17.743516 79.098462 17.674687 79.186154 17.605890 79.273846 17.537130 79.361538 17.468412 79.449231 17.399741 79.536923 17.331121 79.624615 17.262559 79.712308 17.194058 79.800000 17.125625 79.887692 17.057264 79.975385 16.988980 80.063077 16.920778 80.150769 16.852664 80.238462 16.784642 80.326154 16.716718 80.413846 16.648896 80.501538 16.581182 80.589231 16.513580 80.676923 16.446096 80.764615 16.378735 80.852308 16.311501 80.940000 16.244401 81.027692 16.177438 81.115385 16.110619 81.203077 16.043947 81.290769 15.977429 81.378462 15.911069 81.466154 15.844872 81.553846 15.778843 81.641538 15.712988 81.729231 15.647311 81.816923 15.581817 81.904615 15.516512 81.992308 15.451401 82.080000 15.386488 82.167692 15.321779 82.255385 15.257279 82.343077 15.192992 82.430769 15.128925 82.518462 15.065081 82.606154 15.001466 82.693846 14.938086 82.781538 14.874944 82.869231 14.812047 82.956923 14.749399 83.044615 14.687005 83.132308 14.624870 83.220000 14.563000 83.307692 14.501400 83.395385 14.440073 83.483077 14.379027 83.570769 14.318265 83.658462 14.257793 83.746154 14.197615 83.833846 14.137738 83.921538 14.078165 84.009231 14.018902 84.096923 13.959955 84.184615 13.901327 84.272308 13.843024 84.360000 13.785052 84.447692 13.727414 84.535385 13.670117 84.623077 13.613166 84.710769 13.556565 84.798462 13.500319 84.886154 13.444434 84.973846 13.388914 85.061538 13.333765 85.149231 13.278992 85.236923 13.224599 85.324615 13.170592 85.412308 13.116976 85.500000 13.063756 85.587692 13.010937 85.675385 12.958524 85.763077 12.906523 85.850769 12.854937 85.938462 12.803773 86.026154 12.753034 86.113846 12.702728 86.201538 12.652857 86.289231 12.603428 86.376923 12.554446 86.464615 12.505915 86.552308 12.457841 86.640000 12.410228 86.727692 12.363083 86.815385 12.316409 86.903077 12.270211 86.990769 12.224496 87.078462 12.179268 87.166154 12.134532 87.253846 12.090293 87.341538 12.046556 87.429231 12.003327 87.516923 11.960609 87.604615 11.918409 87.692308 11.876732 87.780000 11.835582 87.867692 11.794964 87.955385 11.754884 88.043077 11.715347 88.130769 11.676357 88.218462 11.637920 88.306154 11.600041 88.393846 11.562724 88.481538 11.525976 88.569231 11.489801 88.656923 11.454203 88.744615 11.419189 88.832308 11.384763 88.920000 11.350930 89.007692 11.317696 89.095385 11.285065 89.183077 11.253042 89.270769 11.221632 89.358462 11.190842 89.446154 11.160674 89.533846 11.131136 89.621538 11.102231 89.709231 11.073965 89.796923 11.046342 89.884615 11.019369 89.972308 10.993048 90.060000 10.967378 90.147692 10.942357 90.235385 10.917983 90.323077 10.894251 90.410769 10.871161 90.498462 10.848709 90.586154 10.826892 90.673846 10.805708 90.761538 10.785155 90.849231 10.765230 90.936923 10.745929 91.024615 10.727252 91.112308 10.709194 91.200000 10.691753 91.287692 10.674927 91.375385 10.658714 91.463077 10.643109 91.550769 10.628112 91.638462 10.613719 91.726154 10.599927 91.813846 10.586734 91.901538 10.574138 91.989231 10.562136 92.076923 10.550724 92.164615 10.539902 92.252308 10.529665 92.340000 10.520011 92.427692 10.510938 92.515385 10.502443 92.603077 10.494524 92.690769 10.487178 92.778462 10.480401 92.866154 10.474193 92.953846 10.468549 93.041538 10.463468 93.129231 10.458946 93.216923 10.454982 93.304615 10.451572 93.392308 10.448714 93.480000 10.446405 93.567692 10.444643 93.655385 10.443425 93.743077 10.442749 93.830769 10.442611 93.918462 10.443010 94.006154 10.443942 94.093846 10.445405 94.181538 10.447397 94.269231 10.449914 94.356923 10.452954 94.444615 10.456515 94.532308 10.460594 94.620000 10.465188 94.707692 10.470295 94.795385 10.475912 94.883077 10.482037 94.970769 10.488666 95.058462 10.495797 95.146154 10.503428 95.233846 10.511556 95.321538 10.520179 95.409231 10.529293 95.496923 10.538896 95.584615 10.548986 95.672308 10.559560 95.760000 10.570615 95.847692 10.582148 95.935385 10.594158 96.023077 10.606641 96.110769 10.619595 96.198462 10.633017 96.286154 10.646905 96.373846 10.661256 96.461538 10.676067 96.549231 10.691336 96.636923 10.707060 96.724615 10.723236 96.812308 10.739863 96.900000 10.756937 96.987692 10.774455 97.075385 10.792415 97.163077 10.810815 97.250769 10.829652 97.338462 10.848923 97.426154 10.868626 97.513846 10.888757 97.601538 10.909315 97.689231 10.930296 97.776923 10.951699 97.864615 10.973520 97.952308 10.995758 98.040000 11.018408 98.127692 11.041469 98.215385 11.064938 98.303077 11.088813 98.390769 11.113090 98.478462 11.137768 98.566154 11.162843 98.653846 11.188313 98.741538 11.214176 98.829231 11.240428 98.916923 11.267067 99.004615 11.294091 99.092308 11.321497 99.180000 11.349282 99.267692 11.377444 99.355385 11.405979 99.443077 11.434887 99.530769 11.464163 99.618462 11.493805 99.706154 11.523811 99.793846 11.554177 99.881538 11.584902 99.969231 11.615983 100.056923 11.647417 100.144615 11.679202 100.232308 11.711334 100.320000 11.743812 100.407692 11.776632 100.495385 11.809792 100.583077 11.843290 100.670769 11.877123 100.758462 11.911287 100.846154 11.945782 100.933846 11.980603 101.021538 12.015749 101.109231 12.051216 101.196923 12.087003 101.284615 12.123106 101.372308 12.159522 101.460000 12.196251 101.547692 12.233287 101.635385 12.270630 101.723077 12.308277 101.810769 12.346224 101.898462 12.384469 101.986154 12.423010 102.073846 12.461844 102.161538 12.500968 102.249231 12.540380 102.336923 12.580077 102.424615 12.620056 102.512308 12.660315 102.600000 12.700852 102.687692 12.741663 102.775385 12.782747 102.863077 12.824099 102.950769 12.865719 103.038462 12.907603 103.126154 12.949748 103.213846 12.992152 103.301538 13.034813 103.389231 13.077727 103.476923 13.120892 103.564615 13.164306 103.652308 13.207966 103.740000 13.251869 103.827692 13.296013 103.915385 13.340395 104.003077 13.385012 104.090769 13.429862 104.178462 13.474942 104.266154 13.520249 104.353846 13.565782 104.441538 13.611537 104.529231 13.657512 104.616923 13.703703 104.704615 13.750110 104.792308 13.796728 104.880000 13.843555 104.967692 13.890589 105.055385 13.937827 105.143077 13.985267 105.230769 14.032905 105.318462 14.080740 105.406154 14.128768 105.493846 14.176987 105.581538 14.225394 105.669231 14.273987 105.756923 14.322763 105.844615 14.371720 105.932308 14.420854 106.020000 14.470164 106.107692 14.519646 106.195385 14.569298 106.283077 14.619118 106.370769 14.669103 106.458462 14.719250 106.546154 14.769556 106.633846 14.820019 106.721538 14.870637 106.809231 14.921406 106.896923 14.972324 106.984615 15.023389 107.072308 15.074598 107.160000 15.125948 107.247692 15.177436 107.335385 15.229061 107.423077 15.280819 107.510769 15.332708 107.598462 15.384725 107.686154 15.436867 107.773846 15.489133 107.861538 15.541519 107.949231 15.594022 108.036923 15.646641 108.124615 15.699372 108.212308 15.752213 108.300000 15.805161 108.387692 15.858214 108.475385 15.911368 108.563077 15.964623 108.650769 16.017974 108.738462 16.071419 108.826154 16.124955 108.913846 16.178581 109.001538 16.232293 109.089231 16.286089 109.176923 16.339965 109.264615 16.393921 109.352308 16.447952 109.440000 16.502056 109.527692 16.556231 109.615385 16.610474 109.703077 16.664782 109.790769 16.719153 109.878462 16.773585 109.966154 16.828073 110.053846 16.882617 110.141538 16.937213 110.229231 16.991859 110.316923 17.046552 110.404615 17.101289 110.492308 17.156068 110.580000 17.210887 110.667692 17.265742 110.755385 17.320631 110.843077 17.375551 110.930769 17.430500 111.018462 17.485476 111.106154 17.540474 111.193846 17.595494 111.281538 17.650532 111.369231 17.705586 111.456923 17.760653 111.544615 17.815730 111.632308 17.870816 111.720000 17.925906 111.807692 17.980999" class="line reactive nofill" /></g></g><g class="titles" /><g transform="translate(76, 10)" class="plot overlay"><g class="series serie-0 color-0" /></g><g transform="translate(76, 10)" class="plot text-overlay"><g class="series serie-0 color-0" /></g><g transform="translate(76, 10)" class="plot tooltip-overlay"><g transform="translate(0 0)" style="opacity: 0" class="tooltip"><rect rx="0" ry="0" width="0" height="0" class="tooltip-box" /><g class="text" /></g></g></g></svg>