<?xml version='1.0' encoding='utf-8'?>
<svg xmlns="http://www.w3.org/2000/svg" id="chart-752e44dd-a9f4-422e-965b-1c6d7df94db9" class="pygal-chart pygal-sparkline" viewBox="0 0 200 50" width="200" height="50"><!--Generated with pygal 3.0.5 (etree) ©Kozea 2012-2016 on 2024-12-01--><!--http://pygal.org--><!--http://github.com/Kozea/pygal--><defs><style type="text/css">#chart-752e44dd-a9f4-422e-965b-1c6d7df94db9{-webkit-user-select:none;-webkit-font-smoothing:antialiased;font-family:Consolas,"Liberation Mono",Menlo,Courier,monospace}#chart-752e44dd-a9f4-422e-965b-1c6d7df94db9 .title{font-family:Consolas,"Liberation Mono",Menlo,Courier,monospace;font-size:16px}#chart-752e44dd-a9f4-422e-965b-1c6d7df94db9 .legends .legend text{font-family:Consolas,"Liberation Mono",Menlo,Courier,monospace;font-size:14px}#chart-752e44dd-a9f4-422e-965b-1c6d7df94db9 .axis text{font-family:Consolas,"Liberation Mono",Menlo,Courier,monospace;font-size:10px}#chart-752e44dd-a9f4-422e-965b-1c6d7df94db9 .axis text.major{font-family:Consolas,"Liberation Mono",Menlo,Courier,monospace;font-size:10px}#chart-752e44dd-a9f4-422e-965b-1c6d7df94db9 .text-overlay text.value{font-family:Consolas,"Liberation Mono",Menlo,Courier,monospace;font-size:16px}#chart-752e44dd-a9f4-422e-965b-1c6d7df94db9 .text-overlay text.label{font-family:Consolas,"Liberation Mono",Menlo,Courier,monospace;font-size:10px}#chart-752e44dd-a9f4-422e-965b-1c6d7df94db9 .tooltip{font-family:Consolas,"Liberation Mono",Menlo,Courier,monospace;font-size:14px}#chart-752e44dd-a9f4-422e-965b-1c6d7df94db9 text.no_data{font-family:Consolas,"Liberation Mono",Menlo,Courier,monospace;font-size:64px}
#chart-752e44dd-a9f4-422e-965b-1c6d7df94db9{background-color:rgba(249,249,249,1)}#chart-752e44dd-a9f4-422e-965b-1c6d7df94db9 path,#chart-752e44dd-a9f4-422e-965b-1c6d7df94db9 line,#chart-752e44dd-a9f4-422e-965b-1c6d7df94db9 rect,#chart-752e44dd-a9f4-422e-965b-1c6d7df94db9 circle{-webkit-transition:150ms;-moz-transition:150ms;transition:150ms}#chart-752e44dd-a9f4-422e-965b-1c6d7df94db9 .graph &gt; .background{fill:rgba(249,249,249,1)}#chart-752e44dd-a9f4-422e-965b-1c6d7df94db9 .plot &gt; .background{fill:rgba(255,255,255,1)}#chart-752e44dd-a9f4-422e-965b-1c6d7df94db9 .graph{fill:rgba(0,0,0,.87)}#chart-752e44dd-a9f4-422e-965b-1c6d7df94db9 text.no_data{fill:rgba(0,0,0,1)}#chart-752e44dd-a9f4-422e-965b-1c6d7df94db9 .title{fill:rgba(0,0,0,1)}#chart-752e44dd-a9f4-422e-965b-1c6d7df94db9 .legends .legend text{fill:rgba(0,0,0,.87)}#chart-752e44dd-a9f4-422e-965b-1c6d7df94db9 .legends .legend:hover text{fill:rgba(0,0,0,1)}#chart-752e44dd-a9f4-422e-965b-1c6d7df94db9 .axis .line{stroke:rgba(0,0,0,1)}#chart-752e44dd-a9f4-422e-965b-1c6d7df94db9 .axis .guide.line{stroke:rgba(0,0,0,.54)}#chart-752e44dd-a9f4-422e-965b-1c6d7df94db9 .axis .major.line{stroke:rgba(0,0,0,.87)}#chart-752e44dd-a9f4-422e-965b-1c6d7df94db9 .axis text.major{fill:rgba(0,0,0,1)}#chart-752e44dd-a9f4-422e-965b-1c6d7df94db9 .axis.y .guides:hover .guide.line,#chart-752e44dd-a9f4-422e-965b-1c6d7df94db9 .line-graph .axis.x .guides:hover .guide.line,#chart-752e44dd-a9f4-422e-965b-1c6d7df94db9 .stackedline-graph .axis.x .guides:hover .guide.line,#chart-752e44dd-a9f4-422e-965b-1c6d7df94db9 .xy-graph .axis.x .guides:hover .guide.line{stroke:rgba(0,0,0,1)}#chart-752e44dd-a9f4-422e-965b-1c6d7df94db9 .axis .guides:hover text{fill:rgba(0,0,0,1)}#chart-752e44dd-a9f4-422e-965b-1c6d7df94db9 .reactive{fill-opacity:.7;stroke-opacity:.8;stroke-width:1}#chart-752e44dd-a9f4-422e-965b-1c6d7df94db9 .ci{stroke:rgba(0,0,0,.87)}#chart-752e44dd-a9f4-422e-965b-1c6d7df94db9 .reactive.active,#chart-752e44dd-a9f4-422e-965b-1c6d7df94db9 .active .reactive{fill-opacity:.8;stroke-opacity:.9;stroke-width:4}#chart-752e44dd-a9f4-422e-965b-1c6d7df94db9 .ci .reactive.active{stroke-width:1.5}#chart-752e44dd-a9f4-422e-965b-1c6d7df94db9 .series text{fill:rgba(0,0,0,1)}#chart-752e44dd-a9f4-422e-965b-1c6d7df94db9 .tooltip rect{fill:rgba(255,255,255,1);stroke:rgba(0,0,0,1);-webkit-transition:opacity 150ms;-moz-transition:opacity 150ms;transition:opacity 150ms}#chart-752e44dd-a9f4-422e-965b-1c6d7df94db9 .tooltip .label{fill:rgba(0,0,0,.87)}#chart-752e44dd-a9f4-422e-965b-1c6d7df94db9 .tooltip .label{fill:rgba(0,0,0,.87)}#chart-752e44dd-a9f4-422e-965b-1c6d7df94db9 .tooltip .legend{font-size:.8em;fill:rgba(0,0,0,.54)}#chart-752e44dd-a9f4-422e-965b-1c6d7df94db9 .tooltip .x_label{font-size:.6em;fill:rgba(0,0,0,1)}#chart-752e44dd-a9f4-422e-965b-1c6d7df94db9 .tooltip .xlink{font-size:.5em;text-decoration:underline}#chart-752e44dd-a9f4-422e-965b-1c6d7df94db9 .tooltip .value{font-size:1.5em}#chart-752e44dd-a9f4-422e-965b-1c6d7df94db9 .bound{font-size:.5em}#chart-752e44dd-a9f4-422e-965b-1c6d7df94db9 .max-value{font-size:.75em;fill:rgba(0,0,0,.54)}#chart-752e44dd-a9f4-422e-965b-1c6d7df94db9 .map-element{fill:rgba(255,255,255,1);stroke:rgba(0,0,0,.54) !important}#chart-752e44dd-a9f4-422e-965b-1c6d7df94db9 .map-element .reactive{fill-opacity:inherit;stroke-opacity:inherit}#chart-752e44dd-a9f4-422e-965b-1c6d7df94db9 .color-0,#chart-752e44dd-a9f4-422e-965b-1c6d7df94db9 .color-0 a:visited{stroke:#F44336;fill:#F44336}#chart-752e44dd-a9f4-422e-965b-1c6d7df94db9 .text-overlay .color-0 text{fill:black}
#chart-752e44dd-a9f4-422e-965b-1c6d7df94db9 text.no_data{text-anchor:middle}#chart-752e44dd-a9f4-422e-965b-1c6d7df94db9 .guide.line{fill:none}#chart-752e44dd-a9f4-422e-965b-1c6d7df94db9 .centered{text-anchor:middle}#chart-752e44dd-a9f4-422e-965b-1c6d7df94db9 .title{text-anchor:middle}#chart-752e44dd-a9f4-422e-965b-1c6d7df94db9 .legends .legend text{fill-opacity:1}#chart-752e44dd-a9f4-422e-965b-1c6d7df94db9 .axis.x text{text-anchor:middle}#chart-752e44dd-a9f4-422e-965b-1c6d7df94db9 .axis.x:not(.web) text[transform]{text-anchor:start}#chart-752e44dd-a9f4-422e-965b-1c6d7df94db9 .axis.x:not(.web) text[transform].backwards{text-anchor:end}#chart-752e44dd-a9f4-422e-965b-1c6d7df94db9 .axis.y text{text-anchor:end}#chart-752e44dd-a9f4-422e-965b-1c6d7df94db9 .axis.y text[transform].backwards{text-anchor:start}#chart-752e44dd-a9f4-422e-965b-1c6d7df94db9 .axis.y2 text{text-anchor:start}#chart-752e44dd-a9f4-422e-965b-1c6d7df94db9 .axis.y2 text[transform].backwards{text-anchor:end}#chart-752e44dd-a9f4-422e-965b-1c6d7df94db9 .axis .guide.line{stroke-dasharray:4,4;stroke:black}#chart-752e44dd-a9f4-422e-965b-1c6d7df94db9 .axis .major.guide.line{stroke-dasharray:6,6;stroke:black}#chart-752e44dd-a9f4-422e-965b-1c6d7df94db9 .horizontal .axis.y .guide.line,#chart-752e44dd-a9f4-422e-965b-1c6d7df94db9 .horizontal .axis.y2 .guide.line,#chart-752e44dd-a9f4-422e-965b-1c6d7df94db9 .vertical .axis.x .guide.line{opacity:0}#chart-752e44dd-a9f4-422e-965b-1c6d7df94db9 .horizontal .axis.always_show .guide.line,#chart-752e44dd-a9f4-422e-965b-1c6d7df94db9 .vertical .axis.always_show .guide.line{opacity:1 !important}#chart-752e44dd-a9f4-422e-965b-1c6d7df94db9 .axis.y .guides:hover .guide.line,#chart-752e44dd-a9f4-422e-965b-1c6d7df94db9 .axis.y2 .guides:hover .guide.line,#chart-752e44dd-a9f4-422e-965b-1c6d7df94db9 .axis.x .guides:hover .guide.line{opacity:1}#chart-752e44dd-a9f4-422e-965b-1c6d7df94db9 .axis .guides:hover text{opacity:1}#chart-752e44dd-a9f4-422e-965b-1c6d7df94db9 .nofill{fill:none}#chart-752e44dd-a9f4-422e-965b-1c6d7df94db9 .subtle-fill{fill-opacity:.2}#chart-752e44dd-a9f4-422e-965b-1c6d7df94db9 .dot{stroke-width:1px;fill-opacity:1;stroke-opacity:1}#chart-752e44dd-a9f4-422e-965b-1c6d7df94db9 .dot.active{stroke-width:5px}#chart-752e44dd-a9f4-422e-965b-1c6d7df94db9 .dot.negative{fill:transparent}#chart-752e44dd-a9f4-422e-965b-1c6d7df94db9 text,#chart-752e44dd-a9f4-422e-965b-1c6d7df94db9 tspan{stroke:none !important}#chart-752e44dd-a9f4-422e-965b-1c6d7df94db9 .series text.active{opacity:1}#chart-752e44dd-a9f4-422e-965b-1c6d7df94db9 .tooltip rect{fill-opacity:.95;stroke-width:.5}#chart-752e44dd-a9f4-422e-965b-1c6d7df94db9 .tooltip text{fill-opacity:1}#chart-752e44dd-a9f4-422e-965b-1c6d7df94db9 .showable{visibility:hidden}#chart-752e44dd-a9f4-422e-965b-1c6d7df94db9 .showable.shown{visibility:visible}#chart-752e44dd-a9f4-422e-965b-1c6d7df94db9 .gauge-background{fill:rgba(229,229,229,1);stroke:none}#chart-752e44dd-a9f4-422e-965b-1c6d7df94db9 .bg-lines{stroke:rgba(249,249,249,1);stroke-width:2px}</style><script type="text/javascript">window.pygal = window.pygal || {};window.pygal.config = window.pygal.config || {};window.pygal.config['752e44dd-a9f4-422e-965b-1c6d7df94db9'] = {"allow_interruptions": false, "box_mode": "extremes", "classes": ["pygal-chart", "pygal-sparkline"], "css": ["file://style.css", "file://graph.css"], "defs": [], "disable_xml_declaration": false, "dots_size": 2.5, "dynamic_print_values": false, "explicit_size": true, "fill": false, "force_uri_protocol": "https", "formatter": null, "half_pie": false, "height": 50, "include_x_axis": false, "inner_radius": 0, "interpolate": "cubic", "interpolation_parameters": {}, "interpolation_precision": 250, "inverse_y_axis": false, "js": [], "legend_at_bottom": false, "legend_at_bottom_columns": null, "legend_box_size": 12, "logarithmic": false, "margin": 10, "margin_bottom": null, "margin_left": null, "margin_right": null, "margin_top": null, "max_scale": 2, "min_scale": 1, "missing_value_fill_truncation": "x", "no_data_text": "", "no_prefix": false, "order_min": null, "pretty_print": false, "print_labels": false, "print_values": false, "print_values_position": "center", "print_zeroes": true, "range": null, "rounded_bars": null, "secondary_range": null, "show_dots": false, "show_legend": false, "show_minor_x_labels": true, "show_minor_y_labels": true, "show_only_major_dots": false, "show_x_guides": false, "show_x_labels": false, "show_y_guides": true, "show_y_labels": true, "spacing": 0, "stack_from_top": false, "strict": false, "stroke": true, "stroke_style": null, "style": {"background": "rgba(249, 249, 249, 1)", "ci_colors": [], "colors": ["#F44336", "#3F51B5", "#009688", "#FFC107", "#FF5722", "#9C27B0", "#03A9F4", "#8BC34A", "#FF9800", "#E91E63", "#2196F3", "#4CAF50", "#FFEB3B", "#673AB7", "#00BCD4", "#CDDC39", "#9E9E9E", "#607D8B"], "dot_opacity": "1", "font_family": "Consolas, \"Liberation Mono\", Menlo, Courier, monospace", "foreground": "rgba(0, 0, 0, .87)", "foreground_strong": "rgba(0, 0, 0, 1)", "foreground_subtle": "rgba(0, 0, 0, .54)", "guide_stroke_color": "black", "guide_stroke_dasharray": "4,4", "label_font_family": "Consolas, \"Liberation Mono\", Menlo, Courier, monospace", "label_font_size": 10, "legend_font_family": "Consolas, \"Liberation Mono\", Menlo, Courier, monospace", "legend_font_size": 14, "major_guide_stroke_color": "black", "major_guide_stroke_dasharray": "6,6", "major_label_font_family": "Consolas, \"Liberation Mono\", Menlo, Courier, monospace", "major_label_font_size": 10, "no_data_font_family": "Consolas, \"Liberation Mono\", Menlo, Courier, monospace", "no_data_font_size": 64, "opacity": ".7", "opacity_hover": ".8", "plot_background": "rgba(255, 255, 255, 1)", "stroke_opacity": ".8", "stroke_opacity_hover": ".9", "stroke_width": "1", "stroke_width_hover": "4", "title_font_family": "Consolas, \"Liberation Mono\", Menlo, Courier, monospace", "title_font_size": 16, "tooltip_font_family": "Consolas, \"Liberation Mono\", Menlo, Courier, monospace", "tooltip_font_size": 14, "transition": "150ms", "value_background": "rgba(229, 229, 229, 1)", "value_colors": [], "value_font_family": "Consolas, \"Liberation Mono\", Menlo, Courier, monospace", "value_font_size": 16, "value_label_font_family": "Consolas, \"Liberation Mono\", Menlo, Courier, monospace", "value_label_font_size": 10}, "title": null, "tooltip_border_radius": 0, "tooltip_fancy_mode": true, "truncate_label": null, "truncate_legend": null, "width": 200, "x_label_rotation": 0, "x_labels": ["2024/11", "2024/10", "2024/9", "2024/8"], "x_labels_major": null, "x_labels_major_count": null, "x_labels_major_every": null, "x_title": null, "xrange": null, "y_label_rotation": 0, "y_labels": null, "y_labels_major": null, "y_labels_major_count": null, "y_labels_major_every": null, "y_title": null, "zero": 0, "legends": [""]}</script></defs><title>Pygal</title><g class="graph line-graph vertical"><rect x="0" y="0" width="200" height="50" class="background" /><g transform="translate(22, 10)" class="plot"><rect x="0" y="0" width="168.0" height="30" class="background" /><g class="axis y always_show"><path d="M0.000000 30.000000 h168.000000" class="line" /><g class="guides"><path d="M0.000000 29.423077 h168.000000" class="guide line" /><text x="-5" y="32.92307692307692" class="">5</text><title>5</title></g><g class="guides"><path d="M0.000000 0.576923 h168.000000" class="guide line" /><text x="-5" y="4.076923076923073" class="">10</text><title>10</title></g></g><g class="series serie-0 color-0"><path d="M3.230769 0.576923 L3.446154 0.723076 3.661538 0.869224 3.876923 1.015361 4.092308 1.161483 4.307692 1.307585 4.523077 1.453660 4.738462 1.599704 4.953846 1.745713 5.169231 1.891680 5.384615 2.037600 5.600000 2.183469 5.815385 2.329280 6.030769 2.475030 6.246154 2.620713 6.461538 2.766323 6.676923 2.911856 6.892308 3.057306 7.107692 3.202668 7.323077 3.347937 7.538462 3.493108 7.753846 3.638175 7.969231 3.783134 8.184615 3.927979 8.400000 4.072705 8.615385 4.217308 8.830769 4.361781 9.046154 4.506119 9.261538 4.650318 9.476923 4.794373 9.692308 4.938277 9.907692 5.082026 10.123077 5.225615 10.338462 5.369039 10.553846 5.512292 10.769231 5.655369 10.984615 5.798266 11.200000 5.940976 11.415385 6.083495 11.630769 6.225817 11.846154 6.367938 12.061538 6.509853 12.276923 6.651555 12.492308 6.793040 12.707692 6.934303 12.923077 7.075338 13.138462 7.216141 13.353846 7.356706 13.569231 7.497028 13.784615 7.637102 14.000000 7.776923 14.215385 7.916485 14.430769 8.055784 14.646154 8.194814 14.861538 8.333569 15.076923 8.472046 15.292308 8.610239 15.507692 8.748141 15.723077 8.885750 15.938462 9.023058 16.153846 9.160062 16.369231 9.296755 16.584615 9.433133 16.800000 9.569190 17.015385 9.704922 17.230769 9.840323 17.446154 9.975388 17.661538 10.110112 17.876923 10.244489 18.092308 10.378515 18.307692 10.512185 18.523077 10.645492 18.738462 10.778432 18.953846 10.911001 19.169231 11.043192 19.384615 11.175000 19.600000 11.306421 19.815385 11.437448 20.030769 11.568078 20.246154 11.698305 20.461538 11.828123 20.676923 11.957528 20.892308 12.086514 21.107692 12.215076 21.323077 12.343209 21.538462 12.470908 21.753846 12.598167 21.969231 12.724982 22.184615 12.851347 22.400000 12.977257 22.615385 13.102708 22.830769 13.227693 23.046154 13.352207 23.261538 13.476246 23.476923 13.599805 23.692308 13.722877 23.907692 13.845458 24.123077 13.967543 24.338462 14.089127 24.553846 14.210204 24.769231 14.330769 24.984615 14.450818 25.200000 14.570344 25.415385 14.689343 25.630769 14.807809 25.846154 14.925738 26.061538 15.043125 26.276923 15.159963 26.492308 15.276248 26.707692 15.391975 26.923077 15.507138 27.138462 15.621733 27.353846 15.735754 27.569231 15.849196 27.784615 15.962054 28.000000 16.074323 28.215385 16.185997 28.430769 16.297072 28.646154 16.407542 28.861538 16.517401 29.076923 16.626646 29.292308 16.735271 29.507692 16.843269 29.723077 16.950638 29.938462 17.057370 30.153846 17.163462 30.369231 17.268907 30.584615 17.373701 30.800000 17.477838 31.015385 17.581314 31.230769 17.684123 31.446154 17.786260 31.661538 17.887720 31.876923 17.988497 32.092308 18.088587 32.307692 18.187985 32.523077 18.286684 32.738462 18.384680 32.953846 18.481969 33.169231 18.578544 33.384615 18.674400 33.600000 18.769533 33.815385 18.863936 34.030769 18.957606 34.246154 19.050537 34.461538 19.142723 34.676923 19.234160 34.892308 19.324842 35.107692 19.414764 35.323077 19.503921 35.538462 19.592308 35.753846 19.679919 35.969231 19.766750 36.184615 19.852795 36.400000 19.938049 36.615385 20.022508 36.830769 20.106165 37.046154 20.189015 37.261538 20.271054 37.476923 20.352277 37.692308 20.432677 37.907692 20.512250 38.123077 20.590991 38.338462 20.668895 38.553846 20.745956 38.769231 20.822169 38.984615 20.897530 39.200000 20.972032 39.415385 21.045671 39.630769 21.118441 39.846154 21.190338 40.061538 21.261357 40.276923 21.331491 40.492308 21.400736 40.707692 21.469087 40.923077 21.536538 41.138462 21.603085 41.353846 21.668722 41.569231 21.733444 41.784615 21.797246 42.000000 21.860123 42.215385 21.922069 42.430769 21.983080 42.646154 22.043150 42.861538 22.102273 43.076923 22.160446 43.292308 22.217663 43.507692 22.273917 43.723077 22.329206 43.938462 22.383522 44.153846 22.436862 44.369231 22.489219 44.584615 22.540589 44.800000 22.590966 45.015385 22.640346 45.230769 22.688723 45.446154 22.736092 45.661538 22.782448 45.876923 22.827785 46.092308 22.872099 46.307692 22.915385 46.523077 22.957636 46.738462 22.998848 46.953846 23.039017 47.169231 23.078136 47.384615 23.116200 47.600000 23.153205 47.815385 23.189144 48.030769 23.224014 48.246154 23.257809 48.461538 23.290523 48.676923 23.322152 48.892308 23.352690 49.107692 23.382132 49.323077 23.410473 49.538462 23.437708 49.753846 23.463831 49.969231 23.488838 50.184615 23.512723 50.400000 23.535481 50.615385 23.557108 50.830769 23.577597 51.046154 23.596943 51.261538 23.615142 51.476923 23.632189 51.692308 23.648077 51.907692 23.662802 52.123077 23.676359 52.338462 23.688743 52.553846 23.699948 52.769231 23.709969 52.984615 23.718802 53.200000 23.726440 53.415385 23.732879 53.630769 23.738113 53.846154 23.742138 54.061538 23.744949 54.276923 23.746539 54.492308 23.746904 54.707692 23.746039 54.923077 23.743938 55.138462 23.740597 55.353846 23.736010 55.569231 23.730172 55.784615 23.723078 56.000000 23.714723 56.215385 23.705101 56.430769 23.694208 56.646154 23.682038 56.861538 23.668585 57.076923 23.653846 57.292308 23.637817 57.507692 23.620506 57.723077 23.601923 57.938462 23.582080 58.153846 23.560985 58.369231 23.538649 58.584615 23.515083 58.800000 23.490298 59.015385 23.464302 59.230769 23.437108 59.446154 23.408724 59.661538 23.379162 59.876923 23.348432 60.092308 23.316544 60.307692 23.283508 60.523077 23.249335 60.738462 23.214035 60.953846 23.177618 61.169231 23.140096 61.384615 23.101477 61.600000 23.061773 61.815385 23.020993 62.030769 22.979149 62.246154 22.936251 62.461538 22.892308 62.676923 22.847331 62.892308 22.801331 63.107692 22.754317 63.323077 22.706301 63.538462 22.657292 63.753846 22.607301 63.969231 22.556339 64.184615 22.504415 64.400000 22.451539 64.615385 22.397723 64.830769 22.342976 65.046154 22.287310 65.261538 22.230733 65.476923 22.173257 65.692308 22.114892 65.907692 22.055648 66.123077 21.995536 66.338462 21.934566 66.553846 21.872748 66.769231 21.810092 66.984615 21.746610 67.200000 21.682310 67.415385 21.617205 67.630769 21.551303 67.846154 21.484615 68.061538 21.417152 68.276923 21.348925 68.492308 21.279942 68.707692 21.210215 68.923077 21.139754 69.138462 21.068569 69.353846 20.996671 69.569231 20.924070 69.784615 20.850776 70.000000 20.776800 70.215385 20.702152 70.430769 20.626842 70.646154 20.550881 70.861538 20.474279 71.076923 20.397046 71.292308 20.319193 71.507692 20.240730 71.723077 20.161667 71.938462 20.082016 72.153846 20.001785 72.369231 19.920985 72.584615 19.839627 72.800000 19.757722 73.015385 19.675278 73.230769 19.592308 73.446154 19.508820 73.661538 19.424826 73.876923 19.340336 74.092308 19.255360 74.307692 19.169908 74.523077 19.083991 74.738462 18.997619 74.953846 18.910802 75.169231 18.823552 75.384615 18.735877 75.600000 18.647789 75.815385 18.559297 76.030769 18.470413 76.246154 18.381147 76.461538 18.291508 76.676923 18.201507 76.892308 18.111155 77.107692 18.020461 77.323077 17.929437 77.538462 17.838092 77.753846 17.746437 77.969231 17.654483 78.184615 17.562239 78.400000 17.469715 78.615385 17.376923 78.830769 17.283872 79.046154 17.190574 79.261538 17.097037 79.476923 17.003273 79.692308 16.909292 79.907692 16.815104 80.123077 16.720720 80.338462 16.626150 80.553846 16.531404 80.769231 16.436492 80.984615 16.341426 81.200000 16.246214 81.415385 16.150869 81.630769 16.055399 81.846154 15.959815 82.061538 15.864128 82.276923 15.768349 82.492308 15.672486 82.707692 15.576551 82.923077 15.480554 83.138462 15.384505 83.353846 15.288415 83.569231 15.192294 83.784615 15.096152 84.000000 15.000000 84.215385 14.903848 84.430769 14.807706 84.646154 14.711585 84.861538 14.615495 85.076923 14.519446 85.292308 14.423449 85.507692 14.327514 85.723077 14.231651 85.938462 14.135872 86.153846 14.040185 86.369231 13.944601 86.584615 13.849131 86.800000 13.753786 87.015385 13.658574 87.230769 13.563508 87.446154 13.468596 87.661538 13.373850 87.876923 13.279280 88.092308 13.184896 88.307692 13.090708 88.523077 12.996727 88.738462 12.902963 88.953846 12.809426 89.169231 12.716128 89.384615 12.623077 89.600000 12.530285 89.815385 12.437761 90.030769 12.345517 90.246154 12.253563 90.461538 12.161908 90.676923 12.070563 90.892308 11.979539 91.107692 11.888845 91.323077 11.798493 91.538462 11.708492 91.753846 11.618853 91.969231 11.529587 92.184615 11.440703 92.400000 11.352211 92.615385 11.264123 92.830769 11.176448 93.046154 11.089198 93.261538 11.002381 93.476923 10.916009 93.692308 10.830092 93.907692 10.744640 94.123077 10.659664 94.338462 10.575174 94.553846 10.491180 94.769231 10.407692 94.984615 10.324722 95.200000 10.242278 95.415385 10.160373 95.630769 10.079015 95.846154 9.998215 96.061538 9.917984 96.276923 9.838333 96.492308 9.759270 96.707692 9.680807 96.923077 9.602954 97.138462 9.525721 97.353846 9.449119 97.569231 9.373158 97.784615 9.297848 98.000000 9.223200 98.215385 9.149224 98.430769 9.075930 98.646154 9.003329 98.861538 8.931431 99.076923 8.860246 99.292308 8.789785 99.507692 8.720058 99.723077 8.651075 99.938462 8.582848 100.153846 8.515385 100.369231 8.448697 100.584615 8.382795 100.800000 8.317690 101.015385 8.253390 101.230769 8.189908 101.446154 8.127252 101.661538 8.065434 101.876923 8.004464 102.092308 7.944352 102.307692 7.885108 102.523077 7.826743 102.738462 7.769267 102.953846 7.712690 103.169231 7.657024 103.384615 7.602277 103.600000 7.548461 103.815385 7.495585 104.030769 7.443661 104.246154 7.392699 104.461538 7.342708 104.676923 7.293699 104.892308 7.245683 105.107692 7.198669 105.323077 7.152669 105.538462 7.107692 105.753846 7.063749 105.969231 7.020851 106.184615 6.979007 106.400000 6.938227 106.615385 6.898523 106.830769 6.859904 107.046154 6.822382 107.261538 6.785965 107.476923 6.750665 107.692308 6.716492 107.907692 6.683456 108.123077 6.651568 108.338462 6.620838 108.553846 6.591276 108.769231 6.562892 108.984615 6.535698 109.200000 6.509702 109.415385 6.484917 109.630769 6.461351 109.846154 6.439015 110.061538 6.417920 110.276923 6.398077 110.492308 6.379494 110.707692 6.362183 110.923077 6.346154 111.138462 6.331415 111.353846 6.317962 111.569231 6.305792 111.784615 6.294899 112.000000 6.285277 112.215385 6.276922 112.430769 6.269828 112.646154 6.263990 112.861538 6.259403 113.076923 6.256062 113.292308 6.253961 113.507692 6.253096 113.723077 6.253461 113.938462 6.255051 114.153846 6.257862 114.369231 6.261887 114.584615 6.267121 114.800000 6.273560 115.015385 6.281198 115.230769 6.290031 115.446154 6.300052 115.661538 6.311257 115.876923 6.323641 116.092308 6.337198 116.307692 6.351923 116.523077 6.367811 116.738462 6.384858 116.953846 6.403057 117.169231 6.422403 117.384615 6.442892 117.600000 6.464519 117.815385 6.487277 118.030769 6.511162 118.246154 6.536169 118.461538 6.562292 118.676923 6.589527 118.892308 6.617868 119.107692 6.647310 119.323077 6.677848 119.538462 6.709477 119.753846 6.742191 119.969231 6.775986 120.184615 6.810856 120.400000 6.846795 120.615385 6.883800 120.830769 6.921864 121.046154 6.960983 121.261538 7.001152 121.476923 7.042364 121.692308 7.084615 121.907692 7.127901 122.123077 7.172215 122.338462 7.217552 122.553846 7.263908 122.769231 7.311277 122.984615 7.359654 123.200000 7.409034 123.415385 7.459411 123.630769 7.510781 123.846154 7.563138 124.061538 7.616478 124.276923 7.670794 124.492308 7.726083 124.707692 7.782337 124.923077 7.839554 125.138462 7.897727 125.353846 7.956850 125.569231 8.016920 125.784615 8.077931 126.000000 8.139877 126.215385 8.202754 126.430769 8.266556 126.646154 8.331278 126.861538 8.396915 127.076923 8.463462 127.292308 8.530913 127.507692 8.599264 127.723077 8.668509 127.938462 8.738643 128.153846 8.809662 128.369231 8.881559 128.584615 8.954329 128.800000 9.027968 129.015385 9.102470 129.230769 9.177831 129.446154 9.254044 129.661538 9.331105 129.876923 9.409009 130.092308 9.487750 130.307692 9.567323 130.523077 9.647723 130.738462 9.728946 130.953846 9.810985 131.169231 9.893835 131.384615 9.977492 131.600000 10.061951 131.815385 10.147205 132.030769 10.233250 132.246154 10.320081 132.461538 10.407692 132.676923 10.496079 132.892308 10.585236 133.107692 10.675158 133.323077 10.765840 133.538462 10.857277 133.753846 10.949463 133.969231 11.042394 134.184615 11.136064 134.400000 11.230467 134.615385 11.325600 134.830769 11.421456 135.046154 11.518031 135.261538 11.615320 135.476923 11.713316 135.692308 11.812015 135.907692 11.911413 136.123077 12.011503 136.338462 12.112280 136.553846 12.213740 136.769231 12.315877 136.984615 12.418686 137.200000 12.522162 137.415385 12.626299 137.630769 12.731093 137.846154 12.836538 138.061538 12.942630 138.276923 13.049362 138.492308 13.156731 138.707692 13.264729 138.923077 13.373354 139.138462 13.482599 139.353846 13.592458 139.569231 13.702928 139.784615 13.814003 140.000000 13.925677 140.215385 14.037946 140.430769 14.150804 140.646154 14.264246 140.861538 14.378267 141.076923 14.492862 141.292308 14.608025 141.507692 14.723752 141.723077 14.840037 141.938462 14.956875 142.153846 15.074262 142.369231 15.192191 142.584615 15.310657 142.800000 15.429656 143.015385 15.549182 143.230769 15.669231 143.446154 15.789796 143.661538 15.910873 143.876923 16.032457 144.092308 16.154542 144.307692 16.277123 144.523077 16.400195 144.738462 16.523754 144.953846 16.647793 145.169231 16.772307 145.384615 16.897292 145.600000 17.022743 145.815385 17.148653 146.030769 17.275018 146.246154 17.401833 146.461538 17.529092 146.676923 17.656791 146.892308 17.784924 147.107692 17.913486 147.323077 18.042472 147.538462 18.171877 147.753846 18.301695 147.969231 18.431922 148.184615 18.562552 148.400000 18.693579 148.615385 18.825000 148.830769 18.956808 149.046154 19.088999 149.261538 19.221568 149.476923 19.354508 149.692308 19.487815 149.907692 19.621485 150.123077 19.755511 150.338462 19.889888 150.553846 20.024612 150.769231 20.159677 150.984615 20.295078 151.200000 20.430810 151.415385 20.566867 151.630769 20.703245 151.846154 20.839938 152.061538 20.976942 152.276923 21.114250 152.492308 21.251859 152.707692 21.389761 152.923077 21.527954 153.138462 21.666431 153.353846 21.805186 153.569231 21.944216 153.784615 22.083515 154.000000 22.223077 154.215385 22.362898 154.430769 22.502972 154.646154 22.643294 154.861538 22.783859 155.076923 22.924662 155.292308 23.065697 155.507692 23.206960 155.723077 23.348445 155.938462 23.490147 156.153846 23.632062 156.369231 23.774183 156.584615 23.916505 156.800000 24.059024 157.015385 24.201734 157.230769 24.344631 157.446154 24.487708 157.661538 24.630961 157.876923 24.774385 158.092308 24.917974 158.307692 25.061723 158.523077 25.205627 158.738462 25.349682 158.953846 25.493881 159.169231 25.638219 159.384615 25.782692 159.600000 25.927295 159.815385 26.072021 160.030769 26.216866 160.246154 26.361825 160.461538 26.506892 160.676923 26.652063 160.892308 26.797332 161.107692 26.942694 161.323077 27.088144 161.538462 27.233677 161.753846 27.379287 161.969231 27.524970 162.184615 27.670720 162.400000 27.816531 162.615385 27.962400 162.830769 28.108320 163.046154 28.254287 163.261538 28.400296 163.476923 28.546340 163.692308 28.692415 163.907692 28.838517 164.123077 28.984639 164.338462 29.130776 164.553846 29.276924 164.769231 29.423077" class="line reactive nofill" /></g></g><g class="titles" /><g transform="translate(22, 10)" class="plot overlay"><g class="series serie-0 color-0" /></g><g transform="translate(22, 10)" class="plot text-overlay"><g class="series serie-0 color-0" /></g><g transform="translate(22, 10)" class="plot tooltip-overlay"><g transform="translate(0 0)" style="opacity: 0" class="tooltip"><rect rx="0" ry="0" width="0" height="0" class="tooltip-box" /><g class="text" /></g></g></g></svg>