<?xml version='1.0' encoding='utf-8'?>
<svg xmlns="http://www.w3.org/2000/svg" id="chart-708b5cbd-61a4-4254-8873-cfac4284e975" class="pygal-chart pygal-sparkline" viewBox="0 0 200 50" width="200" height="50"><!--Generated with pygal 3.0.5 (etree) ©Kozea 2012-2016 on 2024-11-07--><!--http://pygal.org--><!--http://github.com/Kozea/pygal--><defs><style type="text/css">#chart-708b5cbd-61a4-4254-8873-cfac4284e975{-webkit-user-select:none;-webkit-font-smoothing:antialiased;font-family:Consolas,"Liberation Mono",Menlo,Courier,monospace}#chart-708b5cbd-61a4-4254-8873-cfac4284e975 .title{font-family:Consolas,"Liberation Mono",Menlo,Courier,monospace;font-size:16px}#chart-708b5cbd-61a4-4254-8873-cfac4284e975 .legends .legend text{font-family:Consolas,"Liberation Mono",Menlo,Courier,monospace;font-size:14px}#chart-708b5cbd-61a4-4254-8873-cfac4284e975 .axis text{font-family:Consolas,"Liberation Mono",Menlo,Courier,monospace;font-size:10px}#chart-708b5cbd-61a4-4254-8873-cfac4284e975 .axis text.major{font-family:Consolas,"Liberation Mono",Menlo,Courier,monospace;font-size:10px}#chart-708b5cbd-61a4-4254-8873-cfac4284e975 .text-overlay text.value{font-family:Consolas,"Liberation Mono",Menlo,Courier,monospace;font-size:16px}#chart-708b5cbd-61a4-4254-8873-cfac4284e975 .text-overlay text.label{font-family:Consolas,"Liberation Mono",Menlo,Courier,monospace;font-size:10px}#chart-708b5cbd-61a4-4254-8873-cfac4284e975 .tooltip{font-family:Consolas,"Liberation Mono",Menlo,Courier,monospace;font-size:14px}#chart-708b5cbd-61a4-4254-8873-cfac4284e975 text.no_data{font-family:Consolas,"Liberation Mono",Menlo,Courier,monospace;font-size:64px}
#chart-708b5cbd-61a4-4254-8873-cfac4284e975{background-color:rgba(249,249,249,1)}#chart-708b5cbd-61a4-4254-8873-cfac4284e975 path,#chart-708b5cbd-61a4-4254-8873-cfac4284e975 line,#chart-708b5cbd-61a4-4254-8873-cfac4284e975 rect,#chart-708b5cbd-61a4-4254-8873-cfac4284e975 circle{-webkit-transition:150ms;-moz-transition:150ms;transition:150ms}#chart-708b5cbd-61a4-4254-8873-cfac4284e975 .graph &gt; .background{fill:rgba(249,249,249,1)}#chart-708b5cbd-61a4-4254-8873-cfac4284e975 .plot &gt; .background{fill:rgba(255,255,255,1)}#chart-708b5cbd-61a4-4254-8873-cfac4284e975 .graph{fill:rgba(0,0,0,.87)}#chart-708b5cbd-61a4-4254-8873-cfac4284e975 text.no_data{fill:rgba(0,0,0,1)}#chart-708b5cbd-61a4-4254-8873-cfac4284e975 .title{fill:rgba(0,0,0,1)}#chart-708b5cbd-61a4-4254-8873-cfac4284e975 .legends .legend text{fill:rgba(0,0,0,.87)}#chart-708b5cbd-61a4-4254-8873-cfac4284e975 .legends .legend:hover text{fill:rgba(0,0,0,1)}#chart-708b5cbd-61a4-4254-8873-cfac4284e975 .axis .line{stroke:rgba(0,0,0,1)}#chart-708b5cbd-61a4-4254-8873-cfac4284e975 .axis .guide.line{stroke:rgba(0,0,0,.54)}#chart-708b5cbd-61a4-4254-8873-cfac4284e975 .axis .major.line{stroke:rgba(0,0,0,.87)}#chart-708b5cbd-61a4-4254-8873-cfac4284e975 .axis text.major{fill:rgba(0,0,0,1)}#chart-708b5cbd-61a4-4254-8873-cfac4284e975 .axis.y .guides:hover .guide.line,#chart-708b5cbd-61a4-4254-8873-cfac4284e975 .line-graph .axis.x .guides:hover .guide.line,#chart-708b5cbd-61a4-4254-8873-cfac4284e975 .stackedline-graph .axis.x .guides:hover .guide.line,#chart-708b5cbd-61a4-4254-8873-cfac4284e975 .xy-graph .axis.x .guides:hover .guide.line{stroke:rgba(0,0,0,1)}#chart-708b5cbd-61a4-4254-8873-cfac4284e975 .axis .guides:hover text{fill:rgba(0,0,0,1)}#chart-708b5cbd-61a4-4254-8873-cfac4284e975 .reactive{fill-opacity:.7;stroke-opacity:.8;stroke-width:1}#chart-708b5cbd-61a4-4254-8873-cfac4284e975 .ci{stroke:rgba(0,0,0,.87)}#chart-708b5cbd-61a4-4254-8873-cfac4284e975 .reactive.active,#chart-708b5cbd-61a4-4254-8873-cfac4284e975 .active .reactive{fill-opacity:.8;stroke-opacity:.9;stroke-width:4}#chart-708b5cbd-61a4-4254-8873-cfac4284e975 .ci .reactive.active{stroke-width:1.5}#chart-708b5cbd-61a4-4254-8873-cfac4284e975 .series text{fill:rgba(0,0,0,1)}#chart-708b5cbd-61a4-4254-8873-cfac4284e975 .tooltip rect{fill:rgba(255,255,255,1);stroke:rgba(0,0,0,1);-webkit-transition:opacity 150ms;-moz-transition:opacity 150ms;transition:opacity 150ms}#chart-708b5cbd-61a4-4254-8873-cfac4284e975 .tooltip .label{fill:rgba(0,0,0,.87)}#chart-708b5cbd-61a4-4254-8873-cfac4284e975 .tooltip .label{fill:rgba(0,0,0,.87)}#chart-708b5cbd-61a4-4254-8873-cfac4284e975 .tooltip .legend{font-size:.8em;fill:rgba(0,0,0,.54)}#chart-708b5cbd-61a4-4254-8873-cfac4284e975 .tooltip .x_label{font-size:.6em;fill:rgba(0,0,0,1)}#chart-708b5cbd-61a4-4254-8873-cfac4284e975 .tooltip .xlink{font-size:.5em;text-decoration:underline}#chart-708b5cbd-61a4-4254-8873-cfac4284e975 .tooltip .value{font-size:1.5em}#chart-708b5cbd-61a4-4254-8873-cfac4284e975 .bound{font-size:.5em}#chart-708b5cbd-61a4-4254-8873-cfac4284e975 .max-value{font-size:.75em;fill:rgba(0,0,0,.54)}#chart-708b5cbd-61a4-4254-8873-cfac4284e975 .map-element{fill:rgba(255,255,255,1);stroke:rgba(0,0,0,.54) !important}#chart-708b5cbd-61a4-4254-8873-cfac4284e975 .map-element .reactive{fill-opacity:inherit;stroke-opacity:inherit}#chart-708b5cbd-61a4-4254-8873-cfac4284e975 .color-0,#chart-708b5cbd-61a4-4254-8873-cfac4284e975 .color-0 a:visited{stroke:#F44336;fill:#F44336}#chart-708b5cbd-61a4-4254-8873-cfac4284e975 .text-overlay .color-0 text{fill:black}
#chart-708b5cbd-61a4-4254-8873-cfac4284e975 text.no_data{text-anchor:middle}#chart-708b5cbd-61a4-4254-8873-cfac4284e975 .guide.line{fill:none}#chart-708b5cbd-61a4-4254-8873-cfac4284e975 .centered{text-anchor:middle}#chart-708b5cbd-61a4-4254-8873-cfac4284e975 .title{text-anchor:middle}#chart-708b5cbd-61a4-4254-8873-cfac4284e975 .legends .legend text{fill-opacity:1}#chart-708b5cbd-61a4-4254-8873-cfac4284e975 .axis.x text{text-anchor:middle}#chart-708b5cbd-61a4-4254-8873-cfac4284e975 .axis.x:not(.web) text[transform]{text-anchor:start}#chart-708b5cbd-61a4-4254-8873-cfac4284e975 .axis.x:not(.web) text[transform].backwards{text-anchor:end}#chart-708b5cbd-61a4-4254-8873-cfac4284e975 .axis.y text{text-anchor:end}#chart-708b5cbd-61a4-4254-8873-cfac4284e975 .axis.y text[transform].backwards{text-anchor:start}#chart-708b5cbd-61a4-4254-8873-cfac4284e975 .axis.y2 text{text-anchor:start}#chart-708b5cbd-61a4-4254-8873-cfac4284e975 .axis.y2 text[transform].backwards{text-anchor:end}#chart-708b5cbd-61a4-4254-8873-cfac4284e975 .axis .guide.line{stroke-dasharray:4,4;stroke:black}#chart-708b5cbd-61a4-4254-8873-cfac4284e975 .axis .major.guide.line{stroke-dasharray:6,6;stroke:black}#chart-708b5cbd-61a4-4254-8873-cfac4284e975 .horizontal .axis.y .guide.line,#chart-708b5cbd-61a4-4254-8873-cfac4284e975 .horizontal .axis.y2 .guide.line,#chart-708b5cbd-61a4-4254-8873-cfac4284e975 .vertical .axis.x .guide.line{opacity:0}#chart-708b5cbd-61a4-4254-8873-cfac4284e975 .horizontal .axis.always_show .guide.line,#chart-708b5cbd-61a4-4254-8873-cfac4284e975 .vertical .axis.always_show .guide.line{opacity:1 !important}#chart-708b5cbd-61a4-4254-8873-cfac4284e975 .axis.y .guides:hover .guide.line,#chart-708b5cbd-61a4-4254-8873-cfac4284e975 .axis.y2 .guides:hover .guide.line,#chart-708b5cbd-61a4-4254-8873-cfac4284e975 .axis.x .guides:hover .guide.line{opacity:1}#chart-708b5cbd-61a4-4254-8873-cfac4284e975 .axis .guides:hover text{opacity:1}#chart-708b5cbd-61a4-4254-8873-cfac4284e975 .nofill{fill:none}#chart-708b5cbd-61a4-4254-8873-cfac4284e975 .subtle-fill{fill-opacity:.2}#chart-708b5cbd-61a4-4254-8873-cfac4284e975 .dot{stroke-width:1px;fill-opacity:1;stroke-opacity:1}#chart-708b5cbd-61a4-4254-8873-cfac4284e975 .dot.active{stroke-width:5px}#chart-708b5cbd-61a4-4254-8873-cfac4284e975 .dot.negative{fill:transparent}#chart-708b5cbd-61a4-4254-8873-cfac4284e975 text,#chart-708b5cbd-61a4-4254-8873-cfac4284e975 tspan{stroke:none !important}#chart-708b5cbd-61a4-4254-8873-cfac4284e975 .series text.active{opacity:1}#chart-708b5cbd-61a4-4254-8873-cfac4284e975 .tooltip rect{fill-opacity:.95;stroke-width:.5}#chart-708b5cbd-61a4-4254-8873-cfac4284e975 .tooltip text{fill-opacity:1}#chart-708b5cbd-61a4-4254-8873-cfac4284e975 .showable{visibility:hidden}#chart-708b5cbd-61a4-4254-8873-cfac4284e975 .showable.shown{visibility:visible}#chart-708b5cbd-61a4-4254-8873-cfac4284e975 .gauge-background{fill:rgba(229,229,229,1);stroke:none}#chart-708b5cbd-61a4-4254-8873-cfac4284e975 .bg-lines{stroke:rgba(249,249,249,1);stroke-width:2px}</style><script type="text/javascript">window.pygal = window.pygal || {};window.pygal.config = window.pygal.config || {};window.pygal.config['708b5cbd-61a4-4254-8873-cfac4284e975'] = {"allow_interruptions": false, "box_mode": "extremes", "classes": ["pygal-chart", "pygal-sparkline"], "css": ["file://style.css", "file://graph.css"], "defs": [], "disable_xml_declaration": false, "dots_size": 2.5, "dynamic_print_values": false, "explicit_size": true, "fill": false, "force_uri_protocol": "https", "formatter": null, "half_pie": false, "height": 50, "include_x_axis": false, "inner_radius": 0, "interpolate": "cubic", "interpolation_parameters": {}, "interpolation_precision": 250, "inverse_y_axis": false, "js": [], "legend_at_bottom": false, "legend_at_bottom_columns": null, "legend_box_size": 12, "logarithmic": false, "margin": 10, "margin_bottom": null, "margin_left": null, "margin_right": null, "margin_top": null, "max_scale": 2, "min_scale": 1, "missing_value_fill_truncation": "x", "no_data_text": "", "no_prefix": false, "order_min": null, "pretty_print": false, "print_labels": false, "print_values": false, "print_values_position": "center", "print_zeroes": true, "range": null, "rounded_bars": null, "secondary_range": null, "show_dots": false, "show_legend": false, "show_minor_x_labels": true, "show_minor_y_labels": true, "show_only_major_dots": false, "show_x_guides": false, "show_x_labels": false, "show_y_guides": true, "show_y_labels": true, "spacing": 0, "stack_from_top": false, "strict": false, "stroke": true, "stroke_style": null, "style": {"background": "rgba(249, 249, 249, 1)", "ci_colors": [], "colors": ["#F44336", "#3F51B5", "#009688", "#FFC107", "#FF5722", "#9C27B0", "#03A9F4", "#8BC34A", "#FF9800", "#E91E63", "#2196F3", "#4CAF50", "#FFEB3B", "#673AB7", "#00BCD4", "#CDDC39", "#9E9E9E", "#607D8B"], "dot_opacity": "1", "font_family": "Consolas, \"Liberation Mono\", Menlo, Courier, monospace", "foreground": "rgba(0, 0, 0, .87)", "foreground_strong": "rgba(0, 0, 0, 1)", "foreground_subtle": "rgba(0, 0, 0, .54)", "guide_stroke_color": "black", "guide_stroke_dasharray": "4,4", "label_font_family": "Consolas, \"Liberation Mono\", Menlo, Courier, monospace", "label_font_size": 10, "legend_font_family": "Consolas, \"Liberation Mono\", Menlo, Courier, monospace", "legend_font_size": 14, "major_guide_stroke_color": "black", "major_guide_stroke_dasharray": "6,6", "major_label_font_family": "Consolas, \"Liberation Mono\", Menlo, Courier, monospace", "major_label_font_size": 10, "no_data_font_family": "Consolas, \"Liberation Mono\", Menlo, Courier, monospace", "no_data_font_size": 64, "opacity": ".7", "opacity_hover": ".8", "plot_background": "rgba(255, 255, 255, 1)", "stroke_opacity": ".8", "stroke_opacity_hover": ".9", "stroke_width": "1", "stroke_width_hover": "4", "title_font_family": "Consolas, \"Liberation Mono\", Menlo, Courier, monospace", "title_font_size": 16, "tooltip_font_family": "Consolas, \"Liberation Mono\", Menlo, Courier, monospace", "tooltip_font_size": 14, "transition": "150ms", "value_background": "rgba(229, 229, 229, 1)", "value_colors": [], "value_font_family": "Consolas, \"Liberation Mono\", Menlo, Courier, monospace", "value_font_size": 16, "value_label_font_family": "Consolas, \"Liberation Mono\", Menlo, Courier, monospace", "value_label_font_size": 10}, "title": null, "tooltip_border_radius": 0, "tooltip_fancy_mode": true, "truncate_label": null, "truncate_legend": null, "width": 200, "x_label_rotation": 0, "x_labels": ["2024/11", "2024/10", "2024/9", "2024/8", "2024/7"], "x_labels_major": null, "x_labels_major_count": null, "x_labels_major_every": null, "x_title": null, "xrange": null, "y_label_rotation": 0, "y_labels": null, "y_labels_major": null, "y_labels_major_count": null, "y_labels_major_every": null, "y_title": null, "zero": 0, "legends": [""]}</script></defs><title>Pygal</title><g class="graph line-graph vertical"><rect x="0" y="0" width="200" height="50" class="background" /><g transform="translate(20, 10)" class="plot"><rect x="0" y="0" width="170" height="30" class="background" /><g class="axis y always_show"><path d="M0.000000 30.000000 h170.000000" class="line" /><g class="guides"><path d="M0.000000 21.185655 h170.000000" class="guide line" /><text x="-5" y="24.685654728563115" class="">4</text><title>4</title></g><g class="guides"><path d="M0.000000 4.710810 h170.000000" class="guide line" /><text x="-5" y="8.210810339535502" class="">8</text><title>8</title></g></g><g class="series serie-0 color-0"><path d="M3.269231 29.423077 L3.432692 29.358943 3.596154 29.294808 3.759615 29.230674 3.923077 29.166538 4.086538 29.102402 4.250000 29.038266 4.413462 28.974128 4.576923 28.909989 4.740385 28.845848 4.903846 28.781707 5.067308 28.717563 5.230769 28.653418 5.394231 28.589270 5.557692 28.525120 5.721154 28.460968 5.884615 28.396814 6.048077 28.332657 6.211538 28.268496 6.375000 28.204333 6.538462 28.140167 6.701923 28.075997 6.865385 28.011823 7.028846 27.947646 7.192308 27.883465 7.355769 27.819280 7.519231 27.755091 7.682692 27.690897 7.846154 27.626699 8.009615 27.562496 8.173077 27.498288 8.336538 27.434075 8.500000 27.369857 8.663462 27.305633 8.826923 27.241404 8.990385 27.177168 9.153846 27.112927 9.317308 27.048680 9.480769 26.984427 9.644231 26.920167 9.807692 26.855901 9.971154 26.791628 10.134615 26.727347 10.298077 26.663060 10.461538 26.598766 10.625000 26.534464 10.788462 26.470154 10.951923 26.405837 11.115385 26.341511 11.278846 26.277178 11.442308 26.212836 11.605769 26.148486 11.769231 26.084127 11.932692 26.019759 12.096154 25.955382 12.259615 25.890996 12.423077 25.826601 12.586538 25.762196 12.750000 25.697782 12.913462 25.633358 13.076923 25.568924 13.240385 25.504479 13.403846 25.440025 13.567308 25.375559 13.730769 25.311083 13.894231 25.246597 14.057692 25.182099 14.221154 25.117590 14.384615 25.053070 14.548077 24.988538 14.711538 24.923995 14.875000 24.859439 15.038462 24.794872 15.201923 24.730292 15.365385 24.665700 15.528846 24.601096 15.692308 24.536479 15.855769 24.471849 16.019231 24.407206 16.182692 24.342549 16.346154 24.277879 16.509615 24.213196 16.673077 24.148499 16.836538 24.083788 17.000000 24.019063 17.163462 23.954324 17.326923 23.889571 17.490385 23.824802 17.653846 23.760019 17.817308 23.695222 17.980769 23.630409 18.144231 23.565581 18.307692 23.500737 18.471154 23.435878 18.634615 23.371003 18.798077 23.306112 18.961538 23.241205 19.125000 23.176282 19.288462 23.111342 19.451923 23.046386 19.615385 22.981413 19.778846 22.916423 19.942308 22.851416 20.105769 22.786391 20.269231 22.721349 20.432692 22.656290 20.596154 22.591213 20.759615 22.526117 20.923077 22.461004 21.086538 22.395872 21.250000 22.330722 21.413462 22.265554 21.576923 22.200366 21.740385 22.135159 21.903846 22.069934 22.067308 22.004689 22.230769 21.939424 22.394231 21.874140 22.557692 21.808836 22.721154 21.743512 22.884615 21.678168 23.048077 21.612803 23.211538 21.547418 23.375000 21.482013 23.538462 21.416586 23.701923 21.351139 23.865385 21.285670 24.028846 21.220180 24.192308 21.154668 24.355769 21.089135 24.519231 21.023580 24.682692 20.958003 24.846154 20.892403 25.009615 20.826782 25.173077 20.761137 25.336538 20.695470 25.500000 20.629781 25.663462 20.564068 25.826923 20.498332 25.990385 20.432572 26.153846 20.366789 26.317308 20.300982 26.480769 20.235152 26.644231 20.169297 26.807692 20.103418 26.971154 20.037515 27.134615 19.971587 27.298077 19.905634 27.461538 19.839656 27.625000 19.773654 27.788462 19.707626 27.951923 19.641573 28.115385 19.575494 28.278846 19.509389 28.442308 19.443258 28.605769 19.377102 28.769231 19.310919 28.932692 19.244709 29.096154 19.178473 29.259615 19.112210 29.423077 19.045921 29.586538 18.979604 29.750000 18.913260 29.913462 18.846888 30.076923 18.780489 30.240385 18.714062 30.403846 18.647607 30.567308 18.581124 30.730769 18.514613 30.894231 18.448073 31.057692 18.381504 31.221154 18.314907 31.384615 18.248281 31.548077 18.181625 31.711538 18.114941 31.875000 18.048227 32.038462 17.981483 32.201923 17.914709 32.365385 17.847905 32.528846 17.781071 32.692308 17.714207 32.855769 17.647313 33.019231 17.580387 33.182692 17.513431 33.346154 17.446444 33.509615 17.379426 33.673077 17.312376 33.836538 17.245295 34.000000 17.178182 34.163462 17.111037 34.326923 17.043860 34.490385 16.976651 34.653846 16.909410 34.817308 16.842136 34.980769 16.774829 35.144231 16.707490 35.307692 16.640117 35.471154 16.572711 35.634615 16.505272 35.798077 16.437799 35.961538 16.370293 36.125000 16.302753 36.288462 16.235178 36.451923 16.167570 36.615385 16.099927 36.778846 16.032249 36.942308 15.964537 37.105769 15.896790 37.269231 15.829007 37.432692 15.761190 37.596154 15.693337 37.759615 15.625448 37.923077 15.557524 38.086538 15.489564 38.250000 15.421568 38.413462 15.353535 38.576923 15.285466 38.740385 15.217360 38.903846 15.149218 39.067308 15.081039 39.230769 15.012822 39.394231 14.944569 39.557692 14.876278 39.721154 14.807949 39.884615 14.739582 40.048077 14.671178 40.211538 14.602735 40.375000 14.534254 40.538462 14.465735 40.701923 14.397177 40.865385 14.328580 41.028846 14.259944 41.192308 14.191269 41.355769 14.122555 41.519231 14.053801 41.682692 13.985007 41.846154 13.916174 42.009615 13.847301 42.173077 13.778388 42.336538 13.709434 42.500000 13.640440 42.663462 13.571405 42.826923 13.502329 42.990385 13.433212 43.153846 13.364054 43.317308 13.294855 43.480769 13.225614 43.644231 13.156332 43.807692 13.087007 43.971154 13.017641 44.134615 12.948233 44.298077 12.878782 44.461538 12.809292 44.625000 12.739764 44.788462 12.670201 44.951923 12.600605 45.115385 12.530979 45.278846 12.461326 45.442308 12.391647 45.605769 12.321945 45.769231 12.252222 45.932692 12.182482 46.096154 12.112725 46.259615 12.042956 46.423077 11.973176 46.586538 11.903387 46.750000 11.833593 46.913462 11.763795 47.076923 11.693996 47.240385 11.624198 47.403846 11.554404 47.567308 11.484617 47.730769 11.414837 47.894231 11.345069 48.057692 11.275315 48.221154 11.205576 48.384615 11.135856 48.548077 11.066157 48.711538 10.996481 48.875000 10.926830 49.038462 10.857208 49.201923 10.787616 49.365385 10.718057 49.528846 10.648533 49.692308 10.579047 49.855769 10.509601 50.019231 10.440198 50.182692 10.370840 50.346154 10.301530 50.509615 10.232269 50.673077 10.163061 50.836538 10.093908 51.000000 10.024812 51.163462 9.955775 51.326923 9.886801 51.490385 9.817891 51.653846 9.749048 51.817308 9.680274 51.980769 9.611572 52.144231 9.542945 52.307692 9.474394 52.471154 9.405922 52.634615 9.337532 52.798077 9.269225 52.961538 9.201005 53.125000 9.132874 53.288462 9.064834 53.451923 8.996887 53.615385 8.929037 53.778846 8.861285 53.942308 8.793635 54.105769 8.726087 54.269231 8.658645 54.432692 8.591312 54.596154 8.524089 54.759615 8.456979 54.923077 8.389985 55.086538 8.323109 55.250000 8.256353 55.413462 8.189720 55.576923 8.123212 55.740385 8.056832 55.903846 7.990582 56.067308 7.924464 56.230769 7.858481 56.394231 7.792636 56.557692 7.726930 56.721154 7.661367 56.884615 7.595949 57.048077 7.530677 57.211538 7.465555 57.375000 7.400585 57.538462 7.335769 57.701923 7.271110 57.865385 7.206611 58.028846 7.142273 58.192308 7.078099 58.355769 7.014091 58.519231 6.950253 58.682692 6.886586 58.846154 6.823093 59.009615 6.759775 59.173077 6.696637 59.336538 6.633680 59.500000 6.570906 59.663462 6.508318 59.826923 6.445919 59.990385 6.383710 60.153846 6.321695 60.317308 6.259875 60.480769 6.198253 60.644231 6.136832 60.807692 6.075614 60.971154 6.014601 61.134615 5.953796 61.298077 5.893202 61.461538 5.832820 61.625000 5.772653 61.788462 5.712703 61.951923 5.652974 62.115385 5.593467 62.278846 5.534184 62.442308 5.475129 62.605769 5.416304 62.769231 5.357711 62.932692 5.299352 63.096154 5.241230 63.259615 5.183348 63.423077 5.125707 63.586538 5.068311 63.750000 5.011161 63.913462 4.954260 64.076923 4.897611 64.240385 4.841216 64.403846 4.785077 64.567308 4.729197 64.730769 4.673579 64.894231 4.618224 65.057692 4.563135 65.221154 4.508315 65.384615 4.453765 65.548077 4.399489 65.711538 4.345489 65.875000 4.291767 66.038462 4.238326 66.201923 4.185167 66.365385 4.132295 66.528846 4.079710 66.692308 4.027416 66.855769 3.975414 67.019231 3.923708 67.182692 3.872300 67.346154 3.821191 67.509615 3.770385 67.673077 3.719884 67.836538 3.669691 68.000000 3.619807 68.163462 3.570236 68.326923 3.520979 68.490385 3.472039 68.653846 3.423419 68.817308 3.375121 68.980769 3.327147 69.144231 3.279500 69.307692 3.232182 69.471154 3.185196 69.634615 3.138544 69.798077 3.092229 69.961538 3.046252 70.125000 3.000617 70.288462 2.955326 70.451923 2.910381 70.615385 2.865785 70.778846 2.821540 70.942308 2.777648 71.105769 2.734113 71.269231 2.690935 71.432692 2.648119 71.596154 2.605666 71.759615 2.563578 71.923077 2.521859 72.086538 2.480510 72.250000 2.439534 72.413462 2.398934 72.576923 2.358711 72.740385 2.318869 72.903846 2.279409 73.067308 2.240335 73.230769 2.201648 73.394231 2.163351 73.557692 2.125446 73.721154 2.087936 73.884615 2.050824 74.048077 2.014111 74.211538 1.977800 74.375000 1.941894 74.538462 1.906395 74.701923 1.871305 74.865385 1.836627 75.028846 1.802363 75.192308 1.768516 75.355769 1.735088 75.519231 1.702082 75.682692 1.669499 75.846154 1.637344 76.009615 1.605616 76.173077 1.574321 76.336538 1.543458 76.500000 1.513032 76.663462 1.483045 76.826923 1.453498 76.990385 1.424395 77.153846 1.395738 77.317308 1.367529 77.480769 1.339771 77.644231 1.312465 77.807692 1.285616 77.971154 1.259224 78.134615 1.233293 78.298077 1.207824 78.461538 1.182821 78.625000 1.158286 78.788462 1.134221 78.951923 1.110628 79.115385 1.087510 79.278846 1.064870 79.442308 1.042709 79.605769 1.021031 79.769231 0.999837 79.932692 0.979131 80.096154 0.958914 80.259615 0.939189 80.423077 0.919959 80.586538 0.901225 80.750000 0.882991 80.913462 0.865258 81.076923 0.848030 81.240385 0.831308 81.403846 0.815095 81.567308 0.799393 81.730769 0.784205 81.894231 0.769534 82.057692 0.755381 82.221154 0.741750 82.384615 0.728642 82.548077 0.716060 82.711538 0.704006 82.875000 0.692483 83.038462 0.681494 83.201923 0.671040 83.365385 0.661124 83.528846 0.651749 83.692308 0.642917 83.855769 0.634630 84.019231 0.626891 84.182692 0.619703 84.346154 0.613067 84.509615 0.606986 84.673077 0.601463 84.836538 0.596500 85.000000 0.592099 85.163462 0.588262 85.326923 0.584987 85.490385 0.582270 85.653846 0.580109 85.817308 0.578499 85.980769 0.577438 86.144231 0.576923 86.307692 0.576950 86.471154 0.577516 86.634615 0.578618 86.798077 0.580253 86.961538 0.582417 87.125000 0.585107 87.288462 0.588320 87.451923 0.592053 87.615385 0.596303 87.778846 0.601066 87.942308 0.606339 88.105769 0.612119 88.269231 0.618403 88.432692 0.625187 88.596154 0.632468 88.759615 0.640243 88.923077 0.648509 89.086538 0.657263 89.250000 0.666501 89.413462 0.676220 89.576923 0.686418 89.740385 0.697089 89.903846 0.708233 90.067308 0.719844 90.230769 0.731921 90.394231 0.744459 90.557692 0.757457 90.721154 0.770909 90.884615 0.784814 91.048077 0.799167 91.211538 0.813966 91.375000 0.829208 91.538462 0.844889 91.701923 0.861006 91.865385 0.877556 92.028846 0.894536 92.192308 0.911942 92.355769 0.929771 92.519231 0.948020 92.682692 0.966686 92.846154 0.985766 93.009615 1.005255 93.173077 1.025152 93.336538 1.045453 93.500000 1.066154 93.663462 1.087253 93.826923 1.108746 93.990385 1.130630 94.153846 1.152902 94.317308 1.175558 94.480769 1.198596 94.644231 1.222012 94.807692 1.245802 94.971154 1.269965 95.134615 1.294495 95.298077 1.319391 95.461538 1.344649 95.625000 1.370266 95.788462 1.396239 95.951923 1.422563 96.115385 1.449237 96.278846 1.476257 96.442308 1.503619 96.605769 1.531321 96.769231 1.559360 96.932692 1.587731 97.096154 1.616432 97.259615 1.645460 97.423077 1.674811 97.586538 1.704482 97.750000 1.734470 97.913462 1.764772 98.076923 1.795384 98.240385 1.826304 98.403846 1.857528 98.567308 1.889052 98.730769 1.920874 98.894231 1.952991 99.057692 1.985399 99.221154 2.018094 99.384615 2.051075 99.548077 2.084337 99.711538 2.117877 99.875000 2.151692 100.038462 2.185780 100.201923 2.220135 100.365385 2.254757 100.528846 2.289640 100.692308 2.324783 100.855769 2.360181 101.019231 2.395832 101.182692 2.431732 101.346154 2.467878 101.509615 2.504267 101.673077 2.540896 101.836538 2.577761 102.000000 2.614859 102.163462 2.652188 102.326923 2.689743 102.490385 2.727522 102.653846 2.765521 102.817308 2.803737 102.980769 2.842168 103.144231 2.880808 103.307692 2.919657 103.471154 2.958709 103.634615 2.997963 103.798077 3.037415 103.961538 3.077061 104.125000 3.116898 104.288462 3.156924 104.451923 3.197134 104.615385 3.237526 104.778846 3.278097 104.942308 3.318843 105.105769 3.359761 105.269231 3.400848 105.432692 3.442100 105.596154 3.483515 105.759615 3.525089 105.923077 3.566819 106.086538 3.608702 106.250000 3.650734 106.413462 3.692913 106.576923 3.735234 106.740385 3.777696 106.903846 3.820294 107.067308 3.863025 107.230769 3.905887 107.394231 3.948876 107.557692 3.991988 107.721154 4.035221 107.884615 4.078572 108.048077 4.122036 108.211538 4.165611 108.375000 4.209294 108.538462 4.253082 108.701923 4.296970 108.865385 4.340957 109.028846 4.385039 109.192308 4.429212 109.355769 4.473473 109.519231 4.517819 109.682692 4.562248 109.846154 4.606755 110.009615 4.651337 110.173077 4.695992 110.336538 4.740716 110.500000 4.785505 110.663462 4.830357 110.826923 4.875269 110.990385 4.920237 111.153846 4.965257 111.317308 5.010328 111.480769 5.055444 111.644231 5.100604 111.807692 5.145805 111.971154 5.191041 112.134615 5.236312 112.298077 5.281613 112.461538 5.326941 112.625000 5.372293 112.788462 5.417666 112.951923 5.463056 113.115385 5.508461 113.278846 5.553876 113.442308 5.599300 113.605769 5.644728 113.769231 5.690158 113.932692 5.735585 114.096154 5.781008 114.259615 5.826423 114.423077 5.871826 114.586538 5.917214 114.750000 5.962584 114.913462 6.007934 115.076923 6.053259 115.240385 6.098556 115.403846 6.143823 115.567308 6.189055 115.730769 6.234250 115.894231 6.279405 116.057692 6.324517 116.221154 6.369581 116.384615 6.414595 116.548077 6.459556 116.711538 6.504461 116.875000 6.549305 117.038462 6.594087 117.201923 6.638802 117.365385 6.683448 117.528846 6.728022 117.692308 6.772519 117.855769 6.816938 118.019231 6.861274 118.182692 6.905525 118.346154 6.949687 118.509615 6.993757 118.673077 7.037731 118.836538 7.081608 119.000000 7.125383 119.163462 7.169052 119.326923 7.212614 119.490385 7.256065 119.653846 7.299401 119.817308 7.342619 119.980769 7.385717 120.144231 7.428690 120.307692 7.471536 120.471154 7.514251 120.634615 7.556833 120.798077 7.599277 120.961538 7.641582 121.125000 7.683742 121.288462 7.725756 121.451923 7.767621 121.615385 7.809332 121.778846 7.850886 121.942308 7.892281 122.105769 7.933514 122.269231 7.974580 122.432692 8.015477 122.596154 8.056202 122.759615 8.096751 122.923077 8.137121 123.086538 8.177309 123.250000 8.217311 123.413462 8.257125 123.576923 8.296748 123.740385 8.336175 123.903846 8.375404 124.067308 8.414432 124.230769 8.453255 124.394231 8.491870 124.557692 8.530274 124.721154 8.568464 124.884615 8.606436 125.048077 8.644188 125.211538 8.681715 125.375000 8.719016 125.538462 8.756086 125.701923 8.792922 125.865385 8.829521 126.028846 8.865882 126.192308 8.902003 126.355769 8.937886 126.519231 8.973531 126.682692 9.008941 126.846154 9.044115 127.009615 9.079055 127.173077 9.113761 127.336538 9.148236 127.500000 9.182479 127.663462 9.216491 127.826923 9.250274 127.990385 9.283828 128.153846 9.317155 128.317308 9.350255 128.480769 9.383129 128.644231 9.415779 128.807692 9.448205 128.971154 9.480408 129.134615 9.512390 129.298077 9.544150 129.461538 9.575691 129.625000 9.607013 129.788462 9.638116 129.951923 9.669003 130.115385 9.699674 130.278846 9.730129 130.442308 9.760371 130.605769 9.790399 130.769231 9.820215 130.932692 9.849820 131.096154 9.879214 131.259615 9.908399 131.423077 9.937376 131.586538 9.966146 131.750000 9.994709 131.913462 10.023066 132.076923 10.051219 132.240385 10.079168 132.403846 10.106915 132.567308 10.134460 132.730769 10.161804 132.894231 10.188949 133.057692 10.215895 133.221154 10.242643 133.384615 10.269194 133.548077 10.295550 133.711538 10.321710 133.875000 10.347676 134.038462 10.373450 134.201923 10.399031 134.365385 10.424421 134.528846 10.449621 134.692308 10.474632 134.855769 10.499455 135.019231 10.524091 135.182692 10.548540 135.346154 10.572804 135.509615 10.596883 135.673077 10.620779 135.836538 10.644493 136.000000 10.668025 136.163462 10.691377 136.326923 10.714549 136.490385 10.737543 136.653846 10.760358 136.817308 10.782998 136.980769 10.805461 137.144231 10.827750 137.307692 10.849865 137.471154 10.871807 137.634615 10.893577 137.798077 10.915176 137.961538 10.936605 138.125000 10.957865 138.288462 10.978958 138.451923 10.999883 138.615385 11.020642 138.778846 11.041236 138.942308 11.061665 139.105769 11.081932 139.269231 11.102036 139.432692 11.121978 139.596154 11.141761 139.759615 11.161384 139.923077 11.180848 140.086538 11.200156 140.250000 11.219306 140.413462 11.238301 140.576923 11.257142 140.740385 11.275828 140.903846 11.294362 141.067308 11.312745 141.230769 11.330976 141.394231 11.349058 141.557692 11.366991 141.721154 11.384776 141.884615 11.402414 142.048077 11.419907 142.211538 11.437254 142.375000 11.454457 142.538462 11.471517 142.701923 11.488435 142.865385 11.505212 143.028846 11.521849 143.192308 11.538346 143.355769 11.554705 143.519231 11.570927 143.682692 11.587013 143.846154 11.602963 144.009615 11.618778 144.173077 11.634460 144.336538 11.650010 144.500000 11.665428 144.663462 11.680716 144.826923 11.695874 144.990385 11.710903 145.153846 11.725804 145.317308 11.740579 145.480769 11.755228 145.644231 11.769752 145.807692 11.784152 145.971154 11.798430 146.134615 11.812585 146.298077 11.826619 146.461538 11.840534 146.625000 11.854329 146.788462 11.868006 146.951923 11.881566 147.115385 11.895010 147.278846 11.908338 147.442308 11.921553 147.605769 11.934654 147.769231 11.947642 147.932692 11.960520 148.096154 11.973287 148.259615 11.985944 148.423077 11.998493 148.586538 12.010934 148.750000 12.023269 148.913462 12.035498 149.076923 12.047622 149.240385 12.059643 149.403846 12.071561 149.567308 12.083377 149.730769 12.095093 149.894231 12.106708 150.057692 12.118225 150.221154 12.129643 150.384615 12.140965 150.548077 12.152191 150.711538 12.163321 150.875000 12.174358 151.038462 12.185301 151.201923 12.196152 151.365385 12.206912 151.528846 12.217582 151.692308 12.228162 151.855769 12.238654 152.019231 12.249059 152.182692 12.259377 152.346154 12.269610 152.509615 12.279758 152.673077 12.289823 152.836538 12.299805 153.000000 12.309706 153.163462 12.319525 153.326923 12.329266 153.490385 12.338927 153.653846 12.348511 153.817308 12.358017 153.980769 12.367448 154.144231 12.376804 154.307692 12.386086 154.471154 12.395296 154.634615 12.404433 154.798077 12.413499 154.961538 12.422495 155.125000 12.431421 155.288462 12.440280 155.451923 12.449072 155.615385 12.457797 155.778846 12.466457 155.942308 12.475052 156.105769 12.483584 156.269231 12.492054 156.432692 12.500462 156.596154 12.508810 156.759615 12.517098 156.923077 12.525328 157.086538 12.533500 157.250000 12.541615 157.413462 12.549675 157.576923 12.557680 157.740385 12.565631 157.903846 12.573530 158.067308 12.581376 158.230769 12.589172 158.394231 12.596918 158.557692 12.604614 158.721154 12.612263 158.884615 12.619865 159.048077 12.627420 159.211538 12.634931 159.375000 12.642397 159.538462 12.649820 159.701923 12.657201 159.865385 12.664540 160.028846 12.671840 160.192308 12.679099 160.355769 12.686321 160.519231 12.693505 160.682692 12.700652 160.846154 12.707764 161.009615 12.714842 161.173077 12.721885 161.336538 12.728897 161.500000 12.735876 161.663462 12.742825 161.826923 12.749744 161.990385 12.756634 162.153846 12.763496 162.317308 12.770331 162.480769 12.777141 162.644231 12.783925 162.807692 12.790686 162.971154 12.797423 163.134615 12.804139 163.298077 12.810833 163.461538 12.817507 163.625000 12.824162 163.788462 12.830798 163.951923 12.837418 164.115385 12.844021 164.278846 12.850608 164.442308 12.857182 164.605769 12.863742 164.769231 12.870289 164.932692 12.876825 165.096154 12.883350 165.259615 12.889866 165.423077 12.896373 165.586538 12.902872 165.750000 12.909364 165.913462 12.915851 166.076923 12.922333 166.240385 12.928811 166.403846 12.935287 166.567308 12.941760 166.730769 12.948233" class="line reactive nofill" /></g></g><g class="titles" /><g transform="translate(20, 10)" class="plot overlay"><g class="series serie-0 color-0" /></g><g transform="translate(20, 10)" class="plot text-overlay"><g class="series serie-0 color-0" /></g><g transform="translate(20, 10)" class="plot tooltip-overlay"><g transform="translate(0 0)" style="opacity: 0" class="tooltip"><rect rx="0" ry="0" width="0" height="0" class="tooltip-box" /><g class="text" /></g></g></g></svg>