<?xml version='1.0' encoding='utf-8'?>
<svg xmlns="http://www.w3.org/2000/svg" id="chart-486cc5c4-0380-4272-80b4-dd43558231e3" class="pygal-chart pygal-sparkline" viewBox="0 0 200 50" width="200" height="50"><!--Generated with pygal 3.0.5 (etree) ©Kozea 2012-2016 on 2024-12-01--><!--http://pygal.org--><!--http://github.com/Kozea/pygal--><defs><style type="text/css">#chart-486cc5c4-0380-4272-80b4-dd43558231e3{-webkit-user-select:none;-webkit-font-smoothing:antialiased;font-family:Consolas,"Liberation Mono",Menlo,Courier,monospace}#chart-486cc5c4-0380-4272-80b4-dd43558231e3 .title{font-family:Consolas,"Liberation Mono",Menlo,Courier,monospace;font-size:16px}#chart-486cc5c4-0380-4272-80b4-dd43558231e3 .legends .legend text{font-family:Consolas,"Liberation Mono",Menlo,Courier,monospace;font-size:14px}#chart-486cc5c4-0380-4272-80b4-dd43558231e3 .axis text{font-family:Consolas,"Liberation Mono",Menlo,Courier,monospace;font-size:10px}#chart-486cc5c4-0380-4272-80b4-dd43558231e3 .axis text.major{font-family:Consolas,"Liberation Mono",Menlo,Courier,monospace;font-size:10px}#chart-486cc5c4-0380-4272-80b4-dd43558231e3 .text-overlay text.value{font-family:Consolas,"Liberation Mono",Menlo,Courier,monospace;font-size:16px}#chart-486cc5c4-0380-4272-80b4-dd43558231e3 .text-overlay text.label{font-family:Consolas,"Liberation Mono",Menlo,Courier,monospace;font-size:10px}#chart-486cc5c4-0380-4272-80b4-dd43558231e3 .tooltip{font-family:Consolas,"Liberation Mono",Menlo,Courier,monospace;font-size:14px}#chart-486cc5c4-0380-4272-80b4-dd43558231e3 text.no_data{font-family:Consolas,"Liberation Mono",Menlo,Courier,monospace;font-size:64px}
#chart-486cc5c4-0380-4272-80b4-dd43558231e3{background-color:rgba(249,249,249,1)}#chart-486cc5c4-0380-4272-80b4-dd43558231e3 path,#chart-486cc5c4-0380-4272-80b4-dd43558231e3 line,#chart-486cc5c4-0380-4272-80b4-dd43558231e3 rect,#chart-486cc5c4-0380-4272-80b4-dd43558231e3 circle{-webkit-transition:150ms;-moz-transition:150ms;transition:150ms}#chart-486cc5c4-0380-4272-80b4-dd43558231e3 .graph &gt; .background{fill:rgba(249,249,249,1)}#chart-486cc5c4-0380-4272-80b4-dd43558231e3 .plot &gt; .background{fill:rgba(255,255,255,1)}#chart-486cc5c4-0380-4272-80b4-dd43558231e3 .graph{fill:rgba(0,0,0,.87)}#chart-486cc5c4-0380-4272-80b4-dd43558231e3 text.no_data{fill:rgba(0,0,0,1)}#chart-486cc5c4-0380-4272-80b4-dd43558231e3 .title{fill:rgba(0,0,0,1)}#chart-486cc5c4-0380-4272-80b4-dd43558231e3 .legends .legend text{fill:rgba(0,0,0,.87)}#chart-486cc5c4-0380-4272-80b4-dd43558231e3 .legends .legend:hover text{fill:rgba(0,0,0,1)}#chart-486cc5c4-0380-4272-80b4-dd43558231e3 .axis .line{stroke:rgba(0,0,0,1)}#chart-486cc5c4-0380-4272-80b4-dd43558231e3 .axis .guide.line{stroke:rgba(0,0,0,.54)}#chart-486cc5c4-0380-4272-80b4-dd43558231e3 .axis .major.line{stroke:rgba(0,0,0,.87)}#chart-486cc5c4-0380-4272-80b4-dd43558231e3 .axis text.major{fill:rgba(0,0,0,1)}#chart-486cc5c4-0380-4272-80b4-dd43558231e3 .axis.y .guides:hover .guide.line,#chart-486cc5c4-0380-4272-80b4-dd43558231e3 .line-graph .axis.x .guides:hover .guide.line,#chart-486cc5c4-0380-4272-80b4-dd43558231e3 .stackedline-graph .axis.x .guides:hover .guide.line,#chart-486cc5c4-0380-4272-80b4-dd43558231e3 .xy-graph .axis.x .guides:hover .guide.line{stroke:rgba(0,0,0,1)}#chart-486cc5c4-0380-4272-80b4-dd43558231e3 .axis .guides:hover text{fill:rgba(0,0,0,1)}#chart-486cc5c4-0380-4272-80b4-dd43558231e3 .reactive{fill-opacity:.7;stroke-opacity:.8;stroke-width:1}#chart-486cc5c4-0380-4272-80b4-dd43558231e3 .ci{stroke:rgba(0,0,0,.87)}#chart-486cc5c4-0380-4272-80b4-dd43558231e3 .reactive.active,#chart-486cc5c4-0380-4272-80b4-dd43558231e3 .active .reactive{fill-opacity:.8;stroke-opacity:.9;stroke-width:4}#chart-486cc5c4-0380-4272-80b4-dd43558231e3 .ci .reactive.active{stroke-width:1.5}#chart-486cc5c4-0380-4272-80b4-dd43558231e3 .series text{fill:rgba(0,0,0,1)}#chart-486cc5c4-0380-4272-80b4-dd43558231e3 .tooltip rect{fill:rgba(255,255,255,1);stroke:rgba(0,0,0,1);-webkit-transition:opacity 150ms;-moz-transition:opacity 150ms;transition:opacity 150ms}#chart-486cc5c4-0380-4272-80b4-dd43558231e3 .tooltip .label{fill:rgba(0,0,0,.87)}#chart-486cc5c4-0380-4272-80b4-dd43558231e3 .tooltip .label{fill:rgba(0,0,0,.87)}#chart-486cc5c4-0380-4272-80b4-dd43558231e3 .tooltip .legend{font-size:.8em;fill:rgba(0,0,0,.54)}#chart-486cc5c4-0380-4272-80b4-dd43558231e3 .tooltip .x_label{font-size:.6em;fill:rgba(0,0,0,1)}#chart-486cc5c4-0380-4272-80b4-dd43558231e3 .tooltip .xlink{font-size:.5em;text-decoration:underline}#chart-486cc5c4-0380-4272-80b4-dd43558231e3 .tooltip .value{font-size:1.5em}#chart-486cc5c4-0380-4272-80b4-dd43558231e3 .bound{font-size:.5em}#chart-486cc5c4-0380-4272-80b4-dd43558231e3 .max-value{font-size:.75em;fill:rgba(0,0,0,.54)}#chart-486cc5c4-0380-4272-80b4-dd43558231e3 .map-element{fill:rgba(255,255,255,1);stroke:rgba(0,0,0,.54) !important}#chart-486cc5c4-0380-4272-80b4-dd43558231e3 .map-element .reactive{fill-opacity:inherit;stroke-opacity:inherit}#chart-486cc5c4-0380-4272-80b4-dd43558231e3 .color-0,#chart-486cc5c4-0380-4272-80b4-dd43558231e3 .color-0 a:visited{stroke:#F44336;fill:#F44336}#chart-486cc5c4-0380-4272-80b4-dd43558231e3 .text-overlay .color-0 text{fill:black}
#chart-486cc5c4-0380-4272-80b4-dd43558231e3 text.no_data{text-anchor:middle}#chart-486cc5c4-0380-4272-80b4-dd43558231e3 .guide.line{fill:none}#chart-486cc5c4-0380-4272-80b4-dd43558231e3 .centered{text-anchor:middle}#chart-486cc5c4-0380-4272-80b4-dd43558231e3 .title{text-anchor:middle}#chart-486cc5c4-0380-4272-80b4-dd43558231e3 .legends .legend text{fill-opacity:1}#chart-486cc5c4-0380-4272-80b4-dd43558231e3 .axis.x text{text-anchor:middle}#chart-486cc5c4-0380-4272-80b4-dd43558231e3 .axis.x:not(.web) text[transform]{text-anchor:start}#chart-486cc5c4-0380-4272-80b4-dd43558231e3 .axis.x:not(.web) text[transform].backwards{text-anchor:end}#chart-486cc5c4-0380-4272-80b4-dd43558231e3 .axis.y text{text-anchor:end}#chart-486cc5c4-0380-4272-80b4-dd43558231e3 .axis.y text[transform].backwards{text-anchor:start}#chart-486cc5c4-0380-4272-80b4-dd43558231e3 .axis.y2 text{text-anchor:start}#chart-486cc5c4-0380-4272-80b4-dd43558231e3 .axis.y2 text[transform].backwards{text-anchor:end}#chart-486cc5c4-0380-4272-80b4-dd43558231e3 .axis .guide.line{stroke-dasharray:4,4;stroke:black}#chart-486cc5c4-0380-4272-80b4-dd43558231e3 .axis .major.guide.line{stroke-dasharray:6,6;stroke:black}#chart-486cc5c4-0380-4272-80b4-dd43558231e3 .horizontal .axis.y .guide.line,#chart-486cc5c4-0380-4272-80b4-dd43558231e3 .horizontal .axis.y2 .guide.line,#chart-486cc5c4-0380-4272-80b4-dd43558231e3 .vertical .axis.x .guide.line{opacity:0}#chart-486cc5c4-0380-4272-80b4-dd43558231e3 .horizontal .axis.always_show .guide.line,#chart-486cc5c4-0380-4272-80b4-dd43558231e3 .vertical .axis.always_show .guide.line{opacity:1 !important}#chart-486cc5c4-0380-4272-80b4-dd43558231e3 .axis.y .guides:hover .guide.line,#chart-486cc5c4-0380-4272-80b4-dd43558231e3 .axis.y2 .guides:hover .guide.line,#chart-486cc5c4-0380-4272-80b4-dd43558231e3 .axis.x .guides:hover .guide.line{opacity:1}#chart-486cc5c4-0380-4272-80b4-dd43558231e3 .axis .guides:hover text{opacity:1}#chart-486cc5c4-0380-4272-80b4-dd43558231e3 .nofill{fill:none}#chart-486cc5c4-0380-4272-80b4-dd43558231e3 .subtle-fill{fill-opacity:.2}#chart-486cc5c4-0380-4272-80b4-dd43558231e3 .dot{stroke-width:1px;fill-opacity:1;stroke-opacity:1}#chart-486cc5c4-0380-4272-80b4-dd43558231e3 .dot.active{stroke-width:5px}#chart-486cc5c4-0380-4272-80b4-dd43558231e3 .dot.negative{fill:transparent}#chart-486cc5c4-0380-4272-80b4-dd43558231e3 text,#chart-486cc5c4-0380-4272-80b4-dd43558231e3 tspan{stroke:none !important}#chart-486cc5c4-0380-4272-80b4-dd43558231e3 .series text.active{opacity:1}#chart-486cc5c4-0380-4272-80b4-dd43558231e3 .tooltip rect{fill-opacity:.95;stroke-width:.5}#chart-486cc5c4-0380-4272-80b4-dd43558231e3 .tooltip text{fill-opacity:1}#chart-486cc5c4-0380-4272-80b4-dd43558231e3 .showable{visibility:hidden}#chart-486cc5c4-0380-4272-80b4-dd43558231e3 .showable.shown{visibility:visible}#chart-486cc5c4-0380-4272-80b4-dd43558231e3 .gauge-background{fill:rgba(229,229,229,1);stroke:none}#chart-486cc5c4-0380-4272-80b4-dd43558231e3 .bg-lines{stroke:rgba(249,249,249,1);stroke-width:2px}</style><script type="text/javascript">window.pygal = window.pygal || {};window.pygal.config = window.pygal.config || {};window.pygal.config['486cc5c4-0380-4272-80b4-dd43558231e3'] = {"allow_interruptions": false, "box_mode": "extremes", "classes": ["pygal-chart", "pygal-sparkline"], "css": ["file://style.css", "file://graph.css"], "defs": [], "disable_xml_declaration": false, "dots_size": 2.5, "dynamic_print_values": false, "explicit_size": true, "fill": false, "force_uri_protocol": "https", "formatter": null, "half_pie": false, "height": 50, "include_x_axis": false, "inner_radius": 0, "interpolate": "cubic", "interpolation_parameters": {}, "interpolation_precision": 250, "inverse_y_axis": false, "js": [], "legend_at_bottom": false, "legend_at_bottom_columns": null, "legend_box_size": 12, "logarithmic": false, "margin": 10, "margin_bottom": null, "margin_left": null, "margin_right": null, "margin_top": null, "max_scale": 2, "min_scale": 1, "missing_value_fill_truncation": "x", "no_data_text": "", "no_prefix": false, "order_min": null, "pretty_print": false, "print_labels": false, "print_values": false, "print_values_position": "center", "print_zeroes": true, "range": null, "rounded_bars": null, "secondary_range": null, "show_dots": false, "show_legend": false, "show_minor_x_labels": true, "show_minor_y_labels": true, "show_only_major_dots": false, "show_x_guides": false, "show_x_labels": false, "show_y_guides": true, "show_y_labels": true, "spacing": 0, "stack_from_top": false, "strict": false, "stroke": true, "stroke_style": null, "style": {"background": "rgba(249, 249, 249, 1)", "ci_colors": [], "colors": ["#F44336", "#3F51B5", "#009688", "#FFC107", "#FF5722", "#9C27B0", "#03A9F4", "#8BC34A", "#FF9800", "#E91E63", "#2196F3", "#4CAF50", "#FFEB3B", "#673AB7", "#00BCD4", "#CDDC39", "#9E9E9E", "#607D8B"], "dot_opacity": "1", "font_family": "Consolas, \"Liberation Mono\", Menlo, Courier, monospace", "foreground": "rgba(0, 0, 0, .87)", "foreground_strong": "rgba(0, 0, 0, 1)", "foreground_subtle": "rgba(0, 0, 0, .54)", "guide_stroke_color": "black", "guide_stroke_dasharray": "4,4", "label_font_family": "Consolas, \"Liberation Mono\", Menlo, Courier, monospace", "label_font_size": 10, "legend_font_family": "Consolas, \"Liberation Mono\", Menlo, Courier, monospace", "legend_font_size": 14, "major_guide_stroke_color": "black", "major_guide_stroke_dasharray": "6,6", "major_label_font_family": "Consolas, \"Liberation Mono\", Menlo, Courier, monospace", "major_label_font_size": 10, "no_data_font_family": "Consolas, \"Liberation Mono\", Menlo, Courier, monospace", "no_data_font_size": 64, "opacity": ".7", "opacity_hover": ".8", "plot_background": "rgba(255, 255, 255, 1)", "stroke_opacity": ".8", "stroke_opacity_hover": ".9", "stroke_width": "1", "stroke_width_hover": "4", "title_font_family": "Consolas, \"Liberation Mono\", Menlo, Courier, monospace", "title_font_size": 16, "tooltip_font_family": "Consolas, \"Liberation Mono\", Menlo, Courier, monospace", "tooltip_font_size": 14, "transition": "150ms", "value_background": "rgba(229, 229, 229, 1)", "value_colors": [], "value_font_family": "Consolas, \"Liberation Mono\", Menlo, Courier, monospace", "value_font_size": 16, "value_label_font_family": "Consolas, \"Liberation Mono\", Menlo, Courier, monospace", "value_label_font_size": 10}, "title": null, "tooltip_border_radius": 0, "tooltip_fancy_mode": true, "truncate_label": null, "truncate_legend": null, "width": 200, "x_label_rotation": 0, "x_labels": ["2024/11", "2024/10", "2024/9", "2024/8"], "x_labels_major": null, "x_labels_major_count": null, "x_labels_major_every": null, "x_title": null, "xrange": null, "y_label_rotation": 0, "y_labels": null, "y_labels_major": null, "y_labels_major_count": null, "y_labels_major_every": null, "y_title": null, "zero": 0, "legends": [""]}</script></defs><title>Pygal</title><g class="graph line-graph vertical"><rect x="0" y="0" width="200" height="50" class="background" /><g transform="translate(76, 10)" class="plot"><rect x="0" y="0" width="114.0" height="30" class="background" /><g class="axis y always_show"><path d="M0.000000 30.000000 h114.000000" class="line" /><g class="guides"><path d="M0.000000 29.423077 h114.000000" class="guide line" /><text x="-5" y="32.92307692307692" class="">2.989155763</text><title>2.989155763</title></g><g class="guides"><path d="M0.000000 0.576923 h114.000000" class="guide line" /><text x="-5" y="4.076923076923084" class="">11</text><title>11</title></g></g><g class="series serie-0 color-0"><path d="M2.192308 0.576923 L2.338462 0.602850 2.484615 0.628778 2.630769 0.654710 2.776923 0.680646 2.923077 0.706590 3.069231 0.732541 3.215385 0.758503 3.361538 0.784476 3.507692 0.810462 3.653846 0.836464 3.800000 0.862482 3.946154 0.888518 4.092308 0.914574 4.238462 0.940651 4.384615 0.966752 4.530769 0.992878 4.676923 1.019030 4.823077 1.045211 4.969231 1.071421 5.115385 1.097663 5.261538 1.123938 5.407692 1.150248 5.553846 1.176595 5.700000 1.202980 5.846154 1.229404 5.992308 1.255870 6.138462 1.282379 6.284615 1.308933 6.430769 1.335533 6.576923 1.362182 6.723077 1.388880 6.869231 1.415630 7.015385 1.442432 7.161538 1.469290 7.307692 1.496204 7.453846 1.523176 7.600000 1.550208 7.746154 1.577301 7.892308 1.604457 8.038462 1.631678 8.184615 1.658965 8.330769 1.686321 8.476923 1.713746 8.623077 1.741242 8.769231 1.768811 8.915385 1.796455 9.061538 1.824176 9.207692 1.851974 9.353846 1.879852 9.500000 1.907811 9.646154 1.935854 9.792308 1.963980 9.938462 1.992194 10.084615 2.020495 10.230769 2.048885 10.376923 2.077367 10.523077 2.105942 10.669231 2.134612 10.815385 2.163378 10.961538 2.192241 11.107692 2.221204 11.253846 2.250269 11.400000 2.279436 11.546154 2.308708 11.692308 2.338086 11.838462 2.367572 11.984615 2.397167 12.130769 2.426874 12.276923 2.456693 12.423077 2.486627 12.569231 2.516677 12.715385 2.546845 12.861538 2.577132 13.007692 2.607540 13.153846 2.638071 13.300000 2.668727 13.446154 2.699509 13.592308 2.730418 13.738462 2.761457 13.884615 2.792627 14.030769 2.823930 14.176923 2.855367 14.323077 2.886940 14.469231 2.918651 14.615385 2.950502 14.761538 2.982493 14.907692 3.014627 15.053846 3.046906 15.200000 3.079330 15.346154 3.111902 15.492308 3.144624 15.638462 3.177496 15.784615 3.210521 15.930769 3.243701 16.076923 3.277036 16.223077 3.310529 16.369231 3.344181 16.515385 3.377995 16.661538 3.411971 16.807692 3.446111 16.953846 3.480417 17.100000 3.514890 17.246154 3.549533 17.392308 3.584347 17.538462 3.619334 17.684615 3.654494 17.830769 3.689831 17.976923 3.725345 18.123077 3.761038 18.269231 3.796912 18.415385 3.832969 18.561538 3.869210 18.707692 3.905636 18.853846 3.942250 19.000000 3.979054 19.146154 4.016048 19.292308 4.053234 19.438462 4.090615 19.584615 4.128192 19.730769 4.165966 19.876923 4.203939 20.023077 4.242113 20.169231 4.280489 20.315385 4.319069 20.461538 4.357856 20.607692 4.396849 20.753846 4.436052 20.900000 4.475465 21.046154 4.515091 21.192308 4.554931 21.338462 4.594986 21.484615 4.635259 21.630769 4.675751 21.776923 4.716464 21.923077 4.757399 22.069231 4.798558 22.215385 4.839942 22.361538 4.881554 22.507692 4.923395 22.653846 4.965467 22.800000 5.007770 22.946154 5.050308 23.092308 5.093082 23.238462 5.136092 23.384615 5.179342 23.530769 5.222832 23.676923 5.266565 23.823077 5.310541 23.969231 5.354763 24.115385 5.399232 24.261538 5.443951 24.407692 5.488919 24.553846 5.534140 24.700000 5.579615 24.846154 5.625345 24.992308 5.671333 25.138462 5.717579 25.284615 5.764086 25.430769 5.810855 25.576923 5.857888 25.723077 5.905186 25.869231 5.952751 26.015385 6.000586 26.161538 6.048690 26.307692 6.097067 26.453846 6.145718 26.600000 6.194644 26.746154 6.243847 26.892308 6.293329 27.038462 6.343091 27.184615 6.393136 27.330769 6.443464 27.476923 6.494078 27.623077 6.544978 27.769231 6.596168 27.915385 6.647647 28.061538 6.699419 28.207692 6.751485 28.353846 6.803845 28.500000 6.856503 28.646154 6.909460 28.792308 6.962717 28.938462 7.016275 29.084615 7.070138 29.230769 7.124306 29.376923 7.178780 29.523077 7.233564 29.669231 7.288657 29.815385 7.344063 29.961538 7.399782 30.107692 7.455817 30.253846 7.512168 30.400000 7.568838 30.546154 7.625828 30.692308 7.683140 30.838462 7.740776 30.984615 7.798737 31.130769 7.857025 31.276923 7.915641 31.423077 7.974588 31.569231 8.033866 31.715385 8.093478 31.861538 8.153425 32.007692 8.213709 32.153846 8.274331 32.300000 8.335294 32.446154 8.396598 32.592308 8.458246 32.738462 8.520239 32.884615 8.582579 33.030769 8.645267 33.176923 8.708305 33.323077 8.771696 33.469231 8.835439 33.615385 8.899538 33.761538 8.963993 33.907692 9.028807 34.053846 9.093981 34.200000 9.159516 34.346154 9.225415 34.492308 9.291679 34.638462 9.358310 34.784615 9.425309 34.930769 9.492678 35.076923 9.560419 35.223077 9.628533 35.369231 9.697022 35.515385 9.765888 35.661538 9.835132 35.807692 9.904756 35.953846 9.974762 36.100000 10.045151 36.246154 10.115924 36.392308 10.187085 36.538462 10.258634 36.684615 10.330573 36.830769 10.402903 36.976923 10.475627 37.123077 10.548745 37.269231 10.622260 37.415385 10.696173 37.561538 10.770487 37.707692 10.845201 37.853846 10.920319 38.000000 10.995842 38.146154 11.071772 38.292308 11.148109 38.438462 11.224857 38.584615 11.302015 38.730769 11.379587 38.876923 11.457573 39.023077 11.535968 39.169231 11.614767 39.315385 11.693964 39.461538 11.773553 39.607692 11.853530 39.753846 11.933889 39.900000 12.014623 40.046154 12.095728 40.192308 12.177199 40.338462 12.259028 40.484615 12.341212 40.630769 12.423744 40.776923 12.506619 40.923077 12.589832 41.069231 12.673376 41.215385 12.757246 41.361538 12.841438 41.507692 12.925945 41.653846 13.010761 41.800000 13.095882 41.946154 13.181301 42.092308 13.267013 42.238462 13.353013 42.384615 13.439295 42.530769 13.525854 42.676923 13.612684 42.823077 13.699779 42.969231 13.787134 43.115385 13.874744 43.261538 13.962602 43.407692 14.050704 43.553846 14.139044 43.700000 14.227615 43.846154 14.316414 43.992308 14.405434 44.138462 14.494670 44.284615 14.584116 44.430769 14.673766 44.576923 14.763616 44.723077 14.853659 44.869231 14.943890 45.015385 15.034304 45.161538 15.124895 45.307692 15.215657 45.453846 15.306585 45.600000 15.397673 45.746154 15.488917 45.892308 15.580310 46.038462 15.671846 46.184615 15.763521 46.330769 15.855328 46.476923 15.947263 46.623077 16.039320 46.769231 16.131492 46.915385 16.223775 47.061538 16.316164 47.207692 16.408652 47.353846 16.501234 47.500000 16.593904 47.646154 16.686657 47.792308 16.779488 47.938462 16.872391 48.084615 16.965360 48.230769 17.058390 48.376923 17.151475 48.523077 17.244610 48.669231 17.337789 48.815385 17.431007 48.961538 17.524258 49.107692 17.617537 49.253846 17.710838 49.400000 17.804155 49.546154 17.897484 49.692308 17.990818 49.838462 18.084152 49.984615 18.177481 50.130769 18.270798 50.276923 18.364099 50.423077 18.457378 50.569231 18.550629 50.715385 18.643847 50.861538 18.737026 51.007692 18.830161 51.153846 18.923246 51.300000 19.016276 51.446154 19.109245 51.592308 19.202148 51.738462 19.294979 51.884615 19.387732 52.030769 19.480403 52.176923 19.572984 52.323077 19.665472 52.469231 19.757861 52.615385 19.850144 52.761538 19.942316 52.907692 20.034373 53.053846 20.126308 53.200000 20.218115 53.346154 20.309790 53.492308 20.401327 53.638462 20.492719 53.784615 20.583963 53.930769 20.675051 54.076923 20.765979 54.223077 20.856741 54.369231 20.947332 54.515385 21.037746 54.661538 21.127977 54.807692 21.218020 54.953846 21.307870 55.100000 21.397520 55.246154 21.486966 55.392308 21.576202 55.538462 21.665222 55.684615 21.754021 55.830769 21.842593 55.976923 21.930932 56.123077 22.019034 56.269231 22.106892 56.415385 22.194502 56.561538 22.281857 56.707692 22.368952 56.853846 22.455782 57.000000 22.542341 57.146154 22.628623 57.292308 22.714623 57.438462 22.800335 57.584615 22.885754 57.730769 22.970875 57.876923 23.055692 58.023077 23.140198 58.169231 23.224390 58.315385 23.308260 58.461538 23.391805 58.607692 23.475017 58.753846 23.557892 58.900000 23.640424 59.046154 23.722608 59.192308 23.804437 59.338462 23.885908 59.484615 23.967013 59.630769 24.047747 59.776923 24.128106 59.923077 24.208083 60.069231 24.287672 60.215385 24.366869 60.361538 24.445668 60.507692 24.524063 60.653846 24.602049 60.800000 24.679619 60.946154 24.756770 61.092308 24.833495 61.238462 24.909788 61.384615 24.985644 61.530769 25.061058 61.676923 25.136024 61.823077 25.210536 61.969231 25.284589 62.115385 25.358178 62.261538 25.431296 62.407692 25.503939 62.553846 25.576100 62.700000 25.647775 62.846154 25.718958 62.992308 25.789642 63.138462 25.859824 63.284615 25.929497 63.430769 25.998655 63.576923 26.067293 63.723077 26.135406 63.869231 26.202988 64.015385 26.270033 64.161538 26.336537 64.307692 26.402493 64.453846 26.467895 64.600000 26.532740 64.746154 26.597019 64.892308 26.660730 65.038462 26.723865 65.184615 26.786419 65.330769 26.848387 65.476923 26.909763 65.623077 26.970542 65.769231 27.030718 65.915385 27.090286 66.061538 27.149239 66.207692 27.207573 66.353846 27.265283 66.500000 27.322361 66.646154 27.378804 66.792308 27.434605 66.938462 27.489759 67.084615 27.544260 67.230769 27.598103 67.376923 27.651282 67.523077 27.703792 67.669231 27.755627 67.815385 27.806782 67.961538 27.857251 68.107692 27.907029 68.253846 27.956110 68.400000 28.004489 68.546154 28.052159 68.692308 28.099116 68.838462 28.145354 68.984615 28.190867 69.130769 28.235651 69.276923 28.279698 69.423077 28.323005 69.569231 28.365565 69.715385 28.407372 69.861538 28.448422 70.007692 28.488709 70.153846 28.528227 70.300000 28.566970 70.446154 28.604934 70.592308 28.642112 70.738462 28.678499 70.884615 28.714090 71.030769 28.748879 71.176923 28.782860 71.323077 28.816028 71.469231 28.848378 71.615385 28.879904 71.761538 28.910600 71.907692 28.940460 72.053846 28.969480 72.200000 28.997654 72.346154 29.024976 72.492308 29.051441 72.638462 29.077043 72.784615 29.101776 72.930769 29.125636 73.076923 29.148616 73.223077 29.170712 73.369231 29.191916 73.515385 29.212225 73.661538 29.231632 73.807692 29.250133 73.953846 29.267720 74.100000 29.284390 74.246154 29.300135 74.392308 29.314952 74.538462 29.328834 74.684615 29.341775 74.830769 29.353771 74.976923 29.364815 75.123077 29.374903 75.269231 29.384028 75.415385 29.392187 75.561538 29.399382 75.707692 29.405616 75.853846 29.410895 76.000000 29.415220 76.146154 29.418598 76.292308 29.421030 76.438462 29.422522 76.584615 29.423077 76.730769 29.422699 76.876923 29.421391 77.023077 29.419159 77.169231 29.416004 77.315385 29.411932 77.461538 29.406947 77.607692 29.401052 77.753846 29.394250 77.900000 29.386547 78.046154 29.377945 78.192308 29.368449 78.338462 29.358063 78.484615 29.346790 78.630769 29.334634 78.776923 29.321599 78.923077 29.307689 79.069231 29.292908 79.215385 29.277260 79.361538 29.260749 79.507692 29.243378 79.653846 29.225151 79.800000 29.206073 79.946154 29.186146 80.092308 29.165376 80.238462 29.143766 80.384615 29.121319 80.530769 29.098040 80.676923 29.073932 80.823077 29.048999 80.969231 29.023246 81.115385 28.996676 81.261538 28.969293 81.407692 28.941101 81.553846 28.912103 81.700000 28.882304 81.846154 28.851707 81.992308 28.820317 82.138462 28.788137 82.284615 28.755171 82.430769 28.721422 82.576923 28.686896 82.723077 28.651595 82.869231 28.615524 83.015385 28.578686 83.161538 28.541086 83.307692 28.502727 83.453846 28.463612 83.600000 28.423747 83.746154 28.383134 83.892308 28.341778 84.038462 28.299683 84.184615 28.256851 84.330769 28.213288 84.476923 28.168998 84.623077 28.123983 84.769231 28.078248 84.915385 28.031797 85.061538 27.984633 85.207692 27.936761 85.353846 27.888185 85.500000 27.838907 85.646154 27.788933 85.792308 27.738265 85.938462 27.686909 86.084615 27.634867 86.230769 27.582144 86.376923 27.528743 86.523077 27.474668 86.669231 27.419924 86.815385 27.364514 86.961538 27.308442 87.107692 27.251711 87.253846 27.194326 87.400000 27.136291 87.546154 27.077609 87.692308 27.018285 87.838462 26.958322 87.984615 26.897723 88.130769 26.836494 88.276923 26.774637 88.423077 26.712158 88.569231 26.649058 88.715385 26.585343 88.861538 26.521017 89.007692 26.456082 89.153846 26.390543 89.300000 26.324405 89.446154 26.257670 89.592308 26.190343 89.738462 26.122427 89.884615 26.053927 90.030769 25.984846 90.176923 25.915188 90.323077 25.844957 90.469231 25.774157 90.615385 25.702791 90.761538 25.630864 90.907692 25.558380 91.053846 25.485342 91.200000 25.411754 91.346154 25.337621 91.492308 25.262945 91.638462 25.187731 91.784615 25.111983 91.930769 25.035705 92.076923 24.958900 92.223077 24.881572 92.369231 24.803725 92.515385 24.725364 92.661538 24.646491 92.807692 24.567111 92.953846 24.487228 93.100000 24.406846 93.246154 24.325968 93.392308 24.244598 93.538462 24.162740 93.684615 24.080399 93.830769 23.997577 93.976923 23.914279 94.123077 23.830509 94.269231 23.746270 94.415385 23.661567 94.561538 23.576403 94.707692 23.490782 94.853846 23.404708 95.000000 23.318185 95.146154 23.231217 95.292308 23.143807 95.438462 23.055960 95.584615 22.967679 95.730769 22.878969 95.876923 22.789833 96.023077 22.700274 96.169231 22.610298 96.315385 22.519907 96.461538 22.429106 96.607692 22.337898 96.753846 22.246288 96.900000 22.154278 97.046154 22.061874 97.192308 21.969079 97.338462 21.875897 97.484615 21.782331 97.630769 21.688386 97.776923 21.594066 97.923077 21.499374 98.069231 21.404314 98.215385 21.308890 98.361538 21.213106 98.507692 21.116965 98.653846 21.020473 98.800000 20.923632 98.946154 20.826446 99.092308 20.728920 99.238462 20.631057 99.384615 20.532861 99.530769 20.434335 99.676923 20.335485 99.823077 20.236313 99.969231 20.136824 100.115385 20.037021 100.261538 19.936909 100.407692 19.836490 100.553846 19.735770 100.700000 19.634751 100.846154 19.533438 100.992308 19.431835 101.138462 19.329946 101.284615 19.227773 101.430769 19.125322 101.576923 19.022596 101.723077 18.919599 101.869231 18.816335 102.015385 18.712808 102.161538 18.609021 102.307692 18.504979 102.453846 18.400685 102.600000 18.296143 102.746154 18.191357 102.892308 18.086332 103.038462 17.981070 103.184615 17.875576 103.330769 17.769853 103.476923 17.663906 103.623077 17.557738 103.769231 17.451353 103.915385 17.344756 104.061538 17.237949 104.207692 17.130937 104.353846 17.023724 104.500000 16.916313 104.646154 16.808709 104.792308 16.700915 104.938462 16.592935 105.084615 16.484773 105.230769 16.376433 105.376923 16.267919 105.523077 16.159235 105.669231 16.050384 105.815385 15.941370 105.961538 15.832198 106.107692 15.722871 106.253846 15.613393 106.400000 15.503767 106.546154 15.393999 106.692308 15.284091 106.838462 15.174048 106.984615 15.063872 107.130769 14.953570 107.276923 14.843143 107.423077 14.732596 107.569231 14.621933 107.715385 14.511158 107.861538 14.400275 108.007692 14.289286 108.153846 14.178198 108.300000 14.067012 108.446154 13.955734 108.592308 13.844366 108.738462 13.732913 108.884615 13.621379 109.030769 13.509768 109.176923 13.398083 109.323077 13.286328 109.469231 13.174508 109.615385 13.062625 109.761538 12.950685 109.907692 12.838690 110.053846 12.726645 110.200000 12.614553 110.346154 12.502419 110.492308 12.390246 110.638462 12.278039 110.784615 12.165800 110.930769 12.053534 111.076923 11.941245 111.223077 11.828937 111.369231 11.716613 111.515385 11.604278 111.661538 11.491935 111.807692 11.379587" class="line reactive nofill" /></g></g><g class="titles" /><g transform="translate(76, 10)" class="plot overlay"><g class="series serie-0 color-0" /></g><g transform="translate(76, 10)" class="plot text-overlay"><g class="series serie-0 color-0" /></g><g transform="translate(76, 10)" class="plot tooltip-overlay"><g transform="translate(0 0)" style="opacity: 0" class="tooltip"><rect rx="0" ry="0" width="0" height="0" class="tooltip-box" /><g class="text" /></g></g></g></svg>