<?xml version='1.0' encoding='utf-8'?>
<svg xmlns="http://www.w3.org/2000/svg" id="chart-3243d446-2814-4a4a-9999-8147eb1cf701" class="pygal-chart pygal-sparkline" viewBox="0 0 200 50" width="200" height="50"><!--Generated with pygal 3.0.4 (etree) ©Kozea 2012-2016 on 2024-06-30--><!--http://pygal.org--><!--http://github.com/Kozea/pygal--><defs><style type="text/css">#chart-3243d446-2814-4a4a-9999-8147eb1cf701{-webkit-user-select:none;-webkit-font-smoothing:antialiased;font-family:Consolas,"Liberation Mono",Menlo,Courier,monospace}#chart-3243d446-2814-4a4a-9999-8147eb1cf701 .title{font-family:Consolas,"Liberation Mono",Menlo,Courier,monospace;font-size:16px}#chart-3243d446-2814-4a4a-9999-8147eb1cf701 .legends .legend text{font-family:Consolas,"Liberation Mono",Menlo,Courier,monospace;font-size:14px}#chart-3243d446-2814-4a4a-9999-8147eb1cf701 .axis text{font-family:Consolas,"Liberation Mono",Menlo,Courier,monospace;font-size:10px}#chart-3243d446-2814-4a4a-9999-8147eb1cf701 .axis text.major{font-family:Consolas,"Liberation Mono",Menlo,Courier,monospace;font-size:10px}#chart-3243d446-2814-4a4a-9999-8147eb1cf701 .text-overlay text.value{font-family:Consolas,"Liberation Mono",Menlo,Courier,monospace;font-size:16px}#chart-3243d446-2814-4a4a-9999-8147eb1cf701 .text-overlay text.label{font-family:Consolas,"Liberation Mono",Menlo,Courier,monospace;font-size:10px}#chart-3243d446-2814-4a4a-9999-8147eb1cf701 .tooltip{font-family:Consolas,"Liberation Mono",Menlo,Courier,monospace;font-size:14px}#chart-3243d446-2814-4a4a-9999-8147eb1cf701 text.no_data{font-family:Consolas,"Liberation Mono",Menlo,Courier,monospace;font-size:64px}
#chart-3243d446-2814-4a4a-9999-8147eb1cf701{background-color:rgba(249,249,249,1)}#chart-3243d446-2814-4a4a-9999-8147eb1cf701 path,#chart-3243d446-2814-4a4a-9999-8147eb1cf701 line,#chart-3243d446-2814-4a4a-9999-8147eb1cf701 rect,#chart-3243d446-2814-4a4a-9999-8147eb1cf701 circle{-webkit-transition:150ms;-moz-transition:150ms;transition:150ms}#chart-3243d446-2814-4a4a-9999-8147eb1cf701 .graph &gt; .background{fill:rgba(249,249,249,1)}#chart-3243d446-2814-4a4a-9999-8147eb1cf701 .plot &gt; .background{fill:rgba(255,255,255,1)}#chart-3243d446-2814-4a4a-9999-8147eb1cf701 .graph{fill:rgba(0,0,0,.87)}#chart-3243d446-2814-4a4a-9999-8147eb1cf701 text.no_data{fill:rgba(0,0,0,1)}#chart-3243d446-2814-4a4a-9999-8147eb1cf701 .title{fill:rgba(0,0,0,1)}#chart-3243d446-2814-4a4a-9999-8147eb1cf701 .legends .legend text{fill:rgba(0,0,0,.87)}#chart-3243d446-2814-4a4a-9999-8147eb1cf701 .legends .legend:hover text{fill:rgba(0,0,0,1)}#chart-3243d446-2814-4a4a-9999-8147eb1cf701 .axis .line{stroke:rgba(0,0,0,1)}#chart-3243d446-2814-4a4a-9999-8147eb1cf701 .axis .guide.line{stroke:rgba(0,0,0,.54)}#chart-3243d446-2814-4a4a-9999-8147eb1cf701 .axis .major.line{stroke:rgba(0,0,0,.87)}#chart-3243d446-2814-4a4a-9999-8147eb1cf701 .axis text.major{fill:rgba(0,0,0,1)}#chart-3243d446-2814-4a4a-9999-8147eb1cf701 .axis.y .guides:hover .guide.line,#chart-3243d446-2814-4a4a-9999-8147eb1cf701 .line-graph .axis.x .guides:hover .guide.line,#chart-3243d446-2814-4a4a-9999-8147eb1cf701 .stackedline-graph .axis.x .guides:hover .guide.line,#chart-3243d446-2814-4a4a-9999-8147eb1cf701 .xy-graph .axis.x .guides:hover .guide.line{stroke:rgba(0,0,0,1)}#chart-3243d446-2814-4a4a-9999-8147eb1cf701 .axis .guides:hover text{fill:rgba(0,0,0,1)}#chart-3243d446-2814-4a4a-9999-8147eb1cf701 .reactive{fill-opacity:.7;stroke-opacity:.8;stroke-width:1}#chart-3243d446-2814-4a4a-9999-8147eb1cf701 .ci{stroke:rgba(0,0,0,.87)}#chart-3243d446-2814-4a4a-9999-8147eb1cf701 .reactive.active,#chart-3243d446-2814-4a4a-9999-8147eb1cf701 .active .reactive{fill-opacity:.8;stroke-opacity:.9;stroke-width:4}#chart-3243d446-2814-4a4a-9999-8147eb1cf701 .ci .reactive.active{stroke-width:1.5}#chart-3243d446-2814-4a4a-9999-8147eb1cf701 .series text{fill:rgba(0,0,0,1)}#chart-3243d446-2814-4a4a-9999-8147eb1cf701 .tooltip rect{fill:rgba(255,255,255,1);stroke:rgba(0,0,0,1);-webkit-transition:opacity 150ms;-moz-transition:opacity 150ms;transition:opacity 150ms}#chart-3243d446-2814-4a4a-9999-8147eb1cf701 .tooltip .label{fill:rgba(0,0,0,.87)}#chart-3243d446-2814-4a4a-9999-8147eb1cf701 .tooltip .label{fill:rgba(0,0,0,.87)}#chart-3243d446-2814-4a4a-9999-8147eb1cf701 .tooltip .legend{font-size:.8em;fill:rgba(0,0,0,.54)}#chart-3243d446-2814-4a4a-9999-8147eb1cf701 .tooltip .x_label{font-size:.6em;fill:rgba(0,0,0,1)}#chart-3243d446-2814-4a4a-9999-8147eb1cf701 .tooltip .xlink{font-size:.5em;text-decoration:underline}#chart-3243d446-2814-4a4a-9999-8147eb1cf701 .tooltip .value{font-size:1.5em}#chart-3243d446-2814-4a4a-9999-8147eb1cf701 .bound{font-size:.5em}#chart-3243d446-2814-4a4a-9999-8147eb1cf701 .max-value{font-size:.75em;fill:rgba(0,0,0,.54)}#chart-3243d446-2814-4a4a-9999-8147eb1cf701 .map-element{fill:rgba(255,255,255,1);stroke:rgba(0,0,0,.54) !important}#chart-3243d446-2814-4a4a-9999-8147eb1cf701 .map-element .reactive{fill-opacity:inherit;stroke-opacity:inherit}#chart-3243d446-2814-4a4a-9999-8147eb1cf701 .color-0,#chart-3243d446-2814-4a4a-9999-8147eb1cf701 .color-0 a:visited{stroke:#F44336;fill:#F44336}#chart-3243d446-2814-4a4a-9999-8147eb1cf701 .text-overlay .color-0 text{fill:black}
#chart-3243d446-2814-4a4a-9999-8147eb1cf701 text.no_data{text-anchor:middle}#chart-3243d446-2814-4a4a-9999-8147eb1cf701 .guide.line{fill:none}#chart-3243d446-2814-4a4a-9999-8147eb1cf701 .centered{text-anchor:middle}#chart-3243d446-2814-4a4a-9999-8147eb1cf701 .title{text-anchor:middle}#chart-3243d446-2814-4a4a-9999-8147eb1cf701 .legends .legend text{fill-opacity:1}#chart-3243d446-2814-4a4a-9999-8147eb1cf701 .axis.x text{text-anchor:middle}#chart-3243d446-2814-4a4a-9999-8147eb1cf701 .axis.x:not(.web) text[transform]{text-anchor:start}#chart-3243d446-2814-4a4a-9999-8147eb1cf701 .axis.x:not(.web) text[transform].backwards{text-anchor:end}#chart-3243d446-2814-4a4a-9999-8147eb1cf701 .axis.y text{text-anchor:end}#chart-3243d446-2814-4a4a-9999-8147eb1cf701 .axis.y text[transform].backwards{text-anchor:start}#chart-3243d446-2814-4a4a-9999-8147eb1cf701 .axis.y2 text{text-anchor:start}#chart-3243d446-2814-4a4a-9999-8147eb1cf701 .axis.y2 text[transform].backwards{text-anchor:end}#chart-3243d446-2814-4a4a-9999-8147eb1cf701 .axis .guide.line{stroke-dasharray:4,4;stroke:black}#chart-3243d446-2814-4a4a-9999-8147eb1cf701 .axis .major.guide.line{stroke-dasharray:6,6;stroke:black}#chart-3243d446-2814-4a4a-9999-8147eb1cf701 .horizontal .axis.y .guide.line,#chart-3243d446-2814-4a4a-9999-8147eb1cf701 .horizontal .axis.y2 .guide.line,#chart-3243d446-2814-4a4a-9999-8147eb1cf701 .vertical .axis.x .guide.line{opacity:0}#chart-3243d446-2814-4a4a-9999-8147eb1cf701 .horizontal .axis.always_show .guide.line,#chart-3243d446-2814-4a4a-9999-8147eb1cf701 .vertical .axis.always_show .guide.line{opacity:1 !important}#chart-3243d446-2814-4a4a-9999-8147eb1cf701 .axis.y .guides:hover .guide.line,#chart-3243d446-2814-4a4a-9999-8147eb1cf701 .axis.y2 .guides:hover .guide.line,#chart-3243d446-2814-4a4a-9999-8147eb1cf701 .axis.x .guides:hover .guide.line{opacity:1}#chart-3243d446-2814-4a4a-9999-8147eb1cf701 .axis .guides:hover text{opacity:1}#chart-3243d446-2814-4a4a-9999-8147eb1cf701 .nofill{fill:none}#chart-3243d446-2814-4a4a-9999-8147eb1cf701 .subtle-fill{fill-opacity:.2}#chart-3243d446-2814-4a4a-9999-8147eb1cf701 .dot{stroke-width:1px;fill-opacity:1;stroke-opacity:1}#chart-3243d446-2814-4a4a-9999-8147eb1cf701 .dot.active{stroke-width:5px}#chart-3243d446-2814-4a4a-9999-8147eb1cf701 .dot.negative{fill:transparent}#chart-3243d446-2814-4a4a-9999-8147eb1cf701 text,#chart-3243d446-2814-4a4a-9999-8147eb1cf701 tspan{stroke:none !important}#chart-3243d446-2814-4a4a-9999-8147eb1cf701 .series text.active{opacity:1}#chart-3243d446-2814-4a4a-9999-8147eb1cf701 .tooltip rect{fill-opacity:.95;stroke-width:.5}#chart-3243d446-2814-4a4a-9999-8147eb1cf701 .tooltip text{fill-opacity:1}#chart-3243d446-2814-4a4a-9999-8147eb1cf701 .showable{visibility:hidden}#chart-3243d446-2814-4a4a-9999-8147eb1cf701 .showable.shown{visibility:visible}#chart-3243d446-2814-4a4a-9999-8147eb1cf701 .gauge-background{fill:rgba(229,229,229,1);stroke:none}#chart-3243d446-2814-4a4a-9999-8147eb1cf701 .bg-lines{stroke:rgba(249,249,249,1);stroke-width:2px}</style><script type="text/javascript">window.pygal = window.pygal || {};window.pygal.config = window.pygal.config || {};window.pygal.config['3243d446-2814-4a4a-9999-8147eb1cf701'] = {"allow_interruptions": false, "box_mode": "extremes", "classes": ["pygal-chart", "pygal-sparkline"], "css": ["file://style.css", "file://graph.css"], "defs": [], "disable_xml_declaration": false, "dots_size": 2.5, "dynamic_print_values": false, "explicit_size": true, "fill": false, "force_uri_protocol": "https", "formatter": null, "half_pie": false, "height": 50, "include_x_axis": false, "inner_radius": 0, "interpolate": "cubic", "interpolation_parameters": {}, "interpolation_precision": 250, "inverse_y_axis": false, "js": [], "legend_at_bottom": false, "legend_at_bottom_columns": null, "legend_box_size": 12, "logarithmic": false, "margin": 10, "margin_bottom": null, "margin_left": null, "margin_right": null, "margin_top": null, "max_scale": 2, "min_scale": 1, "missing_value_fill_truncation": "x", "no_data_text": "", "no_prefix": false, "order_min": null, "pretty_print": false, "print_labels": false, "print_values": false, "print_values_position": "center", "print_zeroes": true, "range": null, "rounded_bars": null, "secondary_range": null, "show_dots": false, "show_legend": false, "show_minor_x_labels": true, "show_minor_y_labels": true, "show_only_major_dots": false, "show_x_guides": false, "show_x_labels": false, "show_y_guides": true, "show_y_labels": true, "spacing": 0, "stack_from_top": false, "strict": false, "stroke": true, "stroke_style": null, "style": {"background": "rgba(249, 249, 249, 1)", "ci_colors": [], "colors": ["#F44336", "#3F51B5", "#009688", "#FFC107", "#FF5722", "#9C27B0", "#03A9F4", "#8BC34A", "#FF9800", "#E91E63", "#2196F3", "#4CAF50", "#FFEB3B", "#673AB7", "#00BCD4", "#CDDC39", "#9E9E9E", "#607D8B"], "dot_opacity": "1", "font_family": "Consolas, \"Liberation Mono\", Menlo, Courier, monospace", "foreground": "rgba(0, 0, 0, .87)", "foreground_strong": "rgba(0, 0, 0, 1)", "foreground_subtle": "rgba(0, 0, 0, .54)", "guide_stroke_color": "black", "guide_stroke_dasharray": "4,4", "label_font_family": "Consolas, \"Liberation Mono\", Menlo, Courier, monospace", "label_font_size": 10, "legend_font_family": "Consolas, \"Liberation Mono\", Menlo, Courier, monospace", "legend_font_size": 14, "major_guide_stroke_color": "black", "major_guide_stroke_dasharray": "6,6", "major_label_font_family": "Consolas, \"Liberation Mono\", Menlo, Courier, monospace", "major_label_font_size": 10, "no_data_font_family": "Consolas, \"Liberation Mono\", Menlo, Courier, monospace", "no_data_font_size": 64, "opacity": ".7", "opacity_hover": ".8", "plot_background": "rgba(255, 255, 255, 1)", "stroke_opacity": ".8", "stroke_opacity_hover": ".9", "stroke_width": "1", "stroke_width_hover": "4", "title_font_family": "Consolas, \"Liberation Mono\", Menlo, Courier, monospace", "title_font_size": 16, "tooltip_font_family": "Consolas, \"Liberation Mono\", Menlo, Courier, monospace", "tooltip_font_size": 14, "transition": "150ms", "value_background": "rgba(229, 229, 229, 1)", "value_colors": [], "value_font_family": "Consolas, \"Liberation Mono\", Menlo, Courier, monospace", "value_font_size": 16, "value_label_font_family": "Consolas, \"Liberation Mono\", Menlo, Courier, monospace", "value_label_font_size": 10}, "title": null, "tooltip_border_radius": 0, "tooltip_fancy_mode": true, "truncate_label": null, "truncate_legend": null, "width": 200, "x_label_rotation": 0, "x_labels": ["2024/6", "2023/11", "2023/5", "2023/4", "2022/12", "2022/11", "2022/10", "2022/9"], "x_labels_major": null, "x_labels_major_count": null, "x_labels_major_every": null, "x_title": null, "xrange": null, "y_label_rotation": 0, "y_labels": null, "y_labels_major": null, "y_labels_major_count": null, "y_labels_major_every": null, "y_title": null, "zero": 0, "legends": [""]}</script></defs><title>Pygal</title><g class="graph line-graph vertical"><rect x="0" y="0" width="200" height="50" class="background" /><g transform="translate(20, 10)" class="plot"><rect x="0" y="0" width="170" height="30" class="background" /><g class="axis y always_show"><path d="M0.000000 30.000000 h170.000000" class="line" /><g class="guides"><path d="M0.000000 29.415277 h170.000000" class="guide line" /><text x="-5" y="32.91527704790329" class="">2</text><title>2</title></g><g class="guides"><path d="M0.000000 11.260870 h170.000000" class="guide line" /><text x="-5" y="14.760869736024183" class="">4</text><title>4</title></g></g><g class="series serie-0 color-0"><path d="M3.269231 20.338073 L3.362637 20.375554 3.456044 20.413031 3.549451 20.450501 3.642857 20.487960 3.736264 20.525405 3.829670 20.562831 3.923077 20.600237 4.016484 20.637617 4.109890 20.674968 4.203297 20.712286 4.296703 20.749569 4.390110 20.786812 4.483516 20.824012 4.576923 20.861166 4.670330 20.898269 4.763736 20.935317 4.857143 20.972309 4.950549 21.009239 5.043956 21.046104 5.137363 21.082901 5.230769 21.119626 5.324176 21.156276 5.417582 21.192846 5.510989 21.229334 5.604396 21.265735 5.697802 21.302046 5.791209 21.338264 5.884615 21.374384 5.978022 21.410404 6.071429 21.446320 6.164835 21.482127 6.258242 21.517823 6.351648 21.553404 6.445055 21.588866 6.538462 21.624206 6.631868 21.659420 6.725275 21.694504 6.818681 21.729455 6.912088 21.764269 7.005495 21.798944 7.098901 21.833474 7.192308 21.867856 7.285714 21.902088 7.379121 21.936165 7.472527 21.970083 7.565934 22.003840 7.659341 22.037431 7.752747 22.070852 7.846154 22.104102 7.939560 22.137175 8.032967 22.170067 8.126374 22.202777 8.219780 22.235299 8.313187 22.267631 8.406593 22.299768 8.500000 22.331708 8.593407 22.363446 8.686813 22.394979 8.780220 22.426303 8.873626 22.457415 8.967033 22.488310 9.060440 22.518987 9.153846 22.549440 9.247253 22.579667 9.340659 22.609663 9.434066 22.639426 9.527473 22.668951 9.620879 22.698235 9.714286 22.727274 9.807692 22.756065 9.901099 22.784604 9.994505 22.812888 10.087912 22.840913 10.181319 22.868675 10.274725 22.896170 10.368132 22.923396 10.461538 22.950348 10.554945 22.977024 10.648352 23.003418 10.741758 23.029529 10.835165 23.055351 10.928571 23.080882 11.021978 23.106118 11.115385 23.131056 11.208791 23.155691 11.302198 23.180020 11.395604 23.204040 11.489011 23.227746 11.582418 23.251137 11.675824 23.274206 11.769231 23.296952 11.862637 23.319371 11.956044 23.341459 12.049451 23.363212 12.142857 23.384626 12.236264 23.405699 12.329670 23.426427 12.423077 23.446805 12.516484 23.466831 12.609890 23.486500 12.703297 23.505810 12.796703 23.524756 12.890110 23.543336 12.983516 23.561544 13.076923 23.579379 13.170330 23.596836 13.263736 23.613911 13.357143 23.630601 13.450549 23.646903 13.543956 23.662812 13.637363 23.678326 13.730769 23.693440 13.824176 23.708151 13.917582 23.722456 14.010989 23.736351 14.104396 23.749831 14.197802 23.762894 14.291209 23.775537 14.384615 23.787754 14.478022 23.799544 14.571429 23.810902 14.664835 23.821824 14.758242 23.832307 14.851648 23.842348 14.945055 23.851943 15.038462 23.861088 15.131868 23.869779 15.225275 23.878014 15.318681 23.885787 15.412088 23.893097 15.505495 23.899939 15.598901 23.906310 15.692308 23.912205 15.785714 23.917623 15.879121 23.922558 15.972527 23.927007 16.065934 23.930967 16.159341 23.934433 16.252747 23.937404 16.346154 23.939874 16.439560 23.941840 16.532967 23.943299 16.626374 23.944247 16.719780 23.944681 16.813187 23.944597 16.906593 23.943990 17.000000 23.942859 17.093407 23.941198 17.186813 23.939005 17.280220 23.936276 17.373626 23.933007 17.467033 23.929194 17.560440 23.924835 17.653846 23.919925 17.747253 23.914462 17.840659 23.908440 17.934066 23.901857 18.027473 23.894709 18.120879 23.886993 18.214286 23.878704 18.307692 23.869840 18.401099 23.860397 18.494505 23.850370 18.587912 23.839757 18.681319 23.828554 18.774725 23.816758 18.868132 23.804364 18.961538 23.791369 19.054945 23.777769 19.148352 23.763562 19.241758 23.748743 19.335165 23.733308 19.428571 23.717255 19.521978 23.700579 19.615385 23.683277 19.708791 23.665345 19.802198 23.646781 19.895604 23.627579 19.989011 23.607736 20.082418 23.587250 20.175824 23.566116 20.269231 23.544331 20.362637 23.521891 20.456044 23.498792 20.549451 23.475031 20.642857 23.450605 20.736264 23.425509 20.829670 23.399741 20.923077 23.373296 21.016484 23.346170 21.109890 23.318362 21.203297 23.289866 21.296703 23.260679 21.390110 23.230798 21.483516 23.200218 21.576923 23.168937 21.670330 23.136951 21.763736 23.104256 21.857143 23.070849 21.950549 23.036725 22.043956 23.001882 22.137363 22.966315 22.230769 22.930022 22.324176 22.892999 22.417582 22.855241 22.510989 22.816745 22.604396 22.777509 22.697802 22.737527 22.791209 22.696798 22.884615 22.655316 22.978022 22.613078 23.071429 22.570081 23.164835 22.526322 23.258242 22.481796 23.351648 22.436500 23.445055 22.390430 23.538462 22.343584 23.631868 22.295956 23.725275 22.247544 23.818681 22.198344 23.912088 22.148352 24.005495 22.097566 24.098901 22.045980 24.192308 21.993592 24.285714 21.940398 24.379121 21.886394 24.472527 21.831577 24.565934 21.775944 24.659341 21.719490 24.752747 21.662212 24.846154 21.604106 24.939560 21.545170 25.032967 21.485398 25.126374 21.424788 25.219780 21.363336 25.313187 21.301039 25.406593 21.237892 25.500000 21.173893 25.593407 21.109037 25.686813 21.043321 25.780220 20.976742 25.873626 20.909295 25.967033 20.840978 26.060440 20.771786 26.153846 20.701717 26.247253 20.630766 26.340659 20.558929 26.434066 20.486204 26.527473 20.412587 26.620879 20.338073 26.714286 20.262663 26.807692 20.186364 26.901099 20.109187 26.994505 20.031144 27.087912 19.952246 27.181319 19.872503 27.274725 19.791927 27.368132 19.710528 27.461538 19.628318 27.554945 19.545307 27.648352 19.461507 27.741758 19.376929 27.835165 19.291583 27.928571 19.205481 28.021978 19.118634 28.115385 19.031053 28.208791 18.942748 28.302198 18.853732 28.395604 18.764013 28.489011 18.673605 28.582418 18.582518 28.675824 18.490762 28.769231 18.398350 28.862637 18.305291 28.956044 18.211597 29.049451 18.117279 29.142857 18.022349 29.236264 17.926816 29.329670 17.830692 29.423077 17.733988 29.516484 17.636715 29.609890 17.538884 29.703297 17.440507 29.796703 17.341593 29.890110 17.242155 29.983516 17.142202 30.076923 17.041747 30.170330 16.940800 30.263736 16.839372 30.357143 16.737475 30.450549 16.635118 30.543956 16.532314 30.637363 16.429073 30.730769 16.325407 30.824176 16.221326 30.917582 16.116841 31.010989 16.011963 31.104396 15.906704 31.197802 15.801075 31.291209 15.695085 31.384615 15.588747 31.478022 15.482072 31.571429 15.375070 31.664835 15.267753 31.758242 15.160131 31.851648 15.052215 31.945055 14.944017 32.038462 14.835548 32.131868 14.726818 32.225275 14.617839 32.318681 14.508622 32.412088 14.399177 32.505495 14.289516 32.598901 14.179650 32.692308 14.069589 32.785714 13.959345 32.879121 13.848929 32.972527 13.738351 33.065934 13.627624 33.159341 13.516757 33.252747 13.405762 33.346154 13.294650 33.439560 13.183431 33.532967 13.072118 33.626374 12.960720 33.719780 12.849250 33.813187 12.737717 33.906593 12.626133 34.000000 12.514510 34.093407 12.402857 34.186813 12.291186 34.280220 12.179509 34.373626 12.067835 34.467033 11.956177 34.560440 11.844545 34.653846 11.732949 34.747253 11.621402 34.840659 11.509914 34.934066 11.398497 35.027473 11.287160 35.120879 11.175916 35.214286 11.064775 35.307692 10.953748 35.401099 10.842847 35.494505 10.732081 35.587912 10.621463 35.681319 10.511004 35.774725 10.400714 35.868132 10.290604 35.961538 10.180686 36.054945 10.070970 36.148352 9.961467 36.241758 9.852189 36.335165 9.743146 36.428571 9.634350 36.521978 9.525812 36.615385 9.417542 36.708791 9.309551 36.802198 9.201851 36.895604 9.094453 36.989011 8.987368 37.082418 8.880606 37.175824 8.774178 37.269231 8.668096 37.362637 8.562371 37.456044 8.457014 37.549451 8.352036 37.642857 8.247447 37.736264 8.143259 37.829670 8.039483 37.923077 7.936129 38.016484 7.833210 38.109890 7.730735 38.203297 7.628716 38.296703 7.527164 38.390110 7.426090 38.483516 7.325505 38.576923 7.225420 38.670330 7.125846 38.763736 7.026794 38.857143 6.928275 38.950549 6.830299 39.043956 6.732879 39.137363 6.636025 39.230769 6.539748 39.324176 6.444060 39.417582 6.348970 39.510989 6.254490 39.604396 6.160632 39.697802 6.067406 39.791209 5.974823 39.884615 5.882894 39.978022 5.791631 40.071429 5.701044 40.164835 5.611144 40.258242 5.521942 40.351648 5.433450 40.445055 5.345678 40.538462 5.258637 40.631868 5.172339 40.725275 5.086795 40.818681 5.002014 40.912088 4.918009 41.005495 4.834791 41.098901 4.752370 41.192308 4.670758 41.285714 4.589965 41.379121 4.510002 41.472527 4.430882 41.565934 4.352613 41.659341 4.275209 41.752747 4.198679 41.846154 4.123034 41.939560 4.048287 42.032967 3.974447 42.126374 3.901525 42.219780 3.829534 42.313187 3.758483 42.406593 3.688384 42.500000 3.619248 42.593407 3.551085 42.686813 3.483908 42.780220 3.417726 42.873626 3.352551 42.967033 3.288394 43.060440 3.225266 43.153846 3.163177 43.247253 3.102140 43.340659 3.042165 43.434066 2.983262 43.527473 2.925444 43.620879 2.868721 43.714286 2.813103 43.807692 2.758603 43.901099 2.705231 43.994505 2.652998 44.087912 2.601915 44.181319 2.551993 44.274725 2.503243 44.368132 2.455677 44.461538 2.409305 44.554945 2.364138 44.648352 2.320187 44.741758 2.277463 44.835165 2.235978 44.928571 2.195742 45.021978 2.156766 45.115385 2.119062 45.208791 2.082640 45.302198 2.047511 45.395604 2.013687 45.489011 1.981178 45.582418 1.949996 45.675824 1.920151 45.769231 1.891654 45.862637 1.864517 45.956044 1.838751 46.049451 1.814366 46.142857 1.791373 46.236264 1.769785 46.329670 1.749610 46.423077 1.730862 46.516484 1.713550 46.609890 1.697685 46.703297 1.683280 46.796703 1.670344 46.890110 1.658888 46.983516 1.648925 47.076923 1.640464 47.170330 1.633517 47.263736 1.628095 47.357143 1.624208 47.450549 1.621869 47.543956 1.621087 47.637363 1.621874 47.730769 1.624241 47.824176 1.628199 47.917582 1.633759 48.010989 1.640932 48.104396 1.649728 48.197802 1.660160 48.291209 1.672238 48.384615 1.685973 48.478022 1.701375 48.571429 1.718457 48.664835 1.737229 48.758242 1.757702 48.851648 1.779887 48.945055 1.803796 49.038462 1.829438 49.131868 1.856826 49.225275 1.885970 49.318681 1.916881 49.412088 1.949570 49.505495 1.984049 49.598901 2.020327 49.692308 2.058418 49.785714 2.098330 49.879121 2.140076 49.972527 2.183666 50.065934 2.229107 50.159341 2.276387 50.252747 2.325491 50.346154 2.376402 50.439560 2.429103 50.532967 2.483580 50.626374 2.539816 50.719780 2.597794 50.813187 2.657499 50.906593 2.718915 51.000000 2.782026 51.093407 2.846814 51.186813 2.913266 51.280220 2.981363 51.373626 3.051091 51.467033 3.122433 51.560440 3.195373 51.653846 3.269895 51.747253 3.345983 51.840659 3.423621 51.934066 3.502793 52.027473 3.583482 52.120879 3.665673 52.214286 3.749349 52.307692 3.834495 52.401099 3.921094 52.494505 4.009130 52.587912 4.098588 52.681319 4.189451 52.774725 4.281702 52.868132 4.375327 52.961538 4.470309 53.054945 4.566631 53.148352 4.664278 53.241758 4.763234 53.335165 4.863482 53.428571 4.965006 53.521978 5.067791 53.615385 5.171821 53.708791 5.277078 53.802198 5.383548 53.895604 5.491214 53.989011 5.600059 54.082418 5.710069 54.175824 5.821226 54.269231 5.933515 54.362637 6.046920 54.456044 6.161425 54.549451 6.277012 54.642857 6.393668 54.736264 6.511374 54.829670 6.630116 54.923077 6.749877 55.016484 6.870641 55.109890 6.992392 55.203297 7.115114 55.296703 7.238790 55.390110 7.363406 55.483516 7.488944 55.576923 7.615389 55.670330 7.742724 55.763736 7.870934 55.857143 8.000002 55.950549 8.129912 56.043956 8.260649 56.137363 8.392195 56.230769 8.524536 56.324176 8.657655 56.417582 8.791535 56.510989 8.926161 56.604396 9.061517 56.697802 9.197587 56.791209 9.334354 56.884615 9.471802 56.978022 9.609916 57.071429 9.748679 57.164835 9.888076 57.258242 10.028089 57.351648 10.168704 57.445055 10.309904 57.538462 10.451672 57.631868 10.593993 57.725275 10.736851 57.818681 10.880230 57.912088 11.024113 58.005495 11.168485 58.098901 11.313329 58.192308 11.458629 58.285714 11.604370 58.379121 11.750535 58.472527 11.897107 58.565934 12.044072 58.659341 12.191413 58.752747 12.339114 58.846154 12.487158 58.939560 12.635530 59.032967 12.784214 59.126374 12.933193 59.219780 13.082451 59.313187 13.231973 59.406593 13.381742 59.500000 13.531743 59.593407 13.681958 59.686813 13.832372 59.780220 13.982970 59.873626 14.133734 59.967033 14.284649 60.060440 14.435699 60.153846 14.586867 60.247253 14.738138 60.340659 14.889495 60.434066 15.040923 60.527473 15.192405 60.620879 15.343925 60.714286 15.495468 60.807692 15.647016 60.901099 15.798554 60.994505 15.950067 61.087912 16.101537 61.181319 16.252948 61.274725 16.404286 61.368132 16.555533 61.461538 16.706673 61.554945 16.857691 61.648352 17.008570 61.741758 17.159294 61.835165 17.309848 61.928571 17.460215 62.021978 17.610378 62.115385 17.760323 62.208791 17.910032 62.302198 18.059490 62.395604 18.208681 62.489011 18.357588 62.582418 18.506196 62.675824 18.654488 62.769231 18.802449 62.862637 18.950062 62.956044 19.097311 63.049451 19.244180 63.142857 19.390653 63.236264 19.536714 63.329670 19.682347 63.423077 19.827536 63.516484 19.972264 63.609890 20.116516 63.703297 20.260276 63.796703 20.403527 63.890110 20.546253 63.983516 20.688439 64.076923 20.830068 64.170330 20.971124 64.263736 21.111591 64.357143 21.251453 64.450549 21.390694 64.543956 21.529298 64.637363 21.667248 64.730769 21.804529 64.824176 21.941125 64.917582 22.077019 65.010989 22.212195 65.104396 22.346638 65.197802 22.480331 65.291209 22.613258 65.384615 22.745404 65.478022 22.876751 65.571429 23.007284 65.664835 23.136987 65.758242 23.265844 65.851648 23.393838 65.945055 23.520954 66.038462 23.647176 66.131868 23.772487 66.225275 23.896871 66.318681 24.020312 66.412088 24.142795 66.505495 24.264303 66.598901 24.384820 66.692308 24.504329 66.785714 24.622816 66.879121 24.740263 66.972527 24.856655 67.065934 24.971976 67.159341 25.086209 67.252747 25.199339 67.346154 25.311349 67.439560 25.422223 67.532967 25.531945 67.626374 25.640500 67.719780 25.747871 67.813187 25.854041 67.906593 25.958996 68.000000 26.062718 68.093407 26.165192 68.186813 26.266402 68.280220 26.366331 68.373626 26.464964 68.467033 26.562284 68.560440 26.658275 68.653846 26.752922 68.747253 26.846207 68.840659 26.938116 68.934066 27.028632 69.027473 27.117739 69.120879 27.205420 69.214286 27.291661 69.307692 27.376444 69.401099 27.459753 69.494505 27.541573 69.587912 27.621888 69.681319 27.700680 69.774725 27.777935 69.868132 27.853637 69.961538 27.927768 70.054945 28.000313 70.148352 28.071256 70.241758 28.140582 70.335165 28.208272 70.428571 28.274313 70.521978 28.338687 70.615385 28.401379 70.708791 28.462372 70.802198 28.521650 70.895604 28.579198 70.989011 28.634999 71.082418 28.689037 71.175824 28.741297 71.269231 28.791761 71.362637 28.840414 71.456044 28.887239 71.549451 28.932222 71.642857 28.975345 71.736264 29.016593 71.829670 29.055949 71.923077 29.093397 72.016484 29.128922 72.109890 29.162507 72.203297 29.194136 72.296703 29.223794 72.390110 29.251463 72.483516 29.277128 72.576923 29.300773 72.670330 29.322382 72.763736 29.341938 72.857143 29.359426 72.950549 29.374830 73.043956 29.388133 73.137363 29.399319 73.230769 29.408372 73.324176 29.415277 73.417582 29.420022 73.510989 29.422617 73.604396 29.423077 73.697802 29.421417 73.791209 29.417652 73.884615 29.411797 73.978022 29.403866 74.071429 29.393876 74.164835 29.381840 74.258242 29.367774 74.351648 29.351693 74.445055 29.333611 74.538462 29.313545 74.631868 29.291507 74.725275 29.267515 74.818681 29.241581 74.912088 29.213723 75.005495 29.183953 75.098901 29.152289 75.192308 29.118743 75.285714 29.083332 75.379121 29.046070 75.472527 29.006973 75.565934 28.966055 75.659341 28.923331 75.752747 28.878816 75.846154 28.832525 75.939560 28.784473 76.032967 28.734676 76.126374 28.683147 76.219780 28.629902 76.313187 28.574957 76.406593 28.518325 76.500000 28.460022 76.593407 28.400063 76.686813 28.338463 76.780220 28.275236 76.873626 28.210398 76.967033 28.143964 77.060440 28.075948 77.153846 28.006366 77.247253 27.935233 77.340659 27.862563 77.434066 27.788372 77.527473 27.712674 77.620879 27.635484 77.714286 27.556818 77.807692 27.476691 77.901099 27.395116 77.994505 27.312110 78.087912 27.227687 78.181319 27.141862 78.274725 27.054650 78.368132 26.966067 78.461538 26.876127 78.554945 26.784844 78.648352 26.692235 78.741758 26.598313 78.835165 26.503095 78.928571 26.406594 79.021978 26.308827 79.115385 26.209807 79.208791 26.109550 79.302198 26.008070 79.395604 25.905384 79.489011 25.801505 79.582418 25.696448 79.675824 25.590230 79.769231 25.482863 79.862637 25.374365 79.956044 25.264749 80.049451 25.154030 80.142857 25.042224 80.236264 24.929345 80.329670 24.815408 80.423077 24.700429 80.516484 24.584422 80.609890 24.467402 80.703297 24.349384 80.796703 24.230384 80.890110 24.110415 80.983516 23.989494 81.076923 23.867635 81.170330 23.744853 81.263736 23.621162 81.357143 23.496579 81.450549 23.371117 81.543956 23.244793 81.637363 23.117620 81.730769 22.989614 81.824176 22.860790 81.917582 22.731162 82.010989 22.600746 82.104396 22.469557 82.197802 22.337609 82.291209 22.204918 82.384615 22.071499 82.478022 21.937365 82.571429 21.802534 82.664835 21.667018 82.758242 21.530835 82.851648 21.393997 82.945055 21.256521 83.038462 21.118421 83.131868 20.979712 83.225275 20.840409 83.318681 20.700528 83.412088 20.560082 83.505495 20.419088 83.598901 20.277560 83.692308 20.135512 83.785714 19.992961 83.879121 19.849921 83.972527 19.706406 84.065934 19.562433 84.159341 19.418015 84.252747 19.273168 84.346154 19.127906 84.439560 18.982246 84.532967 18.836201 84.626374 18.689786 84.719780 18.543018 84.813187 18.395909 84.906593 18.248477 85.000000 18.100734 85.093407 17.952698 85.186813 17.804381 85.280220 17.655800 85.373626 17.506970 85.467033 17.357904 85.560440 17.208619 85.653846 17.059129 85.747253 16.909449 85.840659 16.759595 85.934066 16.609580 86.027473 16.459421 86.120879 16.309131 86.214286 16.158727 86.307692 16.008222 86.401099 15.857633 86.494505 15.706973 86.587912 15.556258 86.681319 15.405503 86.774725 15.254723 86.868132 15.103932 86.961538 14.953147 87.054945 14.802380 87.148352 14.651649 87.241758 14.500967 87.335165 14.350349 87.428571 14.199812 87.521978 14.049368 87.615385 13.899034 87.708791 13.748824 87.802198 13.598754 87.895604 13.448838 87.989011 13.299092 88.082418 13.149529 88.175824 13.000166 88.269231 12.851017 88.362637 12.702097 88.456044 12.553421 88.549451 12.405004 88.642857 12.256862 88.736264 12.109008 88.829670 11.961458 88.923077 11.814227 89.016484 11.667330 89.109890 11.520782 89.203297 11.374598 89.296703 11.228792 89.390110 11.083380 89.483516 10.938377 89.576923 10.793798 89.670330 10.649657 89.763736 10.505969 89.857143 10.362751 89.950549 10.220015 90.043956 10.077779 90.137363 9.936055 90.230769 9.794860 90.324176 9.654209 90.417582 9.514115 90.510989 9.374595 90.604396 9.235663 90.697802 9.097335 90.791209 8.959624 90.884615 8.822547 90.978022 8.686118 91.071429 8.550352 91.164835 8.415263 91.258242 8.280868 91.351648 8.147181 91.445055 8.014217 91.538462 7.881990 91.631868 7.750517 91.725275 7.619811 91.818681 7.489888 91.912088 7.360762 92.005495 7.232450 92.098901 7.104965 92.192308 6.978322 92.285714 6.852538 92.379121 6.727625 92.472527 6.603600 92.565934 6.480478 92.659341 6.358273 92.752747 6.237001 92.846154 6.116676 92.939560 5.997313 93.032967 5.878927 93.126374 5.761534 93.219780 5.645148 93.313187 5.529784 93.406593 5.415457 93.500000 5.302182 93.593407 5.189974 93.686813 5.078849 93.780220 4.968820 93.873626 4.859903 93.967033 4.752113 94.060440 4.645465 94.153846 4.539974 94.247253 4.435654 94.340659 4.332522 94.434066 4.230591 94.527473 4.129877 94.620879 4.030394 94.714286 3.932158 94.807692 3.835183 94.901099 3.739486 94.994505 3.645079 95.087912 3.551979 95.181319 3.460201 95.274725 3.369758 95.368132 3.280668 95.461538 3.192943 95.554945 3.106600 95.648352 3.021653 95.741758 2.938117 95.835165 2.856007 95.928571 2.775339 96.021978 2.696126 96.115385 2.618385 96.208791 2.542129 96.302198 2.467375 96.395604 2.394136 96.489011 2.322429 96.582418 2.252267 96.675824 2.183666 96.769231 2.116637 96.862637 2.051175 96.956044 1.987270 97.049451 1.924915 97.142857 1.864100 97.236264 1.804816 97.329670 1.747055 97.423077 1.690806 97.516484 1.636063 97.609890 1.582814 97.703297 1.531053 97.796703 1.480769 97.890110 1.431954 97.983516 1.384599 98.076923 1.338695 98.170330 1.294233 98.263736 1.251204 98.357143 1.209600 98.450549 1.169411 98.543956 1.130628 98.637363 1.093242 98.730769 1.057246 98.824176 1.022629 98.917582 0.989383 99.010989 0.957498 99.104396 0.926967 99.197802 0.897780 99.291209 0.869927 99.384615 0.843401 99.478022 0.818193 99.571429 0.794292 99.664835 0.771691 99.758242 0.750381 99.851648 0.730352 99.945055 0.711596 100.038462 0.694104 100.131868 0.677867 100.225275 0.662876 100.318681 0.649122 100.412088 0.636596 100.505495 0.625289 100.598901 0.615192 100.692308 0.606297 100.785714 0.598595 100.879121 0.592076 100.972527 0.586732 101.065934 0.582553 101.159341 0.579531 101.252747 0.577658 101.346154 0.576923 101.439560 0.577319 101.532967 0.578835 101.626374 0.581464 101.719780 0.585196 101.813187 0.590023 101.906593 0.595935 102.000000 0.602924 102.093407 0.610981 102.186813 0.620096 102.280220 0.630262 102.373626 0.641468 102.467033 0.653706 102.560440 0.666968 102.653846 0.681244 102.747253 0.696525 102.840659 0.712802 102.934066 0.730067 103.027473 0.748311 103.120879 0.767524 103.214286 0.787698 103.307692 0.808824 103.401099 0.830892 103.494505 0.853895 103.587912 0.877823 103.681319 0.902667 103.774725 0.928418 103.868132 0.955068 103.961538 0.982607 104.054945 1.011027 104.148352 1.040318 104.241758 1.070472 104.335165 1.101480 104.428571 1.133333 104.521978 1.166021 104.615385 1.199537 104.708791 1.233871 104.802198 1.269014 104.895604 1.304957 104.989011 1.341692 105.082418 1.379209 105.175824 1.417500 105.269231 1.456556 105.362637 1.496367 105.456044 1.536925 105.549451 1.578221 105.642857 1.620246 105.736264 1.662991 105.829670 1.706447 105.923077 1.750606 106.016484 1.795457 106.109890 1.840994 106.203297 1.887205 106.296703 1.934084 106.390110 1.981620 106.483516 2.029805 106.576923 2.078630 106.670330 2.128085 106.763736 2.178163 106.857143 2.228854 106.950549 2.280149 107.043956 2.332040 107.137363 2.384516 107.230769 2.437571 107.324176 2.491194 107.417582 2.545376 107.510989 2.600109 107.604396 2.655384 107.697802 2.711192 107.791209 2.767524 107.884615 2.824371 107.978022 2.881724 108.071429 2.939575 108.164835 2.997914 108.258242 3.056732 108.351648 3.116021 108.445055 3.175771 108.538462 3.235974 108.631868 3.296621 108.725275 3.357702 108.818681 3.419210 108.912088 3.481135 109.005495 3.543467 109.098901 3.606199 109.192308 3.669321 109.285714 3.732825 109.379121 3.796701 109.472527 3.860941 109.565934 3.925535 109.659341 3.990475 109.752747 4.055752 109.846154 4.121357 109.939560 4.187280 110.032967 4.253514 110.126374 4.320049 110.219780 4.386876 110.313187 4.453987 110.406593 4.521371 110.500000 4.589022 110.593407 4.656929 110.686813 4.725084 110.780220 4.793477 110.873626 4.862100 110.967033 4.930944 111.060440 5.000001 111.153846 5.069260 111.247253 5.138714 111.340659 5.208352 111.434066 5.278168 111.527473 5.348150 111.620879 5.418291 111.714286 5.488582 111.807692 5.559014 111.901099 5.629577 111.994505 5.700263 112.087912 5.771064 112.181319 5.841969 112.274725 5.912970 112.368132 5.984059 112.461538 6.055226 112.554945 6.126462 112.648352 6.197759 112.741758 6.269107 112.835165 6.340499 112.928571 6.411923 113.021978 6.483373 113.115385 6.554839 113.208791 6.626311 113.302198 6.697782 113.395604 6.769242 113.489011 6.840682 113.582418 6.912094 113.675824 6.983468 113.769231 7.054795 113.862637 7.126067 113.956044 7.197275 114.049451 7.268410 114.142857 7.339462 114.236264 7.410424 114.329670 7.481285 114.423077 7.552038 114.516484 7.622673 114.609890 7.693181 114.703297 7.763554 114.796703 7.833782 114.890110 7.903856 114.983516 7.973769 115.076923 8.043510 115.170330 8.113071 115.263736 8.182442 115.357143 8.251616 115.450549 8.320583 115.543956 8.389334 115.637363 8.457860 115.730769 8.526153 115.824176 8.594203 115.917582 8.662002 116.010989 8.729540 116.104396 8.796809 116.197802 8.863800 116.291209 8.930503 116.384615 8.996911 116.478022 9.063013 116.571429 9.128802 116.664835 9.194268 116.758242 9.259402 116.851648 9.324196 116.945055 9.388640 117.038462 9.452725 117.131868 9.516443 117.225275 9.579785 117.318681 9.642742 117.412088 9.705305 117.505495 9.767465 117.598901 9.829212 117.692308 9.890539 117.785714 9.951437 117.879121 10.011895 117.972527 10.071906 118.065934 10.131461 118.159341 10.190550 118.252747 10.249164 118.346154 10.307296 118.439560 10.364935 118.532967 10.422074 118.626374 10.478702 118.719780 10.534811 118.813187 10.590393 118.906593 10.645438 119.000000 10.699937 119.093407 10.753882 119.186813 10.807264 119.280220 10.860073 119.373626 10.912300 119.467033 10.963938 119.560440 11.014976 119.653846 11.065407 119.747253 11.115220 119.840659 11.164408 119.934066 11.212961 120.027473 11.260870 120.120879 11.308128 120.214286 11.354738 120.307692 11.400701 120.401099 11.446021 120.494505 11.490702 120.587912 11.534747 120.681319 11.578159 120.774725 11.620940 120.868132 11.663096 120.961538 11.704628 121.054945 11.745540 121.148352 11.785836 121.241758 11.825518 121.335165 11.864590 121.428571 11.903055 121.521978 11.940916 121.615385 11.978177 121.708791 12.014841 121.802198 12.050911 121.895604 12.086391 121.989011 12.121283 122.082418 12.155591 122.175824 12.189318 122.269231 12.222468 122.362637 12.255043 122.456044 12.287048 122.549451 12.318484 122.642857 12.349357 122.736264 12.379668 122.829670 12.409421 122.923077 12.438619 123.016484 12.467266 123.109890 12.495365 123.203297 12.522918 123.296703 12.549931 123.390110 12.576404 123.483516 12.602343 123.576923 12.627750 123.670330 12.652628 123.763736 12.676981 123.857143 12.700812 123.950549 12.724124 124.043956 12.746920 124.137363 12.769204 124.230769 12.790979 124.324176 12.812249 124.417582 12.833016 124.510989 12.853283 124.604396 12.873055 124.697802 12.892334 124.791209 12.911124 124.884615 12.929427 124.978022 12.947248 125.071429 12.964588 125.164835 12.981453 125.258242 12.997844 125.351648 13.013766 125.445055 13.029221 125.538462 13.044212 125.631868 13.058744 125.725275 13.072818 125.818681 13.086439 125.912088 13.099610 126.005495 13.112334 126.098901 13.124614 126.192308 13.136453 126.285714 13.147856 126.379121 13.158824 126.472527 13.169362 126.565934 13.179472 126.659341 13.189158 126.752747 13.198423 126.846154 13.207270 126.939560 13.215703 127.032967 13.223725 127.126374 13.231339 127.219780 13.238549 127.313187 13.245357 127.406593 13.251767 127.500000 13.257782 127.593407 13.263406 127.686813 13.268641 127.780220 13.273492 127.873626 13.277960 127.967033 13.282050 128.060440 13.285765 128.153846 13.289108 128.247253 13.292082 128.340659 13.294691 128.434066 13.296937 128.527473 13.298825 128.620879 13.300357 128.714286 13.301536 128.807692 13.302367 128.901099 13.302851 128.994505 13.302993 129.087912 13.302796 129.181319 13.302262 129.274725 13.301396 129.368132 13.300200 129.461538 13.298678 129.554945 13.296833 129.648352 13.294668 129.741758 13.292187 129.835165 13.289392 129.928571 13.286287 130.021978 13.282876 130.115385 13.279161 130.208791 13.275146 130.302198 13.270834 130.395604 13.266228 130.489011 13.261332 130.582418 13.256149 130.675824 13.250682 130.769231 13.244934 130.862637 13.238909 130.956044 13.232610 131.049451 13.226040 131.142857 13.219203 131.236264 13.212101 131.329670 13.204738 131.423077 13.197118 131.516484 13.189243 131.609890 13.181116 131.703297 13.172742 131.796703 13.164123 131.890110 13.155263 131.983516 13.146164 132.076923 13.136830 132.170330 13.127265 132.263736 13.117471 132.357143 13.107453 132.450549 13.097212 132.543956 13.086753 132.637363 13.076078 132.730769 13.065191 132.824176 13.054095 132.917582 13.042794 133.010989 13.031291 133.104396 13.019588 133.197802 13.007690 133.291209 12.995599 133.384615 12.983319 133.478022 12.970853 133.571429 12.958205 133.664835 12.945376 133.758242 12.932372 133.851648 12.919195 133.945055 12.905848 134.038462 12.892334 134.131868 12.878658 134.225275 12.864821 134.318681 12.850828 134.412088 12.836682 134.505495 12.822385 134.598901 12.807942 134.692308 12.793355 134.785714 12.778628 134.879121 12.763763 134.972527 12.748765 135.065934 12.733637 135.159341 12.718381 135.252747 12.703001 135.346154 12.687501 135.439560 12.671883 135.532967 12.656150 135.626374 12.640307 135.719780 12.624356 135.813187 12.608301 135.906593 12.592145 136.000000 12.575890 136.093407 12.559542 136.186813 12.543101 136.280220 12.526573 136.373626 12.509960 136.467033 12.493265 136.560440 12.476492 136.653846 12.459644 136.747253 12.442724 136.840659 12.425735 136.934066 12.408682 137.027473 12.391566 137.120879 12.374392 137.214286 12.357162 137.307692 12.339880 137.401099 12.322548 137.494505 12.305172 137.587912 12.287753 137.681319 12.270294 137.774725 12.252800 137.868132 12.235273 137.961538 12.217717 138.054945 12.200135 138.148352 12.182530 138.241758 12.164905 138.335165 12.147264 138.428571 12.129610 138.521978 12.111946 138.615385 12.094276 138.708791 12.076602 138.802198 12.058928 138.895604 12.041258 138.989011 12.023594 139.082418 12.005940 139.175824 11.988299 139.269231 11.970674 139.362637 11.953069 139.456044 11.935487 139.549451 11.917931 139.642857 11.900404 139.736264 11.882910 139.829670 11.865451 139.923077 11.848032 140.016484 11.830655 140.109890 11.813324 140.203297 11.796042 140.296703 11.778812 140.390110 11.761638 140.483516 11.744522 140.576923 11.727469 140.670330 11.710480 140.763736 11.693560 140.857143 11.676712 140.950549 11.659939 141.043956 11.643244 141.137363 11.626631 141.230769 11.610103 141.324176 11.593662 141.417582 11.577313 141.510989 11.561059 141.604396 11.544903 141.697802 11.528848 141.791209 11.512897 141.884615 11.497054 141.978022 11.481321 142.071429 11.465703 142.164835 11.450203 142.258242 11.434823 142.351648 11.419567 142.445055 11.404439 142.538462 11.389441 142.631868 11.374576 142.725275 11.359849 142.818681 11.345262 142.912088 11.330819 143.005495 11.316522 143.098901 11.302376 143.192308 11.288383 143.285714 11.274546 143.379121 11.260870 143.472527 11.247356 143.565934 11.234004 143.659341 11.220814 143.752747 11.207786 143.846154 11.194918 143.939560 11.182210 144.032967 11.169661 144.126374 11.157270 144.219780 11.145038 144.313187 11.132963 144.406593 11.121044 144.500000 11.109282 144.593407 11.097675 144.686813 11.086222 144.780220 11.074924 144.873626 11.063778 144.967033 11.052786 145.060440 11.041945 145.153846 11.031256 145.247253 11.020718 145.340659 11.010330 145.434066 11.000091 145.527473 10.990001 145.620879 10.980059 145.714286 10.970265 145.807692 10.960618 145.901099 10.951116 145.994505 10.941761 146.087912 10.932550 146.181319 10.923483 146.274725 10.914560 146.368132 10.905780 146.461538 10.897142 146.554945 10.888645 146.648352 10.880290 146.741758 10.872075 146.835165 10.863999 146.928571 10.856063 147.021978 10.848265 147.115385 10.840604 147.208791 10.833081 147.302198 10.825694 147.395604 10.818443 147.489011 10.811327 147.582418 10.804345 147.675824 10.797497 147.769231 10.790783 147.862637 10.784200 147.956044 10.777750 148.049451 10.771430 148.142857 10.765242 148.236264 10.759183 148.329670 10.753253 148.423077 10.747452 148.516484 10.741779 148.609890 10.736233 148.703297 10.730813 148.796703 10.725520 148.890110 10.720352 148.983516 10.715308 149.076923 10.710389 149.170330 10.705592 149.263736 10.700919 149.357143 10.696367 149.450549 10.691937 149.543956 10.687628 149.637363 10.683439 149.730769 10.679369 149.824176 10.675418 149.917582 10.671585 150.010989 10.667869 150.104396 10.664271 150.197802 10.660788 150.291209 10.657421 150.384615 10.654169 150.478022 10.651031 150.571429 10.648007 150.664835 10.645095 150.758242 10.642296 150.851648 10.639608 150.945055 10.637031 151.038462 10.634565 151.131868 10.632208 151.225275 10.629960 151.318681 10.627821 151.412088 10.625789 151.505495 10.623864 151.598901 10.622046 151.692308 10.620333 151.785714 10.618725 151.879121 10.617222 151.972527 10.615823 152.065934 10.614526 152.159341 10.613332 152.252747 10.612240 152.346154 10.611249 152.439560 10.610359 152.532967 10.609568 152.626374 10.608877 152.719780 10.608284 152.813187 10.607789 152.906593 10.607391 153.000000 10.607090 153.093407 10.606885 153.186813 10.606775 153.280220 10.606760 153.373626 10.606838 153.467033 10.607010 153.560440 10.607275 153.653846 10.607631 153.747253 10.608079 153.840659 10.608618 153.934066 10.609247 154.027473 10.609965 154.120879 10.610772 154.214286 10.611667 154.307692 10.612649 154.401099 10.613719 154.494505 10.614874 154.587912 10.616115 154.681319 10.617441 154.774725 10.618851 154.868132 10.620344 154.961538 10.621920 155.054945 10.623579 155.148352 10.625319 155.241758 10.627140 155.335165 10.629041 155.428571 10.631022 155.521978 10.633082 155.615385 10.635220 155.708791 10.637436 155.802198 10.639729 155.895604 10.642098 155.989011 10.644543 156.082418 10.647063 156.175824 10.649658 156.269231 10.652326 156.362637 10.655067 156.456044 10.657880 156.549451 10.660766 156.642857 10.663722 156.736264 10.666749 156.829670 10.669846 156.923077 10.673012 157.016484 10.676247 157.109890 10.679549 157.203297 10.682919 157.296703 10.686355 157.390110 10.689857 157.483516 10.693425 157.576923 10.697057 157.670330 10.700752 157.763736 10.704512 157.857143 10.708334 157.950549 10.712217 158.043956 10.716163 158.137363 10.720168 158.230769 10.724234 158.324176 10.728360 158.417582 10.732544 158.510989 10.736786 158.604396 10.741085 158.697802 10.745442 158.791209 10.749854 158.884615 10.754322 158.978022 10.758845 159.071429 10.763422 159.164835 10.768052 159.258242 10.772736 159.351648 10.777471 159.445055 10.782258 159.538462 10.787096 159.631868 10.791984 159.725275 10.796922 159.818681 10.801909 159.912088 10.806944 160.005495 10.812026 160.098901 10.817156 160.192308 10.822332 160.285714 10.827554 160.379121 10.832820 160.472527 10.838132 160.565934 10.843486 160.659341 10.848884 160.752747 10.854324 160.846154 10.859807 160.939560 10.865330 161.032967 10.870893 161.126374 10.876497 161.219780 10.882139 161.313187 10.887820 161.406593 10.893539 161.500000 10.899295 161.593407 10.905088 161.686813 10.910917 161.780220 10.916781 161.873626 10.922679 161.967033 10.928611 162.060440 10.934577 162.153846 10.940575 162.247253 10.946605 162.340659 10.952667 162.434066 10.958759 162.527473 10.964881 162.620879 10.971033 162.714286 10.977213 162.807692 10.983422 162.901099 10.989657 162.994505 10.995920 163.087912 11.002209 163.181319 11.008523 163.274725 11.014862 163.368132 11.021225 163.461538 11.027611 163.554945 11.034020 163.648352 11.040452 163.741758 11.046905 163.835165 11.053379 163.928571 11.059873 164.021978 11.066387 164.115385 11.072920 164.208791 11.079471 164.302198 11.086039 164.395604 11.092625 164.489011 11.099227 164.582418 11.105844 164.675824 11.112477 164.769231 11.119124 164.862637 11.125784 164.956044 11.132458 165.049451 11.139144 165.142857 11.145842 165.236264 11.152551 165.329670 11.159270 165.423077 11.165999 165.516484 11.172738 165.609890 11.179484 165.703297 11.186239 165.796703 11.193001 165.890110 11.199769 165.983516 11.206543 166.076923 11.213323 166.170330 11.220107 166.263736 11.226894 166.357143 11.233686 166.450549 11.240479 166.543956 11.247275 166.637363 11.254072 166.730769 11.260870" class="line reactive nofill" /></g></g><g class="titles" /><g transform="translate(20, 10)" class="plot overlay"><g class="series serie-0 color-0" /></g><g transform="translate(20, 10)" class="plot text-overlay"><g class="series serie-0 color-0" /></g><g transform="translate(20, 10)" class="plot tooltip-overlay"><g transform="translate(0 0)" style="opacity: 0" class="tooltip"><rect rx="0" ry="0" width="0" height="0" class="tooltip-box" /><g class="text" /></g></g></g></svg>