<?xml version='1.0' encoding='utf-8'?>
<svg xmlns="http://www.w3.org/2000/svg" id="chart-cae34c79-902c-4c24-b1b8-c005fa6208c1" class="pygal-chart pygal-sparkline" viewBox="0 0 200 50" width="200" height="50"><!--Generated with pygal 3.0.5 (etree) ©Kozea 2012-2016 on 2024-11-07--><!--http://pygal.org--><!--http://github.com/Kozea/pygal--><defs><style type="text/css">#chart-cae34c79-902c-4c24-b1b8-c005fa6208c1{-webkit-user-select:none;-webkit-font-smoothing:antialiased;font-family:Consolas,"Liberation Mono",Menlo,Courier,monospace}#chart-cae34c79-902c-4c24-b1b8-c005fa6208c1 .title{font-family:Consolas,"Liberation Mono",Menlo,Courier,monospace;font-size:16px}#chart-cae34c79-902c-4c24-b1b8-c005fa6208c1 .legends .legend text{font-family:Consolas,"Liberation Mono",Menlo,Courier,monospace;font-size:14px}#chart-cae34c79-902c-4c24-b1b8-c005fa6208c1 .axis text{font-family:Consolas,"Liberation Mono",Menlo,Courier,monospace;font-size:10px}#chart-cae34c79-902c-4c24-b1b8-c005fa6208c1 .axis text.major{font-family:Consolas,"Liberation Mono",Menlo,Courier,monospace;font-size:10px}#chart-cae34c79-902c-4c24-b1b8-c005fa6208c1 .text-overlay text.value{font-family:Consolas,"Liberation Mono",Menlo,Courier,monospace;font-size:16px}#chart-cae34c79-902c-4c24-b1b8-c005fa6208c1 .text-overlay text.label{font-family:Consolas,"Liberation Mono",Menlo,Courier,monospace;font-size:10px}#chart-cae34c79-902c-4c24-b1b8-c005fa6208c1 .tooltip{font-family:Consolas,"Liberation Mono",Menlo,Courier,monospace;font-size:14px}#chart-cae34c79-902c-4c24-b1b8-c005fa6208c1 text.no_data{font-family:Consolas,"Liberation Mono",Menlo,Courier,monospace;font-size:64px}
#chart-cae34c79-902c-4c24-b1b8-c005fa6208c1{background-color:rgba(249,249,249,1)}#chart-cae34c79-902c-4c24-b1b8-c005fa6208c1 path,#chart-cae34c79-902c-4c24-b1b8-c005fa6208c1 line,#chart-cae34c79-902c-4c24-b1b8-c005fa6208c1 rect,#chart-cae34c79-902c-4c24-b1b8-c005fa6208c1 circle{-webkit-transition:150ms;-moz-transition:150ms;transition:150ms}#chart-cae34c79-902c-4c24-b1b8-c005fa6208c1 .graph &gt; .background{fill:rgba(249,249,249,1)}#chart-cae34c79-902c-4c24-b1b8-c005fa6208c1 .plot &gt; .background{fill:rgba(255,255,255,1)}#chart-cae34c79-902c-4c24-b1b8-c005fa6208c1 .graph{fill:rgba(0,0,0,.87)}#chart-cae34c79-902c-4c24-b1b8-c005fa6208c1 text.no_data{fill:rgba(0,0,0,1)}#chart-cae34c79-902c-4c24-b1b8-c005fa6208c1 .title{fill:rgba(0,0,0,1)}#chart-cae34c79-902c-4c24-b1b8-c005fa6208c1 .legends .legend text{fill:rgba(0,0,0,.87)}#chart-cae34c79-902c-4c24-b1b8-c005fa6208c1 .legends .legend:hover text{fill:rgba(0,0,0,1)}#chart-cae34c79-902c-4c24-b1b8-c005fa6208c1 .axis .line{stroke:rgba(0,0,0,1)}#chart-cae34c79-902c-4c24-b1b8-c005fa6208c1 .axis .guide.line{stroke:rgba(0,0,0,.54)}#chart-cae34c79-902c-4c24-b1b8-c005fa6208c1 .axis .major.line{stroke:rgba(0,0,0,.87)}#chart-cae34c79-902c-4c24-b1b8-c005fa6208c1 .axis text.major{fill:rgba(0,0,0,1)}#chart-cae34c79-902c-4c24-b1b8-c005fa6208c1 .axis.y .guides:hover .guide.line,#chart-cae34c79-902c-4c24-b1b8-c005fa6208c1 .line-graph .axis.x .guides:hover .guide.line,#chart-cae34c79-902c-4c24-b1b8-c005fa6208c1 .stackedline-graph .axis.x .guides:hover .guide.line,#chart-cae34c79-902c-4c24-b1b8-c005fa6208c1 .xy-graph .axis.x .guides:hover .guide.line{stroke:rgba(0,0,0,1)}#chart-cae34c79-902c-4c24-b1b8-c005fa6208c1 .axis .guides:hover text{fill:rgba(0,0,0,1)}#chart-cae34c79-902c-4c24-b1b8-c005fa6208c1 .reactive{fill-opacity:.7;stroke-opacity:.8;stroke-width:1}#chart-cae34c79-902c-4c24-b1b8-c005fa6208c1 .ci{stroke:rgba(0,0,0,.87)}#chart-cae34c79-902c-4c24-b1b8-c005fa6208c1 .reactive.active,#chart-cae34c79-902c-4c24-b1b8-c005fa6208c1 .active .reactive{fill-opacity:.8;stroke-opacity:.9;stroke-width:4}#chart-cae34c79-902c-4c24-b1b8-c005fa6208c1 .ci .reactive.active{stroke-width:1.5}#chart-cae34c79-902c-4c24-b1b8-c005fa6208c1 .series text{fill:rgba(0,0,0,1)}#chart-cae34c79-902c-4c24-b1b8-c005fa6208c1 .tooltip rect{fill:rgba(255,255,255,1);stroke:rgba(0,0,0,1);-webkit-transition:opacity 150ms;-moz-transition:opacity 150ms;transition:opacity 150ms}#chart-cae34c79-902c-4c24-b1b8-c005fa6208c1 .tooltip .label{fill:rgba(0,0,0,.87)}#chart-cae34c79-902c-4c24-b1b8-c005fa6208c1 .tooltip .label{fill:rgba(0,0,0,.87)}#chart-cae34c79-902c-4c24-b1b8-c005fa6208c1 .tooltip .legend{font-size:.8em;fill:rgba(0,0,0,.54)}#chart-cae34c79-902c-4c24-b1b8-c005fa6208c1 .tooltip .x_label{font-size:.6em;fill:rgba(0,0,0,1)}#chart-cae34c79-902c-4c24-b1b8-c005fa6208c1 .tooltip .xlink{font-size:.5em;text-decoration:underline}#chart-cae34c79-902c-4c24-b1b8-c005fa6208c1 .tooltip .value{font-size:1.5em}#chart-cae34c79-902c-4c24-b1b8-c005fa6208c1 .bound{font-size:.5em}#chart-cae34c79-902c-4c24-b1b8-c005fa6208c1 .max-value{font-size:.75em;fill:rgba(0,0,0,.54)}#chart-cae34c79-902c-4c24-b1b8-c005fa6208c1 .map-element{fill:rgba(255,255,255,1);stroke:rgba(0,0,0,.54) !important}#chart-cae34c79-902c-4c24-b1b8-c005fa6208c1 .map-element .reactive{fill-opacity:inherit;stroke-opacity:inherit}#chart-cae34c79-902c-4c24-b1b8-c005fa6208c1 .color-0,#chart-cae34c79-902c-4c24-b1b8-c005fa6208c1 .color-0 a:visited{stroke:#F44336;fill:#F44336}#chart-cae34c79-902c-4c24-b1b8-c005fa6208c1 .text-overlay .color-0 text{fill:black}
#chart-cae34c79-902c-4c24-b1b8-c005fa6208c1 text.no_data{text-anchor:middle}#chart-cae34c79-902c-4c24-b1b8-c005fa6208c1 .guide.line{fill:none}#chart-cae34c79-902c-4c24-b1b8-c005fa6208c1 .centered{text-anchor:middle}#chart-cae34c79-902c-4c24-b1b8-c005fa6208c1 .title{text-anchor:middle}#chart-cae34c79-902c-4c24-b1b8-c005fa6208c1 .legends .legend text{fill-opacity:1}#chart-cae34c79-902c-4c24-b1b8-c005fa6208c1 .axis.x text{text-anchor:middle}#chart-cae34c79-902c-4c24-b1b8-c005fa6208c1 .axis.x:not(.web) text[transform]{text-anchor:start}#chart-cae34c79-902c-4c24-b1b8-c005fa6208c1 .axis.x:not(.web) text[transform].backwards{text-anchor:end}#chart-cae34c79-902c-4c24-b1b8-c005fa6208c1 .axis.y text{text-anchor:end}#chart-cae34c79-902c-4c24-b1b8-c005fa6208c1 .axis.y text[transform].backwards{text-anchor:start}#chart-cae34c79-902c-4c24-b1b8-c005fa6208c1 .axis.y2 text{text-anchor:start}#chart-cae34c79-902c-4c24-b1b8-c005fa6208c1 .axis.y2 text[transform].backwards{text-anchor:end}#chart-cae34c79-902c-4c24-b1b8-c005fa6208c1 .axis .guide.line{stroke-dasharray:4,4;stroke:black}#chart-cae34c79-902c-4c24-b1b8-c005fa6208c1 .axis .major.guide.line{stroke-dasharray:6,6;stroke:black}#chart-cae34c79-902c-4c24-b1b8-c005fa6208c1 .horizontal .axis.y .guide.line,#chart-cae34c79-902c-4c24-b1b8-c005fa6208c1 .horizontal .axis.y2 .guide.line,#chart-cae34c79-902c-4c24-b1b8-c005fa6208c1 .vertical .axis.x .guide.line{opacity:0}#chart-cae34c79-902c-4c24-b1b8-c005fa6208c1 .horizontal .axis.always_show .guide.line,#chart-cae34c79-902c-4c24-b1b8-c005fa6208c1 .vertical .axis.always_show .guide.line{opacity:1 !important}#chart-cae34c79-902c-4c24-b1b8-c005fa6208c1 .axis.y .guides:hover .guide.line,#chart-cae34c79-902c-4c24-b1b8-c005fa6208c1 .axis.y2 .guides:hover .guide.line,#chart-cae34c79-902c-4c24-b1b8-c005fa6208c1 .axis.x .guides:hover .guide.line{opacity:1}#chart-cae34c79-902c-4c24-b1b8-c005fa6208c1 .axis .guides:hover text{opacity:1}#chart-cae34c79-902c-4c24-b1b8-c005fa6208c1 .nofill{fill:none}#chart-cae34c79-902c-4c24-b1b8-c005fa6208c1 .subtle-fill{fill-opacity:.2}#chart-cae34c79-902c-4c24-b1b8-c005fa6208c1 .dot{stroke-width:1px;fill-opacity:1;stroke-opacity:1}#chart-cae34c79-902c-4c24-b1b8-c005fa6208c1 .dot.active{stroke-width:5px}#chart-cae34c79-902c-4c24-b1b8-c005fa6208c1 .dot.negative{fill:transparent}#chart-cae34c79-902c-4c24-b1b8-c005fa6208c1 text,#chart-cae34c79-902c-4c24-b1b8-c005fa6208c1 tspan{stroke:none !important}#chart-cae34c79-902c-4c24-b1b8-c005fa6208c1 .series text.active{opacity:1}#chart-cae34c79-902c-4c24-b1b8-c005fa6208c1 .tooltip rect{fill-opacity:.95;stroke-width:.5}#chart-cae34c79-902c-4c24-b1b8-c005fa6208c1 .tooltip text{fill-opacity:1}#chart-cae34c79-902c-4c24-b1b8-c005fa6208c1 .showable{visibility:hidden}#chart-cae34c79-902c-4c24-b1b8-c005fa6208c1 .showable.shown{visibility:visible}#chart-cae34c79-902c-4c24-b1b8-c005fa6208c1 .gauge-background{fill:rgba(229,229,229,1);stroke:none}#chart-cae34c79-902c-4c24-b1b8-c005fa6208c1 .bg-lines{stroke:rgba(249,249,249,1);stroke-width:2px}</style><script type="text/javascript">window.pygal = window.pygal || {};window.pygal.config = window.pygal.config || {};window.pygal.config['cae34c79-902c-4c24-b1b8-c005fa6208c1'] = {"allow_interruptions": false, "box_mode": "extremes", "classes": ["pygal-chart", "pygal-sparkline"], "css": ["file://style.css", "file://graph.css"], "defs": [], "disable_xml_declaration": false, "dots_size": 2.5, "dynamic_print_values": false, "explicit_size": true, "fill": false, "force_uri_protocol": "https", "formatter": null, "half_pie": false, "height": 50, "include_x_axis": false, "inner_radius": 0, "interpolate": "cubic", "interpolation_parameters": {}, "interpolation_precision": 250, "inverse_y_axis": false, "js": [], "legend_at_bottom": false, "legend_at_bottom_columns": null, "legend_box_size": 12, "logarithmic": false, "margin": 10, "margin_bottom": null, "margin_left": null, "margin_right": null, "margin_top": null, "max_scale": 2, "min_scale": 1, "missing_value_fill_truncation": "x", "no_data_text": "", "no_prefix": false, "order_min": null, "pretty_print": false, "print_labels": false, "print_values": false, "print_values_position": "center", "print_zeroes": true, "range": null, "rounded_bars": null, "secondary_range": null, "show_dots": false, "show_legend": false, "show_minor_x_labels": true, "show_minor_y_labels": true, "show_only_major_dots": false, "show_x_guides": false, "show_x_labels": false, "show_y_guides": true, "show_y_labels": true, "spacing": 0, "stack_from_top": false, "strict": false, "stroke": true, "stroke_style": null, "style": {"background": "rgba(249, 249, 249, 1)", "ci_colors": [], "colors": ["#F44336", "#3F51B5", "#009688", "#FFC107", "#FF5722", "#9C27B0", "#03A9F4", "#8BC34A", "#FF9800", "#E91E63", "#2196F3", "#4CAF50", "#FFEB3B", "#673AB7", "#00BCD4", "#CDDC39", "#9E9E9E", "#607D8B"], "dot_opacity": "1", "font_family": "Consolas, \"Liberation Mono\", Menlo, Courier, monospace", "foreground": "rgba(0, 0, 0, .87)", "foreground_strong": "rgba(0, 0, 0, 1)", "foreground_subtle": "rgba(0, 0, 0, .54)", "guide_stroke_color": "black", "guide_stroke_dasharray": "4,4", "label_font_family": "Consolas, \"Liberation Mono\", Menlo, Courier, monospace", "label_font_size": 10, "legend_font_family": "Consolas, \"Liberation Mono\", Menlo, Courier, monospace", "legend_font_size": 14, "major_guide_stroke_color": "black", "major_guide_stroke_dasharray": "6,6", "major_label_font_family": "Consolas, \"Liberation Mono\", Menlo, Courier, monospace", "major_label_font_size": 10, "no_data_font_family": "Consolas, \"Liberation Mono\", Menlo, Courier, monospace", "no_data_font_size": 64, "opacity": ".7", "opacity_hover": ".8", "plot_background": "rgba(255, 255, 255, 1)", "stroke_opacity": ".8", "stroke_opacity_hover": ".9", "stroke_width": "1", "stroke_width_hover": "4", "title_font_family": "Consolas, \"Liberation Mono\", Menlo, Courier, monospace", "title_font_size": 16, "tooltip_font_family": "Consolas, \"Liberation Mono\", Menlo, Courier, monospace", "tooltip_font_size": 14, "transition": "150ms", "value_background": "rgba(229, 229, 229, 1)", "value_colors": [], "value_font_family": "Consolas, \"Liberation Mono\", Menlo, Courier, monospace", "value_font_size": 16, "value_label_font_family": "Consolas, \"Liberation Mono\", Menlo, Courier, monospace", "value_label_font_size": 10}, "title": null, "tooltip_border_radius": 0, "tooltip_fancy_mode": true, "truncate_label": null, "truncate_legend": null, "width": 200, "x_label_rotation": 0, "x_labels": ["2024/11", "2024/10", "2024/9", "2024/8"], "x_labels_major": null, "x_labels_major_count": null, "x_labels_major_every": null, "x_title": null, "xrange": null, "y_label_rotation": 0, "y_labels": null, "y_labels_major": null, "y_labels_major_count": null, "y_labels_major_every": null, "y_title": null, "zero": 0, "legends": [""]}</script></defs><title>Pygal</title><g class="graph line-graph vertical"><rect x="0" y="0" width="200" height="50" class="background" /><g transform="translate(58, 10)" class="plot"><rect x="0" y="0" width="132.0" height="30" class="background" /><g class="axis y always_show"><path d="M0.000000 30.000000 h132.000000" class="line" /><g class="guides"><path d="M0.000000 29.423077 h132.000000" class="guide line" /><text x="-5" y="32.92307692307692" class="">4.849312</text><title>4.849312</title></g><g class="guides"><path d="M0.000000 0.576923 h132.000000" class="guide line" /><text x="-5" y="4.0769230769230695" class="">13</text><title>13</title></g></g><g class="series serie-0 color-0"><path d="M2.538462 25.350669 L2.707692 25.366713 2.876923 25.382757 3.046154 25.398800 3.215385 25.414843 3.384615 25.430885 3.553846 25.446927 3.723077 25.462967 3.892308 25.479006 4.061538 25.495043 4.230769 25.511079 4.400000 25.527113 4.569231 25.543145 4.738462 25.559174 4.907692 25.575202 5.076923 25.591227 5.246154 25.607249 5.415385 25.623268 5.584615 25.639284 5.753846 25.655297 5.923077 25.671307 6.092308 25.687313 6.261538 25.703315 6.430769 25.719313 6.600000 25.735307 6.769231 25.751296 6.938462 25.767281 7.107692 25.783262 7.276923 25.799237 7.446154 25.815207 7.615385 25.831172 7.784615 25.847132 7.953846 25.863086 8.123077 25.879034 8.292308 25.894977 8.461538 25.910913 8.630769 25.926843 8.800000 25.942766 8.969231 25.958682 9.138462 25.974592 9.307692 25.990495 9.476923 26.006390 9.646154 26.022278 9.815385 26.038158 9.984615 26.054031 10.153846 26.069895 10.323077 26.085752 10.492308 26.101600 10.661538 26.117439 10.830769 26.133270 11.000000 26.149092 11.169231 26.164905 11.338462 26.180708 11.507692 26.196503 11.676923 26.212287 11.846154 26.228062 12.015385 26.243827 12.184615 26.259582 12.353846 26.275326 12.523077 26.291060 12.692308 26.306783 12.861538 26.322495 13.030769 26.338197 13.200000 26.353887 13.369231 26.369565 13.538462 26.385232 13.707692 26.400888 13.876923 26.416531 14.046154 26.432162 14.215385 26.447781 14.384615 26.463387 14.553846 26.478981 14.723077 26.494562 14.892308 26.510129 15.061538 26.525684 15.230769 26.541225 15.400000 26.556752 15.569231 26.572266 15.738462 26.587766 15.907692 26.603251 16.076923 26.618723 16.246154 26.634180 16.415385 26.649622 16.584615 26.665049 16.753846 26.680461 16.923077 26.695858 17.092308 26.711240 17.261538 26.726606 17.430769 26.741956 17.600000 26.757291 17.769231 26.772609 17.938462 26.787911 18.107692 26.803196 18.276923 26.818465 18.446154 26.833717 18.615385 26.848952 18.784615 26.864169 18.953846 26.879369 19.123077 26.894552 19.292308 26.909717 19.461538 26.924864 19.630769 26.939993 19.800000 26.955103 19.969231 26.970195 20.138462 26.985269 20.307692 27.000323 20.476923 27.015359 20.646154 27.030375 20.815385 27.045372 20.984615 27.060350 21.153846 27.075307 21.323077 27.090245 21.492308 27.105162 21.661538 27.120060 21.830769 27.134937 22.000000 27.149793 22.169231 27.164628 22.338462 27.179442 22.507692 27.194235 22.676923 27.209007 22.846154 27.223757 23.015385 27.238486 23.184615 27.253192 23.353846 27.267876 23.523077 27.282538 23.692308 27.297178 23.861538 27.311795 24.030769 27.326389 24.200000 27.340960 24.369231 27.355508 24.538462 27.370033 24.707692 27.384534 24.876923 27.399011 25.046154 27.413464 25.215385 27.427893 25.384615 27.442298 25.553846 27.456679 25.723077 27.471035 25.892308 27.485366 26.061538 27.499672 26.230769 27.513953 26.400000 27.528208 26.569231 27.542438 26.738462 27.556642 26.907692 27.570820 27.076923 27.584973 27.246154 27.599098 27.415385 27.613198 27.584615 27.627271 27.753846 27.641317 27.923077 27.655336 28.092308 27.669327 28.261538 27.683292 28.430769 27.697229 28.600000 27.711138 28.769231 27.725019 28.938462 27.738872 29.107692 27.752697 29.276923 27.766494 29.446154 27.780262 29.615385 27.794001 29.784615 27.807711 29.953846 27.821392 30.123077 27.835043 30.292308 27.848665 30.461538 27.862257 30.630769 27.875820 30.800000 27.889352 30.969231 27.902854 31.138462 27.916326 31.307692 27.929766 31.476923 27.943177 31.646154 27.956556 31.815385 27.969904 31.984615 27.983220 32.153846 27.996506 32.323077 28.009759 32.492308 28.022980 32.661538 28.036170 32.830769 28.049327 33.000000 28.062452 33.169231 28.075544 33.338462 28.088603 33.507692 28.101630 33.676923 28.114623 33.846154 28.127583 34.015385 28.140509 34.184615 28.153402 34.353846 28.166260 34.523077 28.179085 34.692308 28.191876 34.861538 28.204632 35.030769 28.217353 35.200000 28.230040 35.369231 28.242691 35.538462 28.255308 35.707692 28.267889 35.876923 28.280434 36.046154 28.292944 36.215385 28.305418 36.384615 28.317856 36.553846 28.330258 36.723077 28.342623 36.892308 28.354952 37.061538 28.367244 37.230769 28.379499 37.400000 28.391717 37.569231 28.403897 37.738462 28.416040 37.907692 28.428146 38.076923 28.440213 38.246154 28.452243 38.415385 28.464234 38.584615 28.476186 38.753846 28.488101 38.923077 28.499976 39.092308 28.511812 39.261538 28.523610 39.430769 28.535368 39.600000 28.547086 39.769231 28.558765 39.938462 28.570404 40.107692 28.582003 40.276923 28.593561 40.446154 28.605079 40.615385 28.616557 40.784615 28.627994 40.953846 28.639390 41.123077 28.650745 41.292308 28.662058 41.461538 28.673330 41.630769 28.684560 41.800000 28.695749 41.969231 28.706895 42.138462 28.717999 42.307692 28.729061 42.476923 28.740080 42.646154 28.751057 42.815385 28.761990 42.984615 28.772880 43.153846 28.783727 43.323077 28.794531 43.492308 28.805291 43.661538 28.816007 43.830769 28.826679 44.000000 28.837307 44.169231 28.847890 44.338462 28.858429 44.507692 28.868923 44.676923 28.879372 44.846154 28.889776 45.015385 28.900134 45.184615 28.910446 45.353846 28.920708 45.523077 28.930920 45.692308 28.941079 45.861538 28.951184 46.030769 28.961232 46.200000 28.971223 46.369231 28.981154 46.538462 28.991023 46.707692 29.000829 46.876923 29.010569 47.046154 29.020243 47.215385 29.029847 47.384615 29.039381 47.553846 29.048843 47.723077 29.058230 47.892308 29.067541 48.061538 29.076774 48.230769 29.085927 48.400000 29.094999 48.569231 29.103988 48.738462 29.112891 48.907692 29.121708 49.076923 29.130435 49.246154 29.139072 49.415385 29.147617 49.584615 29.156067 49.753846 29.164422 49.923077 29.172678 50.092308 29.180835 50.261538 29.188890 50.430769 29.196842 50.600000 29.204689 50.769231 29.212429 50.938462 29.220061 51.107692 29.227581 51.276923 29.234990 51.446154 29.242284 51.615385 29.249463 51.784615 29.256523 51.953846 29.263464 52.123077 29.270284 52.292308 29.276980 52.461538 29.283551 52.630769 29.289996 52.800000 29.296311 52.969231 29.302497 53.138462 29.308550 53.307692 29.314469 53.476923 29.320252 53.646154 29.325897 53.815385 29.331403 53.984615 29.336768 54.153846 29.341989 54.323077 29.347065 54.492308 29.351995 54.661538 29.356776 54.830769 29.361407 55.000000 29.365885 55.169231 29.370209 55.338462 29.374378 55.507692 29.378389 55.676923 29.382240 55.846154 29.385930 56.015385 29.389458 56.184615 29.392820 56.353846 29.396015 56.523077 29.399042 56.692308 29.401899 56.861538 29.404583 57.030769 29.407094 57.200000 29.409429 57.369231 29.411586 57.538462 29.413564 57.707692 29.415360 57.876923 29.416974 58.046154 29.418403 58.215385 29.419645 58.384615 29.420699 58.553846 29.421562 58.723077 29.422233 58.892308 29.422711 59.061538 29.422993 59.230769 29.423077 59.400000 29.422962 59.569231 29.422646 59.738462 29.422127 59.907692 29.421403 60.076923 29.420472 60.246154 29.419333 60.415385 29.417984 60.584615 29.416423 60.753846 29.414648 60.923077 29.412658 61.092308 29.410450 61.261538 29.408023 61.430769 29.405374 61.600000 29.402503 61.769231 29.399407 61.938462 29.396085 62.107692 29.392534 62.276923 29.388754 62.446154 29.384741 62.615385 29.380494 62.784615 29.376012 62.953846 29.371293 63.123077 29.366334 63.292308 29.361135 63.461538 29.355692 63.630769 29.350005 63.800000 29.344072 63.969231 29.337890 64.138462 29.331458 64.307692 29.324775 64.476923 29.317837 64.646154 29.310645 64.815385 29.303194 64.984615 29.295485 65.153846 29.287515 65.323077 29.279282 65.492308 29.270785 65.661538 29.262021 65.830769 29.252989 66.000000 29.243687 66.169231 29.234113 66.338462 29.224265 66.507692 29.214143 66.676923 29.203742 66.846154 29.193063 67.015385 29.182103 67.184615 29.170861 67.353846 29.159333 67.523077 29.147520 67.692308 29.135418 67.861538 29.123027 68.030769 29.110344 68.200000 29.097367 68.369231 29.084095 68.538462 29.070525 68.707692 29.056657 68.876923 29.042488 69.046154 29.028016 69.215385 29.013240 69.384615 28.998158 69.553846 28.982767 69.723077 28.967067 69.892308 28.951055 70.061538 28.934730 70.230769 28.918089 70.400000 28.901131 70.569231 28.883854 70.738462 28.866257 70.907692 28.848337 71.076923 28.830093 71.246154 28.811522 71.415385 28.792624 71.584615 28.773395 71.753846 28.753835 71.923077 28.733942 72.092308 28.713714 72.261538 28.693148 72.430769 28.672244 72.600000 28.650999 72.769231 28.629411 72.938462 28.607479 73.107692 28.585201 73.276923 28.562575 73.446154 28.539600 73.615385 28.516273 73.784615 28.492592 73.953846 28.468557 74.123077 28.444164 74.292308 28.419413 74.461538 28.394301 74.630769 28.368827 74.800000 28.342988 74.969231 28.316784 75.138462 28.290211 75.307692 28.263269 75.476923 28.235956 75.646154 28.208269 75.815385 28.180207 75.984615 28.151768 76.153846 28.122951 76.323077 28.093753 76.492308 28.064172 76.661538 28.034208 76.830769 28.003857 77.000000 27.973119 77.169231 27.941991 77.338462 27.910472 77.507692 27.878560 77.676923 27.846252 77.846154 27.813548 78.015385 27.780445 78.184615 27.746942 78.353846 27.713036 78.523077 27.678726 78.692308 27.644010 78.861538 27.608887 79.030769 27.573354 79.200000 27.537410 79.369231 27.501053 79.538462 27.464281 79.707692 27.427091 79.876923 27.389484 80.046154 27.351456 80.215385 27.313006 80.384615 27.274131 80.553846 27.234831 80.723077 27.195104 80.892308 27.154947 81.061538 27.114358 81.230769 27.073337 81.400000 27.031880 81.569231 26.989987 81.738462 26.947656 81.907692 26.904884 82.076923 26.861670 82.246154 26.818012 82.415385 26.773908 82.584615 26.729357 82.753846 26.684356 82.923077 26.638904 83.092308 26.592999 83.261538 26.546640 83.430769 26.499823 83.600000 26.452549 83.769231 26.404814 83.938462 26.356616 84.107692 26.307956 84.276923 26.258829 84.446154 26.209235 84.615385 26.159171 84.784615 26.108637 84.953846 26.057629 85.123077 26.006147 85.292308 25.954188 85.461538 25.901751 85.630769 25.848833 85.800000 25.795434 85.969231 25.741551 86.138462 25.687182 86.307692 25.632326 86.476923 25.576980 86.646154 25.521144 86.815385 25.464814 86.984615 25.407990 87.153846 25.350669 87.323077 25.292851 87.492308 25.234537 87.661538 25.175728 87.830769 25.116426 88.000000 25.056635 88.169231 24.996355 88.338462 24.935589 88.507692 24.874338 88.676923 24.812605 88.846154 24.750392 89.015385 24.687700 89.184615 24.624532 89.353846 24.560889 89.523077 24.496774 89.692308 24.432189 89.861538 24.367135 90.030769 24.301615 90.200000 24.235631 90.369231 24.169184 90.538462 24.102276 90.707692 24.034911 90.876923 23.967088 91.046154 23.898812 91.215385 23.830082 91.384615 23.760903 91.553846 23.691275 91.723077 23.621200 91.892308 23.550681 92.061538 23.479719 92.230769 23.408317 92.400000 23.336476 92.569231 23.264199 92.738462 23.191488 92.907692 23.118343 93.076923 23.044769 93.246154 22.970765 93.415385 22.896336 93.584615 22.821481 93.753846 22.746204 93.923077 22.670507 94.092308 22.594391 94.261538 22.517858 94.430769 22.440911 94.600000 22.363551 94.769231 22.285780 94.938462 22.207601 95.107692 22.129016 95.276923 22.050025 95.446154 21.970632 95.615385 21.890839 95.784615 21.810647 95.953846 21.730058 96.123077 21.649074 96.292308 21.567698 96.461538 21.485931 96.630769 21.403775 96.800000 21.321233 96.969231 21.238306 97.138462 21.154997 97.307692 21.071306 97.476923 20.987237 97.646154 20.902791 97.815385 20.817971 97.984615 20.732778 98.153846 20.647214 98.323077 20.561281 98.492308 20.474981 98.661538 20.388317 98.830769 20.301290 99.000000 20.213902 99.169231 20.126156 99.338462 20.038053 99.507692 19.949594 99.676923 19.860783 99.846154 19.771622 100.015385 19.682111 100.184615 19.592254 100.353846 19.502052 100.523077 19.411507 100.692308 19.320621 100.861538 19.229396 101.030769 19.137834 101.200000 19.045938 101.369231 18.953709 101.538462 18.861148 101.707692 18.768259 101.876923 18.675043 102.046154 18.581502 102.215385 18.487639 102.384615 18.393454 102.553846 18.298950 102.723077 18.204130 102.892308 18.108994 103.061538 18.013546 103.230769 17.917787 103.400000 17.821718 103.569231 17.725343 103.738462 17.628663 103.907692 17.531680 104.076923 17.434396 104.246154 17.336813 104.415385 17.238932 104.584615 17.140757 104.753846 17.042289 104.923077 16.943530 105.092308 16.844482 105.261538 16.745147 105.430769 16.645527 105.600000 16.545623 105.769231 16.445439 105.938462 16.344976 106.107692 16.244235 106.276923 16.143220 106.446154 16.041931 106.615385 15.940372 106.784615 15.838543 106.953846 15.736447 107.123077 15.634086 107.292308 15.531462 107.461538 15.428577 107.630769 15.325433 107.800000 15.222032 107.969231 15.118375 108.138462 15.014466 108.307692 14.910305 108.476923 14.805895 108.646154 14.701238 108.815385 14.596336 108.984615 14.491190 109.153846 14.385804 109.323077 14.280178 109.492308 14.174315 109.661538 14.068217 109.830769 13.961885 110.000000 13.855323 110.169231 13.748531 110.338462 13.641512 110.507692 13.534268 110.676923 13.426800 110.846154 13.319111 111.015385 13.211203 111.184615 13.103078 111.353846 12.994737 111.523077 12.886184 111.692308 12.777418 111.861538 12.668444 112.030769 12.559262 112.200000 12.449875 112.369231 12.340285 112.538462 12.230493 112.707692 12.120502 112.876923 12.010314 113.046154 11.899931 113.215385 11.789354 113.384615 11.678585 113.553846 11.567628 113.723077 11.456483 113.892308 11.345152 114.061538 11.233638 114.230769 11.121943 114.400000 11.010069 114.569231 10.898017 114.738462 10.785789 114.907692 10.673389 115.076923 10.560816 115.246154 10.448075 115.415385 10.335166 115.584615 10.222091 115.753846 10.108853 115.923077 9.995454 116.092308 9.881895 116.261538 9.768179 116.430769 9.654307 116.600000 9.540282 116.769231 9.426105 116.938462 9.311779 117.107692 9.197305 117.276923 9.082686 117.446154 8.967923 117.615385 8.853019 117.784615 8.737975 117.953846 8.622794 118.123077 8.507477 118.292308 8.392027 118.461538 8.276445 118.630769 8.160733 118.800000 8.044894 118.969231 7.928930 119.138462 7.812841 119.307692 7.696632 119.476923 7.580302 119.646154 7.463855 119.815385 7.347293 119.984615 7.230616 120.153846 7.113829 120.323077 6.996931 120.492308 6.879926 120.661538 6.762815 120.830769 6.645601 121.000000 6.528285 121.169231 6.410869 121.338462 6.293356 121.507692 6.175747 121.676923 6.058044 121.846154 5.940249 122.015385 5.822365 122.184615 5.704394 122.353846 5.586336 122.523077 5.468195 122.692308 5.349972 122.861538 5.231669 123.030769 5.113289 123.200000 4.994832 123.369231 4.876303 123.538462 4.757701 123.707692 4.639029 123.876923 4.520290 124.046154 4.401485 124.215385 4.282616 124.384615 4.163686 124.553846 4.044696 124.723077 3.925647 124.892308 3.806543 125.061538 3.687386 125.230769 3.568176 125.400000 3.448917 125.569231 3.329609 125.738462 3.210256 125.907692 3.090859 126.076923 2.971420 126.246154 2.851942 126.415385 2.732425 126.584615 2.612873 126.753846 2.493286 126.923077 2.373668 127.092308 2.254020 127.261538 2.134344 127.430769 2.014642 127.600000 1.894916 127.769231 1.775168 127.938462 1.655401 128.107692 1.535615 128.276923 1.415813 128.446154 1.295998 128.615385 1.176170 128.784615 1.056333 128.953846 0.936487 129.123077 0.816636 129.292308 0.696780 129.461538 0.576923" class="line reactive nofill" /></g></g><g class="titles" /><g transform="translate(58, 10)" class="plot overlay"><g class="series serie-0 color-0" /></g><g transform="translate(58, 10)" class="plot text-overlay"><g class="series serie-0 color-0" /></g><g transform="translate(58, 10)" class="plot tooltip-overlay"><g transform="translate(0 0)" style="opacity: 0" class="tooltip"><rect rx="0" ry="0" width="0" height="0" class="tooltip-box" /><g class="text" /></g></g></g></svg>