<?xml version='1.0' encoding='utf-8'?>
<svg xmlns="http://www.w3.org/2000/svg" id="chart-4ad54636-1515-46ad-b8ec-86b5ce152088" class="pygal-chart pygal-sparkline" viewBox="0 0 200 50" width="200" height="50"><!--Generated with pygal 3.0.4 (etree) ©Kozea 2012-2016 on 2024-06-23--><!--http://pygal.org--><!--http://github.com/Kozea/pygal--><defs><style type="text/css">#chart-4ad54636-1515-46ad-b8ec-86b5ce152088{-webkit-user-select:none;-webkit-font-smoothing:antialiased;font-family:Consolas,"Liberation Mono",Menlo,Courier,monospace}#chart-4ad54636-1515-46ad-b8ec-86b5ce152088 .title{font-family:Consolas,"Liberation Mono",Menlo,Courier,monospace;font-size:16px}#chart-4ad54636-1515-46ad-b8ec-86b5ce152088 .legends .legend text{font-family:Consolas,"Liberation Mono",Menlo,Courier,monospace;font-size:14px}#chart-4ad54636-1515-46ad-b8ec-86b5ce152088 .axis text{font-family:Consolas,"Liberation Mono",Menlo,Courier,monospace;font-size:10px}#chart-4ad54636-1515-46ad-b8ec-86b5ce152088 .axis text.major{font-family:Consolas,"Liberation Mono",Menlo,Courier,monospace;font-size:10px}#chart-4ad54636-1515-46ad-b8ec-86b5ce152088 .text-overlay text.value{font-family:Consolas,"Liberation Mono",Menlo,Courier,monospace;font-size:16px}#chart-4ad54636-1515-46ad-b8ec-86b5ce152088 .text-overlay text.label{font-family:Consolas,"Liberation Mono",Menlo,Courier,monospace;font-size:10px}#chart-4ad54636-1515-46ad-b8ec-86b5ce152088 .tooltip{font-family:Consolas,"Liberation Mono",Menlo,Courier,monospace;font-size:14px}#chart-4ad54636-1515-46ad-b8ec-86b5ce152088 text.no_data{font-family:Consolas,"Liberation Mono",Menlo,Courier,monospace;font-size:64px}
#chart-4ad54636-1515-46ad-b8ec-86b5ce152088{background-color:rgba(249,249,249,1)}#chart-4ad54636-1515-46ad-b8ec-86b5ce152088 path,#chart-4ad54636-1515-46ad-b8ec-86b5ce152088 line,#chart-4ad54636-1515-46ad-b8ec-86b5ce152088 rect,#chart-4ad54636-1515-46ad-b8ec-86b5ce152088 circle{-webkit-transition:150ms;-moz-transition:150ms;transition:150ms}#chart-4ad54636-1515-46ad-b8ec-86b5ce152088 .graph &gt; .background{fill:rgba(249,249,249,1)}#chart-4ad54636-1515-46ad-b8ec-86b5ce152088 .plot &gt; .background{fill:rgba(255,255,255,1)}#chart-4ad54636-1515-46ad-b8ec-86b5ce152088 .graph{fill:rgba(0,0,0,.87)}#chart-4ad54636-1515-46ad-b8ec-86b5ce152088 text.no_data{fill:rgba(0,0,0,1)}#chart-4ad54636-1515-46ad-b8ec-86b5ce152088 .title{fill:rgba(0,0,0,1)}#chart-4ad54636-1515-46ad-b8ec-86b5ce152088 .legends .legend text{fill:rgba(0,0,0,.87)}#chart-4ad54636-1515-46ad-b8ec-86b5ce152088 .legends .legend:hover text{fill:rgba(0,0,0,1)}#chart-4ad54636-1515-46ad-b8ec-86b5ce152088 .axis .line{stroke:rgba(0,0,0,1)}#chart-4ad54636-1515-46ad-b8ec-86b5ce152088 .axis .guide.line{stroke:rgba(0,0,0,.54)}#chart-4ad54636-1515-46ad-b8ec-86b5ce152088 .axis .major.line{stroke:rgba(0,0,0,.87)}#chart-4ad54636-1515-46ad-b8ec-86b5ce152088 .axis text.major{fill:rgba(0,0,0,1)}#chart-4ad54636-1515-46ad-b8ec-86b5ce152088 .axis.y .guides:hover .guide.line,#chart-4ad54636-1515-46ad-b8ec-86b5ce152088 .line-graph .axis.x .guides:hover .guide.line,#chart-4ad54636-1515-46ad-b8ec-86b5ce152088 .stackedline-graph .axis.x .guides:hover .guide.line,#chart-4ad54636-1515-46ad-b8ec-86b5ce152088 .xy-graph .axis.x .guides:hover .guide.line{stroke:rgba(0,0,0,1)}#chart-4ad54636-1515-46ad-b8ec-86b5ce152088 .axis .guides:hover text{fill:rgba(0,0,0,1)}#chart-4ad54636-1515-46ad-b8ec-86b5ce152088 .reactive{fill-opacity:.7;stroke-opacity:.8;stroke-width:1}#chart-4ad54636-1515-46ad-b8ec-86b5ce152088 .ci{stroke:rgba(0,0,0,.87)}#chart-4ad54636-1515-46ad-b8ec-86b5ce152088 .reactive.active,#chart-4ad54636-1515-46ad-b8ec-86b5ce152088 .active .reactive{fill-opacity:.8;stroke-opacity:.9;stroke-width:4}#chart-4ad54636-1515-46ad-b8ec-86b5ce152088 .ci .reactive.active{stroke-width:1.5}#chart-4ad54636-1515-46ad-b8ec-86b5ce152088 .series text{fill:rgba(0,0,0,1)}#chart-4ad54636-1515-46ad-b8ec-86b5ce152088 .tooltip rect{fill:rgba(255,255,255,1);stroke:rgba(0,0,0,1);-webkit-transition:opacity 150ms;-moz-transition:opacity 150ms;transition:opacity 150ms}#chart-4ad54636-1515-46ad-b8ec-86b5ce152088 .tooltip .label{fill:rgba(0,0,0,.87)}#chart-4ad54636-1515-46ad-b8ec-86b5ce152088 .tooltip .label{fill:rgba(0,0,0,.87)}#chart-4ad54636-1515-46ad-b8ec-86b5ce152088 .tooltip .legend{font-size:.8em;fill:rgba(0,0,0,.54)}#chart-4ad54636-1515-46ad-b8ec-86b5ce152088 .tooltip .x_label{font-size:.6em;fill:rgba(0,0,0,1)}#chart-4ad54636-1515-46ad-b8ec-86b5ce152088 .tooltip .xlink{font-size:.5em;text-decoration:underline}#chart-4ad54636-1515-46ad-b8ec-86b5ce152088 .tooltip .value{font-size:1.5em}#chart-4ad54636-1515-46ad-b8ec-86b5ce152088 .bound{font-size:.5em}#chart-4ad54636-1515-46ad-b8ec-86b5ce152088 .max-value{font-size:.75em;fill:rgba(0,0,0,.54)}#chart-4ad54636-1515-46ad-b8ec-86b5ce152088 .map-element{fill:rgba(255,255,255,1);stroke:rgba(0,0,0,.54) !important}#chart-4ad54636-1515-46ad-b8ec-86b5ce152088 .map-element .reactive{fill-opacity:inherit;stroke-opacity:inherit}#chart-4ad54636-1515-46ad-b8ec-86b5ce152088 .color-0,#chart-4ad54636-1515-46ad-b8ec-86b5ce152088 .color-0 a:visited{stroke:#F44336;fill:#F44336}#chart-4ad54636-1515-46ad-b8ec-86b5ce152088 .text-overlay .color-0 text{fill:black}
#chart-4ad54636-1515-46ad-b8ec-86b5ce152088 text.no_data{text-anchor:middle}#chart-4ad54636-1515-46ad-b8ec-86b5ce152088 .guide.line{fill:none}#chart-4ad54636-1515-46ad-b8ec-86b5ce152088 .centered{text-anchor:middle}#chart-4ad54636-1515-46ad-b8ec-86b5ce152088 .title{text-anchor:middle}#chart-4ad54636-1515-46ad-b8ec-86b5ce152088 .legends .legend text{fill-opacity:1}#chart-4ad54636-1515-46ad-b8ec-86b5ce152088 .axis.x text{text-anchor:middle}#chart-4ad54636-1515-46ad-b8ec-86b5ce152088 .axis.x:not(.web) text[transform]{text-anchor:start}#chart-4ad54636-1515-46ad-b8ec-86b5ce152088 .axis.x:not(.web) text[transform].backwards{text-anchor:end}#chart-4ad54636-1515-46ad-b8ec-86b5ce152088 .axis.y text{text-anchor:end}#chart-4ad54636-1515-46ad-b8ec-86b5ce152088 .axis.y text[transform].backwards{text-anchor:start}#chart-4ad54636-1515-46ad-b8ec-86b5ce152088 .axis.y2 text{text-anchor:start}#chart-4ad54636-1515-46ad-b8ec-86b5ce152088 .axis.y2 text[transform].backwards{text-anchor:end}#chart-4ad54636-1515-46ad-b8ec-86b5ce152088 .axis .guide.line{stroke-dasharray:4,4;stroke:black}#chart-4ad54636-1515-46ad-b8ec-86b5ce152088 .axis .major.guide.line{stroke-dasharray:6,6;stroke:black}#chart-4ad54636-1515-46ad-b8ec-86b5ce152088 .horizontal .axis.y .guide.line,#chart-4ad54636-1515-46ad-b8ec-86b5ce152088 .horizontal .axis.y2 .guide.line,#chart-4ad54636-1515-46ad-b8ec-86b5ce152088 .vertical .axis.x .guide.line{opacity:0}#chart-4ad54636-1515-46ad-b8ec-86b5ce152088 .horizontal .axis.always_show .guide.line,#chart-4ad54636-1515-46ad-b8ec-86b5ce152088 .vertical .axis.always_show .guide.line{opacity:1 !important}#chart-4ad54636-1515-46ad-b8ec-86b5ce152088 .axis.y .guides:hover .guide.line,#chart-4ad54636-1515-46ad-b8ec-86b5ce152088 .axis.y2 .guides:hover .guide.line,#chart-4ad54636-1515-46ad-b8ec-86b5ce152088 .axis.x .guides:hover .guide.line{opacity:1}#chart-4ad54636-1515-46ad-b8ec-86b5ce152088 .axis .guides:hover text{opacity:1}#chart-4ad54636-1515-46ad-b8ec-86b5ce152088 .nofill{fill:none}#chart-4ad54636-1515-46ad-b8ec-86b5ce152088 .subtle-fill{fill-opacity:.2}#chart-4ad54636-1515-46ad-b8ec-86b5ce152088 .dot{stroke-width:1px;fill-opacity:1;stroke-opacity:1}#chart-4ad54636-1515-46ad-b8ec-86b5ce152088 .dot.active{stroke-width:5px}#chart-4ad54636-1515-46ad-b8ec-86b5ce152088 .dot.negative{fill:transparent}#chart-4ad54636-1515-46ad-b8ec-86b5ce152088 text,#chart-4ad54636-1515-46ad-b8ec-86b5ce152088 tspan{stroke:none !important}#chart-4ad54636-1515-46ad-b8ec-86b5ce152088 .series text.active{opacity:1}#chart-4ad54636-1515-46ad-b8ec-86b5ce152088 .tooltip rect{fill-opacity:.95;stroke-width:.5}#chart-4ad54636-1515-46ad-b8ec-86b5ce152088 .tooltip text{fill-opacity:1}#chart-4ad54636-1515-46ad-b8ec-86b5ce152088 .showable{visibility:hidden}#chart-4ad54636-1515-46ad-b8ec-86b5ce152088 .showable.shown{visibility:visible}#chart-4ad54636-1515-46ad-b8ec-86b5ce152088 .gauge-background{fill:rgba(229,229,229,1);stroke:none}#chart-4ad54636-1515-46ad-b8ec-86b5ce152088 .bg-lines{stroke:rgba(249,249,249,1);stroke-width:2px}</style><script type="text/javascript">window.pygal = window.pygal || {};window.pygal.config = window.pygal.config || {};window.pygal.config['4ad54636-1515-46ad-b8ec-86b5ce152088'] = {"allow_interruptions": false, "box_mode": "extremes", "classes": ["pygal-chart", "pygal-sparkline"], "css": ["file://style.css", "file://graph.css"], "defs": [], "disable_xml_declaration": false, "dots_size": 2.5, "dynamic_print_values": false, "explicit_size": true, "fill": false, "force_uri_protocol": "https", "formatter": null, "half_pie": false, "height": 50, "include_x_axis": false, "inner_radius": 0, "interpolate": "cubic", "interpolation_parameters": {}, "interpolation_precision": 250, "inverse_y_axis": false, "js": [], "legend_at_bottom": false, "legend_at_bottom_columns": null, "legend_box_size": 12, "logarithmic": false, "margin": 10, "margin_bottom": null, "margin_left": null, "margin_right": null, "margin_top": null, "max_scale": 2, "min_scale": 1, "missing_value_fill_truncation": "x", "no_data_text": "", "no_prefix": false, "order_min": null, "pretty_print": false, "print_labels": false, "print_values": false, "print_values_position": "center", "print_zeroes": true, "range": null, "rounded_bars": null, "secondary_range": null, "show_dots": false, "show_legend": false, "show_minor_x_labels": true, "show_minor_y_labels": true, "show_only_major_dots": false, "show_x_guides": false, "show_x_labels": false, "show_y_guides": true, "show_y_labels": true, "spacing": 0, "stack_from_top": false, "strict": false, "stroke": true, "stroke_style": null, "style": {"background": "rgba(249, 249, 249, 1)", "ci_colors": [], "colors": ["#F44336", "#3F51B5", "#009688", "#FFC107", "#FF5722", "#9C27B0", "#03A9F4", "#8BC34A", "#FF9800", "#E91E63", "#2196F3", "#4CAF50", "#FFEB3B", "#673AB7", "#00BCD4", "#CDDC39", "#9E9E9E", "#607D8B"], "dot_opacity": "1", "font_family": "Consolas, \"Liberation Mono\", Menlo, Courier, monospace", "foreground": "rgba(0, 0, 0, .87)", "foreground_strong": "rgba(0, 0, 0, 1)", "foreground_subtle": "rgba(0, 0, 0, .54)", "guide_stroke_color": "black", "guide_stroke_dasharray": "4,4", "label_font_family": "Consolas, \"Liberation Mono\", Menlo, Courier, monospace", "label_font_size": 10, "legend_font_family": "Consolas, \"Liberation Mono\", Menlo, Courier, monospace", "legend_font_size": 14, "major_guide_stroke_color": "black", "major_guide_stroke_dasharray": "6,6", "major_label_font_family": "Consolas, \"Liberation Mono\", Menlo, Courier, monospace", "major_label_font_size": 10, "no_data_font_family": "Consolas, \"Liberation Mono\", Menlo, Courier, monospace", "no_data_font_size": 64, "opacity": ".7", "opacity_hover": ".8", "plot_background": "rgba(255, 255, 255, 1)", "stroke_opacity": ".8", "stroke_opacity_hover": ".9", "stroke_width": "1", "stroke_width_hover": "4", "title_font_family": "Consolas, \"Liberation Mono\", Menlo, Courier, monospace", "title_font_size": 16, "tooltip_font_family": "Consolas, \"Liberation Mono\", Menlo, Courier, monospace", "tooltip_font_size": 14, "transition": "150ms", "value_background": "rgba(229, 229, 229, 1)", "value_colors": [], "value_font_family": "Consolas, \"Liberation Mono\", Menlo, Courier, monospace", "value_font_size": 16, "value_label_font_family": "Consolas, \"Liberation Mono\", Menlo, Courier, monospace", "value_label_font_size": 10}, "title": null, "tooltip_border_radius": 0, "tooltip_fancy_mode": true, "truncate_label": null, "truncate_legend": null, "width": 200, "x_label_rotation": 0, "x_labels": ["2024/6", "2024/5", "2024/4", "2024/3", "2024/2", "2024/1", "2023/12"], "x_labels_major": null, "x_labels_major_count": null, "x_labels_major_every": null, "x_title": null, "xrange": null, "y_label_rotation": 0, "y_labels": null, "y_labels_major": null, "y_labels_major_count": null, "y_labels_major_every": null, "y_title": null, "zero": 0, "legends": [""]}</script></defs><title>Pygal</title><g class="graph line-graph vertical"><rect x="0" y="0" width="200" height="50" class="background" /><g transform="translate(20, 10)" class="plot"><rect x="0" y="0" width="170" height="30" class="background" /><g class="axis y always_show"><path d="M0.000000 30.000000 h170.000000" class="line" /><g class="guides"><path d="M0.000000 17.127354 h170.000000" class="guide line" /><text x="-5" y="20.627354234489175" class="">4</text><title>4</title></g><g class="guides"><path d="M0.000000 0.733057 h170.000000" class="guide line" /><text x="-5" y="4.233057316372179" class="">8</text><title>8</title></g></g><g class="series serie-0 color-0"><path d="M3.269231 21.225928 L3.378205 21.110749 3.487179 20.995572 3.596154 20.880401 3.705128 20.765241 3.814103 20.650093 3.923077 20.534961 4.032051 20.419848 4.141026 20.304757 4.250000 20.189692 4.358974 20.074655 4.467949 19.959651 4.576923 19.844681 4.685897 19.729750 4.794872 19.614860 4.903846 19.500015 5.012821 19.385218 5.121795 19.270471 5.230769 19.155779 5.339744 19.041144 5.448718 18.926570 5.557692 18.812060 5.666667 18.697616 5.775641 18.583243 5.884615 18.468943 5.993590 18.354720 6.102564 18.240576 6.211538 18.126515 6.320513 18.012540 6.429487 17.898654 6.538462 17.784861 6.647436 17.671164 6.756410 17.557565 6.865385 17.444069 6.974359 17.330677 7.083333 17.217394 7.192308 17.104223 7.301282 16.991166 7.410256 16.878227 7.519231 16.765410 7.628205 16.652717 7.737179 16.540151 7.846154 16.427716 7.955128 16.315415 8.064103 16.203251 8.173077 16.091227 8.282051 15.979347 8.391026 15.867613 8.500000 15.756029 8.608974 15.644599 8.717949 15.533324 8.826923 15.422209 8.935897 15.311256 9.044872 15.200470 9.153846 15.089852 9.262821 14.979406 9.371795 14.869136 9.480769 14.759044 9.589744 14.649134 9.698718 14.539409 9.807692 14.429872 9.916667 14.320526 10.025641 14.211375 10.134615 14.102421 10.243590 13.993668 10.352564 13.885120 10.461538 13.776778 10.570513 13.668647 10.679487 13.560730 10.788462 13.453029 10.897436 13.345548 11.006410 13.238291 11.115385 13.131259 11.224359 13.024458 11.333333 12.917889 11.442308 12.811556 11.551282 12.705462 11.660256 12.599610 11.769231 12.494004 11.878205 12.388646 11.987179 12.283541 12.096154 12.178690 12.205128 12.074098 12.314103 11.969767 12.423077 11.865700 12.532051 11.761902 12.641026 11.658374 12.750000 11.555121 12.858974 11.452145 12.967949 11.349449 13.076923 11.247038 13.185897 11.144913 13.294872 11.043078 13.403846 10.941537 13.512821 10.840292 13.621795 10.739347 13.730769 10.638704 13.839744 10.538368 13.948718 10.438341 14.057692 10.338626 14.166667 10.239227 14.275641 10.140147 14.384615 10.041389 14.493590 9.942956 14.602564 9.844851 14.711538 9.747078 14.820513 9.649640 14.929487 9.552539 15.038462 9.455780 15.147436 9.359365 15.256410 9.263298 15.365385 9.167581 15.474359 9.072218 15.583333 8.977212 15.692308 8.882566 15.801282 8.788284 15.910256 8.694369 16.019231 8.600823 16.128205 8.507650 16.237179 8.414854 16.346154 8.322436 16.455128 8.230402 16.564103 8.138753 16.673077 8.047493 16.782051 7.956625 16.891026 7.866153 17.000000 7.776079 17.108974 7.686407 17.217949 7.597139 17.326923 7.508280 17.435897 7.419832 17.544872 7.331798 17.653846 7.244182 17.762821 7.156987 17.871795 7.070216 17.980769 6.983872 18.089744 6.897959 18.198718 6.812479 18.307692 6.727436 18.416667 6.642832 18.525641 6.558672 18.634615 6.474959 18.743590 6.391694 18.852564 6.308883 18.961538 6.226527 19.070513 6.144631 19.179487 6.063196 19.288462 5.982227 19.397436 5.901727 19.506410 5.821699 19.615385 5.742146 19.724359 5.663070 19.833333 5.584477 19.942308 5.506368 20.051282 5.428746 20.160256 5.351616 20.269231 5.274980 20.378205 5.198841 20.487179 5.123202 20.596154 5.048067 20.705128 4.973440 20.814103 4.899322 20.923077 4.825718 21.032051 4.752630 21.141026 4.680061 21.250000 4.608016 21.358974 4.536496 21.467949 4.465506 21.576923 4.395048 21.685897 4.325126 21.794872 4.255743 21.903846 4.186901 22.012821 4.118605 22.121795 4.050857 22.230769 3.983661 22.339744 3.917019 22.448718 3.850935 22.557692 3.785412 22.666667 3.720454 22.775641 3.656063 22.884615 3.592243 22.993590 3.528996 23.102564 3.466327 23.211538 3.404238 23.320513 3.342732 23.429487 3.281813 23.538462 3.221484 23.647436 3.161747 23.756410 3.102607 23.865385 3.044066 23.974359 2.986128 24.083333 2.928796 24.192308 2.872072 24.301282 2.815960 24.410256 2.760464 24.519231 2.705586 24.628205 2.651330 24.737179 2.597699 24.846154 2.544696 24.955128 2.492324 25.064103 2.440586 25.173077 2.389486 25.282051 2.339027 25.391026 2.289212 25.500000 2.240044 25.608974 2.191527 25.717949 2.143663 25.826923 2.096455 25.935897 2.049908 26.044872 2.004024 26.153846 1.958806 26.262821 1.914257 26.371795 1.870382 26.480769 1.827182 26.589744 1.784661 26.698718 1.742822 26.807692 1.701669 26.916667 1.661205 27.025641 1.621432 27.134615 1.582354 27.243590 1.543975 27.352564 1.506297 27.461538 1.469323 27.570513 1.433057 27.679487 1.397502 27.788462 1.362661 27.897436 1.328538 28.006410 1.295135 28.115385 1.262456 28.224359 1.230503 28.333333 1.199281 28.442308 1.168792 28.551282 1.139039 28.660256 1.110026 28.769231 1.081756 28.878205 1.054232 28.987179 1.027457 29.096154 1.001434 29.205128 0.976167 29.314103 0.951659 29.423077 0.927912 29.532051 0.904931 29.641026 0.882718 29.750000 0.861277 29.858974 0.840610 29.967949 0.820721 30.076923 0.801614 30.185897 0.783290 30.294872 0.765754 30.403846 0.749009 30.512821 0.733057 30.621795 0.717902 30.730769 0.703540 30.839744 0.689968 30.948718 0.677183 31.057692 0.665182 31.166667 0.653962 31.275641 0.643518 31.384615 0.633847 31.493590 0.624947 31.602564 0.616814 31.711538 0.609444 31.820513 0.602835 31.929487 0.596982 32.038462 0.591883 32.147436 0.587534 32.256410 0.583932 32.365385 0.581073 32.474359 0.578954 32.583333 0.577572 32.692308 0.576923 32.801282 0.577004 32.910256 0.577812 33.019231 0.579344 33.128205 0.581595 33.237179 0.584563 33.346154 0.588244 33.455128 0.592635 33.564103 0.597733 33.673077 0.603534 33.782051 0.610035 33.891026 0.617232 34.000000 0.625122 34.108974 0.633703 34.217949 0.642970 34.326923 0.652919 34.435897 0.663549 34.544872 0.674855 34.653846 0.686835 34.762821 0.699484 34.871795 0.712799 34.980769 0.726777 35.089744 0.741416 35.198718 0.756710 35.307692 0.772657 35.416667 0.789254 35.525641 0.806498 35.634615 0.824384 35.743590 0.842910 35.852564 0.862072 35.961538 0.881867 36.070513 0.902292 36.179487 0.923342 36.288462 0.945016 36.397436 0.967309 36.506410 0.990218 36.615385 1.013740 36.724359 1.037872 36.833333 1.062609 36.942308 1.087950 37.051282 1.113889 37.160256 1.140425 37.269231 1.167553 37.378205 1.195271 37.487179 1.223575 37.596154 1.252461 37.705128 1.281927 37.814103 1.311969 37.923077 1.342583 38.032051 1.373767 38.141026 1.405516 38.250000 1.437828 38.358974 1.470699 38.467949 1.504126 38.576923 1.538106 38.685897 1.572634 38.794872 1.607709 38.903846 1.643326 39.012821 1.679482 39.121795 1.716174 39.230769 1.753398 39.339744 1.791151 39.448718 1.829430 39.557692 1.868232 39.666667 1.907552 39.775641 1.947388 39.884615 1.987736 39.993590 2.028594 40.102564 2.069956 40.211538 2.111822 40.320513 2.154186 40.429487 2.197045 40.538462 2.240397 40.647436 2.284238 40.756410 2.328564 40.865385 2.373372 40.974359 2.418659 41.083333 2.464422 41.192308 2.510657 41.301282 2.557360 41.410256 2.604529 41.519231 2.652160 41.628205 2.700250 41.737179 2.748795 41.846154 2.797792 41.955128 2.847238 42.064103 2.897129 42.173077 2.947462 42.282051 2.998234 42.391026 3.049441 42.500000 3.101080 42.608974 3.153147 42.717949 3.205640 42.826923 3.258555 42.935897 3.311888 43.044872 3.365636 43.153846 3.419796 43.262821 3.474364 43.371795 3.529338 43.480769 3.584714 43.589744 3.640488 43.698718 3.696656 43.807692 3.753217 43.916667 3.810166 44.025641 3.867500 44.134615 3.925216 44.243590 3.983310 44.352564 4.041779 44.461538 4.100620 44.570513 4.159829 44.679487 4.219403 44.788462 4.279338 44.897436 4.339632 45.006410 4.400281 45.115385 4.461281 45.224359 4.522629 45.333333 4.584322 45.442308 4.646357 45.551282 4.708730 45.660256 4.771438 45.769231 4.834477 45.878205 4.897844 45.987179 4.961536 46.096154 5.025549 46.205128 5.089880 46.314103 5.154526 46.423077 5.219483 46.532051 5.284749 46.641026 5.350319 46.750000 5.416190 46.858974 5.482359 46.967949 5.548823 47.076923 5.615578 47.185897 5.682621 47.294872 5.749948 47.403846 5.817557 47.512821 5.885443 47.621795 5.953604 47.730769 6.022036 47.839744 6.090736 47.948718 6.159701 48.057692 6.228926 48.166667 6.298409 48.275641 6.368147 48.384615 6.438136 48.493590 6.508372 48.602564 6.578853 48.711538 6.649575 48.820513 6.720534 48.929487 6.791728 49.038462 6.863152 49.147436 6.934805 49.256410 7.006681 49.365385 7.078778 49.474359 7.151093 49.583333 7.223623 49.692308 7.296363 49.801282 7.369310 49.910256 7.442462 50.019231 7.515814 50.128205 7.589364 50.237179 7.663108 50.346154 7.737043 50.455128 7.811165 50.564103 7.885472 50.673077 7.959958 50.782051 8.034623 50.891026 8.109461 51.000000 8.184470 51.108974 8.259647 51.217949 8.334987 51.326923 8.410488 51.435897 8.486146 51.544872 8.561958 51.653846 8.637921 51.762821 8.714031 51.871795 8.790284 51.980769 8.866679 52.089744 8.943210 52.198718 9.019875 52.307692 9.096671 52.416667 9.173594 52.525641 9.250640 52.634615 9.327807 52.743590 9.405091 52.852564 9.482489 52.961538 9.559997 53.070513 9.637613 53.179487 9.715332 53.288462 9.793151 53.397436 9.871067 53.506410 9.949077 53.615385 10.027177 53.724359 10.105364 53.833333 10.183634 53.942308 10.261985 54.051282 10.340413 54.160256 10.418914 54.269231 10.497485 54.378205 10.576124 54.487179 10.654825 54.596154 10.733587 54.705128 10.812406 54.814103 10.891278 54.923077 10.970200 55.032051 11.049169 55.141026 11.128181 55.250000 11.207233 55.358974 11.286322 55.467949 11.365444 55.576923 11.444597 55.685897 11.523775 55.794872 11.602978 55.903846 11.682200 56.012821 11.761438 56.121795 11.840690 56.230769 11.919952 56.339744 11.999221 56.448718 12.078492 56.557692 12.157763 56.666667 12.237031 56.775641 12.316292 56.884615 12.395543 56.993590 12.474780 57.102564 12.554001 57.211538 12.633201 57.320513 12.712377 57.429487 12.791527 57.538462 12.870646 57.647436 12.949731 57.756410 13.028780 57.865385 13.107788 57.974359 13.186754 58.083333 13.265674 58.192308 13.344547 58.301282 13.423371 58.410256 13.502141 58.519231 13.580858 58.628205 13.659517 58.737179 13.738117 58.846154 13.816655 58.955128 13.895128 59.064103 13.973536 59.173077 14.051874 59.282051 14.130141 59.391026 14.208335 59.500000 14.286452 59.608974 14.364491 59.717949 14.442449 59.826923 14.520324 59.935897 14.598113 60.044872 14.675814 60.153846 14.753425 60.262821 14.830943 60.371795 14.908366 60.480769 14.985692 60.589744 15.062917 60.698718 15.140041 60.807692 15.217059 60.916667 15.293971 61.025641 15.370773 61.134615 15.447464 61.243590 15.524040 61.352564 15.600500 61.461538 15.676841 61.570513 15.753061 61.679487 15.829157 61.788462 15.905126 61.897436 15.980968 62.006410 16.056678 62.115385 16.132256 62.224359 16.207697 62.333333 16.283001 62.442308 16.358165 62.551282 16.433185 62.660256 16.508061 62.769231 16.582789 62.878205 16.657367 62.987179 16.731793 63.096154 16.806064 63.205128 16.880179 63.314103 16.954134 63.423077 17.027927 63.532051 17.101556 63.641026 17.175018 63.750000 17.248311 63.858974 17.321433 63.967949 17.394382 64.076923 17.467154 64.185897 17.539748 64.294872 17.612161 64.403846 17.684391 64.512821 17.756436 64.621795 17.828292 64.730769 17.899958 64.839744 17.971431 64.948718 18.042709 65.057692 18.113790 65.166667 18.184670 65.275641 18.255349 65.384615 18.325823 65.493590 18.396090 65.602564 18.466147 65.711538 18.535993 65.820513 18.605624 65.929487 18.675039 66.038462 18.744235 66.147436 18.813210 66.256410 18.881961 66.365385 18.950485 66.474359 19.018782 66.583333 19.086848 66.692308 19.154680 66.801282 19.222277 66.910256 19.289636 67.019231 19.356754 67.128205 19.423630 67.237179 19.490261 67.346154 19.556644 67.455128 19.622777 67.564103 19.688658 67.673077 19.754284 67.782051 19.819654 67.891026 19.884764 68.000000 19.949612 68.108974 20.014196 68.217949 20.078513 68.326923 20.142562 68.435897 20.206339 68.544872 20.269842 68.653846 20.333070 68.762821 20.396019 68.871795 20.458687 68.980769 20.521072 69.089744 20.583171 69.198718 20.644983 69.307692 20.706504 69.416667 20.767732 69.525641 20.828665 69.634615 20.889301 69.743590 20.949637 69.852564 21.009670 69.961538 21.069399 70.070513 21.128821 70.179487 21.187933 70.288462 21.246734 70.397436 21.305221 70.506410 21.363391 70.615385 21.421242 70.724359 21.478771 70.833333 21.535977 70.942308 21.592857 71.051282 21.649409 71.160256 21.705630 71.269231 21.761517 71.378205 21.817069 71.487179 21.872283 71.596154 21.927156 71.705128 21.981687 71.814103 22.035873 71.923077 22.089711 72.032051 22.143200 72.141026 22.196336 72.250000 22.249117 72.358974 22.301541 72.467949 22.353606 72.576923 22.405310 72.685897 22.456649 72.794872 22.507621 72.903846 22.558225 73.012821 22.608457 73.121795 22.658316 73.230769 22.707798 73.339744 22.756902 73.448718 22.805625 73.557692 22.853965 73.666667 22.901920 73.775641 22.949486 73.884615 22.996662 73.993590 23.043446 74.102564 23.089834 74.211538 23.135825 74.320513 23.181416 74.429487 23.226604 74.538462 23.271388 74.647436 23.315765 74.756410 23.359733 74.865385 23.403288 74.974359 23.446430 75.083333 23.489155 75.192308 23.531461 75.301282 23.573346 75.410256 23.614807 75.519231 23.655842 75.628205 23.696448 75.737179 23.736624 75.846154 23.776367 75.955128 23.815674 76.064103 23.854543 76.173077 23.892971 76.282051 23.930957 76.391026 23.968498 76.500000 24.005591 76.608974 24.042235 76.717949 24.078426 76.826923 24.114162 76.935897 24.149442 77.044872 24.184262 77.153846 24.218620 77.262821 24.252514 77.371795 24.285942 77.480769 24.318900 77.589744 24.351388 77.698718 24.383401 77.807692 24.414939 77.916667 24.445998 78.025641 24.476576 78.134615 24.506671 78.243590 24.536281 78.352564 24.565402 78.461538 24.594033 78.570513 24.622172 78.679487 24.649815 78.788462 24.676961 78.897436 24.703607 79.006410 24.729750 79.115385 24.755389 79.224359 24.780521 79.333333 24.805144 79.442308 24.829255 79.551282 24.852851 79.660256 24.875931 79.769231 24.898493 79.878205 24.920532 79.987179 24.942049 80.096154 24.963039 80.205128 24.983500 80.314103 25.003431 80.423077 25.022829 80.532051 25.041691 80.641026 25.060015 80.750000 25.077798 80.858974 25.095039 80.967949 25.111735 81.076923 25.127883 81.185897 25.143482 81.294872 25.158528 81.403846 25.173020 81.512821 25.186954 81.621795 25.200329 81.730769 25.213143 81.839744 25.225392 81.948718 25.237074 82.057692 25.248188 82.166667 25.258730 82.275641 25.268699 82.384615 25.278092 82.493590 25.286906 82.602564 25.295139 82.711538 25.302789 82.820513 25.309854 82.929487 25.316330 83.038462 25.322216 83.147436 25.327510 83.256410 25.332208 83.365385 25.336309 83.474359 25.339810 83.583333 25.342709 83.692308 25.345003 83.801282 25.346690 83.910256 25.347767 84.019231 25.348233 84.128205 25.348085 84.237179 25.347320 84.346154 25.345936 84.455128 25.343931 84.564103 25.341302 84.673077 25.338048 84.782051 25.334164 84.891026 25.329650 85.000000 25.324503 85.108974 25.318721 85.217949 25.312307 85.326923 25.305264 85.435897 25.297595 85.544872 25.289305 85.653846 25.280397 85.762821 25.270873 85.871795 25.260738 85.980769 25.249995 86.089744 25.238647 86.198718 25.226698 86.307692 25.214151 86.416667 25.201009 86.525641 25.187276 86.634615 25.172956 86.743590 25.158052 86.852564 25.142567 86.961538 25.126505 87.070513 25.109869 87.179487 25.092662 87.288462 25.074889 87.397436 25.056551 87.506410 25.037654 87.615385 25.018200 87.724359 24.998193 87.833333 24.977636 87.942308 24.956533 88.051282 24.934886 88.160256 24.912700 88.269231 24.889978 88.378205 24.866723 88.487179 24.842939 88.596154 24.818629 88.705128 24.793797 88.814103 24.768446 88.923077 24.742579 89.032051 24.716200 89.141026 24.689313 89.250000 24.661920 89.358974 24.634025 89.467949 24.605632 89.576923 24.576744 89.685897 24.547365 89.794872 24.517497 89.903846 24.487145 90.012821 24.456312 90.121795 24.425000 90.230769 24.393215 90.339744 24.360958 90.448718 24.328234 90.557692 24.295046 90.666667 24.261397 90.775641 24.227291 90.884615 24.192731 90.993590 24.157721 91.102564 24.122263 91.211538 24.086363 91.320513 24.050022 91.429487 24.013245 91.538462 23.976034 91.647436 23.938394 91.756410 23.900327 91.865385 23.861837 91.974359 23.822928 92.083333 23.783603 92.192308 23.743865 92.301282 23.703718 92.410256 23.663165 92.519231 23.622210 92.628205 23.580856 92.737179 23.539106 92.846154 23.496965 92.955128 23.454434 93.064103 23.411519 93.173077 23.368222 93.282051 23.324546 93.391026 23.280496 93.500000 23.236074 93.608974 23.191284 93.717949 23.146129 93.826923 23.100614 93.935897 23.054740 94.044872 23.008512 94.153846 22.961934 94.262821 22.915008 94.371795 22.867737 94.480769 22.820127 94.589744 22.772179 94.698718 22.723897 94.807692 22.675285 94.916667 22.626346 95.025641 22.577084 95.134615 22.527502 95.243590 22.477603 95.352564 22.427391 95.461538 22.376869 95.570513 22.326041 95.679487 22.274910 95.788462 22.223480 95.897436 22.171753 96.006410 22.119734 96.115385 22.067426 96.224359 22.014832 96.333333 21.961956 96.442308 21.908801 96.551282 21.855371 96.660256 21.801669 96.769231 21.747698 96.878205 21.693462 96.987179 21.638964 97.096154 21.584208 97.205128 21.529197 97.314103 21.473935 97.423077 21.418424 97.532051 21.362670 97.641026 21.306674 97.750000 21.250440 97.858974 21.193972 97.967949 21.137273 98.076923 21.080347 98.185897 21.023197 98.294872 20.965826 98.403846 20.908239 98.512821 20.850437 98.621795 20.792425 98.730769 20.734207 98.839744 20.675785 98.948718 20.617163 99.057692 20.558345 99.166667 20.499333 99.275641 20.440132 99.384615 20.380745 99.493590 20.321174 99.602564 20.261425 99.711538 20.201499 99.820513 20.141401 99.929487 20.081134 100.038462 20.020701 100.147436 19.960106 100.256410 19.899352 100.365385 19.838443 100.474359 19.777382 100.583333 19.716172 100.692308 19.654818 100.801282 19.593321 100.910256 19.531687 101.019231 19.469917 101.128205 19.408017 101.237179 19.345988 101.346154 19.283835 101.455128 19.221561 101.564103 19.159169 101.673077 19.096663 101.782051 19.034046 101.891026 18.971322 102.000000 18.908494 102.108974 18.845565 102.217949 18.782539 102.326923 18.719420 102.435897 18.656211 102.544872 18.592914 102.653846 18.529535 102.762821 18.466075 102.871795 18.402540 102.980769 18.338931 103.089744 18.275252 103.198718 18.211507 103.307692 18.147700 103.416667 18.083833 103.525641 18.019910 103.634615 17.955935 103.743590 17.891911 103.852564 17.827841 103.961538 17.763729 104.070513 17.699578 104.179487 17.635392 104.288462 17.571174 104.397436 17.506928 104.506410 17.442657 104.615385 17.378364 104.724359 17.314052 104.833333 17.249727 104.942308 17.185389 105.051282 17.121044 105.160256 17.056695 105.269231 16.992344 105.378205 16.927996 105.487179 16.863654 105.596154 16.799321 105.705128 16.735001 105.814103 16.670697 105.923077 16.606412 106.032051 16.542151 106.141026 16.477916 106.250000 16.413710 106.358974 16.349539 106.467949 16.285403 106.576923 16.221308 106.685897 16.157257 106.794872 16.093252 106.903846 16.029298 107.012821 15.965398 107.121795 15.901555 107.230769 15.837773 107.339744 15.774055 107.448718 15.710405 107.557692 15.646826 107.666667 15.583321 107.775641 15.519894 107.884615 15.456548 107.993590 15.393287 108.102564 15.330115 108.211538 15.267034 108.320513 15.204048 108.429487 15.141160 108.538462 15.078374 108.647436 15.015694 108.756410 14.953122 108.865385 14.890663 108.974359 14.828319 109.083333 14.766094 109.192308 14.703992 109.301282 14.642015 109.410256 14.580168 109.519231 14.518454 109.628205 14.456876 109.737179 14.395438 109.846154 14.334142 109.955128 14.272993 110.064103 14.211994 110.173077 14.151149 110.282051 14.090460 110.391026 14.029931 110.500000 13.969566 110.608974 13.909368 110.717949 13.849341 110.826923 13.789487 110.935897 13.729811 111.044872 13.670316 111.153846 13.611005 111.262821 13.551881 111.371795 13.492949 111.480769 13.434211 111.589744 13.375671 111.698718 13.317332 111.807692 13.259198 111.916667 13.201273 112.025641 13.143559 112.134615 13.086060 112.243590 13.028780 112.352564 12.971721 112.461538 12.914886 112.570513 12.858275 112.679487 12.801890 112.788462 12.745731 112.897436 12.689801 113.006410 12.634100 113.115385 12.578630 113.224359 12.523392 113.333333 12.468388 113.442308 12.413617 113.551282 12.359083 113.660256 12.304785 113.769231 12.250726 113.878205 12.196906 113.987179 12.143326 114.096154 12.089989 114.205128 12.036895 114.314103 11.984045 114.423077 11.931442 114.532051 11.879085 114.641026 11.826976 114.750000 11.775117 114.858974 11.723508 114.967949 11.672152 115.076923 11.621049 115.185897 11.570200 115.294872 11.519607 115.403846 11.469271 115.512821 11.419193 115.621795 11.369375 115.730769 11.319817 115.839744 11.270521 115.948718 11.221489 116.057692 11.172721 116.166667 11.124219 116.275641 11.075984 116.384615 11.028017 116.493590 10.980319 116.602564 10.932893 116.711538 10.885738 116.820513 10.838857 116.929487 10.792250 117.038462 10.745918 117.147436 10.699864 117.256410 10.654088 117.365385 10.608592 117.474359 10.563376 117.583333 10.518442 117.692308 10.473792 117.801282 10.429426 117.910256 10.385346 118.019231 10.341553 118.128205 10.298048 118.237179 10.254832 118.346154 10.211908 118.455128 10.169275 118.564103 10.126935 118.673077 10.084891 118.782051 10.043141 118.891026 10.001689 119.000000 9.960536 119.108974 9.919681 119.217949 9.879128 119.326923 9.838876 119.435897 9.798928 119.544872 9.759284 119.653846 9.719946 119.762821 9.680915 119.871795 9.642192 119.980769 9.603779 120.089744 9.565677 120.198718 9.527887 120.307692 9.490409 120.416667 9.453247 120.525641 9.416400 120.634615 9.379870 120.743590 9.343659 120.852564 9.307767 120.961538 9.272196 121.070513 9.236947 121.179487 9.202021 121.288462 9.167420 121.397436 9.133144 121.506410 9.099196 121.615385 9.065575 121.724359 9.032285 121.833333 8.999325 121.942308 8.966697 122.051282 8.934403 122.160256 8.902443 122.269231 8.870819 122.378205 8.839531 122.487179 8.808583 122.596154 8.777973 122.705128 8.747705 122.814103 8.717778 122.923077 8.688195 123.032051 8.658957 123.141026 8.630064 123.250000 8.601518 123.358974 8.573321 123.467949 8.545473 123.576923 8.517976 123.685897 8.490831 123.794872 8.464039 123.903846 8.437602 124.012821 8.411521 124.121795 8.385797 124.230769 8.360431 124.339744 8.335424 124.448718 8.310779 124.557692 8.286495 124.666667 8.262575 124.775641 8.239020 124.884615 8.215830 124.993590 8.193007 125.102564 8.170553 125.211538 8.148468 125.320513 8.126754 125.429487 8.105412 125.538462 8.084444 125.647436 8.063850 125.756410 8.043631 125.865385 8.023790 125.974359 8.004328 126.083333 7.985244 126.192308 7.966542 126.301282 7.948222 126.410256 7.930285 126.519231 7.912732 126.628205 7.895566 126.737179 7.878787 126.846154 7.862395 126.955128 7.846394 127.064103 7.830783 127.173077 7.815565 127.282051 7.800739 127.391026 7.786309 127.500000 7.772274 127.608974 7.758636 127.717949 7.745397 127.826923 7.732557 127.935897 7.720118 128.044872 7.708082 128.153846 7.696448 128.262821 7.685219 128.371795 7.674396 128.480769 7.663980 128.589744 7.653973 128.698718 7.644375 128.807692 7.635188 128.916667 7.626413 129.025641 7.618051 129.134615 7.610104 129.243590 7.602573 129.352564 7.595459 129.461538 7.588763 129.570513 7.582487 129.679487 7.576632 129.788462 7.571199 129.897436 7.566189 130.006410 7.561604 130.115385 7.557445 130.224359 7.553713 130.333333 7.550409 130.442308 7.547535 130.551282 7.545092 130.660256 7.543081 130.769231 7.541503 130.878205 7.540360 130.987179 7.539653 131.096154 7.539382 131.205128 7.539551 131.314103 7.540159 131.423077 7.541207 131.532051 7.542698 131.641026 7.544633 131.750000 7.547011 131.858974 7.549836 131.967949 7.553108 132.076923 7.556829 132.185897 7.560998 132.294872 7.565619 132.403846 7.570692 132.512821 7.576219 132.621795 7.582200 132.730769 7.588637 132.839744 7.595531 132.948718 7.602883 133.057692 7.610695 133.166667 7.618968 133.275641 7.627703 133.384615 7.636902 133.493590 7.646565 133.602564 7.656694 133.711538 7.667290 133.820513 7.678355 133.929487 7.689889 134.038462 7.701895 134.147436 7.714372 134.256410 7.727323 134.365385 7.740748 134.474359 7.754649 134.583333 7.769028 134.692308 7.783885 134.801282 7.799221 134.910256 7.815039 135.019231 7.831339 135.128205 7.848122 135.237179 7.865389 135.346154 7.883143 135.455128 7.901384 135.564103 7.920113 135.673077 7.939332 135.782051 7.959042 135.891026 7.979244 136.000000 7.999939 136.108974 8.021129 136.217949 8.042815 136.326923 8.064998 136.435897 8.087680 136.544872 8.110861 136.653846 8.134544 136.762821 8.158728 136.871795 8.183416 136.980769 8.208608 137.089744 8.234307 137.198718 8.260512 137.307692 8.287226 137.416667 8.314450 137.525641 8.342185 137.634615 8.370432 137.743590 8.399192 137.852564 8.428467 137.961538 8.458258 138.070513 8.488566 138.179487 8.519393 138.288462 8.550739 138.397436 8.582606 138.506410 8.614996 138.615385 8.647909 138.724359 8.681346 138.833333 8.715310 138.942308 8.749800 139.051282 8.784820 139.160256 8.820368 139.269231 8.856448 139.378205 8.893060 139.487179 8.930206 139.596154 8.967885 139.705128 9.006098 139.814103 9.044840 139.923077 9.084111 140.032051 9.123908 140.141026 9.164229 140.250000 9.205072 140.358974 9.246435 140.467949 9.288315 140.576923 9.330711 140.685897 9.373620 140.794872 9.417040 140.903846 9.460969 141.012821 9.505406 141.121795 9.550347 141.230769 9.595790 141.339744 9.641734 141.448718 9.688177 141.557692 9.735115 141.666667 9.782548 141.775641 9.830472 141.884615 9.878887 141.993590 9.927789 142.102564 9.977176 142.211538 10.027047 142.320513 10.077399 142.429487 10.128231 142.538462 10.179539 142.647436 10.231322 142.756410 10.283578 142.865385 10.336304 142.974359 10.389499 143.083333 10.443160 143.192308 10.497285 143.301282 10.551872 143.410256 10.606918 143.519231 10.662423 143.628205 10.718383 143.737179 10.774797 143.846154 10.831662 143.955128 10.888976 144.064103 10.946737 144.173077 11.004943 144.282051 11.063591 144.391026 11.122681 144.500000 11.182208 144.608974 11.242172 144.717949 11.302571 144.826923 11.363401 144.935897 11.424661 145.044872 11.486349 145.153846 11.548463 145.262821 11.611000 145.371795 11.673958 145.480769 11.737336 145.589744 11.801130 145.698718 11.865340 145.807692 11.929962 145.916667 11.994995 146.025641 12.060437 146.134615 12.126285 146.243590 12.192537 146.352564 12.259191 146.461538 12.326246 146.570513 12.393698 146.679487 12.461545 146.788462 12.529787 146.897436 12.598419 147.006410 12.667441 147.115385 12.736851 147.224359 12.806645 147.333333 12.876822 147.442308 12.947379 147.551282 13.018315 147.660256 13.089628 147.769231 13.161315 147.878205 13.233374 147.987179 13.305803 148.096154 13.378600 148.205128 13.451763 148.314103 13.525289 148.423077 13.599177 148.532051 13.673424 148.641026 13.748029 148.750000 13.822988 148.858974 13.898300 148.967949 13.973963 149.076923 14.049975 149.185897 14.126333 149.294872 14.203035 149.403846 14.280080 149.512821 14.357465 149.621795 14.435188 149.730769 14.513246 149.839744 14.591638 149.948718 14.670362 150.057692 14.749415 150.166667 14.828795 150.275641 14.908501 150.384615 14.988529 150.493590 15.068878 150.602564 15.149546 150.711538 15.230531 150.820513 15.311829 150.929487 15.393440 151.038462 15.475362 151.147436 15.557591 151.256410 15.640126 151.365385 15.722965 151.474359 15.806105 151.583333 15.889545 151.692308 15.973282 151.801282 16.057314 151.910256 16.141639 152.019231 16.226256 152.128205 16.311160 152.237179 16.396352 152.346154 16.481828 152.455128 16.567586 152.564103 16.653625 152.673077 16.739941 152.782051 16.826534 152.891026 16.913400 153.000000 17.000538 153.108974 17.087945 153.217949 17.175620 153.326923 17.263559 153.435897 17.351762 153.544872 17.440226 153.653846 17.528949 153.762821 17.617928 153.871795 17.707162 153.980769 17.796648 154.089744 17.886385 154.198718 17.976369 154.307692 18.066600 154.416667 18.157074 154.525641 18.247790 154.634615 18.338746 154.743590 18.429939 154.852564 18.521367 154.961538 18.613029 155.070513 18.704921 155.179487 18.797043 155.288462 18.889391 155.397436 18.981963 155.506410 19.074758 155.615385 19.167773 155.724359 19.261007 155.833333 19.354456 155.942308 19.448120 156.051282 19.541995 156.160256 19.636080 156.269231 19.730372 156.378205 19.824869 156.487179 19.919570 156.596154 20.014472 156.705128 20.109572 156.814103 20.204870 156.923077 20.300362 157.032051 20.396047 157.141026 20.491921 157.250000 20.587985 157.358974 20.684234 157.467949 20.780667 157.576923 20.877282 157.685897 20.974076 157.794872 21.071049 157.903846 21.168196 158.012821 21.265517 158.121795 21.363009 158.230769 21.460670 158.339744 21.558497 158.448718 21.656490 158.557692 21.754645 158.666667 21.852960 158.775641 21.951433 158.884615 22.050063 158.993590 22.148847 159.102564 22.247782 159.211538 22.346868 159.320513 22.446101 159.429487 22.545479 159.538462 22.645001 159.647436 22.744663 159.756410 22.844465 159.865385 22.944404 159.974359 23.044477 160.083333 23.144683 160.192308 23.245020 160.301282 23.345485 160.410256 23.446076 160.519231 23.546791 160.628205 23.647628 160.737179 23.748585 160.846154 23.849659 160.955128 23.950849 161.064103 24.052152 161.173077 24.153567 161.282051 24.255090 161.391026 24.356721 161.500000 24.458456 161.608974 24.560294 161.717949 24.662232 161.826923 24.764269 161.935897 24.866402 162.044872 24.968630 162.153846 25.070949 162.262821 25.173358 162.371795 25.275855 162.480769 25.378437 162.589744 25.481102 162.698718 25.583849 162.807692 25.686676 162.916667 25.789579 163.025641 25.892557 163.134615 25.995607 163.243590 26.098729 163.352564 26.201918 163.461538 26.305174 163.570513 26.408494 163.679487 26.511877 163.788462 26.615319 163.897436 26.718818 164.006410 26.822374 164.115385 26.925983 164.224359 27.029643 164.333333 27.133353 164.442308 27.237109 164.551282 27.340910 164.660256 27.444755 164.769231 27.548639 164.878205 27.652563 164.987179 27.756522 165.096154 27.860516 165.205128 27.964542 165.314103 28.068598 165.423077 28.172682 165.532051 28.276791 165.641026 28.380924 165.750000 28.485079 165.858974 28.589252 165.967949 28.693443 166.076923 28.797648 166.185897 28.901867 166.294872 29.006096 166.403846 29.110334 166.512821 29.214578 166.621795 29.318826 166.730769 29.423077" class="line reactive nofill" /></g></g><g class="titles" /><g transform="translate(20, 10)" class="plot overlay"><g class="series serie-0 color-0" /></g><g transform="translate(20, 10)" class="plot text-overlay"><g class="series serie-0 color-0" /></g><g transform="translate(20, 10)" class="plot tooltip-overlay"><g transform="translate(0 0)" style="opacity: 0" class="tooltip"><rect rx="0" ry="0" width="0" height="0" class="tooltip-box" /><g class="text" /></g></g></g></svg>