<?xml version='1.0' encoding='utf-8'?>
<svg xmlns="http://www.w3.org/2000/svg" id="chart-a187e902-1fb3-4077-8db5-ce5ae3b702bb" class="pygal-chart pygal-sparkline" viewBox="0 0 200 50" width="200" height="50"><!--Generated with pygal 3.0.5 (etree) ©Kozea 2012-2016 on 2024-10-22--><!--http://pygal.org--><!--http://github.com/Kozea/pygal--><defs><style type="text/css">#chart-a187e902-1fb3-4077-8db5-ce5ae3b702bb{-webkit-user-select:none;-webkit-font-smoothing:antialiased;font-family:Consolas,"Liberation Mono",Menlo,Courier,monospace}#chart-a187e902-1fb3-4077-8db5-ce5ae3b702bb .title{font-family:Consolas,"Liberation Mono",Menlo,Courier,monospace;font-size:16px}#chart-a187e902-1fb3-4077-8db5-ce5ae3b702bb .legends .legend text{font-family:Consolas,"Liberation Mono",Menlo,Courier,monospace;font-size:14px}#chart-a187e902-1fb3-4077-8db5-ce5ae3b702bb .axis text{font-family:Consolas,"Liberation Mono",Menlo,Courier,monospace;font-size:10px}#chart-a187e902-1fb3-4077-8db5-ce5ae3b702bb .axis text.major{font-family:Consolas,"Liberation Mono",Menlo,Courier,monospace;font-size:10px}#chart-a187e902-1fb3-4077-8db5-ce5ae3b702bb .text-overlay text.value{font-family:Consolas,"Liberation Mono",Menlo,Courier,monospace;font-size:16px}#chart-a187e902-1fb3-4077-8db5-ce5ae3b702bb .text-overlay text.label{font-family:Consolas,"Liberation Mono",Menlo,Courier,monospace;font-size:10px}#chart-a187e902-1fb3-4077-8db5-ce5ae3b702bb .tooltip{font-family:Consolas,"Liberation Mono",Menlo,Courier,monospace;font-size:14px}#chart-a187e902-1fb3-4077-8db5-ce5ae3b702bb text.no_data{font-family:Consolas,"Liberation Mono",Menlo,Courier,monospace;font-size:64px}
#chart-a187e902-1fb3-4077-8db5-ce5ae3b702bb{background-color:rgba(249,249,249,1)}#chart-a187e902-1fb3-4077-8db5-ce5ae3b702bb path,#chart-a187e902-1fb3-4077-8db5-ce5ae3b702bb line,#chart-a187e902-1fb3-4077-8db5-ce5ae3b702bb rect,#chart-a187e902-1fb3-4077-8db5-ce5ae3b702bb circle{-webkit-transition:150ms;-moz-transition:150ms;transition:150ms}#chart-a187e902-1fb3-4077-8db5-ce5ae3b702bb .graph &gt; .background{fill:rgba(249,249,249,1)}#chart-a187e902-1fb3-4077-8db5-ce5ae3b702bb .plot &gt; .background{fill:rgba(255,255,255,1)}#chart-a187e902-1fb3-4077-8db5-ce5ae3b702bb .graph{fill:rgba(0,0,0,.87)}#chart-a187e902-1fb3-4077-8db5-ce5ae3b702bb text.no_data{fill:rgba(0,0,0,1)}#chart-a187e902-1fb3-4077-8db5-ce5ae3b702bb .title{fill:rgba(0,0,0,1)}#chart-a187e902-1fb3-4077-8db5-ce5ae3b702bb .legends .legend text{fill:rgba(0,0,0,.87)}#chart-a187e902-1fb3-4077-8db5-ce5ae3b702bb .legends .legend:hover text{fill:rgba(0,0,0,1)}#chart-a187e902-1fb3-4077-8db5-ce5ae3b702bb .axis .line{stroke:rgba(0,0,0,1)}#chart-a187e902-1fb3-4077-8db5-ce5ae3b702bb .axis .guide.line{stroke:rgba(0,0,0,.54)}#chart-a187e902-1fb3-4077-8db5-ce5ae3b702bb .axis .major.line{stroke:rgba(0,0,0,.87)}#chart-a187e902-1fb3-4077-8db5-ce5ae3b702bb .axis text.major{fill:rgba(0,0,0,1)}#chart-a187e902-1fb3-4077-8db5-ce5ae3b702bb .axis.y .guides:hover .guide.line,#chart-a187e902-1fb3-4077-8db5-ce5ae3b702bb .line-graph .axis.x .guides:hover .guide.line,#chart-a187e902-1fb3-4077-8db5-ce5ae3b702bb .stackedline-graph .axis.x .guides:hover .guide.line,#chart-a187e902-1fb3-4077-8db5-ce5ae3b702bb .xy-graph .axis.x .guides:hover .guide.line{stroke:rgba(0,0,0,1)}#chart-a187e902-1fb3-4077-8db5-ce5ae3b702bb .axis .guides:hover text{fill:rgba(0,0,0,1)}#chart-a187e902-1fb3-4077-8db5-ce5ae3b702bb .reactive{fill-opacity:.7;stroke-opacity:.8;stroke-width:1}#chart-a187e902-1fb3-4077-8db5-ce5ae3b702bb .ci{stroke:rgba(0,0,0,.87)}#chart-a187e902-1fb3-4077-8db5-ce5ae3b702bb .reactive.active,#chart-a187e902-1fb3-4077-8db5-ce5ae3b702bb .active .reactive{fill-opacity:.8;stroke-opacity:.9;stroke-width:4}#chart-a187e902-1fb3-4077-8db5-ce5ae3b702bb .ci .reactive.active{stroke-width:1.5}#chart-a187e902-1fb3-4077-8db5-ce5ae3b702bb .series text{fill:rgba(0,0,0,1)}#chart-a187e902-1fb3-4077-8db5-ce5ae3b702bb .tooltip rect{fill:rgba(255,255,255,1);stroke:rgba(0,0,0,1);-webkit-transition:opacity 150ms;-moz-transition:opacity 150ms;transition:opacity 150ms}#chart-a187e902-1fb3-4077-8db5-ce5ae3b702bb .tooltip .label{fill:rgba(0,0,0,.87)}#chart-a187e902-1fb3-4077-8db5-ce5ae3b702bb .tooltip .label{fill:rgba(0,0,0,.87)}#chart-a187e902-1fb3-4077-8db5-ce5ae3b702bb .tooltip .legend{font-size:.8em;fill:rgba(0,0,0,.54)}#chart-a187e902-1fb3-4077-8db5-ce5ae3b702bb .tooltip .x_label{font-size:.6em;fill:rgba(0,0,0,1)}#chart-a187e902-1fb3-4077-8db5-ce5ae3b702bb .tooltip .xlink{font-size:.5em;text-decoration:underline}#chart-a187e902-1fb3-4077-8db5-ce5ae3b702bb .tooltip .value{font-size:1.5em}#chart-a187e902-1fb3-4077-8db5-ce5ae3b702bb .bound{font-size:.5em}#chart-a187e902-1fb3-4077-8db5-ce5ae3b702bb .max-value{font-size:.75em;fill:rgba(0,0,0,.54)}#chart-a187e902-1fb3-4077-8db5-ce5ae3b702bb .map-element{fill:rgba(255,255,255,1);stroke:rgba(0,0,0,.54) !important}#chart-a187e902-1fb3-4077-8db5-ce5ae3b702bb .map-element .reactive{fill-opacity:inherit;stroke-opacity:inherit}#chart-a187e902-1fb3-4077-8db5-ce5ae3b702bb .color-0,#chart-a187e902-1fb3-4077-8db5-ce5ae3b702bb .color-0 a:visited{stroke:#F44336;fill:#F44336}#chart-a187e902-1fb3-4077-8db5-ce5ae3b702bb .text-overlay .color-0 text{fill:black}
#chart-a187e902-1fb3-4077-8db5-ce5ae3b702bb text.no_data{text-anchor:middle}#chart-a187e902-1fb3-4077-8db5-ce5ae3b702bb .guide.line{fill:none}#chart-a187e902-1fb3-4077-8db5-ce5ae3b702bb .centered{text-anchor:middle}#chart-a187e902-1fb3-4077-8db5-ce5ae3b702bb .title{text-anchor:middle}#chart-a187e902-1fb3-4077-8db5-ce5ae3b702bb .legends .legend text{fill-opacity:1}#chart-a187e902-1fb3-4077-8db5-ce5ae3b702bb .axis.x text{text-anchor:middle}#chart-a187e902-1fb3-4077-8db5-ce5ae3b702bb .axis.x:not(.web) text[transform]{text-anchor:start}#chart-a187e902-1fb3-4077-8db5-ce5ae3b702bb .axis.x:not(.web) text[transform].backwards{text-anchor:end}#chart-a187e902-1fb3-4077-8db5-ce5ae3b702bb .axis.y text{text-anchor:end}#chart-a187e902-1fb3-4077-8db5-ce5ae3b702bb .axis.y text[transform].backwards{text-anchor:start}#chart-a187e902-1fb3-4077-8db5-ce5ae3b702bb .axis.y2 text{text-anchor:start}#chart-a187e902-1fb3-4077-8db5-ce5ae3b702bb .axis.y2 text[transform].backwards{text-anchor:end}#chart-a187e902-1fb3-4077-8db5-ce5ae3b702bb .axis .guide.line{stroke-dasharray:4,4;stroke:black}#chart-a187e902-1fb3-4077-8db5-ce5ae3b702bb .axis .major.guide.line{stroke-dasharray:6,6;stroke:black}#chart-a187e902-1fb3-4077-8db5-ce5ae3b702bb .horizontal .axis.y .guide.line,#chart-a187e902-1fb3-4077-8db5-ce5ae3b702bb .horizontal .axis.y2 .guide.line,#chart-a187e902-1fb3-4077-8db5-ce5ae3b702bb .vertical .axis.x .guide.line{opacity:0}#chart-a187e902-1fb3-4077-8db5-ce5ae3b702bb .horizontal .axis.always_show .guide.line,#chart-a187e902-1fb3-4077-8db5-ce5ae3b702bb .vertical .axis.always_show .guide.line{opacity:1 !important}#chart-a187e902-1fb3-4077-8db5-ce5ae3b702bb .axis.y .guides:hover .guide.line,#chart-a187e902-1fb3-4077-8db5-ce5ae3b702bb .axis.y2 .guides:hover .guide.line,#chart-a187e902-1fb3-4077-8db5-ce5ae3b702bb .axis.x .guides:hover .guide.line{opacity:1}#chart-a187e902-1fb3-4077-8db5-ce5ae3b702bb .axis .guides:hover text{opacity:1}#chart-a187e902-1fb3-4077-8db5-ce5ae3b702bb .nofill{fill:none}#chart-a187e902-1fb3-4077-8db5-ce5ae3b702bb .subtle-fill{fill-opacity:.2}#chart-a187e902-1fb3-4077-8db5-ce5ae3b702bb .dot{stroke-width:1px;fill-opacity:1;stroke-opacity:1}#chart-a187e902-1fb3-4077-8db5-ce5ae3b702bb .dot.active{stroke-width:5px}#chart-a187e902-1fb3-4077-8db5-ce5ae3b702bb .dot.negative{fill:transparent}#chart-a187e902-1fb3-4077-8db5-ce5ae3b702bb text,#chart-a187e902-1fb3-4077-8db5-ce5ae3b702bb tspan{stroke:none !important}#chart-a187e902-1fb3-4077-8db5-ce5ae3b702bb .series text.active{opacity:1}#chart-a187e902-1fb3-4077-8db5-ce5ae3b702bb .tooltip rect{fill-opacity:.95;stroke-width:.5}#chart-a187e902-1fb3-4077-8db5-ce5ae3b702bb .tooltip text{fill-opacity:1}#chart-a187e902-1fb3-4077-8db5-ce5ae3b702bb .showable{visibility:hidden}#chart-a187e902-1fb3-4077-8db5-ce5ae3b702bb .showable.shown{visibility:visible}#chart-a187e902-1fb3-4077-8db5-ce5ae3b702bb .gauge-background{fill:rgba(229,229,229,1);stroke:none}#chart-a187e902-1fb3-4077-8db5-ce5ae3b702bb .bg-lines{stroke:rgba(249,249,249,1);stroke-width:2px}</style><script type="text/javascript">window.pygal = window.pygal || {};window.pygal.config = window.pygal.config || {};window.pygal.config['a187e902-1fb3-4077-8db5-ce5ae3b702bb'] = {"allow_interruptions": false, "box_mode": "extremes", "classes": ["pygal-chart", "pygal-sparkline"], "css": ["file://style.css", "file://graph.css"], "defs": [], "disable_xml_declaration": false, "dots_size": 2.5, "dynamic_print_values": false, "explicit_size": true, "fill": false, "force_uri_protocol": "https", "formatter": null, "half_pie": false, "height": 50, "include_x_axis": false, "inner_radius": 0, "interpolate": "cubic", "interpolation_parameters": {}, "interpolation_precision": 250, "inverse_y_axis": false, "js": [], "legend_at_bottom": false, "legend_at_bottom_columns": null, "legend_box_size": 12, "logarithmic": false, "margin": 10, "margin_bottom": null, "margin_left": null, "margin_right": null, "margin_top": null, "max_scale": 2, "min_scale": 1, "missing_value_fill_truncation": "x", "no_data_text": "", "no_prefix": false, "order_min": null, "pretty_print": false, "print_labels": false, "print_values": false, "print_values_position": "center", "print_zeroes": true, "range": null, "rounded_bars": null, "secondary_range": null, "show_dots": false, "show_legend": false, "show_minor_x_labels": true, "show_minor_y_labels": true, "show_only_major_dots": false, "show_x_guides": false, "show_x_labels": false, "show_y_guides": true, "show_y_labels": true, "spacing": 0, "stack_from_top": false, "strict": false, "stroke": true, "stroke_style": null, "style": {"background": "rgba(249, 249, 249, 1)", "ci_colors": [], "colors": ["#F44336", "#3F51B5", "#009688", "#FFC107", "#FF5722", "#9C27B0", "#03A9F4", "#8BC34A", "#FF9800", "#E91E63", "#2196F3", "#4CAF50", "#FFEB3B", "#673AB7", "#00BCD4", "#CDDC39", "#9E9E9E", "#607D8B"], "dot_opacity": "1", "font_family": "Consolas, \"Liberation Mono\", Menlo, Courier, monospace", "foreground": "rgba(0, 0, 0, .87)", "foreground_strong": "rgba(0, 0, 0, 1)", "foreground_subtle": "rgba(0, 0, 0, .54)", "guide_stroke_color": "black", "guide_stroke_dasharray": "4,4", "label_font_family": "Consolas, \"Liberation Mono\", Menlo, Courier, monospace", "label_font_size": 10, "legend_font_family": "Consolas, \"Liberation Mono\", Menlo, Courier, monospace", "legend_font_size": 14, "major_guide_stroke_color": "black", "major_guide_stroke_dasharray": "6,6", "major_label_font_family": "Consolas, \"Liberation Mono\", Menlo, Courier, monospace", "major_label_font_size": 10, "no_data_font_family": "Consolas, \"Liberation Mono\", Menlo, Courier, monospace", "no_data_font_size": 64, "opacity": ".7", "opacity_hover": ".8", "plot_background": "rgba(255, 255, 255, 1)", "stroke_opacity": ".8", "stroke_opacity_hover": ".9", "stroke_width": "1", "stroke_width_hover": "4", "title_font_family": "Consolas, \"Liberation Mono\", Menlo, Courier, monospace", "title_font_size": 16, "tooltip_font_family": "Consolas, \"Liberation Mono\", Menlo, Courier, monospace", "tooltip_font_size": 14, "transition": "150ms", "value_background": "rgba(229, 229, 229, 1)", "value_colors": [], "value_font_family": "Consolas, \"Liberation Mono\", Menlo, Courier, monospace", "value_font_size": 16, "value_label_font_family": "Consolas, \"Liberation Mono\", Menlo, Courier, monospace", "value_label_font_size": 10}, "title": null, "tooltip_border_radius": 0, "tooltip_fancy_mode": true, "truncate_label": null, "truncate_legend": null, "width": 200, "x_label_rotation": 0, "x_labels": ["2024/10", "2024/9", "2024/8", "2024/7"], "x_labels_major": null, "x_labels_major_count": null, "x_labels_major_every": null, "x_title": null, "xrange": null, "y_label_rotation": 0, "y_labels": null, "y_labels_major": null, "y_labels_major_count": null, "y_labels_major_every": null, "y_title": null, "zero": 0, "legends": [""]}</script></defs><title>Pygal</title><g class="graph line-graph vertical"><rect x="0" y="0" width="200" height="50" class="background" /><g transform="translate(76, 10)" class="plot"><rect x="0" y="0" width="114.0" height="30" class="background" /><g class="axis y always_show"><path d="M0.000000 30.000000 h114.000000" class="line" /><g class="guides"><path d="M0.000000 29.423077 h114.000000" class="guide line" /><text x="-5" y="32.92307692307692" class="">2.442385613</text><title>2.442385613</title></g><g class="guides"><path d="M0.000000 0.576923 h114.000000" class="guide line" /><text x="-5" y="4.076923076923077" class="">13</text><title>13</title></g></g><g class="series serie-0 color-0"><path d="M2.192308 25.167268 L2.338462 25.204427 2.484615 25.241583 2.630769 25.278733 2.776923 25.315877 2.923077 25.353010 3.069231 25.390130 3.215385 25.427236 3.361538 25.464324 3.507692 25.501391 3.653846 25.538436 3.800000 25.575456 3.946154 25.612448 4.092308 25.649410 4.238462 25.686339 4.384615 25.723233 4.530769 25.760089 4.676923 25.796905 4.823077 25.833678 4.969231 25.870406 5.115385 25.907086 5.261538 25.943716 5.407692 25.980292 5.553846 26.016813 5.700000 26.053277 5.846154 26.089680 5.992308 26.126020 6.138462 26.162294 6.284615 26.198501 6.430769 26.234637 6.576923 26.270700 6.723077 26.306687 6.869231 26.342596 7.015385 26.378425 7.161538 26.414171 7.307692 26.449831 7.453846 26.485403 7.600000 26.520884 7.746154 26.556272 7.892308 26.591565 8.038462 26.626759 8.184615 26.661853 8.330769 26.696843 8.476923 26.731727 8.623077 26.766504 8.769231 26.801169 8.915385 26.835721 9.061538 26.870158 9.207692 26.904475 9.353846 26.938673 9.500000 26.972746 9.646154 27.006694 9.792308 27.040514 9.938462 27.074202 10.084615 27.107757 10.230769 27.141176 10.376923 27.174456 10.523077 27.207596 10.669231 27.240592 10.815385 27.273442 10.961538 27.306143 11.107692 27.338694 11.253846 27.371090 11.400000 27.403331 11.546154 27.435413 11.692308 27.467334 11.838462 27.499091 11.984615 27.530682 12.130769 27.562104 12.276923 27.593355 12.423077 27.624432 12.569231 27.655333 12.715385 27.686055 12.861538 27.716596 13.007692 27.746953 13.153846 27.777124 13.300000 27.807106 13.446154 27.836896 13.592308 27.866493 13.738462 27.895893 13.884615 27.925094 14.030769 27.954094 14.176923 27.982890 14.323077 28.011479 14.469231 28.039860 14.615385 28.068029 14.761538 28.095984 14.907692 28.123722 15.053846 28.151241 15.200000 28.178539 15.346154 28.205612 15.492308 28.232459 15.638462 28.259077 15.784615 28.285463 15.930769 28.311615 16.076923 28.337530 16.223077 28.363206 16.369231 28.388640 16.515385 28.413830 16.661538 28.438774 16.807692 28.463468 16.953846 28.487910 17.100000 28.512098 17.246154 28.536029 17.392308 28.559700 17.538462 28.583110 17.684615 28.606255 17.830769 28.629134 17.976923 28.651743 18.123077 28.674080 18.269231 28.696143 18.415385 28.717928 18.561538 28.739434 18.707692 28.760658 18.853846 28.781598 19.000000 28.802251 19.146154 28.822613 19.292308 28.842684 19.438462 28.862460 19.584615 28.881940 19.730769 28.901119 19.876923 28.919996 20.023077 28.938569 20.169231 28.956834 20.315385 28.974790 20.461538 28.992433 20.607692 29.009762 20.753846 29.026773 20.900000 29.043465 21.046154 29.059834 21.192308 29.075879 21.338462 29.091596 21.484615 29.106983 21.630769 29.122038 21.776923 29.136758 21.923077 29.151141 22.069231 29.165183 22.215385 29.178883 22.361538 29.192238 22.507692 29.205246 22.653846 29.217904 22.800000 29.230209 22.946154 29.242159 23.092308 29.253752 23.238462 29.264984 23.384615 29.275854 23.530769 29.286359 23.676923 29.296496 23.823077 29.306263 23.969231 29.315657 24.115385 29.324676 24.261538 29.333318 24.407692 29.341579 24.553846 29.349457 24.700000 29.356950 24.846154 29.364056 24.992308 29.370771 25.138462 29.377093 25.284615 29.383020 25.430769 29.388549 25.576923 29.393678 25.723077 29.398404 25.869231 29.402724 26.015385 29.406637 26.161538 29.410139 26.307692 29.413228 26.453846 29.415901 26.600000 29.418157 26.746154 29.419992 26.892308 29.421404 27.038462 29.422391 27.184615 29.422949 27.330769 29.423077 27.476923 29.422772 27.623077 29.422031 27.769231 29.420852 27.915385 29.419232 28.061538 29.417169 28.207692 29.414661 28.353846 29.411704 28.500000 29.408297 28.646154 29.404436 28.792308 29.400119 28.938462 29.395345 29.084615 29.390109 29.230769 29.384410 29.376923 29.378245 29.523077 29.371612 29.669231 29.364508 29.815385 29.356931 29.961538 29.348878 30.107692 29.340346 30.253846 29.331333 30.400000 29.321837 30.546154 29.311855 30.692308 29.301384 30.838462 29.290423 30.984615 29.278967 31.130769 29.267016 31.276923 29.254566 31.423077 29.241616 31.569231 29.228161 31.715385 29.214200 31.861538 29.199731 32.007692 29.184751 32.153846 29.169257 32.300000 29.153246 32.446154 29.136717 32.592308 29.119667 32.738462 29.102093 32.884615 29.083992 33.030769 29.065363 33.176923 29.046203 33.323077 29.026509 33.469231 29.006278 33.615385 28.985509 33.761538 28.964198 33.907692 28.942343 34.053846 28.919942 34.200000 28.896992 34.346154 28.873490 34.492308 28.849435 34.638462 28.824823 34.784615 28.799652 34.930769 28.773919 35.076923 28.747623 35.223077 28.720760 35.369231 28.693327 35.515385 28.665324 35.661538 28.636746 35.807692 28.607591 35.953846 28.577857 36.100000 28.547542 36.246154 28.516642 36.392308 28.485156 36.538462 28.453081 36.684615 28.420413 36.830769 28.387152 36.976923 28.353294 37.123077 28.318836 37.269231 28.283777 37.415385 28.248113 37.561538 28.211842 37.707692 28.174963 37.853846 28.137471 38.000000 28.099364 38.146154 28.060641 38.292308 28.021299 38.438462 27.981334 38.584615 27.940745 38.730769 27.899529 38.876923 27.857685 39.023077 27.815215 39.169231 27.772124 39.315385 27.728416 39.461538 27.684096 39.607692 27.639167 39.753846 27.593633 39.900000 27.547500 40.046154 27.500770 40.192308 27.453449 40.338462 27.405541 40.484615 27.357049 40.630769 27.307977 40.776923 27.258331 40.923077 27.208114 41.069231 27.157331 41.215385 27.105985 41.361538 27.054081 41.507692 27.001623 41.653846 26.948615 41.800000 26.895062 41.946154 26.840967 42.092308 26.786335 42.238462 26.731170 42.384615 26.675476 42.530769 26.619258 42.676923 26.562519 42.823077 26.505264 42.969231 26.447498 43.115385 26.389223 43.261538 26.330445 43.407692 26.271167 43.553846 26.211394 43.700000 26.151130 43.846154 26.090379 43.992308 26.029146 44.138462 25.967434 44.284615 25.905248 44.430769 25.842592 44.576923 25.779470 44.723077 25.715886 44.869231 25.651845 45.015385 25.587351 45.161538 25.522407 45.307692 25.457019 45.453846 25.391190 45.600000 25.324925 45.746154 25.258228 45.892308 25.191102 46.038462 25.123552 46.184615 25.055583 46.330769 24.987198 46.476923 24.918402 46.623077 24.849199 46.769231 24.779594 46.915385 24.709589 47.061538 24.639190 47.207692 24.568400 47.353846 24.497225 47.500000 24.425667 47.646154 24.353732 47.792308 24.281424 47.938462 24.208746 48.084615 24.135703 48.230769 24.062299 48.376923 23.988538 48.523077 23.914425 48.669231 23.839963 48.815385 23.765157 48.961538 23.690012 49.107692 23.614530 49.253846 23.538717 49.400000 23.462577 49.546154 23.386114 49.692308 23.309331 49.838462 23.232234 49.984615 23.154826 50.130769 23.077112 50.276923 22.999096 50.423077 22.920782 50.569231 22.842174 50.715385 22.763276 50.861538 22.684094 51.007692 22.604629 51.153846 22.524888 51.300000 22.444874 51.446154 22.364592 51.592308 22.284045 51.738462 22.203238 51.884615 22.122175 52.030769 22.040860 52.176923 21.959298 52.323077 21.877492 52.469231 21.795447 52.615385 21.713167 52.761538 21.630656 52.907692 21.547918 53.053846 21.464958 53.200000 21.381780 53.346154 21.298387 53.492308 21.214785 53.638462 21.130978 53.784615 21.046968 53.930769 20.962762 54.076923 20.878363 54.223077 20.793774 54.369231 20.709001 54.515385 20.624048 54.661538 20.538918 54.807692 20.453616 54.953846 20.368147 55.100000 20.282513 55.246154 20.196720 55.392308 20.110772 55.538462 20.024673 55.684615 19.938427 55.830769 19.852038 55.976923 19.765511 56.123077 19.678850 56.269231 19.592058 56.415385 19.505140 56.561538 19.418101 56.707692 19.330944 56.853846 19.243674 57.000000 19.156295 57.146154 19.068811 57.292308 18.981226 57.438462 18.893545 57.584615 18.805771 57.730769 18.717909 57.876923 18.629964 58.023077 18.541938 58.169231 18.453837 58.315385 18.365665 58.461538 18.277425 58.607692 18.189123 58.753846 18.100762 58.900000 18.012346 59.046154 17.923880 59.192308 17.835367 59.338462 17.746813 59.484615 17.658221 59.630769 17.569595 59.776923 17.480940 59.923077 17.392260 60.069231 17.303559 60.215385 17.214841 60.361538 17.126111 60.507692 17.037372 60.653846 16.948629 60.800000 16.859885 60.946154 16.771147 61.092308 16.682416 61.238462 16.593698 61.384615 16.504997 61.530769 16.416317 61.676923 16.327662 61.823077 16.239036 61.969231 16.150444 62.115385 16.061890 62.261538 15.973378 62.407692 15.884911 62.553846 15.796496 62.700000 15.708134 62.846154 15.619832 62.992308 15.531592 63.138462 15.443420 63.284615 15.355319 63.430769 15.267294 63.576923 15.179348 63.723077 15.091486 63.869231 15.003712 64.015385 14.916031 64.161538 14.828446 64.307692 14.740962 64.453846 14.653583 64.600000 14.566313 64.746154 14.479156 64.892308 14.392117 65.038462 14.305199 65.184615 14.218408 65.330769 14.131746 65.476923 14.045219 65.623077 13.958830 65.769231 13.872584 65.915385 13.786485 66.061538 13.700537 66.207692 13.614744 66.353846 13.529111 66.500000 13.443641 66.646154 13.358339 66.792308 13.273209 66.938462 13.188256 67.084615 13.103483 67.230769 13.018895 67.376923 12.934495 67.523077 12.850289 67.669231 12.766280 67.815385 12.682472 67.961538 12.598870 68.107692 12.515477 68.253846 12.432299 68.400000 12.349339 68.546154 12.266602 68.692308 12.184091 68.838462 12.101811 68.984615 12.019765 69.130769 11.937960 69.276923 11.856397 69.423077 11.775082 69.569231 11.694019 69.715385 11.613212 69.861538 11.532665 70.007692 11.452383 70.153846 11.372369 70.300000 11.292628 70.446154 11.213164 70.592308 11.133981 70.738462 11.055083 70.884615 10.976475 71.030769 10.898161 71.176923 10.820145 71.323077 10.742431 71.469231 10.665023 71.615385 10.587926 71.761538 10.511144 71.907692 10.434680 72.053846 10.358540 72.200000 10.282727 72.346154 10.207246 72.492308 10.132100 72.638462 10.057294 72.784615 9.982833 72.930769 9.908719 73.076923 9.834959 73.223077 9.761555 73.369231 9.688512 73.515385 9.615834 73.661538 9.543525 73.807692 9.471590 73.953846 9.400032 74.100000 9.328857 74.246154 9.258067 74.392308 9.187668 74.538462 9.117664 74.684615 9.048058 74.830769 8.978855 74.976923 8.910059 75.123077 8.841674 75.269231 8.773705 75.415385 8.706154 75.561538 8.639022 75.707692 8.572306 75.853846 8.506004 76.000000 8.440116 76.146154 8.374638 76.292308 8.309571 76.438462 8.244911 76.584615 8.180657 76.730769 8.116808 76.876923 8.053362 77.023077 7.990317 77.169231 7.927672 77.315385 7.865424 77.461538 7.803573 77.607692 7.742116 77.753846 7.681052 77.900000 7.620379 78.046154 7.560096 78.192308 7.500200 78.338462 7.440691 78.484615 7.381566 78.630769 7.322823 78.776923 7.264462 78.923077 7.206480 79.069231 7.148876 79.215385 7.091648 79.361538 7.034794 79.507692 6.978313 79.653846 6.922203 79.800000 6.866462 79.946154 6.811089 80.092308 6.756081 80.238462 6.701438 80.384615 6.647158 80.530769 6.593239 80.676923 6.539678 80.823077 6.486476 80.969231 6.433629 81.115385 6.381136 81.261538 6.328996 81.407692 6.277207 81.553846 6.225767 81.700000 6.174675 81.846154 6.123928 81.992308 6.073525 82.138462 6.023465 82.284615 5.973746 82.430769 5.924366 82.576923 5.875323 82.723077 5.826616 82.869231 5.778243 83.015385 5.730202 83.161538 5.682492 83.307692 5.635111 83.453846 5.588058 83.600000 5.541330 83.746154 5.494926 83.892308 5.448844 84.038462 5.403083 84.184615 5.357641 84.330769 5.312517 84.476923 5.267707 84.623077 5.223212 84.769231 5.179029 84.915385 5.135157 85.061538 5.091593 85.207692 5.048337 85.353846 5.005386 85.500000 4.962739 85.646154 4.920394 85.792308 4.878350 85.938462 4.836604 86.084615 4.795156 86.230769 4.754003 86.376923 4.713144 86.523077 4.672577 86.669231 4.632300 86.815385 4.592312 86.961538 4.552611 87.107692 4.513196 87.253846 4.474064 87.400000 4.435214 87.546154 4.396645 87.692308 4.358354 87.838462 4.320341 87.984615 4.282602 88.130769 4.245137 88.276923 4.207944 88.423077 4.171022 88.569231 4.134368 88.715385 4.097981 88.861538 4.061859 89.007692 4.026000 89.153846 3.990404 89.300000 3.955068 89.446154 3.919990 89.592308 3.885169 89.738462 3.850603 89.884615 3.816291 90.030769 3.782231 90.176923 3.748421 90.323077 3.714859 90.469231 3.681544 90.615385 3.648474 90.761538 3.615647 90.907692 3.583062 91.053846 3.550717 91.200000 3.518611 91.346154 3.486741 91.492308 3.455107 91.638462 3.423705 91.784615 3.392536 91.930769 3.361596 92.076923 3.330884 92.223077 3.300400 92.369231 3.270140 92.515385 3.240103 92.661538 3.210288 92.807692 3.180693 92.953846 3.151316 93.100000 3.122156 93.246154 3.093211 93.392308 3.064478 93.538462 3.035958 93.684615 3.007647 93.830769 2.979544 93.976923 2.951648 94.123077 2.923956 94.269231 2.896468 94.415385 2.869181 94.561538 2.842094 94.707692 2.815205 94.853846 2.788512 95.000000 2.762015 95.146154 2.735710 95.292308 2.709596 95.438462 2.683673 95.584615 2.657937 95.730769 2.632387 95.876923 2.607023 96.023077 2.581841 96.169231 2.556840 96.315385 2.532020 96.461538 2.507377 96.607692 2.482910 96.753846 2.458618 96.900000 2.434499 97.046154 2.410551 97.192308 2.386772 97.338462 2.363162 97.484615 2.339718 97.630769 2.316438 97.776923 2.293321 97.923077 2.270365 98.069231 2.247569 98.215385 2.224930 98.361538 2.202448 98.507692 2.180120 98.653846 2.157945 98.800000 2.135920 98.946154 2.114046 99.092308 2.092319 99.238462 2.070738 99.384615 2.049301 99.530769 2.028007 99.676923 2.006854 99.823077 1.985841 99.969231 1.964965 100.115385 1.944225 100.261538 1.923619 100.407692 1.903146 100.553846 1.882804 100.700000 1.862591 100.846154 1.842506 100.992308 1.822547 101.138462 1.802712 101.284615 1.782999 101.430769 1.763407 101.576923 1.743935 101.723077 1.724580 101.869231 1.705341 102.015385 1.686216 102.161538 1.667203 102.307692 1.648301 102.453846 1.629509 102.600000 1.610824 102.746154 1.592244 102.892308 1.573769 103.038462 1.555396 103.184615 1.537124 103.330769 1.518950 103.476923 1.500875 103.623077 1.482894 103.769231 1.465008 103.915385 1.447215 104.061538 1.429511 104.207692 1.411897 104.353846 1.394370 104.500000 1.376929 104.646154 1.359572 104.792308 1.342297 104.938462 1.325102 105.084615 1.307986 105.230769 1.290948 105.376923 1.273985 105.523077 1.257096 105.669231 1.240279 105.815385 1.223533 105.961538 1.206856 106.107692 1.190245 106.253846 1.173700 106.400000 1.157219 106.546154 1.140800 106.692308 1.124442 106.838462 1.108142 106.984615 1.091899 107.130769 1.075712 107.276923 1.059579 107.423077 1.043497 107.569231 1.027466 107.715385 1.011483 107.861538 0.995548 108.007692 0.979658 108.153846 0.963811 108.300000 0.948007 108.446154 0.932242 108.592308 0.916517 108.738462 0.900828 108.884615 0.885175 109.030769 0.869555 109.176923 0.853967 109.323077 0.838409 109.469231 0.822880 109.615385 0.807377 109.761538 0.791900 109.907692 0.776446 110.053846 0.761014 110.200000 0.745603 110.346154 0.730209 110.492308 0.714833 110.638462 0.699472 110.784615 0.684124 110.930769 0.668787 111.076923 0.653461 111.223077 0.638144 111.369231 0.622833 111.515385 0.607527 111.661538 0.592224 111.807692 0.576923" class="line reactive nofill" /></g></g><g class="titles" /><g transform="translate(76, 10)" class="plot overlay"><g class="series serie-0 color-0" /></g><g transform="translate(76, 10)" class="plot text-overlay"><g class="series serie-0 color-0" /></g><g transform="translate(76, 10)" class="plot tooltip-overlay"><g transform="translate(0 0)" style="opacity: 0" class="tooltip"><rect rx="0" ry="0" width="0" height="0" class="tooltip-box" /><g class="text" /></g></g></g></svg>