<?xml version='1.0' encoding='utf-8'?>
<svg xmlns="http://www.w3.org/2000/svg" id="chart-b931d199-f320-40d0-bd5b-a3b999a1ae63" class="pygal-chart pygal-sparkline" viewBox="0 0 200 50" width="200" height="50"><!--Generated with pygal 3.0.4 (etree) ©Kozea 2012-2016 on 2024-07-21--><!--http://pygal.org--><!--http://github.com/Kozea/pygal--><defs><style type="text/css">#chart-b931d199-f320-40d0-bd5b-a3b999a1ae63{-webkit-user-select:none;-webkit-font-smoothing:antialiased;font-family:Consolas,"Liberation Mono",Menlo,Courier,monospace}#chart-b931d199-f320-40d0-bd5b-a3b999a1ae63 .title{font-family:Consolas,"Liberation Mono",Menlo,Courier,monospace;font-size:16px}#chart-b931d199-f320-40d0-bd5b-a3b999a1ae63 .legends .legend text{font-family:Consolas,"Liberation Mono",Menlo,Courier,monospace;font-size:14px}#chart-b931d199-f320-40d0-bd5b-a3b999a1ae63 .axis text{font-family:Consolas,"Liberation Mono",Menlo,Courier,monospace;font-size:10px}#chart-b931d199-f320-40d0-bd5b-a3b999a1ae63 .axis text.major{font-family:Consolas,"Liberation Mono",Menlo,Courier,monospace;font-size:10px}#chart-b931d199-f320-40d0-bd5b-a3b999a1ae63 .text-overlay text.value{font-family:Consolas,"Liberation Mono",Menlo,Courier,monospace;font-size:16px}#chart-b931d199-f320-40d0-bd5b-a3b999a1ae63 .text-overlay text.label{font-family:Consolas,"Liberation Mono",Menlo,Courier,monospace;font-size:10px}#chart-b931d199-f320-40d0-bd5b-a3b999a1ae63 .tooltip{font-family:Consolas,"Liberation Mono",Menlo,Courier,monospace;font-size:14px}#chart-b931d199-f320-40d0-bd5b-a3b999a1ae63 text.no_data{font-family:Consolas,"Liberation Mono",Menlo,Courier,monospace;font-size:64px}
#chart-b931d199-f320-40d0-bd5b-a3b999a1ae63{background-color:rgba(249,249,249,1)}#chart-b931d199-f320-40d0-bd5b-a3b999a1ae63 path,#chart-b931d199-f320-40d0-bd5b-a3b999a1ae63 line,#chart-b931d199-f320-40d0-bd5b-a3b999a1ae63 rect,#chart-b931d199-f320-40d0-bd5b-a3b999a1ae63 circle{-webkit-transition:150ms;-moz-transition:150ms;transition:150ms}#chart-b931d199-f320-40d0-bd5b-a3b999a1ae63 .graph &gt; .background{fill:rgba(249,249,249,1)}#chart-b931d199-f320-40d0-bd5b-a3b999a1ae63 .plot &gt; .background{fill:rgba(255,255,255,1)}#chart-b931d199-f320-40d0-bd5b-a3b999a1ae63 .graph{fill:rgba(0,0,0,.87)}#chart-b931d199-f320-40d0-bd5b-a3b999a1ae63 text.no_data{fill:rgba(0,0,0,1)}#chart-b931d199-f320-40d0-bd5b-a3b999a1ae63 .title{fill:rgba(0,0,0,1)}#chart-b931d199-f320-40d0-bd5b-a3b999a1ae63 .legends .legend text{fill:rgba(0,0,0,.87)}#chart-b931d199-f320-40d0-bd5b-a3b999a1ae63 .legends .legend:hover text{fill:rgba(0,0,0,1)}#chart-b931d199-f320-40d0-bd5b-a3b999a1ae63 .axis .line{stroke:rgba(0,0,0,1)}#chart-b931d199-f320-40d0-bd5b-a3b999a1ae63 .axis .guide.line{stroke:rgba(0,0,0,.54)}#chart-b931d199-f320-40d0-bd5b-a3b999a1ae63 .axis .major.line{stroke:rgba(0,0,0,.87)}#chart-b931d199-f320-40d0-bd5b-a3b999a1ae63 .axis text.major{fill:rgba(0,0,0,1)}#chart-b931d199-f320-40d0-bd5b-a3b999a1ae63 .axis.y .guides:hover .guide.line,#chart-b931d199-f320-40d0-bd5b-a3b999a1ae63 .line-graph .axis.x .guides:hover .guide.line,#chart-b931d199-f320-40d0-bd5b-a3b999a1ae63 .stackedline-graph .axis.x .guides:hover .guide.line,#chart-b931d199-f320-40d0-bd5b-a3b999a1ae63 .xy-graph .axis.x .guides:hover .guide.line{stroke:rgba(0,0,0,1)}#chart-b931d199-f320-40d0-bd5b-a3b999a1ae63 .axis .guides:hover text{fill:rgba(0,0,0,1)}#chart-b931d199-f320-40d0-bd5b-a3b999a1ae63 .reactive{fill-opacity:.7;stroke-opacity:.8;stroke-width:1}#chart-b931d199-f320-40d0-bd5b-a3b999a1ae63 .ci{stroke:rgba(0,0,0,.87)}#chart-b931d199-f320-40d0-bd5b-a3b999a1ae63 .reactive.active,#chart-b931d199-f320-40d0-bd5b-a3b999a1ae63 .active .reactive{fill-opacity:.8;stroke-opacity:.9;stroke-width:4}#chart-b931d199-f320-40d0-bd5b-a3b999a1ae63 .ci .reactive.active{stroke-width:1.5}#chart-b931d199-f320-40d0-bd5b-a3b999a1ae63 .series text{fill:rgba(0,0,0,1)}#chart-b931d199-f320-40d0-bd5b-a3b999a1ae63 .tooltip rect{fill:rgba(255,255,255,1);stroke:rgba(0,0,0,1);-webkit-transition:opacity 150ms;-moz-transition:opacity 150ms;transition:opacity 150ms}#chart-b931d199-f320-40d0-bd5b-a3b999a1ae63 .tooltip .label{fill:rgba(0,0,0,.87)}#chart-b931d199-f320-40d0-bd5b-a3b999a1ae63 .tooltip .label{fill:rgba(0,0,0,.87)}#chart-b931d199-f320-40d0-bd5b-a3b999a1ae63 .tooltip .legend{font-size:.8em;fill:rgba(0,0,0,.54)}#chart-b931d199-f320-40d0-bd5b-a3b999a1ae63 .tooltip .x_label{font-size:.6em;fill:rgba(0,0,0,1)}#chart-b931d199-f320-40d0-bd5b-a3b999a1ae63 .tooltip .xlink{font-size:.5em;text-decoration:underline}#chart-b931d199-f320-40d0-bd5b-a3b999a1ae63 .tooltip .value{font-size:1.5em}#chart-b931d199-f320-40d0-bd5b-a3b999a1ae63 .bound{font-size:.5em}#chart-b931d199-f320-40d0-bd5b-a3b999a1ae63 .max-value{font-size:.75em;fill:rgba(0,0,0,.54)}#chart-b931d199-f320-40d0-bd5b-a3b999a1ae63 .map-element{fill:rgba(255,255,255,1);stroke:rgba(0,0,0,.54) !important}#chart-b931d199-f320-40d0-bd5b-a3b999a1ae63 .map-element .reactive{fill-opacity:inherit;stroke-opacity:inherit}#chart-b931d199-f320-40d0-bd5b-a3b999a1ae63 .color-0,#chart-b931d199-f320-40d0-bd5b-a3b999a1ae63 .color-0 a:visited{stroke:#F44336;fill:#F44336}#chart-b931d199-f320-40d0-bd5b-a3b999a1ae63 .text-overlay .color-0 text{fill:black}
#chart-b931d199-f320-40d0-bd5b-a3b999a1ae63 text.no_data{text-anchor:middle}#chart-b931d199-f320-40d0-bd5b-a3b999a1ae63 .guide.line{fill:none}#chart-b931d199-f320-40d0-bd5b-a3b999a1ae63 .centered{text-anchor:middle}#chart-b931d199-f320-40d0-bd5b-a3b999a1ae63 .title{text-anchor:middle}#chart-b931d199-f320-40d0-bd5b-a3b999a1ae63 .legends .legend text{fill-opacity:1}#chart-b931d199-f320-40d0-bd5b-a3b999a1ae63 .axis.x text{text-anchor:middle}#chart-b931d199-f320-40d0-bd5b-a3b999a1ae63 .axis.x:not(.web) text[transform]{text-anchor:start}#chart-b931d199-f320-40d0-bd5b-a3b999a1ae63 .axis.x:not(.web) text[transform].backwards{text-anchor:end}#chart-b931d199-f320-40d0-bd5b-a3b999a1ae63 .axis.y text{text-anchor:end}#chart-b931d199-f320-40d0-bd5b-a3b999a1ae63 .axis.y text[transform].backwards{text-anchor:start}#chart-b931d199-f320-40d0-bd5b-a3b999a1ae63 .axis.y2 text{text-anchor:start}#chart-b931d199-f320-40d0-bd5b-a3b999a1ae63 .axis.y2 text[transform].backwards{text-anchor:end}#chart-b931d199-f320-40d0-bd5b-a3b999a1ae63 .axis .guide.line{stroke-dasharray:4,4;stroke:black}#chart-b931d199-f320-40d0-bd5b-a3b999a1ae63 .axis .major.guide.line{stroke-dasharray:6,6;stroke:black}#chart-b931d199-f320-40d0-bd5b-a3b999a1ae63 .horizontal .axis.y .guide.line,#chart-b931d199-f320-40d0-bd5b-a3b999a1ae63 .horizontal .axis.y2 .guide.line,#chart-b931d199-f320-40d0-bd5b-a3b999a1ae63 .vertical .axis.x .guide.line{opacity:0}#chart-b931d199-f320-40d0-bd5b-a3b999a1ae63 .horizontal .axis.always_show .guide.line,#chart-b931d199-f320-40d0-bd5b-a3b999a1ae63 .vertical .axis.always_show .guide.line{opacity:1 !important}#chart-b931d199-f320-40d0-bd5b-a3b999a1ae63 .axis.y .guides:hover .guide.line,#chart-b931d199-f320-40d0-bd5b-a3b999a1ae63 .axis.y2 .guides:hover .guide.line,#chart-b931d199-f320-40d0-bd5b-a3b999a1ae63 .axis.x .guides:hover .guide.line{opacity:1}#chart-b931d199-f320-40d0-bd5b-a3b999a1ae63 .axis .guides:hover text{opacity:1}#chart-b931d199-f320-40d0-bd5b-a3b999a1ae63 .nofill{fill:none}#chart-b931d199-f320-40d0-bd5b-a3b999a1ae63 .subtle-fill{fill-opacity:.2}#chart-b931d199-f320-40d0-bd5b-a3b999a1ae63 .dot{stroke-width:1px;fill-opacity:1;stroke-opacity:1}#chart-b931d199-f320-40d0-bd5b-a3b999a1ae63 .dot.active{stroke-width:5px}#chart-b931d199-f320-40d0-bd5b-a3b999a1ae63 .dot.negative{fill:transparent}#chart-b931d199-f320-40d0-bd5b-a3b999a1ae63 text,#chart-b931d199-f320-40d0-bd5b-a3b999a1ae63 tspan{stroke:none !important}#chart-b931d199-f320-40d0-bd5b-a3b999a1ae63 .series text.active{opacity:1}#chart-b931d199-f320-40d0-bd5b-a3b999a1ae63 .tooltip rect{fill-opacity:.95;stroke-width:.5}#chart-b931d199-f320-40d0-bd5b-a3b999a1ae63 .tooltip text{fill-opacity:1}#chart-b931d199-f320-40d0-bd5b-a3b999a1ae63 .showable{visibility:hidden}#chart-b931d199-f320-40d0-bd5b-a3b999a1ae63 .showable.shown{visibility:visible}#chart-b931d199-f320-40d0-bd5b-a3b999a1ae63 .gauge-background{fill:rgba(229,229,229,1);stroke:none}#chart-b931d199-f320-40d0-bd5b-a3b999a1ae63 .bg-lines{stroke:rgba(249,249,249,1);stroke-width:2px}</style><script type="text/javascript">window.pygal = window.pygal || {};window.pygal.config = window.pygal.config || {};window.pygal.config['b931d199-f320-40d0-bd5b-a3b999a1ae63'] = {"allow_interruptions": false, "box_mode": "extremes", "classes": ["pygal-chart", "pygal-sparkline"], "css": ["file://style.css", "file://graph.css"], "defs": [], "disable_xml_declaration": false, "dots_size": 2.5, "dynamic_print_values": false, "explicit_size": true, "fill": false, "force_uri_protocol": "https", "formatter": null, "half_pie": false, "height": 50, "include_x_axis": false, "inner_radius": 0, "interpolate": "cubic", "interpolation_parameters": {}, "interpolation_precision": 250, "inverse_y_axis": false, "js": [], "legend_at_bottom": false, "legend_at_bottom_columns": null, "legend_box_size": 12, "logarithmic": false, "margin": 10, "margin_bottom": null, "margin_left": null, "margin_right": null, "margin_top": null, "max_scale": 2, "min_scale": 1, "missing_value_fill_truncation": "x", "no_data_text": "", "no_prefix": false, "order_min": null, "pretty_print": false, "print_labels": false, "print_values": false, "print_values_position": "center", "print_zeroes": true, "range": null, "rounded_bars": null, "secondary_range": null, "show_dots": false, "show_legend": false, "show_minor_x_labels": true, "show_minor_y_labels": true, "show_only_major_dots": false, "show_x_guides": false, "show_x_labels": false, "show_y_guides": true, "show_y_labels": true, "spacing": 0, "stack_from_top": false, "strict": false, "stroke": true, "stroke_style": null, "style": {"background": "rgba(249, 249, 249, 1)", "ci_colors": [], "colors": ["#F44336", "#3F51B5", "#009688", "#FFC107", "#FF5722", "#9C27B0", "#03A9F4", "#8BC34A", "#FF9800", "#E91E63", "#2196F3", "#4CAF50", "#FFEB3B", "#673AB7", "#00BCD4", "#CDDC39", "#9E9E9E", "#607D8B"], "dot_opacity": "1", "font_family": "Consolas, \"Liberation Mono\", Menlo, Courier, monospace", "foreground": "rgba(0, 0, 0, .87)", "foreground_strong": "rgba(0, 0, 0, 1)", "foreground_subtle": "rgba(0, 0, 0, .54)", "guide_stroke_color": "black", "guide_stroke_dasharray": "4,4", "label_font_family": "Consolas, \"Liberation Mono\", Menlo, Courier, monospace", "label_font_size": 10, "legend_font_family": "Consolas, \"Liberation Mono\", Menlo, Courier, monospace", "legend_font_size": 14, "major_guide_stroke_color": "black", "major_guide_stroke_dasharray": "6,6", "major_label_font_family": "Consolas, \"Liberation Mono\", Menlo, Courier, monospace", "major_label_font_size": 10, "no_data_font_family": "Consolas, \"Liberation Mono\", Menlo, Courier, monospace", "no_data_font_size": 64, "opacity": ".7", "opacity_hover": ".8", "plot_background": "rgba(255, 255, 255, 1)", "stroke_opacity": ".8", "stroke_opacity_hover": ".9", "stroke_width": "1", "stroke_width_hover": "4", "title_font_family": "Consolas, \"Liberation Mono\", Menlo, Courier, monospace", "title_font_size": 16, "tooltip_font_family": "Consolas, \"Liberation Mono\", Menlo, Courier, monospace", "tooltip_font_size": 14, "transition": "150ms", "value_background": "rgba(229, 229, 229, 1)", "value_colors": [], "value_font_family": "Consolas, \"Liberation Mono\", Menlo, Courier, monospace", "value_font_size": 16, "value_label_font_family": "Consolas, \"Liberation Mono\", Menlo, Courier, monospace", "value_label_font_size": 10}, "title": null, "tooltip_border_radius": 0, "tooltip_fancy_mode": true, "truncate_label": null, "truncate_legend": null, "width": 200, "x_label_rotation": 0, "x_labels": ["2024/7", "2024/6", "2024/5", "2024/4"], "x_labels_major": null, "x_labels_major_count": null, "x_labels_major_every": null, "x_title": null, "xrange": null, "y_label_rotation": 0, "y_labels": null, "y_labels_major": null, "y_labels_major_count": null, "y_labels_major_every": null, "y_title": null, "zero": 0, "legends": [""]}</script></defs><title>Pygal</title><g class="graph line-graph vertical"><rect x="0" y="0" width="200" height="50" class="background" /><g transform="translate(22, 10)" class="plot"><rect x="0" y="0" width="168.0" height="30" class="background" /><g class="axis y always_show"><path d="M0.000000 30.000000 h168.000000" class="line" /><g class="guides"><path d="M0.000000 29.423077 h168.000000" class="guide line" /><text x="-5" y="32.92307692307692" class="">1</text><title>1</title></g><g class="guides"><path d="M0.000000 0.576923 h168.000000" class="guide line" /><text x="-5" y="4.076923076923077" class="">14</text><title>14</title></g></g><g class="series serie-0 color-0"><path d="M3.230769 0.576923 L3.446154 0.662722 3.661538 0.748518 3.876923 0.834309 4.092308 0.920094 4.307692 1.005870 4.523077 1.091634 4.738462 1.177385 4.953846 1.263120 5.169231 1.348836 5.384615 1.434533 5.600000 1.520206 5.815385 1.605854 6.030769 1.691476 6.246154 1.777067 6.461538 1.862627 6.676923 1.948153 6.892308 2.033642 7.107692 2.119093 7.323077 2.204503 7.538462 2.289870 7.753846 2.375191 7.969231 2.460465 8.184615 2.545688 8.400000 2.630860 8.615385 2.715976 8.830769 2.801036 9.046154 2.886037 9.261538 2.970977 9.476923 3.055853 9.692308 3.140663 9.907692 3.225405 10.123077 3.310076 10.338462 3.394675 10.553846 3.479198 10.769231 3.563645 10.984615 3.648012 11.200000 3.732297 11.415385 3.816498 11.630769 3.900613 11.846154 3.984639 12.061538 4.068574 12.276923 4.152416 12.492308 4.236163 12.707692 4.319812 12.923077 4.403361 13.138462 4.486808 13.353846 4.570150 13.569231 4.653385 13.784615 4.736512 14.000000 4.819527 14.215385 4.902428 14.430769 4.985214 14.646154 5.067881 14.861538 5.150428 15.076923 5.232852 15.292308 5.315151 15.507692 5.397323 15.723077 5.479366 15.938462 5.561277 16.153846 5.643053 16.369231 5.724694 16.584615 5.806195 16.800000 5.887556 17.015385 5.968774 17.230769 6.049846 17.446154 6.130771 17.661538 6.211545 17.876923 6.292168 18.092308 6.372636 18.307692 6.452947 18.523077 6.533099 18.738462 6.613090 18.953846 6.692917 19.169231 6.772578 19.384615 6.852071 19.600000 6.931394 19.815385 7.010544 20.030769 7.089519 20.246154 7.168317 20.461538 7.246935 20.676923 7.325371 20.892308 7.403624 21.107692 7.481690 21.323077 7.559568 21.538462 7.637254 21.753846 7.714748 21.969231 7.792046 22.184615 7.869147 22.400000 7.946047 22.615385 8.022746 22.830769 8.099239 23.046154 8.175526 23.261538 8.251604 23.476923 8.327471 23.692308 8.403124 23.907692 8.478562 24.123077 8.553781 24.338462 8.628779 24.553846 8.703555 24.769231 8.778107 24.984615 8.852430 25.200000 8.926525 25.415385 9.000387 25.630769 9.074016 25.846154 9.147408 26.061538 9.220562 26.276923 9.293475 26.492308 9.366145 26.707692 9.438569 26.923077 9.510746 27.138462 9.582672 27.353846 9.654347 27.569231 9.725767 27.784615 9.796930 28.000000 9.867834 28.215385 9.938477 28.430769 10.008857 28.646154 10.078970 28.861538 10.148816 29.076923 10.218391 29.292308 10.287693 29.507692 10.356720 29.723077 10.425470 29.938462 10.493941 30.153846 10.562130 30.369231 10.630035 30.584615 10.697654 30.800000 10.764984 31.015385 10.832023 31.230769 10.898769 31.446154 10.965220 31.661538 11.031373 31.876923 11.097226 32.092308 11.162777 32.307692 11.228024 32.523077 11.292963 32.738462 11.357594 32.953846 11.421914 33.169231 11.485919 33.384615 11.549609 33.600000 11.612981 33.815385 11.676033 34.030769 11.738762 34.246154 11.801166 34.461538 11.863243 34.676923 11.924990 34.892308 11.986405 35.107692 12.047487 35.323077 12.108232 35.538462 12.168639 35.753846 12.228705 35.969231 12.288428 36.184615 12.347805 36.400000 12.406835 36.615385 12.465515 36.830769 12.523842 37.046154 12.581816 37.261538 12.639432 37.476923 12.696690 37.692308 12.753586 37.907692 12.810118 38.123077 12.866285 38.338462 12.922084 38.553846 12.977512 38.769231 13.032568 38.984615 13.087249 39.200000 13.141552 39.415385 13.195477 39.630769 13.249019 39.846154 13.302178 40.061538 13.354950 40.276923 13.407333 40.492308 13.459326 40.707692 13.510926 40.923077 13.562130 41.138462 13.612937 41.353846 13.663344 41.569231 13.713348 41.784615 13.762949 42.000000 13.812142 42.215385 13.860926 42.430769 13.909300 42.646154 13.957259 42.861538 14.004803 43.076923 14.051929 43.292308 14.098634 43.507692 14.144917 43.723077 14.190775 43.938462 14.236206 44.153846 14.281207 44.369231 14.325777 44.584615 14.369912 44.800000 14.413612 45.015385 14.456872 45.230769 14.499692 45.446154 14.542069 45.661538 14.584001 45.876923 14.625485 46.092308 14.666519 46.307692 14.707101 46.523077 14.747228 46.738462 14.786899 46.953846 14.826110 47.169231 14.864861 47.384615 14.903148 47.600000 14.940969 47.815385 14.978322 48.030769 15.015205 48.246154 15.051615 48.461538 15.087550 48.676923 15.123008 48.892308 15.157987 49.107692 15.192484 49.323077 15.226497 49.538462 15.260024 49.753846 15.293062 49.969231 15.325609 50.184615 15.357664 50.400000 15.389223 50.615385 15.420284 50.830769 15.450846 51.046154 15.480905 51.261538 15.510460 51.476923 15.539508 51.692308 15.568047 51.907692 15.596075 52.123077 15.623590 52.338462 15.650589 52.553846 15.677069 52.769231 15.703030 52.984615 15.728467 53.200000 15.753380 53.415385 15.777766 53.630769 15.801622 53.846154 15.824947 54.061538 15.847737 54.276923 15.869992 54.492308 15.891708 54.707692 15.912883 54.923077 15.933515 55.138462 15.953602 55.353846 15.973141 55.569231 15.992130 55.784615 16.010567 56.000000 16.028450 56.215385 16.045776 56.430769 16.062543 56.646154 16.078749 56.861538 16.094391 57.076923 16.109467 57.292308 16.123977 57.507692 16.137923 57.723077 16.151310 57.938462 16.164143 58.153846 16.176426 58.369231 16.188164 58.584615 16.199360 58.800000 16.210021 59.015385 16.220150 59.230769 16.229751 59.446154 16.238831 59.661538 16.247392 59.876923 16.255439 60.092308 16.262978 60.307692 16.270012 60.523077 16.276546 60.738462 16.282585 60.953846 16.288133 61.169231 16.293195 61.384615 16.297775 61.600000 16.301878 61.815385 16.305509 62.030769 16.308671 62.246154 16.311370 62.461538 16.313609 62.676923 16.315395 62.892308 16.316730 63.107692 16.317620 63.323077 16.318070 63.538462 16.318083 63.753846 16.317664 63.969231 16.316818 64.184615 16.315550 64.400000 16.313863 64.615385 16.311763 64.830769 16.309254 65.046154 16.306341 65.261538 16.303027 65.476923 16.299319 65.692308 16.295219 65.907692 16.290733 66.123077 16.285865 66.338462 16.280621 66.553846 16.275003 66.769231 16.269018 66.984615 16.262669 67.200000 16.255961 67.415385 16.248898 67.630769 16.241486 67.846154 16.233728 68.061538 16.225629 68.276923 16.217194 68.492308 16.208428 68.707692 16.199334 68.923077 16.189917 69.138462 16.180183 69.353846 16.170134 69.569231 16.159777 69.784615 16.149115 70.000000 16.138154 70.215385 16.126897 70.430769 16.115349 70.646154 16.103515 70.861538 16.091399 71.076923 16.079006 71.292308 16.066340 71.507692 16.053406 71.723077 16.040209 71.938462 16.026752 72.153846 16.013041 72.369231 15.999081 72.584615 15.984874 72.800000 15.970427 73.015385 15.955744 73.230769 15.940828 73.446154 15.925686 73.661538 15.910321 73.876923 15.894738 74.092308 15.878941 74.307692 15.862935 74.523077 15.846725 74.738462 15.830314 74.953846 15.813708 75.169231 15.796912 75.384615 15.779929 75.600000 15.762764 75.815385 15.745422 76.030769 15.727908 76.246154 15.710225 76.461538 15.692379 76.676923 15.674373 76.892308 15.656213 77.107692 15.637904 77.323077 15.619448 77.538462 15.600852 77.753846 15.582120 77.969231 15.563255 78.184615 15.544264 78.400000 15.525150 78.615385 15.505917 78.830769 15.486571 79.046154 15.467116 79.261538 15.447557 79.476923 15.427897 79.692308 15.408142 79.907692 15.388296 80.123077 15.368364 80.338462 15.348350 80.553846 15.328259 80.769231 15.308095 80.984615 15.287863 81.200000 15.267567 81.415385 15.247212 81.630769 15.226803 81.846154 15.206343 82.061538 15.185838 82.276923 15.165293 82.492308 15.144711 82.707692 15.124097 82.923077 15.103456 83.138462 15.082792 83.353846 15.062110 83.569231 15.041414 83.784615 15.020709 84.000000 15.000000 84.215385 14.979291 84.430769 14.958586 84.646154 14.937890 84.861538 14.917208 85.076923 14.896544 85.292308 14.875903 85.507692 14.855289 85.723077 14.834707 85.938462 14.814162 86.153846 14.793657 86.369231 14.773197 86.584615 14.752788 86.800000 14.732433 87.015385 14.712137 87.230769 14.691905 87.446154 14.671741 87.661538 14.651650 87.876923 14.631636 88.092308 14.611704 88.307692 14.591858 88.523077 14.572103 88.738462 14.552443 88.953846 14.532884 89.169231 14.513429 89.384615 14.494083 89.600000 14.474850 89.815385 14.455736 90.030769 14.436745 90.246154 14.417880 90.461538 14.399148 90.676923 14.380552 90.892308 14.362096 91.107692 14.343787 91.323077 14.325627 91.538462 14.307621 91.753846 14.289775 91.969231 14.272092 92.184615 14.254578 92.400000 14.237236 92.615385 14.220071 92.830769 14.203088 93.046154 14.186292 93.261538 14.169686 93.476923 14.153275 93.692308 14.137065 93.907692 14.121059 94.123077 14.105262 94.338462 14.089679 94.553846 14.074314 94.769231 14.059172 94.984615 14.044256 95.200000 14.029573 95.415385 14.015126 95.630769 14.000919 95.846154 13.986959 96.061538 13.973248 96.276923 13.959791 96.492308 13.946594 96.707692 13.933660 96.923077 13.920994 97.138462 13.908601 97.353846 13.896485 97.569231 13.884651 97.784615 13.873103 98.000000 13.861846 98.215385 13.850885 98.430769 13.840223 98.646154 13.829866 98.861538 13.819817 99.076923 13.810083 99.292308 13.800666 99.507692 13.791572 99.723077 13.782806 99.938462 13.774371 100.153846 13.766272 100.369231 13.758514 100.584615 13.751102 100.800000 13.744039 101.015385 13.737331 101.230769 13.730982 101.446154 13.724997 101.661538 13.719379 101.876923 13.714135 102.092308 13.709267 102.307692 13.704781 102.523077 13.700681 102.738462 13.696973 102.953846 13.693659 103.169231 13.690746 103.384615 13.688237 103.600000 13.686137 103.815385 13.684450 104.030769 13.683182 104.246154 13.682336 104.461538 13.681917 104.676923 13.681930 104.892308 13.682380 105.107692 13.683270 105.323077 13.684605 105.538462 13.686391 105.753846 13.688630 105.969231 13.691329 106.184615 13.694491 106.400000 13.698122 106.615385 13.702225 106.830769 13.706805 107.046154 13.711867 107.261538 13.717415 107.476923 13.723454 107.692308 13.729988 107.907692 13.737022 108.123077 13.744561 108.338462 13.752608 108.553846 13.761169 108.769231 13.770249 108.984615 13.779850 109.200000 13.789979 109.415385 13.800640 109.630769 13.811836 109.846154 13.823574 110.061538 13.835857 110.276923 13.848690 110.492308 13.862077 110.707692 13.876023 110.923077 13.890533 111.138462 13.905609 111.353846 13.921251 111.569231 13.937457 111.784615 13.954224 112.000000 13.971550 112.215385 13.989433 112.430769 14.007870 112.646154 14.026859 112.861538 14.046398 113.076923 14.066485 113.292308 14.087117 113.507692 14.108292 113.723077 14.130008 113.938462 14.152263 114.153846 14.175053 114.369231 14.198378 114.584615 14.222234 114.800000 14.246620 115.015385 14.271533 115.230769 14.296970 115.446154 14.322931 115.661538 14.349411 115.876923 14.376410 116.092308 14.403925 116.307692 14.431953 116.523077 14.460492 116.738462 14.489540 116.953846 14.519095 117.169231 14.549154 117.384615 14.579716 117.600000 14.610777 117.815385 14.642336 118.030769 14.674391 118.246154 14.706938 118.461538 14.739976 118.676923 14.773503 118.892308 14.807516 119.107692 14.842013 119.323077 14.876992 119.538462 14.912450 119.753846 14.948385 119.969231 14.984795 120.184615 15.021678 120.400000 15.059031 120.615385 15.096852 120.830769 15.135139 121.046154 15.173890 121.261538 15.213101 121.476923 15.252772 121.692308 15.292899 121.907692 15.333481 122.123077 15.374515 122.338462 15.415999 122.553846 15.457931 122.769231 15.500308 122.984615 15.543128 123.200000 15.586388 123.415385 15.630088 123.630769 15.674223 123.846154 15.718793 124.061538 15.763794 124.276923 15.809225 124.492308 15.855083 124.707692 15.901366 124.923077 15.948071 125.138462 15.995197 125.353846 16.042741 125.569231 16.090700 125.784615 16.139074 126.000000 16.187858 126.215385 16.237051 126.430769 16.286652 126.646154 16.336656 126.861538 16.387063 127.076923 16.437870 127.292308 16.489074 127.507692 16.540674 127.723077 16.592667 127.938462 16.645050 128.153846 16.697822 128.369231 16.750981 128.584615 16.804523 128.800000 16.858448 129.015385 16.912751 129.230769 16.967432 129.446154 17.022488 129.661538 17.077916 129.876923 17.133715 130.092308 17.189882 130.307692 17.246414 130.523077 17.303310 130.738462 17.360568 130.953846 17.418184 131.169231 17.476158 131.384615 17.534485 131.600000 17.593165 131.815385 17.652195 132.030769 17.711572 132.246154 17.771295 132.461538 17.831361 132.676923 17.891768 132.892308 17.952513 133.107692 18.013595 133.323077 18.075010 133.538462 18.136757 133.753846 18.198834 133.969231 18.261238 134.184615 18.323967 134.400000 18.387019 134.615385 18.450391 134.830769 18.514081 135.046154 18.578086 135.261538 18.642406 135.476923 18.707037 135.692308 18.771976 135.907692 18.837223 136.123077 18.902774 136.338462 18.968627 136.553846 19.034780 136.769231 19.101231 136.984615 19.167977 137.200000 19.235016 137.415385 19.302346 137.630769 19.369965 137.846154 19.437870 138.061538 19.506059 138.276923 19.574530 138.492308 19.643280 138.707692 19.712307 138.923077 19.781609 139.138462 19.851184 139.353846 19.921030 139.569231 19.991143 139.784615 20.061523 140.000000 20.132166 140.215385 20.203070 140.430769 20.274233 140.646154 20.345653 140.861538 20.417328 141.076923 20.489254 141.292308 20.561431 141.507692 20.633855 141.723077 20.706525 141.938462 20.779438 142.153846 20.852592 142.369231 20.925984 142.584615 20.999613 142.800000 21.073475 143.015385 21.147570 143.230769 21.221893 143.446154 21.296445 143.661538 21.371221 143.876923 21.446219 144.092308 21.521438 144.307692 21.596876 144.523077 21.672529 144.738462 21.748396 144.953846 21.824474 145.169231 21.900761 145.384615 21.977254 145.600000 22.053953 145.815385 22.130853 146.030769 22.207954 146.246154 22.285252 146.461538 22.362746 146.676923 22.440432 146.892308 22.518310 147.107692 22.596376 147.323077 22.674629 147.538462 22.753065 147.753846 22.831683 147.969231 22.910481 148.184615 22.989456 148.400000 23.068606 148.615385 23.147929 148.830769 23.227422 149.046154 23.307083 149.261538 23.386910 149.476923 23.466901 149.692308 23.547053 149.907692 23.627364 150.123077 23.707832 150.338462 23.788455 150.553846 23.869229 150.769231 23.950154 150.984615 24.031226 151.200000 24.112444 151.415385 24.193805 151.630769 24.275306 151.846154 24.356947 152.061538 24.438723 152.276923 24.520634 152.492308 24.602677 152.707692 24.684849 152.923077 24.767148 153.138462 24.849572 153.353846 24.932119 153.569231 25.014786 153.784615 25.097572 154.000000 25.180473 154.215385 25.263488 154.430769 25.346615 154.646154 25.429850 154.861538 25.513192 155.076923 25.596639 155.292308 25.680188 155.507692 25.763837 155.723077 25.847584 155.938462 25.931426 156.153846 26.015361 156.369231 26.099387 156.584615 26.183502 156.800000 26.267703 157.015385 26.351988 157.230769 26.436355 157.446154 26.520802 157.661538 26.605325 157.876923 26.689924 158.092308 26.774595 158.307692 26.859337 158.523077 26.944147 158.738462 27.029023 158.953846 27.113963 159.169231 27.198964 159.384615 27.284024 159.600000 27.369140 159.815385 27.454312 160.030769 27.539535 160.246154 27.624809 160.461538 27.710130 160.676923 27.795497 160.892308 27.880907 161.107692 27.966358 161.323077 28.051847 161.538462 28.137373 161.753846 28.222933 161.969231 28.308524 162.184615 28.394146 162.400000 28.479794 162.615385 28.565467 162.830769 28.651164 163.046154 28.736880 163.261538 28.822615 163.476923 28.908366 163.692308 28.994130 163.907692 29.079906 164.123077 29.165691 164.338462 29.251482 164.553846 29.337278 164.769231 29.423077" class="line reactive nofill" /></g></g><g class="titles" /><g transform="translate(22, 10)" class="plot overlay"><g class="series serie-0 color-0" /></g><g transform="translate(22, 10)" class="plot text-overlay"><g class="series serie-0 color-0" /></g><g transform="translate(22, 10)" class="plot tooltip-overlay"><g transform="translate(0 0)" style="opacity: 0" class="tooltip"><rect rx="0" ry="0" width="0" height="0" class="tooltip-box" /><g class="text" /></g></g></g></svg>