<?xml version='1.0' encoding='utf-8'?>
<svg xmlns="http://www.w3.org/2000/svg" id="chart-704be944-b75d-4a66-85e9-b86d876e5dc7" class="pygal-chart pygal-sparkline" viewBox="0 0 200 50" width="200" height="50"><!--Generated with pygal 3.0.4 (etree) ©Kozea 2012-2016 on 2024-03-22--><!--http://pygal.org--><!--http://github.com/Kozea/pygal--><defs><style type="text/css">#chart-704be944-b75d-4a66-85e9-b86d876e5dc7{-webkit-user-select:none;-webkit-font-smoothing:antialiased;font-family:Consolas,"Liberation Mono",Menlo,Courier,monospace}#chart-704be944-b75d-4a66-85e9-b86d876e5dc7 .title{font-family:Consolas,"Liberation Mono",Menlo,Courier,monospace;font-size:16px}#chart-704be944-b75d-4a66-85e9-b86d876e5dc7 .legends .legend text{font-family:Consolas,"Liberation Mono",Menlo,Courier,monospace;font-size:14px}#chart-704be944-b75d-4a66-85e9-b86d876e5dc7 .axis text{font-family:Consolas,"Liberation Mono",Menlo,Courier,monospace;font-size:10px}#chart-704be944-b75d-4a66-85e9-b86d876e5dc7 .axis text.major{font-family:Consolas,"Liberation Mono",Menlo,Courier,monospace;font-size:10px}#chart-704be944-b75d-4a66-85e9-b86d876e5dc7 .text-overlay text.value{font-family:Consolas,"Liberation Mono",Menlo,Courier,monospace;font-size:16px}#chart-704be944-b75d-4a66-85e9-b86d876e5dc7 .text-overlay text.label{font-family:Consolas,"Liberation Mono",Menlo,Courier,monospace;font-size:10px}#chart-704be944-b75d-4a66-85e9-b86d876e5dc7 .tooltip{font-family:Consolas,"Liberation Mono",Menlo,Courier,monospace;font-size:14px}#chart-704be944-b75d-4a66-85e9-b86d876e5dc7 text.no_data{font-family:Consolas,"Liberation Mono",Menlo,Courier,monospace;font-size:64px}
#chart-704be944-b75d-4a66-85e9-b86d876e5dc7{background-color:rgba(249,249,249,1)}#chart-704be944-b75d-4a66-85e9-b86d876e5dc7 path,#chart-704be944-b75d-4a66-85e9-b86d876e5dc7 line,#chart-704be944-b75d-4a66-85e9-b86d876e5dc7 rect,#chart-704be944-b75d-4a66-85e9-b86d876e5dc7 circle{-webkit-transition:150ms;-moz-transition:150ms;transition:150ms}#chart-704be944-b75d-4a66-85e9-b86d876e5dc7 .graph &gt; .background{fill:rgba(249,249,249,1)}#chart-704be944-b75d-4a66-85e9-b86d876e5dc7 .plot &gt; .background{fill:rgba(255,255,255,1)}#chart-704be944-b75d-4a66-85e9-b86d876e5dc7 .graph{fill:rgba(0,0,0,.87)}#chart-704be944-b75d-4a66-85e9-b86d876e5dc7 text.no_data{fill:rgba(0,0,0,1)}#chart-704be944-b75d-4a66-85e9-b86d876e5dc7 .title{fill:rgba(0,0,0,1)}#chart-704be944-b75d-4a66-85e9-b86d876e5dc7 .legends .legend text{fill:rgba(0,0,0,.87)}#chart-704be944-b75d-4a66-85e9-b86d876e5dc7 .legends .legend:hover text{fill:rgba(0,0,0,1)}#chart-704be944-b75d-4a66-85e9-b86d876e5dc7 .axis .line{stroke:rgba(0,0,0,1)}#chart-704be944-b75d-4a66-85e9-b86d876e5dc7 .axis .guide.line{stroke:rgba(0,0,0,.54)}#chart-704be944-b75d-4a66-85e9-b86d876e5dc7 .axis .major.line{stroke:rgba(0,0,0,.87)}#chart-704be944-b75d-4a66-85e9-b86d876e5dc7 .axis text.major{fill:rgba(0,0,0,1)}#chart-704be944-b75d-4a66-85e9-b86d876e5dc7 .axis.y .guides:hover .guide.line,#chart-704be944-b75d-4a66-85e9-b86d876e5dc7 .line-graph .axis.x .guides:hover .guide.line,#chart-704be944-b75d-4a66-85e9-b86d876e5dc7 .stackedline-graph .axis.x .guides:hover .guide.line,#chart-704be944-b75d-4a66-85e9-b86d876e5dc7 .xy-graph .axis.x .guides:hover .guide.line{stroke:rgba(0,0,0,1)}#chart-704be944-b75d-4a66-85e9-b86d876e5dc7 .axis .guides:hover text{fill:rgba(0,0,0,1)}#chart-704be944-b75d-4a66-85e9-b86d876e5dc7 .reactive{fill-opacity:.7;stroke-opacity:.8;stroke-width:1}#chart-704be944-b75d-4a66-85e9-b86d876e5dc7 .ci{stroke:rgba(0,0,0,.87)}#chart-704be944-b75d-4a66-85e9-b86d876e5dc7 .reactive.active,#chart-704be944-b75d-4a66-85e9-b86d876e5dc7 .active .reactive{fill-opacity:.8;stroke-opacity:.9;stroke-width:4}#chart-704be944-b75d-4a66-85e9-b86d876e5dc7 .ci .reactive.active{stroke-width:1.5}#chart-704be944-b75d-4a66-85e9-b86d876e5dc7 .series text{fill:rgba(0,0,0,1)}#chart-704be944-b75d-4a66-85e9-b86d876e5dc7 .tooltip rect{fill:rgba(255,255,255,1);stroke:rgba(0,0,0,1);-webkit-transition:opacity 150ms;-moz-transition:opacity 150ms;transition:opacity 150ms}#chart-704be944-b75d-4a66-85e9-b86d876e5dc7 .tooltip .label{fill:rgba(0,0,0,.87)}#chart-704be944-b75d-4a66-85e9-b86d876e5dc7 .tooltip .label{fill:rgba(0,0,0,.87)}#chart-704be944-b75d-4a66-85e9-b86d876e5dc7 .tooltip .legend{font-size:.8em;fill:rgba(0,0,0,.54)}#chart-704be944-b75d-4a66-85e9-b86d876e5dc7 .tooltip .x_label{font-size:.6em;fill:rgba(0,0,0,1)}#chart-704be944-b75d-4a66-85e9-b86d876e5dc7 .tooltip .xlink{font-size:.5em;text-decoration:underline}#chart-704be944-b75d-4a66-85e9-b86d876e5dc7 .tooltip .value{font-size:1.5em}#chart-704be944-b75d-4a66-85e9-b86d876e5dc7 .bound{font-size:.5em}#chart-704be944-b75d-4a66-85e9-b86d876e5dc7 .max-value{font-size:.75em;fill:rgba(0,0,0,.54)}#chart-704be944-b75d-4a66-85e9-b86d876e5dc7 .map-element{fill:rgba(255,255,255,1);stroke:rgba(0,0,0,.54) !important}#chart-704be944-b75d-4a66-85e9-b86d876e5dc7 .map-element .reactive{fill-opacity:inherit;stroke-opacity:inherit}#chart-704be944-b75d-4a66-85e9-b86d876e5dc7 .color-0,#chart-704be944-b75d-4a66-85e9-b86d876e5dc7 .color-0 a:visited{stroke:#F44336;fill:#F44336}#chart-704be944-b75d-4a66-85e9-b86d876e5dc7 .text-overlay .color-0 text{fill:black}
#chart-704be944-b75d-4a66-85e9-b86d876e5dc7 text.no_data{text-anchor:middle}#chart-704be944-b75d-4a66-85e9-b86d876e5dc7 .guide.line{fill:none}#chart-704be944-b75d-4a66-85e9-b86d876e5dc7 .centered{text-anchor:middle}#chart-704be944-b75d-4a66-85e9-b86d876e5dc7 .title{text-anchor:middle}#chart-704be944-b75d-4a66-85e9-b86d876e5dc7 .legends .legend text{fill-opacity:1}#chart-704be944-b75d-4a66-85e9-b86d876e5dc7 .axis.x text{text-anchor:middle}#chart-704be944-b75d-4a66-85e9-b86d876e5dc7 .axis.x:not(.web) text[transform]{text-anchor:start}#chart-704be944-b75d-4a66-85e9-b86d876e5dc7 .axis.x:not(.web) text[transform].backwards{text-anchor:end}#chart-704be944-b75d-4a66-85e9-b86d876e5dc7 .axis.y text{text-anchor:end}#chart-704be944-b75d-4a66-85e9-b86d876e5dc7 .axis.y text[transform].backwards{text-anchor:start}#chart-704be944-b75d-4a66-85e9-b86d876e5dc7 .axis.y2 text{text-anchor:start}#chart-704be944-b75d-4a66-85e9-b86d876e5dc7 .axis.y2 text[transform].backwards{text-anchor:end}#chart-704be944-b75d-4a66-85e9-b86d876e5dc7 .axis .guide.line{stroke-dasharray:4,4;stroke:black}#chart-704be944-b75d-4a66-85e9-b86d876e5dc7 .axis .major.guide.line{stroke-dasharray:6,6;stroke:black}#chart-704be944-b75d-4a66-85e9-b86d876e5dc7 .horizontal .axis.y .guide.line,#chart-704be944-b75d-4a66-85e9-b86d876e5dc7 .horizontal .axis.y2 .guide.line,#chart-704be944-b75d-4a66-85e9-b86d876e5dc7 .vertical .axis.x .guide.line{opacity:0}#chart-704be944-b75d-4a66-85e9-b86d876e5dc7 .horizontal .axis.always_show .guide.line,#chart-704be944-b75d-4a66-85e9-b86d876e5dc7 .vertical .axis.always_show .guide.line{opacity:1 !important}#chart-704be944-b75d-4a66-85e9-b86d876e5dc7 .axis.y .guides:hover .guide.line,#chart-704be944-b75d-4a66-85e9-b86d876e5dc7 .axis.y2 .guides:hover .guide.line,#chart-704be944-b75d-4a66-85e9-b86d876e5dc7 .axis.x .guides:hover .guide.line{opacity:1}#chart-704be944-b75d-4a66-85e9-b86d876e5dc7 .axis .guides:hover text{opacity:1}#chart-704be944-b75d-4a66-85e9-b86d876e5dc7 .nofill{fill:none}#chart-704be944-b75d-4a66-85e9-b86d876e5dc7 .subtle-fill{fill-opacity:.2}#chart-704be944-b75d-4a66-85e9-b86d876e5dc7 .dot{stroke-width:1px;fill-opacity:1;stroke-opacity:1}#chart-704be944-b75d-4a66-85e9-b86d876e5dc7 .dot.active{stroke-width:5px}#chart-704be944-b75d-4a66-85e9-b86d876e5dc7 .dot.negative{fill:transparent}#chart-704be944-b75d-4a66-85e9-b86d876e5dc7 text,#chart-704be944-b75d-4a66-85e9-b86d876e5dc7 tspan{stroke:none !important}#chart-704be944-b75d-4a66-85e9-b86d876e5dc7 .series text.active{opacity:1}#chart-704be944-b75d-4a66-85e9-b86d876e5dc7 .tooltip rect{fill-opacity:.95;stroke-width:.5}#chart-704be944-b75d-4a66-85e9-b86d876e5dc7 .tooltip text{fill-opacity:1}#chart-704be944-b75d-4a66-85e9-b86d876e5dc7 .showable{visibility:hidden}#chart-704be944-b75d-4a66-85e9-b86d876e5dc7 .showable.shown{visibility:visible}#chart-704be944-b75d-4a66-85e9-b86d876e5dc7 .gauge-background{fill:rgba(229,229,229,1);stroke:none}#chart-704be944-b75d-4a66-85e9-b86d876e5dc7 .bg-lines{stroke:rgba(249,249,249,1);stroke-width:2px}</style><script type="text/javascript">window.pygal = window.pygal || {};window.pygal.config = window.pygal.config || {};window.pygal.config['704be944-b75d-4a66-85e9-b86d876e5dc7'] = {"allow_interruptions": false, "box_mode": "extremes", "classes": ["pygal-chart", "pygal-sparkline"], "css": ["file://style.css", "file://graph.css"], "defs": [], "disable_xml_declaration": false, "dots_size": 2.5, "dynamic_print_values": false, "explicit_size": true, "fill": false, "force_uri_protocol": "https", "formatter": null, "half_pie": false, "height": 50, "include_x_axis": false, "inner_radius": 0, "interpolate": "cubic", "interpolation_parameters": {}, "interpolation_precision": 250, "inverse_y_axis": false, "js": [], "legend_at_bottom": false, "legend_at_bottom_columns": null, "legend_box_size": 12, "logarithmic": false, "margin": 10, "margin_bottom": null, "margin_left": null, "margin_right": null, "margin_top": null, "max_scale": 2, "min_scale": 1, "missing_value_fill_truncation": "x", "no_data_text": "", "no_prefix": false, "order_min": null, "pretty_print": false, "print_labels": false, "print_values": false, "print_values_position": "center", "print_zeroes": true, "range": null, "rounded_bars": null, "secondary_range": null, "show_dots": false, "show_legend": false, "show_minor_x_labels": true, "show_minor_y_labels": true, "show_only_major_dots": false, "show_x_guides": false, "show_x_labels": true, "show_y_guides": true, "show_y_labels": true, "spacing": 0, "stack_from_top": false, "strict": false, "stroke": true, "stroke_style": null, "style": {"background": "rgba(249, 249, 249, 1)", "ci_colors": [], "colors": ["#F44336", "#3F51B5", "#009688", "#FFC107", "#FF5722", "#9C27B0", "#03A9F4", "#8BC34A", "#FF9800", "#E91E63", "#2196F3", "#4CAF50", "#FFEB3B", "#673AB7", "#00BCD4", "#CDDC39", "#9E9E9E", "#607D8B"], "dot_opacity": "1", "font_family": "Consolas, \"Liberation Mono\", Menlo, Courier, monospace", "foreground": "rgba(0, 0, 0, .87)", "foreground_strong": "rgba(0, 0, 0, 1)", "foreground_subtle": "rgba(0, 0, 0, .54)", "guide_stroke_color": "black", "guide_stroke_dasharray": "4,4", "label_font_family": "Consolas, \"Liberation Mono\", Menlo, Courier, monospace", "label_font_size": 10, "legend_font_family": "Consolas, \"Liberation Mono\", Menlo, Courier, monospace", "legend_font_size": 14, "major_guide_stroke_color": "black", "major_guide_stroke_dasharray": "6,6", "major_label_font_family": "Consolas, \"Liberation Mono\", Menlo, Courier, monospace", "major_label_font_size": 10, "no_data_font_family": "Consolas, \"Liberation Mono\", Menlo, Courier, monospace", "no_data_font_size": 64, "opacity": ".7", "opacity_hover": ".8", "plot_background": "rgba(255, 255, 255, 1)", "stroke_opacity": ".8", "stroke_opacity_hover": ".9", "stroke_width": "1", "stroke_width_hover": "4", "title_font_family": "Consolas, \"Liberation Mono\", Menlo, Courier, monospace", "title_font_size": 16, "tooltip_font_family": "Consolas, \"Liberation Mono\", Menlo, Courier, monospace", "tooltip_font_size": 14, "transition": "150ms", "value_background": "rgba(229, 229, 229, 1)", "value_colors": [], "value_font_family": "Consolas, \"Liberation Mono\", Menlo, Courier, monospace", "value_font_size": 16, "value_label_font_family": "Consolas, \"Liberation Mono\", Menlo, Courier, monospace", "value_label_font_size": 10}, "title": null, "tooltip_border_radius": 0, "tooltip_fancy_mode": true, "truncate_label": null, "truncate_legend": null, "width": 200, "x_label_rotation": 0, "x_labels": ["2024/3", "2024/2", "2024/1"], "x_labels_major": null, "x_labels_major_count": null, "x_labels_major_every": null, "x_title": null, "xrange": null, "y_label_rotation": 0, "y_labels": null, "y_labels_major": null, "y_labels_major_count": null, "y_labels_major_every": null, "y_title": null, "zero": 0, "legends": [""]}</script></defs><title>Pygal</title><g class="graph line-graph vertical"><rect x="0" y="0" width="200" height="50" class="background" /><g transform="translate(76, 10)" class="plot"><rect x="0" y="0" width="114.0" height="20" class="background" /><g class="axis y always_show"><path d="M0.000000 20.000000 h114.000000" class="line" /><g class="guides"><path d="M0.000000 19.615385 h114.000000" class="guide line" /><text x="-5" y="23.115384615384617" class="">0.444465792</text><title>0.444465792</title></g><g class="guides"><path d="M0.000000 0.384615 h114.000000" class="guide line" /><text x="-5" y="3.884615384615387" class="">24</text><title>24</title></g></g><g class="axis x"><g class="guides"><path d="M2.192308 0.000000 v20.000000" class="line" /><text x="2.1923076923076925" y="35.0" class="">2024…</text><title>2024/3</title></g><g class="guides"><path d="M57.000000 0.000000 v20.000000" class="guide line" /><text x="57.0" y="35.0" class="">2024…</text><title>2024/2</title></g><g class="guides"><path d="M111.807692 0.000000 v20.000000" class="guide line" /><text x="111.8076923076923" y="35.0" class="">2024…</text><title>2024/1</title></g></g><g class="series serie-0 color-0"><path d="M2.192308 0.384615 L2.411538 0.476052 2.630769 0.567487 2.850000 0.658918 3.069231 0.750343 3.288462 0.841761 3.507692 0.933169 3.726923 1.024566 3.946154 1.115950 4.165385 1.207319 4.384615 1.298671 4.603846 1.390005 4.823077 1.481317 5.042308 1.572607 5.261538 1.663872 5.480769 1.755112 5.700000 1.846322 5.919231 1.937503 6.138462 2.028652 6.357692 2.119767 6.576923 2.210846 6.796154 2.301888 7.015385 2.392890 7.234615 2.483851 7.453846 2.574768 7.673077 2.665641 7.892308 2.756466 8.111538 2.847242 8.330769 2.937968 8.550000 3.028641 8.769231 3.119259 8.988462 3.209821 9.207692 3.300325 9.426923 3.390768 9.646154 3.481150 9.865385 3.571467 10.084615 3.661719 10.303846 3.751903 10.523077 3.842017 10.742308 3.932060 10.961538 4.022029 11.180769 4.111924 11.400000 4.201741 11.619231 4.291479 11.838462 4.381136 12.057692 4.470711 12.276923 4.560200 12.496154 4.649604 12.715385 4.738919 12.934615 4.828143 13.153846 4.917276 13.373077 5.006314 13.592308 5.095256 13.811538 5.184101 14.030769 5.272846 14.250000 5.361489 14.469231 5.450029 14.688462 5.538464 14.907692 5.626791 15.126923 5.715009 15.346154 5.803117 15.565385 5.891111 15.784615 5.978991 16.003846 6.066754 16.223077 6.154398 16.442308 6.241923 16.661538 6.329324 16.880769 6.416602 17.100000 6.503754 17.319231 6.590778 17.538462 6.677672 17.757692 6.764434 17.976923 6.851063 18.196154 6.937556 18.415385 7.023913 18.634615 7.110129 18.853846 7.196205 19.073077 7.282138 19.292308 7.367926 19.511538 7.453567 19.730769 7.539060 19.950000 7.624402 20.169231 7.709592 20.388462 7.794628 20.607692 7.879507 20.826923 7.964229 21.046154 8.048791 21.265385 8.133190 21.484615 8.217427 21.703846 8.301497 21.923077 8.385401 22.142308 8.469135 22.361538 8.552697 22.580769 8.636087 22.800000 8.719302 23.019231 8.802340 23.238462 8.885199 23.457692 8.967878 23.676923 9.050374 23.896154 9.132686 24.115385 9.214812 24.334615 9.296750 24.553846 9.378497 24.773077 9.460053 24.992308 9.541415 25.211538 9.622582 25.430769 9.703551 25.650000 9.784320 25.869231 9.864888 26.088462 9.945254 26.307692 10.025414 26.526923 10.105367 26.746154 10.185111 26.965385 10.264645 27.184615 10.343966 27.403846 10.423073 27.623077 10.501963 27.842308 10.580636 28.061538 10.659088 28.280769 10.737318 28.500000 10.815324 28.719231 10.893105 28.938462 10.970658 29.157692 11.047982 29.376923 11.125074 29.596154 11.201933 29.815385 11.278557 30.034615 11.354944 30.253846 11.431092 30.473077 11.506999 30.692308 11.582663 30.911538 11.658083 31.130769 11.733257 31.350000 11.808182 31.569231 11.882857 31.788462 11.957280 32.007692 12.031450 32.226923 12.105363 32.446154 12.179019 32.665385 12.252415 32.884615 12.325549 33.103846 12.398421 33.323077 12.471027 33.542308 12.543366 33.761538 12.615436 33.980769 12.687235 34.200000 12.758761 34.419231 12.830013 34.638462 12.900988 34.857692 12.971685 35.076923 13.042101 35.296154 13.112236 35.515385 13.182086 35.734615 13.251651 35.953846 13.320928 36.173077 13.389915 36.392308 13.458610 36.611538 13.527012 36.830769 13.595119 37.050000 13.662928 37.269231 13.730439 37.488462 13.797648 37.707692 13.864555 37.926923 13.931157 38.146154 13.997452 38.365385 14.063439 38.584615 14.129116 38.803846 14.194480 39.023077 14.259530 39.242308 14.324264 39.461538 14.388680 39.680769 14.452777 39.900000 14.516552 40.119231 14.580003 40.338462 14.643129 40.557692 14.705927 40.776923 14.768397 40.996154 14.830535 41.215385 14.892341 41.434615 14.953811 41.653846 15.014945 41.873077 15.075740 42.092308 15.136195 42.311538 15.196308 42.530769 15.256076 42.750000 15.315498 42.969231 15.374573 43.188462 15.433297 43.407692 15.491669 43.626923 15.549688 43.846154 15.607352 44.065385 15.664658 44.284615 15.721605 44.503846 15.778191 44.723077 15.834413 44.942308 15.890271 45.161538 15.945762 45.380769 16.000884 45.600000 16.055636 45.819231 16.110015 46.038462 16.164020 46.257692 16.217649 46.476923 16.270900 46.696154 16.323770 46.915385 16.376259 47.134615 16.428364 47.353846 16.480084 47.573077 16.531416 47.792308 16.582359 48.011538 16.632910 48.230769 16.683068 48.450000 16.732832 48.669231 16.782198 48.888462 16.831166 49.107692 16.879733 49.326923 16.927897 49.546154 16.975658 49.765385 17.023011 49.984615 17.069957 50.203846 17.116492 50.423077 17.162616 50.642308 17.208326 50.861538 17.253620 51.080769 17.298497 51.300000 17.342954 51.519231 17.386989 51.738462 17.430602 51.957692 17.473789 52.176923 17.516550 52.396154 17.558881 52.615385 17.600782 52.834615 17.642250 53.053846 17.683284 53.273077 17.723881 53.492308 17.764040 53.711538 17.803759 53.930769 17.843036 54.150000 17.881869 54.369231 17.920256 54.588462 17.958195 54.807692 17.995685 55.026923 18.032723 55.246154 18.069309 55.465385 18.105439 55.684615 18.141111 55.903846 18.176325 56.123077 18.211078 56.342308 18.245369 56.561538 18.279194 56.780769 18.312554 57.000000 18.345444 57.219231 18.377866 57.438462 18.409819 57.657692 18.441305 57.876923 18.472327 58.096154 18.502886 58.315385 18.532984 58.534615 18.562623 58.753846 18.591805 58.973077 18.620532 59.192308 18.648806 59.411538 18.676628 59.630769 18.704001 59.850000 18.730926 60.069231 18.757405 60.288462 18.783440 60.507692 18.809034 60.726923 18.834187 60.946154 18.858902 61.165385 18.883180 61.384615 18.907024 61.603846 18.930435 61.823077 18.953416 62.042308 18.975968 62.261538 18.998092 62.480769 19.019792 62.700000 19.041068 62.919231 19.061923 63.138462 19.082359 63.357692 19.102377 63.576923 19.121979 63.796154 19.141168 64.015385 19.159944 64.234615 19.178311 64.453846 19.196269 64.673077 19.213821 64.892308 19.230969 65.111538 19.247714 65.330769 19.264058 65.550000 19.280004 65.769231 19.295553 65.988462 19.310706 66.207692 19.325467 66.426923 19.339836 66.646154 19.353817 66.865385 19.367409 67.084615 19.380616 67.303846 19.393439 67.523077 19.405881 67.742308 19.417942 67.961538 19.429625 68.180769 19.440933 68.400000 19.451865 68.619231 19.462426 68.838462 19.472616 69.057692 19.482437 69.276923 19.491891 69.496154 19.500981 69.715385 19.509707 69.934615 19.518072 70.153846 19.526078 70.373077 19.533727 70.592308 19.541020 70.811538 19.547960 71.030769 19.554547 71.250000 19.560785 71.469231 19.566675 71.688462 19.572219 71.907692 19.577418 72.126923 19.582276 72.346154 19.586792 72.565385 19.590971 72.784615 19.594812 73.003846 19.598319 73.223077 19.601493 73.442308 19.604335 73.661538 19.606849 73.880769 19.609035 74.100000 19.610896 74.319231 19.612433 74.538462 19.613649 74.757692 19.614545 74.976923 19.615123 75.196154 19.615385 75.415385 19.615332 75.634615 19.614968 75.853846 19.614293 76.073077 19.613310 76.292308 19.612020 76.511538 19.610426 76.730769 19.608528 76.950000 19.606330 77.169231 19.603833 77.388462 19.601038 77.607692 19.597948 77.826923 19.594565 78.046154 19.590890 78.265385 19.586925 78.484615 19.582673 78.703846 19.578134 78.923077 19.573312 79.142308 19.568208 79.361538 19.562823 79.580769 19.557160 79.800000 19.551220 80.019231 19.545006 80.238462 19.538519 80.457692 19.531761 80.676923 19.524734 80.896154 19.517440 81.115385 19.509881 81.334615 19.502058 81.553846 19.493974 81.773077 19.485631 81.992308 19.477030 82.211538 19.468173 82.430769 19.459062 82.650000 19.449699 82.869231 19.440085 83.088462 19.430224 83.307692 19.420116 83.526923 19.409764 83.746154 19.399168 83.965385 19.388333 84.184615 19.377258 84.403846 19.365946 84.623077 19.354399 84.842308 19.342619 85.061538 19.330608 85.280769 19.318367 85.500000 19.305898 85.719231 19.293204 85.938462 19.280286 86.157692 19.267146 86.376923 19.253786 86.596154 19.240207 86.815385 19.226413 87.034615 19.212403 87.253846 19.198182 87.473077 19.183750 87.692308 19.169108 87.911538 19.154260 88.130769 19.139207 88.350000 19.123951 88.569231 19.108494 88.788462 19.092837 89.007692 19.076983 89.226923 19.060933 89.446154 19.044689 89.665385 19.028253 89.884615 19.011628 90.103846 18.994814 90.323077 18.977814 90.542308 18.960630 90.761538 18.943264 90.980769 18.925716 91.200000 18.907990 91.419231 18.890088 91.638462 18.872010 91.857692 18.853759 92.076923 18.835337 92.296154 18.816746 92.515385 18.797988 92.734615 18.779064 92.953846 18.759976 93.173077 18.740726 93.392308 18.721317 93.611538 18.701750 93.830769 18.682026 94.050000 18.662148 94.269231 18.642118 94.488462 18.621938 94.707692 18.601608 94.926923 18.581132 95.146154 18.560512 95.365385 18.539748 95.584615 18.518843 95.803846 18.497799 96.023077 18.476618 96.242308 18.455301 96.461538 18.433851 96.680769 18.412269 96.900000 18.390557 97.119231 18.368718 97.338462 18.346752 97.557692 18.324662 97.776923 18.302450 97.996154 18.280118 98.215385 18.257667 98.434615 18.235099 98.653846 18.212417 98.873077 18.189622 99.092308 18.166715 99.311538 18.143700 99.530769 18.120578 99.750000 18.097350 99.969231 18.074019 100.188462 18.050586 100.407692 18.027053 100.626923 18.003423 100.846154 17.979697 101.065385 17.955876 101.284615 17.931964 101.503846 17.907961 101.723077 17.883870 101.942308 17.859692 102.161538 17.835430 102.380769 17.811085 102.600000 17.786659 102.819231 17.762154 103.038462 17.737572 103.257692 17.712914 103.476923 17.688184 103.696154 17.663381 103.915385 17.638510 104.134615 17.613570 104.353846 17.588565 104.573077 17.563495 104.792308 17.538364 105.011538 17.513172 105.230769 17.487923 105.450000 17.462616 105.669231 17.437255 105.888462 17.411842 106.107692 17.386378 106.326923 17.360864 106.546154 17.335304 106.765385 17.309699 106.984615 17.284050 107.203846 17.258360 107.423077 17.232631 107.642308 17.206864 107.861538 17.181061 108.080769 17.155224 108.300000 17.129355 108.519231 17.103456 108.738462 17.077529 108.957692 17.051576 109.176923 17.025598 109.396154 16.999598 109.615385 16.973577 109.834615 16.947537 110.053846 16.921480 110.273077 16.895408 110.492308 16.869323 110.711538 16.843227 110.930769 16.817121 111.150000 16.791008 111.369231 16.764889 111.588462 16.738766 111.807692 16.712642" class="line reactive nofill" /></g></g><g class="titles" /><g transform="translate(76, 10)" class="plot overlay"><g class="series serie-0 color-0" /></g><g transform="translate(76, 10)" class="plot text-overlay"><g class="series serie-0 color-0" /></g><g transform="translate(76, 10)" class="plot tooltip-overlay"><g transform="translate(0 0)" style="opacity: 0" class="tooltip"><rect rx="0" ry="0" width="0" height="0" class="tooltip-box" /><g class="text" /></g></g></g></svg>