<?xml version='1.0' encoding='utf-8'?>
<svg xmlns="http://www.w3.org/2000/svg" id="chart-1c0ab289-5fe7-48e1-81ad-066356893870" class="pygal-chart pygal-sparkline" viewBox="0 0 200 50" width="200" height="50"><!--Generated with pygal 3.0.5 (etree) ©Kozea 2012-2016 on 2024-11-07--><!--http://pygal.org--><!--http://github.com/Kozea/pygal--><defs><style type="text/css">#chart-1c0ab289-5fe7-48e1-81ad-066356893870{-webkit-user-select:none;-webkit-font-smoothing:antialiased;font-family:Consolas,"Liberation Mono",Menlo,Courier,monospace}#chart-1c0ab289-5fe7-48e1-81ad-066356893870 .title{font-family:Consolas,"Liberation Mono",Menlo,Courier,monospace;font-size:16px}#chart-1c0ab289-5fe7-48e1-81ad-066356893870 .legends .legend text{font-family:Consolas,"Liberation Mono",Menlo,Courier,monospace;font-size:14px}#chart-1c0ab289-5fe7-48e1-81ad-066356893870 .axis text{font-family:Consolas,"Liberation Mono",Menlo,Courier,monospace;font-size:10px}#chart-1c0ab289-5fe7-48e1-81ad-066356893870 .axis text.major{font-family:Consolas,"Liberation Mono",Menlo,Courier,monospace;font-size:10px}#chart-1c0ab289-5fe7-48e1-81ad-066356893870 .text-overlay text.value{font-family:Consolas,"Liberation Mono",Menlo,Courier,monospace;font-size:16px}#chart-1c0ab289-5fe7-48e1-81ad-066356893870 .text-overlay text.label{font-family:Consolas,"Liberation Mono",Menlo,Courier,monospace;font-size:10px}#chart-1c0ab289-5fe7-48e1-81ad-066356893870 .tooltip{font-family:Consolas,"Liberation Mono",Menlo,Courier,monospace;font-size:14px}#chart-1c0ab289-5fe7-48e1-81ad-066356893870 text.no_data{font-family:Consolas,"Liberation Mono",Menlo,Courier,monospace;font-size:64px}
#chart-1c0ab289-5fe7-48e1-81ad-066356893870{background-color:rgba(249,249,249,1)}#chart-1c0ab289-5fe7-48e1-81ad-066356893870 path,#chart-1c0ab289-5fe7-48e1-81ad-066356893870 line,#chart-1c0ab289-5fe7-48e1-81ad-066356893870 rect,#chart-1c0ab289-5fe7-48e1-81ad-066356893870 circle{-webkit-transition:150ms;-moz-transition:150ms;transition:150ms}#chart-1c0ab289-5fe7-48e1-81ad-066356893870 .graph &gt; .background{fill:rgba(249,249,249,1)}#chart-1c0ab289-5fe7-48e1-81ad-066356893870 .plot &gt; .background{fill:rgba(255,255,255,1)}#chart-1c0ab289-5fe7-48e1-81ad-066356893870 .graph{fill:rgba(0,0,0,.87)}#chart-1c0ab289-5fe7-48e1-81ad-066356893870 text.no_data{fill:rgba(0,0,0,1)}#chart-1c0ab289-5fe7-48e1-81ad-066356893870 .title{fill:rgba(0,0,0,1)}#chart-1c0ab289-5fe7-48e1-81ad-066356893870 .legends .legend text{fill:rgba(0,0,0,.87)}#chart-1c0ab289-5fe7-48e1-81ad-066356893870 .legends .legend:hover text{fill:rgba(0,0,0,1)}#chart-1c0ab289-5fe7-48e1-81ad-066356893870 .axis .line{stroke:rgba(0,0,0,1)}#chart-1c0ab289-5fe7-48e1-81ad-066356893870 .axis .guide.line{stroke:rgba(0,0,0,.54)}#chart-1c0ab289-5fe7-48e1-81ad-066356893870 .axis .major.line{stroke:rgba(0,0,0,.87)}#chart-1c0ab289-5fe7-48e1-81ad-066356893870 .axis text.major{fill:rgba(0,0,0,1)}#chart-1c0ab289-5fe7-48e1-81ad-066356893870 .axis.y .guides:hover .guide.line,#chart-1c0ab289-5fe7-48e1-81ad-066356893870 .line-graph .axis.x .guides:hover .guide.line,#chart-1c0ab289-5fe7-48e1-81ad-066356893870 .stackedline-graph .axis.x .guides:hover .guide.line,#chart-1c0ab289-5fe7-48e1-81ad-066356893870 .xy-graph .axis.x .guides:hover .guide.line{stroke:rgba(0,0,0,1)}#chart-1c0ab289-5fe7-48e1-81ad-066356893870 .axis .guides:hover text{fill:rgba(0,0,0,1)}#chart-1c0ab289-5fe7-48e1-81ad-066356893870 .reactive{fill-opacity:.7;stroke-opacity:.8;stroke-width:1}#chart-1c0ab289-5fe7-48e1-81ad-066356893870 .ci{stroke:rgba(0,0,0,.87)}#chart-1c0ab289-5fe7-48e1-81ad-066356893870 .reactive.active,#chart-1c0ab289-5fe7-48e1-81ad-066356893870 .active .reactive{fill-opacity:.8;stroke-opacity:.9;stroke-width:4}#chart-1c0ab289-5fe7-48e1-81ad-066356893870 .ci .reactive.active{stroke-width:1.5}#chart-1c0ab289-5fe7-48e1-81ad-066356893870 .series text{fill:rgba(0,0,0,1)}#chart-1c0ab289-5fe7-48e1-81ad-066356893870 .tooltip rect{fill:rgba(255,255,255,1);stroke:rgba(0,0,0,1);-webkit-transition:opacity 150ms;-moz-transition:opacity 150ms;transition:opacity 150ms}#chart-1c0ab289-5fe7-48e1-81ad-066356893870 .tooltip .label{fill:rgba(0,0,0,.87)}#chart-1c0ab289-5fe7-48e1-81ad-066356893870 .tooltip .label{fill:rgba(0,0,0,.87)}#chart-1c0ab289-5fe7-48e1-81ad-066356893870 .tooltip .legend{font-size:.8em;fill:rgba(0,0,0,.54)}#chart-1c0ab289-5fe7-48e1-81ad-066356893870 .tooltip .x_label{font-size:.6em;fill:rgba(0,0,0,1)}#chart-1c0ab289-5fe7-48e1-81ad-066356893870 .tooltip .xlink{font-size:.5em;text-decoration:underline}#chart-1c0ab289-5fe7-48e1-81ad-066356893870 .tooltip .value{font-size:1.5em}#chart-1c0ab289-5fe7-48e1-81ad-066356893870 .bound{font-size:.5em}#chart-1c0ab289-5fe7-48e1-81ad-066356893870 .max-value{font-size:.75em;fill:rgba(0,0,0,.54)}#chart-1c0ab289-5fe7-48e1-81ad-066356893870 .map-element{fill:rgba(255,255,255,1);stroke:rgba(0,0,0,.54) !important}#chart-1c0ab289-5fe7-48e1-81ad-066356893870 .map-element .reactive{fill-opacity:inherit;stroke-opacity:inherit}#chart-1c0ab289-5fe7-48e1-81ad-066356893870 .color-0,#chart-1c0ab289-5fe7-48e1-81ad-066356893870 .color-0 a:visited{stroke:#F44336;fill:#F44336}#chart-1c0ab289-5fe7-48e1-81ad-066356893870 .text-overlay .color-0 text{fill:black}
#chart-1c0ab289-5fe7-48e1-81ad-066356893870 text.no_data{text-anchor:middle}#chart-1c0ab289-5fe7-48e1-81ad-066356893870 .guide.line{fill:none}#chart-1c0ab289-5fe7-48e1-81ad-066356893870 .centered{text-anchor:middle}#chart-1c0ab289-5fe7-48e1-81ad-066356893870 .title{text-anchor:middle}#chart-1c0ab289-5fe7-48e1-81ad-066356893870 .legends .legend text{fill-opacity:1}#chart-1c0ab289-5fe7-48e1-81ad-066356893870 .axis.x text{text-anchor:middle}#chart-1c0ab289-5fe7-48e1-81ad-066356893870 .axis.x:not(.web) text[transform]{text-anchor:start}#chart-1c0ab289-5fe7-48e1-81ad-066356893870 .axis.x:not(.web) text[transform].backwards{text-anchor:end}#chart-1c0ab289-5fe7-48e1-81ad-066356893870 .axis.y text{text-anchor:end}#chart-1c0ab289-5fe7-48e1-81ad-066356893870 .axis.y text[transform].backwards{text-anchor:start}#chart-1c0ab289-5fe7-48e1-81ad-066356893870 .axis.y2 text{text-anchor:start}#chart-1c0ab289-5fe7-48e1-81ad-066356893870 .axis.y2 text[transform].backwards{text-anchor:end}#chart-1c0ab289-5fe7-48e1-81ad-066356893870 .axis .guide.line{stroke-dasharray:4,4;stroke:black}#chart-1c0ab289-5fe7-48e1-81ad-066356893870 .axis .major.guide.line{stroke-dasharray:6,6;stroke:black}#chart-1c0ab289-5fe7-48e1-81ad-066356893870 .horizontal .axis.y .guide.line,#chart-1c0ab289-5fe7-48e1-81ad-066356893870 .horizontal .axis.y2 .guide.line,#chart-1c0ab289-5fe7-48e1-81ad-066356893870 .vertical .axis.x .guide.line{opacity:0}#chart-1c0ab289-5fe7-48e1-81ad-066356893870 .horizontal .axis.always_show .guide.line,#chart-1c0ab289-5fe7-48e1-81ad-066356893870 .vertical .axis.always_show .guide.line{opacity:1 !important}#chart-1c0ab289-5fe7-48e1-81ad-066356893870 .axis.y .guides:hover .guide.line,#chart-1c0ab289-5fe7-48e1-81ad-066356893870 .axis.y2 .guides:hover .guide.line,#chart-1c0ab289-5fe7-48e1-81ad-066356893870 .axis.x .guides:hover .guide.line{opacity:1}#chart-1c0ab289-5fe7-48e1-81ad-066356893870 .axis .guides:hover text{opacity:1}#chart-1c0ab289-5fe7-48e1-81ad-066356893870 .nofill{fill:none}#chart-1c0ab289-5fe7-48e1-81ad-066356893870 .subtle-fill{fill-opacity:.2}#chart-1c0ab289-5fe7-48e1-81ad-066356893870 .dot{stroke-width:1px;fill-opacity:1;stroke-opacity:1}#chart-1c0ab289-5fe7-48e1-81ad-066356893870 .dot.active{stroke-width:5px}#chart-1c0ab289-5fe7-48e1-81ad-066356893870 .dot.negative{fill:transparent}#chart-1c0ab289-5fe7-48e1-81ad-066356893870 text,#chart-1c0ab289-5fe7-48e1-81ad-066356893870 tspan{stroke:none !important}#chart-1c0ab289-5fe7-48e1-81ad-066356893870 .series text.active{opacity:1}#chart-1c0ab289-5fe7-48e1-81ad-066356893870 .tooltip rect{fill-opacity:.95;stroke-width:.5}#chart-1c0ab289-5fe7-48e1-81ad-066356893870 .tooltip text{fill-opacity:1}#chart-1c0ab289-5fe7-48e1-81ad-066356893870 .showable{visibility:hidden}#chart-1c0ab289-5fe7-48e1-81ad-066356893870 .showable.shown{visibility:visible}#chart-1c0ab289-5fe7-48e1-81ad-066356893870 .gauge-background{fill:rgba(229,229,229,1);stroke:none}#chart-1c0ab289-5fe7-48e1-81ad-066356893870 .bg-lines{stroke:rgba(249,249,249,1);stroke-width:2px}</style><script type="text/javascript">window.pygal = window.pygal || {};window.pygal.config = window.pygal.config || {};window.pygal.config['1c0ab289-5fe7-48e1-81ad-066356893870'] = {"allow_interruptions": false, "box_mode": "extremes", "classes": ["pygal-chart", "pygal-sparkline"], "css": ["file://style.css", "file://graph.css"], "defs": [], "disable_xml_declaration": false, "dots_size": 2.5, "dynamic_print_values": false, "explicit_size": true, "fill": false, "force_uri_protocol": "https", "formatter": null, "half_pie": false, "height": 50, "include_x_axis": false, "inner_radius": 0, "interpolate": "cubic", "interpolation_parameters": {}, "interpolation_precision": 250, "inverse_y_axis": false, "js": [], "legend_at_bottom": false, "legend_at_bottom_columns": null, "legend_box_size": 12, "logarithmic": false, "margin": 10, "margin_bottom": null, "margin_left": null, "margin_right": null, "margin_top": null, "max_scale": 2, "min_scale": 1, "missing_value_fill_truncation": "x", "no_data_text": "", "no_prefix": false, "order_min": null, "pretty_print": false, "print_labels": false, "print_values": false, "print_values_position": "center", "print_zeroes": true, "range": null, "rounded_bars": null, "secondary_range": null, "show_dots": false, "show_legend": false, "show_minor_x_labels": true, "show_minor_y_labels": true, "show_only_major_dots": false, "show_x_guides": false, "show_x_labels": false, "show_y_guides": true, "show_y_labels": true, "spacing": 0, "stack_from_top": false, "strict": false, "stroke": true, "stroke_style": null, "style": {"background": "rgba(249, 249, 249, 1)", "ci_colors": [], "colors": ["#F44336", "#3F51B5", "#009688", "#FFC107", "#FF5722", "#9C27B0", "#03A9F4", "#8BC34A", "#FF9800", "#E91E63", "#2196F3", "#4CAF50", "#FFEB3B", "#673AB7", "#00BCD4", "#CDDC39", "#9E9E9E", "#607D8B"], "dot_opacity": "1", "font_family": "Consolas, \"Liberation Mono\", Menlo, Courier, monospace", "foreground": "rgba(0, 0, 0, .87)", "foreground_strong": "rgba(0, 0, 0, 1)", "foreground_subtle": "rgba(0, 0, 0, .54)", "guide_stroke_color": "black", "guide_stroke_dasharray": "4,4", "label_font_family": "Consolas, \"Liberation Mono\", Menlo, Courier, monospace", "label_font_size": 10, "legend_font_family": "Consolas, \"Liberation Mono\", Menlo, Courier, monospace", "legend_font_size": 14, "major_guide_stroke_color": "black", "major_guide_stroke_dasharray": "6,6", "major_label_font_family": "Consolas, \"Liberation Mono\", Menlo, Courier, monospace", "major_label_font_size": 10, "no_data_font_family": "Consolas, \"Liberation Mono\", Menlo, Courier, monospace", "no_data_font_size": 64, "opacity": ".7", "opacity_hover": ".8", "plot_background": "rgba(255, 255, 255, 1)", "stroke_opacity": ".8", "stroke_opacity_hover": ".9", "stroke_width": "1", "stroke_width_hover": "4", "title_font_family": "Consolas, \"Liberation Mono\", Menlo, Courier, monospace", "title_font_size": 16, "tooltip_font_family": "Consolas, \"Liberation Mono\", Menlo, Courier, monospace", "tooltip_font_size": 14, "transition": "150ms", "value_background": "rgba(229, 229, 229, 1)", "value_colors": [], "value_font_family": "Consolas, \"Liberation Mono\", Menlo, Courier, monospace", "value_font_size": 16, "value_label_font_family": "Consolas, \"Liberation Mono\", Menlo, Courier, monospace", "value_label_font_size": 10}, "title": null, "tooltip_border_radius": 0, "tooltip_fancy_mode": true, "truncate_label": null, "truncate_legend": null, "width": 200, "x_label_rotation": 0, "x_labels": ["2024/11", "2024/10", "2024/9", "2024/8"], "x_labels_major": null, "x_labels_major_count": null, "x_labels_major_every": null, "x_title": null, "xrange": null, "y_label_rotation": 0, "y_labels": null, "y_labels_major": null, "y_labels_major_count": null, "y_labels_major_every": null, "y_title": null, "zero": 0, "legends": [""]}</script></defs><title>Pygal</title><g class="graph line-graph vertical"><rect x="0" y="0" width="200" height="50" class="background" /><g transform="translate(22, 10)" class="plot"><rect x="0" y="0" width="168.0" height="30" class="background" /><g class="axis y always_show"><path d="M0.000000 30.000000 h168.000000" class="line" /><g class="guides"><path d="M0.000000 29.423077 h168.000000" class="guide line" /><text x="-5" y="32.92307692307692" class="">2</text><title>2</title></g><g class="guides"><path d="M0.000000 0.576923 h168.000000" class="guide line" /><text x="-5" y="4.076923076923077" class="">20</text><title>20</title></g></g><g class="series serie-0 color-0"><path d="M3.230769 29.423077 L3.446154 29.412821 3.661538 29.402565 3.876923 29.392309 4.092308 29.382055 4.307692 29.371803 4.523077 29.361552 4.738462 29.351303 4.953846 29.341057 5.169231 29.330814 5.384615 29.320574 5.600000 29.310338 5.815385 29.300106 6.030769 29.289879 6.246154 29.279656 6.461538 29.269438 6.676923 29.259226 6.892308 29.249020 7.107692 29.238820 7.323077 29.228627 7.538462 29.218441 7.753846 29.208262 7.969231 29.198091 8.184615 29.187928 8.400000 29.177774 8.615385 29.167628 8.830769 29.157492 9.046154 29.147365 9.261538 29.137248 9.476923 29.127142 9.692308 29.117046 9.907692 29.106961 10.123077 29.096888 10.338462 29.086827 10.553846 29.076778 10.769231 29.066741 10.984615 29.056717 11.200000 29.046707 11.415385 29.036710 11.630769 29.026727 11.846154 29.016759 12.061538 29.006805 12.276923 28.996867 12.492308 28.986944 12.707692 28.977037 12.923077 28.967146 13.138462 28.957272 13.353846 28.947415 13.569231 28.937575 13.784615 28.927753 14.000000 28.917949 14.215385 28.908163 14.430769 28.898396 14.646154 28.888649 14.861538 28.878921 15.076923 28.869213 15.292308 28.859525 15.507692 28.849858 15.723077 28.840212 15.938462 28.830587 16.153846 28.820985 16.369231 28.811404 16.584615 28.801846 16.800000 28.792311 17.015385 28.782799 17.230769 28.773310 17.446154 28.763846 17.661538 28.754406 17.876923 28.744991 18.092308 28.735601 18.307692 28.726236 18.523077 28.716897 18.738462 28.707584 18.953846 28.698298 19.169231 28.689039 19.384615 28.679808 19.600000 28.670604 19.815385 28.661428 20.030769 28.652280 20.246154 28.643161 20.461538 28.634072 20.676923 28.625012 20.892308 28.615982 21.107692 28.606982 21.323077 28.598013 21.538462 28.589074 21.753846 28.580168 21.969231 28.571292 22.184615 28.562450 22.400000 28.553639 22.615385 28.544862 22.830769 28.536117 23.046154 28.527406 23.261538 28.518730 23.476923 28.510087 23.692308 28.501479 23.907692 28.492907 24.123077 28.484370 24.338462 28.475868 24.553846 28.467403 24.769231 28.458974 24.984615 28.450583 25.200000 28.442228 25.415385 28.433911 25.630769 28.425633 25.846154 28.417392 26.061538 28.409191 26.276923 28.401028 26.492308 28.392905 26.707692 28.384822 26.923077 28.376779 27.138462 28.368777 27.353846 28.360816 27.569231 28.352896 27.784615 28.345018 28.000000 28.337182 28.215385 28.329388 28.430769 28.321638 28.646154 28.313930 28.861538 28.306266 29.076923 28.298646 29.292308 28.291070 29.507692 28.283539 29.723077 28.276053 29.938462 28.268613 30.153846 28.261218 30.369231 28.253869 30.584615 28.246567 30.800000 28.239312 31.015385 28.232104 31.230769 28.224944 31.446154 28.217831 31.661538 28.210767 31.876923 28.203752 32.092308 28.196786 32.307692 28.189869 32.523077 28.183002 32.738462 28.176186 32.953846 28.169420 33.169231 28.162705 33.384615 28.156041 33.600000 28.149429 33.815385 28.142869 34.030769 28.136361 34.246154 28.129907 34.461538 28.123505 34.676923 28.117157 34.892308 28.110863 35.107692 28.104623 35.323077 28.098438 35.538462 28.092308 35.753846 28.086233 35.969231 28.080214 36.184615 28.074251 36.400000 28.068344 36.615385 28.062495 36.830769 28.056703 37.046154 28.050968 37.261538 28.045291 37.476923 28.039673 37.692308 28.034113 37.907692 28.028612 38.123077 28.023171 38.338462 28.017790 38.553846 28.012468 38.769231 28.007208 38.984615 28.002008 39.200000 27.996870 39.415385 27.991793 39.630769 27.986778 39.846154 27.981826 40.061538 27.976936 40.276923 27.972110 40.492308 27.967347 40.707692 27.962648 40.923077 27.958013 41.138462 27.953443 41.353846 27.948937 41.569231 27.944498 41.784615 27.940123 42.000000 27.935815 42.215385 27.931574 42.430769 27.927399 42.646154 27.923292 42.861538 27.919252 43.076923 27.915279 43.292308 27.911376 43.507692 27.907541 43.723077 27.903775 43.938462 27.900078 44.153846 27.896451 44.369231 27.892895 44.584615 27.889408 44.800000 27.885993 45.015385 27.882649 45.230769 27.879377 45.446154 27.876177 45.661538 27.873049 45.876923 27.869993 46.092308 27.867011 46.307692 27.864103 46.523077 27.861268 46.738462 27.858507 46.953846 27.855821 47.169231 27.853210 47.384615 27.850674 47.600000 27.848214 47.815385 27.845830 48.030769 27.843523 48.246154 27.841292 48.461538 27.839138 48.676923 27.837062 48.892308 27.835064 49.107692 27.833144 49.323077 27.831303 49.538462 27.829541 49.753846 27.827858 49.969231 27.826255 50.184615 27.824732 50.400000 27.823290 50.615385 27.821928 50.830769 27.820648 51.046154 27.819449 51.261538 27.818332 51.476923 27.817298 51.692308 27.816346 51.907692 27.815477 52.123077 27.814692 52.338462 27.813991 52.553846 27.813374 52.769231 27.812841 52.984615 27.812393 53.200000 27.812031 53.415385 27.811754 53.630769 27.811563 53.846154 27.811459 54.061538 27.811441 54.276923 27.811511 54.492308 27.811668 54.707692 27.811913 54.923077 27.812246 55.138462 27.812668 55.353846 27.813179 55.569231 27.813779 55.784615 27.814469 56.000000 27.815249 56.215385 27.816119 56.430769 27.817080 56.646154 27.818133 56.861538 27.819277 57.076923 27.820513 57.292308 27.821841 57.507692 27.823258 57.723077 27.824763 57.938462 27.826353 58.153846 27.828026 58.369231 27.829778 58.584615 27.831608 58.800000 27.833513 59.015385 27.835491 59.230769 27.837538 59.446154 27.839654 59.661538 27.841835 59.876923 27.844078 60.092308 27.846382 60.307692 27.848744 60.523077 27.851161 60.738462 27.853631 60.953846 27.856151 61.169231 27.858719 61.384615 27.861333 61.600000 27.863990 61.815385 27.866688 62.030769 27.869424 62.246154 27.872195 62.461538 27.875000 62.676923 27.877835 62.892308 27.880699 63.107692 27.883589 63.323077 27.886502 63.538462 27.889436 63.753846 27.892388 63.969231 27.895357 64.184615 27.898339 64.400000 27.901332 64.615385 27.904333 64.830769 27.907341 65.046154 27.910353 65.261538 27.913365 65.476923 27.916377 65.692308 27.919385 65.907692 27.922386 66.123077 27.925379 66.338462 27.928361 66.553846 27.931330 66.769231 27.934282 66.984615 27.937216 67.200000 27.940129 67.415385 27.943019 67.630769 27.945882 67.846154 27.948718 68.061538 27.951523 68.276923 27.954294 68.492308 27.957030 68.707692 27.959728 68.923077 27.962385 69.138462 27.964999 69.353846 27.967567 69.569231 27.970087 69.784615 27.972557 70.000000 27.974974 70.215385 27.977336 70.430769 27.979640 70.646154 27.981883 70.861538 27.984064 71.076923 27.986179 71.292308 27.988227 71.507692 27.990205 71.723077 27.992110 71.938462 27.993940 72.153846 27.995692 72.369231 27.997365 72.584615 27.998955 72.800000 28.000460 73.015385 28.001877 73.230769 28.003205 73.446154 28.004441 73.661538 28.005581 73.876923 28.006625 74.092308 28.007569 74.307692 28.008410 74.523077 28.009147 74.738462 28.009777 74.953846 28.010298 75.169231 28.010706 75.384615 28.011000 75.600000 28.011177 75.815385 28.011235 76.030769 28.011170 76.246154 28.010982 76.461538 28.010667 76.676923 28.010222 76.892308 28.009646 77.107692 28.008936 77.323077 28.008089 77.538462 28.007103 77.753846 28.005975 77.969231 28.004703 78.184615 28.003285 78.400000 28.001718 78.615385 28.000000 78.830769 27.998128 79.046154 27.996099 79.261538 27.993912 79.476923 27.991563 79.692308 27.989051 79.907692 27.986373 80.123077 27.983526 80.338462 27.980508 80.553846 27.977316 80.769231 27.973949 80.984615 27.970403 81.200000 27.966676 81.415385 27.962765 81.630769 27.958669 81.846154 27.954385 82.061538 27.949909 82.276923 27.945241 82.492308 27.940377 82.707692 27.935314 82.923077 27.930051 83.138462 27.924585 83.353846 27.918914 83.569231 27.913034 83.784615 27.906944 84.000000 27.900641 84.215385 27.894123 84.430769 27.887386 84.646154 27.880430 84.861538 27.873251 85.076923 27.865846 85.292308 27.858214 85.507692 27.850352 85.723077 27.842257 85.938462 27.833927 86.153846 27.825359 86.369231 27.816551 86.584615 27.807501 86.800000 27.798206 87.015385 27.788664 87.230769 27.778872 87.446154 27.768827 87.661538 27.758528 87.876923 27.747971 88.092308 27.737155 88.307692 27.726077 88.523077 27.714734 88.738462 27.703124 88.953846 27.691244 89.169231 27.679093 89.384615 27.666667 89.600000 27.653964 89.815385 27.640981 90.030769 27.627717 90.246154 27.614169 90.461538 27.600333 90.676923 27.586209 90.892308 27.571793 91.107692 27.557082 91.323077 27.542075 91.538462 27.526769 91.753846 27.511162 91.969231 27.495250 92.184615 27.479032 92.400000 27.462505 92.615385 27.445667 92.830769 27.428514 93.046154 27.411046 93.261538 27.393259 93.476923 27.375150 93.692308 27.356718 93.907692 27.337960 94.123077 27.318873 94.338462 27.299455 94.553846 27.279703 94.769231 27.259615 94.984615 27.239189 95.200000 27.218422 95.415385 27.197312 95.630769 27.175856 95.846154 27.154051 96.061538 27.131896 96.276923 27.109387 96.492308 27.086523 96.707692 27.063301 96.923077 27.039718 97.138462 27.015772 97.353846 26.991460 97.569231 26.966781 97.784615 26.941731 98.000000 26.916308 98.215385 26.890509 98.430769 26.864333 98.646154 26.837777 98.861538 26.810837 99.076923 26.783513 99.292308 26.755801 99.507692 26.727698 99.723077 26.699203 99.938462 26.670313 100.153846 26.641026 100.369231 26.611338 100.584615 26.581248 100.800000 26.550753 101.015385 26.519851 101.230769 26.488538 101.446154 26.456814 101.661538 26.424675 101.876923 26.392118 102.092308 26.359142 102.307692 26.325744 102.523077 26.291921 102.738462 26.257671 102.953846 26.222991 103.169231 26.187879 103.384615 26.152333 103.600000 26.116350 103.815385 26.079928 104.030769 26.043064 104.246154 26.005755 104.461538 25.968000 104.676923 25.929795 104.892308 25.891139 105.107692 25.852029 105.323077 25.812462 105.538462 25.772436 105.753846 25.731948 105.969231 25.690997 106.184615 25.649579 106.400000 25.607692 106.615385 25.565333 106.830769 25.522501 107.046154 25.479193 107.261538 25.435405 107.476923 25.391137 107.692308 25.346385 107.907692 25.301146 108.123077 25.255419 108.338462 25.209201 108.553846 25.162490 108.769231 25.115282 108.984615 25.067576 109.200000 25.019369 109.415385 24.970659 109.630769 24.921442 109.846154 24.871718 110.061538 24.821483 110.276923 24.770734 110.492308 24.719470 110.707692 24.667688 110.923077 24.615385 111.138462 24.562559 111.353846 24.509213 111.569231 24.455348 111.784615 24.400966 112.000000 24.346069 112.215385 24.290660 112.430769 24.234740 112.646154 24.178312 112.861538 24.121377 113.076923 24.063938 113.292308 24.005997 113.507692 23.947556 113.723077 23.888617 113.938462 23.829183 114.153846 23.769254 114.369231 23.708833 114.584615 23.647924 114.800000 23.586526 115.015385 23.524643 115.230769 23.462277 115.446154 23.399429 115.661538 23.336103 115.876923 23.272299 116.092308 23.208021 116.307692 23.143269 116.523077 23.078047 116.738462 23.012356 116.953846 22.946199 117.169231 22.879577 117.384615 22.812492 117.600000 22.744948 117.815385 22.676945 118.030769 22.608486 118.246154 22.539573 118.461538 22.470208 118.676923 22.400393 118.892308 22.330130 119.107692 22.259422 119.323077 22.188270 119.538462 22.116677 119.753846 22.044644 119.969231 21.972174 120.184615 21.899269 120.400000 21.825931 120.615385 21.752162 120.830769 21.677963 121.046154 21.603338 121.261538 21.528288 121.476923 21.452816 121.692308 21.376923 121.907692 21.300612 122.123077 21.223884 122.338462 21.146742 122.553846 21.069187 122.769231 20.991223 122.984615 20.912851 123.200000 20.834072 123.415385 20.754890 123.630769 20.675307 123.846154 20.595323 124.061538 20.514942 124.276923 20.434166 124.492308 20.352996 124.707692 20.271435 124.923077 20.189485 125.138462 20.107147 125.353846 20.024425 125.569231 19.941320 125.784615 19.857834 126.000000 19.773969 126.215385 19.689728 126.430769 19.605112 126.646154 19.520124 126.861538 19.434765 127.076923 19.349038 127.292308 19.262945 127.507692 19.176488 127.723077 19.089669 127.938462 19.002491 128.153846 18.914954 128.369231 18.827061 128.584615 18.738816 128.800000 18.650218 129.015385 18.561271 129.230769 18.471977 129.446154 18.382337 129.661538 18.292355 129.876923 18.202031 130.092308 18.111369 130.307692 18.020369 130.523077 17.929035 130.738462 17.837368 130.953846 17.745371 131.169231 17.653045 131.384615 17.560392 131.600000 17.467416 131.815385 17.374117 132.030769 17.280498 132.246154 17.186561 132.461538 17.092308 132.676923 16.997741 132.892308 16.902862 133.107692 16.807674 133.323077 16.712178 133.538462 16.616377 133.753846 16.520272 133.969231 16.423866 134.184615 16.327161 134.400000 16.230159 134.615385 16.132862 134.830769 16.035271 135.046154 15.937390 135.261538 15.839220 135.476923 15.740764 135.692308 15.642023 135.907692 15.543000 136.123077 15.443696 136.338462 15.344114 136.553846 15.244255 136.769231 15.144123 136.984615 15.043719 137.200000 14.943044 137.415385 14.842102 137.630769 14.740895 137.846154 14.639423 138.061538 14.537690 138.276923 14.435698 138.492308 14.333448 138.707692 14.230943 138.923077 14.128185 139.138462 14.025175 139.353846 13.921917 139.569231 13.818412 139.784615 13.714662 140.000000 13.610669 140.215385 13.506436 140.430769 13.401964 140.646154 13.297256 140.861538 13.192313 141.076923 13.087138 141.292308 12.981733 141.507692 12.876100 141.723077 12.770241 141.938462 12.664159 142.153846 12.557854 142.369231 12.451329 142.584615 12.344588 142.800000 12.237630 143.015385 12.130459 143.230769 12.023077 143.446154 11.915485 143.661538 11.807687 143.876923 11.699683 144.092308 11.591477 144.307692 11.483069 144.523077 11.374463 144.738462 11.265660 144.953846 11.156663 145.169231 11.047473 145.384615 10.938092 145.600000 10.828524 145.815385 10.718769 146.030769 10.608830 146.246154 10.498709 146.461538 10.388408 146.676923 10.277929 146.892308 10.167274 147.107692 10.056446 147.323077 9.945446 147.538462 9.834277 147.753846 9.722940 147.969231 9.611438 148.184615 9.499773 148.400000 9.387947 148.615385 9.275962 148.830769 9.163819 149.046154 9.051522 149.261538 8.939072 149.476923 8.826472 149.692308 8.713723 149.907692 8.600828 150.123077 8.487788 150.338462 8.374606 150.553846 8.261283 150.769231 8.147823 150.984615 8.034227 151.200000 7.920496 151.415385 7.806634 151.630769 7.692643 151.846154 7.578523 152.061538 7.464278 152.276923 7.349910 152.492308 7.235420 152.707692 7.120811 152.923077 7.006085 153.138462 6.891243 153.353846 6.776289 153.569231 6.661224 153.784615 6.546050 154.000000 6.430769 154.215385 6.315384 154.430769 6.199896 154.646154 6.084308 154.861538 5.968621 155.076923 5.852838 155.292308 5.736961 155.507692 5.620992 155.723077 5.504933 155.938462 5.388787 156.153846 5.272554 156.369231 5.156237 156.584615 5.039840 156.800000 4.923362 157.015385 4.806807 157.230769 4.690177 157.446154 4.573473 157.661538 4.456699 157.876923 4.339855 158.092308 4.222945 158.307692 4.105969 158.523077 3.988931 158.738462 3.871832 158.953846 3.754675 159.169231 3.637461 159.384615 3.520192 159.600000 3.402872 159.815385 3.285501 160.030769 3.168082 160.246154 3.050617 160.461538 2.933108 160.676923 2.815557 160.892308 2.697966 161.107692 2.580338 161.323077 2.462674 161.538462 2.344977 161.753846 2.227248 161.969231 2.109490 162.184615 1.991705 162.400000 1.873895 162.615385 1.756062 162.830769 1.638207 163.046154 1.520334 163.261538 1.402444 163.476923 1.284540 163.692308 1.166623 163.907692 1.048696 164.123077 0.930760 164.338462 0.812818 164.553846 0.694871 164.769231 0.576923" class="line reactive nofill" /></g></g><g class="titles" /><g transform="translate(22, 10)" class="plot overlay"><g class="series serie-0 color-0" /></g><g transform="translate(22, 10)" class="plot text-overlay"><g class="series serie-0 color-0" /></g><g transform="translate(22, 10)" class="plot tooltip-overlay"><g transform="translate(0 0)" style="opacity: 0" class="tooltip"><rect rx="0" ry="0" width="0" height="0" class="tooltip-box" /><g class="text" /></g></g></g></svg>