<?xml version='1.0' encoding='utf-8'?>
<svg xmlns="http://www.w3.org/2000/svg" id="chart-c19d4754-2a68-4eee-82d4-a7d2b99f3d0f" class="pygal-chart pygal-sparkline" viewBox="0 0 200 50" width="200" height="50"><!--Generated with pygal 3.0.5 (etree) ©Kozea 2012-2016 on 2024-12-01--><!--http://pygal.org--><!--http://github.com/Kozea/pygal--><defs><style type="text/css">#chart-c19d4754-2a68-4eee-82d4-a7d2b99f3d0f{-webkit-user-select:none;-webkit-font-smoothing:antialiased;font-family:Consolas,"Liberation Mono",Menlo,Courier,monospace}#chart-c19d4754-2a68-4eee-82d4-a7d2b99f3d0f .title{font-family:Consolas,"Liberation Mono",Menlo,Courier,monospace;font-size:16px}#chart-c19d4754-2a68-4eee-82d4-a7d2b99f3d0f .legends .legend text{font-family:Consolas,"Liberation Mono",Menlo,Courier,monospace;font-size:14px}#chart-c19d4754-2a68-4eee-82d4-a7d2b99f3d0f .axis text{font-family:Consolas,"Liberation Mono",Menlo,Courier,monospace;font-size:10px}#chart-c19d4754-2a68-4eee-82d4-a7d2b99f3d0f .axis text.major{font-family:Consolas,"Liberation Mono",Menlo,Courier,monospace;font-size:10px}#chart-c19d4754-2a68-4eee-82d4-a7d2b99f3d0f .text-overlay text.value{font-family:Consolas,"Liberation Mono",Menlo,Courier,monospace;font-size:16px}#chart-c19d4754-2a68-4eee-82d4-a7d2b99f3d0f .text-overlay text.label{font-family:Consolas,"Liberation Mono",Menlo,Courier,monospace;font-size:10px}#chart-c19d4754-2a68-4eee-82d4-a7d2b99f3d0f .tooltip{font-family:Consolas,"Liberation Mono",Menlo,Courier,monospace;font-size:14px}#chart-c19d4754-2a68-4eee-82d4-a7d2b99f3d0f text.no_data{font-family:Consolas,"Liberation Mono",Menlo,Courier,monospace;font-size:64px}
#chart-c19d4754-2a68-4eee-82d4-a7d2b99f3d0f{background-color:rgba(249,249,249,1)}#chart-c19d4754-2a68-4eee-82d4-a7d2b99f3d0f path,#chart-c19d4754-2a68-4eee-82d4-a7d2b99f3d0f line,#chart-c19d4754-2a68-4eee-82d4-a7d2b99f3d0f rect,#chart-c19d4754-2a68-4eee-82d4-a7d2b99f3d0f circle{-webkit-transition:150ms;-moz-transition:150ms;transition:150ms}#chart-c19d4754-2a68-4eee-82d4-a7d2b99f3d0f .graph &gt; .background{fill:rgba(249,249,249,1)}#chart-c19d4754-2a68-4eee-82d4-a7d2b99f3d0f .plot &gt; .background{fill:rgba(255,255,255,1)}#chart-c19d4754-2a68-4eee-82d4-a7d2b99f3d0f .graph{fill:rgba(0,0,0,.87)}#chart-c19d4754-2a68-4eee-82d4-a7d2b99f3d0f text.no_data{fill:rgba(0,0,0,1)}#chart-c19d4754-2a68-4eee-82d4-a7d2b99f3d0f .title{fill:rgba(0,0,0,1)}#chart-c19d4754-2a68-4eee-82d4-a7d2b99f3d0f .legends .legend text{fill:rgba(0,0,0,.87)}#chart-c19d4754-2a68-4eee-82d4-a7d2b99f3d0f .legends .legend:hover text{fill:rgba(0,0,0,1)}#chart-c19d4754-2a68-4eee-82d4-a7d2b99f3d0f .axis .line{stroke:rgba(0,0,0,1)}#chart-c19d4754-2a68-4eee-82d4-a7d2b99f3d0f .axis .guide.line{stroke:rgba(0,0,0,.54)}#chart-c19d4754-2a68-4eee-82d4-a7d2b99f3d0f .axis .major.line{stroke:rgba(0,0,0,.87)}#chart-c19d4754-2a68-4eee-82d4-a7d2b99f3d0f .axis text.major{fill:rgba(0,0,0,1)}#chart-c19d4754-2a68-4eee-82d4-a7d2b99f3d0f .axis.y .guides:hover .guide.line,#chart-c19d4754-2a68-4eee-82d4-a7d2b99f3d0f .line-graph .axis.x .guides:hover .guide.line,#chart-c19d4754-2a68-4eee-82d4-a7d2b99f3d0f .stackedline-graph .axis.x .guides:hover .guide.line,#chart-c19d4754-2a68-4eee-82d4-a7d2b99f3d0f .xy-graph .axis.x .guides:hover .guide.line{stroke:rgba(0,0,0,1)}#chart-c19d4754-2a68-4eee-82d4-a7d2b99f3d0f .axis .guides:hover text{fill:rgba(0,0,0,1)}#chart-c19d4754-2a68-4eee-82d4-a7d2b99f3d0f .reactive{fill-opacity:.7;stroke-opacity:.8;stroke-width:1}#chart-c19d4754-2a68-4eee-82d4-a7d2b99f3d0f .ci{stroke:rgba(0,0,0,.87)}#chart-c19d4754-2a68-4eee-82d4-a7d2b99f3d0f .reactive.active,#chart-c19d4754-2a68-4eee-82d4-a7d2b99f3d0f .active .reactive{fill-opacity:.8;stroke-opacity:.9;stroke-width:4}#chart-c19d4754-2a68-4eee-82d4-a7d2b99f3d0f .ci .reactive.active{stroke-width:1.5}#chart-c19d4754-2a68-4eee-82d4-a7d2b99f3d0f .series text{fill:rgba(0,0,0,1)}#chart-c19d4754-2a68-4eee-82d4-a7d2b99f3d0f .tooltip rect{fill:rgba(255,255,255,1);stroke:rgba(0,0,0,1);-webkit-transition:opacity 150ms;-moz-transition:opacity 150ms;transition:opacity 150ms}#chart-c19d4754-2a68-4eee-82d4-a7d2b99f3d0f .tooltip .label{fill:rgba(0,0,0,.87)}#chart-c19d4754-2a68-4eee-82d4-a7d2b99f3d0f .tooltip .label{fill:rgba(0,0,0,.87)}#chart-c19d4754-2a68-4eee-82d4-a7d2b99f3d0f .tooltip .legend{font-size:.8em;fill:rgba(0,0,0,.54)}#chart-c19d4754-2a68-4eee-82d4-a7d2b99f3d0f .tooltip .x_label{font-size:.6em;fill:rgba(0,0,0,1)}#chart-c19d4754-2a68-4eee-82d4-a7d2b99f3d0f .tooltip .xlink{font-size:.5em;text-decoration:underline}#chart-c19d4754-2a68-4eee-82d4-a7d2b99f3d0f .tooltip .value{font-size:1.5em}#chart-c19d4754-2a68-4eee-82d4-a7d2b99f3d0f .bound{font-size:.5em}#chart-c19d4754-2a68-4eee-82d4-a7d2b99f3d0f .max-value{font-size:.75em;fill:rgba(0,0,0,.54)}#chart-c19d4754-2a68-4eee-82d4-a7d2b99f3d0f .map-element{fill:rgba(255,255,255,1);stroke:rgba(0,0,0,.54) !important}#chart-c19d4754-2a68-4eee-82d4-a7d2b99f3d0f .map-element .reactive{fill-opacity:inherit;stroke-opacity:inherit}#chart-c19d4754-2a68-4eee-82d4-a7d2b99f3d0f .color-0,#chart-c19d4754-2a68-4eee-82d4-a7d2b99f3d0f .color-0 a:visited{stroke:#F44336;fill:#F44336}#chart-c19d4754-2a68-4eee-82d4-a7d2b99f3d0f .text-overlay .color-0 text{fill:black}
#chart-c19d4754-2a68-4eee-82d4-a7d2b99f3d0f text.no_data{text-anchor:middle}#chart-c19d4754-2a68-4eee-82d4-a7d2b99f3d0f .guide.line{fill:none}#chart-c19d4754-2a68-4eee-82d4-a7d2b99f3d0f .centered{text-anchor:middle}#chart-c19d4754-2a68-4eee-82d4-a7d2b99f3d0f .title{text-anchor:middle}#chart-c19d4754-2a68-4eee-82d4-a7d2b99f3d0f .legends .legend text{fill-opacity:1}#chart-c19d4754-2a68-4eee-82d4-a7d2b99f3d0f .axis.x text{text-anchor:middle}#chart-c19d4754-2a68-4eee-82d4-a7d2b99f3d0f .axis.x:not(.web) text[transform]{text-anchor:start}#chart-c19d4754-2a68-4eee-82d4-a7d2b99f3d0f .axis.x:not(.web) text[transform].backwards{text-anchor:end}#chart-c19d4754-2a68-4eee-82d4-a7d2b99f3d0f .axis.y text{text-anchor:end}#chart-c19d4754-2a68-4eee-82d4-a7d2b99f3d0f .axis.y text[transform].backwards{text-anchor:start}#chart-c19d4754-2a68-4eee-82d4-a7d2b99f3d0f .axis.y2 text{text-anchor:start}#chart-c19d4754-2a68-4eee-82d4-a7d2b99f3d0f .axis.y2 text[transform].backwards{text-anchor:end}#chart-c19d4754-2a68-4eee-82d4-a7d2b99f3d0f .axis .guide.line{stroke-dasharray:4,4;stroke:black}#chart-c19d4754-2a68-4eee-82d4-a7d2b99f3d0f .axis .major.guide.line{stroke-dasharray:6,6;stroke:black}#chart-c19d4754-2a68-4eee-82d4-a7d2b99f3d0f .horizontal .axis.y .guide.line,#chart-c19d4754-2a68-4eee-82d4-a7d2b99f3d0f .horizontal .axis.y2 .guide.line,#chart-c19d4754-2a68-4eee-82d4-a7d2b99f3d0f .vertical .axis.x .guide.line{opacity:0}#chart-c19d4754-2a68-4eee-82d4-a7d2b99f3d0f .horizontal .axis.always_show .guide.line,#chart-c19d4754-2a68-4eee-82d4-a7d2b99f3d0f .vertical .axis.always_show .guide.line{opacity:1 !important}#chart-c19d4754-2a68-4eee-82d4-a7d2b99f3d0f .axis.y .guides:hover .guide.line,#chart-c19d4754-2a68-4eee-82d4-a7d2b99f3d0f .axis.y2 .guides:hover .guide.line,#chart-c19d4754-2a68-4eee-82d4-a7d2b99f3d0f .axis.x .guides:hover .guide.line{opacity:1}#chart-c19d4754-2a68-4eee-82d4-a7d2b99f3d0f .axis .guides:hover text{opacity:1}#chart-c19d4754-2a68-4eee-82d4-a7d2b99f3d0f .nofill{fill:none}#chart-c19d4754-2a68-4eee-82d4-a7d2b99f3d0f .subtle-fill{fill-opacity:.2}#chart-c19d4754-2a68-4eee-82d4-a7d2b99f3d0f .dot{stroke-width:1px;fill-opacity:1;stroke-opacity:1}#chart-c19d4754-2a68-4eee-82d4-a7d2b99f3d0f .dot.active{stroke-width:5px}#chart-c19d4754-2a68-4eee-82d4-a7d2b99f3d0f .dot.negative{fill:transparent}#chart-c19d4754-2a68-4eee-82d4-a7d2b99f3d0f text,#chart-c19d4754-2a68-4eee-82d4-a7d2b99f3d0f tspan{stroke:none !important}#chart-c19d4754-2a68-4eee-82d4-a7d2b99f3d0f .series text.active{opacity:1}#chart-c19d4754-2a68-4eee-82d4-a7d2b99f3d0f .tooltip rect{fill-opacity:.95;stroke-width:.5}#chart-c19d4754-2a68-4eee-82d4-a7d2b99f3d0f .tooltip text{fill-opacity:1}#chart-c19d4754-2a68-4eee-82d4-a7d2b99f3d0f .showable{visibility:hidden}#chart-c19d4754-2a68-4eee-82d4-a7d2b99f3d0f .showable.shown{visibility:visible}#chart-c19d4754-2a68-4eee-82d4-a7d2b99f3d0f .gauge-background{fill:rgba(229,229,229,1);stroke:none}#chart-c19d4754-2a68-4eee-82d4-a7d2b99f3d0f .bg-lines{stroke:rgba(249,249,249,1);stroke-width:2px}</style><script type="text/javascript">window.pygal = window.pygal || {};window.pygal.config = window.pygal.config || {};window.pygal.config['c19d4754-2a68-4eee-82d4-a7d2b99f3d0f'] = {"allow_interruptions": false, "box_mode": "extremes", "classes": ["pygal-chart", "pygal-sparkline"], "css": ["file://style.css", "file://graph.css"], "defs": [], "disable_xml_declaration": false, "dots_size": 2.5, "dynamic_print_values": false, "explicit_size": true, "fill": false, "force_uri_protocol": "https", "formatter": null, "half_pie": false, "height": 50, "include_x_axis": false, "inner_radius": 0, "interpolate": "cubic", "interpolation_parameters": {}, "interpolation_precision": 250, "inverse_y_axis": false, "js": [], "legend_at_bottom": false, "legend_at_bottom_columns": null, "legend_box_size": 12, "logarithmic": false, "margin": 10, "margin_bottom": null, "margin_left": null, "margin_right": null, "margin_top": null, "max_scale": 2, "min_scale": 1, "missing_value_fill_truncation": "x", "no_data_text": "", "no_prefix": false, "order_min": null, "pretty_print": false, "print_labels": false, "print_values": false, "print_values_position": "center", "print_zeroes": true, "range": null, "rounded_bars": null, "secondary_range": null, "show_dots": false, "show_legend": false, "show_minor_x_labels": true, "show_minor_y_labels": true, "show_only_major_dots": false, "show_x_guides": false, "show_x_labels": false, "show_y_guides": true, "show_y_labels": true, "spacing": 0, "stack_from_top": false, "strict": false, "stroke": true, "stroke_style": null, "style": {"background": "rgba(249, 249, 249, 1)", "ci_colors": [], "colors": ["#F44336", "#3F51B5", "#009688", "#FFC107", "#FF5722", "#9C27B0", "#03A9F4", "#8BC34A", "#FF9800", "#E91E63", "#2196F3", "#4CAF50", "#FFEB3B", "#673AB7", "#00BCD4", "#CDDC39", "#9E9E9E", "#607D8B"], "dot_opacity": "1", "font_family": "Consolas, \"Liberation Mono\", Menlo, Courier, monospace", "foreground": "rgba(0, 0, 0, .87)", "foreground_strong": "rgba(0, 0, 0, 1)", "foreground_subtle": "rgba(0, 0, 0, .54)", "guide_stroke_color": "black", "guide_stroke_dasharray": "4,4", "label_font_family": "Consolas, \"Liberation Mono\", Menlo, Courier, monospace", "label_font_size": 10, "legend_font_family": "Consolas, \"Liberation Mono\", Menlo, Courier, monospace", "legend_font_size": 14, "major_guide_stroke_color": "black", "major_guide_stroke_dasharray": "6,6", "major_label_font_family": "Consolas, \"Liberation Mono\", Menlo, Courier, monospace", "major_label_font_size": 10, "no_data_font_family": "Consolas, \"Liberation Mono\", Menlo, Courier, monospace", "no_data_font_size": 64, "opacity": ".7", "opacity_hover": ".8", "plot_background": "rgba(255, 255, 255, 1)", "stroke_opacity": ".8", "stroke_opacity_hover": ".9", "stroke_width": "1", "stroke_width_hover": "4", "title_font_family": "Consolas, \"Liberation Mono\", Menlo, Courier, monospace", "title_font_size": 16, "tooltip_font_family": "Consolas, \"Liberation Mono\", Menlo, Courier, monospace", "tooltip_font_size": 14, "transition": "150ms", "value_background": "rgba(229, 229, 229, 1)", "value_colors": [], "value_font_family": "Consolas, \"Liberation Mono\", Menlo, Courier, monospace", "value_font_size": 16, "value_label_font_family": "Consolas, \"Liberation Mono\", Menlo, Courier, monospace", "value_label_font_size": 10}, "title": null, "tooltip_border_radius": 0, "tooltip_fancy_mode": true, "truncate_label": null, "truncate_legend": null, "width": 200, "x_label_rotation": 0, "x_labels": ["2024/11", "2024/10", "2024/9", "2024/8"], "x_labels_major": null, "x_labels_major_count": null, "x_labels_major_every": null, "x_title": null, "xrange": null, "y_label_rotation": 0, "y_labels": null, "y_labels_major": null, "y_labels_major_count": null, "y_labels_major_every": null, "y_title": null, "zero": 0, "legends": [""]}</script></defs><title>Pygal</title><g class="graph line-graph vertical"><rect x="0" y="0" width="200" height="50" class="background" /><g transform="translate(76, 10)" class="plot"><rect x="0" y="0" width="114.0" height="30" class="background" /><g class="axis y always_show"><path d="M0.000000 30.000000 h114.000000" class="line" /><g class="guides"><path d="M0.000000 29.423077 h114.000000" class="guide line" /><text x="-5" y="32.92307692307692" class="">2.587323776</text><title>2.587323776</title></g><g class="guides"><path d="M0.000000 0.576923 h114.000000" class="guide line" /><text x="-5" y="4.076923076923077" class="">12</text><title>12</title></g></g><g class="series serie-0 color-0"><path d="M2.192308 0.576923 L2.338462 0.720755 2.484615 0.864583 2.630769 1.008405 2.776923 1.152218 2.923077 1.296017 3.069231 1.439801 3.215385 1.583565 3.361538 1.727306 3.507692 1.871022 3.653846 2.014709 3.800000 2.158364 3.946154 2.301983 4.092308 2.445564 4.238462 2.589103 4.384615 2.732597 4.530769 2.876043 4.676923 3.019437 4.823077 3.162777 4.969231 3.306058 5.115385 3.449279 5.261538 3.592435 5.407692 3.735524 5.553846 3.878541 5.700000 4.021485 5.846154 4.164352 5.992308 4.307138 6.138462 4.449841 6.284615 4.592457 6.430769 4.734983 6.576923 4.877415 6.723077 5.019751 6.869231 5.161987 7.015385 5.304121 7.161538 5.446148 7.307692 5.588066 7.453846 5.729871 7.600000 5.871560 7.746154 6.013131 7.892308 6.154579 8.038462 6.295902 8.184615 6.437096 8.330769 6.578158 8.476923 6.719085 8.623077 6.859874 8.769231 7.000521 8.915385 7.141023 9.061538 7.281378 9.207692 7.421581 9.353846 7.561630 9.500000 7.701522 9.646154 7.841252 9.792308 7.980818 9.938462 8.120218 10.084615 8.259446 10.230769 8.398501 10.376923 8.537380 10.523077 8.676078 10.669231 8.814592 10.815385 8.952920 10.961538 9.091058 11.107692 9.229004 11.253846 9.366753 11.400000 9.504303 11.546154 9.641650 11.692308 9.778791 11.838462 9.915723 11.984615 10.052442 12.130769 10.188947 12.276923 10.325232 12.423077 10.461296 12.569231 10.597134 12.715385 10.732744 12.861538 10.868123 13.007692 11.003266 13.153846 11.138172 13.300000 11.272836 13.446154 11.407256 13.592308 11.541428 13.738462 11.675350 13.884615 11.809017 14.030769 11.942427 14.176923 12.075576 14.323077 12.208462 14.469231 12.341080 14.615385 12.473429 14.761538 12.605503 14.907692 12.737302 15.053846 12.868820 15.200000 13.000056 15.346154 13.131005 15.492308 13.261665 15.638462 13.392032 15.784615 13.522103 15.930769 13.651874 16.076923 13.781344 16.223077 13.910508 16.369231 14.039363 16.515385 14.167906 16.661538 14.296134 16.807692 14.424044 16.953846 14.551631 17.100000 14.678894 17.246154 14.805829 17.392308 14.932433 17.538462 15.058702 17.684615 15.184633 17.830769 15.310223 17.976923 15.435469 18.123077 15.560368 18.269231 15.684916 18.415385 15.809110 18.561538 15.932948 18.707692 16.056425 18.853846 16.179538 19.000000 16.302285 19.146154 16.424662 19.292308 16.546665 19.438462 16.668293 19.584615 16.789541 19.730769 16.910406 19.876923 17.030885 20.023077 17.150975 20.169231 17.270672 20.315385 17.389974 20.461538 17.508877 20.607692 17.627378 20.753846 17.745473 20.900000 17.863161 21.046154 17.980436 21.192308 18.097296 21.338462 18.213738 21.484615 18.329759 21.630769 18.445356 21.776923 18.560524 21.923077 18.675262 22.069231 18.789565 22.215385 18.903430 22.361538 19.016856 22.507692 19.129837 22.653846 19.242371 22.800000 19.354454 22.946154 19.466085 23.092308 19.577258 23.238462 19.687972 23.384615 19.798222 23.530769 19.908006 23.676923 20.017320 23.823077 20.126161 23.969231 20.234527 24.115385 20.342413 24.261538 20.449816 24.407692 20.556734 24.553846 20.663163 24.700000 20.769100 24.846154 20.874541 24.992308 20.979484 25.138462 21.083925 25.284615 21.187861 25.430769 21.291289 25.576923 21.394205 25.723077 21.496607 25.869231 21.598491 26.015385 21.699854 26.161538 21.800692 26.307692 21.901003 26.453846 22.000783 26.600000 22.100030 26.746154 22.198739 26.892308 22.296907 27.038462 22.394532 27.184615 22.491611 27.330769 22.588139 27.476923 22.684114 27.623077 22.779532 27.769231 22.874391 27.915385 22.968687 28.061538 23.062417 28.207692 23.155577 28.353846 23.248165 28.500000 23.340177 28.646154 23.431610 28.792308 23.522461 28.938462 23.612726 29.084615 23.702403 29.230769 23.791488 29.376923 23.879978 29.523077 23.967870 29.669231 24.055160 29.815385 24.141845 29.961538 24.227923 30.107692 24.313389 30.253846 24.398241 30.400000 24.482475 30.546154 24.566088 30.692308 24.649078 30.838462 24.731440 30.984615 24.813172 31.130769 24.894270 31.276923 24.974731 31.423077 25.054552 31.569231 25.133730 31.715385 25.212262 31.861538 25.290143 32.007692 25.367372 32.153846 25.443944 32.300000 25.519857 32.446154 25.595107 32.592308 25.669692 32.738462 25.743607 32.884615 25.816850 33.030769 25.889418 33.176923 25.961307 33.323077 26.032514 33.469231 26.103036 33.615385 26.172869 33.761538 26.242011 33.907692 26.310458 34.053846 26.378208 34.200000 26.445256 34.346154 26.511599 34.492308 26.577235 34.638462 26.642160 34.784615 26.706371 34.930769 26.769864 35.076923 26.832637 35.223077 26.894687 35.369231 26.956009 35.515385 27.016601 35.661538 27.076460 35.807692 27.135582 35.953846 27.193965 36.100000 27.251604 36.246154 27.308497 36.392308 27.364641 36.538462 27.420032 36.684615 27.474667 36.830769 27.528543 36.976923 27.581656 37.123077 27.634005 37.269231 27.685584 37.415385 27.736391 37.561538 27.786423 37.707692 27.835677 37.853846 27.884149 38.000000 27.931836 38.146154 27.978735 38.292308 28.024843 38.438462 28.070156 38.584615 28.114672 38.730769 28.158386 38.876923 28.201298 39.023077 28.243409 39.169231 28.284721 39.315385 28.325239 39.461538 28.364965 39.607692 28.403903 39.753846 28.442056 39.900000 28.479426 40.046154 28.516018 40.192308 28.551833 40.338462 28.586876 40.484615 28.621149 40.630769 28.654655 40.776923 28.687398 40.923077 28.719381 41.069231 28.750607 41.215385 28.781079 41.361538 28.810800 41.507692 28.839773 41.653846 28.868002 41.800000 28.895490 41.946154 28.922239 42.092308 28.948253 42.238462 28.973535 42.384615 28.998089 42.530769 29.021916 42.676923 29.045022 42.823077 29.067407 42.969231 29.089077 43.115385 29.110033 43.261538 29.130279 43.407692 29.149818 43.553846 29.168654 43.700000 29.186789 43.846154 29.204227 43.992308 29.220970 44.138462 29.237022 44.284615 29.252386 44.430769 29.267065 44.576923 29.281062 44.723077 29.294381 44.869231 29.307024 45.015385 29.318995 45.161538 29.330297 45.307692 29.340933 45.453846 29.350905 45.600000 29.360218 45.746154 29.368874 45.892308 29.376877 46.038462 29.384229 46.184615 29.390934 46.330769 29.396995 46.476923 29.402415 46.623077 29.407197 46.769231 29.411345 46.915385 29.414861 47.061538 29.417748 47.207692 29.420011 47.353846 29.421651 47.500000 29.422672 47.646154 29.423077 47.792308 29.422869 47.938462 29.422052 48.084615 29.420629 48.230769 29.418602 48.376923 29.415975 48.523077 29.412751 48.669231 29.408933 48.815385 29.404524 48.961538 29.399528 49.107692 29.393947 49.253846 29.387785 49.400000 29.381044 49.546154 29.373729 49.692308 29.365842 49.838462 29.357385 49.984615 29.348364 50.130769 29.338779 50.276923 29.328636 50.423077 29.317936 50.569231 29.306683 50.715385 29.294880 50.861538 29.282530 51.007692 29.269636 51.153846 29.256202 51.300000 29.242231 51.446154 29.227725 51.592308 29.212688 51.738462 29.197123 51.884615 29.181034 52.030769 29.164422 52.176923 29.147292 52.323077 29.129647 52.469231 29.111489 52.615385 29.092822 52.761538 29.073649 52.907692 29.053973 53.053846 29.033797 53.200000 29.013125 53.346154 28.991960 53.492308 28.970304 53.638462 28.948160 53.784615 28.925533 53.930769 28.902425 54.076923 28.878839 54.223077 28.854778 54.369231 28.830246 54.515385 28.805245 54.661538 28.779780 54.807692 28.753852 54.953846 28.727465 55.100000 28.700622 55.246154 28.673327 55.392308 28.645582 55.538462 28.617391 55.684615 28.588757 55.830769 28.559682 55.976923 28.530170 56.123077 28.500225 56.269231 28.469849 56.415385 28.439045 56.561538 28.407817 56.707692 28.376167 56.853846 28.344099 57.000000 28.311617 57.146154 28.278722 57.292308 28.245419 57.438462 28.211710 57.584615 28.177599 57.730769 28.143088 57.876923 28.108181 58.023077 28.072881 58.169231 28.037191 58.315385 28.001115 58.461538 27.964654 58.607692 27.927813 58.753846 27.890595 58.900000 27.853003 59.046154 27.815039 59.192308 27.776708 59.338462 27.738012 59.484615 27.698954 59.630769 27.659537 59.776923 27.619766 59.923077 27.579642 60.069231 27.539168 60.215385 27.498349 60.361538 27.457187 60.507692 27.415685 60.653846 27.373847 60.800000 27.331675 60.946154 27.289173 61.092308 27.246344 61.238462 27.203191 61.384615 27.159717 61.530769 27.115925 61.676923 27.071819 61.823077 27.027401 61.969231 26.982675 62.115385 26.937643 62.261538 26.892310 62.407692 26.846677 62.553846 26.800749 62.700000 26.754529 62.846154 26.708018 62.992308 26.661222 63.138462 26.614142 63.284615 26.566782 63.430769 26.519145 63.576923 26.471234 63.723077 26.423053 63.869231 26.374604 64.015385 26.325891 64.161538 26.276917 64.307692 26.227684 64.453846 26.178196 64.600000 26.128457 64.746154 26.078469 64.892308 26.028235 65.038462 25.977759 65.184615 25.927044 65.330769 25.876092 65.476923 25.824908 65.623077 25.773493 65.769231 25.721852 65.915385 25.669988 66.061538 25.617902 66.207692 25.565600 66.353846 25.513083 66.500000 25.460355 66.646154 25.407420 66.792308 25.354279 66.938462 25.300937 67.084615 25.247397 67.230769 25.193661 67.376923 25.139733 67.523077 25.085616 67.669231 25.031313 67.815385 24.976827 67.961538 24.922161 68.107692 24.867319 68.253846 24.812304 68.400000 24.757118 68.546154 24.701765 68.692308 24.646249 68.838462 24.590571 68.984615 24.534736 69.130769 24.478746 69.276923 24.422605 69.423077 24.366315 69.569231 24.309881 69.715385 24.253304 69.861538 24.196588 70.007692 24.139737 70.153846 24.082753 70.300000 24.025640 70.446154 23.968400 70.592308 23.911038 70.738462 23.853555 70.884615 23.795955 71.030769 23.738242 71.176923 23.680418 71.323077 23.622486 71.469231 23.564450 71.615385 23.506313 71.761538 23.448078 71.907692 23.389748 72.053846 23.331326 72.200000 23.272815 72.346154 23.214219 72.492308 23.155541 72.638462 23.096783 72.784615 23.037949 72.930769 22.979042 73.076923 22.920066 73.223077 22.861023 73.369231 22.801916 73.515385 22.742749 73.661538 22.683524 73.807692 22.624246 73.953846 22.564916 74.100000 22.505538 74.246154 22.446116 74.392308 22.386652 74.538462 22.327150 74.684615 22.267613 74.830769 22.208043 74.976923 22.148444 75.123077 22.088820 75.269231 22.029172 75.415385 21.969505 75.561538 21.909818 75.707692 21.850111 75.853846 21.790386 76.000000 21.730640 76.146154 21.670876 76.292308 21.611093 76.438462 21.551290 76.584615 21.491468 76.730769 21.431628 76.876923 21.371769 77.023077 21.311891 77.169231 21.251994 77.315385 21.192079 77.461538 21.132145 77.607692 21.072192 77.753846 21.012222 77.900000 20.952233 78.046154 20.892226 78.192308 20.832201 78.338462 20.772157 78.484615 20.712096 78.630769 20.652017 78.776923 20.591920 78.923077 20.531805 79.069231 20.471673 79.215385 20.411523 79.361538 20.351356 79.507692 20.291171 79.653846 20.230969 79.800000 20.170749 79.946154 20.110513 80.092308 20.050259 80.238462 19.989988 80.384615 19.929701 80.530769 19.869396 80.676923 19.809075 80.823077 19.748737 80.969231 19.688382 81.115385 19.628011 81.261538 19.567623 81.407692 19.507219 81.553846 19.446799 81.700000 19.386362 81.846154 19.325909 81.992308 19.265441 82.138462 19.204956 82.284615 19.144455 82.430769 19.083938 82.576923 19.023406 82.723077 18.962858 82.869231 18.902294 83.015385 18.841715 83.161538 18.781120 83.307692 18.720510 83.453846 18.659884 83.600000 18.599244 83.746154 18.538588 83.892308 18.477917 84.038462 18.417231 84.184615 18.356531 84.330769 18.295815 84.476923 18.235085 84.623077 18.174340 84.769231 18.113580 84.915385 18.052806 85.061538 17.992018 85.207692 17.931215 85.353846 17.870398 85.500000 17.809566 85.646154 17.748721 85.792308 17.687861 85.938462 17.626988 86.084615 17.566101 86.230769 17.505199 86.376923 17.444285 86.523077 17.383356 86.669231 17.322414 86.815385 17.261458 86.961538 17.200489 87.107692 17.139507 87.253846 17.078511 87.400000 17.017502 87.546154 16.956481 87.692308 16.895446 87.838462 16.834398 87.984615 16.773337 88.130769 16.712263 88.276923 16.651177 88.423077 16.590078 88.569231 16.528967 88.715385 16.467843 88.861538 16.406707 89.007692 16.345558 89.153846 16.284397 89.300000 16.223224 89.446154 16.162039 89.592308 16.100842 89.738462 16.039633 89.884615 15.978412 90.030769 15.917180 90.176923 15.855935 90.323077 15.794679 90.469231 15.733412 90.615385 15.672133 90.761538 15.610843 90.907692 15.549541 91.053846 15.488228 91.200000 15.426904 91.346154 15.365569 91.492308 15.304223 91.638462 15.242866 91.784615 15.181499 91.930769 15.120120 92.076923 15.058731 92.223077 14.997331 92.369231 14.935921 92.515385 14.874500 92.661538 14.813069 92.807692 14.751628 92.953846 14.690176 93.100000 14.628715 93.246154 14.567243 93.392308 14.505761 93.538462 14.444270 93.684615 14.382769 93.830769 14.321258 93.976923 14.259737 94.123077 14.198207 94.269231 14.136667 94.415385 14.075118 94.561538 14.013559 94.707692 13.951991 94.853846 13.890414 95.000000 13.828828 95.146154 13.767233 95.292308 13.705629 95.438462 13.644016 95.584615 13.582394 95.730769 13.520764 95.876923 13.459125 96.023077 13.397477 96.169231 13.335821 96.315385 13.274157 96.461538 13.212484 96.607692 13.150803 96.753846 13.089114 96.900000 13.027417 97.046154 12.965712 97.192308 12.903998 97.338462 12.842277 97.484615 12.780549 97.630769 12.718812 97.776923 12.657068 97.923077 12.595317 98.069231 12.533557 98.215385 12.471791 98.361538 12.410017 98.507692 12.348236 98.653846 12.286448 98.800000 12.224653 98.946154 12.162851 99.092308 12.101042 99.238462 12.039226 99.384615 11.977403 99.530769 11.915574 99.676923 11.853738 99.823077 11.791896 99.969231 11.730047 100.115385 11.668192 100.261538 11.606331 100.407692 11.544463 100.553846 11.482589 100.700000 11.420709 100.846154 11.358824 100.992308 11.296932 101.138462 11.235034 101.284615 11.173131 101.430769 11.111222 101.576923 11.049308 101.723077 10.987388 101.869231 10.925463 102.015385 10.863532 102.161538 10.801596 102.307692 10.739655 102.453846 10.677709 102.600000 10.615758 102.746154 10.553802 102.892308 10.491841 103.038462 10.429875 103.184615 10.367904 103.330769 10.305929 103.476923 10.243950 103.623077 10.181966 103.769231 10.119977 103.915385 10.057984 104.061538 9.995987 104.207692 9.933986 104.353846 9.871981 104.500000 9.809971 104.646154 9.747958 104.792308 9.685941 104.938462 9.623920 105.084615 9.561895 105.230769 9.499867 105.376923 9.437836 105.523077 9.375800 105.669231 9.313762 105.815385 9.251720 105.961538 9.189675 106.107692 9.127627 106.253846 9.065576 106.400000 9.003522 106.546154 8.941464 106.692308 8.879404 106.838462 8.817342 106.984615 8.755276 107.130769 8.693209 107.276923 8.631138 107.423077 8.569065 107.569231 8.506990 107.715385 8.444912 107.861538 8.382833 108.007692 8.320751 108.153846 8.258667 108.300000 8.196581 108.446154 8.134494 108.592308 8.072404 108.738462 8.010313 108.884615 7.948220 109.030769 7.886125 109.176923 7.824030 109.323077 7.761932 109.469231 7.699834 109.615385 7.637734 109.761538 7.575632 109.907692 7.513530 110.053846 7.451427 110.200000 7.389323 110.346154 7.327218 110.492308 7.265112 110.638462 7.203005 110.784615 7.140898 110.930769 7.078791 111.076923 7.016682 111.223077 6.954574 111.369231 6.892465 111.515385 6.830356 111.661538 6.768247 111.807692 6.706137" class="line reactive nofill" /></g></g><g class="titles" /><g transform="translate(76, 10)" class="plot overlay"><g class="series serie-0 color-0" /></g><g transform="translate(76, 10)" class="plot text-overlay"><g class="series serie-0 color-0" /></g><g transform="translate(76, 10)" class="plot tooltip-overlay"><g transform="translate(0 0)" style="opacity: 0" class="tooltip"><rect rx="0" ry="0" width="0" height="0" class="tooltip-box" /><g class="text" /></g></g></g></svg>