<?xml version='1.0' encoding='utf-8'?>
<svg xmlns="http://www.w3.org/2000/svg" id="chart-054b97f5-098b-41b9-b534-5a93e3cb41d0" class="pygal-chart pygal-sparkline" viewBox="0 0 200 50" width="200" height="50"><!--Generated with pygal 3.0.4 (etree) ©Kozea 2012-2016 on 2024-06-23--><!--http://pygal.org--><!--http://github.com/Kozea/pygal--><defs><style type="text/css">#chart-054b97f5-098b-41b9-b534-5a93e3cb41d0{-webkit-user-select:none;-webkit-font-smoothing:antialiased;font-family:Consolas,"Liberation Mono",Menlo,Courier,monospace}#chart-054b97f5-098b-41b9-b534-5a93e3cb41d0 .title{font-family:Consolas,"Liberation Mono",Menlo,Courier,monospace;font-size:16px}#chart-054b97f5-098b-41b9-b534-5a93e3cb41d0 .legends .legend text{font-family:Consolas,"Liberation Mono",Menlo,Courier,monospace;font-size:14px}#chart-054b97f5-098b-41b9-b534-5a93e3cb41d0 .axis text{font-family:Consolas,"Liberation Mono",Menlo,Courier,monospace;font-size:10px}#chart-054b97f5-098b-41b9-b534-5a93e3cb41d0 .axis text.major{font-family:Consolas,"Liberation Mono",Menlo,Courier,monospace;font-size:10px}#chart-054b97f5-098b-41b9-b534-5a93e3cb41d0 .text-overlay text.value{font-family:Consolas,"Liberation Mono",Menlo,Courier,monospace;font-size:16px}#chart-054b97f5-098b-41b9-b534-5a93e3cb41d0 .text-overlay text.label{font-family:Consolas,"Liberation Mono",Menlo,Courier,monospace;font-size:10px}#chart-054b97f5-098b-41b9-b534-5a93e3cb41d0 .tooltip{font-family:Consolas,"Liberation Mono",Menlo,Courier,monospace;font-size:14px}#chart-054b97f5-098b-41b9-b534-5a93e3cb41d0 text.no_data{font-family:Consolas,"Liberation Mono",Menlo,Courier,monospace;font-size:64px}
#chart-054b97f5-098b-41b9-b534-5a93e3cb41d0{background-color:rgba(249,249,249,1)}#chart-054b97f5-098b-41b9-b534-5a93e3cb41d0 path,#chart-054b97f5-098b-41b9-b534-5a93e3cb41d0 line,#chart-054b97f5-098b-41b9-b534-5a93e3cb41d0 rect,#chart-054b97f5-098b-41b9-b534-5a93e3cb41d0 circle{-webkit-transition:150ms;-moz-transition:150ms;transition:150ms}#chart-054b97f5-098b-41b9-b534-5a93e3cb41d0 .graph &gt; .background{fill:rgba(249,249,249,1)}#chart-054b97f5-098b-41b9-b534-5a93e3cb41d0 .plot &gt; .background{fill:rgba(255,255,255,1)}#chart-054b97f5-098b-41b9-b534-5a93e3cb41d0 .graph{fill:rgba(0,0,0,.87)}#chart-054b97f5-098b-41b9-b534-5a93e3cb41d0 text.no_data{fill:rgba(0,0,0,1)}#chart-054b97f5-098b-41b9-b534-5a93e3cb41d0 .title{fill:rgba(0,0,0,1)}#chart-054b97f5-098b-41b9-b534-5a93e3cb41d0 .legends .legend text{fill:rgba(0,0,0,.87)}#chart-054b97f5-098b-41b9-b534-5a93e3cb41d0 .legends .legend:hover text{fill:rgba(0,0,0,1)}#chart-054b97f5-098b-41b9-b534-5a93e3cb41d0 .axis .line{stroke:rgba(0,0,0,1)}#chart-054b97f5-098b-41b9-b534-5a93e3cb41d0 .axis .guide.line{stroke:rgba(0,0,0,.54)}#chart-054b97f5-098b-41b9-b534-5a93e3cb41d0 .axis .major.line{stroke:rgba(0,0,0,.87)}#chart-054b97f5-098b-41b9-b534-5a93e3cb41d0 .axis text.major{fill:rgba(0,0,0,1)}#chart-054b97f5-098b-41b9-b534-5a93e3cb41d0 .axis.y .guides:hover .guide.line,#chart-054b97f5-098b-41b9-b534-5a93e3cb41d0 .line-graph .axis.x .guides:hover .guide.line,#chart-054b97f5-098b-41b9-b534-5a93e3cb41d0 .stackedline-graph .axis.x .guides:hover .guide.line,#chart-054b97f5-098b-41b9-b534-5a93e3cb41d0 .xy-graph .axis.x .guides:hover .guide.line{stroke:rgba(0,0,0,1)}#chart-054b97f5-098b-41b9-b534-5a93e3cb41d0 .axis .guides:hover text{fill:rgba(0,0,0,1)}#chart-054b97f5-098b-41b9-b534-5a93e3cb41d0 .reactive{fill-opacity:.7;stroke-opacity:.8;stroke-width:1}#chart-054b97f5-098b-41b9-b534-5a93e3cb41d0 .ci{stroke:rgba(0,0,0,.87)}#chart-054b97f5-098b-41b9-b534-5a93e3cb41d0 .reactive.active,#chart-054b97f5-098b-41b9-b534-5a93e3cb41d0 .active .reactive{fill-opacity:.8;stroke-opacity:.9;stroke-width:4}#chart-054b97f5-098b-41b9-b534-5a93e3cb41d0 .ci .reactive.active{stroke-width:1.5}#chart-054b97f5-098b-41b9-b534-5a93e3cb41d0 .series text{fill:rgba(0,0,0,1)}#chart-054b97f5-098b-41b9-b534-5a93e3cb41d0 .tooltip rect{fill:rgba(255,255,255,1);stroke:rgba(0,0,0,1);-webkit-transition:opacity 150ms;-moz-transition:opacity 150ms;transition:opacity 150ms}#chart-054b97f5-098b-41b9-b534-5a93e3cb41d0 .tooltip .label{fill:rgba(0,0,0,.87)}#chart-054b97f5-098b-41b9-b534-5a93e3cb41d0 .tooltip .label{fill:rgba(0,0,0,.87)}#chart-054b97f5-098b-41b9-b534-5a93e3cb41d0 .tooltip .legend{font-size:.8em;fill:rgba(0,0,0,.54)}#chart-054b97f5-098b-41b9-b534-5a93e3cb41d0 .tooltip .x_label{font-size:.6em;fill:rgba(0,0,0,1)}#chart-054b97f5-098b-41b9-b534-5a93e3cb41d0 .tooltip .xlink{font-size:.5em;text-decoration:underline}#chart-054b97f5-098b-41b9-b534-5a93e3cb41d0 .tooltip .value{font-size:1.5em}#chart-054b97f5-098b-41b9-b534-5a93e3cb41d0 .bound{font-size:.5em}#chart-054b97f5-098b-41b9-b534-5a93e3cb41d0 .max-value{font-size:.75em;fill:rgba(0,0,0,.54)}#chart-054b97f5-098b-41b9-b534-5a93e3cb41d0 .map-element{fill:rgba(255,255,255,1);stroke:rgba(0,0,0,.54) !important}#chart-054b97f5-098b-41b9-b534-5a93e3cb41d0 .map-element .reactive{fill-opacity:inherit;stroke-opacity:inherit}#chart-054b97f5-098b-41b9-b534-5a93e3cb41d0 .color-0,#chart-054b97f5-098b-41b9-b534-5a93e3cb41d0 .color-0 a:visited{stroke:#F44336;fill:#F44336}#chart-054b97f5-098b-41b9-b534-5a93e3cb41d0 .text-overlay .color-0 text{fill:black}
#chart-054b97f5-098b-41b9-b534-5a93e3cb41d0 text.no_data{text-anchor:middle}#chart-054b97f5-098b-41b9-b534-5a93e3cb41d0 .guide.line{fill:none}#chart-054b97f5-098b-41b9-b534-5a93e3cb41d0 .centered{text-anchor:middle}#chart-054b97f5-098b-41b9-b534-5a93e3cb41d0 .title{text-anchor:middle}#chart-054b97f5-098b-41b9-b534-5a93e3cb41d0 .legends .legend text{fill-opacity:1}#chart-054b97f5-098b-41b9-b534-5a93e3cb41d0 .axis.x text{text-anchor:middle}#chart-054b97f5-098b-41b9-b534-5a93e3cb41d0 .axis.x:not(.web) text[transform]{text-anchor:start}#chart-054b97f5-098b-41b9-b534-5a93e3cb41d0 .axis.x:not(.web) text[transform].backwards{text-anchor:end}#chart-054b97f5-098b-41b9-b534-5a93e3cb41d0 .axis.y text{text-anchor:end}#chart-054b97f5-098b-41b9-b534-5a93e3cb41d0 .axis.y text[transform].backwards{text-anchor:start}#chart-054b97f5-098b-41b9-b534-5a93e3cb41d0 .axis.y2 text{text-anchor:start}#chart-054b97f5-098b-41b9-b534-5a93e3cb41d0 .axis.y2 text[transform].backwards{text-anchor:end}#chart-054b97f5-098b-41b9-b534-5a93e3cb41d0 .axis .guide.line{stroke-dasharray:4,4;stroke:black}#chart-054b97f5-098b-41b9-b534-5a93e3cb41d0 .axis .major.guide.line{stroke-dasharray:6,6;stroke:black}#chart-054b97f5-098b-41b9-b534-5a93e3cb41d0 .horizontal .axis.y .guide.line,#chart-054b97f5-098b-41b9-b534-5a93e3cb41d0 .horizontal .axis.y2 .guide.line,#chart-054b97f5-098b-41b9-b534-5a93e3cb41d0 .vertical .axis.x .guide.line{opacity:0}#chart-054b97f5-098b-41b9-b534-5a93e3cb41d0 .horizontal .axis.always_show .guide.line,#chart-054b97f5-098b-41b9-b534-5a93e3cb41d0 .vertical .axis.always_show .guide.line{opacity:1 !important}#chart-054b97f5-098b-41b9-b534-5a93e3cb41d0 .axis.y .guides:hover .guide.line,#chart-054b97f5-098b-41b9-b534-5a93e3cb41d0 .axis.y2 .guides:hover .guide.line,#chart-054b97f5-098b-41b9-b534-5a93e3cb41d0 .axis.x .guides:hover .guide.line{opacity:1}#chart-054b97f5-098b-41b9-b534-5a93e3cb41d0 .axis .guides:hover text{opacity:1}#chart-054b97f5-098b-41b9-b534-5a93e3cb41d0 .nofill{fill:none}#chart-054b97f5-098b-41b9-b534-5a93e3cb41d0 .subtle-fill{fill-opacity:.2}#chart-054b97f5-098b-41b9-b534-5a93e3cb41d0 .dot{stroke-width:1px;fill-opacity:1;stroke-opacity:1}#chart-054b97f5-098b-41b9-b534-5a93e3cb41d0 .dot.active{stroke-width:5px}#chart-054b97f5-098b-41b9-b534-5a93e3cb41d0 .dot.negative{fill:transparent}#chart-054b97f5-098b-41b9-b534-5a93e3cb41d0 text,#chart-054b97f5-098b-41b9-b534-5a93e3cb41d0 tspan{stroke:none !important}#chart-054b97f5-098b-41b9-b534-5a93e3cb41d0 .series text.active{opacity:1}#chart-054b97f5-098b-41b9-b534-5a93e3cb41d0 .tooltip rect{fill-opacity:.95;stroke-width:.5}#chart-054b97f5-098b-41b9-b534-5a93e3cb41d0 .tooltip text{fill-opacity:1}#chart-054b97f5-098b-41b9-b534-5a93e3cb41d0 .showable{visibility:hidden}#chart-054b97f5-098b-41b9-b534-5a93e3cb41d0 .showable.shown{visibility:visible}#chart-054b97f5-098b-41b9-b534-5a93e3cb41d0 .gauge-background{fill:rgba(229,229,229,1);stroke:none}#chart-054b97f5-098b-41b9-b534-5a93e3cb41d0 .bg-lines{stroke:rgba(249,249,249,1);stroke-width:2px}</style><script type="text/javascript">window.pygal = window.pygal || {};window.pygal.config = window.pygal.config || {};window.pygal.config['054b97f5-098b-41b9-b534-5a93e3cb41d0'] = {"allow_interruptions": false, "box_mode": "extremes", "classes": ["pygal-chart", "pygal-sparkline"], "css": ["file://style.css", "file://graph.css"], "defs": [], "disable_xml_declaration": false, "dots_size": 2.5, "dynamic_print_values": false, "explicit_size": true, "fill": false, "force_uri_protocol": "https", "formatter": null, "half_pie": false, "height": 50, "include_x_axis": false, "inner_radius": 0, "interpolate": "cubic", "interpolation_parameters": {}, "interpolation_precision": 250, "inverse_y_axis": false, "js": [], "legend_at_bottom": false, "legend_at_bottom_columns": null, "legend_box_size": 12, "logarithmic": false, "margin": 10, "margin_bottom": null, "margin_left": null, "margin_right": null, "margin_top": null, "max_scale": 2, "min_scale": 1, "missing_value_fill_truncation": "x", "no_data_text": "", "no_prefix": false, "order_min": null, "pretty_print": false, "print_labels": false, "print_values": false, "print_values_position": "center", "print_zeroes": true, "range": null, "rounded_bars": null, "secondary_range": null, "show_dots": false, "show_legend": false, "show_minor_x_labels": true, "show_minor_y_labels": true, "show_only_major_dots": false, "show_x_guides": false, "show_x_labels": false, "show_y_guides": true, "show_y_labels": true, "spacing": 0, "stack_from_top": false, "strict": false, "stroke": true, "stroke_style": null, "style": {"background": "rgba(249, 249, 249, 1)", "ci_colors": [], "colors": ["#F44336", "#3F51B5", "#009688", "#FFC107", "#FF5722", "#9C27B0", "#03A9F4", "#8BC34A", "#FF9800", "#E91E63", "#2196F3", "#4CAF50", "#FFEB3B", "#673AB7", "#00BCD4", "#CDDC39", "#9E9E9E", "#607D8B"], "dot_opacity": "1", "font_family": "Consolas, \"Liberation Mono\", Menlo, Courier, monospace", "foreground": "rgba(0, 0, 0, .87)", "foreground_strong": "rgba(0, 0, 0, 1)", "foreground_subtle": "rgba(0, 0, 0, .54)", "guide_stroke_color": "black", "guide_stroke_dasharray": "4,4", "label_font_family": "Consolas, \"Liberation Mono\", Menlo, Courier, monospace", "label_font_size": 10, "legend_font_family": "Consolas, \"Liberation Mono\", Menlo, Courier, monospace", "legend_font_size": 14, "major_guide_stroke_color": "black", "major_guide_stroke_dasharray": "6,6", "major_label_font_family": "Consolas, \"Liberation Mono\", Menlo, Courier, monospace", "major_label_font_size": 10, "no_data_font_family": "Consolas, \"Liberation Mono\", Menlo, Courier, monospace", "no_data_font_size": 64, "opacity": ".7", "opacity_hover": ".8", "plot_background": "rgba(255, 255, 255, 1)", "stroke_opacity": ".8", "stroke_opacity_hover": ".9", "stroke_width": "1", "stroke_width_hover": "4", "title_font_family": "Consolas, \"Liberation Mono\", Menlo, Courier, monospace", "title_font_size": 16, "tooltip_font_family": "Consolas, \"Liberation Mono\", Menlo, Courier, monospace", "tooltip_font_size": 14, "transition": "150ms", "value_background": "rgba(229, 229, 229, 1)", "value_colors": [], "value_font_family": "Consolas, \"Liberation Mono\", Menlo, Courier, monospace", "value_font_size": 16, "value_label_font_family": "Consolas, \"Liberation Mono\", Menlo, Courier, monospace", "value_label_font_size": 10}, "title": null, "tooltip_border_radius": 0, "tooltip_fancy_mode": true, "truncate_label": null, "truncate_legend": null, "width": 200, "x_label_rotation": 0, "x_labels": ["2024/6", "2024/5", "2024/4", "2024/2", "2024/1", "2023/12", "2023/9", "2023/8", "2023/7", "2023/6"], "x_labels_major": null, "x_labels_major_count": null, "x_labels_major_every": null, "x_title": null, "xrange": null, "y_label_rotation": 0, "y_labels": null, "y_labels_major": null, "y_labels_major_count": null, "y_labels_major_every": null, "y_title": null, "zero": 0, "legends": [""]}</script></defs><title>Pygal</title><g class="graph line-graph vertical"><rect x="0" y="0" width="200" height="50" class="background" /><g transform="translate(82, 10)" class="plot"><rect x="0" y="0" width="108.0" height="30" class="background" /><g class="axis y always_show"><path d="M0.000000 30.000000 h108.000000" class="line" /><g class="guides"><path d="M0.000000 29.423077 h108.000000" class="guide line" /><text x="-5" y="32.92307692307692" class="">0.5798251525</text><title>0.5798251525</title></g><g class="guides"><path d="M0.000000 0.576923 h108.000000" class="guide line" /><text x="-5" y="4.076923076923077" class="">10</text><title>10</title></g></g><g class="series serie-0 color-0"><path d="M2.076923 0.576923 L2.123077 0.679867 2.169231 0.782808 2.215385 0.885743 2.261538 0.988669 2.307692 1.091585 2.353846 1.194486 2.400000 1.297370 2.446154 1.400235 2.492308 1.503077 2.538462 1.605893 2.584615 1.708681 2.630769 1.811438 2.676923 1.914161 2.723077 2.016848 2.769231 2.119494 2.815385 2.222099 2.861538 2.324658 2.907692 2.427169 2.953846 2.529629 3.000000 2.632035 3.046154 2.734385 3.092308 2.836676 3.138462 2.938904 3.184615 3.041067 3.230769 3.143163 3.276923 3.245188 3.323077 3.347139 3.369231 3.449014 3.415385 3.550809 3.461538 3.652523 3.507692 3.754152 3.553846 3.855693 3.600000 3.957144 3.646154 4.058502 3.692308 4.159763 3.738462 4.260925 3.784615 4.361986 3.830769 4.462942 3.876923 4.563790 3.923077 4.664529 3.969231 4.765154 4.015385 4.865663 4.061538 4.966054 4.107692 5.066323 4.153846 5.166467 4.200000 5.266484 4.246154 5.366372 4.292308 5.466126 4.338462 5.565745 4.384615 5.665225 4.430769 5.764563 4.476923 5.863758 4.523077 5.962805 4.569231 6.061703 4.615385 6.160448 4.661538 6.259037 4.707692 6.357468 4.753846 6.455738 4.800000 6.553844 4.846154 6.651784 4.892308 6.749553 4.938462 6.847150 4.984615 6.944572 5.030769 7.041815 5.076923 7.138878 5.123077 7.235757 5.169231 7.332449 5.215385 7.428952 5.261538 7.525263 5.307692 7.621378 5.353846 7.717296 5.400000 7.813012 5.446154 7.908526 5.492308 8.003832 5.538462 8.098930 5.584615 8.193816 5.630769 8.288486 5.676923 8.382939 5.723077 8.477172 5.769231 8.571181 5.815385 8.664964 5.861538 8.758517 5.907692 8.851839 5.953846 8.944927 6.000000 9.037777 6.046154 9.130386 6.092308 9.222752 6.138462 9.314873 6.184615 9.406744 6.230769 9.498364 6.276923 9.589730 6.323077 9.680838 6.369231 9.771686 6.415385 9.862271 6.461538 9.952590 6.507692 10.042641 6.553846 10.132420 6.600000 10.221925 6.646154 10.311153 6.692308 10.400101 6.738462 10.488766 6.784615 10.577146 6.830769 10.665237 6.876923 10.753037 6.923077 10.840543 6.969231 10.927753 7.015385 11.014662 7.061538 11.101269 7.107692 11.187571 7.153846 11.273564 7.200000 11.359246 7.246154 11.444615 7.292308 11.529667 7.338462 11.614399 7.384615 11.698809 7.430769 11.782894 7.476923 11.866651 7.523077 11.950077 7.569231 12.033169 7.615385 12.115925 7.661538 12.198342 7.707692 12.280417 7.753846 12.362146 7.800000 12.443528 7.846154 12.524559 7.892308 12.605237 7.938462 12.685559 7.984615 12.765521 8.030769 12.845122 8.076923 12.924358 8.123077 13.003226 8.169231 13.081724 8.215385 13.159849 8.261538 13.237598 8.307692 13.314967 8.353846 13.391956 8.400000 13.468559 8.446154 13.544775 8.492308 13.620601 8.538462 13.696034 8.584615 13.771072 8.630769 13.845710 8.676923 13.919947 8.723077 13.993780 8.769231 14.067205 8.815385 14.140221 8.861538 14.212824 8.907692 14.285011 8.953846 14.356780 9.000000 14.428127 9.046154 14.499051 9.092308 14.569547 9.138462 14.639614 9.184615 14.709248 9.230769 14.778446 9.276923 14.847207 9.323077 14.915526 9.369231 14.983401 9.415385 15.050830 9.461538 15.117809 9.507692 15.184336 9.553846 15.250407 9.600000 15.316021 9.646154 15.381173 9.692308 15.445862 9.738462 15.510085 9.784615 15.573838 9.830769 15.637119 9.876923 15.699924 9.923077 15.762252 9.969231 15.824100 10.015385 15.885464 10.061538 15.946341 10.107692 16.006730 10.153846 16.066626 10.200000 16.126028 10.246154 16.184932 10.292308 16.243335 10.338462 16.301236 10.384615 16.358630 10.430769 16.415515 10.476923 16.471889 10.523077 16.527748 10.569231 16.583089 10.615385 16.637911 10.661538 16.692209 10.707692 16.745981 10.753846 16.799225 10.800000 16.851937 10.846154 16.904114 10.892308 16.955755 10.938462 17.006855 10.984615 17.057413 11.030769 17.107425 11.076923 17.156888 11.123077 17.205800 11.169231 17.254158 11.215385 17.301959 11.261538 17.349200 11.307692 17.395878 11.353846 17.441991 11.400000 17.487536 11.446154 17.532509 11.492308 17.576908 11.538462 17.620731 11.584615 17.663974 11.630769 17.706635 11.676923 17.748710 11.723077 17.790197 11.769231 17.831094 11.815385 17.871396 11.861538 17.911102 11.907692 17.950209 11.953846 17.988713 12.000000 18.026613 12.046154 18.063904 12.092308 18.100585 12.138462 18.136652 12.184615 18.172103 12.230769 18.206934 12.276923 18.241144 12.323077 18.274728 12.369231 18.307685 12.415385 18.340012 12.461538 18.371705 12.507692 18.402762 12.553846 18.433180 12.600000 18.462956 12.646154 18.492088 12.692308 18.520572 12.738462 18.548405 12.784615 18.575586 12.830769 18.602111 12.876923 18.627976 12.923077 18.653181 12.969231 18.677720 13.015385 18.701593 13.061538 18.724795 13.107692 18.747325 13.153846 18.769179 13.200000 18.790354 13.246154 18.810848 13.292308 18.830657 13.338462 18.849780 13.384615 18.868213 13.430769 18.885952 13.476923 18.902997 13.523077 18.919343 13.569231 18.934988 13.615385 18.949928 13.661538 18.964164 13.707692 18.977698 13.753846 18.990538 13.800000 19.002688 13.846154 19.014155 13.892308 19.024945 13.938462 19.035063 13.984615 19.044516 14.030769 19.053309 14.076923 19.061449 14.123077 19.068940 14.169231 19.075790 14.215385 19.082004 14.261538 19.087588 14.307692 19.092547 14.353846 19.096889 14.400000 19.100618 14.446154 19.103740 14.492308 19.106262 14.538462 19.108190 14.584615 19.109528 14.630769 19.110284 14.676923 19.110463 14.723077 19.110071 14.769231 19.109114 14.815385 19.107597 14.861538 19.105527 14.907692 19.102910 14.953846 19.099752 15.000000 19.096057 15.046154 19.091834 15.092308 19.087086 15.138462 19.081820 15.184615 19.076043 15.230769 19.069759 15.276923 19.062976 15.323077 19.055698 15.369231 19.047932 15.415385 19.039683 15.461538 19.030958 15.507692 19.021762 15.553846 19.012102 15.600000 19.001982 15.646154 18.991410 15.692308 18.980391 15.738462 18.968931 15.784615 18.957035 15.830769 18.944711 15.876923 18.931963 15.923077 18.918797 15.969231 18.905220 16.015385 18.891237 16.061538 18.876855 16.107692 18.862078 16.153846 18.846914 16.200000 18.831368 16.246154 18.815445 16.292308 18.799153 16.338462 18.782496 16.384615 18.765480 16.430769 18.748113 16.476923 18.730398 16.523077 18.712343 16.569231 18.693953 16.615385 18.675235 16.661538 18.656193 16.707692 18.636834 16.753846 18.617164 16.800000 18.597189 16.846154 18.576914 16.892308 18.556346 16.938462 18.535491 16.984615 18.514354 17.030769 18.492941 17.076923 18.471258 17.123077 18.449312 17.169231 18.427107 17.215385 18.404651 17.261538 18.381948 17.307692 18.359005 17.353846 18.335827 17.400000 18.312421 17.446154 18.288792 17.492308 18.264947 17.538462 18.240891 17.584615 18.216630 17.630769 18.192171 17.676923 18.167518 17.723077 18.142678 17.769231 18.117657 17.815385 18.092460 17.861538 18.067094 17.907692 18.041565 17.953846 18.015878 18.000000 17.990039 18.046154 17.964055 18.092308 17.937931 18.138462 17.911672 18.184615 17.885286 18.230769 17.858777 18.276923 17.832152 18.323077 17.805417 18.369231 17.778578 18.415385 17.751639 18.461538 17.724609 18.507692 17.697491 18.553846 17.670293 18.600000 17.643019 18.646154 17.615677 18.692308 17.588272 18.738462 17.560809 18.784615 17.533295 18.830769 17.505736 18.876923 17.478137 18.923077 17.450505 18.969231 17.422844 19.015385 17.395163 19.061538 17.367465 19.107692 17.339757 19.153846 17.312046 19.200000 17.284336 19.246154 17.256634 19.292308 17.228945 19.338462 17.201277 19.384615 17.173633 19.430769 17.146021 19.476923 17.118447 19.523077 17.090915 19.569231 17.063433 19.615385 17.036006 19.661538 17.008639 19.707692 16.981340 19.753846 16.954113 19.800000 16.926965 19.846154 16.899901 19.892308 16.872928 19.938462 16.846051 19.984615 16.819276 20.030769 16.792610 20.076923 16.766057 20.123077 16.739625 20.169231 16.713318 20.215385 16.687144 20.261538 16.661106 20.307692 16.635213 20.353846 16.609469 20.400000 16.583881 20.446154 16.558453 20.492308 16.533193 20.538462 16.508106 20.584615 16.483199 20.630769 16.458476 20.676923 16.433944 20.723077 16.409608 20.769231 16.385476 20.815385 16.361552 20.861538 16.337842 20.907692 16.314353 20.953846 16.291090 21.000000 16.268059 21.046154 16.245266 21.092308 16.222718 21.138462 16.200419 21.184615 16.178376 21.230769 16.156595 21.276923 16.135081 21.323077 16.113841 21.369231 16.092880 21.415385 16.072205 21.461538 16.051821 21.507692 16.031734 21.553846 16.011950 21.600000 15.992475 21.646154 15.973315 21.692308 15.954476 21.738462 15.935963 21.784615 15.917783 21.830769 15.899942 21.876923 15.882445 21.923077 15.865298 21.969231 15.848508 22.015385 15.832079 22.061538 15.816019 22.107692 15.800332 22.153846 15.785026 22.200000 15.770105 22.246154 15.755575 22.292308 15.741444 22.338462 15.727715 22.384615 15.714396 22.430769 15.701493 22.476923 15.689010 22.523077 15.676955 22.569231 15.665333 22.615385 15.654149 22.661538 15.643411 22.707692 15.633123 22.753846 15.623291 22.800000 15.613922 22.846154 15.605022 22.892308 15.596596 22.938462 15.588650 22.984615 15.581190 23.030769 15.574223 23.076923 15.567753 23.123077 15.561787 23.169231 15.556331 23.215385 15.551390 23.261538 15.546972 23.307692 15.543080 23.353846 15.539722 23.400000 15.536904 23.446154 15.534630 23.492308 15.532908 23.538462 15.531742 23.584615 15.531140 23.630769 15.531106 23.676923 15.531647 23.723077 15.532769 23.769231 15.534477 23.815385 15.536778 23.861538 15.539677 23.907692 15.543181 23.953846 15.547294 24.000000 15.552024 24.046154 15.557375 24.092308 15.563355 24.138462 15.569968 24.184615 15.577221 24.230769 15.585119 24.276923 15.593669 24.323077 15.602877 24.369231 15.612748 24.415385 15.623287 24.461538 15.634503 24.507692 15.646399 24.553846 15.658982 24.600000 15.672258 24.646154 15.686232 24.692308 15.700912 24.738462 15.716302 24.784615 15.732408 24.830769 15.749237 24.876923 15.766794 24.923077 15.785085 24.969231 15.804116 25.015385 15.823894 25.061538 15.844423 25.107692 15.865710 25.153846 15.887761 25.200000 15.910579 25.246154 15.934160 25.292308 15.958498 25.338462 15.983585 25.384615 16.009415 25.430769 16.035981 25.476923 16.063277 25.523077 16.091295 25.569231 16.120030 25.615385 16.149474 25.661538 16.179621 25.707692 16.210464 25.753846 16.241996 25.800000 16.274211 25.846154 16.307102 25.892308 16.340662 25.938462 16.374885 25.984615 16.409764 26.030769 16.445293 26.076923 16.481463 26.123077 16.518270 26.169231 16.555706 26.215385 16.593765 26.261538 16.632439 26.307692 16.671723 26.353846 16.711609 26.400000 16.752091 26.446154 16.793162 26.492308 16.834815 26.538462 16.877044 26.584615 16.919842 26.630769 16.963203 26.676923 17.007119 26.723077 17.051584 26.769231 17.096592 26.815385 17.142135 26.861538 17.188207 26.907692 17.234801 26.953846 17.281911 27.000000 17.329530 27.046154 17.377651 27.092308 17.426267 27.138462 17.475373 27.184615 17.524960 27.230769 17.575023 27.276923 17.625555 27.323077 17.676548 27.369231 17.727998 27.415385 17.779895 27.461538 17.832235 27.507692 17.885010 27.553846 17.938214 27.600000 17.991840 27.646154 18.045881 27.692308 18.100331 27.738462 18.155183 27.784615 18.210429 27.830769 18.266065 27.876923 18.322082 27.923077 18.378474 27.969231 18.435235 28.015385 18.492358 28.061538 18.549836 28.107692 18.607662 28.153846 18.665830 28.200000 18.724333 28.246154 18.783164 28.292308 18.842317 28.338462 18.901785 28.384615 18.961562 28.430769 19.021640 28.476923 19.082013 28.523077 19.142674 28.569231 19.203617 28.615385 19.264834 28.661538 19.326320 28.707692 19.388067 28.753846 19.450069 28.800000 19.512320 28.846154 19.574811 28.892308 19.637538 28.938462 19.700492 28.984615 19.763668 29.030769 19.827059 29.076923 19.890658 29.123077 19.954458 29.169231 20.018453 29.215385 20.082635 29.261538 20.146999 29.307692 20.211538 29.353846 20.276244 29.400000 20.341112 29.446154 20.406134 29.492308 20.471304 29.538462 20.536615 29.584615 20.602061 29.630769 20.667635 29.676923 20.733329 29.723077 20.799138 29.769231 20.865055 29.815385 20.931073 29.861538 20.997185 29.907692 21.063385 29.953846 21.129666 30.000000 21.196021 30.046154 21.262444 30.092308 21.328927 30.138462 21.395465 30.184615 21.462051 30.230769 21.528677 30.276923 21.595338 30.323077 21.662026 30.369231 21.728735 30.415385 21.795458 30.461538 21.862189 30.507692 21.928920 30.553846 21.995645 30.600000 22.062358 30.646154 22.129052 30.692308 22.195719 30.738462 22.262354 30.784615 22.328950 30.830769 22.395499 30.876923 22.461996 30.923077 22.528433 30.969231 22.594804 31.015385 22.661103 31.061538 22.727322 31.107692 22.793455 31.153846 22.859495 31.200000 22.925435 31.246154 22.991270 31.292308 23.056991 31.338462 23.122593 31.384615 23.188069 31.430769 23.253411 31.476923 23.318614 31.523077 23.383671 31.569231 23.448575 31.615385 23.513319 31.661538 23.577896 31.707692 23.642301 31.753846 23.706525 31.800000 23.770564 31.846154 23.834409 31.892308 23.898055 31.938462 23.961493 31.984615 24.024719 32.030769 24.087725 32.076923 24.150504 32.123077 24.213051 32.169231 24.275357 32.215385 24.337416 32.261538 24.399223 32.307692 24.460769 32.353846 24.522049 32.400000 24.583055 32.446154 24.643781 32.492308 24.704221 32.538462 24.764367 32.584615 24.824213 32.630769 24.883752 32.676923 24.942978 32.723077 25.001884 32.769231 25.060463 32.815385 25.118708 32.861538 25.176613 32.907692 25.234171 32.953846 25.291376 33.000000 25.348220 33.046154 25.404698 33.092308 25.460802 33.138462 25.516525 33.184615 25.571862 33.230769 25.626804 33.276923 25.681347 33.323077 25.735482 33.369231 25.789204 33.415385 25.842505 33.461538 25.895379 33.507692 25.947819 33.553846 25.999819 33.600000 26.051371 33.646154 26.102470 33.692308 26.153108 33.738462 26.203279 33.784615 26.252976 33.830769 26.302193 33.876923 26.350922 33.923077 26.399157 33.969231 26.446891 34.015385 26.494118 34.061538 26.540831 34.107692 26.587024 34.153846 26.632689 34.200000 26.677820 34.246154 26.722410 34.292308 26.766452 34.338462 26.809941 34.384615 26.852868 34.430769 26.895228 34.476923 26.937014 34.523077 26.978219 34.569231 27.018837 34.615385 27.058860 34.661538 27.098282 34.707692 27.137097 34.753846 27.175297 34.800000 27.212876 34.846154 27.249828 34.892308 27.286145 34.938462 27.321821 34.984615 27.356850 35.030769 27.391224 35.076923 27.424936 35.123077 27.457981 35.169231 27.490352 35.215385 27.522041 35.261538 27.553043 35.307692 27.583350 35.353846 27.612955 35.400000 27.641853 35.446154 27.670036 35.492308 27.697498 35.538462 27.724232 35.584615 27.750231 35.630769 27.775489 35.676923 27.799999 35.723077 27.823754 35.769231 27.846748 35.815385 27.868974 35.861538 27.890424 35.907692 27.911094 35.953846 27.930975 36.000000 27.950061 36.046154 27.968346 36.092308 27.985823 36.138462 28.002485 36.184615 28.018325 36.230769 28.033337 36.276923 28.047514 36.323077 28.060849 36.369231 28.073336 36.415385 28.084968 36.461538 28.095739 36.507692 28.105641 36.553846 28.114668 36.600000 28.122813 36.646154 28.130070 36.692308 28.136431 36.738462 28.141893 36.784615 28.146460 36.830769 28.150139 36.876923 28.152936 36.923077 28.154858 36.969231 28.155912 37.015385 28.156104 37.061538 28.155442 37.107692 28.153932 37.153846 28.151580 37.200000 28.148394 37.246154 28.144380 37.292308 28.139545 37.338462 28.133896 37.384615 28.127439 37.430769 28.120181 37.476923 28.112129 37.523077 28.103289 37.569231 28.093669 37.615385 28.083275 37.661538 28.072113 37.707692 28.060191 37.753846 28.047515 37.800000 28.034092 37.846154 28.019929 37.892308 28.005032 37.938462 27.989408 37.984615 27.973064 38.030769 27.956006 38.076923 27.938242 38.123077 27.919777 38.169231 27.900620 38.215385 27.880776 38.261538 27.860252 38.307692 27.839054 38.353846 27.817191 38.400000 27.794668 38.446154 27.771492 38.492308 27.747669 38.538462 27.723208 38.584615 27.698113 38.630769 27.672393 38.676923 27.646053 38.723077 27.619101 38.769231 27.591542 38.815385 27.563385 38.861538 27.534635 38.907692 27.505300 38.953846 27.475386 39.000000 27.444899 39.046154 27.413847 39.092308 27.382236 39.138462 27.350074 39.184615 27.317366 39.230769 27.284119 39.276923 27.250341 39.323077 27.216037 39.369231 27.181215 39.415385 27.145881 39.461538 27.110043 39.507692 27.073706 39.553846 27.036878 39.600000 26.999564 39.646154 26.961773 39.692308 26.923511 39.738462 26.884784 39.784615 26.845599 39.830769 26.805963 39.876923 26.765883 39.923077 26.725365 39.969231 26.684416 40.015385 26.643042 40.061538 26.601252 40.107692 26.559050 40.153846 26.516445 40.200000 26.473442 40.246154 26.430048 40.292308 26.386271 40.338462 26.342116 40.384615 26.297592 40.430769 26.252703 40.476923 26.207458 40.523077 26.161862 40.569231 26.115923 40.615385 26.069647 40.661538 26.023040 40.707692 25.976111 40.753846 25.928865 40.800000 25.881309 40.846154 25.833450 40.892308 25.785295 40.938462 25.736850 40.984615 25.688122 41.030769 25.639117 41.076923 25.589843 41.123077 25.540307 41.169231 25.490514 41.215385 25.440472 41.261538 25.390187 41.307692 25.339667 41.353846 25.288917 41.400000 25.237945 41.446154 25.186757 41.492308 25.135361 41.538462 25.083761 41.584615 25.031967 41.630769 24.979984 41.676923 24.927818 41.723077 24.875477 41.769231 24.822968 41.815385 24.770297 41.861538 24.717470 41.907692 24.664496 41.953846 24.611379 42.000000 24.558128 42.046154 24.504748 42.092308 24.451246 42.138462 24.397630 42.184615 24.343906 42.230769 24.290081 42.276923 24.236160 42.323077 24.182152 42.369231 24.128063 42.415385 24.073899 42.461538 24.019668 42.507692 23.965376 42.553846 23.911029 42.600000 23.856635 42.646154 23.802200 42.692308 23.747731 42.738462 23.693234 42.784615 23.638717 42.830769 23.584186 42.876923 23.529648 42.923077 23.475109 42.969231 23.420577 43.015385 23.366058 43.061538 23.311558 43.107692 23.257085 43.153846 23.202645 43.200000 23.148245 43.246154 23.093892 43.292308 23.039591 43.338462 22.985352 43.384615 22.931178 43.430769 22.877079 43.476923 22.823059 43.523077 22.769127 43.569231 22.715288 43.615385 22.661550 43.661538 22.607919 43.707692 22.554402 43.753846 22.501005 43.800000 22.447736 43.846154 22.394601 43.892308 22.341607 43.938462 22.288760 43.984615 22.236068 44.030769 22.183536 44.076923 22.131173 44.123077 22.078983 44.169231 22.026975 44.215385 21.975155 44.261538 21.923529 44.307692 21.872105 44.353846 21.820888 44.400000 21.769887 44.446154 21.719107 44.492308 21.668555 44.538462 21.618239 44.584615 21.568164 44.630769 21.518337 44.676923 21.468766 44.723077 21.419456 44.769231 21.370415 44.815385 21.321650 44.861538 21.273166 44.907692 21.224971 44.953846 21.177072 45.000000 21.129475 45.046154 21.082187 45.092308 21.035215 45.138462 20.988565 45.184615 20.942244 45.230769 20.896259 45.276923 20.850617 45.323077 20.805324 45.369231 20.760387 45.415385 20.715813 45.461538 20.671609 45.507692 20.627780 45.553846 20.584335 45.600000 20.541279 45.646154 20.498620 45.692308 20.456364 45.738462 20.414517 45.784615 20.373088 45.830769 20.332081 45.876923 20.291505 45.923077 20.251365 45.969231 20.211669 46.015385 20.172423 46.061538 20.133634 46.107692 20.095309 46.153846 20.057454 46.200000 20.020077 46.246154 19.983183 46.292308 19.946780 46.338462 19.910874 46.384615 19.875472 46.430769 19.840581 46.476923 19.806207 46.523077 19.772358 46.569231 19.739039 46.615385 19.706259 46.661538 19.674022 46.707692 19.642337 46.753846 19.611209 46.800000 19.580647 46.846154 19.550655 46.892308 19.521242 46.938462 19.492413 46.984615 19.464176 47.030769 19.436536 47.076923 19.409502 47.123077 19.383080 47.169231 19.357276 47.215385 19.332097 47.261538 19.307550 47.307692 19.283641 47.353846 19.260378 47.400000 19.237767 47.446154 19.215814 47.492308 19.194527 47.538462 19.173912 47.584615 19.153977 47.630769 19.134726 47.676923 19.116168 47.723077 19.098310 47.769231 19.081157 47.815385 19.064716 47.861538 19.048995 47.907692 19.034000 47.953846 19.019738 48.000000 19.006215 48.046154 18.993439 48.092308 18.981415 48.138462 18.970151 48.184615 18.959653 48.230769 18.949928 48.276923 18.940982 48.323077 18.932810 48.369231 18.925408 48.415385 18.918771 48.461538 18.912894 48.507692 18.907773 48.553846 18.903401 48.600000 18.899775 48.646154 18.896890 48.692308 18.894739 48.738462 18.893319 48.784615 18.892625 48.830769 18.892651 48.876923 18.893393 48.923077 18.894846 48.969231 18.897005 49.015385 18.899864 49.061538 18.903420 49.107692 18.907666 49.153846 18.912599 49.200000 18.918212 49.246154 18.924502 49.292308 18.931463 49.338462 18.939091 49.384615 18.947379 49.430769 18.956325 49.476923 18.965922 49.523077 18.976165 49.569231 18.987050 49.615385 18.998572 49.661538 19.010726 49.707692 19.023507 49.753846 19.036909 49.800000 19.050929 49.846154 19.065560 49.892308 19.080799 49.938462 19.096640 49.984615 19.113078 50.030769 19.130109 50.076923 19.147726 50.123077 19.165927 50.169231 19.184705 50.215385 19.204055 50.261538 19.223973 50.307692 19.244454 50.353846 19.265493 50.400000 19.287085 50.446154 19.309224 50.492308 19.331906 50.538462 19.355127 50.584615 19.378881 50.630769 19.403162 50.676923 19.427968 50.723077 19.453291 50.769231 19.479128 50.815385 19.505473 50.861538 19.532322 50.907692 19.559669 50.953846 19.587510 51.000000 19.615840 51.046154 19.644653 51.092308 19.673946 51.138462 19.703712 51.184615 19.733947 51.230769 19.764646 51.276923 19.795805 51.323077 19.827417 51.369231 19.859479 51.415385 19.891985 51.461538 19.924931 51.507692 19.958311 51.553846 19.992120 51.600000 20.026354 51.646154 20.061008 51.692308 20.096076 51.738462 20.131555 51.784615 20.167437 51.830769 20.203720 51.876923 20.240398 51.923077 20.277466 51.969231 20.314919 52.015385 20.352752 52.061538 20.390961 52.107692 20.429539 52.153846 20.468483 52.200000 20.507788 52.246154 20.547448 52.292308 20.587458 52.338462 20.627815 52.384615 20.668512 52.430769 20.709544 52.476923 20.750908 52.523077 20.792597 52.569231 20.834607 52.615385 20.876934 52.661538 20.919571 52.707692 20.962515 52.753846 21.005760 52.800000 21.049301 52.846154 21.093133 52.892308 21.137252 52.938462 21.181652 52.984615 21.226329 53.030769 21.271278 53.076923 21.316493 53.123077 21.361970 53.169231 21.407704 53.215385 21.453689 53.261538 21.499922 53.307692 21.546397 53.353846 21.593108 53.400000 21.640052 53.446154 21.687223 53.492308 21.734617 53.538462 21.782227 53.584615 21.830050 53.630769 21.878081 53.676923 21.926314 53.723077 21.974745 53.769231 22.023368 53.815385 22.072179 53.861538 22.121173 53.907692 22.170345 53.953846 22.219690 54.000000 22.269203 54.046154 22.318878 54.092308 22.368712 54.138462 22.418699 54.184615 22.468835 54.230769 22.519114 54.276923 22.569531 54.323077 22.620081 54.369231 22.670761 54.415385 22.721563 54.461538 22.772485 54.507692 22.823520 54.553846 22.874664 54.600000 22.925912 54.646154 22.977258 54.692308 23.028699 54.738462 23.080229 54.784615 23.131843 54.830769 23.183536 54.876923 23.235303 54.923077 23.287140 54.969231 23.339041 55.015385 23.391001 55.061538 23.443016 55.107692 23.495081 55.153846 23.547190 55.200000 23.599339 55.246154 23.651523 55.292308 23.703737 55.338462 23.755975 55.384615 23.808234 55.430769 23.860507 55.476923 23.912791 55.523077 23.965080 55.569231 24.017369 55.615385 24.069653 55.661538 24.121928 55.707692 24.174188 55.753846 24.226429 55.800000 24.278645 55.846154 24.330832 55.892308 24.382985 55.938462 24.435098 55.984615 24.487168 56.030769 24.539188 56.076923 24.591154 56.123077 24.643061 56.169231 24.694904 56.215385 24.746679 56.261538 24.798379 56.307692 24.850001 56.353846 24.901540 56.400000 24.952990 56.446154 25.004346 56.492308 25.055604 56.538462 25.106758 56.584615 25.157804 56.630769 25.208737 56.676923 25.259552 56.723077 25.310244 56.769231 25.360807 56.815385 25.411238 56.861538 25.461531 56.907692 25.511681 56.953846 25.561683 57.000000 25.611532 57.046154 25.661224 57.092308 25.710753 57.138462 25.760115 57.184615 25.809304 57.230769 25.858316 57.276923 25.907145 57.323077 25.955788 57.369231 26.004238 57.415385 26.052491 57.461538 26.100542 57.507692 26.148386 57.553846 26.196018 57.600000 26.243433 57.646154 26.290626 57.692308 26.337593 57.738462 26.384328 57.784615 26.430826 57.830769 26.477083 57.876923 26.523094 57.923077 26.568853 57.969231 26.614356 58.015385 26.659597 58.061538 26.704572 58.107692 26.749276 58.153846 26.793704 58.200000 26.837852 58.246154 26.881713 58.292308 26.925283 58.338462 26.968558 58.384615 27.011531 58.430769 27.054199 58.476923 27.096557 58.523077 27.138599 58.569231 27.180320 58.615385 27.221716 58.661538 27.262782 58.707692 27.303513 58.753846 27.343903 58.800000 27.383948 58.846154 27.423643 58.892308 27.462983 58.938462 27.501963 58.984615 27.540579 59.030769 27.578824 59.076923 27.616695 59.123077 27.654186 59.169231 27.691292 59.215385 27.728009 59.261538 27.764332 59.307692 27.800255 59.353846 27.835773 59.400000 27.870883 59.446154 27.905578 59.492308 27.939854 59.538462 27.973706 59.584615 28.007128 59.630769 28.040117 59.676923 28.072667 59.723077 28.104774 59.769231 28.136431 59.815385 28.167636 59.861538 28.198390 59.907692 28.228695 59.953846 28.258553 60.000000 28.287968 60.046154 28.316941 60.092308 28.345475 60.138462 28.373572 60.184615 28.401235 60.230769 28.428466 60.276923 28.455267 60.323077 28.481642 60.369231 28.507592 60.415385 28.533120 60.461538 28.558228 60.507692 28.582919 60.553846 28.607195 60.600000 28.631059 60.646154 28.654512 60.692308 28.677559 60.738462 28.700199 60.784615 28.722438 60.830769 28.744275 60.876923 28.765716 60.923077 28.786760 60.969231 28.807412 61.015385 28.827673 61.061538 28.847545 61.107692 28.867032 61.153846 28.886136 61.200000 28.904859 61.246154 28.923203 61.292308 28.941172 61.338462 28.958767 61.384615 28.975990 61.430769 28.992845 61.476923 29.009334 61.523077 29.025458 61.569231 29.041221 61.615385 29.056626 61.661538 29.071673 61.707692 29.086366 61.753846 29.100708 61.800000 29.114700 61.846154 29.128346 61.892308 29.141646 61.938462 29.154605 61.984615 29.167224 62.030769 29.179506 62.076923 29.191454 62.123077 29.203068 62.169231 29.214353 62.215385 29.225311 62.261538 29.235943 62.307692 29.246253 62.353846 29.256242 62.400000 29.265914 62.446154 29.275271 62.492308 29.284314 62.538462 29.293047 62.584615 29.301472 62.630769 29.309591 62.676923 29.317407 62.723077 29.324922 62.769231 29.332139 62.815385 29.339060 62.861538 29.345687 62.907692 29.352024 62.953846 29.358071 63.000000 29.363833 63.046154 29.369310 63.092308 29.374506 63.138462 29.379424 63.184615 29.384064 63.230769 29.388431 63.276923 29.392526 63.323077 29.396351 63.369231 29.399910 63.415385 29.403205 63.461538 29.406237 63.507692 29.409010 63.553846 29.411526 63.600000 29.413787 63.646154 29.415796 63.692308 29.417555 63.738462 29.419067 63.784615 29.420333 63.830769 29.421357 63.876923 29.422141 63.923077 29.422688 63.969231 29.422999 64.015385 29.423077 64.061538 29.422925 64.107692 29.422544 64.153846 29.421939 64.200000 29.421110 64.246154 29.420060 64.292308 29.418792 64.338462 29.417308 64.384615 29.415611 64.430769 29.413703 64.476923 29.411586 64.523077 29.409263 64.569231 29.406736 64.615385 29.404008 64.661538 29.401081 64.707692 29.397958 64.753846 29.394641 64.800000 29.391132 64.846154 29.387434 64.892308 29.383549 64.938462 29.379480 64.984615 29.375229 65.030769 29.370798 65.076923 29.366191 65.123077 29.361409 65.169231 29.356455 65.215385 29.351331 65.261538 29.346039 65.307692 29.340583 65.353846 29.334964 65.400000 29.329186 65.446154 29.323249 65.492308 29.317158 65.538462 29.310913 65.584615 29.304519 65.630769 29.297976 65.676923 29.291288 65.723077 29.284457 65.769231 29.277485 65.815385 29.270376 65.861538 29.263130 65.907692 29.255751 65.953846 29.248241 66.000000 29.240603 66.046154 29.232838 66.092308 29.224950 66.138462 29.216941 66.184615 29.208812 66.230769 29.200568 66.276923 29.192210 66.323077 29.183740 66.369231 29.175161 66.415385 29.166475 66.461538 29.157685 66.507692 29.148793 66.553846 29.139802 66.600000 29.130714 66.646154 29.121532 66.692308 29.112257 66.738462 29.102893 66.784615 29.093442 66.830769 29.083905 66.876923 29.074287 66.923077 29.064588 66.969231 29.054812 67.015385 29.044960 67.061538 29.035037 67.107692 29.025042 67.153846 29.014980 67.200000 29.004853 67.246154 28.994663 67.292308 28.984412 67.338462 28.974103 67.384615 28.963738 67.430769 28.953320 67.476923 28.942851 67.523077 28.932334 67.569231 28.921771 67.615385 28.911164 67.661538 28.900516 67.707692 28.889829 67.753846 28.879107 67.800000 28.868350 67.846154 28.857562 67.892308 28.846745 67.938462 28.835901 67.984615 28.825033 68.030769 28.814144 68.076923 28.803235 68.123077 28.792309 68.169231 28.781369 68.215385 28.770417 68.261538 28.759455 68.307692 28.748486 68.353846 28.737513 68.400000 28.726537 68.446154 28.715561 68.492308 28.704588 68.538462 28.693620 68.584615 28.682659 68.630769 28.671708 68.676923 28.660770 68.723077 28.649846 68.769231 28.638939 68.815385 28.628051 68.861538 28.617186 68.907692 28.606345 68.953846 28.595531 69.000000 28.584746 69.046154 28.573993 69.092308 28.563274 69.138462 28.552591 69.184615 28.541948 69.230769 28.531345 69.276923 28.520787 69.323077 28.510275 69.369231 28.499811 69.415385 28.489399 69.461538 28.479040 69.507692 28.468737 69.553846 28.458493 69.600000 28.448309 69.646154 28.438188 69.692308 28.428133 69.738462 28.418147 69.784615 28.408230 69.830769 28.398387 69.876923 28.388619 69.923077 28.378929 69.969231 28.369319 70.015385 28.359791 70.061538 28.350349 70.107692 28.340994 70.153846 28.331729 70.200000 28.322557 70.246154 28.313479 70.292308 28.304499 70.338462 28.295618 70.384615 28.286839 70.430769 28.278165 70.476923 28.269597 70.523077 28.261139 70.569231 28.252793 70.615385 28.244560 70.661538 28.236445 70.707692 28.228448 70.753846 28.220573 70.800000 28.212822 70.846154 28.205197 70.892308 28.197701 70.938462 28.190337 70.984615 28.183105 71.030769 28.176010 71.076923 28.169053 71.123077 28.162237 71.169231 28.155565 71.215385 28.149038 71.261538 28.142659 71.307692 28.136431 71.353846 28.130355 71.400000 28.124432 71.446154 28.118658 71.492308 28.113034 71.538462 28.107558 71.584615 28.102229 71.630769 28.097045 71.676923 28.092006 71.723077 28.087109 71.769231 28.082355 71.815385 28.077741 71.861538 28.073266 71.907692 28.068930 71.953846 28.064730 72.000000 28.060666 72.046154 28.056736 72.092308 28.052939 72.138462 28.049274 72.184615 28.045740 72.230769 28.042335 72.276923 28.039058 72.323077 28.035908 72.369231 28.032883 72.415385 28.029983 72.461538 28.027207 72.507692 28.024552 72.553846 28.022017 72.600000 28.019602 72.646154 28.017305 72.692308 28.015125 72.738462 28.013061 72.784615 28.011111 72.830769 28.009274 72.876923 28.007550 72.923077 28.005935 72.969231 28.004431 73.015385 28.003034 73.061538 28.001745 73.107692 28.000561 73.153846 27.999481 73.200000 27.998505 73.246154 27.997630 73.292308 27.996857 73.338462 27.996183 73.384615 27.995607 73.430769 27.995128 73.476923 27.994744 73.523077 27.994455 73.569231 27.994260 73.615385 27.994156 73.661538 27.994143 73.707692 27.994220 73.753846 27.994385 73.800000 27.994637 73.846154 27.994974 73.892308 27.995396 73.938462 27.995902 73.984615 27.996489 74.030769 27.997157 74.076923 27.997905 74.123077 27.998731 74.169231 27.999634 74.215385 28.000613 74.261538 28.001666 74.307692 28.002793 74.353846 28.003992 74.400000 28.005261 74.446154 28.006600 74.492308 28.008008 74.538462 28.009482 74.584615 28.011022 74.630769 28.012627 74.676923 28.014295 74.723077 28.016026 74.769231 28.017817 74.815385 28.019668 74.861538 28.021577 74.907692 28.023543 74.953846 28.025565 75.000000 28.027641 75.046154 28.029772 75.092308 28.031954 75.138462 28.034187 75.184615 28.036469 75.230769 28.038800 75.276923 28.041179 75.323077 28.043603 75.369231 28.046071 75.415385 28.048583 75.461538 28.051138 75.507692 28.053733 75.553846 28.056368 75.600000 28.059041 75.646154 28.061751 75.692308 28.064498 75.738462 28.067279 75.784615 28.070093 75.830769 28.072940 75.876923 28.075818 75.923077 28.078725 75.969231 28.081661 76.015385 28.084624 76.061538 28.087613 76.107692 28.090627 76.153846 28.093664 76.200000 28.096723 76.246154 28.099803 76.292308 28.102904 76.338462 28.106022 76.384615 28.109158 76.430769 28.112310 76.476923 28.115476 76.523077 28.118656 76.569231 28.121849 76.615385 28.125052 76.661538 28.128265 76.707692 28.131487 76.753846 28.134716 76.800000 28.137951 76.846154 28.141191 76.892308 28.144434 76.938462 28.147680 76.984615 28.150926 77.030769 28.154173 77.076923 28.157418 77.123077 28.160660 77.169231 28.163898 77.215385 28.167132 77.261538 28.170358 77.307692 28.173578 77.353846 28.176788 77.400000 28.179988 77.446154 28.183176 77.492308 28.186352 77.538462 28.189515 77.584615 28.192662 77.630769 28.195792 77.676923 28.198905 77.723077 28.201999 77.769231 28.205073 77.815385 28.208126 77.861538 28.211156 77.907692 28.214162 77.953846 28.217143 78.000000 28.220097 78.046154 28.223024 78.092308 28.225922 78.138462 28.228790 78.184615 28.231627 78.230769 28.234431 78.276923 28.237202 78.323077 28.239937 78.369231 28.242636 78.415385 28.245297 78.461538 28.247920 78.507692 28.250502 78.553846 28.253044 78.600000 28.255542 78.646154 28.257997 78.692308 28.260407 78.738462 28.262771 78.784615 28.265087 78.830769 28.267354 78.876923 28.269571 78.923077 28.271737 78.969231 28.273850 79.015385 28.275910 79.061538 28.277915 79.107692 28.279863 79.153846 28.281754 79.200000 28.283586 79.246154 28.285359 79.292308 28.287070 79.338462 28.288718 79.384615 28.290303 79.430769 28.291823 79.476923 28.293276 79.523077 28.294662 79.569231 28.295980 79.615385 28.297227 79.661538 28.298404 79.707692 28.299507 79.753846 28.300538 79.800000 28.301493 79.846154 28.302372 79.892308 28.303173 79.938462 28.303896 79.984615 28.304539 80.030769 28.305101 80.076923 28.305581 80.123077 28.305977 80.169231 28.306287 80.215385 28.306512 80.261538 28.306650 80.307692 28.306698 80.353846 28.306657 80.400000 28.306525 80.446154 28.306300 80.492308 28.305982 80.538462 28.305569 80.584615 28.305060 80.630769 28.304453 80.676923 28.303748 80.723077 28.302943 80.769231 28.302037 80.815385 28.301028 80.861538 28.299916 80.907692 28.298699 80.953846 28.297376 81.000000 28.295946 81.046154 28.294407 81.092308 28.292758 81.138462 28.290999 81.184615 28.289127 81.230769 28.287141 81.276923 28.285041 81.323077 28.282824 81.369231 28.280491 81.415385 28.278038 81.461538 28.275466 81.507692 28.272773 81.553846 28.269958 81.600000 28.267019 81.646154 28.263956 81.692308 28.260766 81.738462 28.257449 81.784615 28.254004 81.830769 28.250429 81.876923 28.246723 81.923077 28.242884 81.969231 28.238913 82.015385 28.234806 82.061538 28.230564 82.107692 28.226184 82.153846 28.221666 82.200000 28.217008 82.246154 28.212209 82.292308 28.207268 82.338462 28.202184 82.384615 28.196955 82.430769 28.191580 82.476923 28.186057 82.523077 28.180387 82.569231 28.174566 82.615385 28.168595 82.661538 28.162471 82.707692 28.156195 82.753846 28.149763 82.800000 28.143176 82.846154 28.136431 82.892308 28.129529 82.938462 28.122469 82.984615 28.115254 83.030769 28.107885 83.076923 28.100362 83.123077 28.092688 83.169231 28.084865 83.215385 28.076892 83.261538 28.068772 83.307692 28.060506 83.353846 28.052095 83.400000 28.043542 83.446154 28.034846 83.492308 28.026010 83.538462 28.017035 83.584615 28.007922 83.630769 27.998673 83.676923 27.989289 83.723077 27.979771 83.769231 27.970122 83.815385 27.960341 83.861538 27.950431 83.907692 27.940393 83.953846 27.930228 84.000000 27.919938 84.046154 27.909524 84.092308 27.898988 84.138462 27.888331 84.184615 27.877553 84.230769 27.866658 84.276923 27.855645 84.323077 27.844517 84.369231 27.833274 84.415385 27.821919 84.461538 27.810452 84.507692 27.798875 84.553846 27.787190 84.600000 27.775397 84.646154 27.763498 84.692308 27.751494 84.738462 27.739387 84.784615 27.727179 84.830769 27.714870 84.876923 27.702462 84.923077 27.689956 84.969231 27.677354 85.015385 27.664657 85.061538 27.651867 85.107692 27.638984 85.153846 27.626011 85.200000 27.612948 85.246154 27.599797 85.292308 27.586560 85.338462 27.573237 85.384615 27.559831 85.430769 27.546342 85.476923 27.532771 85.523077 27.519122 85.569231 27.505393 85.615385 27.491588 85.661538 27.477707 85.707692 27.463752 85.753846 27.449724 85.800000 27.435625 85.846154 27.421455 85.892308 27.407217 85.938462 27.392912 85.984615 27.378540 86.030769 27.364104 86.076923 27.349605 86.123077 27.335044 86.169231 27.320423 86.215385 27.305743 86.261538 27.291004 86.307692 27.276210 86.353846 27.261361 86.400000 27.246458 86.446154 27.231503 86.492308 27.216498 86.538462 27.201443 86.584615 27.186339 86.630769 27.171190 86.676923 27.155995 86.723077 27.140756 86.769231 27.125475 86.815385 27.110153 86.861538 27.094790 86.907692 27.079390 86.953846 27.063953 87.000000 27.048480 87.046154 27.032973 87.092308 27.017433 87.138462 27.001861 87.184615 26.986260 87.230769 26.970630 87.276923 26.954972 87.323077 26.939289 87.369231 26.923581 87.415385 26.907850 87.461538 26.892097 87.507692 26.876323 87.553846 26.860531 87.600000 26.844721 87.646154 26.828895 87.692308 26.813054 87.738462 26.797199 87.784615 26.781333 87.830769 26.765455 87.876923 26.749568 87.923077 26.733674 87.969231 26.717772 88.015385 26.701865 88.061538 26.685955 88.107692 26.670042 88.153846 26.654128 88.200000 26.638214 88.246154 26.622302 88.292308 26.606393 88.338462 26.590489 88.384615 26.574590 88.430769 26.558698 88.476923 26.542815 88.523077 26.526942 88.569231 26.511081 88.615385 26.495232 88.661538 26.479397 88.707692 26.463577 88.753846 26.447775 88.800000 26.431991 88.846154 26.416226 88.892308 26.400482 88.938462 26.384761 88.984615 26.369063 89.030769 26.353391 89.076923 26.337745 89.123077 26.322127 89.169231 26.306538 89.215385 26.290980 89.261538 26.275454 89.307692 26.259961 89.353846 26.244503 89.400000 26.229082 89.446154 26.213697 89.492308 26.198352 89.538462 26.183047 89.584615 26.167784 89.630769 26.152564 89.676923 26.137388 89.723077 26.122258 89.769231 26.107176 89.815385 26.092142 89.861538 26.077158 89.907692 26.062225 89.953846 26.047345 90.000000 26.032519 90.046154 26.017749 90.092308 26.003035 90.138462 25.988380 90.184615 25.973784 90.230769 25.959250 90.276923 25.944778 90.323077 25.930369 90.369231 25.916026 90.415385 25.901749 90.461538 25.887540 90.507692 25.873401 90.553846 25.859332 90.600000 25.845335 90.646154 25.831411 90.692308 25.817563 90.738462 25.803790 90.784615 25.790096 90.830769 25.776480 90.876923 25.762944 90.923077 25.749490 90.969231 25.736119 91.015385 25.722833 91.061538 25.709633 91.107692 25.696519 91.153846 25.683495 91.200000 25.670560 91.246154 25.657717 91.292308 25.644966 91.338462 25.632310 91.384615 25.619749 91.430769 25.607285 91.476923 25.594920 91.523077 25.582654 91.569231 25.570488 91.615385 25.558426 91.661538 25.546467 91.707692 25.534613 91.753846 25.522866 91.800000 25.511227 91.846154 25.499697 91.892308 25.488278 91.938462 25.476971 91.984615 25.465777 92.030769 25.454698 92.076923 25.443736 92.123077 25.432891 92.169231 25.422165 92.215385 25.411559 92.261538 25.401075 92.307692 25.390714 92.353846 25.380477 92.400000 25.370367 92.446154 25.360384 92.492308 25.350529 92.538462 25.340804 92.584615 25.331211 92.630769 25.321750 92.676923 25.312424 92.723077 25.303233 92.769231 25.294179 92.815385 25.285264 92.861538 25.276488 92.907692 25.267853 92.953846 25.259360 93.000000 25.251011 93.046154 25.242808 93.092308 25.234751 93.138462 25.226842 93.184615 25.219082 93.230769 25.211473 93.276923 25.204016 93.323077 25.196713 93.369231 25.189564 93.415385 25.182572 93.461538 25.175737 93.507692 25.169061 93.553846 25.162546 93.600000 25.156192 93.646154 25.150002 93.692308 25.143976 93.738462 25.138115 93.784615 25.132422 93.830769 25.126898 93.876923 25.121544 93.923077 25.116361 93.969231 25.111351 94.015385 25.106515 94.061538 25.101855 94.107692 25.097371 94.153846 25.093066 94.200000 25.088941 94.246154 25.084997 94.292308 25.081235 94.338462 25.077656 94.384615 25.074264 94.430769 25.071057 94.476923 25.068036 94.523077 25.065200 94.569231 25.062549 94.615385 25.060081 94.661538 25.057796 94.707692 25.055693 94.753846 25.053772 94.800000 25.052031 94.846154 25.050470 94.892308 25.049088 94.938462 25.047884 94.984615 25.046858 95.030769 25.046009 95.076923 25.045337 95.123077 25.044839 95.169231 25.044516 95.215385 25.044367 95.261538 25.044391 95.307692 25.044588 95.353846 25.044956 95.400000 25.045495 95.446154 25.046205 95.492308 25.047083 95.538462 25.048131 95.584615 25.049346 95.630769 25.050729 95.676923 25.052278 95.723077 25.053992 95.769231 25.055872 95.815385 25.057915 95.861538 25.060123 95.907692 25.062493 95.953846 25.065024 96.000000 25.067717 96.046154 25.070571 96.092308 25.073584 96.138462 25.076756 96.184615 25.080087 96.230769 25.083575 96.276923 25.087219 96.323077 25.091020 96.369231 25.094976 96.415385 25.099086 96.461538 25.103350 96.507692 25.107767 96.553846 25.112337 96.600000 25.117057 96.646154 25.121929 96.692308 25.126951 96.738462 25.132121 96.784615 25.137441 96.830769 25.142908 96.876923 25.148522 96.923077 25.154283 96.969231 25.160189 97.015385 25.166239 97.061538 25.172434 97.107692 25.178772 97.153846 25.185253 97.200000 25.191875 97.246154 25.198639 97.292308 25.205543 97.338462 25.212586 97.384615 25.219768 97.430769 25.227089 97.476923 25.234546 97.523077 25.242141 97.569231 25.249871 97.615385 25.257736 97.661538 25.265735 97.707692 25.273868 97.753846 25.282134 97.800000 25.290532 97.846154 25.299061 97.892308 25.307721 97.938462 25.316511 97.984615 25.325430 98.030769 25.334477 98.076923 25.343652 98.123077 25.352954 98.169231 25.362382 98.215385 25.371935 98.261538 25.381613 98.307692 25.391415 98.353846 25.401340 98.400000 25.411387 98.446154 25.421556 98.492308 25.431846 98.538462 25.442256 98.584615 25.452786 98.630769 25.463434 98.676923 25.474200 98.723077 25.485083 98.769231 25.496083 98.815385 25.507198 98.861538 25.518429 98.907692 25.529773 98.953846 25.541231 99.000000 25.552802 99.046154 25.564484 99.092308 25.576278 99.138462 25.588182 99.184615 25.600196 99.230769 25.612319 99.276923 25.624550 99.323077 25.636889 99.369231 25.649334 99.415385 25.661886 99.461538 25.674542 99.507692 25.687303 99.553846 25.700168 99.600000 25.713136 99.646154 25.726206 99.692308 25.739377 99.738462 25.752650 99.784615 25.766022 99.830769 25.779493 99.876923 25.793063 99.923077 25.806731 99.969231 25.820496 100.015385 25.834357 100.061538 25.848314 100.107692 25.862365 100.153846 25.876511 100.200000 25.890749 100.246154 25.905081 100.292308 25.919504 100.338462 25.934018 100.384615 25.948622 100.430769 25.963316 100.476923 25.978099 100.523077 25.992970 100.569231 26.007928 100.615385 26.022973 100.661538 26.038104 100.707692 26.053320 100.753846 26.068620 100.800000 26.084003 100.846154 26.099470 100.892308 26.115018 100.938462 26.130648 100.984615 26.146359 101.030769 26.162149 101.076923 26.178018 101.123077 26.193966 101.169231 26.209992 101.215385 26.226094 101.261538 26.242273 101.307692 26.258526 101.353846 26.274855 101.400000 26.291257 101.446154 26.307733 101.492308 26.324281 101.538462 26.340900 101.584615 26.357591 101.630769 26.374351 101.676923 26.391181 101.723077 26.408080 101.769231 26.425047 101.815385 26.442080 101.861538 26.459180 101.907692 26.476346 101.953846 26.493577 102.000000 26.510872 102.046154 26.528231 102.092308 26.545652 102.138462 26.563135 102.184615 26.580679 102.230769 26.598284 102.276923 26.615948 102.323077 26.633671 102.369231 26.651453 102.415385 26.669292 102.461538 26.687188 102.507692 26.705140 102.553846 26.723146 102.600000 26.741208 102.646154 26.759323 102.692308 26.777491 102.738462 26.795712 102.784615 26.813984 102.830769 26.832306 102.876923 26.850679 102.923077 26.869101 102.969231 26.887571 103.015385 26.906090 103.061538 26.924655 103.107692 26.943266 103.153846 26.961923 103.200000 26.980625 103.246154 26.999371 103.292308 27.018160 103.338462 27.036992 103.384615 27.055865 103.430769 27.074780 103.476923 27.093734 103.523077 27.112729 103.569231 27.131762 103.615385 27.150833 103.661538 27.169942 103.707692 27.189087 103.753846 27.208268 103.800000 27.227484 103.846154 27.246734 103.892308 27.266018 103.938462 27.285335 103.984615 27.304684 104.030769 27.324064 104.076923 27.343475 104.123077 27.362916 104.169231 27.382385 104.215385 27.401883 104.261538 27.421409 104.307692 27.440962 104.353846 27.460541 104.400000 27.480145 104.446154 27.499773 104.492308 27.519426 104.538462 27.539102 104.584615 27.558800 104.630769 27.578520 104.676923 27.598260 104.723077 27.618021 104.769231 27.637801 104.815385 27.657600 104.861538 27.677417 104.907692 27.697251 104.953846 27.717102 105.000000 27.736968 105.046154 27.756849 105.092308 27.776744 105.138462 27.796652 105.184615 27.816574 105.230769 27.836507 105.276923 27.856451 105.323077 27.876406 105.369231 27.896371 105.415385 27.916344 105.461538 27.936326 105.507692 27.956315 105.553846 27.976311 105.600000 27.996313 105.646154 28.016320 105.692308 28.036332 105.738462 28.056347 105.784615 28.076366 105.830769 28.096386 105.876923 28.116408 105.923077 28.136431" class="line reactive nofill" /></g></g><g class="titles" /><g transform="translate(82, 10)" class="plot overlay"><g class="series serie-0 color-0" /></g><g transform="translate(82, 10)" class="plot text-overlay"><g class="series serie-0 color-0" /></g><g transform="translate(82, 10)" class="plot tooltip-overlay"><g transform="translate(0 0)" style="opacity: 0" class="tooltip"><rect rx="0" ry="0" width="0" height="0" class="tooltip-box" /><g class="text" /></g></g></g></svg>