<?xml version='1.0' encoding='utf-8'?>
<svg xmlns="http://www.w3.org/2000/svg" id="chart-d0d47ff7-9f8c-4ba6-a0f8-37e4a84432cf" class="pygal-chart pygal-sparkline" viewBox="0 0 200 50" width="200" height="50"><!--Generated with pygal 3.0.4 (etree) ©Kozea 2012-2016 on 2024-06-30--><!--http://pygal.org--><!--http://github.com/Kozea/pygal--><defs><style type="text/css">#chart-d0d47ff7-9f8c-4ba6-a0f8-37e4a84432cf{-webkit-user-select:none;-webkit-font-smoothing:antialiased;font-family:Consolas,"Liberation Mono",Menlo,Courier,monospace}#chart-d0d47ff7-9f8c-4ba6-a0f8-37e4a84432cf .title{font-family:Consolas,"Liberation Mono",Menlo,Courier,monospace;font-size:16px}#chart-d0d47ff7-9f8c-4ba6-a0f8-37e4a84432cf .legends .legend text{font-family:Consolas,"Liberation Mono",Menlo,Courier,monospace;font-size:14px}#chart-d0d47ff7-9f8c-4ba6-a0f8-37e4a84432cf .axis text{font-family:Consolas,"Liberation Mono",Menlo,Courier,monospace;font-size:10px}#chart-d0d47ff7-9f8c-4ba6-a0f8-37e4a84432cf .axis text.major{font-family:Consolas,"Liberation Mono",Menlo,Courier,monospace;font-size:10px}#chart-d0d47ff7-9f8c-4ba6-a0f8-37e4a84432cf .text-overlay text.value{font-family:Consolas,"Liberation Mono",Menlo,Courier,monospace;font-size:16px}#chart-d0d47ff7-9f8c-4ba6-a0f8-37e4a84432cf .text-overlay text.label{font-family:Consolas,"Liberation Mono",Menlo,Courier,monospace;font-size:10px}#chart-d0d47ff7-9f8c-4ba6-a0f8-37e4a84432cf .tooltip{font-family:Consolas,"Liberation Mono",Menlo,Courier,monospace;font-size:14px}#chart-d0d47ff7-9f8c-4ba6-a0f8-37e4a84432cf text.no_data{font-family:Consolas,"Liberation Mono",Menlo,Courier,monospace;font-size:64px}
#chart-d0d47ff7-9f8c-4ba6-a0f8-37e4a84432cf{background-color:rgba(249,249,249,1)}#chart-d0d47ff7-9f8c-4ba6-a0f8-37e4a84432cf path,#chart-d0d47ff7-9f8c-4ba6-a0f8-37e4a84432cf line,#chart-d0d47ff7-9f8c-4ba6-a0f8-37e4a84432cf rect,#chart-d0d47ff7-9f8c-4ba6-a0f8-37e4a84432cf circle{-webkit-transition:150ms;-moz-transition:150ms;transition:150ms}#chart-d0d47ff7-9f8c-4ba6-a0f8-37e4a84432cf .graph &gt; .background{fill:rgba(249,249,249,1)}#chart-d0d47ff7-9f8c-4ba6-a0f8-37e4a84432cf .plot &gt; .background{fill:rgba(255,255,255,1)}#chart-d0d47ff7-9f8c-4ba6-a0f8-37e4a84432cf .graph{fill:rgba(0,0,0,.87)}#chart-d0d47ff7-9f8c-4ba6-a0f8-37e4a84432cf text.no_data{fill:rgba(0,0,0,1)}#chart-d0d47ff7-9f8c-4ba6-a0f8-37e4a84432cf .title{fill:rgba(0,0,0,1)}#chart-d0d47ff7-9f8c-4ba6-a0f8-37e4a84432cf .legends .legend text{fill:rgba(0,0,0,.87)}#chart-d0d47ff7-9f8c-4ba6-a0f8-37e4a84432cf .legends .legend:hover text{fill:rgba(0,0,0,1)}#chart-d0d47ff7-9f8c-4ba6-a0f8-37e4a84432cf .axis .line{stroke:rgba(0,0,0,1)}#chart-d0d47ff7-9f8c-4ba6-a0f8-37e4a84432cf .axis .guide.line{stroke:rgba(0,0,0,.54)}#chart-d0d47ff7-9f8c-4ba6-a0f8-37e4a84432cf .axis .major.line{stroke:rgba(0,0,0,.87)}#chart-d0d47ff7-9f8c-4ba6-a0f8-37e4a84432cf .axis text.major{fill:rgba(0,0,0,1)}#chart-d0d47ff7-9f8c-4ba6-a0f8-37e4a84432cf .axis.y .guides:hover .guide.line,#chart-d0d47ff7-9f8c-4ba6-a0f8-37e4a84432cf .line-graph .axis.x .guides:hover .guide.line,#chart-d0d47ff7-9f8c-4ba6-a0f8-37e4a84432cf .stackedline-graph .axis.x .guides:hover .guide.line,#chart-d0d47ff7-9f8c-4ba6-a0f8-37e4a84432cf .xy-graph .axis.x .guides:hover .guide.line{stroke:rgba(0,0,0,1)}#chart-d0d47ff7-9f8c-4ba6-a0f8-37e4a84432cf .axis .guides:hover text{fill:rgba(0,0,0,1)}#chart-d0d47ff7-9f8c-4ba6-a0f8-37e4a84432cf .reactive{fill-opacity:.7;stroke-opacity:.8;stroke-width:1}#chart-d0d47ff7-9f8c-4ba6-a0f8-37e4a84432cf .ci{stroke:rgba(0,0,0,.87)}#chart-d0d47ff7-9f8c-4ba6-a0f8-37e4a84432cf .reactive.active,#chart-d0d47ff7-9f8c-4ba6-a0f8-37e4a84432cf .active .reactive{fill-opacity:.8;stroke-opacity:.9;stroke-width:4}#chart-d0d47ff7-9f8c-4ba6-a0f8-37e4a84432cf .ci .reactive.active{stroke-width:1.5}#chart-d0d47ff7-9f8c-4ba6-a0f8-37e4a84432cf .series text{fill:rgba(0,0,0,1)}#chart-d0d47ff7-9f8c-4ba6-a0f8-37e4a84432cf .tooltip rect{fill:rgba(255,255,255,1);stroke:rgba(0,0,0,1);-webkit-transition:opacity 150ms;-moz-transition:opacity 150ms;transition:opacity 150ms}#chart-d0d47ff7-9f8c-4ba6-a0f8-37e4a84432cf .tooltip .label{fill:rgba(0,0,0,.87)}#chart-d0d47ff7-9f8c-4ba6-a0f8-37e4a84432cf .tooltip .label{fill:rgba(0,0,0,.87)}#chart-d0d47ff7-9f8c-4ba6-a0f8-37e4a84432cf .tooltip .legend{font-size:.8em;fill:rgba(0,0,0,.54)}#chart-d0d47ff7-9f8c-4ba6-a0f8-37e4a84432cf .tooltip .x_label{font-size:.6em;fill:rgba(0,0,0,1)}#chart-d0d47ff7-9f8c-4ba6-a0f8-37e4a84432cf .tooltip .xlink{font-size:.5em;text-decoration:underline}#chart-d0d47ff7-9f8c-4ba6-a0f8-37e4a84432cf .tooltip .value{font-size:1.5em}#chart-d0d47ff7-9f8c-4ba6-a0f8-37e4a84432cf .bound{font-size:.5em}#chart-d0d47ff7-9f8c-4ba6-a0f8-37e4a84432cf .max-value{font-size:.75em;fill:rgba(0,0,0,.54)}#chart-d0d47ff7-9f8c-4ba6-a0f8-37e4a84432cf .map-element{fill:rgba(255,255,255,1);stroke:rgba(0,0,0,.54) !important}#chart-d0d47ff7-9f8c-4ba6-a0f8-37e4a84432cf .map-element .reactive{fill-opacity:inherit;stroke-opacity:inherit}#chart-d0d47ff7-9f8c-4ba6-a0f8-37e4a84432cf .color-0,#chart-d0d47ff7-9f8c-4ba6-a0f8-37e4a84432cf .color-0 a:visited{stroke:#F44336;fill:#F44336}#chart-d0d47ff7-9f8c-4ba6-a0f8-37e4a84432cf .text-overlay .color-0 text{fill:black}
#chart-d0d47ff7-9f8c-4ba6-a0f8-37e4a84432cf text.no_data{text-anchor:middle}#chart-d0d47ff7-9f8c-4ba6-a0f8-37e4a84432cf .guide.line{fill:none}#chart-d0d47ff7-9f8c-4ba6-a0f8-37e4a84432cf .centered{text-anchor:middle}#chart-d0d47ff7-9f8c-4ba6-a0f8-37e4a84432cf .title{text-anchor:middle}#chart-d0d47ff7-9f8c-4ba6-a0f8-37e4a84432cf .legends .legend text{fill-opacity:1}#chart-d0d47ff7-9f8c-4ba6-a0f8-37e4a84432cf .axis.x text{text-anchor:middle}#chart-d0d47ff7-9f8c-4ba6-a0f8-37e4a84432cf .axis.x:not(.web) text[transform]{text-anchor:start}#chart-d0d47ff7-9f8c-4ba6-a0f8-37e4a84432cf .axis.x:not(.web) text[transform].backwards{text-anchor:end}#chart-d0d47ff7-9f8c-4ba6-a0f8-37e4a84432cf .axis.y text{text-anchor:end}#chart-d0d47ff7-9f8c-4ba6-a0f8-37e4a84432cf .axis.y text[transform].backwards{text-anchor:start}#chart-d0d47ff7-9f8c-4ba6-a0f8-37e4a84432cf .axis.y2 text{text-anchor:start}#chart-d0d47ff7-9f8c-4ba6-a0f8-37e4a84432cf .axis.y2 text[transform].backwards{text-anchor:end}#chart-d0d47ff7-9f8c-4ba6-a0f8-37e4a84432cf .axis .guide.line{stroke-dasharray:4,4;stroke:black}#chart-d0d47ff7-9f8c-4ba6-a0f8-37e4a84432cf .axis .major.guide.line{stroke-dasharray:6,6;stroke:black}#chart-d0d47ff7-9f8c-4ba6-a0f8-37e4a84432cf .horizontal .axis.y .guide.line,#chart-d0d47ff7-9f8c-4ba6-a0f8-37e4a84432cf .horizontal .axis.y2 .guide.line,#chart-d0d47ff7-9f8c-4ba6-a0f8-37e4a84432cf .vertical .axis.x .guide.line{opacity:0}#chart-d0d47ff7-9f8c-4ba6-a0f8-37e4a84432cf .horizontal .axis.always_show .guide.line,#chart-d0d47ff7-9f8c-4ba6-a0f8-37e4a84432cf .vertical .axis.always_show .guide.line{opacity:1 !important}#chart-d0d47ff7-9f8c-4ba6-a0f8-37e4a84432cf .axis.y .guides:hover .guide.line,#chart-d0d47ff7-9f8c-4ba6-a0f8-37e4a84432cf .axis.y2 .guides:hover .guide.line,#chart-d0d47ff7-9f8c-4ba6-a0f8-37e4a84432cf .axis.x .guides:hover .guide.line{opacity:1}#chart-d0d47ff7-9f8c-4ba6-a0f8-37e4a84432cf .axis .guides:hover text{opacity:1}#chart-d0d47ff7-9f8c-4ba6-a0f8-37e4a84432cf .nofill{fill:none}#chart-d0d47ff7-9f8c-4ba6-a0f8-37e4a84432cf .subtle-fill{fill-opacity:.2}#chart-d0d47ff7-9f8c-4ba6-a0f8-37e4a84432cf .dot{stroke-width:1px;fill-opacity:1;stroke-opacity:1}#chart-d0d47ff7-9f8c-4ba6-a0f8-37e4a84432cf .dot.active{stroke-width:5px}#chart-d0d47ff7-9f8c-4ba6-a0f8-37e4a84432cf .dot.negative{fill:transparent}#chart-d0d47ff7-9f8c-4ba6-a0f8-37e4a84432cf text,#chart-d0d47ff7-9f8c-4ba6-a0f8-37e4a84432cf tspan{stroke:none !important}#chart-d0d47ff7-9f8c-4ba6-a0f8-37e4a84432cf .series text.active{opacity:1}#chart-d0d47ff7-9f8c-4ba6-a0f8-37e4a84432cf .tooltip rect{fill-opacity:.95;stroke-width:.5}#chart-d0d47ff7-9f8c-4ba6-a0f8-37e4a84432cf .tooltip text{fill-opacity:1}#chart-d0d47ff7-9f8c-4ba6-a0f8-37e4a84432cf .showable{visibility:hidden}#chart-d0d47ff7-9f8c-4ba6-a0f8-37e4a84432cf .showable.shown{visibility:visible}#chart-d0d47ff7-9f8c-4ba6-a0f8-37e4a84432cf .gauge-background{fill:rgba(229,229,229,1);stroke:none}#chart-d0d47ff7-9f8c-4ba6-a0f8-37e4a84432cf .bg-lines{stroke:rgba(249,249,249,1);stroke-width:2px}</style><script type="text/javascript">window.pygal = window.pygal || {};window.pygal.config = window.pygal.config || {};window.pygal.config['d0d47ff7-9f8c-4ba6-a0f8-37e4a84432cf'] = {"allow_interruptions": false, "box_mode": "extremes", "classes": ["pygal-chart", "pygal-sparkline"], "css": ["file://style.css", "file://graph.css"], "defs": [], "disable_xml_declaration": false, "dots_size": 2.5, "dynamic_print_values": false, "explicit_size": true, "fill": false, "force_uri_protocol": "https", "formatter": null, "half_pie": false, "height": 50, "include_x_axis": false, "inner_radius": 0, "interpolate": "cubic", "interpolation_parameters": {}, "interpolation_precision": 250, "inverse_y_axis": false, "js": [], "legend_at_bottom": false, "legend_at_bottom_columns": null, "legend_box_size": 12, "logarithmic": false, "margin": 10, "margin_bottom": null, "margin_left": null, "margin_right": null, "margin_top": null, "max_scale": 2, "min_scale": 1, "missing_value_fill_truncation": "x", "no_data_text": "", "no_prefix": false, "order_min": null, "pretty_print": false, "print_labels": false, "print_values": false, "print_values_position": "center", "print_zeroes": true, "range": null, "rounded_bars": null, "secondary_range": null, "show_dots": false, "show_legend": false, "show_minor_x_labels": true, "show_minor_y_labels": true, "show_only_major_dots": false, "show_x_guides": false, "show_x_labels": false, "show_y_guides": true, "show_y_labels": true, "spacing": 0, "stack_from_top": false, "strict": false, "stroke": true, "stroke_style": null, "style": {"background": "rgba(249, 249, 249, 1)", "ci_colors": [], "colors": ["#F44336", "#3F51B5", "#009688", "#FFC107", "#FF5722", "#9C27B0", "#03A9F4", "#8BC34A", "#FF9800", "#E91E63", "#2196F3", "#4CAF50", "#FFEB3B", "#673AB7", "#00BCD4", "#CDDC39", "#9E9E9E", "#607D8B"], "dot_opacity": "1", "font_family": "Consolas, \"Liberation Mono\", Menlo, Courier, monospace", "foreground": "rgba(0, 0, 0, .87)", "foreground_strong": "rgba(0, 0, 0, 1)", "foreground_subtle": "rgba(0, 0, 0, .54)", "guide_stroke_color": "black", "guide_stroke_dasharray": "4,4", "label_font_family": "Consolas, \"Liberation Mono\", Menlo, Courier, monospace", "label_font_size": 10, "legend_font_family": "Consolas, \"Liberation Mono\", Menlo, Courier, monospace", "legend_font_size": 14, "major_guide_stroke_color": "black", "major_guide_stroke_dasharray": "6,6", "major_label_font_family": "Consolas, \"Liberation Mono\", Menlo, Courier, monospace", "major_label_font_size": 10, "no_data_font_family": "Consolas, \"Liberation Mono\", Menlo, Courier, monospace", "no_data_font_size": 64, "opacity": ".7", "opacity_hover": ".8", "plot_background": "rgba(255, 255, 255, 1)", "stroke_opacity": ".8", "stroke_opacity_hover": ".9", "stroke_width": "1", "stroke_width_hover": "4", "title_font_family": "Consolas, \"Liberation Mono\", Menlo, Courier, monospace", "title_font_size": 16, "tooltip_font_family": "Consolas, \"Liberation Mono\", Menlo, Courier, monospace", "tooltip_font_size": 14, "transition": "150ms", "value_background": "rgba(229, 229, 229, 1)", "value_colors": [], "value_font_family": "Consolas, \"Liberation Mono\", Menlo, Courier, monospace", "value_font_size": 16, "value_label_font_family": "Consolas, \"Liberation Mono\", Menlo, Courier, monospace", "value_label_font_size": 10}, "title": null, "tooltip_border_radius": 0, "tooltip_fancy_mode": true, "truncate_label": null, "truncate_legend": null, "width": 200, "x_label_rotation": 0, "x_labels": ["2024/6", "2024/5", "2024/4", "2024/2", "2024/1", "2023/12"], "x_labels_major": null, "x_labels_major_count": null, "x_labels_major_every": null, "x_title": null, "xrange": null, "y_label_rotation": 0, "y_labels": null, "y_labels_major": null, "y_labels_major_count": null, "y_labels_major_every": null, "y_title": null, "zero": 0, "legends": [""]}</script></defs><title>Pygal</title><g class="graph line-graph vertical"><rect x="0" y="0" width="200" height="50" class="background" /><g transform="translate(82, 10)" class="plot"><rect x="0" y="0" width="108.0" height="30" class="background" /><g class="axis y always_show"><path d="M0.000000 30.000000 h108.000000" class="line" /><g class="guides"><path d="M0.000000 29.423077 h108.000000" class="guide line" /><text x="-5" y="32.92307692307692" class="">0.9800908531</text><title>0.9800908531</title></g><g class="guides"><path d="M0.000000 0.576923 h108.000000" class="guide line" /><text x="-5" y="4.076923076923077" class="">15</text><title>15</title></g></g><g class="series serie-0 color-0"><path d="M2.076923 0.576923 L2.160000 0.698208 2.243077 0.819489 2.326154 0.940765 2.409231 1.062032 2.492308 1.183287 2.575385 1.304527 2.658462 1.425749 2.741538 1.546951 2.824615 1.668129 2.907692 1.789281 2.990769 1.910403 3.073846 2.031493 3.156923 2.152547 3.240000 2.273563 3.323077 2.394538 3.406154 2.515468 3.489231 2.636351 3.572308 2.757184 3.655385 2.877963 3.738462 2.998687 3.821538 3.119351 3.904615 3.239954 3.987692 3.360491 4.070769 3.480961 4.153846 3.601360 4.236923 3.721685 4.320000 3.841933 4.403077 3.962101 4.486154 4.082187 4.569231 4.202188 4.652308 4.322099 4.735385 4.441919 4.818462 4.561645 4.901538 4.681273 4.984615 4.800801 5.067692 4.920225 5.150769 5.039544 5.233846 5.158753 5.316923 5.277849 5.400000 5.396831 5.483077 5.515695 5.566154 5.634437 5.649231 5.753056 5.732308 5.871547 5.815385 5.989909 5.898462 6.108137 5.981538 6.226230 6.064615 6.344185 6.147692 6.461997 6.230769 6.579665 6.313846 6.697185 6.396923 6.814555 6.480000 6.931771 6.563077 7.048830 6.646154 7.165731 6.729231 7.282468 6.812308 7.399041 6.895385 7.515445 6.978462 7.631678 7.061538 7.747737 7.144615 7.863618 7.227692 7.979320 7.310769 8.094838 7.393846 8.210171 7.476923 8.325314 7.560000 8.440266 7.643077 8.555022 7.726154 8.669581 7.809231 8.783939 7.892308 8.898094 7.975385 9.012041 8.058462 9.125780 8.141538 9.239305 8.224615 9.352615 8.307692 9.465707 8.390769 9.578577 8.473846 9.691223 8.556923 9.803641 8.640000 9.915829 8.723077 10.027784 8.806154 10.139503 8.889231 10.250982 8.972308 10.362220 9.055385 10.473212 9.138462 10.583956 9.221538 10.694450 9.304615 10.804689 9.387692 10.914672 9.470769 11.024395 9.553846 11.133855 9.636923 11.243049 9.720000 11.351975 9.803077 11.460629 9.886154 11.569008 9.969231 11.677110 10.052308 11.784932 10.135385 11.892470 10.218462 11.999721 10.301538 12.106684 10.384615 12.213354 10.467692 12.319729 10.550769 12.425805 10.633846 12.531581 10.716923 12.637052 10.800000 12.742216 10.883077 12.847070 10.966154 12.951612 11.049231 13.055837 11.132308 13.159744 11.215385 13.263328 11.298462 13.366588 11.381538 13.469521 11.464615 13.572122 11.547692 13.674390 11.630769 13.776322 11.713846 13.877913 11.796923 13.979163 11.880000 14.080067 11.963077 14.180622 12.046154 14.280827 12.129231 14.380676 12.212308 14.480169 12.295385 14.579302 12.378462 14.678071 12.461538 14.776474 12.544615 14.874508 12.627692 14.972171 12.710769 15.069458 12.793846 15.166367 12.876923 15.262896 12.960000 15.359040 13.043077 15.454798 13.126154 15.550166 13.209231 15.645142 13.292308 15.739722 13.375385 15.833903 13.458462 15.927683 13.541538 16.021058 13.624615 16.114026 13.707692 16.206583 13.790769 16.298727 13.873846 16.390455 13.956923 16.481764 14.040000 16.572650 14.123077 16.663111 14.206154 16.753144 14.289231 16.842746 14.372308 16.931914 14.455385 17.020645 14.538462 17.108937 14.621538 17.196785 14.704615 17.284187 14.787692 17.371141 14.870769 17.457643 14.953846 17.543691 15.036923 17.629280 15.120000 17.714409 15.203077 17.799075 15.286154 17.883274 15.369231 17.967004 15.452308 18.050261 15.535385 18.133043 15.618462 18.215347 15.701538 18.297169 15.784615 18.378507 15.867692 18.459358 15.950769 18.539719 16.033846 18.619587 16.116923 18.698959 16.200000 18.777832 16.283077 18.856203 16.366154 18.934069 16.449231 19.011428 16.532308 19.088275 16.615385 19.164609 16.698462 19.240426 16.781538 19.315724 16.864615 19.390499 16.947692 19.464749 17.030769 19.538469 17.113846 19.611659 17.196923 19.684314 17.280000 19.756432 17.363077 19.828009 17.446154 19.899044 17.529231 19.969532 17.612308 20.039471 17.695385 20.108858 17.778462 20.177689 17.861538 20.245963 17.944615 20.313676 18.027692 20.380825 18.110769 20.447407 18.193846 20.513419 18.276923 20.578858 18.360000 20.643722 18.443077 20.708007 18.526154 20.771711 18.609231 20.834829 18.692308 20.897361 18.775385 20.959301 18.858462 21.020649 18.941538 21.081400 19.024615 21.141551 19.107692 21.201101 19.190769 21.260045 19.273846 21.318381 19.356923 21.376105 19.440000 21.433216 19.523077 21.489710 19.606154 21.545583 19.689231 21.600834 19.772308 21.655459 19.855385 21.709454 19.938462 21.762818 20.021538 21.815548 20.104615 21.867639 20.187692 21.919090 20.270769 21.969897 20.353846 22.020058 20.436923 22.069569 20.520000 22.118428 20.603077 22.166631 20.686154 22.214176 20.769231 22.261059 20.852308 22.307278 20.935385 22.352830 21.018462 22.397712 21.101538 22.441920 21.184615 22.485453 21.267692 22.528306 21.350769 22.570477 21.433846 22.611964 21.516923 22.652762 21.600000 22.692870 21.683077 22.732284 21.766154 22.771001 21.849231 22.809018 21.932308 22.846333 22.015385 22.882942 22.098462 22.918842 22.181538 22.954031 22.264615 22.988506 22.347692 23.022263 22.430769 23.055299 22.513846 23.087612 22.596923 23.119199 22.680000 23.150057 22.763077 23.180182 22.846154 23.209573 22.929231 23.238226 23.012308 23.266147 23.095385 23.293340 23.178462 23.319811 23.261538 23.345565 23.344615 23.370608 23.427692 23.394943 23.510769 23.418578 23.593846 23.441517 23.676923 23.463765 23.760000 23.485328 23.843077 23.506211 23.926154 23.526420 24.009231 23.545958 24.092308 23.564833 24.175385 23.583049 24.258462 23.600611 24.341538 23.617525 24.424615 23.633795 24.507692 23.649428 24.590769 23.664429 24.673846 23.678802 24.756923 23.692554 24.840000 23.705688 24.923077 23.718212 25.006154 23.730129 25.089231 23.741446 25.172308 23.752167 25.255385 23.762297 25.338462 23.771843 25.421538 23.780809 25.504615 23.789201 25.587692 23.797024 25.670769 23.804282 25.753846 23.810983 25.836923 23.817130 25.920000 23.822729 26.003077 23.827785 26.086154 23.832304 26.169231 23.836291 26.252308 23.839750 26.335385 23.842689 26.418462 23.845111 26.501538 23.847022 26.584615 23.848427 26.667692 23.849332 26.750769 23.849741 26.833846 23.849661 26.916923 23.849096 27.000000 23.848052 27.083077 23.846533 27.166154 23.844546 27.249231 23.842096 27.332308 23.839187 27.415385 23.835825 27.498462 23.832016 27.581538 23.827764 27.664615 23.823075 27.747692 23.817955 27.830769 23.812408 27.913846 23.806439 27.996923 23.800055 28.080000 23.793260 28.163077 23.786060 28.246154 23.778459 28.329231 23.770464 28.412308 23.762079 28.495385 23.753310 28.578462 23.744162 28.661538 23.734640 28.744615 23.724750 28.827692 23.714496 28.910769 23.703885 28.993846 23.692921 29.076923 23.681610 29.160000 23.669956 29.243077 23.657967 29.326154 23.645645 29.409231 23.632997 29.492308 23.620029 29.575385 23.606745 29.658462 23.593150 29.741538 23.579251 29.824615 23.565052 29.907692 23.550558 29.990769 23.535775 30.073846 23.520708 30.156923 23.505362 30.240000 23.489743 30.323077 23.473856 30.406154 23.457706 30.489231 23.441299 30.572308 23.424639 30.655385 23.407733 30.738462 23.390585 30.821538 23.373200 30.904615 23.355584 30.987692 23.337742 31.070769 23.319680 31.153846 23.301403 31.236923 23.282915 31.320000 23.264223 31.403077 23.245332 31.486154 23.226246 31.569231 23.206971 31.652308 23.187513 31.735385 23.167876 31.818462 23.148067 31.901538 23.128090 31.984615 23.107950 32.067692 23.087653 32.150769 23.067204 32.233846 23.046608 32.316923 23.025872 32.400000 23.004999 32.483077 22.983995 32.566154 22.962866 32.649231 22.941616 32.732308 22.920252 32.815385 22.898778 32.898462 22.877200 32.981538 22.855522 33.064615 22.833751 33.147692 22.811891 33.230769 22.789948 33.313846 22.767927 33.396923 22.745834 33.480000 22.723672 33.563077 22.701449 33.646154 22.679169 33.729231 22.656838 33.812308 22.634460 33.895385 22.612041 33.978462 22.589586 34.061538 22.567101 34.144615 22.544591 34.227692 22.522061 34.310769 22.499516 34.393846 22.476962 34.476923 22.454404 34.560000 22.431847 34.643077 22.409297 34.726154 22.386758 34.809231 22.364237 34.892308 22.341738 34.975385 22.319266 35.058462 22.296828 35.141538 22.274428 35.224615 22.252071 35.307692 22.229763 35.390769 22.207509 35.473846 22.185315 35.556923 22.163185 35.640000 22.141125 35.723077 22.119140 35.806154 22.097236 35.889231 22.075417 35.972308 22.053689 36.055385 22.032058 36.138462 22.010528 36.221538 21.989105 36.304615 21.967795 36.387692 21.946602 36.470769 21.925531 36.553846 21.904588 36.636923 21.883779 36.720000 21.863108 36.803077 21.842582 36.886154 21.822204 36.969231 21.801980 37.052308 21.781917 37.135385 21.762018 37.218462 21.742290 37.301538 21.722737 37.384615 21.703365 37.467692 21.684178 37.550769 21.665184 37.633846 21.646386 37.716923 21.627790 37.800000 21.609401 37.883077 21.591224 37.966154 21.573266 38.049231 21.555530 38.132308 21.538023 38.215385 21.520749 38.298462 21.503714 38.381538 21.486924 38.464615 21.470383 38.547692 21.454096 38.630769 21.438070 38.713846 21.422309 38.796923 21.406819 38.880000 21.391604 38.963077 21.376670 39.046154 21.362023 39.129231 21.347668 39.212308 21.333610 39.295385 21.319854 39.378462 21.306405 39.461538 21.293270 39.544615 21.280452 39.627692 21.267958 39.710769 21.255792 39.793846 21.243961 39.876923 21.232469 39.960000 21.221321 40.043077 21.210523 40.126154 21.200080 40.209231 21.189997 40.292308 21.180280 40.375385 21.170934 40.458462 21.161965 40.541538 21.153376 40.624615 21.145175 40.707692 21.137365 40.790769 21.129953 40.873846 21.122944 40.956923 21.116342 41.040000 21.110154 41.123077 21.104384 41.206154 21.099037 41.289231 21.094120 41.372308 21.089637 41.455385 21.085594 41.538462 21.081995 41.621538 21.078847 41.704615 21.076154 41.787692 21.073922 41.870769 21.072156 41.953846 21.070861 42.036923 21.070042 42.120000 21.069705 42.203077 21.069856 42.286154 21.070499 42.369231 21.071639 42.452308 21.073283 42.535385 21.075435 42.618462 21.078100 42.701538 21.081284 42.784615 21.084992 42.867692 21.089229 42.950769 21.094002 43.033846 21.099314 43.116923 21.105171 43.200000 21.111579 43.283077 21.118542 43.366154 21.126067 43.449231 21.134157 43.532308 21.142820 43.615385 21.152059 43.698462 21.161879 43.781538 21.172276 43.864615 21.183246 43.947692 21.194784 44.030769 21.206885 44.113846 21.219545 44.196923 21.232758 44.280000 21.246520 44.363077 21.260827 44.446154 21.275673 44.529231 21.291054 44.612308 21.306964 44.695385 21.323401 44.778462 21.340357 44.861538 21.357830 44.944615 21.375813 45.027692 21.394303 45.110769 21.413294 45.193846 21.432782 45.276923 21.452763 45.360000 21.473231 45.443077 21.494181 45.526154 21.515609 45.609231 21.537510 45.692308 21.559880 45.775385 21.582713 45.858462 21.606006 45.941538 21.629752 46.024615 21.653948 46.107692 21.678589 46.190769 21.703669 46.273846 21.729185 46.356923 21.755131 46.440000 21.781503 46.523077 21.808296 46.606154 21.835505 46.689231 21.863126 46.772308 21.891153 46.855385 21.919583 46.938462 21.948410 47.021538 21.977629 47.104615 22.007236 47.187692 22.037226 47.270769 22.067595 47.353846 22.098337 47.436923 22.129448 47.520000 22.160923 47.603077 22.192757 47.686154 22.224946 47.769231 22.257485 47.852308 22.290369 47.935385 22.323594 48.018462 22.357154 48.101538 22.391045 48.184615 22.425262 48.267692 22.459801 48.350769 22.494657 48.433846 22.529824 48.516923 22.565298 48.600000 22.601075 48.683077 22.637150 48.766154 22.673518 48.849231 22.710174 48.932308 22.747114 49.015385 22.784332 49.098462 22.821824 49.181538 22.859586 49.264615 22.897612 49.347692 22.935898 49.430769 22.974439 49.513846 23.013231 49.596923 23.052268 49.680000 23.091546 49.763077 23.131060 49.846154 23.170805 49.929231 23.210777 50.012308 23.250971 50.095385 23.291382 50.178462 23.332005 50.261538 23.372836 50.344615 23.413870 50.427692 23.455102 50.510769 23.496528 50.593846 23.538142 50.676923 23.579941 50.760000 23.621918 50.843077 23.664070 50.926154 23.706392 51.009231 23.748879 51.092308 23.791526 51.175385 23.834329 51.258462 23.877282 51.341538 23.920381 51.424615 23.963622 51.507692 24.006999 51.590769 24.050508 51.673846 24.094144 51.756923 24.137903 51.840000 24.181779 51.923077 24.225768 52.006154 24.269865 52.089231 24.314065 52.172308 24.358364 52.255385 24.402757 52.338462 24.447240 52.421538 24.491806 52.504615 24.536452 52.587692 24.581173 52.670769 24.625965 52.753846 24.670822 52.836923 24.715739 52.920000 24.760712 53.003077 24.805737 53.086154 24.850808 53.169231 24.895921 53.252308 24.941071 53.335385 24.986253 53.418462 25.031463 53.501538 25.076696 53.584615 25.121946 53.667692 25.167210 53.750769 25.212483 53.833846 25.257759 53.916923 25.303034 54.000000 25.348304 54.083077 25.393563 54.166154 25.438807 54.249231 25.484032 54.332308 25.529231 54.415385 25.574402 54.498462 25.619538 54.581538 25.664635 54.664615 25.709689 54.747692 25.754695 54.830769 25.799647 54.913846 25.844542 54.996923 25.889374 55.080000 25.934139 55.163077 25.978831 55.246154 26.023447 55.329231 26.067982 55.412308 26.112430 55.495385 26.156787 55.578462 26.201049 55.661538 26.245210 55.744615 26.289266 55.827692 26.333212 55.910769 26.377043 55.993846 26.420755 56.076923 26.464343 56.160000 26.507801 56.243077 26.551127 56.326154 26.594313 56.409231 26.637357 56.492308 26.680253 56.575385 26.722996 56.658462 26.765581 56.741538 26.808005 56.824615 26.850262 56.907692 26.892347 56.990769 26.934256 57.073846 26.975984 57.156923 27.017526 57.240000 27.058878 57.323077 27.100034 57.406154 27.140990 57.489231 27.181742 57.572308 27.222284 57.655385 27.262611 57.738462 27.302720 57.821538 27.342605 57.904615 27.382262 57.987692 27.421685 58.070769 27.460871 58.153846 27.499814 58.236923 27.538509 58.320000 27.576952 58.403077 27.615138 58.486154 27.653063 58.569231 27.690721 58.652308 27.728108 58.735385 27.765220 58.818462 27.802050 58.901538 27.838596 58.984615 27.874851 59.067692 27.910811 59.150769 27.946472 59.233846 27.981829 59.316923 28.016876 59.400000 28.051610 59.483077 28.086025 59.566154 28.120117 59.649231 28.153881 59.732308 28.187312 59.815385 28.220406 59.898462 28.253157 59.981538 28.285562 60.064615 28.317615 60.147692 28.349311 60.230769 28.380646 60.313846 28.411615 60.396923 28.442214 60.480000 28.472437 60.563077 28.502280 60.646154 28.531738 60.729231 28.560806 60.812308 28.589480 60.895385 28.617755 60.978462 28.645626 61.061538 28.673088 61.144615 28.700137 61.227692 28.726768 61.310769 28.752977 61.393846 28.778757 61.476923 28.804106 61.560000 28.829017 61.643077 28.853486 61.726154 28.877509 61.809231 28.901081 61.892308 28.924197 61.975385 28.946852 62.058462 28.969041 62.141538 28.990761 62.224615 29.012005 62.307692 29.032769 62.390769 29.053050 62.473846 29.072841 62.556923 29.092138 62.640000 29.110936 62.723077 29.129231 62.806154 29.147018 62.889231 29.164292 62.972308 29.181048 63.055385 29.197282 63.138462 29.212989 63.221538 29.228164 63.304615 29.242802 63.387692 29.256899 63.470769 29.270450 63.553846 29.283450 63.636923 29.295895 63.720000 29.307779 63.803077 29.319098 63.886154 29.329848 63.969231 29.340022 64.052308 29.349618 64.135385 29.358630 64.218462 29.367053 64.301538 29.374882 64.384615 29.382114 64.467692 29.388743 64.550769 29.394774 64.633846 29.400211 64.716923 29.405057 64.800000 29.409317 64.883077 29.412995 64.966154 29.416095 65.049231 29.418622 65.132308 29.420579 65.215385 29.421971 65.298462 29.422802 65.381538 29.423077 65.464615 29.422799 65.547692 29.421972 65.630769 29.420602 65.713846 29.418691 65.796923 29.416245 65.880000 29.413267 65.963077 29.409761 66.046154 29.405733 66.129231 29.401186 66.212308 29.396123 66.295385 29.390551 66.378462 29.384472 66.461538 29.377890 66.544615 29.370811 66.627692 29.363238 66.710769 29.355176 66.793846 29.346628 66.876923 29.337599 66.960000 29.328092 67.043077 29.318114 67.126154 29.307666 67.209231 29.296755 67.292308 29.285383 67.375385 29.273555 67.458462 29.261275 67.541538 29.248548 67.624615 29.235378 67.707692 29.221768 67.790769 29.207723 67.873846 29.193248 67.956923 29.178346 68.040000 29.163021 68.123077 29.147279 68.206154 29.131122 68.289231 29.114556 68.372308 29.097584 68.455385 29.080211 68.538462 29.062441 68.621538 29.044278 68.704615 29.025726 68.787692 29.006789 68.870769 28.987472 68.953846 28.967779 69.036923 28.947714 69.120000 28.927281 69.203077 28.906484 69.286154 28.885329 69.369231 28.863818 69.452308 28.841956 69.535385 28.819747 69.618462 28.797196 69.701538 28.774306 69.784615 28.751082 69.867692 28.727529 69.950769 28.703649 70.033846 28.679448 70.116923 28.654930 70.200000 28.630098 70.283077 28.604957 70.366154 28.579512 70.449231 28.553766 70.532308 28.527724 70.615385 28.501389 70.698462 28.474767 70.781538 28.447861 70.864615 28.420675 70.947692 28.393214 71.030769 28.365482 71.113846 28.337483 71.196923 28.309221 71.280000 28.280700 71.363077 28.251925 71.446154 28.222900 71.529231 28.193629 71.612308 28.164116 71.695385 28.134366 71.778462 28.104382 71.861538 28.074169 71.944615 28.043731 72.027692 28.013073 72.110769 27.982197 72.193846 27.951110 72.276923 27.919814 72.360000 27.888314 72.443077 27.856615 72.526154 27.824720 72.609231 27.792633 72.692308 27.760360 72.775385 27.727903 72.858462 27.695268 72.941538 27.662458 73.024615 27.629478 73.107692 27.596331 73.190769 27.563023 73.273846 27.529557 73.356923 27.495937 73.440000 27.462168 73.523077 27.428254 73.606154 27.394198 73.689231 27.360006 73.772308 27.325682 73.855385 27.291229 73.938462 27.256652 74.021538 27.221955 74.104615 27.187142 74.187692 27.152217 74.270769 27.117186 74.353846 27.082051 74.436923 27.046817 74.520000 27.011488 74.603077 26.976069 74.686154 26.940563 74.769231 26.904975 74.852308 26.869310 74.935385 26.833570 75.018462 26.797761 75.101538 26.761887 75.184615 26.725951 75.267692 26.689958 75.350769 26.653913 75.433846 26.617819 75.516923 26.581681 75.600000 26.545502 75.683077 26.509288 75.766154 26.473042 75.849231 26.436768 75.932308 26.400471 76.015385 26.364154 76.098462 26.327823 76.181538 26.291481 76.264615 26.255132 76.347692 26.218781 76.430769 26.182432 76.513846 26.146089 76.596923 26.109756 76.680000 26.073438 76.763077 26.037138 76.846154 26.000861 76.929231 25.964611 77.012308 25.928392 77.095385 25.892209 77.178462 25.856065 77.261538 25.819965 77.344615 25.783913 77.427692 25.747913 77.510769 25.711970 77.593846 25.676088 77.676923 25.640270 77.760000 25.604521 77.843077 25.568846 77.926154 25.533248 78.009231 25.497731 78.092308 25.462301 78.175385 25.426960 78.258462 25.391714 78.341538 25.356566 78.424615 25.321521 78.507692 25.286582 78.590769 25.251755 78.673846 25.217042 78.756923 25.182450 78.840000 25.147980 78.923077 25.113639 79.006154 25.079430 79.089231 25.045357 79.172308 25.011424 79.255385 24.977636 79.338462 24.943997 79.421538 24.910511 79.504615 24.877182 79.587692 24.844014 79.670769 24.811012 79.753846 24.778180 79.836923 24.745522 79.920000 24.713043 80.003077 24.680745 80.086154 24.648634 80.169231 24.616715 80.252308 24.584990 80.335385 24.553464 80.418462 24.522142 80.501538 24.491027 80.584615 24.460124 80.667692 24.429438 80.750769 24.398971 80.833846 24.368729 80.916923 24.338715 81.000000 24.308935 81.083077 24.279391 81.166154 24.250089 81.249231 24.221032 81.332308 24.192224 81.415385 24.163671 81.498462 24.135375 81.581538 24.107342 81.664615 24.079575 81.747692 24.052079 81.830769 24.024858 81.913846 23.997915 81.996923 23.971256 82.080000 23.944884 82.163077 23.918804 82.246154 23.893020 82.329231 23.867536 82.412308 23.842356 82.495385 23.817484 82.578462 23.792925 82.661538 23.768683 82.744615 23.744762 82.827692 23.721166 82.910769 23.697899 82.993846 23.674966 83.076923 23.652371 83.160000 23.630118 83.243077 23.608212 83.326154 23.586655 83.409231 23.565453 83.492308 23.544610 83.575385 23.524131 83.658462 23.504018 83.741538 23.484277 83.824615 23.464911 83.907692 23.445925 83.990769 23.427323 84.073846 23.409110 84.156923 23.391289 84.240000 23.373864 84.323077 23.356840 84.406154 23.340222 84.489231 23.324012 84.572308 23.308216 84.655385 23.292838 84.738462 23.277881 84.821538 23.263351 84.904615 23.249250 84.987692 23.235585 85.070769 23.222357 85.153846 23.209573 85.236923 23.197234 85.320000 23.185341 85.403077 23.173891 85.486154 23.162883 85.569231 23.152315 85.652308 23.142185 85.735385 23.132491 85.818462 23.123232 85.901538 23.114405 85.984615 23.106009 86.067692 23.098043 86.150769 23.090503 86.233846 23.083390 86.316923 23.076700 86.400000 23.070432 86.483077 23.064584 86.566154 23.059155 86.649231 23.054142 86.732308 23.049545 86.815385 23.045360 86.898462 23.041586 86.981538 23.038222 87.064615 23.035266 87.147692 23.032715 87.230769 23.030569 87.313846 23.028825 87.396923 23.027482 87.480000 23.026537 87.563077 23.025989 87.646154 23.025836 87.729231 23.026077 87.812308 23.026709 87.895385 23.027732 87.978462 23.029142 88.061538 23.030938 88.144615 23.033119 88.227692 23.035682 88.310769 23.038627 88.393846 23.041950 88.476923 23.045651 88.560000 23.049727 88.643077 23.054177 88.726154 23.058999 88.809231 23.064191 88.892308 23.069751 88.975385 23.075678 89.058462 23.081970 89.141538 23.088624 89.224615 23.095640 89.307692 23.103015 89.390769 23.110748 89.473846 23.118837 89.556923 23.127279 89.640000 23.136074 89.723077 23.145220 89.806154 23.154714 89.889231 23.164555 89.972308 23.174741 90.055385 23.185270 90.138462 23.196141 90.221538 23.207352 90.304615 23.218901 90.387692 23.230785 90.470769 23.243005 90.553846 23.255556 90.636923 23.268439 90.720000 23.281650 90.803077 23.295189 90.886154 23.309053 90.969231 23.323241 91.052308 23.337751 91.135385 23.352581 91.218462 23.367729 91.301538 23.383193 91.384615 23.398972 91.467692 23.415064 91.550769 23.431468 91.633846 23.448180 91.716923 23.465200 91.800000 23.482526 91.883077 23.500156 91.966154 23.518088 92.049231 23.536321 92.132308 23.554852 92.215385 23.573680 92.298462 23.592803 92.381538 23.612219 92.464615 23.631927 92.547692 23.651924 92.630769 23.672209 92.713846 23.692781 92.796923 23.713636 92.880000 23.734774 92.963077 23.756193 93.046154 23.777891 93.129231 23.799866 93.212308 23.822116 93.295385 23.844640 93.378462 23.867436 93.461538 23.890501 93.544615 23.913835 93.627692 23.937436 93.710769 23.961301 93.793846 23.985428 93.876923 24.009817 93.960000 24.034465 94.043077 24.059371 94.126154 24.084532 94.209231 24.109948 94.292308 24.135615 94.375385 24.161533 94.458462 24.187699 94.541538 24.214112 94.624615 24.240770 94.707692 24.267671 94.790769 24.294814 94.873846 24.322196 94.956923 24.349816 95.040000 24.377672 95.123077 24.405762 95.206154 24.434084 95.289231 24.462638 95.372308 24.491420 95.455385 24.520429 95.538462 24.549664 95.621538 24.579122 95.704615 24.608802 95.787692 24.638702 95.870769 24.668819 95.953846 24.699154 96.036923 24.729703 96.120000 24.760464 96.203077 24.791437 96.286154 24.822619 96.369231 24.854008 96.452308 24.885603 96.535385 24.917401 96.618462 24.949402 96.701538 24.981603 96.784615 25.014003 96.867692 25.046599 96.950769 25.079390 97.033846 25.112374 97.116923 25.145550 97.200000 25.178915 97.283077 25.212468 97.366154 25.246206 97.449231 25.280129 97.532308 25.314235 97.615385 25.348521 97.698462 25.382985 97.781538 25.417627 97.864615 25.452444 97.947692 25.487435 98.030769 25.522597 98.113846 25.557929 98.196923 25.593429 98.280000 25.629095 98.363077 25.664926 98.446154 25.700919 98.529231 25.737074 98.612308 25.773388 98.695385 25.809858 98.778462 25.846485 98.861538 25.883265 98.944615 25.920198 99.027692 25.957280 99.110769 25.994511 99.193846 26.031889 99.276923 26.069411 99.360000 26.107076 99.443077 26.144883 99.526154 26.182829 99.609231 26.220913 99.692308 26.259133 99.775385 26.297487 99.858462 26.335973 99.941538 26.374589 100.024615 26.413335 100.107692 26.452207 100.190769 26.491205 100.273846 26.530326 100.356923 26.569568 100.440000 26.608931 100.523077 26.648411 100.606154 26.688007 100.689231 26.727718 100.772308 26.767542 100.855385 26.807477 100.938462 26.847520 101.021538 26.887671 101.104615 26.927927 101.187692 26.968287 101.270769 27.008749 101.353846 27.049312 101.436923 27.089972 101.520000 27.130729 101.603077 27.171581 101.686154 27.212526 101.769231 27.253562 101.852308 27.294687 101.935385 27.335900 102.018462 27.377199 102.101538 27.418582 102.184615 27.460047 102.267692 27.501592 102.350769 27.543217 102.433846 27.584918 102.516923 27.626694 102.600000 27.668543 102.683077 27.710465 102.766154 27.752455 102.849231 27.794514 102.932308 27.836639 103.015385 27.878828 103.098462 27.921080 103.181538 27.963393 103.264615 28.005764 103.347692 28.048193 103.430769 28.090678 103.513846 28.133216 103.596923 28.175805 103.680000 28.218445 103.763077 28.261134 103.846154 28.303868 103.929231 28.346648 104.012308 28.389470 104.095385 28.432333 104.178462 28.475236 104.261538 28.518176 104.344615 28.561152 104.427692 28.604162 104.510769 28.647204 104.593846 28.690277 104.676923 28.733378 104.760000 28.776506 104.843077 28.819659 104.926154 28.862836 105.009231 28.906033 105.092308 28.949251 105.175385 28.992486 105.258462 29.035738 105.341538 29.079003 105.424615 29.122281 105.507692 29.165570 105.590769 29.208868 105.673846 29.252173 105.756923 29.295484 105.840000 29.338798 105.923077 29.382114" class="line reactive nofill" /></g></g><g class="titles" /><g transform="translate(82, 10)" class="plot overlay"><g class="series serie-0 color-0" /></g><g transform="translate(82, 10)" class="plot text-overlay"><g class="series serie-0 color-0" /></g><g transform="translate(82, 10)" class="plot tooltip-overlay"><g transform="translate(0 0)" style="opacity: 0" class="tooltip"><rect rx="0" ry="0" width="0" height="0" class="tooltip-box" /><g class="text" /></g></g></g></svg>