<?xml version='1.0' encoding='utf-8'?>
<svg xmlns="http://www.w3.org/2000/svg" id="chart-681404be-2f22-4a5c-9c9f-56e0cc679318" class="pygal-chart pygal-sparkline" viewBox="0 0 200 50" width="200" height="50"><!--Generated with pygal 3.0.5 (etree) ©Kozea 2012-2016 on 2024-11-07--><!--http://pygal.org--><!--http://github.com/Kozea/pygal--><defs><style type="text/css">#chart-681404be-2f22-4a5c-9c9f-56e0cc679318{-webkit-user-select:none;-webkit-font-smoothing:antialiased;font-family:Consolas,"Liberation Mono",Menlo,Courier,monospace}#chart-681404be-2f22-4a5c-9c9f-56e0cc679318 .title{font-family:Consolas,"Liberation Mono",Menlo,Courier,monospace;font-size:16px}#chart-681404be-2f22-4a5c-9c9f-56e0cc679318 .legends .legend text{font-family:Consolas,"Liberation Mono",Menlo,Courier,monospace;font-size:14px}#chart-681404be-2f22-4a5c-9c9f-56e0cc679318 .axis text{font-family:Consolas,"Liberation Mono",Menlo,Courier,monospace;font-size:10px}#chart-681404be-2f22-4a5c-9c9f-56e0cc679318 .axis text.major{font-family:Consolas,"Liberation Mono",Menlo,Courier,monospace;font-size:10px}#chart-681404be-2f22-4a5c-9c9f-56e0cc679318 .text-overlay text.value{font-family:Consolas,"Liberation Mono",Menlo,Courier,monospace;font-size:16px}#chart-681404be-2f22-4a5c-9c9f-56e0cc679318 .text-overlay text.label{font-family:Consolas,"Liberation Mono",Menlo,Courier,monospace;font-size:10px}#chart-681404be-2f22-4a5c-9c9f-56e0cc679318 .tooltip{font-family:Consolas,"Liberation Mono",Menlo,Courier,monospace;font-size:14px}#chart-681404be-2f22-4a5c-9c9f-56e0cc679318 text.no_data{font-family:Consolas,"Liberation Mono",Menlo,Courier,monospace;font-size:64px}
#chart-681404be-2f22-4a5c-9c9f-56e0cc679318{background-color:rgba(249,249,249,1)}#chart-681404be-2f22-4a5c-9c9f-56e0cc679318 path,#chart-681404be-2f22-4a5c-9c9f-56e0cc679318 line,#chart-681404be-2f22-4a5c-9c9f-56e0cc679318 rect,#chart-681404be-2f22-4a5c-9c9f-56e0cc679318 circle{-webkit-transition:150ms;-moz-transition:150ms;transition:150ms}#chart-681404be-2f22-4a5c-9c9f-56e0cc679318 .graph &gt; .background{fill:rgba(249,249,249,1)}#chart-681404be-2f22-4a5c-9c9f-56e0cc679318 .plot &gt; .background{fill:rgba(255,255,255,1)}#chart-681404be-2f22-4a5c-9c9f-56e0cc679318 .graph{fill:rgba(0,0,0,.87)}#chart-681404be-2f22-4a5c-9c9f-56e0cc679318 text.no_data{fill:rgba(0,0,0,1)}#chart-681404be-2f22-4a5c-9c9f-56e0cc679318 .title{fill:rgba(0,0,0,1)}#chart-681404be-2f22-4a5c-9c9f-56e0cc679318 .legends .legend text{fill:rgba(0,0,0,.87)}#chart-681404be-2f22-4a5c-9c9f-56e0cc679318 .legends .legend:hover text{fill:rgba(0,0,0,1)}#chart-681404be-2f22-4a5c-9c9f-56e0cc679318 .axis .line{stroke:rgba(0,0,0,1)}#chart-681404be-2f22-4a5c-9c9f-56e0cc679318 .axis .guide.line{stroke:rgba(0,0,0,.54)}#chart-681404be-2f22-4a5c-9c9f-56e0cc679318 .axis .major.line{stroke:rgba(0,0,0,.87)}#chart-681404be-2f22-4a5c-9c9f-56e0cc679318 .axis text.major{fill:rgba(0,0,0,1)}#chart-681404be-2f22-4a5c-9c9f-56e0cc679318 .axis.y .guides:hover .guide.line,#chart-681404be-2f22-4a5c-9c9f-56e0cc679318 .line-graph .axis.x .guides:hover .guide.line,#chart-681404be-2f22-4a5c-9c9f-56e0cc679318 .stackedline-graph .axis.x .guides:hover .guide.line,#chart-681404be-2f22-4a5c-9c9f-56e0cc679318 .xy-graph .axis.x .guides:hover .guide.line{stroke:rgba(0,0,0,1)}#chart-681404be-2f22-4a5c-9c9f-56e0cc679318 .axis .guides:hover text{fill:rgba(0,0,0,1)}#chart-681404be-2f22-4a5c-9c9f-56e0cc679318 .reactive{fill-opacity:.7;stroke-opacity:.8;stroke-width:1}#chart-681404be-2f22-4a5c-9c9f-56e0cc679318 .ci{stroke:rgba(0,0,0,.87)}#chart-681404be-2f22-4a5c-9c9f-56e0cc679318 .reactive.active,#chart-681404be-2f22-4a5c-9c9f-56e0cc679318 .active .reactive{fill-opacity:.8;stroke-opacity:.9;stroke-width:4}#chart-681404be-2f22-4a5c-9c9f-56e0cc679318 .ci .reactive.active{stroke-width:1.5}#chart-681404be-2f22-4a5c-9c9f-56e0cc679318 .series text{fill:rgba(0,0,0,1)}#chart-681404be-2f22-4a5c-9c9f-56e0cc679318 .tooltip rect{fill:rgba(255,255,255,1);stroke:rgba(0,0,0,1);-webkit-transition:opacity 150ms;-moz-transition:opacity 150ms;transition:opacity 150ms}#chart-681404be-2f22-4a5c-9c9f-56e0cc679318 .tooltip .label{fill:rgba(0,0,0,.87)}#chart-681404be-2f22-4a5c-9c9f-56e0cc679318 .tooltip .label{fill:rgba(0,0,0,.87)}#chart-681404be-2f22-4a5c-9c9f-56e0cc679318 .tooltip .legend{font-size:.8em;fill:rgba(0,0,0,.54)}#chart-681404be-2f22-4a5c-9c9f-56e0cc679318 .tooltip .x_label{font-size:.6em;fill:rgba(0,0,0,1)}#chart-681404be-2f22-4a5c-9c9f-56e0cc679318 .tooltip .xlink{font-size:.5em;text-decoration:underline}#chart-681404be-2f22-4a5c-9c9f-56e0cc679318 .tooltip .value{font-size:1.5em}#chart-681404be-2f22-4a5c-9c9f-56e0cc679318 .bound{font-size:.5em}#chart-681404be-2f22-4a5c-9c9f-56e0cc679318 .max-value{font-size:.75em;fill:rgba(0,0,0,.54)}#chart-681404be-2f22-4a5c-9c9f-56e0cc679318 .map-element{fill:rgba(255,255,255,1);stroke:rgba(0,0,0,.54) !important}#chart-681404be-2f22-4a5c-9c9f-56e0cc679318 .map-element .reactive{fill-opacity:inherit;stroke-opacity:inherit}#chart-681404be-2f22-4a5c-9c9f-56e0cc679318 .color-0,#chart-681404be-2f22-4a5c-9c9f-56e0cc679318 .color-0 a:visited{stroke:#F44336;fill:#F44336}#chart-681404be-2f22-4a5c-9c9f-56e0cc679318 .text-overlay .color-0 text{fill:black}
#chart-681404be-2f22-4a5c-9c9f-56e0cc679318 text.no_data{text-anchor:middle}#chart-681404be-2f22-4a5c-9c9f-56e0cc679318 .guide.line{fill:none}#chart-681404be-2f22-4a5c-9c9f-56e0cc679318 .centered{text-anchor:middle}#chart-681404be-2f22-4a5c-9c9f-56e0cc679318 .title{text-anchor:middle}#chart-681404be-2f22-4a5c-9c9f-56e0cc679318 .legends .legend text{fill-opacity:1}#chart-681404be-2f22-4a5c-9c9f-56e0cc679318 .axis.x text{text-anchor:middle}#chart-681404be-2f22-4a5c-9c9f-56e0cc679318 .axis.x:not(.web) text[transform]{text-anchor:start}#chart-681404be-2f22-4a5c-9c9f-56e0cc679318 .axis.x:not(.web) text[transform].backwards{text-anchor:end}#chart-681404be-2f22-4a5c-9c9f-56e0cc679318 .axis.y text{text-anchor:end}#chart-681404be-2f22-4a5c-9c9f-56e0cc679318 .axis.y text[transform].backwards{text-anchor:start}#chart-681404be-2f22-4a5c-9c9f-56e0cc679318 .axis.y2 text{text-anchor:start}#chart-681404be-2f22-4a5c-9c9f-56e0cc679318 .axis.y2 text[transform].backwards{text-anchor:end}#chart-681404be-2f22-4a5c-9c9f-56e0cc679318 .axis .guide.line{stroke-dasharray:4,4;stroke:black}#chart-681404be-2f22-4a5c-9c9f-56e0cc679318 .axis .major.guide.line{stroke-dasharray:6,6;stroke:black}#chart-681404be-2f22-4a5c-9c9f-56e0cc679318 .horizontal .axis.y .guide.line,#chart-681404be-2f22-4a5c-9c9f-56e0cc679318 .horizontal .axis.y2 .guide.line,#chart-681404be-2f22-4a5c-9c9f-56e0cc679318 .vertical .axis.x .guide.line{opacity:0}#chart-681404be-2f22-4a5c-9c9f-56e0cc679318 .horizontal .axis.always_show .guide.line,#chart-681404be-2f22-4a5c-9c9f-56e0cc679318 .vertical .axis.always_show .guide.line{opacity:1 !important}#chart-681404be-2f22-4a5c-9c9f-56e0cc679318 .axis.y .guides:hover .guide.line,#chart-681404be-2f22-4a5c-9c9f-56e0cc679318 .axis.y2 .guides:hover .guide.line,#chart-681404be-2f22-4a5c-9c9f-56e0cc679318 .axis.x .guides:hover .guide.line{opacity:1}#chart-681404be-2f22-4a5c-9c9f-56e0cc679318 .axis .guides:hover text{opacity:1}#chart-681404be-2f22-4a5c-9c9f-56e0cc679318 .nofill{fill:none}#chart-681404be-2f22-4a5c-9c9f-56e0cc679318 .subtle-fill{fill-opacity:.2}#chart-681404be-2f22-4a5c-9c9f-56e0cc679318 .dot{stroke-width:1px;fill-opacity:1;stroke-opacity:1}#chart-681404be-2f22-4a5c-9c9f-56e0cc679318 .dot.active{stroke-width:5px}#chart-681404be-2f22-4a5c-9c9f-56e0cc679318 .dot.negative{fill:transparent}#chart-681404be-2f22-4a5c-9c9f-56e0cc679318 text,#chart-681404be-2f22-4a5c-9c9f-56e0cc679318 tspan{stroke:none !important}#chart-681404be-2f22-4a5c-9c9f-56e0cc679318 .series text.active{opacity:1}#chart-681404be-2f22-4a5c-9c9f-56e0cc679318 .tooltip rect{fill-opacity:.95;stroke-width:.5}#chart-681404be-2f22-4a5c-9c9f-56e0cc679318 .tooltip text{fill-opacity:1}#chart-681404be-2f22-4a5c-9c9f-56e0cc679318 .showable{visibility:hidden}#chart-681404be-2f22-4a5c-9c9f-56e0cc679318 .showable.shown{visibility:visible}#chart-681404be-2f22-4a5c-9c9f-56e0cc679318 .gauge-background{fill:rgba(229,229,229,1);stroke:none}#chart-681404be-2f22-4a5c-9c9f-56e0cc679318 .bg-lines{stroke:rgba(249,249,249,1);stroke-width:2px}</style><script type="text/javascript">window.pygal = window.pygal || {};window.pygal.config = window.pygal.config || {};window.pygal.config['681404be-2f22-4a5c-9c9f-56e0cc679318'] = {"allow_interruptions": false, "box_mode": "extremes", "classes": ["pygal-chart", "pygal-sparkline"], "css": ["file://style.css", "file://graph.css"], "defs": [], "disable_xml_declaration": false, "dots_size": 2.5, "dynamic_print_values": false, "explicit_size": true, "fill": false, "force_uri_protocol": "https", "formatter": null, "half_pie": false, "height": 50, "include_x_axis": false, "inner_radius": 0, "interpolate": "cubic", "interpolation_parameters": {}, "interpolation_precision": 250, "inverse_y_axis": false, "js": [], "legend_at_bottom": false, "legend_at_bottom_columns": null, "legend_box_size": 12, "logarithmic": false, "margin": 10, "margin_bottom": null, "margin_left": null, "margin_right": null, "margin_top": null, "max_scale": 2, "min_scale": 1, "missing_value_fill_truncation": "x", "no_data_text": "", "no_prefix": false, "order_min": null, "pretty_print": false, "print_labels": false, "print_values": false, "print_values_position": "center", "print_zeroes": true, "range": null, "rounded_bars": null, "secondary_range": null, "show_dots": false, "show_legend": false, "show_minor_x_labels": true, "show_minor_y_labels": true, "show_only_major_dots": false, "show_x_guides": false, "show_x_labels": false, "show_y_guides": true, "show_y_labels": true, "spacing": 0, "stack_from_top": false, "strict": false, "stroke": true, "stroke_style": null, "style": {"background": "rgba(249, 249, 249, 1)", "ci_colors": [], "colors": ["#F44336", "#3F51B5", "#009688", "#FFC107", "#FF5722", "#9C27B0", "#03A9F4", "#8BC34A", "#FF9800", "#E91E63", "#2196F3", "#4CAF50", "#FFEB3B", "#673AB7", "#00BCD4", "#CDDC39", "#9E9E9E", "#607D8B"], "dot_opacity": "1", "font_family": "Consolas, \"Liberation Mono\", Menlo, Courier, monospace", "foreground": "rgba(0, 0, 0, .87)", "foreground_strong": "rgba(0, 0, 0, 1)", "foreground_subtle": "rgba(0, 0, 0, .54)", "guide_stroke_color": "black", "guide_stroke_dasharray": "4,4", "label_font_family": "Consolas, \"Liberation Mono\", Menlo, Courier, monospace", "label_font_size": 10, "legend_font_family": "Consolas, \"Liberation Mono\", Menlo, Courier, monospace", "legend_font_size": 14, "major_guide_stroke_color": "black", "major_guide_stroke_dasharray": "6,6", "major_label_font_family": "Consolas, \"Liberation Mono\", Menlo, Courier, monospace", "major_label_font_size": 10, "no_data_font_family": "Consolas, \"Liberation Mono\", Menlo, Courier, monospace", "no_data_font_size": 64, "opacity": ".7", "opacity_hover": ".8", "plot_background": "rgba(255, 255, 255, 1)", "stroke_opacity": ".8", "stroke_opacity_hover": ".9", "stroke_width": "1", "stroke_width_hover": "4", "title_font_family": "Consolas, \"Liberation Mono\", Menlo, Courier, monospace", "title_font_size": 16, "tooltip_font_family": "Consolas, \"Liberation Mono\", Menlo, Courier, monospace", "tooltip_font_size": 14, "transition": "150ms", "value_background": "rgba(229, 229, 229, 1)", "value_colors": [], "value_font_family": "Consolas, \"Liberation Mono\", Menlo, Courier, monospace", "value_font_size": 16, "value_label_font_family": "Consolas, \"Liberation Mono\", Menlo, Courier, monospace", "value_label_font_size": 10}, "title": null, "tooltip_border_radius": 0, "tooltip_fancy_mode": true, "truncate_label": null, "truncate_legend": null, "width": 200, "x_label_rotation": 0, "x_labels": ["2024/11", "2024/10", "2024/9"], "x_labels_major": null, "x_labels_major_count": null, "x_labels_major_every": null, "x_title": null, "xrange": null, "y_label_rotation": 0, "y_labels": null, "y_labels_major": null, "y_labels_major_count": null, "y_labels_major_every": null, "y_title": null, "zero": 0, "legends": [""]}</script></defs><title>Pygal</title><g class="graph line-graph vertical"><rect x="0" y="0" width="200" height="50" class="background" /><g transform="translate(76, 10)" class="plot"><rect x="0" y="0" width="114.0" height="30" class="background" /><g class="axis y always_show"><path d="M0.000000 30.000000 h114.000000" class="line" /><g class="guides"><path d="M0.000000 29.423077 h114.000000" class="guide line" /><text x="-5" y="32.92307692307692" class="">3</text><title>3</title></g><g class="guides"><path d="M0.000000 0.576923 h114.000000" class="guide line" /><text x="-5" y="4.076923076923077" class="">20.04507888</text><title>20.04507888</title></g></g><g class="series serie-0 color-0"><path d="M2.192308 22.653697 L2.411538 22.514925 2.630769 22.376159 2.850000 22.237402 3.069231 22.098660 3.288462 21.959937 3.507692 21.821239 3.726923 21.682570 3.946154 21.543935 4.165385 21.405339 4.384615 21.266786 4.603846 21.128283 4.823077 20.989833 5.042308 20.851442 5.261538 20.713114 5.480769 20.574854 5.700000 20.436668 5.919231 20.298559 6.138462 20.160533 6.357692 20.022595 6.576923 19.884750 6.796154 19.747002 7.015385 19.609356 7.234615 19.471818 7.453846 19.334392 7.673077 19.197082 7.892308 19.059895 8.111538 18.922834 8.330769 18.785905 8.550000 18.649112 8.769231 18.512461 8.988462 18.375956 9.207692 18.239602 9.426923 18.103404 9.646154 17.967367 9.865385 17.831495 10.084615 17.695794 10.303846 17.560269 10.523077 17.424924 10.742308 17.289764 10.961538 17.154794 11.180769 17.020019 11.400000 16.885444 11.619231 16.751074 11.838462 16.616913 12.057692 16.482967 12.276923 16.349240 12.496154 16.215737 12.715385 16.082464 12.934615 15.949424 13.153846 15.816623 13.373077 15.684066 13.592308 15.551757 13.811538 15.419702 14.030769 15.287905 14.250000 15.156372 14.469231 15.025106 14.688462 14.894113 14.907692 14.763399 15.126923 14.632967 15.346154 14.502822 15.565385 14.372970 15.784615 14.243415 16.003846 14.114162 16.223077 13.985217 16.442308 13.856583 16.661538 13.728266 16.880769 13.600271 17.100000 13.472602 17.319231 13.345265 17.538462 13.218264 17.757692 13.091605 17.976923 12.965291 18.196154 12.839328 18.415385 12.713721 18.634615 12.588475 18.853846 12.463594 19.073077 12.339084 19.292308 12.214949 19.511538 12.091194 19.730769 11.967825 19.950000 11.844845 20.169231 11.722260 20.388462 11.600074 20.607692 11.478293 20.826923 11.356922 21.046154 11.235965 21.265385 11.115427 21.484615 10.995313 21.703846 10.875628 21.923077 10.756376 22.142308 10.637564 22.361538 10.519195 22.580769 10.401274 22.800000 10.283806 23.019231 10.166797 23.238462 10.050251 23.457692 9.934173 23.676923 9.818567 23.896154 9.703439 24.115385 9.588794 24.334615 9.474636 24.553846 9.360970 24.773077 9.247801 24.992308 9.135135 25.211538 9.022975 25.430769 8.911327 25.650000 8.800196 25.869231 8.689586 26.088462 8.579503 26.307692 8.469951 26.526923 8.360935 26.746154 8.252460 26.965385 8.144530 27.184615 8.037152 27.403846 7.930329 27.623077 7.824067 27.842308 7.718370 28.061538 7.613244 28.280769 7.508692 28.500000 7.404721 28.719231 7.301334 28.938462 7.198537 29.157692 7.096335 29.376923 6.994733 29.596154 6.893734 29.815385 6.793345 30.034615 6.693570 30.253846 6.594414 30.473077 6.495882 30.692308 6.397979 30.911538 6.300709 31.130769 6.204078 31.350000 6.108090 31.569231 6.012750 31.788462 5.918064 32.007692 5.824035 32.226923 5.730669 32.446154 5.637971 32.665385 5.545946 32.884615 5.454598 33.103846 5.363932 33.323077 5.273954 33.542308 5.184668 33.761538 5.096079 33.980769 5.008191 34.200000 4.921010 34.419231 4.834541 34.638462 4.748789 34.857692 4.663758 35.076923 4.579452 35.296154 4.495879 35.515385 4.413041 35.734615 4.330943 35.953846 4.249592 36.173077 4.168991 36.392308 4.089146 36.611538 4.010061 36.830769 3.931741 37.050000 3.854191 37.269231 3.777416 37.488462 3.701421 37.707692 3.626211 37.926923 3.551790 38.146154 3.478164 38.365385 3.405337 38.584615 3.333315 38.803846 3.262101 39.023077 3.191701 39.242308 3.122121 39.461538 3.053363 39.680769 2.985435 39.900000 2.918340 40.119231 2.852083 40.338462 2.786669 40.557692 2.722104 40.776923 2.658391 40.996154 2.595536 41.215385 2.533544 41.434615 2.472420 41.653846 2.412168 41.873077 2.352793 42.092308 2.294300 42.311538 2.236695 42.530769 2.179981 42.750000 2.124165 42.969231 2.069249 43.188462 2.015241 43.407692 1.962144 43.626923 1.909963 43.846154 1.858703 44.065385 1.808370 44.284615 1.758967 44.503846 1.710500 44.723077 1.662974 44.942308 1.616393 45.161538 1.570763 45.380769 1.526088 45.600000 1.482373 45.819231 1.439624 46.038462 1.397844 46.257692 1.357039 46.476923 1.317214 46.696154 1.278373 46.915385 1.240521 47.134615 1.203664 47.353846 1.167806 47.573077 1.132952 47.792308 1.099107 48.011538 1.066276 48.230769 1.034464 48.450000 1.003675 48.669231 0.973914 48.888462 0.945187 49.107692 0.917497 49.326923 0.890851 49.546154 0.865253 49.765385 0.840707 49.984615 0.817220 50.203846 0.794794 50.423077 0.773436 50.642308 0.753151 50.861538 0.733942 51.080769 0.715816 51.300000 0.698776 51.519231 0.682828 51.738462 0.667977 51.957692 0.654227 52.176923 0.641584 52.396154 0.630052 52.615385 0.619636 52.834615 0.610341 53.053846 0.602172 53.273077 0.595134 53.492308 0.589231 53.711538 0.584469 53.930769 0.580852 54.150000 0.578386 54.369231 0.577074 54.588462 0.576923 54.807692 0.577937 55.026923 0.580120 55.246154 0.583478 55.465385 0.588015 55.684615 0.593737 55.903846 0.600648 56.123077 0.608753 56.342308 0.618057 56.561538 0.628565 56.780769 0.640282 57.000000 0.653212 57.219231 0.667359 57.438462 0.682720 57.657692 0.699290 57.876923 0.717063 58.096154 0.736035 58.315385 0.756202 58.534615 0.777558 58.753846 0.800098 58.973077 0.823818 59.192308 0.848712 59.411538 0.874776 59.630769 0.902005 59.850000 0.930394 60.069231 0.959938 60.288462 0.990632 60.507692 1.022471 60.726923 1.055452 60.946154 1.089567 61.165385 1.124814 61.384615 1.161186 61.603846 1.198680 61.823077 1.237289 62.042308 1.277010 62.261538 1.317837 62.480769 1.359766 62.700000 1.402791 62.919231 1.446909 63.138462 1.492113 63.357692 1.538399 63.576923 1.585762 63.796154 1.634197 64.015385 1.683700 64.234615 1.734266 64.453846 1.785889 64.673077 1.838564 64.892308 1.892288 65.111538 1.947055 65.330769 2.002860 65.550000 2.059698 65.769231 2.117564 65.988462 2.176454 66.207692 2.236363 66.426923 2.297286 66.646154 2.359217 66.865385 2.422153 67.084615 2.486087 67.303846 2.551016 67.523077 2.616934 67.742308 2.683837 67.961538 2.751720 68.180769 2.820577 68.400000 2.890404 68.619231 2.961197 68.838462 3.032949 69.057692 3.105657 69.276923 3.179315 69.496154 3.253919 69.715385 3.329463 69.934615 3.405943 70.153846 3.483354 70.373077 3.561692 70.592308 3.640950 70.811538 3.721125 71.030769 3.802211 71.250000 3.884203 71.469231 3.967098 71.688462 4.050889 71.907692 4.135572 72.126923 4.221142 72.346154 4.307594 72.565385 4.394924 72.784615 4.483126 73.003846 4.572195 73.223077 4.662128 73.442308 4.752918 73.661538 4.844561 73.880769 4.937052 74.100000 5.030386 74.319231 5.124559 74.538462 5.219565 74.757692 5.315400 74.976923 5.412058 75.196154 5.509535 75.415385 5.607826 75.634615 5.706927 75.853846 5.806831 76.073077 5.907535 76.292308 6.009033 76.511538 6.111321 76.730769 6.214393 76.950000 6.318245 77.169231 6.422873 77.388462 6.528270 77.607692 6.634433 77.826923 6.741356 78.046154 6.849034 78.265385 6.957463 78.484615 7.066637 78.703846 7.176553 78.923077 7.287204 79.142308 7.398587 79.361538 7.510696 79.580769 7.623526 79.800000 7.737073 80.019231 7.851331 80.238462 7.966296 80.457692 8.081962 80.676923 8.198326 80.896154 8.315382 81.115385 8.433125 81.334615 8.551551 81.553846 8.670653 81.773077 8.790429 81.992308 8.910872 82.211538 9.031978 82.430769 9.153742 82.650000 9.276160 82.869231 9.399225 83.088462 9.522934 83.307692 9.647281 83.526923 9.772262 83.746154 9.897872 83.965385 10.024105 84.184615 10.150958 84.403846 10.278424 84.623077 10.406500 84.842308 10.535180 85.061538 10.664460 85.280769 10.794334 85.500000 10.924798 85.719231 11.055847 85.938462 11.187476 86.157692 11.319681 86.376923 11.452455 86.596154 11.585795 86.815385 11.719695 87.034615 11.854151 87.253846 11.989157 87.473077 12.124710 87.692308 12.260803 87.911538 12.397433 88.130769 12.534594 88.350000 12.672281 88.569231 12.810490 88.788462 12.949215 89.007692 13.088453 89.226923 13.228197 89.446154 13.368443 89.665385 13.509186 89.884615 13.650422 90.103846 13.792145 90.323077 13.934350 90.542308 14.077033 90.761538 14.220189 90.980769 14.363813 91.200000 14.507900 91.419231 14.652444 91.638462 14.797443 91.857692 14.942889 92.076923 15.088779 92.296154 15.235108 92.515385 15.381871 92.734615 15.529062 92.953846 15.676678 93.173077 15.824713 93.392308 15.973162 93.611538 16.122020 93.830769 16.271283 94.050000 16.420946 94.269231 16.571003 94.488462 16.721450 94.707692 16.872283 94.926923 17.023495 95.146154 17.175083 95.365385 17.327041 95.584615 17.479365 95.803846 17.632049 96.023077 17.785090 96.242308 17.938481 96.461538 18.092218 96.680769 18.246296 96.900000 18.400711 97.119231 18.555457 97.338462 18.710530 97.557692 18.865924 97.776923 19.021635 97.996154 19.177659 98.215385 19.333989 98.434615 19.490621 98.653846 19.647551 98.873077 19.804773 99.092308 19.962282 99.311538 20.120075 99.530769 20.278145 99.750000 20.436488 99.969231 20.595099 100.188462 20.753974 100.407692 20.913106 100.626923 21.072492 100.846154 21.232127 101.065385 21.392006 101.284615 21.552123 101.503846 21.712474 101.723077 21.873054 101.942308 22.033859 102.161538 22.194882 102.380769 22.356121 102.600000 22.517569 102.819231 22.679221 103.038462 22.841073 103.257692 23.003121 103.476923 23.165358 103.696154 23.327781 103.915385 23.490384 104.134615 23.653162 104.353846 23.816111 104.573077 23.979226 104.792308 24.142501 105.011538 24.305933 105.230769 24.469515 105.450000 24.633244 105.669231 24.797114 105.888462 24.961121 106.107692 25.125259 106.326923 25.289524 106.546154 25.453911 106.765385 25.618415 106.984615 25.783031 107.203846 25.947754 107.423077 26.112579 107.642308 26.277502 107.861538 26.442518 108.080769 26.607621 108.300000 26.772807 108.519231 26.938071 108.738462 27.103409 108.957692 27.268814 109.176923 27.434283 109.396154 27.599810 109.615385 27.765391 109.834615 27.931021 110.053846 28.096694 110.273077 28.262407 110.492308 28.428154 110.711538 28.593929 110.930769 28.759730 111.150000 28.925549 111.369231 29.091384 111.588462 29.257228 111.807692 29.423077" class="line reactive nofill" /></g></g><g class="titles" /><g transform="translate(76, 10)" class="plot overlay"><g class="series serie-0 color-0" /></g><g transform="translate(76, 10)" class="plot text-overlay"><g class="series serie-0 color-0" /></g><g transform="translate(76, 10)" class="plot tooltip-overlay"><g transform="translate(0 0)" style="opacity: 0" class="tooltip"><rect rx="0" ry="0" width="0" height="0" class="tooltip-box" /><g class="text" /></g></g></g></svg>