<?xml version='1.0' encoding='utf-8'?>
<svg xmlns="http://www.w3.org/2000/svg" id="chart-9b6bb98d-2b60-4e60-94c5-7d53f747fdc3" class="pygal-chart pygal-sparkline" viewBox="0 0 200 50" width="200" height="50"><!--Generated with pygal 3.0.5 (etree) ©Kozea 2012-2016 on 2024-11-07--><!--http://pygal.org--><!--http://github.com/Kozea/pygal--><defs><style type="text/css">#chart-9b6bb98d-2b60-4e60-94c5-7d53f747fdc3{-webkit-user-select:none;-webkit-font-smoothing:antialiased;font-family:Consolas,"Liberation Mono",Menlo,Courier,monospace}#chart-9b6bb98d-2b60-4e60-94c5-7d53f747fdc3 .title{font-family:Consolas,"Liberation Mono",Menlo,Courier,monospace;font-size:16px}#chart-9b6bb98d-2b60-4e60-94c5-7d53f747fdc3 .legends .legend text{font-family:Consolas,"Liberation Mono",Menlo,Courier,monospace;font-size:14px}#chart-9b6bb98d-2b60-4e60-94c5-7d53f747fdc3 .axis text{font-family:Consolas,"Liberation Mono",Menlo,Courier,monospace;font-size:10px}#chart-9b6bb98d-2b60-4e60-94c5-7d53f747fdc3 .axis text.major{font-family:Consolas,"Liberation Mono",Menlo,Courier,monospace;font-size:10px}#chart-9b6bb98d-2b60-4e60-94c5-7d53f747fdc3 .text-overlay text.value{font-family:Consolas,"Liberation Mono",Menlo,Courier,monospace;font-size:16px}#chart-9b6bb98d-2b60-4e60-94c5-7d53f747fdc3 .text-overlay text.label{font-family:Consolas,"Liberation Mono",Menlo,Courier,monospace;font-size:10px}#chart-9b6bb98d-2b60-4e60-94c5-7d53f747fdc3 .tooltip{font-family:Consolas,"Liberation Mono",Menlo,Courier,monospace;font-size:14px}#chart-9b6bb98d-2b60-4e60-94c5-7d53f747fdc3 text.no_data{font-family:Consolas,"Liberation Mono",Menlo,Courier,monospace;font-size:64px}
#chart-9b6bb98d-2b60-4e60-94c5-7d53f747fdc3{background-color:rgba(249,249,249,1)}#chart-9b6bb98d-2b60-4e60-94c5-7d53f747fdc3 path,#chart-9b6bb98d-2b60-4e60-94c5-7d53f747fdc3 line,#chart-9b6bb98d-2b60-4e60-94c5-7d53f747fdc3 rect,#chart-9b6bb98d-2b60-4e60-94c5-7d53f747fdc3 circle{-webkit-transition:150ms;-moz-transition:150ms;transition:150ms}#chart-9b6bb98d-2b60-4e60-94c5-7d53f747fdc3 .graph &gt; .background{fill:rgba(249,249,249,1)}#chart-9b6bb98d-2b60-4e60-94c5-7d53f747fdc3 .plot &gt; .background{fill:rgba(255,255,255,1)}#chart-9b6bb98d-2b60-4e60-94c5-7d53f747fdc3 .graph{fill:rgba(0,0,0,.87)}#chart-9b6bb98d-2b60-4e60-94c5-7d53f747fdc3 text.no_data{fill:rgba(0,0,0,1)}#chart-9b6bb98d-2b60-4e60-94c5-7d53f747fdc3 .title{fill:rgba(0,0,0,1)}#chart-9b6bb98d-2b60-4e60-94c5-7d53f747fdc3 .legends .legend text{fill:rgba(0,0,0,.87)}#chart-9b6bb98d-2b60-4e60-94c5-7d53f747fdc3 .legends .legend:hover text{fill:rgba(0,0,0,1)}#chart-9b6bb98d-2b60-4e60-94c5-7d53f747fdc3 .axis .line{stroke:rgba(0,0,0,1)}#chart-9b6bb98d-2b60-4e60-94c5-7d53f747fdc3 .axis .guide.line{stroke:rgba(0,0,0,.54)}#chart-9b6bb98d-2b60-4e60-94c5-7d53f747fdc3 .axis .major.line{stroke:rgba(0,0,0,.87)}#chart-9b6bb98d-2b60-4e60-94c5-7d53f747fdc3 .axis text.major{fill:rgba(0,0,0,1)}#chart-9b6bb98d-2b60-4e60-94c5-7d53f747fdc3 .axis.y .guides:hover .guide.line,#chart-9b6bb98d-2b60-4e60-94c5-7d53f747fdc3 .line-graph .axis.x .guides:hover .guide.line,#chart-9b6bb98d-2b60-4e60-94c5-7d53f747fdc3 .stackedline-graph .axis.x .guides:hover .guide.line,#chart-9b6bb98d-2b60-4e60-94c5-7d53f747fdc3 .xy-graph .axis.x .guides:hover .guide.line{stroke:rgba(0,0,0,1)}#chart-9b6bb98d-2b60-4e60-94c5-7d53f747fdc3 .axis .guides:hover text{fill:rgba(0,0,0,1)}#chart-9b6bb98d-2b60-4e60-94c5-7d53f747fdc3 .reactive{fill-opacity:.7;stroke-opacity:.8;stroke-width:1}#chart-9b6bb98d-2b60-4e60-94c5-7d53f747fdc3 .ci{stroke:rgba(0,0,0,.87)}#chart-9b6bb98d-2b60-4e60-94c5-7d53f747fdc3 .reactive.active,#chart-9b6bb98d-2b60-4e60-94c5-7d53f747fdc3 .active .reactive{fill-opacity:.8;stroke-opacity:.9;stroke-width:4}#chart-9b6bb98d-2b60-4e60-94c5-7d53f747fdc3 .ci .reactive.active{stroke-width:1.5}#chart-9b6bb98d-2b60-4e60-94c5-7d53f747fdc3 .series text{fill:rgba(0,0,0,1)}#chart-9b6bb98d-2b60-4e60-94c5-7d53f747fdc3 .tooltip rect{fill:rgba(255,255,255,1);stroke:rgba(0,0,0,1);-webkit-transition:opacity 150ms;-moz-transition:opacity 150ms;transition:opacity 150ms}#chart-9b6bb98d-2b60-4e60-94c5-7d53f747fdc3 .tooltip .label{fill:rgba(0,0,0,.87)}#chart-9b6bb98d-2b60-4e60-94c5-7d53f747fdc3 .tooltip .label{fill:rgba(0,0,0,.87)}#chart-9b6bb98d-2b60-4e60-94c5-7d53f747fdc3 .tooltip .legend{font-size:.8em;fill:rgba(0,0,0,.54)}#chart-9b6bb98d-2b60-4e60-94c5-7d53f747fdc3 .tooltip .x_label{font-size:.6em;fill:rgba(0,0,0,1)}#chart-9b6bb98d-2b60-4e60-94c5-7d53f747fdc3 .tooltip .xlink{font-size:.5em;text-decoration:underline}#chart-9b6bb98d-2b60-4e60-94c5-7d53f747fdc3 .tooltip .value{font-size:1.5em}#chart-9b6bb98d-2b60-4e60-94c5-7d53f747fdc3 .bound{font-size:.5em}#chart-9b6bb98d-2b60-4e60-94c5-7d53f747fdc3 .max-value{font-size:.75em;fill:rgba(0,0,0,.54)}#chart-9b6bb98d-2b60-4e60-94c5-7d53f747fdc3 .map-element{fill:rgba(255,255,255,1);stroke:rgba(0,0,0,.54) !important}#chart-9b6bb98d-2b60-4e60-94c5-7d53f747fdc3 .map-element .reactive{fill-opacity:inherit;stroke-opacity:inherit}#chart-9b6bb98d-2b60-4e60-94c5-7d53f747fdc3 .color-0,#chart-9b6bb98d-2b60-4e60-94c5-7d53f747fdc3 .color-0 a:visited{stroke:#F44336;fill:#F44336}#chart-9b6bb98d-2b60-4e60-94c5-7d53f747fdc3 .text-overlay .color-0 text{fill:black}
#chart-9b6bb98d-2b60-4e60-94c5-7d53f747fdc3 text.no_data{text-anchor:middle}#chart-9b6bb98d-2b60-4e60-94c5-7d53f747fdc3 .guide.line{fill:none}#chart-9b6bb98d-2b60-4e60-94c5-7d53f747fdc3 .centered{text-anchor:middle}#chart-9b6bb98d-2b60-4e60-94c5-7d53f747fdc3 .title{text-anchor:middle}#chart-9b6bb98d-2b60-4e60-94c5-7d53f747fdc3 .legends .legend text{fill-opacity:1}#chart-9b6bb98d-2b60-4e60-94c5-7d53f747fdc3 .axis.x text{text-anchor:middle}#chart-9b6bb98d-2b60-4e60-94c5-7d53f747fdc3 .axis.x:not(.web) text[transform]{text-anchor:start}#chart-9b6bb98d-2b60-4e60-94c5-7d53f747fdc3 .axis.x:not(.web) text[transform].backwards{text-anchor:end}#chart-9b6bb98d-2b60-4e60-94c5-7d53f747fdc3 .axis.y text{text-anchor:end}#chart-9b6bb98d-2b60-4e60-94c5-7d53f747fdc3 .axis.y text[transform].backwards{text-anchor:start}#chart-9b6bb98d-2b60-4e60-94c5-7d53f747fdc3 .axis.y2 text{text-anchor:start}#chart-9b6bb98d-2b60-4e60-94c5-7d53f747fdc3 .axis.y2 text[transform].backwards{text-anchor:end}#chart-9b6bb98d-2b60-4e60-94c5-7d53f747fdc3 .axis .guide.line{stroke-dasharray:4,4;stroke:black}#chart-9b6bb98d-2b60-4e60-94c5-7d53f747fdc3 .axis .major.guide.line{stroke-dasharray:6,6;stroke:black}#chart-9b6bb98d-2b60-4e60-94c5-7d53f747fdc3 .horizontal .axis.y .guide.line,#chart-9b6bb98d-2b60-4e60-94c5-7d53f747fdc3 .horizontal .axis.y2 .guide.line,#chart-9b6bb98d-2b60-4e60-94c5-7d53f747fdc3 .vertical .axis.x .guide.line{opacity:0}#chart-9b6bb98d-2b60-4e60-94c5-7d53f747fdc3 .horizontal .axis.always_show .guide.line,#chart-9b6bb98d-2b60-4e60-94c5-7d53f747fdc3 .vertical .axis.always_show .guide.line{opacity:1 !important}#chart-9b6bb98d-2b60-4e60-94c5-7d53f747fdc3 .axis.y .guides:hover .guide.line,#chart-9b6bb98d-2b60-4e60-94c5-7d53f747fdc3 .axis.y2 .guides:hover .guide.line,#chart-9b6bb98d-2b60-4e60-94c5-7d53f747fdc3 .axis.x .guides:hover .guide.line{opacity:1}#chart-9b6bb98d-2b60-4e60-94c5-7d53f747fdc3 .axis .guides:hover text{opacity:1}#chart-9b6bb98d-2b60-4e60-94c5-7d53f747fdc3 .nofill{fill:none}#chart-9b6bb98d-2b60-4e60-94c5-7d53f747fdc3 .subtle-fill{fill-opacity:.2}#chart-9b6bb98d-2b60-4e60-94c5-7d53f747fdc3 .dot{stroke-width:1px;fill-opacity:1;stroke-opacity:1}#chart-9b6bb98d-2b60-4e60-94c5-7d53f747fdc3 .dot.active{stroke-width:5px}#chart-9b6bb98d-2b60-4e60-94c5-7d53f747fdc3 .dot.negative{fill:transparent}#chart-9b6bb98d-2b60-4e60-94c5-7d53f747fdc3 text,#chart-9b6bb98d-2b60-4e60-94c5-7d53f747fdc3 tspan{stroke:none !important}#chart-9b6bb98d-2b60-4e60-94c5-7d53f747fdc3 .series text.active{opacity:1}#chart-9b6bb98d-2b60-4e60-94c5-7d53f747fdc3 .tooltip rect{fill-opacity:.95;stroke-width:.5}#chart-9b6bb98d-2b60-4e60-94c5-7d53f747fdc3 .tooltip text{fill-opacity:1}#chart-9b6bb98d-2b60-4e60-94c5-7d53f747fdc3 .showable{visibility:hidden}#chart-9b6bb98d-2b60-4e60-94c5-7d53f747fdc3 .showable.shown{visibility:visible}#chart-9b6bb98d-2b60-4e60-94c5-7d53f747fdc3 .gauge-background{fill:rgba(229,229,229,1);stroke:none}#chart-9b6bb98d-2b60-4e60-94c5-7d53f747fdc3 .bg-lines{stroke:rgba(249,249,249,1);stroke-width:2px}</style><script type="text/javascript">window.pygal = window.pygal || {};window.pygal.config = window.pygal.config || {};window.pygal.config['9b6bb98d-2b60-4e60-94c5-7d53f747fdc3'] = {"allow_interruptions": false, "box_mode": "extremes", "classes": ["pygal-chart", "pygal-sparkline"], "css": ["file://style.css", "file://graph.css"], "defs": [], "disable_xml_declaration": false, "dots_size": 2.5, "dynamic_print_values": false, "explicit_size": true, "fill": false, "force_uri_protocol": "https", "formatter": null, "half_pie": false, "height": 50, "include_x_axis": false, "inner_radius": 0, "interpolate": "cubic", "interpolation_parameters": {}, "interpolation_precision": 250, "inverse_y_axis": false, "js": [], "legend_at_bottom": false, "legend_at_bottom_columns": null, "legend_box_size": 12, "logarithmic": false, "margin": 10, "margin_bottom": null, "margin_left": null, "margin_right": null, "margin_top": null, "max_scale": 2, "min_scale": 1, "missing_value_fill_truncation": "x", "no_data_text": "", "no_prefix": false, "order_min": null, "pretty_print": false, "print_labels": false, "print_values": false, "print_values_position": "center", "print_zeroes": true, "range": null, "rounded_bars": null, "secondary_range": null, "show_dots": false, "show_legend": false, "show_minor_x_labels": true, "show_minor_y_labels": true, "show_only_major_dots": false, "show_x_guides": false, "show_x_labels": false, "show_y_guides": true, "show_y_labels": true, "spacing": 0, "stack_from_top": false, "strict": false, "stroke": true, "stroke_style": null, "style": {"background": "rgba(249, 249, 249, 1)", "ci_colors": [], "colors": ["#F44336", "#3F51B5", "#009688", "#FFC107", "#FF5722", "#9C27B0", "#03A9F4", "#8BC34A", "#FF9800", "#E91E63", "#2196F3", "#4CAF50", "#FFEB3B", "#673AB7", "#00BCD4", "#CDDC39", "#9E9E9E", "#607D8B"], "dot_opacity": "1", "font_family": "Consolas, \"Liberation Mono\", Menlo, Courier, monospace", "foreground": "rgba(0, 0, 0, .87)", "foreground_strong": "rgba(0, 0, 0, 1)", "foreground_subtle": "rgba(0, 0, 0, .54)", "guide_stroke_color": "black", "guide_stroke_dasharray": "4,4", "label_font_family": "Consolas, \"Liberation Mono\", Menlo, Courier, monospace", "label_font_size": 10, "legend_font_family": "Consolas, \"Liberation Mono\", Menlo, Courier, monospace", "legend_font_size": 14, "major_guide_stroke_color": "black", "major_guide_stroke_dasharray": "6,6", "major_label_font_family": "Consolas, \"Liberation Mono\", Menlo, Courier, monospace", "major_label_font_size": 10, "no_data_font_family": "Consolas, \"Liberation Mono\", Menlo, Courier, monospace", "no_data_font_size": 64, "opacity": ".7", "opacity_hover": ".8", "plot_background": "rgba(255, 255, 255, 1)", "stroke_opacity": ".8", "stroke_opacity_hover": ".9", "stroke_width": "1", "stroke_width_hover": "4", "title_font_family": "Consolas, \"Liberation Mono\", Menlo, Courier, monospace", "title_font_size": 16, "tooltip_font_family": "Consolas, \"Liberation Mono\", Menlo, Courier, monospace", "tooltip_font_size": 14, "transition": "150ms", "value_background": "rgba(229, 229, 229, 1)", "value_colors": [], "value_font_family": "Consolas, \"Liberation Mono\", Menlo, Courier, monospace", "value_font_size": 16, "value_label_font_family": "Consolas, \"Liberation Mono\", Menlo, Courier, monospace", "value_label_font_size": 10}, "title": null, "tooltip_border_radius": 0, "tooltip_fancy_mode": true, "truncate_label": null, "truncate_legend": null, "width": 200, "x_label_rotation": 0, "x_labels": ["2024/11", "2024/10", "2024/9", "2024/8", "2024/7", "2024/6", "2024/5", "2024/4", "2024/3", "2023/11", "2023/10", "2023/9", "2023/8"], "x_labels_major": null, "x_labels_major_count": null, "x_labels_major_every": null, "x_title": null, "xrange": null, "y_label_rotation": 0, "y_labels": null, "y_labels_major": null, "y_labels_major_count": null, "y_labels_major_every": null, "y_title": null, "zero": 0, "legends": [""]}</script></defs><title>Pygal</title><g class="graph line-graph vertical"><rect x="0" y="0" width="200" height="50" class="background" /><g transform="translate(82, 10)" class="plot"><rect x="0" y="0" width="108.0" height="30" class="background" /><g class="axis y always_show"><path d="M0.000000 30.000000 h108.000000" class="line" /><g class="guides"><path d="M0.000000 29.423077 h108.000000" class="guide line" /><text x="-5" y="32.92307692307692" class="">0.6440995171</text><title>0.6440995171</title></g><g class="guides"><path d="M0.000000 0.576923 h108.000000" class="guide line" /><text x="-5" y="4.076923076923073" class="">6.070493134</text><title>6.070493134</title></g></g><g class="series serie-0 color-0"><path d="M2.076923 22.215249 L2.111538 22.237030 2.146154 22.258810 2.180769 22.280591 2.215385 22.302372 2.250000 22.324152 2.284615 22.345933 2.319231 22.367713 2.353846 22.389492 2.388462 22.411271 2.423077 22.433050 2.457692 22.454828 2.492308 22.476606 2.526923 22.498383 2.561538 22.520159 2.596154 22.541935 2.630769 22.563710 2.665385 22.585484 2.700000 22.607258 2.734615 22.629030 2.769231 22.650802 2.803846 22.672572 2.838462 22.694342 2.873077 22.716110 2.907692 22.737878 2.942308 22.759644 2.976923 22.781408 3.011538 22.803172 3.046154 22.824934 3.080769 22.846695 3.115385 22.868454 3.150000 22.890212 3.184615 22.911968 3.219231 22.933723 3.253846 22.955476 3.288462 22.977228 3.323077 22.998977 3.357692 23.020725 3.392308 23.042471 3.426923 23.064216 3.461538 23.085958 3.496154 23.107698 3.530769 23.129436 3.565385 23.151172 3.600000 23.172906 3.634615 23.194638 3.669231 23.216368 3.703846 23.238095 3.738462 23.259820 3.773077 23.281542 3.807692 23.303263 3.842308 23.324980 3.876923 23.346695 3.911538 23.368408 3.946154 23.390118 3.980769 23.411825 4.015385 23.433529 4.050000 23.455231 4.084615 23.476930 4.119231 23.498626 4.153846 23.520319 4.188462 23.542009 4.223077 23.563696 4.257692 23.585380 4.292308 23.607061 4.326923 23.628739 4.361538 23.650413 4.396154 23.672084 4.430769 23.693752 4.465385 23.715416 4.500000 23.737077 4.534615 23.758735 4.569231 23.780389 4.603846 23.802039 4.638462 23.823686 4.673077 23.845329 4.707692 23.866969 4.742308 23.888604 4.776923 23.910236 4.811538 23.931864 4.846154 23.953488 4.880769 23.975108 4.915385 23.996724 4.950000 24.018336 4.984615 24.039944 5.019231 24.061548 5.053846 24.083147 5.088462 24.104742 5.123077 24.126333 5.157692 24.147920 5.192308 24.169502 5.226923 24.191079 5.261538 24.212652 5.296154 24.234221 5.330769 24.255785 5.365385 24.277344 5.400000 24.298898 5.434615 24.320448 5.469231 24.341993 5.503846 24.363533 5.538462 24.385068 5.573077 24.406598 5.607692 24.428123 5.642308 24.449643 5.676923 24.471158 5.711538 24.492668 5.746154 24.514173 5.780769 24.535672 5.815385 24.557166 5.850000 24.578654 5.884615 24.600138 5.919231 24.621615 5.953846 24.643088 5.988462 24.664554 6.023077 24.686015 6.057692 24.707471 6.092308 24.728920 6.126923 24.750364 6.161538 24.771802 6.196154 24.793235 6.230769 24.814661 6.265385 24.836081 6.300000 24.857496 6.334615 24.878904 6.369231 24.900306 6.403846 24.921702 6.438462 24.943092 6.473077 24.964476 6.507692 24.985853 6.542308 25.007224 6.576923 25.028588 6.611538 25.049946 6.646154 25.071298 6.680769 25.092643 6.715385 25.113981 6.750000 25.135313 6.784615 25.156638 6.819231 25.177956 6.853846 25.199268 6.888462 25.220572 6.923077 25.241870 6.957692 25.263161 6.992308 25.284444 7.026923 25.305721 7.061538 25.326991 7.096154 25.348253 7.130769 25.369508 7.165385 25.390756 7.200000 25.411997 7.234615 25.433230 7.269231 25.454456 7.303846 25.475675 7.338462 25.496886 7.373077 25.518089 7.407692 25.539285 7.442308 25.560473 7.476923 25.581653 7.511538 25.602826 7.546154 25.623991 7.580769 25.645148 7.615385 25.666297 7.650000 25.687439 7.684615 25.708572 7.719231 25.729697 7.753846 25.750814 7.788462 25.771923 7.823077 25.793024 7.857692 25.814116 7.892308 25.835200 7.926923 25.856276 7.961538 25.877344 7.996154 25.898403 8.030769 25.919453 8.065385 25.940495 8.100000 25.961529 8.134615 25.982554 8.169231 26.003570 8.203846 26.024577 8.238462 26.045575 8.273077 26.066565 8.307692 26.087546 8.342308 26.108518 8.376923 26.129481 8.411538 26.150435 8.446154 26.171379 8.480769 26.192315 8.515385 26.213241 8.550000 26.234158 8.584615 26.255066 8.619231 26.275965 8.653846 26.296854 8.688462 26.317734 8.723077 26.338604 8.757692 26.359465 8.792308 26.380316 8.826923 26.401157 8.861538 26.421989 8.896154 26.442811 8.930769 26.463623 8.965385 26.484426 9.000000 26.505218 9.034615 26.526001 9.069231 26.546774 9.103846 26.567536 9.138462 26.588289 9.173077 26.609031 9.207692 26.629763 9.242308 26.650485 9.276923 26.671197 9.311538 26.691898 9.346154 26.712589 9.380769 26.733270 9.415385 26.753940 9.450000 26.774600 9.484615 26.795249 9.519231 26.815887 9.553846 26.836515 9.588462 26.857131 9.623077 26.877738 9.657692 26.898333 9.692308 26.918917 9.726923 26.939491 9.761538 26.960053 9.796154 26.980605 9.830769 27.001145 9.865385 27.021675 9.900000 27.042193 9.934615 27.062700 9.969231 27.083195 10.003846 27.103680 10.038462 27.124153 10.073077 27.144614 10.107692 27.165064 10.142308 27.185503 10.176923 27.205930 10.211538 27.226345 10.246154 27.246749 10.280769 27.267141 10.315385 27.287521 10.350000 27.307889 10.384615 27.328246 10.419231 27.348590 10.453846 27.368923 10.488462 27.389243 10.523077 27.409552 10.557692 27.429848 10.592308 27.450132 10.626923 27.470404 10.661538 27.490664 10.696154 27.510911 10.730769 27.531146 10.765385 27.551369 10.800000 27.571577 10.834615 27.591769 10.869231 27.611943 10.903846 27.632098 10.938462 27.652231 10.973077 27.672341 11.007692 27.692427 11.042308 27.712485 11.076923 27.732515 11.111538 27.752514 11.146154 27.772482 11.180769 27.792415 11.215385 27.812313 11.250000 27.832173 11.284615 27.851994 11.319231 27.871774 11.353846 27.891511 11.388462 27.911203 11.423077 27.930849 11.457692 27.950446 11.492308 27.969994 11.526923 27.989489 11.561538 28.008931 11.596154 28.028317 11.630769 28.047647 11.665385 28.066917 11.700000 28.086126 11.734615 28.105273 11.769231 28.124355 11.803846 28.143371 11.838462 28.162319 11.873077 28.181197 11.907692 28.200004 11.942308 28.218737 11.976923 28.237396 12.011538 28.255977 12.046154 28.274479 12.080769 28.292901 12.115385 28.311241 12.150000 28.329496 12.184615 28.347665 12.219231 28.365747 12.253846 28.383739 12.288462 28.401640 12.323077 28.419448 12.357692 28.437161 12.392308 28.454777 12.426923 28.472295 12.461538 28.489713 12.496154 28.507028 12.530769 28.524240 12.565385 28.541346 12.600000 28.558344 12.634615 28.575233 12.669231 28.592011 12.703846 28.608677 12.738462 28.625228 12.773077 28.641662 12.807692 28.657978 12.842308 28.674174 12.876923 28.690249 12.911538 28.706199 12.946154 28.722025 12.980769 28.737723 13.015385 28.753292 13.050000 28.768731 13.084615 28.784037 13.119231 28.799209 13.153846 28.814244 13.188462 28.829142 13.223077 28.843900 13.257692 28.858516 13.292308 28.872989 13.326923 28.887317 13.361538 28.901498 13.396154 28.915531 13.430769 28.929413 13.465385 28.943142 13.500000 28.956718 13.534615 28.970138 13.569231 28.983400 13.603846 28.996502 13.638462 29.009444 13.673077 29.022222 13.707692 29.034836 13.742308 29.047283 13.776923 29.059561 13.811538 29.071670 13.846154 29.083606 13.880769 29.095369 13.915385 29.106956 13.950000 29.118365 13.984615 29.129596 14.019231 29.140645 14.053846 29.151512 14.088462 29.162194 14.123077 29.172690 14.157692 29.182998 14.192308 29.193116 14.226923 29.203042 14.261538 29.212775 14.296154 29.222312 14.330769 29.231652 14.365385 29.240794 14.400000 29.249734 14.434615 29.258472 14.469231 29.267006 14.503846 29.275334 14.538462 29.283454 14.573077 29.291365 14.607692 29.299064 14.642308 29.306549 14.676923 29.313820 14.711538 29.320874 14.746154 29.327709 14.780769 29.334324 14.815385 29.340717 14.850000 29.346886 14.884615 29.352829 14.919231 29.358544 14.953846 29.364030 14.988462 29.369285 15.023077 29.374307 15.057692 29.379094 15.092308 29.383644 15.126923 29.387957 15.161538 29.392029 15.196154 29.395859 15.230769 29.399445 15.265385 29.402786 15.300000 29.405880 15.334615 29.408725 15.369231 29.411319 15.403846 29.413660 15.438462 29.415746 15.473077 29.417577 15.507692 29.419149 15.542308 29.420461 15.576923 29.421512 15.611538 29.422300 15.646154 29.422822 15.680769 29.423077 15.715385 29.423063 15.750000 29.422779 15.784615 29.422222 15.819231 29.421391 15.853846 29.420285 15.888462 29.418900 15.923077 29.417236 15.957692 29.415290 15.992308 29.413062 16.026923 29.410548 16.061538 29.407748 16.096154 29.404659 16.130769 29.401279 16.165385 29.397608 16.200000 29.393643 16.234615 29.389382 16.269231 29.384823 16.303846 29.379966 16.338462 29.374807 16.373077 29.369345 16.407692 29.363579 16.442308 29.357506 16.476923 29.351125 16.511538 29.344433 16.546154 29.337430 16.580769 29.330114 16.615385 29.322482 16.650000 29.314532 16.684615 29.306264 16.719231 29.297675 16.753846 29.288763 16.788462 29.279527 16.823077 29.269965 16.857692 29.260075 16.892308 29.249855 16.926923 29.239303 16.961538 29.228418 16.996154 29.217198 17.030769 29.205641 17.065385 29.193745 17.100000 29.181509 17.134615 29.168930 17.169231 29.156007 17.203846 29.142739 17.238462 29.129122 17.273077 29.115156 17.307692 29.100839 17.342308 29.086169 17.376923 29.071144 17.411538 29.055762 17.446154 29.040022 17.480769 29.023922 17.515385 29.007459 17.550000 28.990633 17.584615 28.973441 17.619231 28.955881 17.653846 28.937953 17.688462 28.919653 17.723077 28.900981 17.757692 28.881934 17.792308 28.862510 17.826923 28.842709 17.861538 28.822527 17.896154 28.801964 17.930769 28.781017 17.965385 28.759685 18.000000 28.737965 18.034615 28.715857 18.069231 28.693358 18.103846 28.670466 18.138462 28.647180 18.173077 28.623498 18.207692 28.599418 18.242308 28.574939 18.276923 28.550058 18.311538 28.524773 18.346154 28.499084 18.380769 28.472987 18.415385 28.446482 18.450000 28.419567 18.484615 28.392239 18.519231 28.364497 18.553846 28.336340 18.588462 28.307765 18.623077 28.278770 18.657692 28.249354 18.692308 28.219515 18.726923 28.189252 18.761538 28.158561 18.796154 28.127443 18.830769 28.095894 18.865385 28.063913 18.900000 28.031499 18.934615 27.998649 18.969231 27.965361 19.003846 27.931635 19.038462 27.897467 19.073077 27.862857 19.107692 27.827802 19.142308 27.792301 19.176923 27.756352 19.211538 27.719953 19.246154 27.683102 19.280769 27.645798 19.315385 27.608038 19.350000 27.569822 19.384615 27.531146 19.419231 27.492011 19.453846 27.452421 19.488462 27.412380 19.523077 27.371894 19.557692 27.330969 19.592308 27.289608 19.626923 27.247818 19.661538 27.205603 19.696154 27.162970 19.730769 27.119922 19.765385 27.076465 19.800000 27.032605 19.834615 26.988346 19.869231 26.943694 19.903846 26.898654 19.938462 26.853231 19.973077 26.807430 20.007692 26.761256 20.042308 26.714715 20.076923 26.667812 20.111538 26.620552 20.146154 26.572940 20.180769 26.524981 20.215385 26.476680 20.250000 26.428044 20.284615 26.379076 20.319231 26.329782 20.353846 26.280168 20.388462 26.230237 20.423077 26.179997 20.457692 26.129451 20.492308 26.078605 20.526923 26.027464 20.561538 25.976033 20.596154 25.924318 20.630769 25.872324 20.665385 25.820055 20.700000 25.767518 20.734615 25.714716 20.769231 25.661656 20.803846 25.608343 20.838462 25.554781 20.873077 25.500976 20.907692 25.446933 20.942308 25.392658 20.976923 25.338155 21.011538 25.283430 21.046154 25.228487 21.080769 25.173332 21.115385 25.117971 21.150000 25.062408 21.184615 25.006648 21.219231 24.950698 21.253846 24.894561 21.288462 24.838243 21.323077 24.781749 21.357692 24.725085 21.392308 24.668256 21.426923 24.611266 21.461538 24.554121 21.496154 24.496826 21.530769 24.439387 21.565385 24.381808 21.600000 24.324095 21.634615 24.266253 21.669231 24.208287 21.703846 24.150202 21.738462 24.092004 21.773077 24.033697 21.807692 23.975287 21.842308 23.916778 21.876923 23.858177 21.911538 23.799489 21.946154 23.740717 21.980769 23.681869 22.015385 23.622948 22.050000 23.563961 22.084615 23.504911 22.119231 23.445805 22.153846 23.386648 22.188462 23.327444 22.223077 23.268199 22.257692 23.208919 22.292308 23.149607 22.326923 23.090271 22.361538 23.030913 22.396154 22.971541 22.430769 22.912159 22.465385 22.852772 22.500000 22.793385 22.534615 22.734004 22.569231 22.674633 22.603846 22.615279 22.638462 22.555945 22.673077 22.496638 22.707692 22.437363 22.742308 22.378123 22.776923 22.318926 22.811538 22.259776 22.846154 22.200678 22.880769 22.141637 22.915385 22.082659 22.950000 22.023749 22.984615 21.964911 23.019231 21.906152 23.053846 21.847476 23.088462 21.788888 23.123077 21.730394 23.157692 21.671999 23.192308 21.613708 23.226923 21.555526 23.261538 21.497458 23.296154 21.439510 23.330769 21.381686 23.365385 21.323992 23.400000 21.266434 23.434615 21.209015 23.469231 21.151743 23.503846 21.094620 23.538462 21.037654 23.573077 20.980848 23.607692 20.924209 23.642308 20.867741 23.676923 20.811449 23.711538 20.755339 23.746154 20.699416 23.780769 20.643685 23.815385 20.588152 23.850000 20.532820 23.884615 20.477697 23.919231 20.422786 23.953846 20.368093 23.988462 20.313623 24.023077 20.259381 24.057692 20.205373 24.092308 20.151604 24.126923 20.098078 24.161538 20.044802 24.196154 19.991779 24.230769 19.939016 24.265385 19.886518 24.300000 19.834289 24.334615 19.782336 24.369231 19.730662 24.403846 19.679274 24.438462 19.628176 24.473077 19.577374 24.507692 19.526873 24.542308 19.476677 24.576923 19.426793 24.611538 19.377226 24.646154 19.327979 24.680769 19.279060 24.715385 19.230472 24.750000 19.182222 24.784615 19.134314 24.819231 19.086753 24.853846 19.039545 24.888462 18.992695 24.923077 18.946208 24.957692 18.900088 24.992308 18.854343 25.026923 18.808976 25.061538 18.763992 25.096154 18.719398 25.130769 18.675197 25.165385 18.631396 25.200000 18.587999 25.234615 18.545012 25.269231 18.502439 25.303846 18.460287 25.338462 18.418560 25.373077 18.377263 25.407692 18.336401 25.442308 18.295981 25.476923 18.256006 25.511538 18.216482 25.546154 18.177415 25.580769 18.138808 25.615385 18.100669 25.650000 18.063001 25.684615 18.025810 25.719231 17.989102 25.753846 17.952881 25.788462 17.917152 25.823077 17.881921 25.857692 17.847192 25.892308 17.812972 25.926923 17.779265 25.961538 17.746077 25.996154 17.713412 26.030769 17.681275 26.065385 17.649673 26.100000 17.618610 26.134615 17.588091 26.169231 17.558121 26.203846 17.528707 26.238462 17.499852 26.273077 17.471562 26.307692 17.443842 26.342308 17.416698 26.376923 17.390134 26.411538 17.364156 26.446154 17.338769 26.480769 17.313978 26.515385 17.289789 26.550000 17.266205 26.584615 17.243234 26.619231 17.220879 26.653846 17.199146 26.688462 17.178041 26.723077 17.157568 26.757692 17.137732 26.792308 17.118539 26.826923 17.099994 26.861538 17.082102 26.896154 17.064869 26.930769 17.048298 26.965385 17.032397 27.000000 17.017169 27.034615 17.002620 27.069231 16.988756 27.103846 16.975580 27.138462 16.963100 27.173077 16.951319 27.207692 16.940243 27.242308 16.929877 27.276923 16.920226 27.311538 16.911295 27.346154 16.903091 27.380769 16.895617 27.415385 16.888879 27.450000 16.882882 27.484615 16.877631 27.519231 16.873132 27.553846 16.869390 27.588462 16.866409 27.623077 16.864196 27.657692 16.862755 27.692308 16.862091 27.726923 16.862210 27.761538 16.863116 27.796154 16.864816 27.830769 16.867314 27.865385 16.870615 27.900000 16.874724 27.934615 16.879647 27.969231 16.885389 28.003846 16.891955 28.038462 16.899351 28.073077 16.907578 28.107692 16.916634 28.142308 16.926510 28.176923 16.937201 28.211538 16.948700 28.246154 16.960999 28.280769 16.974093 28.315385 16.987974 28.350000 17.002637 28.384615 17.018073 28.419231 17.034277 28.453846 17.051242 28.488462 17.068962 28.523077 17.087429 28.557692 17.106637 28.592308 17.126579 28.626923 17.147248 28.661538 17.168638 28.696154 17.190743 28.730769 17.213555 28.765385 17.237068 28.800000 17.261275 28.834615 17.286169 28.869231 17.311744 28.903846 17.337993 28.938462 17.364910 28.973077 17.392487 29.007692 17.420718 29.042308 17.449597 29.076923 17.479116 29.111538 17.509269 29.146154 17.540050 29.180769 17.571451 29.215385 17.603466 29.250000 17.636089 29.284615 17.669312 29.319231 17.703129 29.353846 17.737533 29.388462 17.772518 29.423077 17.808076 29.457692 17.844202 29.492308 17.880889 29.526923 17.918129 29.561538 17.955916 29.596154 17.994244 29.630769 18.033105 29.665385 18.072494 29.700000 18.112403 29.734615 18.152826 29.769231 18.193756 29.803846 18.235186 29.838462 18.277110 29.873077 18.319522 29.907692 18.362413 29.942308 18.405778 29.976923 18.449610 30.011538 18.493903 30.046154 18.538649 30.080769 18.583842 30.115385 18.629475 30.150000 18.675542 30.184615 18.722036 30.219231 18.768950 30.253846 18.816277 30.288462 18.864012 30.323077 18.912146 30.357692 18.960674 30.392308 19.009589 30.426923 19.058885 30.461538 19.108553 30.496154 19.158589 30.530769 19.208984 30.565385 19.259733 30.600000 19.310829 30.634615 19.362264 30.669231 19.414034 30.703846 19.466129 30.738462 19.518545 30.773077 19.571275 30.807692 19.624310 30.842308 19.677646 30.876923 19.731276 30.911538 19.785191 30.946154 19.839387 30.980769 19.893856 31.015385 19.948592 31.050000 20.003588 31.084615 20.058836 31.119231 20.114332 31.153846 20.170067 31.188462 20.226035 31.223077 20.282230 31.257692 20.338645 31.292308 20.395273 31.326923 20.452107 31.361538 20.509141 31.396154 20.566369 31.430769 20.623782 31.465385 20.681376 31.500000 20.739142 31.534615 20.797075 31.569231 20.855168 31.603846 20.913414 31.638462 20.971806 31.673077 21.030337 31.707692 21.089002 31.742308 21.147793 31.776923 21.206704 31.811538 21.265727 31.846154 21.324857 31.880769 21.384087 31.915385 21.443409 31.950000 21.502817 31.984615 21.562306 32.019231 21.621867 32.053846 21.681494 32.088462 21.741180 32.123077 21.800920 32.157692 21.860706 32.192308 21.920531 32.226923 21.980389 32.261538 22.040273 32.296154 22.100176 32.330769 22.160092 32.365385 22.220015 32.400000 22.279936 32.434615 22.339851 32.469231 22.399751 32.503846 22.459631 32.538462 22.519483 32.573077 22.579302 32.607692 22.639080 32.642308 22.698810 32.676923 22.758486 32.711538 22.818102 32.746154 22.877650 32.780769 22.937124 32.815385 22.996518 32.850000 23.055823 32.884615 23.115035 32.919231 23.174146 32.953846 23.233149 32.988462 23.292039 33.023077 23.350807 33.057692 23.409448 33.092308 23.467955 33.126923 23.526321 33.161538 23.584539 33.196154 23.642603 33.230769 23.700506 33.265385 23.758241 33.300000 23.815802 33.334615 23.873182 33.369231 23.930375 33.403846 23.987373 33.438462 24.044170 33.473077 24.100760 33.507692 24.157135 33.542308 24.213289 33.576923 24.269215 33.611538 24.324907 33.646154 24.380358 33.680769 24.435561 33.715385 24.490510 33.750000 24.545197 33.784615 24.599617 33.819231 24.653762 33.853846 24.707626 33.888462 24.761202 33.923077 24.814484 33.957692 24.867464 33.992308 24.920137 34.026923 24.972494 34.061538 25.024531 34.096154 25.076240 34.130769 25.127614 34.165385 25.178647 34.200000 25.229332 34.234615 25.279662 34.269231 25.329631 34.303846 25.379232 34.338462 25.428458 34.373077 25.477303 34.407692 25.525760 34.442308 25.573822 34.476923 25.621482 34.511538 25.668735 34.546154 25.715572 34.580769 25.761989 34.615385 25.807977 34.650000 25.853530 34.684615 25.898642 34.719231 25.943306 34.753846 25.987515 34.788462 26.031262 34.823077 26.074541 34.857692 26.117345 34.892308 26.159668 34.926923 26.201502 34.961538 26.242842 34.996154 26.283680 35.030769 26.324009 35.065385 26.363824 35.100000 26.403117 35.134615 26.441881 35.169231 26.480111 35.203846 26.517799 35.238462 26.554938 35.273077 26.591523 35.307692 26.627545 35.342308 26.663000 35.376923 26.697879 35.411538 26.732176 35.446154 26.765885 35.480769 26.798999 35.515385 26.831511 35.550000 26.863415 35.584615 26.894703 35.619231 26.925370 35.653846 26.955408 35.688462 26.984810 35.723077 27.013571 35.757692 27.041684 35.792308 27.069141 35.826923 27.095936 35.861538 27.122062 35.896154 27.147513 35.930769 27.172283 35.965385 27.196363 36.000000 27.219749 36.034615 27.242432 36.069231 27.264406 36.103846 27.285665 36.138462 27.306203 36.173077 27.326011 36.207692 27.345084 36.242308 27.363415 36.276923 27.380997 36.311538 27.397824 36.346154 27.413888 36.380769 27.429184 36.415385 27.443704 36.450000 27.457442 36.484615 27.470391 36.519231 27.482545 36.553846 27.493896 36.588462 27.504439 36.623077 27.514166 36.657692 27.523071 36.692308 27.531146 36.726923 27.538388 36.761538 27.544800 36.796154 27.550387 36.830769 27.555153 36.865385 27.559105 36.900000 27.562247 36.934615 27.564585 36.969231 27.566124 37.003846 27.566869 37.038462 27.566825 37.073077 27.565997 37.107692 27.564391 37.142308 27.562013 37.176923 27.558866 37.211538 27.554956 37.246154 27.550289 37.280769 27.544870 37.315385 27.538704 37.350000 27.531796 37.384615 27.524151 37.419231 27.515775 37.453846 27.506673 37.488462 27.496849 37.523077 27.486310 37.557692 27.475060 37.592308 27.463105 37.626923 27.450450 37.661538 27.437100 37.696154 27.423060 37.730769 27.408335 37.765385 27.392931 37.800000 27.376853 37.834615 27.360106 37.869231 27.342696 37.903846 27.324627 37.938462 27.305904 37.973077 27.286534 38.007692 27.266521 38.042308 27.245870 38.076923 27.224586 38.111538 27.202676 38.146154 27.180143 38.180769 27.156993 38.215385 27.133232 38.250000 27.108865 38.284615 27.083896 38.319231 27.058332 38.353846 27.032176 38.388462 27.005435 38.423077 26.978114 38.457692 26.950217 38.492308 26.921751 38.526923 26.892720 38.561538 26.863129 38.596154 26.832984 38.630769 26.802290 38.665385 26.771052 38.700000 26.739276 38.734615 26.706966 38.769231 26.674127 38.803846 26.640766 38.838462 26.606887 38.873077 26.572495 38.907692 26.537596 38.942308 26.502194 38.976923 26.466296 39.011538 26.429906 39.046154 26.393029 39.080769 26.355671 39.115385 26.317836 39.150000 26.279531 39.184615 26.240760 39.219231 26.201529 39.253846 26.161842 39.288462 26.121705 39.323077 26.081123 39.357692 26.040101 39.392308 25.998645 39.426923 25.956760 39.461538 25.914451 39.496154 25.871722 39.530769 25.828580 39.565385 25.785030 39.600000 25.741077 39.634615 25.696725 39.669231 25.651981 39.703846 25.606849 39.738462 25.561334 39.773077 25.515443 39.807692 25.469179 39.842308 25.422549 39.876923 25.375557 39.911538 25.328209 39.946154 25.280510 39.980769 25.232464 40.015385 25.184078 40.050000 25.135357 40.084615 25.086305 40.119231 25.036929 40.153846 24.987232 40.188462 24.937220 40.223077 24.886900 40.257692 24.836275 40.292308 24.785350 40.326923 24.734133 40.361538 24.682626 40.396154 24.630836 40.430769 24.578768 40.465385 24.526427 40.500000 24.473818 40.534615 24.420946 40.569231 24.367818 40.603846 24.314437 40.638462 24.260809 40.673077 24.206939 40.707692 24.152833 40.742308 24.098495 40.776923 24.043932 40.811538 23.989147 40.846154 23.934147 40.880769 23.878936 40.915385 23.823520 40.950000 23.767904 40.984615 23.712093 41.019231 23.656093 41.053846 23.599908 41.088462 23.543544 41.123077 23.487006 41.157692 23.430299 41.192308 23.373428 41.226923 23.316399 41.261538 23.259217 41.296154 23.201887 41.330769 23.144415 41.365385 23.086804 41.400000 23.029062 41.434615 22.971192 41.469231 22.913200 41.503846 22.855092 41.538462 22.796872 41.573077 22.738546 41.607692 22.680118 41.642308 22.621595 41.676923 22.562981 41.711538 22.504282 41.746154 22.445503 41.780769 22.386648 41.815385 22.327724 41.850000 22.268735 41.884615 22.209687 41.919231 22.150584 41.953846 22.091433 41.988462 22.032237 42.023077 21.973003 42.057692 21.913736 42.092308 21.854441 42.126923 21.795123 42.161538 21.735787 42.196154 21.676438 42.230769 21.617082 42.265385 21.557724 42.300000 21.498370 42.334615 21.439023 42.369231 21.379690 42.403846 21.320376 42.438462 21.261086 42.473077 21.201825 42.507692 21.142598 42.542308 21.083411 42.576923 21.024268 42.611538 20.965176 42.646154 20.906139 42.680769 20.847162 42.715385 20.788251 42.750000 20.729411 42.784615 20.670647 42.819231 20.611964 42.853846 20.553367 42.888462 20.494862 42.923077 20.436454 42.957692 20.378149 42.992308 20.319950 43.026923 20.261864 43.061538 20.203896 43.096154 20.146050 43.130769 20.088333 43.165385 20.030749 43.200000 19.973304 43.234615 19.916002 43.269231 19.858850 43.303846 19.801852 43.338462 19.745013 43.373077 19.688338 43.407692 19.631834 43.442308 19.575504 43.476923 19.519355 43.511538 19.463391 43.546154 19.407618 43.580769 19.352040 43.615385 19.296664 43.650000 19.241494 43.684615 19.186536 43.719231 19.131794 43.753846 19.077274 43.788462 19.022981 43.823077 18.968921 43.857692 18.915098 43.892308 18.861518 43.926923 18.808186 43.961538 18.755107 43.996154 18.702286 44.030769 18.649729 44.065385 18.597441 44.100000 18.545427 44.134615 18.493692 44.169231 18.442241 44.203846 18.391080 44.238462 18.340214 44.273077 18.289648 44.307692 18.239387 44.342308 18.189437 44.376923 18.139802 44.411538 18.090489 44.446154 18.041501 44.480769 17.992845 44.515385 17.944525 44.550000 17.896547 44.584615 17.848916 44.619231 17.801637 44.653846 17.754715 44.688462 17.708156 44.723077 17.661965 44.757692 17.616147 44.792308 17.570706 44.826923 17.525650 44.861538 17.480982 44.896154 17.436707 44.930769 17.392832 44.965385 17.349361 45.000000 17.306300 45.034615 17.263653 45.069231 17.221426 45.103846 17.179624 45.138462 17.138252 45.173077 17.097316 45.207692 17.056821 45.242308 17.016772 45.276923 16.977173 45.311538 16.938031 45.346154 16.899351 45.380769 16.861136 45.415385 16.823383 45.450000 16.786090 45.484615 16.749251 45.519231 16.712863 45.553846 16.676923 45.588462 16.641425 45.623077 16.606366 45.657692 16.571743 45.692308 16.537551 45.726923 16.503786 45.761538 16.470444 45.796154 16.437522 45.830769 16.405015 45.865385 16.372919 45.900000 16.341231 45.934615 16.309947 45.969231 16.279062 46.003846 16.248573 46.038462 16.218475 46.073077 16.188765 46.107692 16.159439 46.142308 16.130493 46.176923 16.101923 46.211538 16.073724 46.246154 16.045894 46.280769 16.018427 46.315385 15.991321 46.350000 15.964571 46.384615 15.938172 46.419231 15.912123 46.453846 15.886417 46.488462 15.861052 46.523077 15.836023 46.557692 15.811326 46.592308 15.786958 46.626923 15.762915 46.661538 15.739192 46.696154 15.715785 46.730769 15.692691 46.765385 15.669906 46.800000 15.647426 46.834615 15.625247 46.869231 15.603364 46.903846 15.581774 46.938462 15.560473 46.973077 15.539458 47.007692 15.518723 47.042308 15.498265 47.076923 15.478081 47.111538 15.458165 47.146154 15.438515 47.180769 15.419126 47.215385 15.399995 47.250000 15.381117 47.284615 15.362488 47.319231 15.344105 47.353846 15.325963 47.388462 15.308059 47.423077 15.290389 47.457692 15.272948 47.492308 15.255733 47.526923 15.238739 47.561538 15.221964 47.596154 15.205402 47.630769 15.189051 47.665385 15.172905 47.700000 15.156961 47.734615 15.141216 47.769231 15.125664 47.803846 15.110303 47.838462 15.095127 47.873077 15.080135 47.907692 15.065320 47.942308 15.050680 47.976923 15.036210 48.011538 15.021906 48.046154 15.007765 48.080769 14.993783 48.115385 14.979955 48.150000 14.966278 48.184615 14.952748 48.219231 14.939360 48.253846 14.926111 48.288462 14.912997 48.323077 14.900014 48.357692 14.887158 48.392308 14.874425 48.426923 14.861811 48.461538 14.849311 48.496154 14.836923 48.530769 14.824643 48.565385 14.812465 48.600000 14.800387 48.634615 14.788404 48.669231 14.776512 48.703846 14.764708 48.738462 14.752987 48.773077 14.741346 48.807692 14.729781 48.842308 14.718287 48.876923 14.706860 48.911538 14.695498 48.946154 14.684195 48.980769 14.672948 49.015385 14.661753 49.050000 14.650605 49.084615 14.639502 49.119231 14.628439 49.153846 14.617412 49.188462 14.606417 49.223077 14.595450 49.257692 14.584507 49.292308 14.573584 49.326923 14.562678 49.361538 14.551784 49.396154 14.540899 49.430769 14.530018 49.465385 14.519137 49.500000 14.508253 49.534615 14.497362 49.569231 14.486459 49.603846 14.475541 49.638462 14.464604 49.673077 14.453643 49.707692 14.442655 49.742308 14.431636 49.776923 14.420582 49.811538 14.409490 49.846154 14.398354 49.880769 14.387171 49.915385 14.375937 49.950000 14.364649 49.984615 14.353301 50.019231 14.341891 50.053846 14.330414 50.088462 14.318867 50.123077 14.307245 50.157692 14.295545 50.192308 14.283762 50.226923 14.271892 50.261538 14.259932 50.296154 14.247878 50.330769 14.235726 50.365385 14.223471 50.400000 14.211110 50.434615 14.198639 50.469231 14.186054 50.503846 14.173351 50.538462 14.160526 50.573077 14.147575 50.607692 14.134494 50.642308 14.121279 50.676923 14.107926 50.711538 14.094432 50.746154 14.080792 50.780769 14.067002 50.815385 14.053059 50.850000 14.038958 50.884615 14.024695 50.919231 14.010267 50.953846 13.995670 50.988462 13.980899 51.023077 13.965951 51.057692 13.950822 51.092308 13.935507 51.126923 13.920003 51.161538 13.904307 51.196154 13.888413 51.230769 13.872318 51.265385 13.856018 51.300000 13.839509 51.334615 13.822787 51.369231 13.805848 51.403846 13.788689 51.438462 13.771305 51.473077 13.753692 51.507692 13.735847 51.542308 13.717765 51.576923 13.699442 51.611538 13.680875 51.646154 13.662060 51.680769 13.642992 51.715385 13.623667 51.750000 13.604083 51.784615 13.584234 51.819231 13.564117 51.853846 13.543728 51.888462 13.523063 51.923077 13.502117 51.957692 13.480888 51.992308 13.459371 52.026923 13.437562 52.061538 13.415456 52.096154 13.393052 52.130769 13.370343 52.165385 13.347327 52.200000 13.323999 52.234615 13.300355 52.269231 13.276392 52.303846 13.252105 52.338462 13.227491 52.373077 13.202545 52.407692 13.177264 52.442308 13.151644 52.476923 13.125680 52.511538 13.099369 52.546154 13.072707 52.580769 13.045690 52.615385 13.018314 52.650000 12.990575 52.684615 12.962468 52.719231 12.933991 52.753846 12.905139 52.788462 12.875908 52.823077 12.846294 52.857692 12.816294 52.892308 12.785903 52.926923 12.755117 52.961538 12.723933 52.996154 12.692346 53.030769 12.660352 53.065385 12.627948 53.100000 12.595130 53.134615 12.561893 53.169231 12.528234 53.203846 12.494149 53.238462 12.459634 53.273077 12.424684 53.307692 12.389296 53.342308 12.353466 53.376923 12.317191 53.411538 12.280465 53.446154 12.243285 53.480769 12.205648 53.515385 12.167548 53.550000 12.128983 53.584615 12.089948 53.619231 12.050440 53.653846 12.010453 53.688462 11.969986 53.723077 11.929032 53.757692 11.887590 53.792308 11.845653 53.826923 11.803220 53.861538 11.760285 53.896154 11.716845 53.930769 11.672895 53.965385 11.628433 54.000000 11.583453 54.034615 11.537954 54.069231 11.491940 54.103846 11.445418 54.138462 11.398395 54.173077 11.350877 54.207692 11.302870 54.242308 11.254381 54.276923 11.205417 54.311538 11.155983 54.346154 11.106087 54.380769 11.055736 54.415385 11.004934 54.450000 10.953690 54.484615 10.902010 54.519231 10.849899 54.553846 10.797365 54.588462 10.744415 54.623077 10.691053 54.657692 10.637288 54.692308 10.583126 54.726923 10.528573 54.761538 10.473636 54.796154 10.418320 54.830769 10.362634 54.865385 10.306583 54.900000 10.250173 54.934615 10.193412 54.969231 10.136305 55.003846 10.078860 55.038462 10.021083 55.073077 9.962980 55.107692 9.904557 55.142308 9.845823 55.176923 9.786781 55.211538 9.727441 55.246154 9.667807 55.280769 9.607887 55.315385 9.547686 55.350000 9.487212 55.384615 9.426471 55.419231 9.365469 55.453846 9.304213 55.488462 9.242710 55.523077 9.180966 55.557692 9.118987 55.592308 9.056780 55.626923 8.994352 55.661538 8.931709 55.696154 8.868857 55.730769 8.805803 55.765385 8.742554 55.800000 8.679117 55.834615 8.615496 55.869231 8.551700 55.903846 8.487735 55.938462 8.423606 55.973077 8.359322 56.007692 8.294887 56.042308 8.230309 56.076923 8.165595 56.111538 8.100750 56.146154 8.035781 56.180769 7.970695 56.215385 7.905498 56.250000 7.840197 56.284615 7.774799 56.319231 7.709309 56.353846 7.643734 56.388462 7.578082 56.423077 7.512357 56.457692 7.446568 56.492308 7.380720 56.526923 7.314820 56.561538 7.248874 56.596154 7.182889 56.630769 7.116871 56.665385 7.050828 56.700000 6.984764 56.734615 6.918688 56.769231 6.852606 56.803846 6.786523 56.838462 6.720447 56.873077 6.654383 56.907692 6.588340 56.942308 6.522322 56.976923 6.456337 57.011538 6.390391 57.046154 6.324491 57.080769 6.258642 57.115385 6.192853 57.150000 6.127128 57.184615 6.061475 57.219231 5.995900 57.253846 5.930410 57.288462 5.865011 57.323077 5.799710 57.357692 5.734513 57.392308 5.669426 57.426923 5.604457 57.461538 5.539612 57.496154 5.474897 57.530769 5.410318 57.565385 5.345883 57.600000 5.281598 57.634615 5.217469 57.669231 5.153503 57.703846 5.089706 57.738462 5.026085 57.773077 4.962647 57.807692 4.899397 57.842308 4.836343 57.876923 4.773490 57.911538 4.710846 57.946154 4.648417 57.980769 4.586210 58.015385 4.524230 58.050000 4.462485 58.084615 4.400981 58.119231 4.339724 58.153846 4.278721 58.188462 4.217979 58.223077 4.157504 58.257692 4.097303 58.292308 4.037381 58.326923 3.977746 58.361538 3.918405 58.396154 3.859362 58.430769 3.800626 58.465385 3.742203 58.500000 3.684099 58.534615 3.626320 58.569231 3.568874 58.603846 3.511766 58.638462 3.455003 58.673077 3.398592 58.707692 3.342540 58.742308 3.286852 58.776923 3.231535 58.811538 3.176597 58.846154 3.122042 58.880769 3.067878 58.915385 3.014112 58.950000 2.960749 58.984615 2.907797 59.019231 2.855262 59.053846 2.803150 59.088462 2.751468 59.123077 2.700222 59.157692 2.649419 59.192308 2.599065 59.226923 2.549168 59.261538 2.499733 59.296154 2.450767 59.330769 2.402276 59.365385 2.354268 59.400000 2.306747 59.434615 2.259722 59.469231 2.213199 59.503846 2.167183 59.538462 2.121682 59.573077 2.076702 59.607692 2.032250 59.642308 1.988332 59.676923 1.944954 59.711538 1.902123 59.746154 1.859846 59.780769 1.818130 59.815385 1.776980 59.850000 1.736403 59.884615 1.696405 59.919231 1.656994 59.953846 1.618176 59.988462 1.579957 60.023077 1.542344 60.057692 1.505343 60.092308 1.468960 60.126923 1.433203 60.161538 1.398078 60.196154 1.363591 60.230769 1.329749 60.265385 1.296558 60.300000 1.264026 60.334615 1.232157 60.369231 1.200959 60.403846 1.170439 60.438462 1.140603 60.473077 1.111457 60.507692 1.083008 60.542308 1.055262 60.576923 1.028227 60.611538 1.001908 60.646154 0.976311 60.680769 0.951445 60.715385 0.927314 60.750000 0.903926 60.784615 0.881287 60.819231 0.859404 60.853846 0.838282 60.888462 0.817929 60.923077 0.798352 60.957692 0.779555 60.992308 0.761547 61.026923 0.744334 61.061538 0.727922 61.096154 0.712317 61.130769 0.697527 61.165385 0.683557 61.200000 0.670414 61.234615 0.658106 61.269231 0.646637 61.303846 0.636015 61.338462 0.626247 61.373077 0.617338 61.407692 0.609295 61.442308 0.602126 61.476923 0.595835 61.511538 0.590431 61.546154 0.585918 61.580769 0.582305 61.615385 0.579597 61.650000 0.577801 61.684615 0.576923 61.719231 0.576970 61.753846 0.577949 61.788462 0.579865 61.823077 0.582726 61.857692 0.586538 61.892308 0.591307 61.926923 0.597041 61.961538 0.603745 61.996154 0.611426 62.030769 0.620090 62.065385 0.629744 62.100000 0.640395 62.134615 0.652049 62.169231 0.664713 62.203846 0.678393 62.238462 0.693095 62.273077 0.708827 62.307692 0.725594 62.342308 0.743403 62.376923 0.762261 62.411538 0.782174 62.446154 0.803149 62.480769 0.825192 62.515385 0.848309 62.550000 0.872508 62.584615 0.897795 62.619231 0.924176 62.653846 0.951657 62.688462 0.980244 62.723077 1.009930 62.757692 1.040708 62.792308 1.072569 62.826923 1.105507 62.861538 1.139513 62.896154 1.174579 62.930769 1.210698 62.965385 1.247861 63.000000 1.286062 63.034615 1.325291 63.069231 1.365542 63.103846 1.406807 63.138462 1.449077 63.173077 1.492345 63.207692 1.536603 63.242308 1.581844 63.276923 1.628059 63.311538 1.675240 63.346154 1.723381 63.380769 1.772472 63.415385 1.822507 63.450000 1.873477 63.484615 1.925374 63.519231 1.978191 63.553846 2.031921 63.588462 2.086554 63.623077 2.142084 63.657692 2.198502 63.692308 2.255801 63.726923 2.313973 63.761538 2.373010 63.796154 2.432904 63.830769 2.493647 63.865385 2.555232 63.900000 2.617651 63.934615 2.680896 63.969231 2.744960 64.003846 2.809833 64.038462 2.875509 64.073077 2.941980 64.107692 3.009238 64.142308 3.077275 64.176923 3.146083 64.211538 3.215655 64.246154 3.285982 64.280769 3.357057 64.315385 3.428873 64.350000 3.501420 64.384615 3.574692 64.419231 3.648681 64.453846 3.723378 64.488462 3.798776 64.523077 3.874868 64.557692 3.951645 64.592308 4.029099 64.626923 4.107223 64.661538 4.186009 64.696154 4.265449 64.730769 4.345536 64.765385 4.426261 64.800000 4.507616 64.834615 4.589595 64.869231 4.672188 64.903846 4.755389 64.938462 4.839189 64.973077 4.923580 65.007692 5.008556 65.042308 5.094107 65.076923 5.180227 65.111538 5.266907 65.146154 5.354139 65.180769 5.441916 65.215385 5.530230 65.250000 5.619074 65.284615 5.708438 65.319231 5.798316 65.353846 5.888699 65.388462 5.979581 65.423077 6.070952 65.457692 6.162806 65.492308 6.255134 65.526923 6.347928 65.561538 6.441182 65.596154 6.534886 65.630769 6.629033 65.665385 6.723616 65.700000 6.818626 65.734615 6.914056 65.769231 7.009898 65.803846 7.106144 65.838462 7.202786 65.873077 7.299817 65.907692 7.397228 65.942308 7.495012 65.976923 7.593161 66.011538 7.691667 66.046154 7.790523 66.080769 7.889720 66.115385 7.989251 66.150000 8.089108 66.184615 8.189283 66.219231 8.289768 66.253846 8.390556 66.288462 8.491639 66.323077 8.593008 66.357692 8.694656 66.392308 8.796576 66.426923 8.898759 66.461538 9.001198 66.496154 9.103884 66.530769 9.206811 66.565385 9.309969 66.600000 9.413352 66.634615 9.516952 66.669231 9.620760 66.703846 9.724770 66.738462 9.828972 66.773077 9.933360 66.807692 10.037925 66.842308 10.142659 66.876923 10.247556 66.911538 10.352607 66.946154 10.457804 66.980769 10.563139 67.015385 10.668605 67.050000 10.774194 67.084615 10.879897 67.119231 10.985708 67.153846 11.091618 67.188462 11.197620 67.223077 11.303705 67.257692 11.409867 67.292308 11.516096 67.326923 11.622386 67.361538 11.728728 67.396154 11.835115 67.430769 11.941539 67.465385 12.047991 67.500000 12.154465 67.534615 12.260952 67.569231 12.367445 67.603846 12.473936 67.638462 12.580417 67.673077 12.686879 67.707692 12.793317 67.742308 12.899720 67.776923 13.006082 67.811538 13.112396 67.846154 13.218652 67.880769 13.324843 67.915385 13.430962 67.950000 13.537001 67.984615 13.642952 68.019231 13.748806 68.053846 13.854557 68.088462 13.960196 68.123077 14.065715 68.157692 14.171108 68.192308 14.276365 68.226923 14.381479 68.261538 14.486443 68.296154 14.591249 68.330769 14.695887 68.365385 14.800352 68.400000 14.904635 68.434615 15.008728 68.469231 15.112624 68.503846 15.216314 68.538462 15.319791 68.573077 15.423047 68.607692 15.526074 68.642308 15.628865 68.676923 15.731411 68.711538 15.833705 68.746154 15.935738 68.780769 16.037504 68.815385 16.138995 68.850000 16.240201 68.884615 16.341117 68.919231 16.441733 68.953846 16.542042 68.988462 16.642036 69.023077 16.741708 69.057692 16.841050 69.092308 16.940053 69.126923 17.038710 69.161538 17.137014 69.196154 17.234956 69.230769 17.332528 69.265385 17.429723 69.300000 17.526533 69.334615 17.622950 69.369231 17.718966 69.403846 17.814574 69.438462 17.909766 69.473077 18.004533 69.507692 18.098868 69.542308 18.192764 69.576923 18.286212 69.611538 18.379205 69.646154 18.471734 69.680769 18.563792 69.715385 18.655372 69.750000 18.746464 69.784615 18.837063 69.819231 18.927159 69.853846 19.016745 69.888462 19.105813 69.923077 19.194355 69.957692 19.282364 69.992308 19.369831 70.026923 19.456749 70.061538 19.543111 70.096154 19.628907 70.130769 19.714131 70.165385 19.798774 70.200000 19.882829 70.234615 19.966288 70.269231 20.049144 70.303846 20.131387 70.338462 20.213011 70.373077 20.294008 70.407692 20.374370 70.442308 20.454088 70.476923 20.533156 70.511538 20.611566 70.546154 20.689309 70.580769 20.766378 70.615385 20.842764 70.650000 20.918461 70.684615 20.993461 70.719231 21.067755 70.753846 21.141336 70.788462 21.214195 70.823077 21.286326 70.857692 21.357720 70.892308 21.428370 70.926923 21.498267 70.961538 21.567404 70.996154 21.635773 71.030769 21.703366 71.065385 21.770176 71.100000 21.836195 71.134615 21.901414 71.169231 21.965826 71.203846 22.029423 71.238462 22.092198 71.273077 22.154143 71.307692 22.215249 71.342308 22.275510 71.376923 22.334931 71.411538 22.393513 71.446154 22.451263 71.480769 22.508184 71.515385 22.564281 71.550000 22.619557 71.584615 22.674017 71.619231 22.727666 71.653846 22.780508 71.688462 22.832548 71.723077 22.883788 71.757692 22.934235 71.792308 22.983891 71.826923 23.032763 71.861538 23.080853 71.896154 23.128166 71.930769 23.174706 71.965385 23.220479 72.000000 23.265487 72.034615 23.309736 72.069231 23.353230 72.103846 23.395973 72.138462 23.437970 72.173077 23.479224 72.207692 23.519740 72.242308 23.559523 72.276923 23.598576 72.311538 23.636905 72.346154 23.674513 72.380769 23.711404 72.415385 23.747584 72.450000 23.783056 72.484615 23.817825 72.519231 23.851895 72.553846 23.885270 72.588462 23.917955 72.623077 23.949954 72.657692 23.981272 72.692308 24.011912 72.726923 24.041879 72.761538 24.071177 72.796154 24.099811 72.830769 24.127785 72.865385 24.155103 72.900000 24.181770 72.934615 24.207790 72.969231 24.233168 73.003846 24.257907 73.038462 24.282011 73.073077 24.305487 73.107692 24.328336 73.142308 24.350565 73.176923 24.372177 73.211538 24.393177 73.246154 24.413568 73.280769 24.433356 73.315385 24.452544 73.350000 24.471137 73.384615 24.489140 73.419231 24.506556 73.453846 24.523389 73.488462 24.539646 73.523077 24.555328 73.557692 24.570442 73.592308 24.584990 73.626923 24.598978 73.661538 24.612410 73.696154 24.625291 73.730769 24.637623 73.765385 24.649413 73.800000 24.660664 73.834615 24.671380 73.869231 24.681566 73.903846 24.691226 73.938462 24.700364 73.973077 24.708986 74.007692 24.717094 74.042308 24.724694 74.076923 24.731790 74.111538 24.738386 74.146154 24.744486 74.180769 24.750095 74.215385 24.755217 74.250000 24.759856 74.284615 24.764018 74.319231 24.767705 74.353846 24.770923 74.388462 24.773675 74.423077 24.775967 74.457692 24.777801 74.492308 24.779184 74.526923 24.780118 74.561538 24.780609 74.596154 24.780661 74.630769 24.780278 74.665385 24.779464 74.700000 24.778223 74.734615 24.776561 74.769231 24.774481 74.803846 24.771987 74.838462 24.769085 74.873077 24.765778 74.907692 24.762070 74.942308 24.757967 74.976923 24.753471 75.011538 24.748589 75.046154 24.743323 75.080769 24.737678 75.115385 24.731660 75.150000 24.725271 75.184615 24.718516 75.219231 24.711400 75.253846 24.703926 75.288462 24.696100 75.323077 24.687926 75.357692 24.679407 75.392308 24.670549 75.426923 24.661355 75.461538 24.651830 75.496154 24.641979 75.530769 24.631804 75.565385 24.621312 75.600000 24.610506 75.634615 24.599390 75.669231 24.587969 75.703846 24.576248 75.738462 24.564229 75.773077 24.551919 75.807692 24.539321 75.842308 24.526439 75.876923 24.513278 75.911538 24.499842 75.946154 24.486135 75.980769 24.472163 76.015385 24.457928 76.050000 24.443436 76.084615 24.428691 76.119231 24.413696 76.153846 24.398458 76.188462 24.382978 76.223077 24.367263 76.257692 24.351317 76.292308 24.335143 76.326923 24.318746 76.361538 24.302130 76.396154 24.285300 76.430769 24.268261 76.465385 24.251015 76.500000 24.233568 76.534615 24.215925 76.569231 24.198088 76.603846 24.180063 76.638462 24.161855 76.673077 24.143466 76.707692 24.124902 76.742308 24.106168 76.776923 24.087266 76.811538 24.068202 76.846154 24.048980 76.880769 24.029605 76.915385 24.010080 76.950000 23.990410 76.984615 23.970599 77.019231 23.950652 77.053846 23.930572 77.088462 23.910365 77.123077 23.890035 77.157692 23.869585 77.192308 23.849021 77.226923 23.828346 77.261538 23.807565 77.296154 23.786683 77.330769 23.765702 77.365385 23.744629 77.400000 23.723467 77.434615 23.702221 77.469231 23.680894 77.503846 23.659491 77.538462 23.638017 77.573077 23.616476 77.607692 23.594872 77.642308 23.573210 77.676923 23.551493 77.711538 23.529726 77.746154 23.507914 77.780769 23.486061 77.815385 23.464171 77.850000 23.442248 77.884615 23.420297 77.919231 23.398322 77.953846 23.376328 77.988462 23.354318 78.023077 23.332297 78.057692 23.310270 78.092308 23.288241 78.126923 23.266213 78.161538 23.244192 78.196154 23.222182 78.230769 23.200187 78.265385 23.178211 78.300000 23.156259 78.334615 23.134335 78.369231 23.112443 78.403846 23.090588 78.438462 23.068774 78.473077 23.047005 78.507692 23.025286 78.542308 23.003621 78.576923 22.982015 78.611538 22.960470 78.646154 22.938993 78.680769 22.917588 78.715385 22.896257 78.750000 22.875007 78.784615 22.853841 78.819231 22.832764 78.853846 22.811780 78.888462 22.790893 78.923077 22.770107 78.957692 22.749428 78.992308 22.728858 79.026923 22.708404 79.061538 22.688068 79.096154 22.667855 79.130769 22.647770 79.165385 22.627817 79.200000 22.608000 79.234615 22.588324 79.269231 22.568792 79.303846 22.549410 79.338462 22.530181 79.373077 22.511110 79.407692 22.492201 79.442308 22.473459 79.476923 22.454888 79.511538 22.436492 79.546154 22.418275 79.580769 22.400242 79.615385 22.382397 79.650000 22.364745 79.684615 22.347289 79.719231 22.330035 79.753846 22.312986 79.788462 22.296146 79.823077 22.279521 79.857692 22.263115 79.892308 22.246931 79.926923 22.230974 79.961538 22.215249 79.996154 22.199758 80.030769 22.184502 80.065385 22.169479 80.100000 22.154687 80.134615 22.140126 80.169231 22.125794 80.203846 22.111690 80.238462 22.097813 80.273077 22.084160 80.307692 22.070731 80.342308 22.057525 80.376923 22.044540 80.411538 22.031774 80.446154 22.019227 80.480769 22.006897 80.515385 21.994783 80.550000 21.982884 80.584615 21.971197 80.619231 21.959722 80.653846 21.948458 80.688462 21.937403 80.723077 21.926555 80.757692 21.915914 80.792308 21.905479 80.826923 21.895247 80.861538 21.885217 80.896154 21.875389 80.930769 21.865761 80.965385 21.856330 81.000000 21.847098 81.034615 21.838061 81.069231 21.829218 81.103846 21.820569 81.138462 21.812111 81.173077 21.803844 81.207692 21.795766 81.242308 21.787876 81.276923 21.780173 81.311538 21.772655 81.346154 21.765320 81.380769 21.758168 81.415385 21.751197 81.450000 21.744406 81.484615 21.737794 81.519231 21.731359 81.553846 21.725100 81.588462 21.719015 81.623077 21.713103 81.657692 21.707364 81.692308 21.701795 81.726923 21.696395 81.761538 21.691163 81.796154 21.686097 81.830769 21.681197 81.865385 21.676461 81.900000 21.671887 81.934615 21.667474 81.969231 21.663222 82.003846 21.659128 82.038462 21.655191 82.073077 21.651410 82.107692 21.647784 82.142308 21.644311 82.176923 21.640989 82.211538 21.637819 82.246154 21.634797 82.280769 21.631924 82.315385 21.629197 82.350000 21.626616 82.384615 21.624178 82.419231 21.621883 82.453846 21.619730 82.488462 21.617716 82.523077 21.615841 82.557692 21.614103 82.592308 21.612501 82.626923 21.611034 82.661538 21.609700 82.696154 21.608498 82.730769 21.607426 82.765385 21.606484 82.800000 21.605670 82.834615 21.604982 82.869231 21.604420 82.903846 21.603982 82.938462 21.603667 82.973077 21.603472 83.007692 21.603398 83.042308 21.603443 83.076923 21.603604 83.111538 21.603882 83.146154 21.604274 83.180769 21.604780 83.215385 21.605398 83.250000 21.606126 83.284615 21.606964 83.319231 21.607910 83.353846 21.608962 83.388462 21.610120 83.423077 21.611382 83.457692 21.612746 83.492308 21.614212 83.526923 21.615778 83.561538 21.617443 83.596154 21.619205 83.630769 21.621063 83.665385 21.623016 83.700000 21.625062 83.734615 21.627200 83.769231 21.629429 83.803846 21.631747 83.838462 21.634153 83.873077 21.636646 83.907692 21.639225 83.942308 21.641887 83.976923 21.644632 84.011538 21.647459 84.046154 21.650366 84.080769 21.653351 84.115385 21.656414 84.150000 21.659553 84.184615 21.662767 84.219231 21.666054 84.253846 21.669413 84.288462 21.672843 84.323077 21.676342 84.357692 21.679910 84.392308 21.683544 84.426923 21.687244 84.461538 21.691007 84.496154 21.694834 84.530769 21.698722 84.565385 21.702670 84.600000 21.706677 84.634615 21.710741 84.669231 21.714862 84.703846 21.719037 84.738462 21.723266 84.773077 21.727547 84.807692 21.731878 84.842308 21.736259 84.876923 21.740689 84.911538 21.745165 84.946154 21.749686 84.980769 21.754252 85.015385 21.758861 85.050000 21.763511 85.084615 21.768201 85.119231 21.772930 85.153846 21.777696 85.188462 21.782499 85.223077 21.787336 85.257692 21.792207 85.292308 21.797110 85.326923 21.802044 85.361538 21.807008 85.396154 21.812000 85.430769 21.817018 85.465385 21.822062 85.500000 21.827131 85.534615 21.832222 85.569231 21.837334 85.603846 21.842467 85.638462 21.847619 85.673077 21.852788 85.707692 21.857974 85.742308 21.863174 85.776923 21.868388 85.811538 21.873614 85.846154 21.878851 85.880769 21.884098 85.915385 21.889352 85.950000 21.894614 85.984615 21.899881 86.019231 21.905153 86.053846 21.910427 86.088462 21.915703 86.123077 21.920979 86.157692 21.926254 86.192308 21.931527 86.226923 21.936796 86.261538 21.942060 86.296154 21.947317 86.330769 21.952567 86.365385 21.957807 86.400000 21.963038 86.434615 21.968256 86.469231 21.973462 86.503846 21.978653 86.538462 21.983828 86.573077 21.988986 86.607692 21.994126 86.642308 21.999246 86.676923 22.004345 86.711538 22.009422 86.746154 22.014475 86.780769 22.019503 86.815385 22.024504 86.850000 22.029478 86.884615 22.034423 86.919231 22.039338 86.953846 22.044220 86.988462 22.049070 87.023077 22.053886 87.057692 22.058665 87.092308 22.063408 87.126923 22.068113 87.161538 22.072777 87.196154 22.077401 87.230769 22.081982 87.265385 22.086520 87.300000 22.091013 87.334615 22.095459 87.369231 22.099858 87.403846 22.104208 87.438462 22.108507 87.473077 22.112755 87.507692 22.116950 87.542308 22.121090 87.576923 22.125175 87.611538 22.129203 87.646154 22.133173 87.680769 22.137083 87.715385 22.140931 87.750000 22.144718 87.784615 22.148441 87.819231 22.152099 87.853846 22.155691 87.888462 22.159215 87.923077 22.162671 87.957692 22.166056 87.992308 22.169369 88.026923 22.172610 88.061538 22.175776 88.096154 22.178866 88.130769 22.181880 88.165385 22.184815 88.200000 22.187671 88.234615 22.190446 88.269231 22.193139 88.303846 22.195748 88.338462 22.198272 88.373077 22.200710 88.407692 22.203060 88.442308 22.205322 88.476923 22.207493 88.511538 22.209572 88.546154 22.211559 88.580769 22.213452 88.615385 22.215249 88.650000 22.216949 88.684615 22.218554 88.719231 22.220063 88.753846 22.221479 88.788462 22.222802 88.823077 22.224033 88.857692 22.225173 88.892308 22.226223 88.926923 22.227184 88.961538 22.228057 88.996154 22.228844 89.030769 22.229544 89.065385 22.230159 89.100000 22.230691 89.134615 22.231139 89.169231 22.231506 89.203846 22.231791 89.238462 22.231997 89.273077 22.232124 89.307692 22.232172 89.342308 22.232144 89.376923 22.232039 89.411538 22.231860 89.446154 22.231607 89.480769 22.231280 89.515385 22.230882 89.550000 22.230412 89.584615 22.229873 89.619231 22.229265 89.653846 22.228588 89.688462 22.227844 89.723077 22.227035 89.757692 22.226160 89.792308 22.225221 89.826923 22.224220 89.861538 22.223156 89.896154 22.222031 89.930769 22.220846 89.965385 22.219602 90.000000 22.218299 90.034615 22.216940 90.069231 22.215525 90.103846 22.214054 90.138462 22.212530 90.173077 22.210952 90.207692 22.209322 90.242308 22.207641 90.276923 22.205910 90.311538 22.204130 90.346154 22.202301 90.380769 22.200426 90.415385 22.198504 90.450000 22.196537 90.484615 22.194526 90.519231 22.192472 90.553846 22.190376 90.588462 22.188238 90.623077 22.186060 90.657692 22.183843 90.692308 22.181588 90.726923 22.179296 90.761538 22.176967 90.796154 22.174604 90.830769 22.172206 90.865385 22.169775 90.900000 22.167311 90.934615 22.164817 90.969231 22.162292 91.003846 22.159738 91.038462 22.157155 91.073077 22.154546 91.107692 22.151910 91.142308 22.149249 91.176923 22.146563 91.211538 22.143854 91.246154 22.141123 91.280769 22.138371 91.315385 22.135599 91.350000 22.132807 91.384615 22.129997 91.419231 22.127169 91.453846 22.124326 91.488462 22.121466 91.523077 22.118593 91.557692 22.115706 91.592308 22.112807 91.626923 22.109897 91.661538 22.106976 91.696154 22.104046 91.730769 22.101108 91.765385 22.098162 91.800000 22.095210 91.834615 22.092252 91.869231 22.089290 91.903846 22.086325 91.938462 22.083357 91.973077 22.080388 92.007692 22.077419 92.042308 22.074450 92.076923 22.071483 92.111538 22.068518 92.146154 22.065557 92.180769 22.062601 92.215385 22.059650 92.250000 22.056705 92.284615 22.053769 92.319231 22.050840 92.353846 22.047922 92.388462 22.045014 92.423077 22.042117 92.457692 22.039233 92.492308 22.036362 92.526923 22.033506 92.561538 22.030666 92.596154 22.027842 92.630769 22.025036 92.665385 22.022248 92.700000 22.019479 92.734615 22.016731 92.769231 22.014005 92.803846 22.011301 92.838462 22.008620 92.873077 22.005964 92.907692 22.003334 92.942308 22.000730 92.976923 21.998153 93.011538 21.995605 93.046154 21.993086 93.080769 21.990598 93.115385 21.988141 93.150000 21.985717 93.184615 21.983326 93.219231 21.980969 93.253846 21.978648 93.288462 21.976363 93.323077 21.974116 93.357692 21.971907 93.392308 21.969738 93.426923 21.967608 93.461538 21.965521 93.496154 21.963475 93.530769 21.961473 93.565385 21.959516 93.600000 21.957603 93.634615 21.955738 93.669231 21.953919 93.703846 21.952149 93.738462 21.950428 93.773077 21.948757 93.807692 21.947138 93.842308 21.945571 93.876923 21.944058 93.911538 21.942599 93.946154 21.941195 93.980769 21.939847 94.015385 21.938557 94.050000 21.937325 94.084615 21.936152 94.119231 21.935040 94.153846 21.933988 94.188462 21.933000 94.223077 21.932074 94.257692 21.931213 94.292308 21.930416 94.326923 21.929687 94.361538 21.929024 94.396154 21.928430 94.430769 21.927905 94.465385 21.927450 94.500000 21.927066 94.534615 21.926755 94.569231 21.926517 94.603846 21.926353 94.638462 21.926264 94.673077 21.926251 94.707692 21.926316 94.742308 21.926459 94.776923 21.926681 94.811538 21.926983 94.846154 21.927366 94.880769 21.927832 94.915385 21.928380 94.950000 21.929013 94.984615 21.929731 95.019231 21.930535 95.053846 21.931427 95.088462 21.932406 95.123077 21.933475 95.157692 21.934633 95.192308 21.935883 95.226923 21.937225 95.261538 21.938660 95.296154 21.940189 95.330769 21.941813 95.365385 21.943534 95.400000 21.945351 95.434615 21.947267 95.469231 21.949281 95.503846 21.951396 95.538462 21.953612 95.573077 21.955930 95.607692 21.958351 95.642308 21.960875 95.676923 21.963505 95.711538 21.966241 95.746154 21.969085 95.780769 21.972036 95.815385 21.975096 95.850000 21.978266 95.884615 21.981547 95.919231 21.984940 95.953846 21.988446 95.988462 21.992067 96.023077 21.995802 96.057692 21.999653 96.092308 22.003621 96.126923 22.007707 96.161538 22.011912 96.196154 22.016238 96.230769 22.020684 96.265385 22.025252 96.300000 22.029943 96.334615 22.034758 96.369231 22.039697 96.403846 22.044763 96.438462 22.049956 96.473077 22.055277 96.507692 22.060726 96.542308 22.066306 96.576923 22.072016 96.611538 22.077859 96.646154 22.083834 96.680769 22.089943 96.715385 22.096187 96.750000 22.102567 96.784615 22.109084 96.819231 22.115738 96.853846 22.122532 96.888462 22.129465 96.923077 22.136540 96.957692 22.143756 96.992308 22.151115 97.026923 22.158618 97.061538 22.166265 97.096154 22.174059 97.130769 22.181999 97.165385 22.190087 97.200000 22.198324 97.234615 22.206711 97.269231 22.215249 97.303846 22.223938 97.338462 22.232778 97.373077 22.241769 97.407692 22.250910 97.442308 22.260200 97.476923 22.269639 97.511538 22.279226 97.546154 22.288961 97.580769 22.298843 97.615385 22.308871 97.650000 22.319045 97.684615 22.329363 97.719231 22.339827 97.753846 22.350434 97.788462 22.361185 97.823077 22.372078 97.857692 22.383114 97.892308 22.394290 97.926923 22.405608 97.961538 22.417066 97.996154 22.428664 98.030769 22.440401 98.065385 22.452276 98.100000 22.464289 98.134615 22.476439 98.169231 22.488726 98.203846 22.501149 98.238462 22.513707 98.273077 22.526400 98.307692 22.539227 98.342308 22.552188 98.376923 22.565282 98.411538 22.578508 98.446154 22.591866 98.480769 22.605355 98.515385 22.618975 98.550000 22.632725 98.584615 22.646604 98.619231 22.660611 98.653846 22.674747 98.688462 22.689011 98.723077 22.703401 98.757692 22.717917 98.792308 22.732560 98.826923 22.747327 98.861538 22.762219 98.896154 22.777235 98.930769 22.792373 98.965385 22.807635 99.000000 22.823019 99.034615 22.838524 99.069231 22.854150 99.103846 22.869896 99.138462 22.885762 99.173077 22.901746 99.207692 22.917850 99.242308 22.934071 99.276923 22.950409 99.311538 22.966864 99.346154 22.983434 99.380769 23.000120 99.415385 23.016921 99.450000 23.033836 99.484615 23.050865 99.519231 23.068007 99.553846 23.085260 99.588462 23.102626 99.623077 23.120103 99.657692 23.137690 99.692308 23.155387 99.726923 23.173193 99.761538 23.191109 99.796154 23.209132 99.830769 23.227262 99.865385 23.245500 99.900000 23.263844 99.934615 23.282293 99.969231 23.300848 100.003846 23.319507 100.038462 23.338270 100.073077 23.357136 100.107692 23.376104 100.142308 23.395175 100.176923 23.414347 100.211538 23.433620 100.246154 23.452993 100.280769 23.472465 100.315385 23.492037 100.350000 23.511707 100.384615 23.531475 100.419231 23.551340 100.453846 23.571301 100.488462 23.591358 100.523077 23.611511 100.557692 23.631758 100.592308 23.652100 100.626923 23.672535 100.661538 23.693063 100.696154 23.713683 100.730769 23.734395 100.765385 23.755198 100.800000 23.776092 100.834615 23.797075 100.869231 23.818148 100.903846 23.839309 100.938462 23.860558 100.973077 23.881895 101.007692 23.903319 101.042308 23.924828 101.076923 23.946424 101.111538 23.968104 101.146154 23.989869 101.180769 24.011718 101.215385 24.033650 101.250000 24.055664 101.284615 24.077760 101.319231 24.099938 101.353846 24.122197 101.388462 24.144535 101.423077 24.166954 101.457692 24.189451 101.492308 24.212026 101.526923 24.234679 101.561538 24.257410 101.596154 24.280216 101.630769 24.303099 101.665385 24.326057 101.700000 24.349090 101.734615 24.372197 101.769231 24.395377 101.803846 24.418630 101.838462 24.441955 101.873077 24.465352 101.907692 24.488821 101.942308 24.512359 101.976923 24.535967 102.011538 24.559645 102.046154 24.583391 102.080769 24.607205 102.115385 24.631087 102.150000 24.655035 102.184615 24.679050 102.219231 24.703130 102.253846 24.727275 102.288462 24.751485 102.323077 24.775758 102.357692 24.800094 102.392308 24.824493 102.426923 24.848954 102.461538 24.873476 102.496154 24.898059 102.530769 24.922702 102.565385 24.947405 102.600000 24.972166 102.634615 24.996986 102.669231 25.021863 102.703846 25.046798 102.738462 25.071789 102.773077 25.096836 102.807692 25.121938 102.842308 25.147094 102.876923 25.172305 102.911538 25.197569 102.946154 25.222886 102.980769 25.248256 103.015385 25.273677 103.050000 25.299148 103.084615 25.324671 103.119231 25.350243 103.153846 25.375864 103.188462 25.401534 103.223077 25.427252 103.257692 25.453017 103.292308 25.478829 103.326923 25.504687 103.361538 25.530590 103.396154 25.556539 103.430769 25.582532 103.465385 25.608568 103.500000 25.634648 103.534615 25.660770 103.569231 25.686934 103.603846 25.713140 103.638462 25.739386 103.673077 25.765672 103.707692 25.791998 103.742308 25.818362 103.776923 25.844765 103.811538 25.871205 103.846154 25.897683 103.880769 25.924197 103.915385 25.950746 103.950000 25.977331 103.984615 26.003951 104.019231 26.030604 104.053846 26.057291 104.088462 26.084011 104.123077 26.110763 104.157692 26.137546 104.192308 26.164361 104.226923 26.191205 104.261538 26.218080 104.296154 26.244984 104.330769 26.271916 104.365385 26.298876 104.400000 26.325863 104.434615 26.352878 104.469231 26.379918 104.503846 26.406984 104.538462 26.434074 104.573077 26.461189 104.607692 26.488328 104.642308 26.515490 104.676923 26.542674 104.711538 26.569880 104.746154 26.597107 104.780769 26.624355 104.815385 26.651623 104.850000 26.678911 104.884615 26.706217 104.919231 26.733542 104.953846 26.760884 104.988462 26.788243 105.023077 26.815618 105.057692 26.843010 105.092308 26.870416 105.126923 26.897837 105.161538 26.925272 105.196154 26.952720 105.230769 26.980182 105.265385 27.007655 105.300000 27.035140 105.334615 27.062635 105.369231 27.090141 105.403846 27.117657 105.438462 27.145182 105.473077 27.172715 105.507692 27.200257 105.542308 27.227805 105.576923 27.255360 105.611538 27.282922 105.646154 27.310488 105.680769 27.338060 105.715385 27.365636 105.750000 27.393215 105.784615 27.420798 105.819231 27.448383 105.853846 27.475970 105.888462 27.503558 105.923077 27.531146" class="line reactive nofill" /></g></g><g class="titles" /><g transform="translate(82, 10)" class="plot overlay"><g class="series serie-0 color-0" /></g><g transform="translate(82, 10)" class="plot text-overlay"><g class="series serie-0 color-0" /></g><g transform="translate(82, 10)" class="plot tooltip-overlay"><g transform="translate(0 0)" style="opacity: 0" class="tooltip"><rect rx="0" ry="0" width="0" height="0" class="tooltip-box" /><g class="text" /></g></g></g></svg>