<?xml version='1.0' encoding='utf-8'?>
<svg xmlns="http://www.w3.org/2000/svg" id="chart-49f74709-1ea9-4ed9-a9d9-5fe75bdd7aca" class="pygal-chart pygal-sparkline" viewBox="0 0 200 50" width="200" height="50"><!--Generated with pygal 3.0.5 (etree) ©Kozea 2012-2016 on 2024-12-01--><!--http://pygal.org--><!--http://github.com/Kozea/pygal--><defs><style type="text/css">#chart-49f74709-1ea9-4ed9-a9d9-5fe75bdd7aca{-webkit-user-select:none;-webkit-font-smoothing:antialiased;font-family:Consolas,"Liberation Mono",Menlo,Courier,monospace}#chart-49f74709-1ea9-4ed9-a9d9-5fe75bdd7aca .title{font-family:Consolas,"Liberation Mono",Menlo,Courier,monospace;font-size:16px}#chart-49f74709-1ea9-4ed9-a9d9-5fe75bdd7aca .legends .legend text{font-family:Consolas,"Liberation Mono",Menlo,Courier,monospace;font-size:14px}#chart-49f74709-1ea9-4ed9-a9d9-5fe75bdd7aca .axis text{font-family:Consolas,"Liberation Mono",Menlo,Courier,monospace;font-size:10px}#chart-49f74709-1ea9-4ed9-a9d9-5fe75bdd7aca .axis text.major{font-family:Consolas,"Liberation Mono",Menlo,Courier,monospace;font-size:10px}#chart-49f74709-1ea9-4ed9-a9d9-5fe75bdd7aca .text-overlay text.value{font-family:Consolas,"Liberation Mono",Menlo,Courier,monospace;font-size:16px}#chart-49f74709-1ea9-4ed9-a9d9-5fe75bdd7aca .text-overlay text.label{font-family:Consolas,"Liberation Mono",Menlo,Courier,monospace;font-size:10px}#chart-49f74709-1ea9-4ed9-a9d9-5fe75bdd7aca .tooltip{font-family:Consolas,"Liberation Mono",Menlo,Courier,monospace;font-size:14px}#chart-49f74709-1ea9-4ed9-a9d9-5fe75bdd7aca text.no_data{font-family:Consolas,"Liberation Mono",Menlo,Courier,monospace;font-size:64px}
#chart-49f74709-1ea9-4ed9-a9d9-5fe75bdd7aca{background-color:rgba(249,249,249,1)}#chart-49f74709-1ea9-4ed9-a9d9-5fe75bdd7aca path,#chart-49f74709-1ea9-4ed9-a9d9-5fe75bdd7aca line,#chart-49f74709-1ea9-4ed9-a9d9-5fe75bdd7aca rect,#chart-49f74709-1ea9-4ed9-a9d9-5fe75bdd7aca circle{-webkit-transition:150ms;-moz-transition:150ms;transition:150ms}#chart-49f74709-1ea9-4ed9-a9d9-5fe75bdd7aca .graph &gt; .background{fill:rgba(249,249,249,1)}#chart-49f74709-1ea9-4ed9-a9d9-5fe75bdd7aca .plot &gt; .background{fill:rgba(255,255,255,1)}#chart-49f74709-1ea9-4ed9-a9d9-5fe75bdd7aca .graph{fill:rgba(0,0,0,.87)}#chart-49f74709-1ea9-4ed9-a9d9-5fe75bdd7aca text.no_data{fill:rgba(0,0,0,1)}#chart-49f74709-1ea9-4ed9-a9d9-5fe75bdd7aca .title{fill:rgba(0,0,0,1)}#chart-49f74709-1ea9-4ed9-a9d9-5fe75bdd7aca .legends .legend text{fill:rgba(0,0,0,.87)}#chart-49f74709-1ea9-4ed9-a9d9-5fe75bdd7aca .legends .legend:hover text{fill:rgba(0,0,0,1)}#chart-49f74709-1ea9-4ed9-a9d9-5fe75bdd7aca .axis .line{stroke:rgba(0,0,0,1)}#chart-49f74709-1ea9-4ed9-a9d9-5fe75bdd7aca .axis .guide.line{stroke:rgba(0,0,0,.54)}#chart-49f74709-1ea9-4ed9-a9d9-5fe75bdd7aca .axis .major.line{stroke:rgba(0,0,0,.87)}#chart-49f74709-1ea9-4ed9-a9d9-5fe75bdd7aca .axis text.major{fill:rgba(0,0,0,1)}#chart-49f74709-1ea9-4ed9-a9d9-5fe75bdd7aca .axis.y .guides:hover .guide.line,#chart-49f74709-1ea9-4ed9-a9d9-5fe75bdd7aca .line-graph .axis.x .guides:hover .guide.line,#chart-49f74709-1ea9-4ed9-a9d9-5fe75bdd7aca .stackedline-graph .axis.x .guides:hover .guide.line,#chart-49f74709-1ea9-4ed9-a9d9-5fe75bdd7aca .xy-graph .axis.x .guides:hover .guide.line{stroke:rgba(0,0,0,1)}#chart-49f74709-1ea9-4ed9-a9d9-5fe75bdd7aca .axis .guides:hover text{fill:rgba(0,0,0,1)}#chart-49f74709-1ea9-4ed9-a9d9-5fe75bdd7aca .reactive{fill-opacity:.7;stroke-opacity:.8;stroke-width:1}#chart-49f74709-1ea9-4ed9-a9d9-5fe75bdd7aca .ci{stroke:rgba(0,0,0,.87)}#chart-49f74709-1ea9-4ed9-a9d9-5fe75bdd7aca .reactive.active,#chart-49f74709-1ea9-4ed9-a9d9-5fe75bdd7aca .active .reactive{fill-opacity:.8;stroke-opacity:.9;stroke-width:4}#chart-49f74709-1ea9-4ed9-a9d9-5fe75bdd7aca .ci .reactive.active{stroke-width:1.5}#chart-49f74709-1ea9-4ed9-a9d9-5fe75bdd7aca .series text{fill:rgba(0,0,0,1)}#chart-49f74709-1ea9-4ed9-a9d9-5fe75bdd7aca .tooltip rect{fill:rgba(255,255,255,1);stroke:rgba(0,0,0,1);-webkit-transition:opacity 150ms;-moz-transition:opacity 150ms;transition:opacity 150ms}#chart-49f74709-1ea9-4ed9-a9d9-5fe75bdd7aca .tooltip .label{fill:rgba(0,0,0,.87)}#chart-49f74709-1ea9-4ed9-a9d9-5fe75bdd7aca .tooltip .label{fill:rgba(0,0,0,.87)}#chart-49f74709-1ea9-4ed9-a9d9-5fe75bdd7aca .tooltip .legend{font-size:.8em;fill:rgba(0,0,0,.54)}#chart-49f74709-1ea9-4ed9-a9d9-5fe75bdd7aca .tooltip .x_label{font-size:.6em;fill:rgba(0,0,0,1)}#chart-49f74709-1ea9-4ed9-a9d9-5fe75bdd7aca .tooltip .xlink{font-size:.5em;text-decoration:underline}#chart-49f74709-1ea9-4ed9-a9d9-5fe75bdd7aca .tooltip .value{font-size:1.5em}#chart-49f74709-1ea9-4ed9-a9d9-5fe75bdd7aca .bound{font-size:.5em}#chart-49f74709-1ea9-4ed9-a9d9-5fe75bdd7aca .max-value{font-size:.75em;fill:rgba(0,0,0,.54)}#chart-49f74709-1ea9-4ed9-a9d9-5fe75bdd7aca .map-element{fill:rgba(255,255,255,1);stroke:rgba(0,0,0,.54) !important}#chart-49f74709-1ea9-4ed9-a9d9-5fe75bdd7aca .map-element .reactive{fill-opacity:inherit;stroke-opacity:inherit}#chart-49f74709-1ea9-4ed9-a9d9-5fe75bdd7aca .color-0,#chart-49f74709-1ea9-4ed9-a9d9-5fe75bdd7aca .color-0 a:visited{stroke:#F44336;fill:#F44336}#chart-49f74709-1ea9-4ed9-a9d9-5fe75bdd7aca .text-overlay .color-0 text{fill:black}
#chart-49f74709-1ea9-4ed9-a9d9-5fe75bdd7aca text.no_data{text-anchor:middle}#chart-49f74709-1ea9-4ed9-a9d9-5fe75bdd7aca .guide.line{fill:none}#chart-49f74709-1ea9-4ed9-a9d9-5fe75bdd7aca .centered{text-anchor:middle}#chart-49f74709-1ea9-4ed9-a9d9-5fe75bdd7aca .title{text-anchor:middle}#chart-49f74709-1ea9-4ed9-a9d9-5fe75bdd7aca .legends .legend text{fill-opacity:1}#chart-49f74709-1ea9-4ed9-a9d9-5fe75bdd7aca .axis.x text{text-anchor:middle}#chart-49f74709-1ea9-4ed9-a9d9-5fe75bdd7aca .axis.x:not(.web) text[transform]{text-anchor:start}#chart-49f74709-1ea9-4ed9-a9d9-5fe75bdd7aca .axis.x:not(.web) text[transform].backwards{text-anchor:end}#chart-49f74709-1ea9-4ed9-a9d9-5fe75bdd7aca .axis.y text{text-anchor:end}#chart-49f74709-1ea9-4ed9-a9d9-5fe75bdd7aca .axis.y text[transform].backwards{text-anchor:start}#chart-49f74709-1ea9-4ed9-a9d9-5fe75bdd7aca .axis.y2 text{text-anchor:start}#chart-49f74709-1ea9-4ed9-a9d9-5fe75bdd7aca .axis.y2 text[transform].backwards{text-anchor:end}#chart-49f74709-1ea9-4ed9-a9d9-5fe75bdd7aca .axis .guide.line{stroke-dasharray:4,4;stroke:black}#chart-49f74709-1ea9-4ed9-a9d9-5fe75bdd7aca .axis .major.guide.line{stroke-dasharray:6,6;stroke:black}#chart-49f74709-1ea9-4ed9-a9d9-5fe75bdd7aca .horizontal .axis.y .guide.line,#chart-49f74709-1ea9-4ed9-a9d9-5fe75bdd7aca .horizontal .axis.y2 .guide.line,#chart-49f74709-1ea9-4ed9-a9d9-5fe75bdd7aca .vertical .axis.x .guide.line{opacity:0}#chart-49f74709-1ea9-4ed9-a9d9-5fe75bdd7aca .horizontal .axis.always_show .guide.line,#chart-49f74709-1ea9-4ed9-a9d9-5fe75bdd7aca .vertical .axis.always_show .guide.line{opacity:1 !important}#chart-49f74709-1ea9-4ed9-a9d9-5fe75bdd7aca .axis.y .guides:hover .guide.line,#chart-49f74709-1ea9-4ed9-a9d9-5fe75bdd7aca .axis.y2 .guides:hover .guide.line,#chart-49f74709-1ea9-4ed9-a9d9-5fe75bdd7aca .axis.x .guides:hover .guide.line{opacity:1}#chart-49f74709-1ea9-4ed9-a9d9-5fe75bdd7aca .axis .guides:hover text{opacity:1}#chart-49f74709-1ea9-4ed9-a9d9-5fe75bdd7aca .nofill{fill:none}#chart-49f74709-1ea9-4ed9-a9d9-5fe75bdd7aca .subtle-fill{fill-opacity:.2}#chart-49f74709-1ea9-4ed9-a9d9-5fe75bdd7aca .dot{stroke-width:1px;fill-opacity:1;stroke-opacity:1}#chart-49f74709-1ea9-4ed9-a9d9-5fe75bdd7aca .dot.active{stroke-width:5px}#chart-49f74709-1ea9-4ed9-a9d9-5fe75bdd7aca .dot.negative{fill:transparent}#chart-49f74709-1ea9-4ed9-a9d9-5fe75bdd7aca text,#chart-49f74709-1ea9-4ed9-a9d9-5fe75bdd7aca tspan{stroke:none !important}#chart-49f74709-1ea9-4ed9-a9d9-5fe75bdd7aca .series text.active{opacity:1}#chart-49f74709-1ea9-4ed9-a9d9-5fe75bdd7aca .tooltip rect{fill-opacity:.95;stroke-width:.5}#chart-49f74709-1ea9-4ed9-a9d9-5fe75bdd7aca .tooltip text{fill-opacity:1}#chart-49f74709-1ea9-4ed9-a9d9-5fe75bdd7aca .showable{visibility:hidden}#chart-49f74709-1ea9-4ed9-a9d9-5fe75bdd7aca .showable.shown{visibility:visible}#chart-49f74709-1ea9-4ed9-a9d9-5fe75bdd7aca .gauge-background{fill:rgba(229,229,229,1);stroke:none}#chart-49f74709-1ea9-4ed9-a9d9-5fe75bdd7aca .bg-lines{stroke:rgba(249,249,249,1);stroke-width:2px}</style><script type="text/javascript">window.pygal = window.pygal || {};window.pygal.config = window.pygal.config || {};window.pygal.config['49f74709-1ea9-4ed9-a9d9-5fe75bdd7aca'] = {"allow_interruptions": false, "box_mode": "extremes", "classes": ["pygal-chart", "pygal-sparkline"], "css": ["file://style.css", "file://graph.css"], "defs": [], "disable_xml_declaration": false, "dots_size": 2.5, "dynamic_print_values": false, "explicit_size": true, "fill": false, "force_uri_protocol": "https", "formatter": null, "half_pie": false, "height": 50, "include_x_axis": false, "inner_radius": 0, "interpolate": "cubic", "interpolation_parameters": {}, "interpolation_precision": 250, "inverse_y_axis": false, "js": [], "legend_at_bottom": false, "legend_at_bottom_columns": null, "legend_box_size": 12, "logarithmic": false, "margin": 10, "margin_bottom": null, "margin_left": null, "margin_right": null, "margin_top": null, "max_scale": 2, "min_scale": 1, "missing_value_fill_truncation": "x", "no_data_text": "", "no_prefix": false, "order_min": null, "pretty_print": false, "print_labels": false, "print_values": false, "print_values_position": "center", "print_zeroes": true, "range": null, "rounded_bars": null, "secondary_range": null, "show_dots": false, "show_legend": false, "show_minor_x_labels": true, "show_minor_y_labels": true, "show_only_major_dots": false, "show_x_guides": false, "show_x_labels": false, "show_y_guides": true, "show_y_labels": true, "spacing": 0, "stack_from_top": false, "strict": false, "stroke": true, "stroke_style": null, "style": {"background": "rgba(249, 249, 249, 1)", "ci_colors": [], "colors": ["#F44336", "#3F51B5", "#009688", "#FFC107", "#FF5722", "#9C27B0", "#03A9F4", "#8BC34A", "#FF9800", "#E91E63", "#2196F3", "#4CAF50", "#FFEB3B", "#673AB7", "#00BCD4", "#CDDC39", "#9E9E9E", "#607D8B"], "dot_opacity": "1", "font_family": "Consolas, \"Liberation Mono\", Menlo, Courier, monospace", "foreground": "rgba(0, 0, 0, .87)", "foreground_strong": "rgba(0, 0, 0, 1)", "foreground_subtle": "rgba(0, 0, 0, .54)", "guide_stroke_color": "black", "guide_stroke_dasharray": "4,4", "label_font_family": "Consolas, \"Liberation Mono\", Menlo, Courier, monospace", "label_font_size": 10, "legend_font_family": "Consolas, \"Liberation Mono\", Menlo, Courier, monospace", "legend_font_size": 14, "major_guide_stroke_color": "black", "major_guide_stroke_dasharray": "6,6", "major_label_font_family": "Consolas, \"Liberation Mono\", Menlo, Courier, monospace", "major_label_font_size": 10, "no_data_font_family": "Consolas, \"Liberation Mono\", Menlo, Courier, monospace", "no_data_font_size": 64, "opacity": ".7", "opacity_hover": ".8", "plot_background": "rgba(255, 255, 255, 1)", "stroke_opacity": ".8", "stroke_opacity_hover": ".9", "stroke_width": "1", "stroke_width_hover": "4", "title_font_family": "Consolas, \"Liberation Mono\", Menlo, Courier, monospace", "title_font_size": 16, "tooltip_font_family": "Consolas, \"Liberation Mono\", Menlo, Courier, monospace", "tooltip_font_size": 14, "transition": "150ms", "value_background": "rgba(229, 229, 229, 1)", "value_colors": [], "value_font_family": "Consolas, \"Liberation Mono\", Menlo, Courier, monospace", "value_font_size": 16, "value_label_font_family": "Consolas, \"Liberation Mono\", Menlo, Courier, monospace", "value_label_font_size": 10}, "title": null, "tooltip_border_radius": 0, "tooltip_fancy_mode": true, "truncate_label": null, "truncate_legend": null, "width": 200, "x_label_rotation": 0, "x_labels": ["2024/11", "2024/10", "2024/9", "2024/8"], "x_labels_major": null, "x_labels_major_count": null, "x_labels_major_every": null, "x_title": null, "xrange": null, "y_label_rotation": 0, "y_labels": null, "y_labels_major": null, "y_labels_major_count": null, "y_labels_major_every": null, "y_title": null, "zero": 0, "legends": [""]}</script></defs><title>Pygal</title><g class="graph line-graph vertical"><rect x="0" y="0" width="200" height="50" class="background" /><g transform="translate(76, 10)" class="plot"><rect x="0" y="0" width="114.0" height="30" class="background" /><g class="axis y always_show"><path d="M0.000000 30.000000 h114.000000" class="line" /><g class="guides"><path d="M0.000000 29.423077 h114.000000" class="guide line" /><text x="-5" y="32.92307692307692" class="">3.891387136</text><title>3.891387136</title></g><g class="guides"><path d="M0.000000 0.576923 h114.000000" class="guide line" /><text x="-5" y="4.076923076923084" class="">13</text><title>13</title></g></g><g class="series serie-0 color-0"><path d="M2.192308 22.745291 L2.338462 22.708977 2.484615 22.672666 2.630769 22.636359 2.776923 22.600059 2.923077 22.563768 3.069231 22.527489 3.215385 22.491223 3.361538 22.454973 3.507692 22.418741 3.653846 22.382530 3.800000 22.346341 3.946154 22.310178 4.092308 22.274041 4.238462 22.237934 4.384615 22.201859 4.530769 22.165818 4.676923 22.129813 4.823077 22.093847 4.969231 22.057922 5.115385 22.022039 5.261538 21.986202 5.407692 21.950413 5.553846 21.914674 5.700000 21.878987 5.846154 21.843355 5.992308 21.807779 6.138462 21.772262 6.284615 21.736807 6.430769 21.701415 6.576923 21.666089 6.723077 21.630831 6.869231 21.595643 7.015385 21.560528 7.161538 21.525488 7.307692 21.490525 7.453846 21.455642 7.600000 21.420840 7.746154 21.386123 7.892308 21.351491 8.038462 21.316948 8.184615 21.282496 8.330769 21.248137 8.476923 21.213874 8.623077 21.179708 8.769231 21.145641 8.915385 21.111677 9.061538 21.077818 9.207692 21.044065 9.353846 21.010421 9.500000 20.976888 9.646154 20.943469 9.792308 20.910166 9.938462 20.876980 10.084615 20.843915 10.230769 20.810973 10.376923 20.778155 10.523077 20.745464 10.669231 20.712903 10.815385 20.680474 10.961538 20.648178 11.107692 20.616019 11.253846 20.583998 11.400000 20.552118 11.546154 20.520381 11.692308 20.488789 11.838462 20.457345 11.984615 20.426050 12.130769 20.394908 12.276923 20.363920 12.423077 20.333088 12.569231 20.302416 12.715385 20.271905 12.861538 20.241557 13.007692 20.211375 13.153846 20.181360 13.300000 20.151517 13.446154 20.121845 13.592308 20.092349 13.738462 20.063029 13.884615 20.033889 14.030769 20.004930 14.176923 19.976156 14.323077 19.947567 14.469231 19.919167 14.615385 19.890957 14.761538 19.862941 14.907692 19.835120 15.053846 19.807496 15.200000 19.780072 15.346154 19.752850 15.492308 19.725832 15.638462 19.699021 15.784615 19.672419 15.930769 19.646027 16.076923 19.619850 16.223077 19.593888 16.369231 19.568143 16.515385 19.542619 16.661538 19.517318 16.807692 19.492241 16.953846 19.467391 17.100000 19.442771 17.246154 19.418382 17.392308 19.394226 17.538462 19.370307 17.684615 19.346627 17.830769 19.323186 17.976923 19.299989 18.123077 19.277037 18.269231 19.254333 18.415385 19.231878 18.561538 19.209675 18.707692 19.187726 18.853846 19.166034 19.000000 19.144600 19.146154 19.123428 19.292308 19.102519 19.438462 19.081876 19.584615 19.061500 19.730769 19.041395 19.876923 19.021562 20.023077 19.002003 20.169231 18.982722 20.315385 18.963720 20.461538 18.944999 20.607692 18.926562 20.753846 18.908411 20.900000 18.890548 21.046154 18.872976 21.192308 18.855697 21.338462 18.838713 21.484615 18.822026 21.630769 18.805639 21.776923 18.789554 21.923077 18.773773 22.069231 18.758298 22.215385 18.743133 22.361538 18.728278 22.507692 18.713736 22.653846 18.699510 22.800000 18.685602 22.946154 18.672014 23.092308 18.658748 23.238462 18.645807 23.384615 18.633193 23.530769 18.620908 23.676923 18.608954 23.823077 18.597334 23.969231 18.586050 24.115385 18.575104 24.261538 18.564499 24.407692 18.554236 24.553846 18.544319 24.700000 18.534748 24.846154 18.525528 24.992308 18.516659 25.138462 18.508145 25.284615 18.499986 25.430769 18.492187 25.576923 18.484748 25.723077 18.477673 25.869231 18.470963 26.015385 18.464621 26.161538 18.458649 26.307692 18.453049 26.453846 18.447823 26.600000 18.442975 26.746154 18.438506 26.892308 18.434417 27.038462 18.430713 27.184615 18.427395 27.330769 18.424464 27.476923 18.421924 27.623077 18.419777 27.769231 18.418025 27.915385 18.416670 28.061538 18.415715 28.207692 18.415161 28.353846 18.415012 28.500000 18.415269 28.646154 18.415934 28.792308 18.417010 28.938462 18.418500 29.084615 18.420405 29.230769 18.422727 29.376923 18.425470 29.523077 18.428635 29.669231 18.432224 29.815385 18.436240 29.961538 18.440685 30.107692 18.445561 30.253846 18.450871 30.400000 18.456617 30.546154 18.462801 30.692308 18.469425 30.838462 18.476492 30.984615 18.484004 31.130769 18.491963 31.276923 18.500372 31.423077 18.509232 31.569231 18.518546 31.715385 18.528317 31.861538 18.538546 32.007692 18.549236 32.153846 18.560389 32.300000 18.572008 32.446154 18.584094 32.592308 18.596650 32.738462 18.609678 32.884615 18.623180 33.030769 18.637159 33.176923 18.651618 33.323077 18.666557 33.469231 18.681980 33.615385 18.697889 33.761538 18.714286 33.907692 18.731173 34.053846 18.748553 34.200000 18.766427 34.346154 18.784799 34.492308 18.803670 34.638462 18.823043 34.784615 18.842920 34.930769 18.863303 35.076923 18.884194 35.223077 18.905597 35.369231 18.927512 35.515385 18.949942 35.661538 18.972891 35.807692 18.996359 35.953846 19.020349 36.100000 19.044863 36.246154 19.069904 36.392308 19.095474 36.538462 19.121576 36.684615 19.148210 36.830769 19.175381 36.976923 19.203089 37.123077 19.231338 37.269231 19.260129 37.415385 19.289465 37.561538 19.319348 37.707692 19.349781 37.853846 19.380765 38.000000 19.412303 38.146154 19.444397 38.292308 19.477050 38.438462 19.510263 38.584615 19.544039 38.730769 19.578381 38.876923 19.613288 39.023077 19.648757 39.169231 19.684780 39.315385 19.721351 39.461538 19.758464 39.607692 19.796112 39.753846 19.834288 39.900000 19.872987 40.046154 19.912201 40.192308 19.951924 40.338462 19.992150 40.484615 20.032872 40.630769 20.074084 40.776923 20.115779 40.923077 20.157951 41.069231 20.200593 41.215385 20.243698 41.361538 20.287261 41.507692 20.331275 41.653846 20.375733 41.800000 20.420628 41.946154 20.465956 42.092308 20.511707 42.238462 20.557878 42.384615 20.604460 42.530769 20.651447 42.676923 20.698833 42.823077 20.746612 42.969231 20.794777 43.115385 20.843321 43.261538 20.892238 43.407692 20.941521 43.553846 20.991164 43.700000 21.041161 43.846154 21.091505 43.992308 21.142189 44.138462 21.193208 44.284615 21.244554 44.430769 21.296221 44.576923 21.348202 44.723077 21.400492 44.869231 21.453083 45.015385 21.505969 45.161538 21.559144 45.307692 21.612601 45.453846 21.666334 45.600000 21.720335 45.746154 21.774600 45.892308 21.829121 46.038462 21.883891 46.184615 21.938905 46.330769 21.994155 46.476923 22.049636 46.623077 22.105340 46.769231 22.161262 46.915385 22.217394 47.061538 22.273731 47.207692 22.330265 47.353846 22.386991 47.500000 22.443902 47.646154 22.500991 47.792308 22.558252 47.938462 22.615678 48.084615 22.673264 48.230769 22.731001 48.376923 22.788885 48.523077 22.846908 48.669231 22.905064 48.815385 22.963347 48.961538 23.021749 49.107692 23.080265 49.253846 23.138888 49.400000 23.197612 49.546154 23.256429 49.692308 23.315334 49.838462 23.374320 49.984615 23.433381 50.130769 23.492510 50.276923 23.551701 50.423077 23.610946 50.569231 23.670241 50.715385 23.729577 50.861538 23.788949 51.007692 23.848350 51.153846 23.907774 51.300000 23.967215 51.446154 24.026665 51.592308 24.086118 51.738462 24.145568 51.884615 24.205008 52.030769 24.264432 52.176923 24.323833 52.323077 24.383205 52.469231 24.442542 52.615385 24.501836 52.761538 24.561082 52.907692 24.620272 53.053846 24.679401 53.200000 24.738462 53.346154 24.797448 53.492308 24.856353 53.638462 24.915171 53.784615 24.973894 53.930769 25.032517 54.076923 25.091033 54.223077 25.149436 54.369231 25.207718 54.515385 25.265874 54.661538 25.323897 54.807692 25.381781 54.953846 25.439518 55.100000 25.497104 55.246154 25.554530 55.392308 25.611791 55.538462 25.668880 55.684615 25.725791 55.830769 25.782517 55.976923 25.839051 56.123077 25.895388 56.269231 25.951521 56.415385 26.007442 56.561538 26.063147 56.707692 26.118627 56.853846 26.173877 57.000000 26.228891 57.146154 26.283662 57.292308 26.338182 57.438462 26.392447 57.584615 26.446449 57.730769 26.500181 57.876923 26.553638 58.023077 26.606813 58.169231 26.659699 58.315385 26.712291 58.461538 26.764580 58.607692 26.816562 58.753846 26.868229 58.900000 26.919575 59.046154 26.970593 59.192308 27.021277 59.338462 27.071621 59.484615 27.121618 59.630769 27.171261 59.776923 27.220545 59.923077 27.269462 60.069231 27.318006 60.215385 27.366170 60.361538 27.413949 60.507692 27.461335 60.653846 27.508323 60.800000 27.554905 60.946154 27.601075 61.092308 27.646827 61.238462 27.692154 61.384615 27.737049 61.530769 27.781507 61.676923 27.825521 61.823077 27.869084 61.969231 27.912190 62.115385 27.954832 62.261538 27.997003 62.407692 28.038698 62.553846 28.079910 62.700000 28.120632 62.846154 28.160858 62.992308 28.200581 63.138462 28.239795 63.284615 28.278494 63.430769 28.316670 63.576923 28.354318 63.723077 28.391431 63.869231 28.428002 64.015385 28.464025 64.161538 28.499494 64.307692 28.534401 64.453846 28.568741 64.600000 28.602507 64.746154 28.635693 64.892308 28.668292 65.038462 28.700297 65.184615 28.731702 65.330769 28.762501 65.476923 28.792687 65.623077 28.822253 65.769231 28.851194 65.915385 28.879502 66.061538 28.907171 66.207692 28.934195 66.353846 28.960567 66.500000 28.986281 66.646154 29.011330 66.792308 29.035708 66.938462 29.059408 67.084615 29.082424 67.230769 29.104749 67.376923 29.126377 67.523077 29.147301 67.669231 29.167515 67.815385 29.187012 67.961538 29.205786 68.107692 29.223831 68.253846 29.241139 68.400000 29.257704 68.546154 29.273521 68.692308 29.288582 68.838462 29.302881 68.984615 29.316411 69.130769 29.329166 69.276923 29.341140 69.423077 29.352325 69.569231 29.362717 69.715385 29.372307 69.861538 29.381089 70.007692 29.389058 70.153846 29.396206 70.300000 29.402527 70.446154 29.408015 70.592308 29.412663 70.738462 29.416465 70.884615 29.419413 71.030769 29.421502 71.176923 29.422726 71.323077 29.423077 71.469231 29.422549 71.615385 29.421136 71.761538 29.418831 71.907692 29.415628 72.053846 29.411520 72.200000 29.406501 72.346154 29.400564 72.492308 29.393703 72.638462 29.385911 72.784615 29.377182 72.930769 29.367509 73.076923 29.356886 73.223077 29.345306 73.369231 29.332763 73.515385 29.319251 73.661538 29.304762 73.807692 29.289291 73.953846 29.272831 74.100000 29.255375 74.246154 29.236917 74.392308 29.217451 74.538462 29.196970 74.684615 29.175467 74.830769 29.152936 74.976923 29.129370 75.123077 29.104764 75.269231 29.079110 75.415385 29.052404 75.561538 29.024648 75.707692 28.995847 75.853846 28.966004 76.000000 28.935124 76.146154 28.903212 76.292308 28.870271 76.438462 28.836305 76.584615 28.801319 76.730769 28.765317 76.876923 28.728304 77.023077 28.690282 77.169231 28.651258 77.315385 28.611234 77.461538 28.570215 77.607692 28.528206 77.753846 28.485210 77.900000 28.441232 78.046154 28.396276 78.192308 28.350346 78.338462 28.303446 78.484615 28.255581 78.630769 28.206755 78.776923 28.156971 78.923077 28.106235 79.069231 28.054551 79.215385 28.001922 79.361538 27.948353 79.507692 27.893848 79.653846 27.838411 79.800000 27.782047 79.946154 27.724759 80.092308 27.666553 80.238462 27.607432 80.384615 27.547400 80.530769 27.486461 80.676923 27.424621 80.823077 27.361883 80.969231 27.298250 81.115385 27.233729 81.261538 27.168322 81.407692 27.102034 81.553846 27.034869 81.700000 26.966831 81.846154 26.897925 81.992308 26.828155 82.138462 26.757524 82.284615 26.686038 82.430769 26.613700 82.576923 26.540515 82.723077 26.466487 82.869231 26.391619 83.015385 26.315918 83.161538 26.239385 83.307692 26.162026 83.453846 26.083845 83.600000 26.004847 83.746154 25.925034 83.892308 25.844413 84.038462 25.762986 84.184615 25.680758 84.330769 25.597733 84.476923 25.513915 84.623077 25.429310 84.769231 25.343920 84.915385 25.257750 85.061538 25.170805 85.207692 25.083088 85.353846 24.994603 85.500000 24.905356 85.646154 24.815350 85.792308 24.724589 85.938462 24.633078 86.084615 24.540821 86.230769 24.447821 86.376923 24.354084 86.523077 24.259613 86.669231 24.164413 86.815385 24.068488 86.961538 23.971842 87.107692 23.874480 87.253846 23.776404 87.400000 23.677621 87.546154 23.578133 87.692308 23.477946 87.838462 23.377063 87.984615 23.275489 88.130769 23.173228 88.276923 23.070283 88.423077 22.966660 88.569231 22.862362 88.715385 22.757394 88.861538 22.651760 89.007692 22.545464 89.153846 22.438511 89.300000 22.330904 89.446154 22.222647 89.592308 22.113746 89.738462 22.004204 89.884615 21.894025 90.030769 21.783214 90.176923 21.671775 90.323077 21.559712 90.469231 21.447029 90.615385 21.333730 90.761538 21.219821 90.907692 21.105304 91.053846 20.990184 91.200000 20.874466 91.346154 20.758154 91.492308 20.641251 91.638462 20.523762 91.784615 20.405691 91.930769 20.287043 92.076923 20.167821 92.223077 20.048031 92.369231 19.927675 92.515385 19.806759 92.661538 19.685286 92.807692 19.563261 92.953846 19.440688 93.100000 19.317571 93.246154 19.193914 93.392308 19.069722 93.538462 18.944999 93.684615 18.819749 93.830769 18.693976 93.976923 18.567684 94.123077 18.440879 94.269231 18.313563 94.415385 18.185741 94.561538 18.057418 94.707692 17.928597 94.853846 17.799282 95.000000 17.669479 95.146154 17.539191 95.292308 17.408423 95.438462 17.277178 95.584615 17.145460 95.730769 17.013275 95.876923 16.880626 96.023077 16.747518 96.169231 16.613954 96.315385 16.479940 96.461538 16.345478 96.607692 16.210574 96.753846 16.075231 96.900000 15.939454 97.046154 15.803247 97.192308 15.666614 97.338462 15.529560 97.484615 15.392088 97.630769 15.254203 97.776923 15.115909 97.923077 14.977211 98.069231 14.838112 98.215385 14.698616 98.361538 14.558729 98.507692 14.418454 98.653846 14.277795 98.800000 14.136757 98.946154 13.995343 99.092308 13.853559 99.238462 13.711408 99.384615 13.568894 99.530769 13.426022 99.676923 13.282795 99.823077 13.139219 99.969231 12.995297 100.115385 12.851034 100.261538 12.706433 100.407692 12.561500 100.553846 12.416237 100.700000 12.270650 100.846154 12.124742 100.992308 11.978519 101.138462 11.831983 101.284615 11.685140 101.430769 11.537993 101.576923 11.390546 101.723077 11.242805 101.869231 11.094773 102.015385 10.946454 102.161538 10.797852 102.307692 10.648973 102.453846 10.499819 102.600000 10.350395 102.746154 10.200706 102.892308 10.050756 103.038462 9.900548 103.184615 9.750088 103.330769 9.599378 103.476923 9.448425 103.623077 9.297230 103.769231 9.145800 103.915385 8.994138 104.061538 8.842248 104.207692 8.690135 104.353846 8.537803 104.500000 8.385255 104.646154 8.232497 104.792308 8.079533 104.938462 7.926365 105.084615 7.773000 105.230769 7.619441 105.376923 7.465692 105.523077 7.311758 105.669231 7.157642 105.815385 7.003349 105.961538 6.848884 106.107692 6.694250 106.253846 6.539451 106.400000 6.384492 106.546154 6.229377 106.692308 6.074111 106.838462 5.918697 106.984615 5.763139 107.130769 5.607443 107.276923 5.451611 107.423077 5.295649 107.569231 5.139560 107.715385 4.983349 107.861538 4.827020 108.007692 4.670578 108.153846 4.514025 108.300000 4.357367 108.446154 4.200608 108.592308 4.043752 108.738462 3.886804 108.884615 3.729767 109.030769 3.572645 109.176923 3.415443 109.323077 3.258166 109.469231 3.100817 109.615385 2.943400 109.761538 2.785920 109.907692 2.628381 110.053846 2.470788 110.200000 2.313143 110.346154 2.155453 110.492308 1.997720 110.638462 1.839949 110.784615 1.682145 110.930769 1.524311 111.076923 1.366451 111.223077 1.208571 111.369231 1.050674 111.515385 0.892764 111.661538 0.734846 111.807692 0.576923" class="line reactive nofill" /></g></g><g class="titles" /><g transform="translate(76, 10)" class="plot overlay"><g class="series serie-0 color-0" /></g><g transform="translate(76, 10)" class="plot text-overlay"><g class="series serie-0 color-0" /></g><g transform="translate(76, 10)" class="plot tooltip-overlay"><g transform="translate(0 0)" style="opacity: 0" class="tooltip"><rect rx="0" ry="0" width="0" height="0" class="tooltip-box" /><g class="text" /></g></g></g></svg>