<?xml version='1.0' encoding='utf-8'?>
<svg xmlns="http://www.w3.org/2000/svg" id="chart-8d8a017d-b143-460e-ac75-662e36a6d719" class="pygal-chart pygal-sparkline" viewBox="0 0 200 50" width="200" height="50"><!--Generated with pygal 3.0.5 (etree) ©Kozea 2012-2016 on 2024-11-07--><!--http://pygal.org--><!--http://github.com/Kozea/pygal--><defs><style type="text/css">#chart-8d8a017d-b143-460e-ac75-662e36a6d719{-webkit-user-select:none;-webkit-font-smoothing:antialiased;font-family:Consolas,"Liberation Mono",Menlo,Courier,monospace}#chart-8d8a017d-b143-460e-ac75-662e36a6d719 .title{font-family:Consolas,"Liberation Mono",Menlo,Courier,monospace;font-size:16px}#chart-8d8a017d-b143-460e-ac75-662e36a6d719 .legends .legend text{font-family:Consolas,"Liberation Mono",Menlo,Courier,monospace;font-size:14px}#chart-8d8a017d-b143-460e-ac75-662e36a6d719 .axis text{font-family:Consolas,"Liberation Mono",Menlo,Courier,monospace;font-size:10px}#chart-8d8a017d-b143-460e-ac75-662e36a6d719 .axis text.major{font-family:Consolas,"Liberation Mono",Menlo,Courier,monospace;font-size:10px}#chart-8d8a017d-b143-460e-ac75-662e36a6d719 .text-overlay text.value{font-family:Consolas,"Liberation Mono",Menlo,Courier,monospace;font-size:16px}#chart-8d8a017d-b143-460e-ac75-662e36a6d719 .text-overlay text.label{font-family:Consolas,"Liberation Mono",Menlo,Courier,monospace;font-size:10px}#chart-8d8a017d-b143-460e-ac75-662e36a6d719 .tooltip{font-family:Consolas,"Liberation Mono",Menlo,Courier,monospace;font-size:14px}#chart-8d8a017d-b143-460e-ac75-662e36a6d719 text.no_data{font-family:Consolas,"Liberation Mono",Menlo,Courier,monospace;font-size:64px}
#chart-8d8a017d-b143-460e-ac75-662e36a6d719{background-color:rgba(249,249,249,1)}#chart-8d8a017d-b143-460e-ac75-662e36a6d719 path,#chart-8d8a017d-b143-460e-ac75-662e36a6d719 line,#chart-8d8a017d-b143-460e-ac75-662e36a6d719 rect,#chart-8d8a017d-b143-460e-ac75-662e36a6d719 circle{-webkit-transition:150ms;-moz-transition:150ms;transition:150ms}#chart-8d8a017d-b143-460e-ac75-662e36a6d719 .graph &gt; .background{fill:rgba(249,249,249,1)}#chart-8d8a017d-b143-460e-ac75-662e36a6d719 .plot &gt; .background{fill:rgba(255,255,255,1)}#chart-8d8a017d-b143-460e-ac75-662e36a6d719 .graph{fill:rgba(0,0,0,.87)}#chart-8d8a017d-b143-460e-ac75-662e36a6d719 text.no_data{fill:rgba(0,0,0,1)}#chart-8d8a017d-b143-460e-ac75-662e36a6d719 .title{fill:rgba(0,0,0,1)}#chart-8d8a017d-b143-460e-ac75-662e36a6d719 .legends .legend text{fill:rgba(0,0,0,.87)}#chart-8d8a017d-b143-460e-ac75-662e36a6d719 .legends .legend:hover text{fill:rgba(0,0,0,1)}#chart-8d8a017d-b143-460e-ac75-662e36a6d719 .axis .line{stroke:rgba(0,0,0,1)}#chart-8d8a017d-b143-460e-ac75-662e36a6d719 .axis .guide.line{stroke:rgba(0,0,0,.54)}#chart-8d8a017d-b143-460e-ac75-662e36a6d719 .axis .major.line{stroke:rgba(0,0,0,.87)}#chart-8d8a017d-b143-460e-ac75-662e36a6d719 .axis text.major{fill:rgba(0,0,0,1)}#chart-8d8a017d-b143-460e-ac75-662e36a6d719 .axis.y .guides:hover .guide.line,#chart-8d8a017d-b143-460e-ac75-662e36a6d719 .line-graph .axis.x .guides:hover .guide.line,#chart-8d8a017d-b143-460e-ac75-662e36a6d719 .stackedline-graph .axis.x .guides:hover .guide.line,#chart-8d8a017d-b143-460e-ac75-662e36a6d719 .xy-graph .axis.x .guides:hover .guide.line{stroke:rgba(0,0,0,1)}#chart-8d8a017d-b143-460e-ac75-662e36a6d719 .axis .guides:hover text{fill:rgba(0,0,0,1)}#chart-8d8a017d-b143-460e-ac75-662e36a6d719 .reactive{fill-opacity:.7;stroke-opacity:.8;stroke-width:1}#chart-8d8a017d-b143-460e-ac75-662e36a6d719 .ci{stroke:rgba(0,0,0,.87)}#chart-8d8a017d-b143-460e-ac75-662e36a6d719 .reactive.active,#chart-8d8a017d-b143-460e-ac75-662e36a6d719 .active .reactive{fill-opacity:.8;stroke-opacity:.9;stroke-width:4}#chart-8d8a017d-b143-460e-ac75-662e36a6d719 .ci .reactive.active{stroke-width:1.5}#chart-8d8a017d-b143-460e-ac75-662e36a6d719 .series text{fill:rgba(0,0,0,1)}#chart-8d8a017d-b143-460e-ac75-662e36a6d719 .tooltip rect{fill:rgba(255,255,255,1);stroke:rgba(0,0,0,1);-webkit-transition:opacity 150ms;-moz-transition:opacity 150ms;transition:opacity 150ms}#chart-8d8a017d-b143-460e-ac75-662e36a6d719 .tooltip .label{fill:rgba(0,0,0,.87)}#chart-8d8a017d-b143-460e-ac75-662e36a6d719 .tooltip .label{fill:rgba(0,0,0,.87)}#chart-8d8a017d-b143-460e-ac75-662e36a6d719 .tooltip .legend{font-size:.8em;fill:rgba(0,0,0,.54)}#chart-8d8a017d-b143-460e-ac75-662e36a6d719 .tooltip .x_label{font-size:.6em;fill:rgba(0,0,0,1)}#chart-8d8a017d-b143-460e-ac75-662e36a6d719 .tooltip .xlink{font-size:.5em;text-decoration:underline}#chart-8d8a017d-b143-460e-ac75-662e36a6d719 .tooltip .value{font-size:1.5em}#chart-8d8a017d-b143-460e-ac75-662e36a6d719 .bound{font-size:.5em}#chart-8d8a017d-b143-460e-ac75-662e36a6d719 .max-value{font-size:.75em;fill:rgba(0,0,0,.54)}#chart-8d8a017d-b143-460e-ac75-662e36a6d719 .map-element{fill:rgba(255,255,255,1);stroke:rgba(0,0,0,.54) !important}#chart-8d8a017d-b143-460e-ac75-662e36a6d719 .map-element .reactive{fill-opacity:inherit;stroke-opacity:inherit}#chart-8d8a017d-b143-460e-ac75-662e36a6d719 .color-0,#chart-8d8a017d-b143-460e-ac75-662e36a6d719 .color-0 a:visited{stroke:#F44336;fill:#F44336}#chart-8d8a017d-b143-460e-ac75-662e36a6d719 .text-overlay .color-0 text{fill:black}
#chart-8d8a017d-b143-460e-ac75-662e36a6d719 text.no_data{text-anchor:middle}#chart-8d8a017d-b143-460e-ac75-662e36a6d719 .guide.line{fill:none}#chart-8d8a017d-b143-460e-ac75-662e36a6d719 .centered{text-anchor:middle}#chart-8d8a017d-b143-460e-ac75-662e36a6d719 .title{text-anchor:middle}#chart-8d8a017d-b143-460e-ac75-662e36a6d719 .legends .legend text{fill-opacity:1}#chart-8d8a017d-b143-460e-ac75-662e36a6d719 .axis.x text{text-anchor:middle}#chart-8d8a017d-b143-460e-ac75-662e36a6d719 .axis.x:not(.web) text[transform]{text-anchor:start}#chart-8d8a017d-b143-460e-ac75-662e36a6d719 .axis.x:not(.web) text[transform].backwards{text-anchor:end}#chart-8d8a017d-b143-460e-ac75-662e36a6d719 .axis.y text{text-anchor:end}#chart-8d8a017d-b143-460e-ac75-662e36a6d719 .axis.y text[transform].backwards{text-anchor:start}#chart-8d8a017d-b143-460e-ac75-662e36a6d719 .axis.y2 text{text-anchor:start}#chart-8d8a017d-b143-460e-ac75-662e36a6d719 .axis.y2 text[transform].backwards{text-anchor:end}#chart-8d8a017d-b143-460e-ac75-662e36a6d719 .axis .guide.line{stroke-dasharray:4,4;stroke:black}#chart-8d8a017d-b143-460e-ac75-662e36a6d719 .axis .major.guide.line{stroke-dasharray:6,6;stroke:black}#chart-8d8a017d-b143-460e-ac75-662e36a6d719 .horizontal .axis.y .guide.line,#chart-8d8a017d-b143-460e-ac75-662e36a6d719 .horizontal .axis.y2 .guide.line,#chart-8d8a017d-b143-460e-ac75-662e36a6d719 .vertical .axis.x .guide.line{opacity:0}#chart-8d8a017d-b143-460e-ac75-662e36a6d719 .horizontal .axis.always_show .guide.line,#chart-8d8a017d-b143-460e-ac75-662e36a6d719 .vertical .axis.always_show .guide.line{opacity:1 !important}#chart-8d8a017d-b143-460e-ac75-662e36a6d719 .axis.y .guides:hover .guide.line,#chart-8d8a017d-b143-460e-ac75-662e36a6d719 .axis.y2 .guides:hover .guide.line,#chart-8d8a017d-b143-460e-ac75-662e36a6d719 .axis.x .guides:hover .guide.line{opacity:1}#chart-8d8a017d-b143-460e-ac75-662e36a6d719 .axis .guides:hover text{opacity:1}#chart-8d8a017d-b143-460e-ac75-662e36a6d719 .nofill{fill:none}#chart-8d8a017d-b143-460e-ac75-662e36a6d719 .subtle-fill{fill-opacity:.2}#chart-8d8a017d-b143-460e-ac75-662e36a6d719 .dot{stroke-width:1px;fill-opacity:1;stroke-opacity:1}#chart-8d8a017d-b143-460e-ac75-662e36a6d719 .dot.active{stroke-width:5px}#chart-8d8a017d-b143-460e-ac75-662e36a6d719 .dot.negative{fill:transparent}#chart-8d8a017d-b143-460e-ac75-662e36a6d719 text,#chart-8d8a017d-b143-460e-ac75-662e36a6d719 tspan{stroke:none !important}#chart-8d8a017d-b143-460e-ac75-662e36a6d719 .series text.active{opacity:1}#chart-8d8a017d-b143-460e-ac75-662e36a6d719 .tooltip rect{fill-opacity:.95;stroke-width:.5}#chart-8d8a017d-b143-460e-ac75-662e36a6d719 .tooltip text{fill-opacity:1}#chart-8d8a017d-b143-460e-ac75-662e36a6d719 .showable{visibility:hidden}#chart-8d8a017d-b143-460e-ac75-662e36a6d719 .showable.shown{visibility:visible}#chart-8d8a017d-b143-460e-ac75-662e36a6d719 .gauge-background{fill:rgba(229,229,229,1);stroke:none}#chart-8d8a017d-b143-460e-ac75-662e36a6d719 .bg-lines{stroke:rgba(249,249,249,1);stroke-width:2px}</style><script type="text/javascript">window.pygal = window.pygal || {};window.pygal.config = window.pygal.config || {};window.pygal.config['8d8a017d-b143-460e-ac75-662e36a6d719'] = {"allow_interruptions": false, "box_mode": "extremes", "classes": ["pygal-chart", "pygal-sparkline"], "css": ["file://style.css", "file://graph.css"], "defs": [], "disable_xml_declaration": false, "dots_size": 2.5, "dynamic_print_values": false, "explicit_size": true, "fill": false, "force_uri_protocol": "https", "formatter": null, "half_pie": false, "height": 50, "include_x_axis": false, "inner_radius": 0, "interpolate": "cubic", "interpolation_parameters": {}, "interpolation_precision": 250, "inverse_y_axis": false, "js": [], "legend_at_bottom": false, "legend_at_bottom_columns": null, "legend_box_size": 12, "logarithmic": false, "margin": 10, "margin_bottom": null, "margin_left": null, "margin_right": null, "margin_top": null, "max_scale": 2, "min_scale": 1, "missing_value_fill_truncation": "x", "no_data_text": "", "no_prefix": false, "order_min": null, "pretty_print": false, "print_labels": false, "print_values": false, "print_values_position": "center", "print_zeroes": true, "range": null, "rounded_bars": null, "secondary_range": null, "show_dots": false, "show_legend": false, "show_minor_x_labels": true, "show_minor_y_labels": true, "show_only_major_dots": false, "show_x_guides": false, "show_x_labels": false, "show_y_guides": true, "show_y_labels": true, "spacing": 0, "stack_from_top": false, "strict": false, "stroke": true, "stroke_style": null, "style": {"background": "rgba(249, 249, 249, 1)", "ci_colors": [], "colors": ["#F44336", "#3F51B5", "#009688", "#FFC107", "#FF5722", "#9C27B0", "#03A9F4", "#8BC34A", "#FF9800", "#E91E63", "#2196F3", "#4CAF50", "#FFEB3B", "#673AB7", "#00BCD4", "#CDDC39", "#9E9E9E", "#607D8B"], "dot_opacity": "1", "font_family": "Consolas, \"Liberation Mono\", Menlo, Courier, monospace", "foreground": "rgba(0, 0, 0, .87)", "foreground_strong": "rgba(0, 0, 0, 1)", "foreground_subtle": "rgba(0, 0, 0, .54)", "guide_stroke_color": "black", "guide_stroke_dasharray": "4,4", "label_font_family": "Consolas, \"Liberation Mono\", Menlo, Courier, monospace", "label_font_size": 10, "legend_font_family": "Consolas, \"Liberation Mono\", Menlo, Courier, monospace", "legend_font_size": 14, "major_guide_stroke_color": "black", "major_guide_stroke_dasharray": "6,6", "major_label_font_family": "Consolas, \"Liberation Mono\", Menlo, Courier, monospace", "major_label_font_size": 10, "no_data_font_family": "Consolas, \"Liberation Mono\", Menlo, Courier, monospace", "no_data_font_size": 64, "opacity": ".7", "opacity_hover": ".8", "plot_background": "rgba(255, 255, 255, 1)", "stroke_opacity": ".8", "stroke_opacity_hover": ".9", "stroke_width": "1", "stroke_width_hover": "4", "title_font_family": "Consolas, \"Liberation Mono\", Menlo, Courier, monospace", "title_font_size": 16, "tooltip_font_family": "Consolas, \"Liberation Mono\", Menlo, Courier, monospace", "tooltip_font_size": 14, "transition": "150ms", "value_background": "rgba(229, 229, 229, 1)", "value_colors": [], "value_font_family": "Consolas, \"Liberation Mono\", Menlo, Courier, monospace", "value_font_size": 16, "value_label_font_family": "Consolas, \"Liberation Mono\", Menlo, Courier, monospace", "value_label_font_size": 10}, "title": null, "tooltip_border_radius": 0, "tooltip_fancy_mode": true, "truncate_label": null, "truncate_legend": null, "width": 200, "x_label_rotation": 0, "x_labels": ["2024/11", "2024/10", "2024/9", "2024/8", "2024/7"], "x_labels_major": null, "x_labels_major_count": null, "x_labels_major_every": null, "x_title": null, "xrange": null, "y_label_rotation": 0, "y_labels": null, "y_labels_major": null, "y_labels_major_count": null, "y_labels_major_every": null, "y_title": null, "zero": 0, "legends": [""]}</script></defs><title>Pygal</title><g class="graph line-graph vertical"><rect x="0" y="0" width="200" height="50" class="background" /><g transform="translate(76, 10)" class="plot"><rect x="0" y="0" width="114.0" height="30" class="background" /><g class="axis y always_show"><path d="M0.000000 30.000000 h114.000000" class="line" /><g class="guides"><path d="M0.000000 29.423077 h114.000000" class="guide line" /><text x="-5" y="32.92307692307692" class="">2</text><title>2</title></g><g class="guides"><path d="M0.000000 0.576923 h114.000000" class="guide line" /><text x="-5" y="4.076923076923077" class="">11.02478182</text><title>11.02478182</title></g></g><g class="series serie-0 color-0"><path d="M2.192308 29.423077 L2.301923 29.314859 2.411538 29.206644 2.521154 29.098435 2.630769 28.990235 2.740385 28.882047 2.850000 28.773875 2.959615 28.665720 3.069231 28.557587 3.178846 28.449478 3.288462 28.341396 3.398077 28.233344 3.507692 28.125326 3.617308 28.017344 3.726923 27.909401 3.836538 27.801501 3.946154 27.693646 4.055769 27.585839 4.165385 27.478084 4.275000 27.370383 4.384615 27.262740 4.494231 27.155157 4.603846 27.047638 4.713462 26.940185 4.823077 26.832802 4.932692 26.725491 5.042308 26.618256 5.151923 26.511100 5.261538 26.404025 5.371154 26.297035 5.480769 26.190133 5.590385 26.083321 5.700000 25.976603 5.809615 25.869982 5.919231 25.763461 6.028846 25.657043 6.138462 25.550731 6.248077 25.444527 6.357692 25.338435 6.467308 25.232459 6.576923 25.126600 6.686538 25.020862 6.796154 24.915248 6.905769 24.809761 7.015385 24.704405 7.125000 24.599181 7.234615 24.494094 7.344231 24.389145 7.453846 24.284339 7.563462 24.179678 7.673077 24.075165 7.782692 23.970804 7.892308 23.866596 8.001923 23.762546 8.111538 23.658657 8.221154 23.554930 8.330769 23.451370 8.440385 23.347979 8.550000 23.244761 8.659615 23.141718 8.769231 23.038854 8.878846 22.936171 8.988462 22.833673 9.098077 22.731362 9.207692 22.629241 9.317308 22.527315 9.426923 22.425585 9.536538 22.324054 9.646154 22.222726 9.755769 22.121604 9.865385 22.020690 9.975000 21.919989 10.084615 21.819502 10.194231 21.719232 10.303846 21.619184 10.413462 21.519359 10.523077 21.419762 10.632692 21.320394 10.742308 21.221259 10.851923 21.122360 10.961538 21.023699 11.071154 20.925281 11.180769 20.827108 11.290385 20.729183 11.400000 20.631509 11.509615 20.534089 11.619231 20.436926 11.728846 20.340023 11.838462 20.243383 11.948077 20.147010 12.057692 20.050906 12.167308 19.955073 12.276923 19.859517 12.386538 19.764238 12.496154 19.669241 12.605769 19.574528 12.715385 19.480102 12.825000 19.385967 12.934615 19.292125 13.044231 19.198579 13.153846 19.105333 13.263462 19.012390 13.373077 18.919752 13.482692 18.827422 13.592308 18.735404 13.701923 18.643701 13.811538 18.552315 13.921154 18.461249 14.030769 18.370508 14.140385 18.280093 14.250000 18.190008 14.359615 18.100255 14.469231 18.010838 14.578846 17.921760 14.688462 17.833024 14.798077 17.744632 14.907692 17.656589 15.017308 17.568896 15.126923 17.481557 15.236538 17.394575 15.346154 17.307953 15.455769 17.221694 15.565385 17.135801 15.675000 17.050276 15.784615 16.965124 15.894231 16.880347 16.003846 16.795948 16.113462 16.711930 16.223077 16.628297 16.332692 16.545050 16.442308 16.462194 16.551923 16.379731 16.661538 16.297664 16.771154 16.215996 16.880769 16.134730 16.990385 16.053870 17.100000 15.973418 17.209615 15.893378 17.319231 15.813752 17.428846 15.734543 17.538462 15.655755 17.648077 15.577390 17.757692 15.499452 17.867308 15.421943 17.976923 15.344867 18.086538 15.268226 18.196154 15.192024 18.305769 15.116263 18.415385 15.040947 18.525000 14.966079 18.634615 14.891661 18.744231 14.817697 18.853846 14.744190 18.963462 14.671142 19.073077 14.598558 19.182692 14.526439 19.292308 14.454789 19.401923 14.383610 19.511538 14.312907 19.621154 14.242681 19.730769 14.172937 19.840385 14.103676 19.950000 14.034903 20.059615 13.966619 20.169231 13.898828 20.278846 13.831534 20.388462 13.764738 20.498077 13.698444 20.607692 13.632656 20.717308 13.567376 20.826923 13.502607 20.936538 13.438352 21.046154 13.374614 21.155769 13.311397 21.265385 13.248703 21.375000 13.186535 21.484615 13.124896 21.594231 13.063790 21.703846 13.003219 21.813462 12.943187 21.923077 12.883696 22.032692 12.824749 22.142308 12.766350 22.251923 12.708501 22.361538 12.651206 22.471154 12.594467 22.580769 12.538288 22.690385 12.482672 22.800000 12.427621 22.909615 12.373139 23.019231 12.319228 23.128846 12.265892 23.238462 12.213134 23.348077 12.160956 23.457692 12.109363 23.567308 12.058356 23.676923 12.007938 23.786538 11.958114 23.896154 11.908886 24.005769 11.860256 24.115385 11.812228 24.225000 11.764806 24.334615 11.717991 24.444231 11.671787 24.553846 11.626197 24.663462 11.581224 24.773077 11.536872 24.882692 11.493142 24.992308 11.450038 25.101923 11.407564 25.211538 11.365722 25.321154 11.324514 25.430769 11.283946 25.540385 11.244018 25.650000 11.204734 25.759615 11.166098 25.869231 11.128112 25.978846 11.090780 26.088462 11.054103 26.198077 11.018087 26.307692 10.982732 26.417308 10.948043 26.526923 10.914023 26.636538 10.880673 26.746154 10.847999 26.855769 10.816002 26.965385 10.784685 27.075000 10.754052 27.184615 10.724106 27.294231 10.694849 27.403846 10.666285 27.513462 10.638416 27.623077 10.611247 27.732692 10.584779 27.842308 10.559015 27.951923 10.533960 28.061538 10.509615 28.171154 10.485984 28.280769 10.463070 28.390385 10.440876 28.500000 10.419404 28.609615 10.398659 28.719231 10.378642 28.828846 10.359358 28.938462 10.340808 29.048077 10.322997 29.157692 10.305926 29.267308 10.289600 29.376923 10.274020 29.486538 10.259191 29.596154 10.245115 29.705769 10.231793 29.815385 10.219221 29.925000 10.207393 30.034615 10.196300 30.144231 10.185938 30.253846 10.176299 30.363462 10.167378 30.473077 10.159166 30.582692 10.151659 30.692308 10.144849 30.801923 10.138730 30.911538 10.133295 31.021154 10.128538 31.130769 10.124452 31.240385 10.121031 31.350000 10.118268 31.459615 10.116157 31.569231 10.114690 31.678846 10.113863 31.788462 10.113667 31.898077 10.114097 32.007692 10.115146 32.117308 10.116808 32.226923 10.119075 32.336538 10.121942 32.446154 10.125402 32.555769 10.129448 32.665385 10.134074 32.775000 10.139273 32.884615 10.145039 32.994231 10.151365 33.103846 10.158245 33.213462 10.165672 33.323077 10.173639 33.432692 10.182141 33.542308 10.191170 33.651923 10.200720 33.761538 10.210785 33.871154 10.221358 33.980769 10.232432 34.090385 10.244001 34.200000 10.256058 34.309615 10.268598 34.419231 10.281612 34.528846 10.295095 34.638462 10.309041 34.748077 10.323442 34.857692 10.338293 34.967308 10.353586 35.076923 10.369315 35.186538 10.385474 35.296154 10.402056 35.405769 10.419054 35.515385 10.436462 35.625000 10.454274 35.734615 10.472483 35.844231 10.491082 35.953846 10.510065 36.063462 10.529426 36.173077 10.549157 36.282692 10.569252 36.392308 10.589705 36.501923 10.610510 36.611538 10.631659 36.721154 10.653146 36.830769 10.674965 36.940385 10.697109 37.050000 10.719571 37.159615 10.742346 37.269231 10.765426 37.378846 10.788805 37.488462 10.812476 37.598077 10.836433 37.707692 10.860670 37.817308 10.885179 37.926923 10.909955 38.036538 10.934991 38.146154 10.960279 38.255769 10.985815 38.365385 11.011590 38.475000 11.037600 38.584615 11.063836 38.694231 11.090293 38.803846 11.116964 38.913462 11.143843 39.023077 11.170922 39.132692 11.198196 39.242308 11.225658 39.351923 11.253301 39.461538 11.281119 39.571154 11.309106 39.680769 11.337254 39.790385 11.365558 39.900000 11.394010 40.009615 11.422604 40.119231 11.451334 40.228846 11.480194 40.338462 11.509176 40.448077 11.538274 40.557692 11.567481 40.667308 11.596792 40.776923 11.626199 40.886538 11.655695 40.996154 11.685276 41.105769 11.714933 41.215385 11.744661 41.325000 11.774452 41.434615 11.804301 41.544231 11.834200 41.653846 11.864144 41.763462 11.894125 41.873077 11.924138 41.982692 11.954175 42.092308 11.984231 42.201923 12.014297 42.311538 12.044369 42.421154 12.074440 42.530769 12.104502 42.640385 12.134550 42.750000 12.164577 42.859615 12.194576 42.969231 12.224541 43.078846 12.254465 43.188462 12.284342 43.298077 12.314166 43.407692 12.343929 43.517308 12.373625 43.626923 12.403248 43.736538 12.432791 43.846154 12.462248 43.955769 12.491612 44.065385 12.520876 44.175000 12.550034 44.284615 12.579080 44.394231 12.608007 44.503846 12.636808 44.613462 12.665477 44.723077 12.694007 44.832692 12.722393 44.942308 12.750626 45.051923 12.778701 45.161538 12.806612 45.271154 12.834351 45.380769 12.861912 45.490385 12.889289 45.600000 12.916475 45.709615 12.943464 45.819231 12.970248 45.928846 12.996823 46.038462 13.023180 46.148077 13.049313 46.257692 13.075217 46.367308 13.100884 46.476923 13.126307 46.586538 13.151481 46.696154 13.176399 46.805769 13.201054 46.915385 13.225440 47.025000 13.249550 47.134615 13.273377 47.244231 13.296916 47.353846 13.320159 47.463462 13.343101 47.573077 13.365733 47.682692 13.388051 47.792308 13.410048 47.901923 13.431716 48.011538 13.453050 48.121154 13.474042 48.230769 13.494687 48.340385 13.514978 48.450000 13.534908 48.559615 13.554471 48.669231 13.573660 48.778846 13.592468 48.888462 13.610890 48.998077 13.628919 49.107692 13.646547 49.217308 13.663769 49.326923 13.680578 49.436538 13.696968 49.546154 13.712931 49.655769 13.728462 49.765385 13.743554 49.875000 13.758201 49.984615 13.772395 50.094231 13.786130 50.203846 13.799400 50.313462 13.812199 50.423077 13.824519 50.532692 13.836354 50.642308 13.847698 50.751923 13.858544 50.861538 13.868886 50.971154 13.878717 51.080769 13.888030 51.190385 13.896819 51.300000 13.905078 51.409615 13.912800 51.519231 13.919978 51.628846 13.926606 51.738462 13.932677 51.848077 13.938185 51.957692 13.943123 52.067308 13.947485 52.176923 13.951265 52.286538 13.954455 52.396154 13.957049 52.505769 13.959040 52.615385 13.960423 52.725000 13.961190 52.834615 13.961336 52.944231 13.960853 53.053846 13.959735 53.163462 13.957975 53.273077 13.955567 53.382692 13.952504 53.492308 13.948781 53.601923 13.944389 53.711538 13.939324 53.821154 13.933577 53.930769 13.927144 54.040385 13.920016 54.150000 13.912188 54.259615 13.903654 54.369231 13.894405 54.478846 13.884437 54.588462 13.873743 54.698077 13.862315 54.807692 13.850148 54.917308 13.837235 55.026923 13.823569 55.136538 13.809144 55.246154 13.793953 55.355769 13.777990 55.465385 13.761249 55.575000 13.743722 55.684615 13.725403 55.794231 13.706286 55.903846 13.686365 56.013462 13.665631 56.123077 13.644080 56.232692 13.621705 56.342308 13.598498 56.451923 13.574454 56.561538 13.549566 56.671154 13.523827 56.780769 13.497231 56.890385 13.469772 57.000000 13.441442 57.109615 13.412238 57.219231 13.382166 57.328846 13.351234 57.438462 13.319450 57.548077 13.286823 57.657692 13.253361 57.767308 13.219073 57.876923 13.183966 57.986538 13.148050 58.096154 13.111333 58.205769 13.073822 58.315385 13.035527 58.425000 12.996456 58.534615 12.956616 58.644231 12.916018 58.753846 12.874668 58.863462 12.832575 58.973077 12.789749 59.082692 12.746196 59.192308 12.701925 59.301923 12.656945 59.411538 12.611265 59.521154 12.564891 59.630769 12.517834 59.740385 12.470101 59.850000 12.421700 59.959615 12.372641 60.069231 12.322931 60.178846 12.272578 60.288462 12.221592 60.398077 12.169980 60.507692 12.117751 60.617308 12.064913 60.726923 12.011475 60.836538 11.957445 60.946154 11.902831 61.055769 11.847642 61.165385 11.791885 61.275000 11.735571 61.384615 11.678706 61.494231 11.621299 61.603846 11.563359 61.713462 11.504894 61.823077 11.445912 61.932692 11.386422 62.042308 11.326432 62.151923 11.265950 62.261538 11.204985 62.371154 11.143546 62.480769 11.081639 62.590385 11.019275 62.700000 10.956461 62.809615 10.893206 62.919231 10.829518 63.028846 10.765405 63.138462 10.700876 63.248077 10.635939 63.357692 10.570602 63.467308 10.504875 63.576923 10.438765 63.686538 10.372280 63.796154 10.305430 63.905769 10.238222 64.015385 10.170664 64.125000 10.102766 64.234615 10.034535 64.344231 9.965980 64.453846 9.897110 64.563462 9.827932 64.673077 9.758455 64.782692 9.688687 64.892308 9.618637 65.001923 9.548314 65.111538 9.477725 65.221154 9.406878 65.330769 9.335783 65.440385 9.264447 65.550000 9.192880 65.659615 9.121089 65.769231 9.049082 65.878846 8.976869 65.988462 8.904457 66.098077 8.831855 66.207692 8.759071 66.317308 8.686114 66.426923 8.612991 66.536538 8.539712 66.646154 8.466285 66.755769 8.392718 66.865385 8.319019 66.975000 8.245197 67.084615 8.171261 67.194231 8.097217 67.303846 8.023076 67.413462 7.948845 67.523077 7.874533 67.632692 7.800148 67.742308 7.725698 67.851923 7.651192 67.961538 7.576638 68.071154 7.502045 68.180769 7.427421 68.290385 7.352774 68.400000 7.278113 68.509615 7.203445 68.619231 7.128780 68.728846 7.054126 68.838462 6.979491 68.948077 6.904884 69.057692 6.830313 69.167308 6.755785 69.276923 6.681311 69.386538 6.606897 69.496154 6.532553 69.605769 6.458287 69.715385 6.384106 69.825000 6.310021 69.934615 6.236038 70.044231 6.162166 70.153846 6.088414 70.263462 6.014790 70.373077 5.941302 70.482692 5.867959 70.592308 5.794770 70.701923 5.721741 70.811538 5.648883 70.921154 5.576203 71.030769 5.503709 71.140385 5.431411 71.250000 5.359315 71.359615 5.287432 71.469231 5.215768 71.578846 5.144333 71.688462 5.073135 71.798077 5.002182 71.907692 4.931483 72.017308 4.861046 72.126923 4.790879 72.236538 4.720990 72.346154 4.651389 72.455769 4.582083 72.565385 4.513081 72.675000 4.444392 72.784615 4.376023 72.894231 4.307982 73.003846 4.240279 73.113462 4.172922 73.223077 4.105919 73.332692 4.039278 73.442308 3.973008 73.551923 3.907117 73.661538 3.841614 73.771154 3.776507 73.880769 3.711804 73.990385 3.647513 74.100000 3.583644 74.209615 3.520204 74.319231 3.457202 74.428846 3.394646 74.538462 3.332545 74.648077 3.270906 74.757692 3.209739 74.867308 3.149051 74.976923 3.088851 75.086538 3.029148 75.196154 2.969950 75.305769 2.911264 75.415385 2.853101 75.525000 2.795467 75.634615 2.738371 75.744231 2.681822 75.853846 2.625828 75.963462 2.570397 76.073077 2.515538 76.182692 2.461260 76.292308 2.407569 76.401923 2.354476 76.511538 2.301988 76.621154 2.250113 76.730769 2.198860 76.840385 2.148238 76.950000 2.098254 77.059615 2.048918 77.169231 2.000237 77.278846 1.952220 77.388462 1.904875 77.498077 1.858211 77.607692 1.812235 77.717308 1.766957 77.826923 1.722385 77.936538 1.678526 78.046154 1.635391 78.155769 1.592986 78.265385 1.551320 78.375000 1.510402 78.484615 1.470239 78.594231 1.430841 78.703846 1.392216 78.813462 1.354372 78.923077 1.317317 79.032692 1.281060 79.142308 1.245609 79.251923 1.210973 79.361538 1.177159 79.471154 1.144177 79.580769 1.112035 79.690385 1.080741 79.800000 1.050303 79.909615 1.020730 80.019231 0.992030 80.128846 0.964211 80.238462 0.937282 80.348077 0.911252 80.457692 0.886128 80.567308 0.861920 80.676923 0.838635 80.786538 0.816281 80.896154 0.794868 81.005769 0.774403 81.115385 0.754895 81.225000 0.736352 81.334615 0.718783 81.444231 0.702196 81.553846 0.686599 81.663462 0.672001 81.773077 0.658411 81.882692 0.645835 81.992308 0.634284 82.101923 0.623764 82.211538 0.614286 82.321154 0.605856 82.430769 0.598484 82.540385 0.592177 82.650000 0.586945 82.759615 0.582795 82.869231 0.579735 82.978846 0.577775 83.088462 0.576923 83.198077 0.577187 83.307692 0.578575 83.417308 0.581095 83.526923 0.584757 83.636538 0.589568 83.746154 0.595537 83.855769 0.602672 83.965385 0.610982 84.075000 0.620475 84.184615 0.631158 84.294231 0.643042 84.403846 0.656134 84.513462 0.670440 84.623077 0.685957 84.732692 0.702682 84.842308 0.720608 84.951923 0.739731 85.061538 0.760046 85.171154 0.781548 85.280769 0.804233 85.390385 0.828095 85.500000 0.853130 85.609615 0.879333 85.719231 0.906698 85.828846 0.935222 85.938462 0.964898 86.048077 0.995724 86.157692 1.027692 86.267308 1.060799 86.376923 1.095040 86.486538 1.130410 86.596154 1.166903 86.705769 1.204516 86.815385 1.243243 86.925000 1.283079 87.034615 1.324020 87.144231 1.366061 87.253846 1.409196 87.363462 1.453422 87.473077 1.498732 87.582692 1.545122 87.692308 1.592588 87.801923 1.641125 87.911538 1.690727 88.021154 1.741389 88.130769 1.793108 88.240385 1.845877 88.350000 1.899693 88.459615 1.954550 88.569231 2.010443 88.678846 2.067368 88.788462 2.125319 88.898077 2.184292 89.007692 2.244283 89.117308 2.305285 89.226923 2.367294 89.336538 2.430306 89.446154 2.494316 89.555769 2.559318 89.665385 2.625307 89.775000 2.692280 89.884615 2.760230 89.994231 2.829154 90.103846 2.899046 90.213462 2.969901 90.323077 3.041715 90.432692 3.114483 90.542308 3.188199 90.651923 3.262860 90.761538 3.338459 90.871154 3.414993 90.980769 3.492456 91.090385 3.570843 91.200000 3.650151 91.309615 3.730372 91.419231 3.811504 91.528846 3.893541 91.638462 3.976478 91.748077 4.060310 91.857692 4.145033 91.967308 4.230641 92.076923 4.317130 92.186538 4.404495 92.296154 4.492731 92.405769 4.581832 92.515385 4.671796 92.625000 4.762615 92.734615 4.854286 92.844231 4.946804 92.953846 5.040163 93.063462 5.134359 93.173077 5.229387 93.282692 5.325243 93.392308 5.421921 93.501923 5.519416 93.611538 5.617724 93.721154 5.716839 93.830769 5.816758 93.940385 5.917474 94.050000 6.018983 94.159615 6.121281 94.269231 6.224362 94.378846 6.328222 94.488462 6.432855 94.598077 6.538257 94.707692 6.644423 94.817308 6.751348 94.926923 6.859027 95.036538 6.967455 95.146154 7.076628 95.255769 7.186541 95.365385 7.297188 95.475000 7.408565 95.584615 7.520667 95.694231 7.633490 95.803846 7.747027 95.913462 7.861275 96.023077 7.976228 96.132692 8.091883 96.242308 8.208232 96.351923 8.325273 96.461538 8.443000 96.571154 8.561408 96.680769 8.680493 96.790385 8.800249 96.900000 8.920671 97.009615 9.041755 97.119231 9.163496 97.228846 9.285890 97.338462 9.408930 97.448077 9.532612 97.557692 9.656932 97.667308 9.781885 97.776923 9.907465 97.886538 10.033668 97.996154 10.160489 98.105769 10.287923 98.215385 10.415965 98.325000 10.544611 98.434615 10.673855 98.544231 10.803692 98.653846 10.934119 98.763462 11.065129 98.873077 11.196718 98.982692 11.328882 99.092308 11.461615 99.201923 11.594912 99.311538 11.728769 99.421154 11.863180 99.530769 11.998141 99.640385 12.133648 99.750000 12.269694 99.859615 12.406276 99.969231 12.543387 100.078846 12.681025 100.188462 12.819183 100.298077 12.957857 100.407692 13.097042 100.517308 13.236732 100.626923 13.376924 100.736538 13.517612 100.846154 13.658792 100.955769 13.800458 101.065385 13.942606 101.175000 14.085231 101.284615 14.228328 101.394231 14.371892 101.503846 14.515918 101.613462 14.660401 101.723077 14.805337 101.832692 14.950721 101.942308 15.096548 102.051923 15.242812 102.161538 15.389509 102.271154 15.536635 102.380769 15.684184 102.490385 15.832151 102.600000 15.980532 102.709615 16.129322 102.819231 16.278515 102.928846 16.428108 103.038462 16.578094 103.148077 16.728470 103.257692 16.879231 103.367308 17.030370 103.476923 17.181885 103.586538 17.333769 103.696154 17.486018 103.805769 17.638628 103.915385 17.791592 104.025000 17.944907 104.134615 18.098567 104.244231 18.252568 104.353846 18.406905 104.463462 18.561572 104.573077 18.716565 104.682692 18.871880 104.792308 19.027511 104.901923 19.183453 105.011538 19.339702 105.121154 19.496252 105.230769 19.653100 105.340385 19.810239 105.450000 19.967665 105.559615 20.125374 105.669231 20.283360 105.778846 20.441618 105.888462 20.600144 105.998077 20.758933 106.107692 20.917979 106.217308 21.077279 106.326923 21.236827 106.436538 21.396618 106.546154 21.556647 106.655769 21.716910 106.765385 21.877402 106.875000 22.038118 106.984615 22.199052 107.094231 22.360201 107.203846 22.521559 107.313462 22.683121 107.423077 22.844883 107.532692 23.006839 107.642308 23.168985 107.751923 23.331316 107.861538 23.493827 107.971154 23.656513 108.080769 23.819370 108.190385 23.982391 108.300000 24.145574 108.409615 24.308912 108.519231 24.472401 108.628846 24.636036 108.738462 24.799812 108.848077 24.963725 108.957692 25.127768 109.067308 25.291938 109.176923 25.456230 109.286538 25.620639 109.396154 25.785159 109.505769 25.949787 109.615385 26.114517 109.725000 26.279344 109.834615 26.444263 109.944231 26.609271 110.053846 26.774360 110.163462 26.939528 110.273077 27.104769 110.382692 27.270078 110.492308 27.435450 110.601923 27.600880 110.711538 27.766364 110.821154 27.931897 110.930769 28.097473 111.040385 28.263088 111.150000 28.428738 111.259615 28.594416 111.369231 28.760119 111.478846 28.925842 111.588462 29.091579 111.698077 29.257325 111.807692 29.423077" class="line reactive nofill" /></g></g><g class="titles" /><g transform="translate(76, 10)" class="plot overlay"><g class="series serie-0 color-0" /></g><g transform="translate(76, 10)" class="plot text-overlay"><g class="series serie-0 color-0" /></g><g transform="translate(76, 10)" class="plot tooltip-overlay"><g transform="translate(0 0)" style="opacity: 0" class="tooltip"><rect rx="0" ry="0" width="0" height="0" class="tooltip-box" /><g class="text" /></g></g></g></svg>