<?xml version='1.0' encoding='utf-8'?>
<svg xmlns="http://www.w3.org/2000/svg" id="chart-57bd7290-92df-48e0-a6cd-572d1f590a4d" class="pygal-chart pygal-sparkline" viewBox="0 0 200 50" width="200" height="50"><!--Generated with pygal 3.0.5 (etree) ©Kozea 2012-2016 on 2024-11-07--><!--http://pygal.org--><!--http://github.com/Kozea/pygal--><defs><style type="text/css">#chart-57bd7290-92df-48e0-a6cd-572d1f590a4d{-webkit-user-select:none;-webkit-font-smoothing:antialiased;font-family:Consolas,"Liberation Mono",Menlo,Courier,monospace}#chart-57bd7290-92df-48e0-a6cd-572d1f590a4d .title{font-family:Consolas,"Liberation Mono",Menlo,Courier,monospace;font-size:16px}#chart-57bd7290-92df-48e0-a6cd-572d1f590a4d .legends .legend text{font-family:Consolas,"Liberation Mono",Menlo,Courier,monospace;font-size:14px}#chart-57bd7290-92df-48e0-a6cd-572d1f590a4d .axis text{font-family:Consolas,"Liberation Mono",Menlo,Courier,monospace;font-size:10px}#chart-57bd7290-92df-48e0-a6cd-572d1f590a4d .axis text.major{font-family:Consolas,"Liberation Mono",Menlo,Courier,monospace;font-size:10px}#chart-57bd7290-92df-48e0-a6cd-572d1f590a4d .text-overlay text.value{font-family:Consolas,"Liberation Mono",Menlo,Courier,monospace;font-size:16px}#chart-57bd7290-92df-48e0-a6cd-572d1f590a4d .text-overlay text.label{font-family:Consolas,"Liberation Mono",Menlo,Courier,monospace;font-size:10px}#chart-57bd7290-92df-48e0-a6cd-572d1f590a4d .tooltip{font-family:Consolas,"Liberation Mono",Menlo,Courier,monospace;font-size:14px}#chart-57bd7290-92df-48e0-a6cd-572d1f590a4d text.no_data{font-family:Consolas,"Liberation Mono",Menlo,Courier,monospace;font-size:64px}
#chart-57bd7290-92df-48e0-a6cd-572d1f590a4d{background-color:rgba(249,249,249,1)}#chart-57bd7290-92df-48e0-a6cd-572d1f590a4d path,#chart-57bd7290-92df-48e0-a6cd-572d1f590a4d line,#chart-57bd7290-92df-48e0-a6cd-572d1f590a4d rect,#chart-57bd7290-92df-48e0-a6cd-572d1f590a4d circle{-webkit-transition:150ms;-moz-transition:150ms;transition:150ms}#chart-57bd7290-92df-48e0-a6cd-572d1f590a4d .graph &gt; .background{fill:rgba(249,249,249,1)}#chart-57bd7290-92df-48e0-a6cd-572d1f590a4d .plot &gt; .background{fill:rgba(255,255,255,1)}#chart-57bd7290-92df-48e0-a6cd-572d1f590a4d .graph{fill:rgba(0,0,0,.87)}#chart-57bd7290-92df-48e0-a6cd-572d1f590a4d text.no_data{fill:rgba(0,0,0,1)}#chart-57bd7290-92df-48e0-a6cd-572d1f590a4d .title{fill:rgba(0,0,0,1)}#chart-57bd7290-92df-48e0-a6cd-572d1f590a4d .legends .legend text{fill:rgba(0,0,0,.87)}#chart-57bd7290-92df-48e0-a6cd-572d1f590a4d .legends .legend:hover text{fill:rgba(0,0,0,1)}#chart-57bd7290-92df-48e0-a6cd-572d1f590a4d .axis .line{stroke:rgba(0,0,0,1)}#chart-57bd7290-92df-48e0-a6cd-572d1f590a4d .axis .guide.line{stroke:rgba(0,0,0,.54)}#chart-57bd7290-92df-48e0-a6cd-572d1f590a4d .axis .major.line{stroke:rgba(0,0,0,.87)}#chart-57bd7290-92df-48e0-a6cd-572d1f590a4d .axis text.major{fill:rgba(0,0,0,1)}#chart-57bd7290-92df-48e0-a6cd-572d1f590a4d .axis.y .guides:hover .guide.line,#chart-57bd7290-92df-48e0-a6cd-572d1f590a4d .line-graph .axis.x .guides:hover .guide.line,#chart-57bd7290-92df-48e0-a6cd-572d1f590a4d .stackedline-graph .axis.x .guides:hover .guide.line,#chart-57bd7290-92df-48e0-a6cd-572d1f590a4d .xy-graph .axis.x .guides:hover .guide.line{stroke:rgba(0,0,0,1)}#chart-57bd7290-92df-48e0-a6cd-572d1f590a4d .axis .guides:hover text{fill:rgba(0,0,0,1)}#chart-57bd7290-92df-48e0-a6cd-572d1f590a4d .reactive{fill-opacity:.7;stroke-opacity:.8;stroke-width:1}#chart-57bd7290-92df-48e0-a6cd-572d1f590a4d .ci{stroke:rgba(0,0,0,.87)}#chart-57bd7290-92df-48e0-a6cd-572d1f590a4d .reactive.active,#chart-57bd7290-92df-48e0-a6cd-572d1f590a4d .active .reactive{fill-opacity:.8;stroke-opacity:.9;stroke-width:4}#chart-57bd7290-92df-48e0-a6cd-572d1f590a4d .ci .reactive.active{stroke-width:1.5}#chart-57bd7290-92df-48e0-a6cd-572d1f590a4d .series text{fill:rgba(0,0,0,1)}#chart-57bd7290-92df-48e0-a6cd-572d1f590a4d .tooltip rect{fill:rgba(255,255,255,1);stroke:rgba(0,0,0,1);-webkit-transition:opacity 150ms;-moz-transition:opacity 150ms;transition:opacity 150ms}#chart-57bd7290-92df-48e0-a6cd-572d1f590a4d .tooltip .label{fill:rgba(0,0,0,.87)}#chart-57bd7290-92df-48e0-a6cd-572d1f590a4d .tooltip .label{fill:rgba(0,0,0,.87)}#chart-57bd7290-92df-48e0-a6cd-572d1f590a4d .tooltip .legend{font-size:.8em;fill:rgba(0,0,0,.54)}#chart-57bd7290-92df-48e0-a6cd-572d1f590a4d .tooltip .x_label{font-size:.6em;fill:rgba(0,0,0,1)}#chart-57bd7290-92df-48e0-a6cd-572d1f590a4d .tooltip .xlink{font-size:.5em;text-decoration:underline}#chart-57bd7290-92df-48e0-a6cd-572d1f590a4d .tooltip .value{font-size:1.5em}#chart-57bd7290-92df-48e0-a6cd-572d1f590a4d .bound{font-size:.5em}#chart-57bd7290-92df-48e0-a6cd-572d1f590a4d .max-value{font-size:.75em;fill:rgba(0,0,0,.54)}#chart-57bd7290-92df-48e0-a6cd-572d1f590a4d .map-element{fill:rgba(255,255,255,1);stroke:rgba(0,0,0,.54) !important}#chart-57bd7290-92df-48e0-a6cd-572d1f590a4d .map-element .reactive{fill-opacity:inherit;stroke-opacity:inherit}#chart-57bd7290-92df-48e0-a6cd-572d1f590a4d .color-0,#chart-57bd7290-92df-48e0-a6cd-572d1f590a4d .color-0 a:visited{stroke:#F44336;fill:#F44336}#chart-57bd7290-92df-48e0-a6cd-572d1f590a4d .text-overlay .color-0 text{fill:black}
#chart-57bd7290-92df-48e0-a6cd-572d1f590a4d text.no_data{text-anchor:middle}#chart-57bd7290-92df-48e0-a6cd-572d1f590a4d .guide.line{fill:none}#chart-57bd7290-92df-48e0-a6cd-572d1f590a4d .centered{text-anchor:middle}#chart-57bd7290-92df-48e0-a6cd-572d1f590a4d .title{text-anchor:middle}#chart-57bd7290-92df-48e0-a6cd-572d1f590a4d .legends .legend text{fill-opacity:1}#chart-57bd7290-92df-48e0-a6cd-572d1f590a4d .axis.x text{text-anchor:middle}#chart-57bd7290-92df-48e0-a6cd-572d1f590a4d .axis.x:not(.web) text[transform]{text-anchor:start}#chart-57bd7290-92df-48e0-a6cd-572d1f590a4d .axis.x:not(.web) text[transform].backwards{text-anchor:end}#chart-57bd7290-92df-48e0-a6cd-572d1f590a4d .axis.y text{text-anchor:end}#chart-57bd7290-92df-48e0-a6cd-572d1f590a4d .axis.y text[transform].backwards{text-anchor:start}#chart-57bd7290-92df-48e0-a6cd-572d1f590a4d .axis.y2 text{text-anchor:start}#chart-57bd7290-92df-48e0-a6cd-572d1f590a4d .axis.y2 text[transform].backwards{text-anchor:end}#chart-57bd7290-92df-48e0-a6cd-572d1f590a4d .axis .guide.line{stroke-dasharray:4,4;stroke:black}#chart-57bd7290-92df-48e0-a6cd-572d1f590a4d .axis .major.guide.line{stroke-dasharray:6,6;stroke:black}#chart-57bd7290-92df-48e0-a6cd-572d1f590a4d .horizontal .axis.y .guide.line,#chart-57bd7290-92df-48e0-a6cd-572d1f590a4d .horizontal .axis.y2 .guide.line,#chart-57bd7290-92df-48e0-a6cd-572d1f590a4d .vertical .axis.x .guide.line{opacity:0}#chart-57bd7290-92df-48e0-a6cd-572d1f590a4d .horizontal .axis.always_show .guide.line,#chart-57bd7290-92df-48e0-a6cd-572d1f590a4d .vertical .axis.always_show .guide.line{opacity:1 !important}#chart-57bd7290-92df-48e0-a6cd-572d1f590a4d .axis.y .guides:hover .guide.line,#chart-57bd7290-92df-48e0-a6cd-572d1f590a4d .axis.y2 .guides:hover .guide.line,#chart-57bd7290-92df-48e0-a6cd-572d1f590a4d .axis.x .guides:hover .guide.line{opacity:1}#chart-57bd7290-92df-48e0-a6cd-572d1f590a4d .axis .guides:hover text{opacity:1}#chart-57bd7290-92df-48e0-a6cd-572d1f590a4d .nofill{fill:none}#chart-57bd7290-92df-48e0-a6cd-572d1f590a4d .subtle-fill{fill-opacity:.2}#chart-57bd7290-92df-48e0-a6cd-572d1f590a4d .dot{stroke-width:1px;fill-opacity:1;stroke-opacity:1}#chart-57bd7290-92df-48e0-a6cd-572d1f590a4d .dot.active{stroke-width:5px}#chart-57bd7290-92df-48e0-a6cd-572d1f590a4d .dot.negative{fill:transparent}#chart-57bd7290-92df-48e0-a6cd-572d1f590a4d text,#chart-57bd7290-92df-48e0-a6cd-572d1f590a4d tspan{stroke:none !important}#chart-57bd7290-92df-48e0-a6cd-572d1f590a4d .series text.active{opacity:1}#chart-57bd7290-92df-48e0-a6cd-572d1f590a4d .tooltip rect{fill-opacity:.95;stroke-width:.5}#chart-57bd7290-92df-48e0-a6cd-572d1f590a4d .tooltip text{fill-opacity:1}#chart-57bd7290-92df-48e0-a6cd-572d1f590a4d .showable{visibility:hidden}#chart-57bd7290-92df-48e0-a6cd-572d1f590a4d .showable.shown{visibility:visible}#chart-57bd7290-92df-48e0-a6cd-572d1f590a4d .gauge-background{fill:rgba(229,229,229,1);stroke:none}#chart-57bd7290-92df-48e0-a6cd-572d1f590a4d .bg-lines{stroke:rgba(249,249,249,1);stroke-width:2px}</style><script type="text/javascript">window.pygal = window.pygal || {};window.pygal.config = window.pygal.config || {};window.pygal.config['57bd7290-92df-48e0-a6cd-572d1f590a4d'] = {"allow_interruptions": false, "box_mode": "extremes", "classes": ["pygal-chart", "pygal-sparkline"], "css": ["file://style.css", "file://graph.css"], "defs": [], "disable_xml_declaration": false, "dots_size": 2.5, "dynamic_print_values": false, "explicit_size": true, "fill": false, "force_uri_protocol": "https", "formatter": null, "half_pie": false, "height": 50, "include_x_axis": false, "inner_radius": 0, "interpolate": "cubic", "interpolation_parameters": {}, "interpolation_precision": 250, "inverse_y_axis": false, "js": [], "legend_at_bottom": false, "legend_at_bottom_columns": null, "legend_box_size": 12, "logarithmic": false, "margin": 10, "margin_bottom": null, "margin_left": null, "margin_right": null, "margin_top": null, "max_scale": 2, "min_scale": 1, "missing_value_fill_truncation": "x", "no_data_text": "", "no_prefix": false, "order_min": null, "pretty_print": false, "print_labels": false, "print_values": false, "print_values_position": "center", "print_zeroes": true, "range": null, "rounded_bars": null, "secondary_range": null, "show_dots": false, "show_legend": false, "show_minor_x_labels": true, "show_minor_y_labels": true, "show_only_major_dots": false, "show_x_guides": false, "show_x_labels": false, "show_y_guides": true, "show_y_labels": true, "spacing": 0, "stack_from_top": false, "strict": false, "stroke": true, "stroke_style": null, "style": {"background": "rgba(249, 249, 249, 1)", "ci_colors": [], "colors": ["#F44336", "#3F51B5", "#009688", "#FFC107", "#FF5722", "#9C27B0", "#03A9F4", "#8BC34A", "#FF9800", "#E91E63", "#2196F3", "#4CAF50", "#FFEB3B", "#673AB7", "#00BCD4", "#CDDC39", "#9E9E9E", "#607D8B"], "dot_opacity": "1", "font_family": "Consolas, \"Liberation Mono\", Menlo, Courier, monospace", "foreground": "rgba(0, 0, 0, .87)", "foreground_strong": "rgba(0, 0, 0, 1)", "foreground_subtle": "rgba(0, 0, 0, .54)", "guide_stroke_color": "black", "guide_stroke_dasharray": "4,4", "label_font_family": "Consolas, \"Liberation Mono\", Menlo, Courier, monospace", "label_font_size": 10, "legend_font_family": "Consolas, \"Liberation Mono\", Menlo, Courier, monospace", "legend_font_size": 14, "major_guide_stroke_color": "black", "major_guide_stroke_dasharray": "6,6", "major_label_font_family": "Consolas, \"Liberation Mono\", Menlo, Courier, monospace", "major_label_font_size": 10, "no_data_font_family": "Consolas, \"Liberation Mono\", Menlo, Courier, monospace", "no_data_font_size": 64, "opacity": ".7", "opacity_hover": ".8", "plot_background": "rgba(255, 255, 255, 1)", "stroke_opacity": ".8", "stroke_opacity_hover": ".9", "stroke_width": "1", "stroke_width_hover": "4", "title_font_family": "Consolas, \"Liberation Mono\", Menlo, Courier, monospace", "title_font_size": 16, "tooltip_font_family": "Consolas, \"Liberation Mono\", Menlo, Courier, monospace", "tooltip_font_size": 14, "transition": "150ms", "value_background": "rgba(229, 229, 229, 1)", "value_colors": [], "value_font_family": "Consolas, \"Liberation Mono\", Menlo, Courier, monospace", "value_font_size": 16, "value_label_font_family": "Consolas, \"Liberation Mono\", Menlo, Courier, monospace", "value_label_font_size": 10}, "title": null, "tooltip_border_radius": 0, "tooltip_fancy_mode": true, "truncate_label": null, "truncate_legend": null, "width": 200, "x_label_rotation": 0, "x_labels": ["2024/11", "2024/10", "2024/9", "2024/8", "2024/7", "2024/6", "2024/5", "2024/4", "2024/3"], "x_labels_major": null, "x_labels_major_count": null, "x_labels_major_every": null, "x_title": null, "xrange": null, "y_label_rotation": 0, "y_labels": null, "y_labels_major": null, "y_labels_major_count": null, "y_labels_major_every": null, "y_title": null, "zero": 0, "legends": [""]}</script></defs><title>Pygal</title><g class="graph line-graph vertical"><rect x="0" y="0" width="200" height="50" class="background" /><g transform="translate(76, 10)" class="plot"><rect x="0" y="0" width="114.0" height="30" class="background" /><g class="axis y always_show"><path d="M0.000000 30.000000 h114.000000" class="line" /><g class="guides"><path d="M0.000000 29.423077 h114.000000" class="guide line" /><text x="-5" y="32.92307692307692" class="">1.735970579</text><title>1.735970579</title></g><g class="guides"><path d="M0.000000 0.576923 h114.000000" class="guide line" /><text x="-5" y="4.076923076923073" class="">7.057189157</text><title>7.057189157</title></g></g><g class="series serie-0 color-0"><path d="M2.192308 17.149847 L2.247115 17.039502 2.301923 16.929162 2.356731 16.818830 2.411538 16.708511 2.466346 16.598210 2.521154 16.487931 2.575962 16.377677 2.630769 16.267454 2.685577 16.157266 2.740385 16.047117 2.795192 15.937011 2.850000 15.826954 2.904808 15.716948 2.959615 15.606999 3.014423 15.497111 3.069231 15.387288 3.124038 15.277535 3.178846 15.167855 3.233654 15.058254 3.288462 14.948736 3.343269 14.839304 3.398077 14.729964 3.452885 14.620719 3.507692 14.511575 3.562500 14.402534 3.617308 14.293603 3.672115 14.184784 3.726923 14.076083 3.781731 13.967504 3.836538 13.859051 3.891346 13.750728 3.946154 13.642540 4.000962 13.534491 4.055769 13.426586 4.110577 13.318828 4.165385 13.211223 4.220192 13.103774 4.275000 12.996486 4.329808 12.889363 4.384615 12.782410 4.439423 12.675631 4.494231 12.569030 4.549038 12.462612 4.603846 12.356381 4.658654 12.250341 4.713462 12.144496 4.768269 12.038852 4.823077 11.933412 4.877885 11.828181 4.932692 11.723163 4.987500 11.618362 5.042308 11.513783 5.097115 11.409430 5.151923 11.305308 5.206731 11.201420 5.261538 11.097771 5.316346 10.994367 5.371154 10.891209 5.425962 10.788304 5.480769 10.685656 5.535577 10.583269 5.590385 10.481146 5.645192 10.379294 5.700000 10.277715 5.754808 10.176415 5.809615 10.075397 5.864423 9.974666 5.919231 9.874226 5.974038 9.774083 6.028846 9.674239 6.083654 9.574699 6.138462 9.475469 6.193269 9.376551 6.248077 9.277951 6.302885 9.179672 6.357692 9.081720 6.412500 8.984098 6.467308 8.886811 6.522115 8.789863 6.576923 8.693259 6.631731 8.597002 6.686538 8.501098 6.741346 8.405550 6.796154 8.310363 6.850962 8.215542 6.905769 8.121090 6.960577 8.027012 7.015385 7.933312 7.070192 7.839995 7.125000 7.747065 7.179808 7.654526 7.234615 7.562383 7.289423 7.470640 7.344231 7.379301 7.399038 7.288371 7.453846 7.197854 7.508654 7.107755 7.563462 7.018077 7.618269 6.928826 7.673077 6.840004 7.727885 6.751618 7.782692 6.663671 7.837500 6.576167 7.892308 6.489112 7.947115 6.402508 8.001923 6.316361 8.056731 6.230675 8.111538 6.145455 8.166346 6.060703 8.221154 5.976426 8.275962 5.892627 8.330769 5.809311 8.385577 5.726482 8.440385 5.644144 8.495192 5.562302 8.550000 5.480959 8.604808 5.400122 8.659615 5.319793 8.714423 5.239977 8.769231 5.160678 8.824038 5.081901 8.878846 5.003651 8.933654 4.925931 8.988462 4.848745 9.043269 4.772099 9.098077 4.695997 9.152885 4.620442 9.207692 4.545440 9.262500 4.470994 9.317308 4.397109 9.372115 4.323789 9.426923 4.251039 9.481731 4.178863 9.536538 4.107265 9.591346 4.036250 9.646154 3.965822 9.700962 3.895985 9.755769 3.826744 9.810577 3.758103 9.865385 3.690066 9.920192 3.622638 9.975000 3.555823 10.029808 3.489626 10.084615 3.424050 10.139423 3.359101 10.194231 3.294782 10.249038 3.231098 10.303846 3.168053 10.358654 3.105651 10.413462 3.043898 10.468269 2.982797 10.523077 2.922352 10.577885 2.862568 10.632692 2.803450 10.687500 2.745001 10.742308 2.687226 10.797115 2.630129 10.851923 2.573716 10.906731 2.517989 10.961538 2.462953 11.016346 2.408613 11.071154 2.354974 11.125962 2.302038 11.180769 2.249812 11.235577 2.198298 11.290385 2.147502 11.345192 2.097428 11.400000 2.048080 11.454808 1.999462 11.509615 1.951580 11.564423 1.904436 11.619231 1.858036 11.674038 1.812384 11.728846 1.767484 11.783654 1.723341 11.838462 1.679959 11.893269 1.637342 11.948077 1.595494 12.002885 1.554421 12.057692 1.514126 12.112500 1.474613 12.167308 1.435888 12.222115 1.397954 12.276923 1.360816 12.331731 1.324477 12.386538 1.288944 12.441346 1.254218 12.496154 1.220307 12.550962 1.187212 12.605769 1.154939 12.660577 1.123493 12.715385 1.092877 12.770192 1.063096 12.825000 1.034154 12.879808 1.006056 12.934615 0.978805 12.989423 0.952407 13.044231 0.926865 13.099038 0.902184 13.153846 0.878369 13.208654 0.855423 13.263462 0.833352 13.318269 0.812158 13.373077 0.791847 13.427885 0.772424 13.482692 0.753891 13.537500 0.736255 13.592308 0.719518 13.647115 0.703686 13.701923 0.688763 13.756731 0.674753 13.811538 0.661660 13.866346 0.649489 13.921154 0.638244 13.975962 0.627930 14.030769 0.618551 14.085577 0.610111 14.140385 0.602614 14.195192 0.596065 14.250000 0.590469 14.304808 0.585829 14.359615 0.582150 14.414423 0.579437 14.469231 0.577693 14.524038 0.576923 14.578846 0.577132 14.633654 0.578323 14.688462 0.580501 14.743269 0.583670 14.798077 0.587836 14.852885 0.593001 14.907692 0.599171 14.962500 0.606350 15.017308 0.614541 15.072115 0.623751 15.126923 0.633982 15.181731 0.645239 15.236538 0.657527 15.291346 0.670849 15.346154 0.685211 15.400962 0.700617 15.455769 0.717070 15.510577 0.734576 15.565385 0.753138 15.620192 0.772761 15.675000 0.793450 15.729808 0.815208 15.784615 0.838040 15.839423 0.861950 15.894231 0.886944 15.949038 0.913022 16.003846 0.940180 16.058654 0.968411 16.113462 0.997708 16.168269 1.028063 16.223077 1.059469 16.277885 1.091919 16.332692 1.125406 16.387500 1.159922 16.442308 1.195462 16.497115 1.232016 16.551923 1.269579 16.606731 1.308143 16.661538 1.347700 16.716346 1.388245 16.771154 1.429768 16.825962 1.472265 16.880769 1.515726 16.935577 1.560145 16.990385 1.605515 17.045192 1.651829 17.100000 1.699079 17.154808 1.747259 17.209615 1.796361 17.264423 1.846378 17.319231 1.897302 17.374038 1.949127 17.428846 2.001846 17.483654 2.055451 17.538462 2.109935 17.593269 2.165291 17.648077 2.221512 17.702885 2.278591 17.757692 2.336520 17.812500 2.395292 17.867308 2.454900 17.922115 2.515338 17.976923 2.576597 18.031731 2.638671 18.086538 2.701552 18.141346 2.765233 18.196154 2.829708 18.250962 2.894968 18.305769 2.961008 18.360577 3.027819 18.415385 3.095394 18.470192 3.163726 18.525000 3.232809 18.579808 3.302635 18.634615 3.373196 18.689423 3.444486 18.744231 3.516497 18.799038 3.589222 18.853846 3.662655 18.908654 3.736788 18.963462 3.811613 19.018269 3.887124 19.073077 3.963313 19.127885 4.040173 19.182692 4.117698 19.237500 4.195879 19.292308 4.274710 19.347115 4.354184 19.401923 4.434292 19.456731 4.515030 19.511538 4.596388 19.566346 4.678360 19.621154 4.760939 19.675962 4.844117 19.730769 4.927888 19.785577 5.012243 19.840385 5.097177 19.895192 5.182682 19.950000 5.268750 20.004808 5.355375 20.059615 5.442550 20.114423 5.530266 20.169231 5.618517 20.224038 5.707297 20.278846 5.796597 20.333654 5.886410 20.388462 5.976730 20.443269 6.067549 20.498077 6.158859 20.552885 6.250655 20.607692 6.342928 20.662500 6.435672 20.717308 6.528879 20.772115 6.622543 20.826923 6.716655 20.881731 6.811209 20.936538 6.906198 20.991346 7.001614 21.046154 7.097450 21.100962 7.193700 21.155769 7.290355 21.210577 7.387409 21.265385 7.484855 21.320192 7.582686 21.375000 7.680893 21.429808 7.779471 21.484615 7.878411 21.539423 7.977708 21.594231 8.077353 21.649038 8.177339 21.703846 8.277660 21.758654 8.378308 21.813462 8.479275 21.868269 8.580556 21.923077 8.682142 21.977885 8.784026 22.032692 8.886202 22.087500 8.988662 22.142308 9.091398 22.197115 9.194405 22.251923 9.297674 22.306731 9.401198 22.361538 9.504970 22.416346 9.608984 22.471154 9.713231 22.525962 9.817706 22.580769 9.922399 22.635577 10.027305 22.690385 10.132417 22.745192 10.237726 22.800000 10.343226 22.854808 10.448910 22.909615 10.554771 22.964423 10.660801 23.019231 10.766993 23.074038 10.873340 23.128846 10.979834 23.183654 11.086470 23.238462 11.193239 23.293269 11.300134 23.348077 11.407149 23.402885 11.514276 23.457692 11.621507 23.512500 11.728836 23.567308 11.836256 23.622115 11.943759 23.676923 12.051338 23.731731 12.158986 23.786538 12.266696 23.841346 12.374460 23.896154 12.482272 23.950962 12.590124 24.005769 12.698010 24.060577 12.805921 24.115385 12.913851 24.170192 13.021793 24.225000 13.129740 24.279808 13.237683 24.334615 13.345617 24.389423 13.453534 24.444231 13.561426 24.499038 13.669287 24.553846 13.777110 24.608654 13.884886 24.663462 13.992610 24.718269 14.100274 24.773077 14.207871 24.827885 14.315393 24.882692 14.422833 24.937500 14.530185 24.992308 14.637441 25.047115 14.744594 25.101923 14.851637 25.156731 14.958562 25.211538 15.065363 25.266346 15.172031 25.321154 15.278561 25.375962 15.384945 25.430769 15.491176 25.485577 15.597246 25.540385 15.703148 25.595192 15.808876 25.650000 15.914422 25.704808 16.019779 25.759615 16.124939 25.814423 16.229896 25.869231 16.334642 25.924038 16.439171 25.978846 16.543474 26.033654 16.647546 26.088462 16.751378 26.143269 16.854964 26.198077 16.958296 26.252885 17.061367 26.307692 17.164170 26.362500 17.266698 26.417308 17.368944 26.472115 17.470900 26.526923 17.572560 26.581731 17.673916 26.636538 17.774961 26.691346 17.875687 26.746154 17.976089 26.800962 18.076157 26.855769 18.175887 26.910577 18.275269 26.965385 18.374297 27.020192 18.472964 27.075000 18.571263 27.129808 18.669186 27.184615 18.766727 27.239423 18.863877 27.294231 18.960631 27.349038 19.056980 27.403846 19.152919 27.458654 19.248438 27.513462 19.343532 27.568269 19.438193 27.623077 19.532414 27.677885 19.626188 27.732692 19.719507 27.787500 19.812365 27.842308 19.904754 27.897115 19.996667 27.951923 20.088097 28.006731 20.179037 28.061538 20.269479 28.116346 20.359417 28.171154 20.448843 28.225962 20.537750 28.280769 20.626131 28.335577 20.713979 28.390385 20.801287 28.445192 20.888047 28.500000 20.974252 28.554808 21.059895 28.609615 21.144969 28.664423 21.229467 28.719231 21.313381 28.774038 21.396705 28.828846 21.479431 28.883654 21.561552 28.938462 21.643061 28.993269 21.723951 29.048077 21.804214 29.102885 21.883844 29.157692 21.962833 29.212500 22.041173 29.267308 22.118859 29.322115 22.195883 29.376923 22.272237 29.431731 22.347914 29.486538 22.422907 29.541346 22.497210 29.596154 22.570814 29.650962 22.643715 29.705769 22.715914 29.760577 22.787415 29.815385 22.858221 29.870192 22.928336 29.925000 22.997763 29.979808 23.066505 30.034615 23.134567 30.089423 23.201952 30.144231 23.268663 30.199038 23.334704 30.253846 23.400078 30.308654 23.464789 30.363462 23.528841 30.418269 23.592236 30.473077 23.654979 30.527885 23.717072 30.582692 23.778520 30.637500 23.839326 30.692308 23.899494 30.747115 23.959026 30.801923 24.017927 30.856731 24.076199 30.911538 24.133848 30.966346 24.190875 31.021154 24.247284 31.075962 24.303080 31.130769 24.358266 31.185577 24.412844 31.240385 24.466819 31.295192 24.520194 31.350000 24.572972 31.404808 24.625158 31.459615 24.676754 31.514423 24.727765 31.569231 24.778193 31.624038 24.828042 31.678846 24.877316 31.733654 24.926018 31.788462 24.974152 31.843269 25.021721 31.898077 25.068728 31.952885 25.115178 32.007692 25.161074 32.062500 25.206419 32.117308 25.251217 32.172115 25.295471 32.226923 25.339185 32.281731 25.382362 32.336538 25.425006 32.391346 25.467120 32.446154 25.508708 32.500962 25.549774 32.555769 25.590320 32.610577 25.630351 32.665385 25.669870 32.720192 25.708880 32.775000 25.747385 32.829808 25.785388 32.884615 25.822894 32.939423 25.859905 32.994231 25.896425 33.049038 25.932457 33.103846 25.968006 33.158654 26.003074 33.213462 26.037665 33.268269 26.071782 33.323077 26.105430 33.377885 26.138611 33.432692 26.171329 33.487500 26.203588 33.542308 26.235391 33.597115 26.266742 33.651923 26.297644 33.706731 26.328100 33.761538 26.358115 33.816346 26.387691 33.871154 26.416833 33.925962 26.445543 33.980769 26.473825 34.035577 26.501684 34.090385 26.529121 34.145192 26.556141 34.200000 26.582748 34.254808 26.608944 34.309615 26.634734 34.364423 26.660120 34.419231 26.685107 34.474038 26.709697 34.528846 26.733895 34.583654 26.757704 34.638462 26.781127 34.693269 26.804168 34.748077 26.826831 34.802885 26.849118 34.857692 26.871034 34.912500 26.892582 34.967308 26.913765 35.022115 26.934587 35.076923 26.955052 35.131731 26.975163 35.186538 26.994923 35.241346 27.014336 35.296154 27.033406 35.350962 27.052136 35.405769 27.070529 35.460577 27.088589 35.515385 27.106321 35.570192 27.123726 35.625000 27.140809 35.679808 27.157572 35.734615 27.174021 35.789423 27.190158 35.844231 27.205986 35.899038 27.221510 35.953846 27.236732 36.008654 27.251657 36.063462 27.266287 36.118269 27.280626 36.173077 27.294678 36.227885 27.308447 36.282692 27.321935 36.337500 27.335147 36.392308 27.348085 36.447115 27.360754 36.501923 27.373156 36.556731 27.385296 36.611538 27.397177 36.666346 27.408802 36.721154 27.420175 36.775962 27.431299 36.830769 27.442178 36.885577 27.452816 36.940385 27.463216 36.995192 27.473381 37.050000 27.483315 37.104808 27.493021 37.159615 27.502504 37.214423 27.511766 37.269231 27.520811 37.324038 27.529642 37.378846 27.538264 37.433654 27.546679 37.488462 27.554891 37.543269 27.562904 37.598077 27.570721 37.652885 27.578345 37.707692 27.585781 37.762500 27.593031 37.817308 27.600099 37.872115 27.606989 37.926923 27.613704 37.981731 27.620248 38.036538 27.626624 38.091346 27.632836 38.146154 27.638887 38.200962 27.644781 38.255769 27.650521 38.310577 27.656111 38.365385 27.661554 38.420192 27.666853 38.475000 27.672014 38.529808 27.677037 38.584615 27.681929 38.639423 27.686691 38.694231 27.691327 38.749038 27.695842 38.803846 27.700237 38.858654 27.704518 38.913462 27.708687 38.968269 27.712748 39.023077 27.716704 39.077885 27.720560 39.132692 27.724318 39.187500 27.727981 39.242308 27.731555 39.297115 27.735041 39.351923 27.738444 39.406731 27.741766 39.461538 27.745013 39.516346 27.748186 39.571154 27.751290 39.625962 27.754328 39.680769 27.757304 39.735577 27.760221 39.790385 27.763082 39.845192 27.765892 39.900000 27.768653 39.954808 27.771369 40.009615 27.774044 40.064423 27.776681 40.119231 27.779284 40.174038 27.781856 40.228846 27.784401 40.283654 27.786922 40.338462 27.789423 40.393269 27.791907 40.448077 27.794378 40.502885 27.796839 40.557692 27.799294 40.612500 27.801746 40.667308 27.804199 40.722115 27.806656 40.776923 27.809122 40.831731 27.811598 40.886538 27.814090 40.941346 27.816600 40.996154 27.819132 41.050962 27.821689 41.105769 27.824275 41.160577 27.826894 41.215385 27.829548 41.270192 27.832243 41.325000 27.834980 41.379808 27.837763 41.434615 27.840597 41.489423 27.843484 41.544231 27.846428 41.599038 27.849433 41.653846 27.852502 41.708654 27.855638 41.763462 27.858845 41.818269 27.862127 41.873077 27.865488 41.927885 27.868929 41.982692 27.872456 42.037500 27.876072 42.092308 27.879780 42.147115 27.883583 42.201923 27.887486 42.256731 27.891491 42.311538 27.895603 42.366346 27.899824 42.421154 27.904159 42.475962 27.908610 42.530769 27.913182 42.585577 27.917878 42.640385 27.922700 42.695192 27.927654 42.750000 27.932742 42.804808 27.937968 42.859615 27.943335 42.914423 27.948847 42.969231 27.954507 43.024038 27.960319 43.078846 27.966287 43.133654 27.972414 43.188462 27.978703 43.243269 27.985158 43.298077 27.991782 43.352885 27.998578 43.407692 28.005545 43.462500 28.012679 43.517308 28.019978 43.572115 28.027439 43.626923 28.035060 43.681731 28.042837 43.736538 28.050768 43.791346 28.058850 43.846154 28.067081 43.900962 28.075457 43.955769 28.083977 44.010577 28.092637 44.065385 28.101435 44.120192 28.110367 44.175000 28.119432 44.229808 28.128626 44.284615 28.137947 44.339423 28.147391 44.394231 28.156957 44.449038 28.166642 44.503846 28.176443 44.558654 28.186357 44.613462 28.196381 44.668269 28.206512 44.723077 28.216749 44.777885 28.227088 44.832692 28.237527 44.887500 28.248062 44.942308 28.258692 44.997115 28.269413 45.051923 28.280222 45.106731 28.291118 45.161538 28.302097 45.216346 28.313156 45.271154 28.324293 45.325962 28.335505 45.380769 28.346789 45.435577 28.358143 45.490385 28.369564 45.545192 28.381049 45.600000 28.392596 45.654808 28.404201 45.709615 28.415862 45.764423 28.427577 45.819231 28.439342 45.874038 28.451155 45.928846 28.463014 45.983654 28.474914 46.038462 28.486854 46.093269 28.498832 46.148077 28.510843 46.202885 28.522886 46.257692 28.534958 46.312500 28.547056 46.367308 28.559178 46.422115 28.571320 46.476923 28.583480 46.531731 28.595655 46.586538 28.607843 46.641346 28.620040 46.696154 28.632245 46.750962 28.644454 46.805769 28.656664 46.860577 28.668874 46.915385 28.681079 46.970192 28.693278 47.025000 28.705468 47.079808 28.717646 47.134615 28.729809 47.189423 28.741955 47.244231 28.754081 47.299038 28.766183 47.353846 28.778261 47.408654 28.790309 47.463462 28.802327 47.518269 28.814311 47.573077 28.826259 47.627885 28.838167 47.682692 28.850034 47.737500 28.861856 47.792308 28.873631 47.847115 28.885355 47.901923 28.897027 47.956731 28.908643 48.011538 28.920201 48.066346 28.931699 48.121154 28.943132 48.175962 28.954499 48.230769 28.965797 48.285577 28.977023 48.340385 28.988175 48.395192 28.999249 48.450000 29.010244 48.504808 29.021156 48.559615 29.031982 48.614423 29.042720 48.669231 29.053368 48.724038 29.063921 48.778846 29.074379 48.833654 29.084737 48.888462 29.094994 48.943269 29.105146 48.998077 29.115191 49.052885 29.125126 49.107692 29.134949 49.162500 29.144656 49.217308 29.154246 49.272115 29.163714 49.326923 29.173059 49.381731 29.182278 49.436538 29.191367 49.491346 29.200326 49.546154 29.209149 49.600962 29.217836 49.655769 29.226383 49.710577 29.234787 49.765385 29.243046 49.820192 29.251157 49.875000 29.259118 49.929808 29.266925 49.984615 29.274576 50.039423 29.282068 50.094231 29.289398 50.149038 29.296564 50.203846 29.303563 50.258654 29.310393 50.313462 29.317050 50.368269 29.323531 50.423077 29.329835 50.477885 29.335958 50.532692 29.341898 50.587500 29.347652 50.642308 29.353217 50.697115 29.358591 50.751923 29.363770 50.806731 29.368753 50.861538 29.373536 50.916346 29.378116 50.971154 29.382492 51.025962 29.386659 51.080769 29.390616 51.135577 29.394360 51.190385 29.397888 51.245192 29.401197 51.300000 29.404285 51.354808 29.407148 51.409615 29.409785 51.464423 29.412192 51.519231 29.414367 51.574038 29.416307 51.628846 29.418009 51.683654 29.419470 51.738462 29.420689 51.793269 29.421662 51.848077 29.422386 51.902885 29.422858 51.957692 29.423077 52.012500 29.423039 52.067308 29.422741 52.122115 29.422181 52.176923 29.421357 52.231731 29.420264 52.286538 29.418901 52.341346 29.417265 52.396154 29.415354 52.450962 29.413164 52.505769 29.410692 52.560577 29.407937 52.615385 29.404895 52.670192 29.401563 52.725000 29.397939 52.779808 29.394021 52.834615 29.389805 52.889423 29.385289 52.944231 29.380469 52.999038 29.375344 53.053846 29.369911 53.108654 29.364166 53.163462 29.358107 53.218269 29.351732 53.273077 29.345038 53.327885 29.338021 53.382692 29.330680 53.437500 29.323011 53.492308 29.315012 53.547115 29.306680 53.601923 29.298012 53.656731 29.289006 53.711538 29.279659 53.766346 29.269968 53.821154 29.259931 53.875962 29.249544 53.930769 29.238806 53.985577 29.227712 54.040385 29.216262 54.095192 29.204451 54.150000 29.192277 54.204808 29.179738 54.259615 29.166831 54.314423 29.153552 54.369231 29.139900 54.424038 29.125871 54.478846 29.111463 54.533654 29.096674 54.588462 29.081499 54.643269 29.065938 54.698077 29.049986 54.752885 29.033641 54.807692 29.016901 54.862500 28.999763 54.917308 28.982224 54.972115 28.964282 55.026923 28.945932 55.081731 28.927174 55.136538 28.908004 55.191346 28.888420 55.246154 28.868418 55.300962 28.847996 55.355769 28.827152 55.410577 28.805882 55.465385 28.784184 55.520192 28.762056 55.575000 28.739493 55.629808 28.716495 55.684615 28.693057 55.739423 28.669178 55.794231 28.644854 55.849038 28.620083 55.903846 28.594862 55.958654 28.569189 56.013462 28.543060 56.068269 28.516473 56.123077 28.489426 56.177885 28.461915 56.232692 28.433937 56.287500 28.405491 56.342308 28.376573 56.397115 28.347181 56.451923 28.317312 56.506731 28.286963 56.561538 28.256132 56.616346 28.224815 56.671154 28.193010 56.725962 28.160715 56.780769 28.127926 56.835577 28.094641 56.890385 28.060857 56.945192 28.026572 57.000000 27.991782 57.054808 27.956487 57.109615 27.920690 57.164423 27.884396 57.219231 27.847612 57.274038 27.810341 57.328846 27.772590 57.383654 27.734364 57.438462 27.695667 57.493269 27.656506 57.548077 27.616886 57.602885 27.576811 57.657692 27.536288 57.712500 27.495321 57.767308 27.453915 57.822115 27.412077 57.876923 27.369811 57.931731 27.327122 57.986538 27.284016 58.041346 27.240499 58.096154 27.196575 58.150962 27.152249 58.205769 27.107528 58.260577 27.062415 58.315385 27.016918 58.370192 26.971040 58.425000 26.924787 58.479808 26.878165 58.534615 26.831178 58.589423 26.783832 58.644231 26.736133 58.699038 26.688085 58.753846 26.639694 58.808654 26.590965 58.863462 26.541904 58.918269 26.492515 58.973077 26.442804 59.027885 26.392776 59.082692 26.342437 59.137500 26.291792 59.192308 26.240846 59.247115 26.189604 59.301923 26.138072 59.356731 26.086255 59.411538 26.034158 59.466346 25.981786 59.521154 25.929146 59.575962 25.876241 59.630769 25.823078 59.685577 25.769662 59.740385 25.715997 59.795192 25.662090 59.850000 25.607946 59.904808 25.553569 59.959615 25.498965 60.014423 25.444140 60.069231 25.389098 60.124038 25.333845 60.178846 25.278387 60.233654 25.222728 60.288462 25.166873 60.343269 25.110829 60.398077 25.054600 60.452885 24.998192 60.507692 24.941610 60.562500 24.884859 60.617308 24.827945 60.672115 24.770872 60.726923 24.713647 60.781731 24.656273 60.836538 24.598758 60.891346 24.541105 60.946154 24.483321 61.000962 24.425410 61.055769 24.367378 61.110577 24.309230 61.165385 24.250971 61.220192 24.192607 61.275000 24.134143 61.329808 24.075584 61.384615 24.016936 61.439423 23.958203 61.494231 23.899392 61.549038 23.840507 61.603846 23.781553 61.658654 23.722537 61.713462 23.663462 61.768269 23.604335 61.823077 23.545161 61.877885 23.485945 61.932692 23.426692 61.987500 23.367408 62.042308 23.308098 62.097115 23.248767 62.151923 23.189421 62.206731 23.130064 62.261538 23.070702 62.316346 23.011341 62.371154 22.951985 62.425962 22.892641 62.480769 22.833312 62.535577 22.774005 62.590385 22.714725 62.645192 22.655476 62.700000 22.596265 62.754808 22.537097 62.809615 22.477977 62.864423 22.418909 62.919231 22.359901 62.974038 22.300956 63.028846 22.242080 63.083654 22.183278 63.138462 22.124556 63.193269 22.065919 63.248077 22.007372 63.302885 21.948920 63.357692 21.890570 63.412500 21.832325 63.467308 21.774192 63.522115 21.716175 63.576923 21.658280 63.631731 21.600512 63.686538 21.542877 63.741346 21.485380 63.796154 21.428025 63.850962 21.370819 63.905769 21.313766 63.960577 21.256873 64.015385 21.200143 64.070192 21.143583 64.125000 21.087198 64.179808 21.030993 64.234615 20.974973 64.289423 20.919143 64.344231 20.863510 64.399038 20.808077 64.453846 20.752851 64.508654 20.697837 64.563462 20.643040 64.618269 20.588465 64.673077 20.534118 64.727885 20.480004 64.782692 20.426127 64.837500 20.372495 64.892308 20.319111 64.947115 20.265981 65.001923 20.213110 65.056731 20.160504 65.111538 20.108167 65.166346 20.056106 65.221154 20.004325 65.275962 19.952830 65.330769 19.901626 65.385577 19.850719 65.440385 19.800113 65.495192 19.749813 65.550000 19.699826 65.604808 19.650156 65.659615 19.600809 65.714423 19.551790 65.769231 19.503105 65.824038 19.454758 65.878846 19.406754 65.933654 19.359100 65.988462 19.311800 66.043269 19.264860 66.098077 19.218285 66.152885 19.172081 66.207692 19.126251 66.262500 19.080803 66.317308 19.035741 66.372115 18.991070 66.426923 18.946796 66.481731 18.902924 66.536538 18.859459 66.591346 18.816406 66.646154 18.773772 66.700962 18.731561 66.755769 18.689778 66.810577 18.648429 66.865385 18.607518 66.920192 18.567052 66.975000 18.527036 67.029808 18.487474 67.084615 18.448373 67.139423 18.409737 67.194231 18.371571 67.249038 18.333882 67.303846 18.296674 67.358654 18.259952 67.413462 18.223722 67.468269 18.187989 67.523077 18.152759 67.577885 18.118036 67.632692 18.083827 67.687500 18.050135 67.742308 18.016968 67.797115 17.984328 67.851923 17.952224 67.906731 17.920658 67.961538 17.889637 68.016346 17.859166 68.071154 17.829250 68.125962 17.799895 68.180769 17.771106 68.235577 17.742888 68.290385 17.715246 68.345192 17.688186 68.400000 17.661712 68.454808 17.635831 68.509615 17.610548 68.564423 17.585867 68.619231 17.561795 68.674038 17.538336 68.728846 17.515495 68.783654 17.493278 68.838462 17.471691 68.893269 17.450738 68.948077 17.430425 69.002885 17.410757 69.057692 17.391740 69.112500 17.373378 69.167308 17.355677 69.222115 17.338642 69.276923 17.322279 69.331731 17.306592 69.386538 17.291588 69.441346 17.277271 69.496154 17.263646 69.550962 17.250720 69.605769 17.238497 69.660577 17.226982 69.715385 17.216181 69.770192 17.206099 69.825000 17.196742 69.879808 17.188114 69.934615 17.180221 69.989423 17.173068 70.044231 17.166661 70.099038 17.161004 70.153846 17.156104 70.208654 17.151965 70.263462 17.148593 70.318269 17.145992 70.373077 17.144169 70.427885 17.143128 70.482692 17.142875 70.537500 17.143415 70.592308 17.144754 70.647115 17.146896 70.701923 17.149847 70.756731 17.153610 70.811538 17.158181 70.866346 17.163555 70.921154 17.169726 70.975962 17.176686 71.030769 17.184432 71.085577 17.192956 71.140385 17.202252 71.195192 17.212316 71.250000 17.223140 71.304808 17.234719 71.359615 17.247047 71.414423 17.260118 71.469231 17.273927 71.524038 17.288466 71.578846 17.303731 71.633654 17.319715 71.688462 17.336413 71.743269 17.353817 71.798077 17.371924 71.852885 17.390726 71.907692 17.410218 71.962500 17.430393 72.017308 17.451247 72.072115 17.472772 72.126923 17.494963 72.181731 17.517814 72.236538 17.541320 72.291346 17.565473 72.346154 17.590269 72.400962 17.615701 72.455769 17.641764 72.510577 17.668451 72.565385 17.695756 72.620192 17.723674 72.675000 17.752199 72.729808 17.781324 72.784615 17.811045 72.839423 17.841354 72.894231 17.872246 72.949038 17.903715 73.003846 17.935755 73.058654 17.968361 73.113462 18.001525 73.168269 18.035243 73.223077 18.069509 73.277885 18.104315 73.332692 18.139658 73.387500 18.175530 73.442308 18.211925 73.497115 18.248838 73.551923 18.286264 73.606731 18.324194 73.661538 18.362625 73.716346 18.401550 73.771154 18.440963 73.825962 18.480858 73.880769 18.521230 73.935577 18.562071 73.990385 18.603377 74.045192 18.645142 74.100000 18.687359 74.154808 18.730022 74.209615 18.773127 74.264423 18.816666 74.319231 18.860633 74.374038 18.905024 74.428846 18.949831 74.483654 18.995050 74.538462 19.040673 74.593269 19.086696 74.648077 19.133112 74.702885 19.179915 74.757692 19.227100 74.812500 19.274660 74.867308 19.322589 74.922115 19.370882 74.976923 19.419533 75.031731 19.468536 75.086538 19.517884 75.141346 19.567572 75.196154 19.617594 75.250962 19.667944 75.305769 19.718616 75.360577 19.769604 75.415385 19.820902 75.470192 19.872505 75.525000 19.924406 75.579808 19.976599 75.634615 20.029079 75.689423 20.081839 75.744231 20.134874 75.799038 20.188178 75.853846 20.241745 75.908654 20.295568 75.963462 20.349642 76.018269 20.403961 76.073077 20.458520 76.127885 20.513311 76.182692 20.568330 76.237500 20.623569 76.292308 20.679025 76.347115 20.734689 76.401923 20.790557 76.456731 20.846623 76.511538 20.902880 76.566346 20.959323 76.621154 21.015946 76.675962 21.072742 76.730769 21.129706 76.785577 21.186833 76.840385 21.244115 76.895192 21.301548 76.950000 21.359124 77.004808 21.416839 77.059615 21.474687 77.114423 21.532660 77.169231 21.590754 77.224038 21.648963 77.278846 21.707280 77.333654 21.765700 77.388462 21.824217 77.443269 21.882824 77.498077 21.941517 77.552885 22.000288 77.607692 22.059132 77.662500 22.118044 77.717308 22.177016 77.772115 22.236044 77.826923 22.295121 77.881731 22.354242 77.936538 22.413400 77.991346 22.472589 78.046154 22.531804 78.100962 22.591039 78.155769 22.650288 78.210577 22.709544 78.265385 22.768802 78.320192 22.828056 78.375000 22.887300 78.429808 22.946529 78.484615 23.005735 78.539423 23.064914 78.594231 23.124059 78.649038 23.183164 78.703846 23.242224 78.758654 23.301232 78.813462 23.360183 78.868269 23.419070 78.923077 23.477888 78.977885 23.536631 79.032692 23.595293 79.087500 23.653868 79.142308 23.712350 79.197115 23.770733 79.251923 23.829011 79.306731 23.887178 79.361538 23.945228 79.416346 24.003156 79.471154 24.060955 79.525962 24.118620 79.580769 24.176145 79.635577 24.233523 79.690385 24.290748 79.745192 24.347816 79.800000 24.404719 79.854808 24.461452 79.909615 24.518010 79.964423 24.574385 80.019231 24.630573 80.074038 24.686566 80.128846 24.742360 80.183654 24.797948 80.238462 24.853325 80.293269 24.908484 80.348077 24.963420 80.402885 25.018127 80.457692 25.072598 80.512500 25.126827 80.567308 25.180810 80.622115 25.234540 80.676923 25.288010 80.731731 25.341216 80.786538 25.394151 80.841346 25.446809 80.896154 25.499184 80.950962 25.551271 81.005769 25.603063 81.060577 25.654554 81.115385 25.705739 81.170192 25.756612 81.225000 25.807166 81.279808 25.857396 81.334615 25.907296 81.389423 25.956860 81.444231 26.006081 81.499038 26.054955 81.553846 26.103475 81.608654 26.151635 81.663462 26.199430 81.718269 26.246852 81.773077 26.293897 81.827885 26.340559 81.882692 26.386831 81.937500 26.432708 81.992308 26.478183 82.047115 26.523251 82.101923 26.567906 82.156731 26.612142 82.211538 26.655953 82.266346 26.699333 82.321154 26.742275 82.375962 26.784776 82.430769 26.826827 82.485577 26.868423 82.540385 26.909560 82.595192 26.950229 82.650000 26.990426 82.704808 27.030145 82.759615 27.069379 82.814423 27.108123 82.869231 27.146371 82.924038 27.184116 82.978846 27.221354 83.033654 27.258078 83.088462 27.294281 83.143269 27.329959 83.198077 27.365105 83.252885 27.399714 83.307692 27.433779 83.362500 27.467294 83.417308 27.500254 83.472115 27.532652 83.526923 27.564483 83.581731 27.595741 83.636538 27.626419 83.691346 27.656513 83.746154 27.686015 83.800962 27.714920 83.855769 27.743223 83.910577 27.770916 83.965385 27.797995 84.020192 27.824453 84.075000 27.850285 84.129808 27.875484 84.184615 27.900044 84.239423 27.923960 84.294231 27.947226 84.349038 27.969835 84.403846 27.991782 84.458654 28.013063 84.513462 28.033679 84.568269 28.053635 84.623077 28.072934 84.677885 28.091581 84.732692 28.109578 84.787500 28.126931 84.842308 28.143643 84.897115 28.159717 84.951923 28.175158 85.006731 28.189970 85.061538 28.204156 85.116346 28.217720 85.171154 28.230666 85.225962 28.242998 85.280769 28.254720 85.335577 28.265835 85.390385 28.276348 85.445192 28.286262 85.500000 28.295582 85.554808 28.304310 85.609615 28.312452 85.664423 28.320010 85.719231 28.326989 85.774038 28.333392 85.828846 28.339224 85.883654 28.344488 85.938462 28.349188 85.993269 28.353329 86.048077 28.356913 86.102885 28.359944 86.157692 28.362427 86.212500 28.364366 86.267308 28.365764 86.322115 28.366625 86.376923 28.366953 86.431731 28.366752 86.486538 28.366026 86.541346 28.364778 86.596154 28.363013 86.650962 28.360733 86.705769 28.357945 86.760577 28.354650 86.815385 28.350853 86.870192 28.346557 86.925000 28.341768 86.979808 28.336488 87.034615 28.330721 87.089423 28.324471 87.144231 28.317743 87.199038 28.310539 87.253846 28.302864 87.308654 28.294722 87.363462 28.286116 87.418269 28.277051 87.473077 28.267529 87.527885 28.257556 87.582692 28.247135 87.637500 28.236270 87.692308 28.224964 87.747115 28.213222 87.801923 28.201047 87.856731 28.188443 87.911538 28.175415 87.966346 28.161965 88.021154 28.148099 88.075962 28.133819 88.130769 28.119129 88.185577 28.104034 88.240385 28.088538 88.295192 28.072643 88.350000 28.056354 88.404808 28.039676 88.459615 28.022611 88.514423 28.005163 88.569231 27.987337 88.624038 27.969137 88.678846 27.950565 88.733654 27.931626 88.788462 27.912325 88.843269 27.892664 88.898077 27.872648 88.952885 27.852280 89.007692 27.831564 89.062500 27.810505 89.117308 27.789106 89.172115 27.767371 89.226923 27.745303 89.281731 27.722907 89.336538 27.700187 89.391346 27.677146 89.446154 27.653788 89.500962 27.630117 89.555769 27.606137 89.610577 27.581852 89.665385 27.557266 89.720192 27.532382 89.775000 27.507205 89.829808 27.481737 89.884615 27.455984 89.939423 27.429949 89.994231 27.403636 90.049038 27.377048 90.103846 27.350190 90.158654 27.323066 90.213462 27.295678 90.268269 27.268032 90.323077 27.240131 90.377885 27.211979 90.432692 27.183579 90.487500 27.154936 90.542308 27.126053 90.597115 27.096935 90.651923 27.067585 90.706731 27.038007 90.761538 27.008204 90.816346 26.978182 90.871154 26.947943 90.925962 26.917492 90.980769 26.886832 91.035577 26.855967 91.090385 26.824901 91.145192 26.793638 91.200000 26.762182 91.254808 26.730536 91.309615 26.698705 91.364423 26.666693 91.419231 26.634502 91.474038 26.602138 91.528846 26.569603 91.583654 26.536903 91.638462 26.504040 91.693269 26.471018 91.748077 26.437842 91.802885 26.404516 91.857692 26.371042 91.912500 26.337425 91.967308 26.303669 92.022115 26.269778 92.076923 26.235756 92.131731 26.201605 92.186538 26.167331 92.241346 26.132938 92.296154 26.098428 92.350962 26.063806 92.405769 26.029076 92.460577 25.994241 92.515385 25.959306 92.570192 25.924274 92.625000 25.889149 92.679808 25.853935 92.734615 25.818637 92.789423 25.783256 92.844231 25.747799 92.899038 25.712268 92.953846 25.676667 93.008654 25.641001 93.063462 25.605272 93.118269 25.569486 93.173077 25.533645 93.227885 25.497754 93.282692 25.461817 93.337500 25.425836 93.392308 25.389817 93.447115 25.353763 93.501923 25.317678 93.556731 25.281566 93.611538 25.245431 93.666346 25.209276 93.721154 25.173105 93.775962 25.136923 93.830769 25.100733 93.885577 25.064538 93.940385 25.028344 93.995192 24.992153 94.050000 24.955970 94.104808 24.919798 94.159615 24.883642 94.214423 24.847504 94.269231 24.811390 94.324038 24.775302 94.378846 24.739246 94.433654 24.703223 94.488462 24.667240 94.543269 24.631298 94.598077 24.595403 94.652885 24.559558 94.707692 24.523766 94.762500 24.488033 94.817308 24.452361 94.872115 24.416754 94.926923 24.381217 94.981731 24.345753 95.036538 24.310366 95.091346 24.275060 95.146154 24.239839 95.200962 24.204706 95.255769 24.169666 95.310577 24.134722 95.365385 24.099878 95.420192 24.065139 95.475000 24.030507 95.529808 23.995988 95.584615 23.961584 95.639423 23.927299 95.694231 23.893138 95.749038 23.859104 95.803846 23.825201 95.858654 23.791434 95.913462 23.757805 95.968269 23.724318 96.023077 23.690979 96.077885 23.657789 96.132692 23.624754 96.187500 23.591877 96.242308 23.559162 96.297115 23.526613 96.351923 23.494234 96.406731 23.462028 96.461538 23.430000 96.516346 23.398153 96.571154 23.366491 96.625962 23.335019 96.680769 23.303739 96.735577 23.272655 96.790385 23.241773 96.845192 23.211095 96.900000 23.180625 96.954808 23.150368 97.009615 23.120326 97.064423 23.090505 97.119231 23.060907 97.174038 23.031537 97.228846 23.002398 97.283654 22.973495 97.338462 22.944831 97.393269 22.916410 97.448077 22.888236 97.502885 22.860312 97.557692 22.832644 97.612500 22.805234 97.667308 22.778086 97.722115 22.751205 97.776923 22.724593 97.831731 22.698256 97.886538 22.672197 97.941346 22.646419 97.996154 22.620927 98.050962 22.595724 98.105769 22.570814 98.160577 22.546201 98.215385 22.521884 98.270192 22.497861 98.325000 22.474132 98.379808 22.450696 98.434615 22.427550 98.489423 22.404695 98.544231 22.382128 98.599038 22.359850 98.653846 22.337857 98.708654 22.316150 98.763462 22.294727 98.818269 22.273586 98.873077 22.252728 98.927885 22.232150 98.982692 22.211851 99.037500 22.191830 99.092308 22.172087 99.147115 22.152619 99.201923 22.133425 99.256731 22.114505 99.311538 22.095857 99.366346 22.077480 99.421154 22.059373 99.475962 22.041535 99.530769 22.023964 99.585577 22.006659 99.640385 21.989619 99.695192 21.972843 99.750000 21.956330 99.804808 21.940079 99.859615 21.924087 99.914423 21.908355 99.969231 21.892880 100.024038 21.877663 100.078846 21.862700 100.133654 21.847993 100.188462 21.833538 100.243269 21.819335 100.298077 21.805384 100.352885 21.791681 100.407692 21.778227 100.462500 21.765021 100.517308 21.752060 100.572115 21.739344 100.626923 21.726872 100.681731 21.714643 100.736538 21.702654 100.791346 21.690906 100.846154 21.679396 100.900962 21.668125 100.955769 21.657090 101.010577 21.646290 101.065385 21.635724 101.120192 21.625391 101.175000 21.615290 101.229808 21.605420 101.284615 21.595779 101.339423 21.586366 101.394231 21.577181 101.449038 21.568221 101.503846 21.559485 101.558654 21.550973 101.613462 21.542684 101.668269 21.534615 101.723077 21.526767 101.777885 21.519137 101.832692 21.511724 101.887500 21.504528 101.942308 21.497547 101.997115 21.490780 102.051923 21.484226 102.106731 21.477883 102.161538 21.471751 102.216346 21.465828 102.271154 21.460112 102.325962 21.454604 102.380769 21.449301 102.435577 21.444203 102.490385 21.439308 102.545192 21.434615 102.600000 21.430123 102.654808 21.425830 102.709615 21.421736 102.764423 21.417840 102.819231 21.414139 102.874038 21.410633 102.928846 21.407321 102.983654 21.404202 103.038462 21.401274 103.093269 21.398536 103.148077 21.395987 103.202885 21.393626 103.257692 21.391452 103.312500 21.389463 103.367308 21.387658 103.422115 21.386036 103.476923 21.384596 103.531731 21.383337 103.586538 21.382257 103.641346 21.381356 103.696154 21.380631 103.750962 21.380083 103.805769 21.379709 103.860577 21.379509 103.915385 21.379481 103.970192 21.379624 104.025000 21.379937 104.079808 21.380419 104.134615 21.381069 104.189423 21.381885 104.244231 21.382866 104.299038 21.384011 104.353846 21.385319 104.408654 21.386789 104.463462 21.388419 104.518269 21.390208 104.573077 21.392155 104.627885 21.394260 104.682692 21.396520 104.737500 21.398934 104.792308 21.401502 104.847115 21.404222 104.901923 21.407093 104.956731 21.410114 105.011538 21.413283 105.066346 21.416600 105.121154 21.420063 105.175962 21.423671 105.230769 21.427422 105.285577 21.431317 105.340385 21.435352 105.395192 21.439528 105.450000 21.443843 105.504808 21.448296 105.559615 21.452886 105.614423 21.457611 105.669231 21.462471 105.724038 21.467463 105.778846 21.472588 105.833654 21.477843 105.888462 21.483227 105.943269 21.488741 105.998077 21.494381 106.052885 21.500147 106.107692 21.506038 106.162500 21.512053 106.217308 21.518190 106.272115 21.524448 106.326923 21.530827 106.381731 21.537324 106.436538 21.543939 106.491346 21.550670 106.546154 21.557517 106.600962 21.564478 106.655769 21.571552 106.710577 21.578737 106.765385 21.586033 106.820192 21.593438 106.875000 21.600952 106.929808 21.608572 106.984615 21.616298 107.039423 21.624129 107.094231 21.632063 107.149038 21.640100 107.203846 21.648237 107.258654 21.656475 107.313462 21.664810 107.368269 21.673244 107.423077 21.681774 107.477885 21.690398 107.532692 21.699117 107.587500 21.707928 107.642308 21.716831 107.697115 21.725824 107.751923 21.734907 107.806731 21.744077 107.861538 21.753334 107.916346 21.762677 107.971154 21.772104 108.025962 21.781614 108.080769 21.791206 108.135577 21.800879 108.190385 21.810632 108.245192 21.820463 108.300000 21.830372 108.354808 21.840356 108.409615 21.850416 108.464423 21.860549 108.519231 21.870754 108.574038 21.881031 108.628846 21.891378 108.683654 21.901794 108.738462 21.912278 108.793269 21.922828 108.848077 21.933443 108.902885 21.944123 108.957692 21.954866 109.012500 21.965671 109.067308 21.976536 109.122115 21.987460 109.176923 21.998443 109.231731 22.009483 109.286538 22.020579 109.341346 22.031729 109.396154 22.042933 109.450962 22.054190 109.505769 22.065497 109.560577 22.076854 109.615385 22.088260 109.670192 22.099714 109.725000 22.111214 109.779808 22.122759 109.834615 22.134348 109.889423 22.145979 109.944231 22.157653 109.999038 22.169367 110.053846 22.181120 110.108654 22.192911 110.163462 22.204739 110.218269 22.216602 110.273077 22.228500 110.327885 22.240432 110.382692 22.252395 110.437500 22.264389 110.492308 22.276413 110.547115 22.288466 110.601923 22.300546 110.656731 22.312652 110.711538 22.324783 110.766346 22.336938 110.821154 22.349115 110.875962 22.361314 110.930769 22.373533 110.985577 22.385771 111.040385 22.398027 111.095192 22.410299 111.150000 22.422587 111.204808 22.434889 111.259615 22.447204 111.314423 22.459531 111.369231 22.471869 111.424038 22.484217 111.478846 22.496572 111.533654 22.508935 111.588462 22.521304 111.643269 22.533677 111.698077 22.546054 111.752885 22.558434 111.807692 22.570814" class="line reactive nofill" /></g></g><g class="titles" /><g transform="translate(76, 10)" class="plot overlay"><g class="series serie-0 color-0" /></g><g transform="translate(76, 10)" class="plot text-overlay"><g class="series serie-0 color-0" /></g><g transform="translate(76, 10)" class="plot tooltip-overlay"><g transform="translate(0 0)" style="opacity: 0" class="tooltip"><rect rx="0" ry="0" width="0" height="0" class="tooltip-box" /><g class="text" /></g></g></g></svg>