<?xml version='1.0' encoding='utf-8'?>
<svg xmlns="http://www.w3.org/2000/svg" id="chart-c2679f0d-7cf9-404a-b1fc-db828a4dad14" class="pygal-chart pygal-sparkline" viewBox="0 0 200 50" width="200" height="50"><!--Generated with pygal 3.0.4 (etree) ©Kozea 2012-2016 on 2024-06-30--><!--http://pygal.org--><!--http://github.com/Kozea/pygal--><defs><style type="text/css">#chart-c2679f0d-7cf9-404a-b1fc-db828a4dad14{-webkit-user-select:none;-webkit-font-smoothing:antialiased;font-family:Consolas,"Liberation Mono",Menlo,Courier,monospace}#chart-c2679f0d-7cf9-404a-b1fc-db828a4dad14 .title{font-family:Consolas,"Liberation Mono",Menlo,Courier,monospace;font-size:16px}#chart-c2679f0d-7cf9-404a-b1fc-db828a4dad14 .legends .legend text{font-family:Consolas,"Liberation Mono",Menlo,Courier,monospace;font-size:14px}#chart-c2679f0d-7cf9-404a-b1fc-db828a4dad14 .axis text{font-family:Consolas,"Liberation Mono",Menlo,Courier,monospace;font-size:10px}#chart-c2679f0d-7cf9-404a-b1fc-db828a4dad14 .axis text.major{font-family:Consolas,"Liberation Mono",Menlo,Courier,monospace;font-size:10px}#chart-c2679f0d-7cf9-404a-b1fc-db828a4dad14 .text-overlay text.value{font-family:Consolas,"Liberation Mono",Menlo,Courier,monospace;font-size:16px}#chart-c2679f0d-7cf9-404a-b1fc-db828a4dad14 .text-overlay text.label{font-family:Consolas,"Liberation Mono",Menlo,Courier,monospace;font-size:10px}#chart-c2679f0d-7cf9-404a-b1fc-db828a4dad14 .tooltip{font-family:Consolas,"Liberation Mono",Menlo,Courier,monospace;font-size:14px}#chart-c2679f0d-7cf9-404a-b1fc-db828a4dad14 text.no_data{font-family:Consolas,"Liberation Mono",Menlo,Courier,monospace;font-size:64px}
#chart-c2679f0d-7cf9-404a-b1fc-db828a4dad14{background-color:rgba(249,249,249,1)}#chart-c2679f0d-7cf9-404a-b1fc-db828a4dad14 path,#chart-c2679f0d-7cf9-404a-b1fc-db828a4dad14 line,#chart-c2679f0d-7cf9-404a-b1fc-db828a4dad14 rect,#chart-c2679f0d-7cf9-404a-b1fc-db828a4dad14 circle{-webkit-transition:150ms;-moz-transition:150ms;transition:150ms}#chart-c2679f0d-7cf9-404a-b1fc-db828a4dad14 .graph &gt; .background{fill:rgba(249,249,249,1)}#chart-c2679f0d-7cf9-404a-b1fc-db828a4dad14 .plot &gt; .background{fill:rgba(255,255,255,1)}#chart-c2679f0d-7cf9-404a-b1fc-db828a4dad14 .graph{fill:rgba(0,0,0,.87)}#chart-c2679f0d-7cf9-404a-b1fc-db828a4dad14 text.no_data{fill:rgba(0,0,0,1)}#chart-c2679f0d-7cf9-404a-b1fc-db828a4dad14 .title{fill:rgba(0,0,0,1)}#chart-c2679f0d-7cf9-404a-b1fc-db828a4dad14 .legends .legend text{fill:rgba(0,0,0,.87)}#chart-c2679f0d-7cf9-404a-b1fc-db828a4dad14 .legends .legend:hover text{fill:rgba(0,0,0,1)}#chart-c2679f0d-7cf9-404a-b1fc-db828a4dad14 .axis .line{stroke:rgba(0,0,0,1)}#chart-c2679f0d-7cf9-404a-b1fc-db828a4dad14 .axis .guide.line{stroke:rgba(0,0,0,.54)}#chart-c2679f0d-7cf9-404a-b1fc-db828a4dad14 .axis .major.line{stroke:rgba(0,0,0,.87)}#chart-c2679f0d-7cf9-404a-b1fc-db828a4dad14 .axis text.major{fill:rgba(0,0,0,1)}#chart-c2679f0d-7cf9-404a-b1fc-db828a4dad14 .axis.y .guides:hover .guide.line,#chart-c2679f0d-7cf9-404a-b1fc-db828a4dad14 .line-graph .axis.x .guides:hover .guide.line,#chart-c2679f0d-7cf9-404a-b1fc-db828a4dad14 .stackedline-graph .axis.x .guides:hover .guide.line,#chart-c2679f0d-7cf9-404a-b1fc-db828a4dad14 .xy-graph .axis.x .guides:hover .guide.line{stroke:rgba(0,0,0,1)}#chart-c2679f0d-7cf9-404a-b1fc-db828a4dad14 .axis .guides:hover text{fill:rgba(0,0,0,1)}#chart-c2679f0d-7cf9-404a-b1fc-db828a4dad14 .reactive{fill-opacity:.7;stroke-opacity:.8;stroke-width:1}#chart-c2679f0d-7cf9-404a-b1fc-db828a4dad14 .ci{stroke:rgba(0,0,0,.87)}#chart-c2679f0d-7cf9-404a-b1fc-db828a4dad14 .reactive.active,#chart-c2679f0d-7cf9-404a-b1fc-db828a4dad14 .active .reactive{fill-opacity:.8;stroke-opacity:.9;stroke-width:4}#chart-c2679f0d-7cf9-404a-b1fc-db828a4dad14 .ci .reactive.active{stroke-width:1.5}#chart-c2679f0d-7cf9-404a-b1fc-db828a4dad14 .series text{fill:rgba(0,0,0,1)}#chart-c2679f0d-7cf9-404a-b1fc-db828a4dad14 .tooltip rect{fill:rgba(255,255,255,1);stroke:rgba(0,0,0,1);-webkit-transition:opacity 150ms;-moz-transition:opacity 150ms;transition:opacity 150ms}#chart-c2679f0d-7cf9-404a-b1fc-db828a4dad14 .tooltip .label{fill:rgba(0,0,0,.87)}#chart-c2679f0d-7cf9-404a-b1fc-db828a4dad14 .tooltip .label{fill:rgba(0,0,0,.87)}#chart-c2679f0d-7cf9-404a-b1fc-db828a4dad14 .tooltip .legend{font-size:.8em;fill:rgba(0,0,0,.54)}#chart-c2679f0d-7cf9-404a-b1fc-db828a4dad14 .tooltip .x_label{font-size:.6em;fill:rgba(0,0,0,1)}#chart-c2679f0d-7cf9-404a-b1fc-db828a4dad14 .tooltip .xlink{font-size:.5em;text-decoration:underline}#chart-c2679f0d-7cf9-404a-b1fc-db828a4dad14 .tooltip .value{font-size:1.5em}#chart-c2679f0d-7cf9-404a-b1fc-db828a4dad14 .bound{font-size:.5em}#chart-c2679f0d-7cf9-404a-b1fc-db828a4dad14 .max-value{font-size:.75em;fill:rgba(0,0,0,.54)}#chart-c2679f0d-7cf9-404a-b1fc-db828a4dad14 .map-element{fill:rgba(255,255,255,1);stroke:rgba(0,0,0,.54) !important}#chart-c2679f0d-7cf9-404a-b1fc-db828a4dad14 .map-element .reactive{fill-opacity:inherit;stroke-opacity:inherit}#chart-c2679f0d-7cf9-404a-b1fc-db828a4dad14 .color-0,#chart-c2679f0d-7cf9-404a-b1fc-db828a4dad14 .color-0 a:visited{stroke:#F44336;fill:#F44336}#chart-c2679f0d-7cf9-404a-b1fc-db828a4dad14 .text-overlay .color-0 text{fill:black}
#chart-c2679f0d-7cf9-404a-b1fc-db828a4dad14 text.no_data{text-anchor:middle}#chart-c2679f0d-7cf9-404a-b1fc-db828a4dad14 .guide.line{fill:none}#chart-c2679f0d-7cf9-404a-b1fc-db828a4dad14 .centered{text-anchor:middle}#chart-c2679f0d-7cf9-404a-b1fc-db828a4dad14 .title{text-anchor:middle}#chart-c2679f0d-7cf9-404a-b1fc-db828a4dad14 .legends .legend text{fill-opacity:1}#chart-c2679f0d-7cf9-404a-b1fc-db828a4dad14 .axis.x text{text-anchor:middle}#chart-c2679f0d-7cf9-404a-b1fc-db828a4dad14 .axis.x:not(.web) text[transform]{text-anchor:start}#chart-c2679f0d-7cf9-404a-b1fc-db828a4dad14 .axis.x:not(.web) text[transform].backwards{text-anchor:end}#chart-c2679f0d-7cf9-404a-b1fc-db828a4dad14 .axis.y text{text-anchor:end}#chart-c2679f0d-7cf9-404a-b1fc-db828a4dad14 .axis.y text[transform].backwards{text-anchor:start}#chart-c2679f0d-7cf9-404a-b1fc-db828a4dad14 .axis.y2 text{text-anchor:start}#chart-c2679f0d-7cf9-404a-b1fc-db828a4dad14 .axis.y2 text[transform].backwards{text-anchor:end}#chart-c2679f0d-7cf9-404a-b1fc-db828a4dad14 .axis .guide.line{stroke-dasharray:4,4;stroke:black}#chart-c2679f0d-7cf9-404a-b1fc-db828a4dad14 .axis .major.guide.line{stroke-dasharray:6,6;stroke:black}#chart-c2679f0d-7cf9-404a-b1fc-db828a4dad14 .horizontal .axis.y .guide.line,#chart-c2679f0d-7cf9-404a-b1fc-db828a4dad14 .horizontal .axis.y2 .guide.line,#chart-c2679f0d-7cf9-404a-b1fc-db828a4dad14 .vertical .axis.x .guide.line{opacity:0}#chart-c2679f0d-7cf9-404a-b1fc-db828a4dad14 .horizontal .axis.always_show .guide.line,#chart-c2679f0d-7cf9-404a-b1fc-db828a4dad14 .vertical .axis.always_show .guide.line{opacity:1 !important}#chart-c2679f0d-7cf9-404a-b1fc-db828a4dad14 .axis.y .guides:hover .guide.line,#chart-c2679f0d-7cf9-404a-b1fc-db828a4dad14 .axis.y2 .guides:hover .guide.line,#chart-c2679f0d-7cf9-404a-b1fc-db828a4dad14 .axis.x .guides:hover .guide.line{opacity:1}#chart-c2679f0d-7cf9-404a-b1fc-db828a4dad14 .axis .guides:hover text{opacity:1}#chart-c2679f0d-7cf9-404a-b1fc-db828a4dad14 .nofill{fill:none}#chart-c2679f0d-7cf9-404a-b1fc-db828a4dad14 .subtle-fill{fill-opacity:.2}#chart-c2679f0d-7cf9-404a-b1fc-db828a4dad14 .dot{stroke-width:1px;fill-opacity:1;stroke-opacity:1}#chart-c2679f0d-7cf9-404a-b1fc-db828a4dad14 .dot.active{stroke-width:5px}#chart-c2679f0d-7cf9-404a-b1fc-db828a4dad14 .dot.negative{fill:transparent}#chart-c2679f0d-7cf9-404a-b1fc-db828a4dad14 text,#chart-c2679f0d-7cf9-404a-b1fc-db828a4dad14 tspan{stroke:none !important}#chart-c2679f0d-7cf9-404a-b1fc-db828a4dad14 .series text.active{opacity:1}#chart-c2679f0d-7cf9-404a-b1fc-db828a4dad14 .tooltip rect{fill-opacity:.95;stroke-width:.5}#chart-c2679f0d-7cf9-404a-b1fc-db828a4dad14 .tooltip text{fill-opacity:1}#chart-c2679f0d-7cf9-404a-b1fc-db828a4dad14 .showable{visibility:hidden}#chart-c2679f0d-7cf9-404a-b1fc-db828a4dad14 .showable.shown{visibility:visible}#chart-c2679f0d-7cf9-404a-b1fc-db828a4dad14 .gauge-background{fill:rgba(229,229,229,1);stroke:none}#chart-c2679f0d-7cf9-404a-b1fc-db828a4dad14 .bg-lines{stroke:rgba(249,249,249,1);stroke-width:2px}</style><script type="text/javascript">window.pygal = window.pygal || {};window.pygal.config = window.pygal.config || {};window.pygal.config['c2679f0d-7cf9-404a-b1fc-db828a4dad14'] = {"allow_interruptions": false, "box_mode": "extremes", "classes": ["pygal-chart", "pygal-sparkline"], "css": ["file://style.css", "file://graph.css"], "defs": [], "disable_xml_declaration": false, "dots_size": 2.5, "dynamic_print_values": false, "explicit_size": true, "fill": false, "force_uri_protocol": "https", "formatter": null, "half_pie": false, "height": 50, "include_x_axis": false, "inner_radius": 0, "interpolate": "cubic", "interpolation_parameters": {}, "interpolation_precision": 250, "inverse_y_axis": false, "js": [], "legend_at_bottom": false, "legend_at_bottom_columns": null, "legend_box_size": 12, "logarithmic": false, "margin": 10, "margin_bottom": null, "margin_left": null, "margin_right": null, "margin_top": null, "max_scale": 2, "min_scale": 1, "missing_value_fill_truncation": "x", "no_data_text": "", "no_prefix": false, "order_min": null, "pretty_print": false, "print_labels": false, "print_values": false, "print_values_position": "center", "print_zeroes": true, "range": null, "rounded_bars": null, "secondary_range": null, "show_dots": false, "show_legend": false, "show_minor_x_labels": true, "show_minor_y_labels": true, "show_only_major_dots": false, "show_x_guides": false, "show_x_labels": false, "show_y_guides": true, "show_y_labels": true, "spacing": 0, "stack_from_top": false, "strict": false, "stroke": true, "stroke_style": null, "style": {"background": "rgba(249, 249, 249, 1)", "ci_colors": [], "colors": ["#F44336", "#3F51B5", "#009688", "#FFC107", "#FF5722", "#9C27B0", "#03A9F4", "#8BC34A", "#FF9800", "#E91E63", "#2196F3", "#4CAF50", "#FFEB3B", "#673AB7", "#00BCD4", "#CDDC39", "#9E9E9E", "#607D8B"], "dot_opacity": "1", "font_family": "Consolas, \"Liberation Mono\", Menlo, Courier, monospace", "foreground": "rgba(0, 0, 0, .87)", "foreground_strong": "rgba(0, 0, 0, 1)", "foreground_subtle": "rgba(0, 0, 0, .54)", "guide_stroke_color": "black", "guide_stroke_dasharray": "4,4", "label_font_family": "Consolas, \"Liberation Mono\", Menlo, Courier, monospace", "label_font_size": 10, "legend_font_family": "Consolas, \"Liberation Mono\", Menlo, Courier, monospace", "legend_font_size": 14, "major_guide_stroke_color": "black", "major_guide_stroke_dasharray": "6,6", "major_label_font_family": "Consolas, \"Liberation Mono\", Menlo, Courier, monospace", "major_label_font_size": 10, "no_data_font_family": "Consolas, \"Liberation Mono\", Menlo, Courier, monospace", "no_data_font_size": 64, "opacity": ".7", "opacity_hover": ".8", "plot_background": "rgba(255, 255, 255, 1)", "stroke_opacity": ".8", "stroke_opacity_hover": ".9", "stroke_width": "1", "stroke_width_hover": "4", "title_font_family": "Consolas, \"Liberation Mono\", Menlo, Courier, monospace", "title_font_size": 16, "tooltip_font_family": "Consolas, \"Liberation Mono\", Menlo, Courier, monospace", "tooltip_font_size": 14, "transition": "150ms", "value_background": "rgba(229, 229, 229, 1)", "value_colors": [], "value_font_family": "Consolas, \"Liberation Mono\", Menlo, Courier, monospace", "value_font_size": 16, "value_label_font_family": "Consolas, \"Liberation Mono\", Menlo, Courier, monospace", "value_label_font_size": 10}, "title": null, "tooltip_border_radius": 0, "tooltip_fancy_mode": true, "truncate_label": null, "truncate_legend": null, "width": 200, "x_label_rotation": 0, "x_labels": ["2024/6", "2024/5", "2024/3", "2024/1", "2023/8", "2023/6", "2023/3", "2023/1"], "x_labels_major": null, "x_labels_major_count": null, "x_labels_major_every": null, "x_title": null, "xrange": null, "y_label_rotation": 0, "y_labels": null, "y_labels_major": null, "y_labels_major_count": null, "y_labels_major_every": null, "y_title": null, "zero": 0, "legends": [""]}</script></defs><title>Pygal</title><g class="graph line-graph vertical"><rect x="0" y="0" width="200" height="50" class="background" /><g transform="translate(70, 10)" class="plot"><rect x="0" y="0" width="120.0" height="30" class="background" /><g class="axis y always_show"><path d="M0.000000 30.000000 h120.000000" class="line" /><g class="guides"><path d="M0.000000 29.423077 h120.000000" class="guide line" /><text x="-5" y="32.92307692307692" class="">0.64422917</text><title>0.64422917</title></g><g class="guides"><path d="M0.000000 0.576923 h120.000000" class="guide line" /><text x="-5" y="4.076923076923073" class="">5</text><title>5</title></g></g><g class="series serie-0 color-0"><path d="M2.307692 0.576923 L2.373626 0.680262 2.439560 0.783599 2.505495 0.886931 2.571429 0.990256 2.637363 1.093572 2.703297 1.196877 2.769231 1.300168 2.835165 1.403443 2.901099 1.506700 2.967033 1.609935 3.032967 1.713148 3.098901 1.816336 3.164835 1.919497 3.230769 2.022627 3.296703 2.125726 3.362637 2.228790 3.428571 2.331817 3.494505 2.434806 3.560440 2.537753 3.626374 2.640656 3.692308 2.743514 3.758242 2.846324 3.824176 2.949083 3.890110 3.051790 3.956044 3.154442 4.021978 3.257036 4.087912 3.359571 4.153846 3.462043 4.219780 3.564452 4.285714 3.666794 4.351648 3.769068 4.417582 3.871270 4.483516 3.973400 4.549451 4.075453 4.615385 4.177429 4.681319 4.279324 4.747253 4.381137 4.813187 4.482865 4.879121 4.584506 4.945055 4.686058 5.010989 4.787518 5.076923 4.888884 5.142857 4.990154 5.208791 5.091326 5.274725 5.192396 5.340659 5.293363 5.406593 5.394225 5.472527 5.494980 5.538462 5.595624 5.604396 5.696156 5.670330 5.796574 5.736264 5.896874 5.802198 5.997056 5.868132 6.097116 5.934066 6.197052 6.000000 6.296862 6.065934 6.396544 6.131868 6.496095 6.197802 6.595514 6.263736 6.694797 6.329670 6.793942 6.395604 6.892948 6.461538 6.991812 6.527473 7.090532 6.593407 7.189105 6.659341 7.287528 6.725275 7.385801 6.791209 7.483920 6.857143 7.581883 6.923077 7.679689 6.989011 7.777333 7.054945 7.874816 7.120879 7.972133 7.186813 8.069283 7.252747 8.166263 7.318681 8.263071 7.384615 8.359706 7.450549 8.456163 7.516484 8.552442 7.582418 8.648541 7.648352 8.744455 7.714286 8.840184 7.780220 8.935726 7.846154 9.031077 7.912088 9.126235 7.978022 9.221199 8.043956 9.315966 8.109890 9.410533 8.175824 9.504899 8.241758 9.599061 8.307692 9.693016 8.373626 9.786763 8.439560 9.880300 8.505495 9.973623 8.571429 10.066730 8.637363 10.159620 8.703297 10.252291 8.769231 10.344738 8.835165 10.436962 8.901099 10.528958 8.967033 10.620725 9.032967 10.712261 9.098901 10.803563 9.164835 10.894629 9.230769 10.985457 9.296703 11.076044 9.362637 11.166388 9.428571 11.256487 9.494505 11.346339 9.560440 11.435941 9.626374 11.525290 9.692308 11.614386 9.758242 11.703225 9.824176 11.791804 9.890110 11.880123 9.956044 11.968178 10.021978 12.055967 10.087912 12.143489 10.153846 12.230739 10.219780 12.317717 10.285714 12.404421 10.351648 12.490846 10.417582 12.576993 10.483516 12.662857 10.549451 12.748437 10.615385 12.833731 10.681319 12.918737 10.747253 13.003451 10.813187 13.087872 10.879121 13.171997 10.945055 13.255824 11.010989 13.339351 11.076923 13.422576 11.142857 13.505496 11.208791 13.588109 11.274725 13.670412 11.340659 13.752404 11.406593 13.834082 11.472527 13.915444 11.538462 13.996487 11.604396 14.077210 11.670330 14.157609 11.736264 14.237683 11.802198 14.317429 11.868132 14.396846 11.934066 14.475930 12.000000 14.554679 12.065934 14.633092 12.131868 14.711165 12.197802 14.788898 12.263736 14.866286 12.329670 14.943328 12.395604 15.020022 12.461538 15.096366 12.527473 15.172356 12.593407 15.247992 12.659341 15.323270 12.725275 15.398188 12.791209 15.472744 12.857143 15.546936 12.923077 15.620761 12.989011 15.694217 13.054945 15.767303 13.120879 15.840014 13.186813 15.912350 13.252747 15.984307 13.318681 16.055885 13.384615 16.127079 13.450549 16.197889 13.516484 16.268311 13.582418 16.338344 13.648352 16.407985 13.714286 16.477232 13.780220 16.546083 13.846154 16.614534 13.912088 16.682585 13.978022 16.750232 14.043956 16.817474 14.109890 16.884308 14.175824 16.950732 14.241758 17.016743 14.307692 17.082340 14.373626 17.147520 14.439560 17.212280 14.505495 17.276618 14.571429 17.340533 14.637363 17.404021 14.703297 17.467081 14.769231 17.529711 14.835165 17.591907 14.901099 17.653667 14.967033 17.714990 15.032967 17.775874 15.098901 17.836314 15.164835 17.896311 15.230769 17.955860 15.296703 18.014960 15.362637 18.073609 15.428571 18.131805 15.494505 18.189544 15.560440 18.246825 15.626374 18.303645 15.692308 18.360002 15.758242 18.415895 15.824176 18.471320 15.890110 18.526275 15.956044 18.580758 16.021978 18.634767 16.087912 18.688299 16.153846 18.741352 16.219780 18.793924 16.285714 18.846012 16.351648 18.897615 16.417582 18.948730 16.483516 18.999354 16.549451 19.049486 16.615385 19.099122 16.681319 19.148262 16.747253 19.196901 16.813187 19.245040 16.879121 19.292673 16.945055 19.339801 17.010989 19.386420 17.076923 19.432528 17.142857 19.478122 17.208791 19.523201 17.274725 19.567762 17.340659 19.611803 17.406593 19.655322 17.472527 19.698315 17.538462 19.740782 17.604396 19.782719 17.670330 19.824125 17.736264 19.864997 17.802198 19.905333 17.868132 19.945130 17.934066 19.984386 18.000000 20.023100 18.065934 20.061267 18.131868 20.098888 18.197802 20.135958 18.263736 20.172476 18.329670 20.208440 18.395604 20.243847 18.461538 20.278694 18.527473 20.312980 18.593407 20.346703 18.659341 20.379859 18.725275 20.412448 18.791209 20.444465 18.857143 20.475911 18.923077 20.506788 18.989011 20.537100 19.054945 20.566850 19.120879 20.596043 19.186813 20.624682 19.252747 20.652771 19.318681 20.680314 19.384615 20.707314 19.450549 20.733777 19.516484 20.759705 19.582418 20.785102 19.648352 20.809972 19.714286 20.834319 19.780220 20.858146 19.846154 20.881459 19.912088 20.904259 19.978022 20.926552 20.043956 20.948341 20.109890 20.969630 20.175824 20.990423 20.241758 21.010723 20.307692 21.030534 20.373626 21.049861 20.439560 21.068706 20.505495 21.087075 20.571429 21.104970 20.637363 21.122395 20.703297 21.139355 20.769231 21.155853 20.835165 21.171893 20.901099 21.187479 20.967033 21.202615 21.032967 21.217304 21.098901 21.231550 21.164835 21.245357 21.230769 21.258730 21.296703 21.271671 21.362637 21.284185 21.428571 21.296275 21.494505 21.307945 21.560440 21.319200 21.626374 21.330042 21.692308 21.340476 21.758242 21.350506 21.824176 21.360135 21.890110 21.369367 21.956044 21.378207 22.021978 21.386657 22.087912 21.394722 22.153846 21.402406 22.219780 21.409712 22.285714 21.416644 22.351648 21.423206 22.417582 21.429402 22.483516 21.435236 22.549451 21.440711 22.615385 21.445832 22.681319 21.450601 22.747253 21.455024 22.813187 21.459104 22.879121 21.462844 22.945055 21.466249 23.010989 21.469322 23.076923 21.472067 23.142857 21.474488 23.208791 21.476589 23.274725 21.478373 23.340659 21.479845 23.406593 21.481008 23.472527 21.481867 23.538462 21.482424 23.604396 21.482684 23.670330 21.482651 23.736264 21.482328 23.802198 21.481719 23.868132 21.480829 23.934066 21.479660 24.000000 21.478217 24.065934 21.476503 24.131868 21.474523 24.197802 21.472280 24.263736 21.469779 24.329670 21.467022 24.395604 21.464014 24.461538 21.460758 24.527473 21.457258 24.593407 21.453519 24.659341 21.449544 24.725275 21.445337 24.791209 21.440901 24.857143 21.436241 24.923077 21.431360 24.989011 21.426263 25.054945 21.420952 25.120879 21.415432 25.186813 21.409707 25.252747 21.403780 25.318681 21.397655 25.384615 21.391337 25.450549 21.384829 25.516484 21.378134 25.582418 21.371257 25.648352 21.364201 25.714286 21.356971 25.780220 21.349570 25.846154 21.342001 25.912088 21.334270 25.978022 21.326379 26.043956 21.318332 26.109890 21.310134 26.175824 21.301787 26.241758 21.293297 26.307692 21.284666 26.373626 21.275899 26.439560 21.266999 26.505495 21.257971 26.571429 21.248817 26.637363 21.239542 26.703297 21.230150 26.769231 21.220645 26.835165 21.211030 26.901099 21.201309 26.967033 21.191485 27.032967 21.181564 27.098901 21.171549 27.164835 21.161443 27.230769 21.151250 27.296703 21.140974 27.362637 21.130619 27.428571 21.120190 27.494505 21.109688 27.560440 21.099119 27.626374 21.088487 27.692308 21.077794 27.758242 21.067046 27.824176 21.056245 27.890110 21.045396 27.956044 21.034502 28.021978 21.023568 28.087912 21.012596 28.153846 21.001592 28.219780 20.990558 28.285714 20.979499 28.351648 20.968418 28.417582 20.957319 28.483516 20.946207 28.549451 20.935084 28.615385 20.923955 28.681319 20.912823 28.747253 20.901693 28.813187 20.890568 28.879121 20.879452 28.945055 20.868349 29.010989 20.857263 29.076923 20.846197 29.142857 20.835155 29.208791 20.824142 29.274725 20.813160 29.340659 20.802215 29.406593 20.791308 29.472527 20.780446 29.538462 20.769631 29.604396 20.758866 29.670330 20.748157 29.736264 20.737507 29.802198 20.726919 29.868132 20.716397 29.934066 20.705946 30.000000 20.695569 30.065934 20.685270 30.131868 20.675053 30.197802 20.664921 30.263736 20.654878 30.329670 20.644929 30.395604 20.635077 30.461538 20.625326 30.527473 20.615679 30.593407 20.606141 30.659341 20.596715 30.725275 20.587406 30.791209 20.578216 30.857143 20.569151 30.923077 20.560213 30.989011 20.551407 31.054945 20.542736 31.120879 20.534204 31.186813 20.525815 31.252747 20.517573 31.318681 20.509481 31.384615 20.501544 31.450549 20.493766 31.516484 20.486149 31.582418 20.478699 31.648352 20.471418 31.714286 20.464311 31.780220 20.457381 31.846154 20.450633 31.912088 20.444069 31.978022 20.437695 32.043956 20.431513 32.109890 20.425528 32.175824 20.419744 32.241758 20.414163 32.307692 20.408791 32.373626 20.403631 32.439560 20.398686 32.505495 20.393961 32.571429 20.389459 32.637363 20.385185 32.703297 20.381141 32.769231 20.377333 32.835165 20.373763 32.901099 20.370435 32.967033 20.367354 33.032967 20.364524 33.098901 20.361947 33.164835 20.359628 33.230769 20.357570 33.296703 20.355779 33.362637 20.354256 33.428571 20.353007 33.494505 20.352034 33.560440 20.351343 33.626374 20.350936 33.692308 20.350817 33.758242 20.350991 33.824176 20.351461 33.890110 20.352231 33.956044 20.353305 34.021978 20.354686 34.087912 20.356378 34.153846 20.358386 34.219780 20.360713 34.285714 20.363363 34.351648 20.366340 34.417582 20.369647 34.483516 20.373289 34.549451 20.377269 34.615385 20.381591 34.681319 20.386259 34.747253 20.391276 34.813187 20.396647 34.879121 20.402376 34.945055 20.408465 35.010989 20.414920 35.076923 20.421744 35.142857 20.428940 35.208791 20.436512 35.274725 20.444465 35.340659 20.452802 35.406593 20.461519 35.472527 20.470615 35.538462 20.480086 35.604396 20.489931 35.670330 20.500145 35.736264 20.510726 35.802198 20.521672 35.868132 20.532978 35.934066 20.544644 36.000000 20.556665 36.065934 20.569039 36.131868 20.581763 36.197802 20.594834 36.263736 20.608249 36.329670 20.622006 36.395604 20.636101 36.461538 20.650532 36.527473 20.665296 36.593407 20.680390 36.659341 20.695811 36.725275 20.711556 36.791209 20.727623 36.857143 20.744009 36.923077 20.760710 36.989011 20.777725 37.054945 20.795049 37.120879 20.812681 37.186813 20.830617 37.252747 20.848855 37.318681 20.867391 37.384615 20.886223 37.450549 20.905348 37.516484 20.924764 37.582418 20.944466 37.648352 20.964454 37.714286 20.984722 37.780220 21.005270 37.846154 21.026093 37.912088 21.047190 37.978022 21.068556 38.043956 21.090190 38.109890 21.112089 38.175824 21.134249 38.241758 21.156668 38.307692 21.179343 38.373626 21.202271 38.439560 21.225450 38.505495 21.248875 38.571429 21.272546 38.637363 21.296458 38.703297 21.320609 38.769231 21.344996 38.835165 21.369616 38.901099 21.394467 38.967033 21.419545 39.032967 21.444847 39.098901 21.470372 39.164835 21.496115 39.230769 21.522075 39.296703 21.548247 39.362637 21.574630 39.428571 21.601221 39.494505 21.628016 39.560440 21.655013 39.626374 21.682210 39.692308 21.709602 39.758242 21.737187 39.824176 21.764963 39.890110 21.792927 39.956044 21.821075 40.021978 21.849406 40.087912 21.877915 40.153846 21.906600 40.219780 21.935459 40.285714 21.964489 40.351648 21.993686 40.417582 22.023048 40.483516 22.052571 40.549451 22.082254 40.615385 22.112093 40.681319 22.142086 40.747253 22.172229 40.813187 22.202520 40.879121 22.232956 40.945055 22.263533 41.010989 22.294250 41.076923 22.325104 41.142857 22.356090 41.208791 22.387208 41.274725 22.418453 41.340659 22.449823 41.406593 22.481315 41.472527 22.512926 41.538462 22.544654 41.604396 22.576495 41.670330 22.608447 41.736264 22.640507 41.802198 22.672671 41.868132 22.704938 41.934066 22.737304 42.000000 22.769767 42.065934 22.802323 42.131868 22.834970 42.197802 22.867705 42.263736 22.900524 42.329670 22.933426 42.395604 22.966408 42.461538 22.999466 42.527473 23.032597 42.593407 23.065799 42.659341 23.099070 42.725275 23.132405 42.791209 23.165803 42.857143 23.199260 42.923077 23.232773 42.989011 23.266340 43.054945 23.299958 43.120879 23.333625 43.186813 23.367336 43.252747 23.401089 43.318681 23.434882 43.384615 23.468712 43.450549 23.502575 43.516484 23.536470 43.582418 23.570392 43.648352 23.604340 43.714286 23.638310 43.780220 23.672299 43.846154 23.706305 43.912088 23.740325 43.978022 23.774356 44.043956 23.808395 44.109890 23.842440 44.175824 23.876486 44.241758 23.910533 44.307692 23.944576 44.373626 23.978613 44.439560 24.012641 44.505495 24.046657 44.571429 24.080658 44.637363 24.114642 44.703297 24.148606 44.769231 24.182546 44.835165 24.216461 44.901099 24.250346 44.967033 24.284200 45.032967 24.318019 45.098901 24.351800 45.164835 24.385542 45.230769 24.419240 45.296703 24.452892 45.362637 24.486495 45.428571 24.520047 45.494505 24.553544 45.560440 24.586983 45.626374 24.620363 45.692308 24.653679 45.758242 24.686929 45.824176 24.720111 45.890110 24.753221 45.956044 24.786256 46.021978 24.819214 46.087912 24.852092 46.153846 24.884887 46.219780 24.917596 46.285714 24.950216 46.351648 24.982744 46.417582 25.015179 46.483516 25.047516 46.549451 25.079752 46.615385 25.111886 46.681319 25.143914 46.747253 25.175833 46.813187 25.207641 46.879121 25.239334 46.945055 25.270911 47.010989 25.302367 47.076923 25.333700 47.142857 25.364907 47.208791 25.395986 47.274725 25.426933 47.340659 25.457746 47.406593 25.488422 47.472527 25.518958 47.538462 25.549351 47.604396 25.579598 47.670330 25.609697 47.736264 25.639644 47.802198 25.669437 47.868132 25.699073 47.934066 25.728549 48.000000 25.757862 48.065934 25.787009 48.131868 25.815988 48.197802 25.844796 48.263736 25.873429 48.329670 25.901885 48.395604 25.930162 48.461538 25.958256 48.527473 25.986164 48.593407 26.013883 48.659341 26.041412 48.725275 26.068746 48.791209 26.095883 48.857143 26.122821 48.923077 26.149555 48.989011 26.176084 49.054945 26.202405 49.120879 26.228515 49.186813 26.254410 49.252747 26.280089 49.318681 26.305548 49.384615 26.330784 49.450549 26.355794 49.516484 26.380577 49.582418 26.405128 49.648352 26.429445 49.714286 26.453525 49.780220 26.477366 49.846154 26.500964 49.912088 26.524316 49.978022 26.547420 50.043956 26.570273 50.109890 26.592873 50.175824 26.615215 50.241758 26.637298 50.307692 26.659118 50.373626 26.680673 50.439560 26.701959 50.505495 26.722975 50.571429 26.743716 50.637363 26.764181 50.703297 26.784367 50.769231 26.804269 50.835165 26.823887 50.901099 26.843216 50.967033 26.862255 51.032967 26.880999 51.098901 26.899447 51.164835 26.917595 51.230769 26.935441 51.296703 26.952982 51.362637 26.970214 51.428571 26.987136 51.494505 27.003743 51.560440 27.020035 51.626374 27.036006 51.692308 27.051655 51.758242 27.066980 51.824176 27.081977 51.890110 27.096648 51.956044 27.110996 52.021978 27.125024 52.087912 27.138734 52.153846 27.152128 52.219780 27.165209 52.285714 27.177979 52.351648 27.190441 52.417582 27.202597 52.483516 27.214450 52.549451 27.226002 52.615385 27.237256 52.681319 27.248215 52.747253 27.258880 52.813187 27.269254 52.879121 27.279340 52.945055 27.289140 53.010989 27.298656 53.076923 27.307892 53.142857 27.316849 53.208791 27.325530 53.274725 27.333938 53.340659 27.342075 53.406593 27.349944 53.472527 27.357546 53.538462 27.364885 53.604396 27.371963 53.670330 27.378782 53.736264 27.385345 53.802198 27.391655 53.868132 27.397713 53.934066 27.403523 54.000000 27.409087 54.065934 27.414406 54.131868 27.419485 54.197802 27.424325 54.263736 27.428929 54.329670 27.433299 54.395604 27.437438 54.461538 27.441348 54.527473 27.445031 54.593407 27.448491 54.659341 27.451730 54.725275 27.454749 54.791209 27.457552 54.857143 27.460142 54.923077 27.462520 54.989011 27.464688 55.054945 27.466651 55.120879 27.468409 55.186813 27.469966 55.252747 27.471324 55.318681 27.472486 55.384615 27.473453 55.450549 27.474229 55.516484 27.474815 55.582418 27.475215 55.648352 27.475431 55.714286 27.475466 55.780220 27.475321 55.846154 27.474999 55.912088 27.474503 55.978022 27.473836 56.043956 27.472999 56.109890 27.471995 56.175824 27.470827 56.241758 27.469498 56.307692 27.468009 56.373626 27.466363 56.439560 27.464562 56.505495 27.462610 56.571429 27.460509 56.637363 27.458260 56.703297 27.455867 56.769231 27.453333 56.835165 27.450658 56.901099 27.447847 56.967033 27.444901 57.032967 27.441823 57.098901 27.438616 57.164835 27.435281 57.230769 27.431822 57.296703 27.428241 57.362637 27.424540 57.428571 27.420722 57.494505 27.416790 57.560440 27.412745 57.626374 27.408590 57.692308 27.404328 57.758242 27.399962 57.824176 27.395493 57.890110 27.390925 57.956044 27.386259 58.021978 27.381498 58.087912 27.376645 58.153846 27.371702 58.219780 27.366672 58.285714 27.361557 58.351648 27.356359 58.417582 27.351082 58.483516 27.345727 58.549451 27.340297 58.615385 27.334794 58.681319 27.329222 58.747253 27.323582 58.813187 27.317877 58.879121 27.312109 58.945055 27.306282 59.010989 27.300396 59.076923 27.294456 59.142857 27.288463 59.208791 27.282420 59.274725 27.276329 59.340659 27.270193 59.406593 27.264014 59.472527 27.257795 59.538462 27.251538 59.604396 27.245246 59.670330 27.238921 59.736264 27.232566 59.802198 27.226183 59.868132 27.219775 59.934066 27.213343 60.000000 27.206892 60.065934 27.200422 60.131868 27.193937 60.197802 27.187439 60.263736 27.180931 60.329670 27.174415 60.395604 27.167893 60.461538 27.161368 60.527473 27.154843 60.593407 27.148319 60.659341 27.141800 60.725275 27.135288 60.791209 27.128785 60.857143 27.122294 60.923077 27.115818 60.989011 27.109358 61.054945 27.102917 61.120879 27.096499 61.186813 27.090104 61.252747 27.083737 61.318681 27.077398 61.384615 27.071092 61.450549 27.064819 61.516484 27.058583 61.582418 27.052387 61.648352 27.046232 61.714286 27.040121 61.780220 27.034056 61.846154 27.028041 61.912088 27.022077 61.978022 27.016168 62.043956 27.010315 62.109890 27.004521 62.175824 26.998788 62.241758 26.993119 62.307692 26.987517 62.373626 26.981984 62.439560 26.976522 62.505495 26.971134 62.571429 26.965822 62.637363 26.960589 62.703297 26.955438 62.769231 26.950370 62.835165 26.945389 62.901099 26.940496 62.967033 26.935695 63.032967 26.930988 63.098901 26.926376 63.164835 26.921864 63.230769 26.917452 63.296703 26.913144 63.362637 26.908943 63.428571 26.904850 63.494505 26.900868 63.560440 26.896999 63.626374 26.893247 63.692308 26.889613 63.758242 26.886101 63.824176 26.882711 63.890110 26.879448 63.956044 26.876313 64.021978 26.873310 64.087912 26.870439 64.153846 26.867705 64.219780 26.865109 64.285714 26.862654 64.351648 26.860342 64.417582 26.858176 64.483516 26.856158 64.549451 26.854291 64.615385 26.852578 64.681319 26.851020 64.747253 26.849620 64.813187 26.848382 64.879121 26.847306 64.945055 26.846396 65.010989 26.845654 65.076923 26.845083 65.142857 26.844685 65.208791 26.844463 65.274725 26.844418 65.340659 26.844555 65.406593 26.844874 65.472527 26.845379 65.538462 26.846072 65.604396 26.846955 65.670330 26.848031 65.736264 26.849303 65.802198 26.850773 65.868132 26.852443 65.934066 26.854316 66.000000 26.856395 66.065934 26.858681 66.131868 26.861178 66.197802 26.863887 66.263736 26.866812 66.329670 26.869955 66.395604 26.873317 66.461538 26.876903 66.527473 26.880714 66.593407 26.884752 66.659341 26.889021 66.725275 26.893523 66.791209 26.898259 66.857143 26.903233 66.923077 26.908448 66.989011 26.913905 67.054945 26.919607 67.120879 26.925556 67.186813 26.931756 67.252747 26.938208 67.318681 26.944915 67.384615 26.951880 67.450549 26.959104 67.516484 26.966591 67.582418 26.974343 67.648352 26.982363 67.714286 26.990652 67.780220 26.999213 67.846154 27.008050 67.912088 27.017164 67.978022 27.026557 68.043956 27.036233 68.109890 27.046194 68.175824 27.056442 68.241758 27.066980 68.307692 27.077808 68.373626 27.088925 68.439560 27.100324 68.505495 27.112003 68.571429 27.123955 68.637363 27.136177 68.703297 27.148664 68.769231 27.161411 68.835165 27.174414 68.901099 27.187669 68.967033 27.201171 69.032967 27.214915 69.098901 27.228896 69.164835 27.243112 69.230769 27.257556 69.296703 27.272224 69.362637 27.287112 69.428571 27.302215 69.494505 27.317528 69.560440 27.333048 69.626374 27.348769 69.692308 27.364688 69.758242 27.380799 69.824176 27.397097 69.890110 27.413580 69.956044 27.430241 70.021978 27.447077 70.087912 27.464082 70.153846 27.481253 70.219780 27.498584 70.285714 27.516072 70.351648 27.533712 70.417582 27.551499 70.483516 27.569428 70.549451 27.587495 70.615385 27.605696 70.681319 27.624027 70.747253 27.642481 70.813187 27.661056 70.879121 27.679746 70.945055 27.698547 71.010989 27.717455 71.076923 27.736464 71.142857 27.755571 71.208791 27.774770 71.274725 27.794058 71.340659 27.813429 71.406593 27.832880 71.472527 27.852405 71.538462 27.872001 71.604396 27.891662 71.670330 27.911384 71.736264 27.931163 71.802198 27.950993 71.868132 27.970871 71.934066 27.990793 72.000000 28.010752 72.065934 28.030746 72.131868 28.050768 72.197802 28.070816 72.263736 28.090884 72.329670 28.110967 72.395604 28.131062 72.461538 28.151164 72.527473 28.171268 72.593407 28.191369 72.659341 28.211463 72.725275 28.231546 72.791209 28.251613 72.857143 28.271660 72.923077 28.291681 72.989011 28.311673 73.054945 28.331631 73.120879 28.351550 73.186813 28.371426 73.252747 28.391254 73.318681 28.411030 73.384615 28.430750 73.450549 28.450408 73.516484 28.470000 73.582418 28.489522 73.648352 28.508969 73.714286 28.528336 73.780220 28.547620 73.846154 28.566815 73.912088 28.585917 73.978022 28.604921 74.043956 28.623824 74.109890 28.642619 74.175824 28.661304 74.241758 28.679873 74.307692 28.698322 74.373626 28.716646 74.439560 28.734840 74.505495 28.752901 74.571429 28.770824 74.637363 28.788603 74.703297 28.806236 74.769231 28.823716 74.835165 28.841040 74.901099 28.858203 74.967033 28.875200 75.032967 28.892027 75.098901 28.908680 75.164835 28.925153 75.230769 28.941443 75.296703 28.957545 75.362637 28.973454 75.428571 28.989165 75.494505 29.004675 75.560440 29.019979 75.626374 29.035072 75.692308 29.049949 75.758242 29.064606 75.824176 29.079039 75.890110 29.093243 75.956044 29.107213 76.021978 29.120946 76.087912 29.134436 76.153846 29.147678 76.219780 29.160669 76.285714 29.173404 76.351648 29.185878 76.417582 29.198087 76.483516 29.210026 76.549451 29.221691 76.615385 29.233077 76.681319 29.244179 76.747253 29.254994 76.813187 29.265516 76.879121 29.275741 76.945055 29.285665 77.010989 29.295283 77.076923 29.304590 77.142857 29.313582 77.208791 29.322254 77.274725 29.330603 77.340659 29.338622 77.406593 29.346308 77.472527 29.353657 77.538462 29.360663 77.604396 29.367323 77.670330 29.373631 77.736264 29.379583 77.802198 29.385175 77.868132 29.390402 77.934066 29.395259 78.000000 29.399742 78.065934 29.403847 78.131868 29.407569 78.197802 29.410903 78.263736 29.413844 78.329670 29.416390 78.395604 29.418534 78.461538 29.420272 78.527473 29.421600 78.593407 29.422513 78.659341 29.423007 78.725275 29.423077 78.791209 29.422718 78.857143 29.421927 78.923077 29.420698 78.989011 29.419027 79.054945 29.416910 79.120879 29.414342 79.186813 29.411317 79.252747 29.407833 79.318681 29.403884 79.384615 29.399466 79.450549 29.394575 79.516484 29.389205 79.582418 29.383352 79.648352 29.377012 79.714286 29.370180 79.780220 29.362851 79.846154 29.355022 79.912088 29.346687 79.978022 29.337842 80.043956 29.328483 80.109890 29.318605 80.175824 29.308203 80.241758 29.297273 80.307692 29.285810 80.373626 29.273810 80.439560 29.261269 80.505495 29.248181 80.571429 29.234542 80.637363 29.220348 80.703297 29.205595 80.769231 29.190277 80.835165 29.174390 80.901099 29.157929 80.967033 29.140891 81.032967 29.123270 81.098901 29.105062 81.164835 29.086262 81.230769 29.066867 81.296703 29.046871 81.362637 29.026269 81.428571 29.005058 81.494505 28.983233 81.560440 28.960789 81.626374 28.937721 81.692308 28.914026 81.758242 28.889698 81.824176 28.864734 81.890110 28.839128 81.956044 28.812876 82.021978 28.785974 82.087912 28.758417 82.153846 28.730200 82.219780 28.701319 82.285714 28.671769 82.351648 28.641547 82.417582 28.610646 82.483516 28.579064 82.549451 28.546794 82.615385 28.513834 82.681319 28.480177 82.747253 28.445820 82.813187 28.410759 82.879121 28.374988 82.945055 28.338503 83.010989 28.301299 83.076923 28.263373 83.142857 28.224719 83.208791 28.185333 83.274725 28.145210 83.340659 28.104346 83.406593 28.062737 83.472527 28.020377 83.538462 27.977263 83.604396 27.933389 83.670330 27.888752 83.736264 27.843346 83.802198 27.797168 83.868132 27.750212 83.934066 27.702474 84.000000 27.653949 84.065934 27.604634 84.131868 27.554523 84.197802 27.503612 84.263736 27.451897 84.329670 27.399372 84.395604 27.346034 84.461538 27.291878 84.527473 27.236899 84.593407 27.181092 84.659341 27.124454 84.725275 27.066980 84.791209 27.008666 84.857143 26.949520 84.923077 26.889550 84.989011 26.828762 85.054945 26.767166 85.120879 26.704769 85.186813 26.641579 85.252747 26.577604 85.318681 26.512853 85.384615 26.447333 85.450549 26.381053 85.516484 26.314019 85.582418 26.246242 85.648352 26.177727 85.714286 26.108484 85.780220 26.038521 85.846154 25.967845 85.912088 25.896464 85.978022 25.824387 86.043956 25.751621 86.109890 25.678175 86.175824 25.604057 86.241758 25.529274 86.307692 25.453835 86.373626 25.377747 86.439560 25.301019 86.505495 25.223659 86.571429 25.145674 86.637363 25.067073 86.703297 24.987863 86.769231 24.908054 86.835165 24.827652 86.901099 24.746666 86.967033 24.665104 87.032967 24.582973 87.098901 24.500282 87.164835 24.417039 87.230769 24.333252 87.296703 24.248929 87.362637 24.164078 87.428571 24.078707 87.494505 23.992823 87.560440 23.906436 87.626374 23.819552 87.692308 23.732181 87.758242 23.644329 87.824176 23.556006 87.890110 23.467218 87.956044 23.377975 88.021978 23.288284 88.087912 23.198152 88.153846 23.107589 88.219780 23.016602 88.285714 22.925200 88.351648 22.833389 88.417582 22.741179 88.483516 22.648576 88.549451 22.555590 88.615385 22.462229 88.681319 22.368499 88.747253 22.274410 88.813187 22.179969 88.879121 22.085185 88.945055 21.990064 89.010989 21.894617 89.076923 21.798849 89.142857 21.702770 89.208791 21.606387 89.274725 21.509709 89.340659 21.412743 89.406593 21.315498 89.472527 21.217981 89.538462 21.120201 89.604396 21.022165 89.670330 20.923882 89.736264 20.825360 89.802198 20.726606 89.868132 20.627628 89.934066 20.528435 90.000000 20.429035 90.065934 20.329436 90.131868 20.229645 90.197802 20.129671 90.263736 20.029521 90.329670 19.929205 90.395604 19.828729 90.461538 19.728102 90.527473 19.627331 90.593407 19.526426 90.659341 19.425393 90.725275 19.324241 90.791209 19.222978 90.857143 19.121612 90.923077 19.020151 90.989011 18.918603 91.054945 18.816976 91.120879 18.715277 91.186813 18.613516 91.252747 18.511700 91.318681 18.409836 91.384615 18.307934 91.450549 18.206001 91.516484 18.104044 91.582418 18.002073 91.648352 17.900095 91.714286 17.798119 91.780220 17.696151 91.846154 17.594200 91.912088 17.492275 91.978022 17.390383 92.043956 17.288532 92.109890 17.186730 92.175824 17.084986 92.241758 16.983307 92.307692 16.881701 92.373626 16.780177 92.439560 16.678741 92.505495 16.577404 92.571429 16.476171 92.637363 16.375052 92.703297 16.274055 92.769231 16.173186 92.835165 16.072456 92.901099 15.971870 92.967033 15.871439 93.032967 15.771168 93.098901 15.671068 93.164835 15.571144 93.230769 15.471407 93.296703 15.371863 93.362637 15.272520 93.428571 15.173387 93.494505 15.074472 93.560440 14.975783 93.626374 14.877327 93.692308 14.779113 93.758242 14.681148 93.824176 14.583441 93.890110 14.486000 93.956044 14.388833 94.021978 14.291948 94.087912 14.195352 94.153846 14.099054 94.219780 14.003062 94.285714 13.907384 94.351648 13.812028 94.417582 13.717002 94.483516 13.622313 94.549451 13.527971 94.615385 13.433983 94.681319 13.340356 94.747253 13.247100 94.813187 13.154221 94.879121 13.061729 94.945055 12.969630 95.010989 12.877934 95.076923 12.786648 95.142857 12.695779 95.208791 12.605337 95.274725 12.515329 95.340659 12.425764 95.406593 12.336648 95.472527 12.247991 95.538462 12.159800 95.604396 12.072083 95.670330 11.984848 95.736264 11.898104 95.802198 11.811858 95.868132 11.726118 95.934066 11.640893 96.000000 11.556190 96.065934 11.472017 96.131868 11.388383 96.197802 11.305295 96.263736 11.222761 96.329670 11.140790 96.395604 11.059390 96.461538 10.978568 96.527473 10.898332 96.593407 10.818691 96.659341 10.739652 96.725275 10.661224 96.791209 10.583415 96.857143 10.506232 96.923077 10.429684 96.989011 10.353779 97.054945 10.278524 97.120879 10.203927 97.186813 10.129998 97.252747 10.056743 97.318681 9.984171 97.384615 9.912290 97.450549 9.841107 97.516484 9.770631 97.582418 9.700870 97.648352 9.631832 97.714286 9.563525 97.780220 9.495956 97.846154 9.429135 97.912088 9.363068 97.978022 9.297764 98.043956 9.233231 98.109890 9.169477 98.175824 9.106510 98.241758 9.044338 98.307692 8.982969 98.373626 8.922411 98.439560 8.862673 98.505495 8.803761 98.571429 8.745684 98.637363 8.688450 98.703297 8.632068 98.769231 8.576544 98.835165 8.521888 98.901099 8.468107 98.967033 8.415209 99.032967 8.363203 99.098901 8.312095 99.164835 8.261895 99.230769 8.212610 99.296703 8.164249 99.362637 8.116818 99.428571 8.070327 99.494505 8.024784 99.560440 7.980195 99.626374 7.936571 99.692308 7.893917 99.758242 7.852243 99.824176 7.811556 99.890110 7.771865 99.956044 7.733178 100.021978 7.695501 100.087912 7.658845 100.153846 7.623216 100.219780 7.588622 100.285714 7.555072 100.351648 7.522574 100.417582 7.491135 100.483516 7.460764 100.549451 7.431468 100.615385 7.403256 100.681319 7.376136 100.747253 7.350115 100.813187 7.325203 100.879121 7.301406 100.945055 7.278732 101.010989 7.257191 101.076923 7.236789 101.142857 7.217535 101.208791 7.199437 101.274725 7.182501 101.340659 7.166724 101.406593 7.152101 101.472527 7.138628 101.538462 7.126301 101.604396 7.115114 101.670330 7.105063 101.736264 7.096143 101.802198 7.088350 101.868132 7.081679 101.934066 7.076125 102.000000 7.071684 102.065934 7.068351 102.131868 7.066121 102.197802 7.064990 102.263736 7.064953 102.329670 7.066005 102.395604 7.068142 102.461538 7.071359 102.527473 7.075651 102.593407 7.081014 102.659341 7.087443 102.725275 7.094934 102.791209 7.103481 102.857143 7.113081 102.923077 7.123728 102.989011 7.135417 103.054945 7.148145 103.120879 7.161907 103.186813 7.176697 103.252747 7.192511 103.318681 7.209345 103.384615 7.227194 103.450549 7.246053 103.516484 7.265918 103.582418 7.286784 103.648352 7.308646 103.714286 7.331499 103.780220 7.355339 103.846154 7.380162 103.912088 7.405962 103.978022 7.432736 104.043956 7.460477 104.109890 7.489183 104.175824 7.518847 104.241758 7.549465 104.307692 7.581034 104.373626 7.613547 104.439560 7.647001 104.505495 7.681391 104.571429 7.716711 104.637363 7.752958 104.703297 7.790127 104.769231 7.828213 104.835165 7.867211 104.901099 7.907118 104.967033 7.947927 105.032967 7.989635 105.098901 8.032236 105.164835 8.075727 105.230769 8.120103 105.296703 8.165358 105.362637 8.211488 105.428571 8.258489 105.494505 8.306356 105.560440 8.355085 105.626374 8.404669 105.692308 8.455106 105.758242 8.506390 105.824176 8.558517 105.890110 8.611481 105.956044 8.665279 106.021978 8.719906 106.087912 8.775356 106.153846 8.831626 106.219780 8.888711 106.285714 8.946606 106.351648 9.005306 106.417582 9.064807 106.483516 9.125104 106.549451 9.186192 106.615385 9.248067 106.681319 9.310724 106.747253 9.374159 106.813187 9.438366 106.879121 9.503342 106.945055 9.569081 107.010989 9.635579 107.076923 9.702831 107.142857 9.770832 107.208791 9.839579 107.274725 9.909065 107.340659 9.979288 107.406593 10.050241 107.472527 10.121920 107.538462 10.194321 107.604396 10.267439 107.670330 10.341269 107.736264 10.415807 107.802198 10.491047 107.868132 10.566986 107.934066 10.643619 108.000000 10.720941 108.065934 10.798947 108.131868 10.877633 108.197802 10.956993 108.263736 11.037025 108.329670 11.117721 108.395604 11.199079 108.461538 11.281094 108.527473 11.363760 108.593407 11.447073 108.659341 11.531029 108.725275 11.615622 108.791209 11.700849 108.857143 11.786704 108.923077 11.873183 108.989011 11.960281 109.054945 12.047993 109.120879 12.136316 109.186813 12.225243 109.252747 12.314771 109.318681 12.404896 109.384615 12.495611 109.450549 12.586913 109.516484 12.678797 109.582418 12.771258 109.648352 12.864291 109.714286 12.957893 109.780220 13.052058 109.846154 13.146782 109.912088 13.242059 109.978022 13.337886 110.043956 13.434258 110.109890 13.531169 110.175824 13.628616 110.241758 13.726594 110.307692 13.825098 110.373626 13.924123 110.439560 14.023665 110.505495 14.123719 110.571429 14.224281 110.637363 14.325345 110.703297 14.426907 110.769231 14.528963 110.835165 14.631508 110.901099 14.734537 110.967033 14.838045 111.032967 14.942028 111.098901 15.046482 111.164835 15.151401 111.230769 15.256781 111.296703 15.362617 111.362637 15.468904 111.428571 15.575639 111.494505 15.682816 111.560440 15.790430 111.626374 15.898477 111.692308 16.006953 111.758242 16.115852 111.824176 16.225171 111.890110 16.334903 111.956044 16.445046 112.021978 16.555593 112.087912 16.666541 112.153846 16.777884 112.219780 16.889619 112.285714 17.001739 112.351648 17.114242 112.417582 17.227122 112.483516 17.340374 112.549451 17.453994 112.615385 17.567977 112.681319 17.682318 112.747253 17.797014 112.813187 17.912058 112.879121 18.027447 112.945055 18.143176 113.010989 18.259240 113.076923 18.375634 113.142857 18.492355 113.208791 18.609396 113.274725 18.726755 113.340659 18.844425 113.406593 18.962402 113.472527 19.080682 113.538462 19.199260 113.604396 19.318131 113.670330 19.437291 113.736264 19.556735 113.802198 19.676458 113.868132 19.796456 113.934066 19.916724 114.000000 20.037257 114.065934 20.158051 114.131868 20.279101 114.197802 20.400402 114.263736 20.521950 114.329670 20.643740 114.395604 20.765768 114.461538 20.888028 114.527473 21.010517 114.593407 21.133228 114.659341 21.256159 114.725275 21.379304 114.791209 21.502658 114.857143 21.626218 114.923077 21.749977 114.989011 21.873932 115.054945 21.998078 115.120879 22.122410 115.186813 22.246923 115.252747 22.371614 115.318681 22.496476 115.384615 22.621507 115.450549 22.746700 115.516484 22.872051 115.582418 22.997557 115.648352 23.123211 115.714286 23.249009 115.780220 23.374947 115.846154 23.501020 115.912088 23.627224 115.978022 23.753553 116.043956 23.880003 116.109890 24.006570 116.175824 24.133248 116.241758 24.260034 116.307692 24.386921 116.373626 24.513907 116.439560 24.640986 116.505495 24.768153 116.571429 24.895404 116.637363 25.022734 116.703297 25.150138 116.769231 25.277613 116.835165 25.405152 116.901099 25.532752 116.967033 25.660408 117.032967 25.788116 117.098901 25.915869 117.164835 26.043665 117.230769 26.171498 117.296703 26.299363 117.362637 26.427257 117.428571 26.555173 117.494505 26.683109 117.560440 26.811058 117.626374 26.939016 117.692308 27.066980" class="line reactive nofill" /></g></g><g class="titles" /><g transform="translate(70, 10)" class="plot overlay"><g class="series serie-0 color-0" /></g><g transform="translate(70, 10)" class="plot text-overlay"><g class="series serie-0 color-0" /></g><g transform="translate(70, 10)" class="plot tooltip-overlay"><g transform="translate(0 0)" style="opacity: 0" class="tooltip"><rect rx="0" ry="0" width="0" height="0" class="tooltip-box" /><g class="text" /></g></g></g></svg>