<?xml version='1.0' encoding='utf-8'?>
<svg xmlns="http://www.w3.org/2000/svg" id="chart-f5c460c5-ee4c-4d84-9884-d9d26f98d253" class="pygal-chart pygal-sparkline" viewBox="0 0 200 50" width="200" height="50"><!--Generated with pygal 3.0.5 (etree) ©Kozea 2012-2016 on 2024-12-01--><!--http://pygal.org--><!--http://github.com/Kozea/pygal--><defs><style type="text/css">#chart-f5c460c5-ee4c-4d84-9884-d9d26f98d253{-webkit-user-select:none;-webkit-font-smoothing:antialiased;font-family:Consolas,"Liberation Mono",Menlo,Courier,monospace}#chart-f5c460c5-ee4c-4d84-9884-d9d26f98d253 .title{font-family:Consolas,"Liberation Mono",Menlo,Courier,monospace;font-size:16px}#chart-f5c460c5-ee4c-4d84-9884-d9d26f98d253 .legends .legend text{font-family:Consolas,"Liberation Mono",Menlo,Courier,monospace;font-size:14px}#chart-f5c460c5-ee4c-4d84-9884-d9d26f98d253 .axis text{font-family:Consolas,"Liberation Mono",Menlo,Courier,monospace;font-size:10px}#chart-f5c460c5-ee4c-4d84-9884-d9d26f98d253 .axis text.major{font-family:Consolas,"Liberation Mono",Menlo,Courier,monospace;font-size:10px}#chart-f5c460c5-ee4c-4d84-9884-d9d26f98d253 .text-overlay text.value{font-family:Consolas,"Liberation Mono",Menlo,Courier,monospace;font-size:16px}#chart-f5c460c5-ee4c-4d84-9884-d9d26f98d253 .text-overlay text.label{font-family:Consolas,"Liberation Mono",Menlo,Courier,monospace;font-size:10px}#chart-f5c460c5-ee4c-4d84-9884-d9d26f98d253 .tooltip{font-family:Consolas,"Liberation Mono",Menlo,Courier,monospace;font-size:14px}#chart-f5c460c5-ee4c-4d84-9884-d9d26f98d253 text.no_data{font-family:Consolas,"Liberation Mono",Menlo,Courier,monospace;font-size:64px}
#chart-f5c460c5-ee4c-4d84-9884-d9d26f98d253{background-color:rgba(249,249,249,1)}#chart-f5c460c5-ee4c-4d84-9884-d9d26f98d253 path,#chart-f5c460c5-ee4c-4d84-9884-d9d26f98d253 line,#chart-f5c460c5-ee4c-4d84-9884-d9d26f98d253 rect,#chart-f5c460c5-ee4c-4d84-9884-d9d26f98d253 circle{-webkit-transition:150ms;-moz-transition:150ms;transition:150ms}#chart-f5c460c5-ee4c-4d84-9884-d9d26f98d253 .graph &gt; .background{fill:rgba(249,249,249,1)}#chart-f5c460c5-ee4c-4d84-9884-d9d26f98d253 .plot &gt; .background{fill:rgba(255,255,255,1)}#chart-f5c460c5-ee4c-4d84-9884-d9d26f98d253 .graph{fill:rgba(0,0,0,.87)}#chart-f5c460c5-ee4c-4d84-9884-d9d26f98d253 text.no_data{fill:rgba(0,0,0,1)}#chart-f5c460c5-ee4c-4d84-9884-d9d26f98d253 .title{fill:rgba(0,0,0,1)}#chart-f5c460c5-ee4c-4d84-9884-d9d26f98d253 .legends .legend text{fill:rgba(0,0,0,.87)}#chart-f5c460c5-ee4c-4d84-9884-d9d26f98d253 .legends .legend:hover text{fill:rgba(0,0,0,1)}#chart-f5c460c5-ee4c-4d84-9884-d9d26f98d253 .axis .line{stroke:rgba(0,0,0,1)}#chart-f5c460c5-ee4c-4d84-9884-d9d26f98d253 .axis .guide.line{stroke:rgba(0,0,0,.54)}#chart-f5c460c5-ee4c-4d84-9884-d9d26f98d253 .axis .major.line{stroke:rgba(0,0,0,.87)}#chart-f5c460c5-ee4c-4d84-9884-d9d26f98d253 .axis text.major{fill:rgba(0,0,0,1)}#chart-f5c460c5-ee4c-4d84-9884-d9d26f98d253 .axis.y .guides:hover .guide.line,#chart-f5c460c5-ee4c-4d84-9884-d9d26f98d253 .line-graph .axis.x .guides:hover .guide.line,#chart-f5c460c5-ee4c-4d84-9884-d9d26f98d253 .stackedline-graph .axis.x .guides:hover .guide.line,#chart-f5c460c5-ee4c-4d84-9884-d9d26f98d253 .xy-graph .axis.x .guides:hover .guide.line{stroke:rgba(0,0,0,1)}#chart-f5c460c5-ee4c-4d84-9884-d9d26f98d253 .axis .guides:hover text{fill:rgba(0,0,0,1)}#chart-f5c460c5-ee4c-4d84-9884-d9d26f98d253 .reactive{fill-opacity:.7;stroke-opacity:.8;stroke-width:1}#chart-f5c460c5-ee4c-4d84-9884-d9d26f98d253 .ci{stroke:rgba(0,0,0,.87)}#chart-f5c460c5-ee4c-4d84-9884-d9d26f98d253 .reactive.active,#chart-f5c460c5-ee4c-4d84-9884-d9d26f98d253 .active .reactive{fill-opacity:.8;stroke-opacity:.9;stroke-width:4}#chart-f5c460c5-ee4c-4d84-9884-d9d26f98d253 .ci .reactive.active{stroke-width:1.5}#chart-f5c460c5-ee4c-4d84-9884-d9d26f98d253 .series text{fill:rgba(0,0,0,1)}#chart-f5c460c5-ee4c-4d84-9884-d9d26f98d253 .tooltip rect{fill:rgba(255,255,255,1);stroke:rgba(0,0,0,1);-webkit-transition:opacity 150ms;-moz-transition:opacity 150ms;transition:opacity 150ms}#chart-f5c460c5-ee4c-4d84-9884-d9d26f98d253 .tooltip .label{fill:rgba(0,0,0,.87)}#chart-f5c460c5-ee4c-4d84-9884-d9d26f98d253 .tooltip .label{fill:rgba(0,0,0,.87)}#chart-f5c460c5-ee4c-4d84-9884-d9d26f98d253 .tooltip .legend{font-size:.8em;fill:rgba(0,0,0,.54)}#chart-f5c460c5-ee4c-4d84-9884-d9d26f98d253 .tooltip .x_label{font-size:.6em;fill:rgba(0,0,0,1)}#chart-f5c460c5-ee4c-4d84-9884-d9d26f98d253 .tooltip .xlink{font-size:.5em;text-decoration:underline}#chart-f5c460c5-ee4c-4d84-9884-d9d26f98d253 .tooltip .value{font-size:1.5em}#chart-f5c460c5-ee4c-4d84-9884-d9d26f98d253 .bound{font-size:.5em}#chart-f5c460c5-ee4c-4d84-9884-d9d26f98d253 .max-value{font-size:.75em;fill:rgba(0,0,0,.54)}#chart-f5c460c5-ee4c-4d84-9884-d9d26f98d253 .map-element{fill:rgba(255,255,255,1);stroke:rgba(0,0,0,.54) !important}#chart-f5c460c5-ee4c-4d84-9884-d9d26f98d253 .map-element .reactive{fill-opacity:inherit;stroke-opacity:inherit}#chart-f5c460c5-ee4c-4d84-9884-d9d26f98d253 .color-0,#chart-f5c460c5-ee4c-4d84-9884-d9d26f98d253 .color-0 a:visited{stroke:#F44336;fill:#F44336}#chart-f5c460c5-ee4c-4d84-9884-d9d26f98d253 .text-overlay .color-0 text{fill:black}
#chart-f5c460c5-ee4c-4d84-9884-d9d26f98d253 text.no_data{text-anchor:middle}#chart-f5c460c5-ee4c-4d84-9884-d9d26f98d253 .guide.line{fill:none}#chart-f5c460c5-ee4c-4d84-9884-d9d26f98d253 .centered{text-anchor:middle}#chart-f5c460c5-ee4c-4d84-9884-d9d26f98d253 .title{text-anchor:middle}#chart-f5c460c5-ee4c-4d84-9884-d9d26f98d253 .legends .legend text{fill-opacity:1}#chart-f5c460c5-ee4c-4d84-9884-d9d26f98d253 .axis.x text{text-anchor:middle}#chart-f5c460c5-ee4c-4d84-9884-d9d26f98d253 .axis.x:not(.web) text[transform]{text-anchor:start}#chart-f5c460c5-ee4c-4d84-9884-d9d26f98d253 .axis.x:not(.web) text[transform].backwards{text-anchor:end}#chart-f5c460c5-ee4c-4d84-9884-d9d26f98d253 .axis.y text{text-anchor:end}#chart-f5c460c5-ee4c-4d84-9884-d9d26f98d253 .axis.y text[transform].backwards{text-anchor:start}#chart-f5c460c5-ee4c-4d84-9884-d9d26f98d253 .axis.y2 text{text-anchor:start}#chart-f5c460c5-ee4c-4d84-9884-d9d26f98d253 .axis.y2 text[transform].backwards{text-anchor:end}#chart-f5c460c5-ee4c-4d84-9884-d9d26f98d253 .axis .guide.line{stroke-dasharray:4,4;stroke:black}#chart-f5c460c5-ee4c-4d84-9884-d9d26f98d253 .axis .major.guide.line{stroke-dasharray:6,6;stroke:black}#chart-f5c460c5-ee4c-4d84-9884-d9d26f98d253 .horizontal .axis.y .guide.line,#chart-f5c460c5-ee4c-4d84-9884-d9d26f98d253 .horizontal .axis.y2 .guide.line,#chart-f5c460c5-ee4c-4d84-9884-d9d26f98d253 .vertical .axis.x .guide.line{opacity:0}#chart-f5c460c5-ee4c-4d84-9884-d9d26f98d253 .horizontal .axis.always_show .guide.line,#chart-f5c460c5-ee4c-4d84-9884-d9d26f98d253 .vertical .axis.always_show .guide.line{opacity:1 !important}#chart-f5c460c5-ee4c-4d84-9884-d9d26f98d253 .axis.y .guides:hover .guide.line,#chart-f5c460c5-ee4c-4d84-9884-d9d26f98d253 .axis.y2 .guides:hover .guide.line,#chart-f5c460c5-ee4c-4d84-9884-d9d26f98d253 .axis.x .guides:hover .guide.line{opacity:1}#chart-f5c460c5-ee4c-4d84-9884-d9d26f98d253 .axis .guides:hover text{opacity:1}#chart-f5c460c5-ee4c-4d84-9884-d9d26f98d253 .nofill{fill:none}#chart-f5c460c5-ee4c-4d84-9884-d9d26f98d253 .subtle-fill{fill-opacity:.2}#chart-f5c460c5-ee4c-4d84-9884-d9d26f98d253 .dot{stroke-width:1px;fill-opacity:1;stroke-opacity:1}#chart-f5c460c5-ee4c-4d84-9884-d9d26f98d253 .dot.active{stroke-width:5px}#chart-f5c460c5-ee4c-4d84-9884-d9d26f98d253 .dot.negative{fill:transparent}#chart-f5c460c5-ee4c-4d84-9884-d9d26f98d253 text,#chart-f5c460c5-ee4c-4d84-9884-d9d26f98d253 tspan{stroke:none !important}#chart-f5c460c5-ee4c-4d84-9884-d9d26f98d253 .series text.active{opacity:1}#chart-f5c460c5-ee4c-4d84-9884-d9d26f98d253 .tooltip rect{fill-opacity:.95;stroke-width:.5}#chart-f5c460c5-ee4c-4d84-9884-d9d26f98d253 .tooltip text{fill-opacity:1}#chart-f5c460c5-ee4c-4d84-9884-d9d26f98d253 .showable{visibility:hidden}#chart-f5c460c5-ee4c-4d84-9884-d9d26f98d253 .showable.shown{visibility:visible}#chart-f5c460c5-ee4c-4d84-9884-d9d26f98d253 .gauge-background{fill:rgba(229,229,229,1);stroke:none}#chart-f5c460c5-ee4c-4d84-9884-d9d26f98d253 .bg-lines{stroke:rgba(249,249,249,1);stroke-width:2px}</style><script type="text/javascript">window.pygal = window.pygal || {};window.pygal.config = window.pygal.config || {};window.pygal.config['f5c460c5-ee4c-4d84-9884-d9d26f98d253'] = {"allow_interruptions": false, "box_mode": "extremes", "classes": ["pygal-chart", "pygal-sparkline"], "css": ["file://style.css", "file://graph.css"], "defs": [], "disable_xml_declaration": false, "dots_size": 2.5, "dynamic_print_values": false, "explicit_size": true, "fill": false, "force_uri_protocol": "https", "formatter": null, "half_pie": false, "height": 50, "include_x_axis": false, "inner_radius": 0, "interpolate": "cubic", "interpolation_parameters": {}, "interpolation_precision": 250, "inverse_y_axis": false, "js": [], "legend_at_bottom": false, "legend_at_bottom_columns": null, "legend_box_size": 12, "logarithmic": false, "margin": 10, "margin_bottom": null, "margin_left": null, "margin_right": null, "margin_top": null, "max_scale": 2, "min_scale": 1, "missing_value_fill_truncation": "x", "no_data_text": "", "no_prefix": false, "order_min": null, "pretty_print": false, "print_labels": false, "print_values": false, "print_values_position": "center", "print_zeroes": true, "range": null, "rounded_bars": null, "secondary_range": null, "show_dots": false, "show_legend": false, "show_minor_x_labels": true, "show_minor_y_labels": true, "show_only_major_dots": false, "show_x_guides": false, "show_x_labels": false, "show_y_guides": true, "show_y_labels": true, "spacing": 0, "stack_from_top": false, "strict": false, "stroke": true, "stroke_style": null, "style": {"background": "rgba(249, 249, 249, 1)", "ci_colors": [], "colors": ["#F44336", "#3F51B5", "#009688", "#FFC107", "#FF5722", "#9C27B0", "#03A9F4", "#8BC34A", "#FF9800", "#E91E63", "#2196F3", "#4CAF50", "#FFEB3B", "#673AB7", "#00BCD4", "#CDDC39", "#9E9E9E", "#607D8B"], "dot_opacity": "1", "font_family": "Consolas, \"Liberation Mono\", Menlo, Courier, monospace", "foreground": "rgba(0, 0, 0, .87)", "foreground_strong": "rgba(0, 0, 0, 1)", "foreground_subtle": "rgba(0, 0, 0, .54)", "guide_stroke_color": "black", "guide_stroke_dasharray": "4,4", "label_font_family": "Consolas, \"Liberation Mono\", Menlo, Courier, monospace", "label_font_size": 10, "legend_font_family": "Consolas, \"Liberation Mono\", Menlo, Courier, monospace", "legend_font_size": 14, "major_guide_stroke_color": "black", "major_guide_stroke_dasharray": "6,6", "major_label_font_family": "Consolas, \"Liberation Mono\", Menlo, Courier, monospace", "major_label_font_size": 10, "no_data_font_family": "Consolas, \"Liberation Mono\", Menlo, Courier, monospace", "no_data_font_size": 64, "opacity": ".7", "opacity_hover": ".8", "plot_background": "rgba(255, 255, 255, 1)", "stroke_opacity": ".8", "stroke_opacity_hover": ".9", "stroke_width": "1", "stroke_width_hover": "4", "title_font_family": "Consolas, \"Liberation Mono\", Menlo, Courier, monospace", "title_font_size": 16, "tooltip_font_family": "Consolas, \"Liberation Mono\", Menlo, Courier, monospace", "tooltip_font_size": 14, "transition": "150ms", "value_background": "rgba(229, 229, 229, 1)", "value_colors": [], "value_font_family": "Consolas, \"Liberation Mono\", Menlo, Courier, monospace", "value_font_size": 16, "value_label_font_family": "Consolas, \"Liberation Mono\", Menlo, Courier, monospace", "value_label_font_size": 10}, "title": null, "tooltip_border_radius": 0, "tooltip_fancy_mode": true, "truncate_label": null, "truncate_legend": null, "width": 200, "x_label_rotation": 0, "x_labels": ["2024/11", "2024/10", "2024/9", "2024/8"], "x_labels_major": null, "x_labels_major_count": null, "x_labels_major_every": null, "x_title": null, "xrange": null, "y_label_rotation": 0, "y_labels": null, "y_labels_major": null, "y_labels_major_count": null, "y_labels_major_every": null, "y_title": null, "zero": 0, "legends": [""]}</script></defs><title>Pygal</title><g class="graph line-graph vertical"><rect x="0" y="0" width="200" height="50" class="background" /><g transform="translate(76, 10)" class="plot"><rect x="0" y="0" width="114.0" height="30" class="background" /><g class="axis y always_show"><path d="M0.000000 30.000000 h114.000000" class="line" /><g class="guides"><path d="M0.000000 29.423077 h114.000000" class="guide line" /><text x="-5" y="32.92307692307692" class="">0.345820032</text><title>0.345820032</title></g><g class="guides"><path d="M0.000000 0.576923 h114.000000" class="guide line" /><text x="-5" y="4.076923076923077" class="">15</text><title>15</title></g></g><g class="series serie-0 color-0"><path d="M2.192308 0.576923 L2.338462 0.701854 2.484615 0.826783 2.630769 0.951708 2.776923 1.076626 2.923077 1.201536 3.069231 1.326434 3.215385 1.451320 3.361538 1.576190 3.507692 1.701044 3.653846 1.825877 3.800000 1.950689 3.946154 2.075477 4.092308 2.200240 4.238462 2.324974 4.384615 2.449677 4.530769 2.574348 4.676923 2.698985 4.823077 2.823585 4.969231 2.948145 5.115385 3.072665 5.261538 3.197141 5.407692 3.321571 5.553846 3.445954 5.700000 3.570287 5.846154 3.694569 5.992308 3.818796 6.138462 3.942966 6.284615 4.067078 6.430769 4.191130 6.576923 4.315118 6.723077 4.439042 6.869231 4.562898 7.015385 4.686685 7.161538 4.810401 7.307692 4.934043 7.453846 5.057609 7.600000 5.181097 7.746154 5.304505 7.892308 5.427830 8.038462 5.551071 8.184615 5.674226 8.330769 5.797291 8.476923 5.920265 8.623077 6.043147 8.769231 6.165933 8.915385 6.288621 9.061538 6.411210 9.207692 6.533697 9.353846 6.656080 9.500000 6.778357 9.646154 6.900525 9.792308 7.022583 9.938462 7.144528 10.084615 7.266358 10.230769 7.388072 10.376923 7.509666 10.523077 7.631139 10.669231 7.752488 10.815385 7.873712 10.961538 7.994808 11.107692 8.115773 11.253846 8.236607 11.400000 8.357306 11.546154 8.477869 11.692308 8.598293 11.838462 8.718576 11.984615 8.838717 12.130769 8.958712 12.276923 9.078559 12.423077 9.198257 12.569231 9.317804 12.715385 9.437197 12.861538 9.556433 13.007692 9.675512 13.153846 9.794430 13.300000 9.913185 13.446154 10.031776 13.592308 10.150200 13.738462 10.268455 13.884615 10.386539 14.030769 10.504449 14.176923 10.622184 14.323077 10.739742 14.469231 10.857119 14.615385 10.974315 14.761538 11.091326 14.907692 11.208151 15.053846 11.324787 15.200000 11.441233 15.346154 11.557486 15.492308 11.673543 15.638462 11.789404 15.784615 11.905065 15.930769 12.020525 16.076923 12.135781 16.223077 12.250831 16.369231 12.365673 16.515385 12.480305 16.661538 12.594725 16.807692 12.708930 16.953846 12.822919 17.100000 12.936688 17.246154 13.050237 17.392308 13.163562 17.538462 13.276662 17.684615 13.389535 17.830769 13.502177 17.976923 13.614588 18.123077 13.726765 18.269231 13.838706 18.415385 13.950408 18.561538 14.061870 18.707692 14.173089 18.853846 14.284064 19.000000 14.394791 19.146154 14.505269 19.292308 14.615496 19.438462 14.725469 19.584615 14.835187 19.730769 14.944646 19.876923 15.053846 20.023077 15.162783 20.169231 15.271456 20.315385 15.379863 20.461538 15.488001 20.607692 15.595868 20.753846 15.703462 20.900000 15.810780 21.046154 15.917822 21.192308 16.024584 21.338462 16.131064 21.484615 16.237260 21.630769 16.343171 21.776923 16.448793 21.923077 16.554124 22.069231 16.659164 22.215385 16.763908 22.361538 16.868356 22.507692 16.972505 22.653846 17.076352 22.800000 17.179896 22.946154 17.283135 23.092308 17.386065 23.238462 17.488686 23.384615 17.590995 23.530769 17.692990 23.676923 17.794668 23.823077 17.896028 23.969231 17.997068 24.115385 18.097784 24.261538 18.198175 24.407692 18.298239 24.553846 18.397974 24.700000 18.497377 24.846154 18.596446 24.992308 18.695180 25.138462 18.793576 25.284615 18.891631 25.430769 18.989344 25.576923 19.086712 25.723077 19.183734 25.869231 19.280407 26.015385 19.376729 26.161538 19.472698 26.307692 19.568311 26.453846 19.663567 26.600000 19.758463 26.746154 19.852997 26.892308 19.947167 27.038462 20.040971 27.184615 20.134407 27.330769 20.227472 27.476923 20.320164 27.623077 20.412481 27.769231 20.504422 27.915385 20.595983 28.061538 20.687163 28.207692 20.777959 28.353846 20.868370 28.500000 20.958393 28.646154 21.048025 28.792308 21.137266 28.938462 21.226112 29.084615 21.314562 29.230769 21.402612 29.376923 21.490262 29.523077 21.577509 29.669231 21.664351 29.815385 21.750786 29.961538 21.836810 30.107692 21.922424 30.253846 22.007623 30.400000 22.092406 30.546154 22.176771 30.692308 22.260716 30.838462 22.344238 30.984615 22.427335 31.130769 22.510006 31.276923 22.592247 31.423077 22.674058 31.569231 22.755434 31.715385 22.836376 31.861538 22.916879 32.007692 22.996943 32.153846 23.076565 32.300000 23.155742 32.446154 23.234474 32.592308 23.312756 32.738462 23.390588 32.884615 23.467967 33.030769 23.544891 33.176923 23.621358 33.323077 23.697365 33.469231 23.772911 33.615385 23.847993 33.761538 23.922609 33.907692 23.996757 34.053846 24.070435 34.200000 24.143641 34.346154 24.216372 34.492308 24.288626 34.638462 24.360402 34.784615 24.431696 34.930769 24.502507 35.076923 24.572833 35.223077 24.642671 35.369231 24.712020 35.515385 24.780877 35.661538 24.849239 35.807692 24.917106 35.953846 24.984474 36.100000 25.051341 36.246154 25.117706 36.392308 25.183566 36.538462 25.248919 36.684615 25.313762 36.830769 25.378094 36.976923 25.441913 37.123077 25.505216 37.269231 25.568001 37.415385 25.630266 37.561538 25.692009 37.707692 25.753227 37.853846 25.813919 38.000000 25.874082 38.146154 25.933714 38.292308 25.992814 38.438462 26.051378 38.584615 26.109404 38.730769 26.166891 38.876923 26.223837 39.023077 26.280242 39.169231 26.336108 39.315385 26.391434 39.461538 26.446224 39.607692 26.500476 39.753846 26.554193 39.900000 26.607375 40.046154 26.660023 40.192308 26.712139 40.338462 26.763723 40.484615 26.814776 40.630769 26.865300 40.776923 26.915295 40.923077 26.964763 41.069231 27.013704 41.215385 27.062119 41.361538 27.110010 41.507692 27.157377 41.653846 27.204222 41.800000 27.250545 41.946154 27.296348 42.092308 27.341631 42.238462 27.386395 42.384615 27.430642 42.530769 27.474372 42.676923 27.517587 42.823077 27.560288 42.969231 27.602475 43.115385 27.644149 43.261538 27.685312 43.407692 27.725964 43.553846 27.766107 43.700000 27.805742 43.846154 27.844869 43.992308 27.883489 44.138462 27.921605 44.284615 27.959215 44.430769 27.996323 44.576923 28.032928 44.723077 28.069031 44.869231 28.104634 45.015385 28.139738 45.161538 28.174343 45.307692 28.208451 45.453846 28.242063 45.600000 28.275179 45.746154 28.307801 45.892308 28.339929 46.038462 28.371566 46.184615 28.402710 46.330769 28.433365 46.476923 28.463530 46.623077 28.493207 46.769231 28.522397 46.915385 28.551100 47.061538 28.579318 47.207692 28.607052 47.353846 28.634302 47.500000 28.661071 47.646154 28.687358 47.792308 28.713165 47.938462 28.738492 48.084615 28.763341 48.230769 28.787714 48.376923 28.811609 48.523077 28.835030 48.669231 28.857977 48.815385 28.880450 48.961538 28.902451 49.107692 28.923981 49.253846 28.945041 49.400000 28.965631 49.546154 28.985754 49.692308 29.005409 49.838462 29.024599 49.984615 29.043323 50.130769 29.061583 50.276923 29.079380 50.423077 29.096714 50.569231 29.113588 50.715385 29.130002 50.861538 29.145956 51.007692 29.161453 51.153846 29.176492 51.300000 29.191075 51.446154 29.205204 51.592308 29.218878 51.738462 29.232099 51.884615 29.244868 52.030769 29.257187 52.176923 29.269055 52.323077 29.280474 52.469231 29.291445 52.615385 29.301970 52.761538 29.312048 52.907692 29.321681 53.053846 29.330870 53.200000 29.339617 53.346154 29.347921 53.492308 29.355785 53.638462 29.363208 53.784615 29.370193 53.930769 29.376740 54.076923 29.382850 54.223077 29.388524 54.369231 29.393763 54.515385 29.398568 54.661538 29.402940 54.807692 29.406881 54.953846 29.410390 55.100000 29.413470 55.246154 29.416121 55.392308 29.418344 55.538462 29.420140 55.684615 29.421510 55.830769 29.422456 55.976923 29.422978 56.123077 29.423077 56.269231 29.422754 56.415385 29.422011 56.561538 29.420847 56.707692 29.419265 56.853846 29.417265 57.000000 29.414849 57.146154 29.412017 57.292308 29.408769 57.438462 29.405109 57.584615 29.401035 57.730769 29.396550 57.876923 29.391654 58.023077 29.386349 58.169231 29.380634 58.315385 29.374512 58.461538 29.367984 58.607692 29.361049 58.753846 29.353711 58.900000 29.345968 59.046154 29.337823 59.192308 29.329276 59.338462 29.320329 59.484615 29.310981 59.630769 29.301236 59.776923 29.291093 59.923077 29.280553 60.069231 29.269617 60.215385 29.258287 60.361538 29.246564 60.507692 29.234448 60.653846 29.221940 60.800000 29.209042 60.946154 29.195754 61.092308 29.182078 61.238462 29.168014 61.384615 29.153563 61.530769 29.138728 61.676923 29.123507 61.823077 29.107904 61.969231 29.091917 62.115385 29.075549 62.261538 29.058801 62.407692 29.041674 62.553846 29.024167 62.700000 29.006284 62.846154 28.988024 62.992308 28.969388 63.138462 28.950379 63.284615 28.930995 63.430769 28.911240 63.576923 28.891113 63.723077 28.870615 63.869231 28.849749 64.015385 28.828513 64.161538 28.806911 64.307692 28.784942 64.453846 28.762608 64.600000 28.739909 64.746154 28.716847 64.892308 28.693423 65.038462 28.669637 65.184615 28.645492 65.330769 28.620986 65.476923 28.596123 65.623077 28.570902 65.769231 28.545325 65.915385 28.519393 66.061538 28.493107 66.207692 28.466467 66.353846 28.439475 66.500000 28.412132 66.646154 28.384438 66.792308 28.356395 66.938462 28.328004 67.084615 28.299266 67.230769 28.270182 67.376923 28.240752 67.523077 28.210979 67.669231 28.180862 67.815385 28.150403 67.961538 28.119603 68.107692 28.088462 68.253846 28.056983 68.400000 28.025165 68.546154 27.993011 68.692308 27.960520 68.838462 27.927694 68.984615 27.894534 69.130769 27.861041 69.276923 27.827215 69.423077 27.793059 69.569231 27.758573 69.715385 27.723757 69.861538 27.688614 70.007692 27.653143 70.153846 27.617346 70.300000 27.581225 70.446154 27.544779 70.592308 27.508011 70.738462 27.470920 70.884615 27.433508 71.030769 27.395776 71.176923 27.357726 71.323077 27.319357 71.469231 27.280672 71.615385 27.241670 71.761538 27.202353 71.907692 27.162723 72.053846 27.122780 72.200000 27.082524 72.346154 27.041958 72.492308 27.001082 72.638462 26.959897 72.784615 26.918404 72.930769 26.876604 73.076923 26.834498 73.223077 26.792088 73.369231 26.749373 73.515385 26.706356 73.661538 26.663036 73.807692 26.619416 73.953846 26.575497 74.100000 26.531278 74.246154 26.486761 74.392308 26.441948 74.538462 26.396839 74.684615 26.351435 74.830769 26.305737 74.976923 26.259747 75.123077 26.213464 75.269231 26.166891 75.415385 26.120029 75.561538 26.072877 75.707692 26.025438 75.853846 25.977713 76.000000 25.929703 76.146154 25.881409 76.292308 25.832832 76.438462 25.783973 76.584615 25.734834 76.730769 25.685416 76.876923 25.635719 77.023077 25.585745 77.169231 25.535496 77.315385 25.484972 77.461538 25.434174 77.607692 25.383104 77.753846 25.331763 77.900000 25.280152 78.046154 25.228271 78.192308 25.176123 78.338462 25.123709 78.484615 25.071029 78.630769 25.018085 78.776923 24.964877 78.923077 24.911408 79.069231 24.857678 79.215385 24.803688 79.361538 24.749440 79.507692 24.694935 79.653846 24.640173 79.800000 24.585157 79.946154 24.529886 80.092308 24.474363 80.238462 24.418589 80.384615 24.362564 80.530769 24.306290 80.676923 24.249768 80.823077 24.192999 80.969231 24.135984 81.115385 24.078725 81.261538 24.021222 81.407692 23.963477 81.553846 23.905491 81.700000 23.847265 81.846154 23.788801 81.992308 23.730098 82.138462 23.671160 82.284615 23.611986 82.430769 23.552578 82.576923 23.492936 82.723077 23.433064 82.869231 23.372960 83.015385 23.312627 83.161538 23.252066 83.307692 23.191277 83.453846 23.130263 83.600000 23.069023 83.746154 23.007560 83.892308 22.945875 84.038462 22.883968 84.184615 22.821840 84.330769 22.759494 84.476923 22.696930 84.623077 22.634149 84.769231 22.571153 84.915385 22.507942 85.061538 22.444518 85.207692 22.380881 85.353846 22.317034 85.500000 22.252977 85.646154 22.188712 85.792308 22.124239 85.938462 22.059559 86.084615 21.994675 86.230769 21.929586 86.376923 21.864295 86.523077 21.798802 86.669231 21.733108 86.815385 21.667216 86.961538 21.601124 87.107692 21.534836 87.253846 21.468352 87.400000 21.401674 87.546154 21.334801 87.692308 21.267737 87.838462 21.200481 87.984615 21.133035 88.130769 21.065400 88.276923 20.997577 88.423077 20.929568 88.569231 20.861373 88.715385 20.792994 88.861538 20.724432 89.007692 20.655688 89.153846 20.586763 89.300000 20.517659 89.446154 20.448376 89.592308 20.378915 89.738462 20.309279 89.884615 20.239467 90.030769 20.169482 90.176923 20.099324 90.323077 20.028994 90.469231 19.958494 90.615385 19.887825 90.761538 19.816988 90.907692 19.745983 91.053846 19.674813 91.200000 19.603479 91.346154 19.531981 91.492308 19.460321 91.638462 19.388500 91.784615 19.316518 91.930769 19.244378 92.076923 19.172081 92.223077 19.099626 92.369231 19.027017 92.515385 18.954253 92.661538 18.881337 92.807692 18.808268 92.953846 18.735049 93.100000 18.661681 93.246154 18.588164 93.392308 18.514500 93.538462 18.440689 93.684615 18.366734 93.830769 18.292635 93.976923 18.218394 94.123077 18.144011 94.269231 18.069488 94.415385 17.994826 94.561538 17.920026 94.707692 17.845090 94.853846 17.770017 95.000000 17.694810 95.146154 17.619470 95.292308 17.543998 95.438462 17.468395 95.584615 17.392662 95.730769 17.316800 95.876923 17.240811 96.023077 17.164695 96.169231 17.088455 96.315385 17.012090 96.461538 16.935602 96.607692 16.858993 96.753846 16.782263 96.900000 16.705414 97.046154 16.628447 97.192308 16.551362 97.338462 16.474162 97.484615 16.396847 97.630769 16.319418 97.776923 16.241877 97.923077 16.164225 98.069231 16.086462 98.215385 16.008591 98.361538 15.930612 98.507692 15.852526 98.653846 15.774334 98.800000 15.696039 98.946154 15.617640 99.092308 15.539139 99.238462 15.460538 99.384615 15.381836 99.530769 15.303036 99.676923 15.224139 99.823077 15.145146 99.969231 15.066057 100.115385 14.986875 100.261538 14.907600 100.407692 14.828234 100.553846 14.748777 100.700000 14.669230 100.846154 14.589596 100.992308 14.509875 101.138462 14.430068 101.284615 14.350176 101.430769 14.270201 101.576923 14.190144 101.723077 14.110005 101.869231 14.029787 102.015385 13.949489 102.161538 13.869114 102.307692 13.788663 102.453846 13.708136 102.600000 13.627535 102.746154 13.546861 102.892308 13.466116 103.038462 13.385299 103.184615 13.304413 103.330769 13.223458 103.476923 13.142437 103.623077 13.061349 103.769231 12.980196 103.915385 12.898980 104.061538 12.817701 104.207692 12.736361 104.353846 12.654960 104.500000 12.573500 104.646154 12.491982 104.792308 12.410408 104.938462 12.328778 105.084615 12.247093 105.230769 12.165355 105.376923 12.083565 105.523077 12.001724 105.669231 11.919833 105.815385 11.837893 105.961538 11.755906 106.107692 11.673873 106.253846 11.591794 106.400000 11.509671 106.546154 11.427506 106.692308 11.345298 106.838462 11.263050 106.984615 11.180763 107.130769 11.098437 107.276923 11.016075 107.423077 10.933676 107.569231 10.851243 107.715385 10.768776 107.861538 10.686276 108.007692 10.603746 108.153846 10.521185 108.300000 10.438595 108.446154 10.355977 108.592308 10.273333 108.738462 10.190663 108.884615 10.107969 109.030769 10.025252 109.176923 9.942512 109.323077 9.859752 109.469231 9.776972 109.615385 9.694174 109.761538 9.611358 109.907692 9.528526 110.053846 9.445679 110.200000 9.362818 110.346154 9.279944 110.492308 9.197058 110.638462 9.114163 110.784615 9.031257 110.930769 8.948344 111.076923 8.865424 111.223077 8.782498 111.369231 8.699567 111.515385 8.616633 111.661538 8.533697 111.807692 8.450759" class="line reactive nofill" /></g></g><g class="titles" /><g transform="translate(76, 10)" class="plot overlay"><g class="series serie-0 color-0" /></g><g transform="translate(76, 10)" class="plot text-overlay"><g class="series serie-0 color-0" /></g><g transform="translate(76, 10)" class="plot tooltip-overlay"><g transform="translate(0 0)" style="opacity: 0" class="tooltip"><rect rx="0" ry="0" width="0" height="0" class="tooltip-box" /><g class="text" /></g></g></g></svg>