<?xml version='1.0' encoding='utf-8'?>
<svg xmlns="http://www.w3.org/2000/svg" id="chart-aa9e0b3a-5103-4cae-b4dc-89cac48ff1a8" class="pygal-chart pygal-sparkline" viewBox="0 0 200 50" width="200" height="50"><!--Generated with pygal 3.0.5 (etree) ©Kozea 2012-2016 on 2024-11-07--><!--http://pygal.org--><!--http://github.com/Kozea/pygal--><defs><style type="text/css">#chart-aa9e0b3a-5103-4cae-b4dc-89cac48ff1a8{-webkit-user-select:none;-webkit-font-smoothing:antialiased;font-family:Consolas,"Liberation Mono",Menlo,Courier,monospace}#chart-aa9e0b3a-5103-4cae-b4dc-89cac48ff1a8 .title{font-family:Consolas,"Liberation Mono",Menlo,Courier,monospace;font-size:16px}#chart-aa9e0b3a-5103-4cae-b4dc-89cac48ff1a8 .legends .legend text{font-family:Consolas,"Liberation Mono",Menlo,Courier,monospace;font-size:14px}#chart-aa9e0b3a-5103-4cae-b4dc-89cac48ff1a8 .axis text{font-family:Consolas,"Liberation Mono",Menlo,Courier,monospace;font-size:10px}#chart-aa9e0b3a-5103-4cae-b4dc-89cac48ff1a8 .axis text.major{font-family:Consolas,"Liberation Mono",Menlo,Courier,monospace;font-size:10px}#chart-aa9e0b3a-5103-4cae-b4dc-89cac48ff1a8 .text-overlay text.value{font-family:Consolas,"Liberation Mono",Menlo,Courier,monospace;font-size:16px}#chart-aa9e0b3a-5103-4cae-b4dc-89cac48ff1a8 .text-overlay text.label{font-family:Consolas,"Liberation Mono",Menlo,Courier,monospace;font-size:10px}#chart-aa9e0b3a-5103-4cae-b4dc-89cac48ff1a8 .tooltip{font-family:Consolas,"Liberation Mono",Menlo,Courier,monospace;font-size:14px}#chart-aa9e0b3a-5103-4cae-b4dc-89cac48ff1a8 text.no_data{font-family:Consolas,"Liberation Mono",Menlo,Courier,monospace;font-size:64px}
#chart-aa9e0b3a-5103-4cae-b4dc-89cac48ff1a8{background-color:rgba(249,249,249,1)}#chart-aa9e0b3a-5103-4cae-b4dc-89cac48ff1a8 path,#chart-aa9e0b3a-5103-4cae-b4dc-89cac48ff1a8 line,#chart-aa9e0b3a-5103-4cae-b4dc-89cac48ff1a8 rect,#chart-aa9e0b3a-5103-4cae-b4dc-89cac48ff1a8 circle{-webkit-transition:150ms;-moz-transition:150ms;transition:150ms}#chart-aa9e0b3a-5103-4cae-b4dc-89cac48ff1a8 .graph &gt; .background{fill:rgba(249,249,249,1)}#chart-aa9e0b3a-5103-4cae-b4dc-89cac48ff1a8 .plot &gt; .background{fill:rgba(255,255,255,1)}#chart-aa9e0b3a-5103-4cae-b4dc-89cac48ff1a8 .graph{fill:rgba(0,0,0,.87)}#chart-aa9e0b3a-5103-4cae-b4dc-89cac48ff1a8 text.no_data{fill:rgba(0,0,0,1)}#chart-aa9e0b3a-5103-4cae-b4dc-89cac48ff1a8 .title{fill:rgba(0,0,0,1)}#chart-aa9e0b3a-5103-4cae-b4dc-89cac48ff1a8 .legends .legend text{fill:rgba(0,0,0,.87)}#chart-aa9e0b3a-5103-4cae-b4dc-89cac48ff1a8 .legends .legend:hover text{fill:rgba(0,0,0,1)}#chart-aa9e0b3a-5103-4cae-b4dc-89cac48ff1a8 .axis .line{stroke:rgba(0,0,0,1)}#chart-aa9e0b3a-5103-4cae-b4dc-89cac48ff1a8 .axis .guide.line{stroke:rgba(0,0,0,.54)}#chart-aa9e0b3a-5103-4cae-b4dc-89cac48ff1a8 .axis .major.line{stroke:rgba(0,0,0,.87)}#chart-aa9e0b3a-5103-4cae-b4dc-89cac48ff1a8 .axis text.major{fill:rgba(0,0,0,1)}#chart-aa9e0b3a-5103-4cae-b4dc-89cac48ff1a8 .axis.y .guides:hover .guide.line,#chart-aa9e0b3a-5103-4cae-b4dc-89cac48ff1a8 .line-graph .axis.x .guides:hover .guide.line,#chart-aa9e0b3a-5103-4cae-b4dc-89cac48ff1a8 .stackedline-graph .axis.x .guides:hover .guide.line,#chart-aa9e0b3a-5103-4cae-b4dc-89cac48ff1a8 .xy-graph .axis.x .guides:hover .guide.line{stroke:rgba(0,0,0,1)}#chart-aa9e0b3a-5103-4cae-b4dc-89cac48ff1a8 .axis .guides:hover text{fill:rgba(0,0,0,1)}#chart-aa9e0b3a-5103-4cae-b4dc-89cac48ff1a8 .reactive{fill-opacity:.7;stroke-opacity:.8;stroke-width:1}#chart-aa9e0b3a-5103-4cae-b4dc-89cac48ff1a8 .ci{stroke:rgba(0,0,0,.87)}#chart-aa9e0b3a-5103-4cae-b4dc-89cac48ff1a8 .reactive.active,#chart-aa9e0b3a-5103-4cae-b4dc-89cac48ff1a8 .active .reactive{fill-opacity:.8;stroke-opacity:.9;stroke-width:4}#chart-aa9e0b3a-5103-4cae-b4dc-89cac48ff1a8 .ci .reactive.active{stroke-width:1.5}#chart-aa9e0b3a-5103-4cae-b4dc-89cac48ff1a8 .series text{fill:rgba(0,0,0,1)}#chart-aa9e0b3a-5103-4cae-b4dc-89cac48ff1a8 .tooltip rect{fill:rgba(255,255,255,1);stroke:rgba(0,0,0,1);-webkit-transition:opacity 150ms;-moz-transition:opacity 150ms;transition:opacity 150ms}#chart-aa9e0b3a-5103-4cae-b4dc-89cac48ff1a8 .tooltip .label{fill:rgba(0,0,0,.87)}#chart-aa9e0b3a-5103-4cae-b4dc-89cac48ff1a8 .tooltip .label{fill:rgba(0,0,0,.87)}#chart-aa9e0b3a-5103-4cae-b4dc-89cac48ff1a8 .tooltip .legend{font-size:.8em;fill:rgba(0,0,0,.54)}#chart-aa9e0b3a-5103-4cae-b4dc-89cac48ff1a8 .tooltip .x_label{font-size:.6em;fill:rgba(0,0,0,1)}#chart-aa9e0b3a-5103-4cae-b4dc-89cac48ff1a8 .tooltip .xlink{font-size:.5em;text-decoration:underline}#chart-aa9e0b3a-5103-4cae-b4dc-89cac48ff1a8 .tooltip .value{font-size:1.5em}#chart-aa9e0b3a-5103-4cae-b4dc-89cac48ff1a8 .bound{font-size:.5em}#chart-aa9e0b3a-5103-4cae-b4dc-89cac48ff1a8 .max-value{font-size:.75em;fill:rgba(0,0,0,.54)}#chart-aa9e0b3a-5103-4cae-b4dc-89cac48ff1a8 .map-element{fill:rgba(255,255,255,1);stroke:rgba(0,0,0,.54) !important}#chart-aa9e0b3a-5103-4cae-b4dc-89cac48ff1a8 .map-element .reactive{fill-opacity:inherit;stroke-opacity:inherit}#chart-aa9e0b3a-5103-4cae-b4dc-89cac48ff1a8 .color-0,#chart-aa9e0b3a-5103-4cae-b4dc-89cac48ff1a8 .color-0 a:visited{stroke:#F44336;fill:#F44336}#chart-aa9e0b3a-5103-4cae-b4dc-89cac48ff1a8 .text-overlay .color-0 text{fill:black}
#chart-aa9e0b3a-5103-4cae-b4dc-89cac48ff1a8 text.no_data{text-anchor:middle}#chart-aa9e0b3a-5103-4cae-b4dc-89cac48ff1a8 .guide.line{fill:none}#chart-aa9e0b3a-5103-4cae-b4dc-89cac48ff1a8 .centered{text-anchor:middle}#chart-aa9e0b3a-5103-4cae-b4dc-89cac48ff1a8 .title{text-anchor:middle}#chart-aa9e0b3a-5103-4cae-b4dc-89cac48ff1a8 .legends .legend text{fill-opacity:1}#chart-aa9e0b3a-5103-4cae-b4dc-89cac48ff1a8 .axis.x text{text-anchor:middle}#chart-aa9e0b3a-5103-4cae-b4dc-89cac48ff1a8 .axis.x:not(.web) text[transform]{text-anchor:start}#chart-aa9e0b3a-5103-4cae-b4dc-89cac48ff1a8 .axis.x:not(.web) text[transform].backwards{text-anchor:end}#chart-aa9e0b3a-5103-4cae-b4dc-89cac48ff1a8 .axis.y text{text-anchor:end}#chart-aa9e0b3a-5103-4cae-b4dc-89cac48ff1a8 .axis.y text[transform].backwards{text-anchor:start}#chart-aa9e0b3a-5103-4cae-b4dc-89cac48ff1a8 .axis.y2 text{text-anchor:start}#chart-aa9e0b3a-5103-4cae-b4dc-89cac48ff1a8 .axis.y2 text[transform].backwards{text-anchor:end}#chart-aa9e0b3a-5103-4cae-b4dc-89cac48ff1a8 .axis .guide.line{stroke-dasharray:4,4;stroke:black}#chart-aa9e0b3a-5103-4cae-b4dc-89cac48ff1a8 .axis .major.guide.line{stroke-dasharray:6,6;stroke:black}#chart-aa9e0b3a-5103-4cae-b4dc-89cac48ff1a8 .horizontal .axis.y .guide.line,#chart-aa9e0b3a-5103-4cae-b4dc-89cac48ff1a8 .horizontal .axis.y2 .guide.line,#chart-aa9e0b3a-5103-4cae-b4dc-89cac48ff1a8 .vertical .axis.x .guide.line{opacity:0}#chart-aa9e0b3a-5103-4cae-b4dc-89cac48ff1a8 .horizontal .axis.always_show .guide.line,#chart-aa9e0b3a-5103-4cae-b4dc-89cac48ff1a8 .vertical .axis.always_show .guide.line{opacity:1 !important}#chart-aa9e0b3a-5103-4cae-b4dc-89cac48ff1a8 .axis.y .guides:hover .guide.line,#chart-aa9e0b3a-5103-4cae-b4dc-89cac48ff1a8 .axis.y2 .guides:hover .guide.line,#chart-aa9e0b3a-5103-4cae-b4dc-89cac48ff1a8 .axis.x .guides:hover .guide.line{opacity:1}#chart-aa9e0b3a-5103-4cae-b4dc-89cac48ff1a8 .axis .guides:hover text{opacity:1}#chart-aa9e0b3a-5103-4cae-b4dc-89cac48ff1a8 .nofill{fill:none}#chart-aa9e0b3a-5103-4cae-b4dc-89cac48ff1a8 .subtle-fill{fill-opacity:.2}#chart-aa9e0b3a-5103-4cae-b4dc-89cac48ff1a8 .dot{stroke-width:1px;fill-opacity:1;stroke-opacity:1}#chart-aa9e0b3a-5103-4cae-b4dc-89cac48ff1a8 .dot.active{stroke-width:5px}#chart-aa9e0b3a-5103-4cae-b4dc-89cac48ff1a8 .dot.negative{fill:transparent}#chart-aa9e0b3a-5103-4cae-b4dc-89cac48ff1a8 text,#chart-aa9e0b3a-5103-4cae-b4dc-89cac48ff1a8 tspan{stroke:none !important}#chart-aa9e0b3a-5103-4cae-b4dc-89cac48ff1a8 .series text.active{opacity:1}#chart-aa9e0b3a-5103-4cae-b4dc-89cac48ff1a8 .tooltip rect{fill-opacity:.95;stroke-width:.5}#chart-aa9e0b3a-5103-4cae-b4dc-89cac48ff1a8 .tooltip text{fill-opacity:1}#chart-aa9e0b3a-5103-4cae-b4dc-89cac48ff1a8 .showable{visibility:hidden}#chart-aa9e0b3a-5103-4cae-b4dc-89cac48ff1a8 .showable.shown{visibility:visible}#chart-aa9e0b3a-5103-4cae-b4dc-89cac48ff1a8 .gauge-background{fill:rgba(229,229,229,1);stroke:none}#chart-aa9e0b3a-5103-4cae-b4dc-89cac48ff1a8 .bg-lines{stroke:rgba(249,249,249,1);stroke-width:2px}</style><script type="text/javascript">window.pygal = window.pygal || {};window.pygal.config = window.pygal.config || {};window.pygal.config['aa9e0b3a-5103-4cae-b4dc-89cac48ff1a8'] = {"allow_interruptions": false, "box_mode": "extremes", "classes": ["pygal-chart", "pygal-sparkline"], "css": ["file://style.css", "file://graph.css"], "defs": [], "disable_xml_declaration": false, "dots_size": 2.5, "dynamic_print_values": false, "explicit_size": true, "fill": false, "force_uri_protocol": "https", "formatter": null, "half_pie": false, "height": 50, "include_x_axis": false, "inner_radius": 0, "interpolate": "cubic", "interpolation_parameters": {}, "interpolation_precision": 250, "inverse_y_axis": false, "js": [], "legend_at_bottom": false, "legend_at_bottom_columns": null, "legend_box_size": 12, "logarithmic": false, "margin": 10, "margin_bottom": null, "margin_left": null, "margin_right": null, "margin_top": null, "max_scale": 2, "min_scale": 1, "missing_value_fill_truncation": "x", "no_data_text": "", "no_prefix": false, "order_min": null, "pretty_print": false, "print_labels": false, "print_values": false, "print_values_position": "center", "print_zeroes": true, "range": null, "rounded_bars": null, "secondary_range": null, "show_dots": false, "show_legend": false, "show_minor_x_labels": true, "show_minor_y_labels": true, "show_only_major_dots": false, "show_x_guides": false, "show_x_labels": false, "show_y_guides": true, "show_y_labels": true, "spacing": 0, "stack_from_top": false, "strict": false, "stroke": true, "stroke_style": null, "style": {"background": "rgba(249, 249, 249, 1)", "ci_colors": [], "colors": ["#F44336", "#3F51B5", "#009688", "#FFC107", "#FF5722", "#9C27B0", "#03A9F4", "#8BC34A", "#FF9800", "#E91E63", "#2196F3", "#4CAF50", "#FFEB3B", "#673AB7", "#00BCD4", "#CDDC39", "#9E9E9E", "#607D8B"], "dot_opacity": "1", "font_family": "Consolas, \"Liberation Mono\", Menlo, Courier, monospace", "foreground": "rgba(0, 0, 0, .87)", "foreground_strong": "rgba(0, 0, 0, 1)", "foreground_subtle": "rgba(0, 0, 0, .54)", "guide_stroke_color": "black", "guide_stroke_dasharray": "4,4", "label_font_family": "Consolas, \"Liberation Mono\", Menlo, Courier, monospace", "label_font_size": 10, "legend_font_family": "Consolas, \"Liberation Mono\", Menlo, Courier, monospace", "legend_font_size": 14, "major_guide_stroke_color": "black", "major_guide_stroke_dasharray": "6,6", "major_label_font_family": "Consolas, \"Liberation Mono\", Menlo, Courier, monospace", "major_label_font_size": 10, "no_data_font_family": "Consolas, \"Liberation Mono\", Menlo, Courier, monospace", "no_data_font_size": 64, "opacity": ".7", "opacity_hover": ".8", "plot_background": "rgba(255, 255, 255, 1)", "stroke_opacity": ".8", "stroke_opacity_hover": ".9", "stroke_width": "1", "stroke_width_hover": "4", "title_font_family": "Consolas, \"Liberation Mono\", Menlo, Courier, monospace", "title_font_size": 16, "tooltip_font_family": "Consolas, \"Liberation Mono\", Menlo, Courier, monospace", "tooltip_font_size": 14, "transition": "150ms", "value_background": "rgba(229, 229, 229, 1)", "value_colors": [], "value_font_family": "Consolas, \"Liberation Mono\", Menlo, Courier, monospace", "value_font_size": 16, "value_label_font_family": "Consolas, \"Liberation Mono\", Menlo, Courier, monospace", "value_label_font_size": 10}, "title": null, "tooltip_border_radius": 0, "tooltip_fancy_mode": true, "truncate_label": null, "truncate_legend": null, "width": 200, "x_label_rotation": 0, "x_labels": ["2024/11", "2024/10", "2024/9", "2024/8"], "x_labels_major": null, "x_labels_major_count": null, "x_labels_major_every": null, "x_title": null, "xrange": null, "y_label_rotation": 0, "y_labels": null, "y_labels_major": null, "y_labels_major_count": null, "y_labels_major_every": null, "y_title": null, "zero": 0, "legends": [""]}</script></defs><title>Pygal</title><g class="graph line-graph vertical"><rect x="0" y="0" width="200" height="50" class="background" /><g transform="translate(76, 10)" class="plot"><rect x="0" y="0" width="114.0" height="30" class="background" /><g class="axis y always_show"><path d="M0.000000 30.000000 h114.000000" class="line" /><g class="guides"><path d="M0.000000 29.423077 h114.000000" class="guide line" /><text x="-5" y="32.92307692307692" class="">0.287348736</text><title>0.287348736</title></g><g class="guides"><path d="M0.000000 0.576923 h114.000000" class="guide line" /><text x="-5" y="4.076923076923077" class="">21</text><title>21</title></g></g><g class="series serie-0 color-0"><path d="M2.192308 22.859848 L2.338462 22.873961 2.484615 22.888074 2.630769 22.902187 2.776923 22.916301 2.923077 22.930416 3.069231 22.944533 3.215385 22.958650 3.361538 22.972770 3.507692 22.986891 3.653846 23.001015 3.800000 23.015141 3.946154 23.029271 4.092308 23.043403 4.238462 23.057538 4.384615 23.071677 4.530769 23.085819 4.676923 23.099966 4.823077 23.114116 4.969231 23.128272 5.115385 23.142432 5.261538 23.156597 5.407692 23.170767 5.553846 23.184942 5.700000 23.199124 5.846154 23.213311 5.992308 23.227505 6.138462 23.241705 6.284615 23.255912 6.430769 23.270126 6.576923 23.284347 6.723077 23.298576 6.869231 23.312812 7.015385 23.327056 7.161538 23.341309 7.307692 23.355570 7.453846 23.369840 7.600000 23.384119 7.746154 23.398407 7.892308 23.412704 8.038462 23.427011 8.184615 23.441328 8.330769 23.455656 8.476923 23.469994 8.623077 23.484342 8.769231 23.498702 8.915385 23.513073 9.061538 23.527455 9.207692 23.541849 9.353846 23.556255 9.500000 23.570674 9.646154 23.585104 9.792308 23.599548 9.938462 23.614004 10.084615 23.628474 10.230769 23.642957 10.376923 23.657454 10.523077 23.671965 10.669231 23.686490 10.815385 23.701030 10.961538 23.715584 11.107692 23.730153 11.253846 23.744738 11.400000 23.759338 11.546154 23.773953 11.692308 23.788585 11.838462 23.803233 11.984615 23.817897 12.130769 23.832578 12.276923 23.847277 12.423077 23.861992 12.569231 23.876725 12.715385 23.891475 12.861538 23.906243 13.007692 23.921030 13.153846 23.935835 13.300000 23.950659 13.446154 23.965502 13.592308 23.980364 13.738462 23.995245 13.884615 24.010146 14.030769 24.025068 14.176923 24.040009 14.323077 24.054971 14.469231 24.069953 14.615385 24.084957 14.761538 24.099982 14.907692 24.115028 15.053846 24.130096 15.200000 24.145186 15.346154 24.160298 15.492308 24.175432 15.638462 24.190590 15.784615 24.205770 15.930769 24.220973 16.076923 24.236200 16.223077 24.251451 16.369231 24.266725 16.515385 24.282024 16.661538 24.297347 16.807692 24.312695 16.953846 24.328068 17.100000 24.343466 17.246154 24.358890 17.392308 24.374339 17.538462 24.389814 17.684615 24.405316 17.830769 24.420843 17.976923 24.436398 18.123077 24.451979 18.269231 24.467588 18.415385 24.483224 18.561538 24.498888 18.707692 24.514580 18.853846 24.530300 19.000000 24.546049 19.146154 24.561826 19.292308 24.577632 19.438462 24.593467 19.584615 24.609332 19.730769 24.625227 19.876923 24.641151 20.023077 24.657106 20.169231 24.673091 20.315385 24.689106 20.461538 24.705153 20.607692 24.721231 20.753846 24.737340 20.900000 24.753481 21.046154 24.769654 21.192308 24.785860 21.338462 24.802097 21.484615 24.818368 21.630769 24.834671 21.776923 24.851007 21.923077 24.867377 22.069231 24.883781 22.215385 24.900218 22.361538 24.916690 22.507692 24.933196 22.653846 24.949737 22.800000 24.966313 22.946154 24.982924 23.092308 24.999570 23.238462 25.016253 23.384615 25.032971 23.530769 25.049725 23.676923 25.066516 23.823077 25.083343 23.969231 25.100207 24.115385 25.117109 24.261538 25.134048 24.407692 25.151024 24.553846 25.168039 24.700000 25.185092 24.846154 25.202183 24.992308 25.219313 25.138462 25.236481 25.284615 25.253689 25.430769 25.270937 25.576923 25.288224 25.723077 25.305551 25.869231 25.322918 26.015385 25.340326 26.161538 25.357774 26.307692 25.375263 26.453846 25.392794 26.600000 25.410365 26.746154 25.427979 26.892308 25.445634 27.038462 25.463332 27.184615 25.481072 27.330769 25.498855 27.476923 25.516680 27.623077 25.534549 27.769231 25.552461 27.915385 25.570417 28.061538 25.588417 28.207692 25.606461 28.353846 25.624550 28.500000 25.642683 28.646154 25.660861 28.792308 25.679084 28.938462 25.697353 29.084615 25.715667 29.230769 25.734027 29.376923 25.752434 29.523077 25.770886 29.669231 25.789386 29.815385 25.807932 29.961538 25.826526 30.107692 25.845167 30.253846 25.863855 30.400000 25.882592 30.546154 25.901377 30.692308 25.920210 30.838462 25.939092 30.984615 25.958022 31.130769 25.977002 31.276923 25.996032 31.423077 26.015111 31.569231 26.034240 31.715385 26.053419 31.861538 26.072648 32.007692 26.091928 32.153846 26.111259 32.300000 26.130641 32.446154 26.150075 32.592308 26.169560 32.738462 26.189098 32.884615 26.208687 33.030769 26.228329 33.176923 26.248023 33.323077 26.267770 33.469231 26.287571 33.615385 26.307425 33.761538 26.327332 33.907692 26.347294 34.053846 26.367309 34.200000 26.387379 34.346154 26.407504 34.492308 26.427684 34.638462 26.447918 34.784615 26.468208 34.930769 26.488554 35.076923 26.508956 35.223077 26.529414 35.369231 26.549928 35.515385 26.570499 35.661538 26.591127 35.807692 26.611812 35.953846 26.632554 36.100000 26.653354 36.246154 26.674212 36.392308 26.695128 36.538462 26.716102 36.684615 26.737136 36.830769 26.758228 36.976923 26.779379 37.123077 26.800589 37.269231 26.821859 37.415385 26.843190 37.561538 26.864580 37.707692 26.886030 37.853846 26.907542 38.000000 26.929114 38.146154 26.950747 38.292308 26.972442 38.438462 26.994198 38.584615 27.016017 38.730769 27.037897 38.876923 27.059839 39.023077 27.081841 39.169231 27.103899 39.315385 27.126012 39.461538 27.148175 39.607692 27.170387 39.753846 27.192643 39.900000 27.214942 40.046154 27.237281 40.192308 27.259657 40.338462 27.282066 40.484615 27.304506 40.630769 27.326975 40.776923 27.349469 40.923077 27.371985 41.069231 27.394521 41.215385 27.417073 41.361538 27.439640 41.507692 27.462217 41.653846 27.484803 41.800000 27.507394 41.946154 27.529988 42.092308 27.552581 42.238462 27.575171 42.384615 27.597755 42.530769 27.620331 42.676923 27.642894 42.823077 27.665443 42.969231 27.687974 43.115385 27.710485 43.261538 27.732972 43.407692 27.755434 43.553846 27.777867 43.700000 27.800268 43.846154 27.822635 43.992308 27.844964 44.138462 27.867253 44.284615 27.889498 44.430769 27.911698 44.576923 27.933849 44.723077 27.955948 44.869231 27.977992 45.015385 27.999980 45.161538 28.021907 45.307692 28.043770 45.453846 28.065568 45.600000 28.087297 45.746154 28.108955 45.892308 28.130538 46.038462 28.152043 46.184615 28.173468 46.330769 28.194811 46.476923 28.216067 46.623077 28.237235 46.769231 28.258310 46.915385 28.279292 47.061538 28.300176 47.207692 28.320960 47.353846 28.341641 47.500000 28.362216 47.646154 28.382682 47.792308 28.403037 47.938462 28.423277 48.084615 28.443400 48.230769 28.463402 48.376923 28.483282 48.523077 28.503036 48.669231 28.522661 48.815385 28.542155 48.961538 28.561514 49.107692 28.580736 49.253846 28.599818 49.400000 28.618757 49.546154 28.637550 49.692308 28.656194 49.838462 28.674687 49.984615 28.693026 50.130769 28.711207 50.276923 28.729228 50.423077 28.747086 50.569231 28.764779 50.715385 28.782303 50.861538 28.799655 51.007692 28.816833 51.153846 28.833834 51.300000 28.850655 51.446154 28.867292 51.592308 28.883745 51.738462 28.900008 51.884615 28.916080 52.030769 28.931958 52.176923 28.947638 52.323077 28.963119 52.469231 28.978397 52.615385 28.993469 52.761538 29.008332 52.907692 29.022984 53.053846 29.037422 53.200000 29.051642 53.346154 29.065643 53.492308 29.079421 53.638462 29.092973 53.784615 29.106297 53.930769 29.119389 54.076923 29.132247 54.223077 29.144868 54.369231 29.157249 54.515385 29.169387 54.661538 29.181279 54.807692 29.192923 54.953846 29.204316 55.100000 29.215454 55.246154 29.226336 55.392308 29.236957 55.538462 29.247316 55.684615 29.257409 55.830769 29.267234 55.976923 29.276787 56.123077 29.286066 56.269231 29.295068 56.415385 29.303790 56.561538 29.312230 56.707692 29.320384 56.853846 29.328249 57.000000 29.335824 57.146154 29.343104 57.292308 29.350087 57.438462 29.356770 57.584615 29.363151 57.730769 29.369226 57.876923 29.374992 58.023077 29.380448 58.169231 29.385589 58.315385 29.390413 58.461538 29.394918 58.607692 29.399100 58.753846 29.402956 58.900000 29.406484 59.046154 29.409681 59.192308 29.412544 59.338462 29.415070 59.484615 29.417256 59.630769 29.419099 59.776923 29.420597 59.923077 29.421747 60.069231 29.422545 60.215385 29.422989 60.361538 29.423077 60.507692 29.422805 60.653846 29.422170 60.800000 29.421170 60.946154 29.419801 61.092308 29.418061 61.238462 29.415948 61.384615 29.413457 61.530769 29.410587 61.676923 29.407334 61.823077 29.403696 61.969231 29.399670 62.115385 29.395252 62.261538 29.390441 62.407692 29.385232 62.553846 29.379624 62.700000 29.373614 62.846154 29.367198 62.992308 29.360374 63.138462 29.353139 63.284615 29.345490 63.430769 29.337424 63.576923 29.328938 63.723077 29.320030 63.869231 29.310697 64.015385 29.300935 64.161538 29.290743 64.307692 29.280116 64.453846 29.269053 64.600000 29.257550 64.746154 29.245605 64.892308 29.233214 65.038462 29.220376 65.184615 29.207086 65.330769 29.193342 65.476923 29.179142 65.623077 29.164482 65.769231 29.149360 65.915385 29.133773 66.061538 29.117717 66.207692 29.101190 66.353846 29.084190 66.500000 29.066713 66.646154 29.048756 66.792308 29.030317 66.938462 29.011393 67.084615 28.991980 67.230769 28.972077 67.376923 28.951680 67.523077 28.930786 67.669231 28.909393 67.815385 28.887498 67.961538 28.865097 68.107692 28.842188 68.253846 28.818768 68.400000 28.794835 68.546154 28.770385 68.692308 28.745415 68.838462 28.719923 68.984615 28.693906 69.130769 28.667361 69.276923 28.640285 69.423077 28.612676 69.569231 28.584530 69.715385 28.555844 69.861538 28.526616 70.007692 28.496843 70.153846 28.466522 70.300000 28.435650 70.446154 28.404225 70.592308 28.372243 70.738462 28.339701 70.884615 28.306598 71.030769 28.272929 71.176923 28.238692 71.323077 28.203884 71.469231 28.168503 71.615385 28.132546 71.761538 28.096009 71.907692 28.058889 72.053846 28.021185 72.200000 27.982893 72.346154 27.944010 72.492308 27.904533 72.638462 27.864460 72.784615 27.823788 72.930769 27.782513 73.076923 27.740634 73.223077 27.698146 73.369231 27.655048 73.515385 27.611336 73.661538 27.567008 73.807692 27.522060 73.953846 27.476491 74.100000 27.430296 74.246154 27.383474 74.392308 27.336020 74.538462 27.287934 74.684615 27.239210 74.830769 27.189848 74.976923 27.139844 75.123077 27.089194 75.269231 27.037897 75.415385 26.985950 75.561538 26.933355 75.707692 26.880114 75.853846 26.826231 76.000000 26.771707 76.146154 26.716546 76.292308 26.660750 76.438462 26.604321 76.584615 26.547262 76.730769 26.489577 76.876923 26.431266 77.023077 26.372334 77.169231 26.312782 77.315385 26.252613 77.461538 26.191830 77.607692 26.130435 77.753846 26.068432 77.900000 26.005822 78.046154 25.942608 78.192308 25.878793 78.338462 25.814379 78.484615 25.749369 78.630769 25.683766 78.776923 25.617572 78.923077 25.550790 79.069231 25.483422 79.215385 25.415472 79.361538 25.346941 79.507692 25.277832 79.653846 25.208148 79.800000 25.137891 79.946154 25.067065 80.092308 24.995671 80.238462 24.923712 80.384615 24.851191 80.530769 24.778111 80.676923 24.704473 80.823077 24.630281 80.969231 24.555538 81.115385 24.480245 81.261538 24.404406 81.407692 24.328022 81.553846 24.251098 81.700000 24.173634 81.846154 24.095635 81.992308 24.017102 82.138462 23.938038 82.284615 23.858446 82.430769 23.778328 82.576923 23.697686 82.723077 23.616525 82.869231 23.534845 83.015385 23.452650 83.161538 23.369942 83.307692 23.286725 83.453846 23.202999 83.600000 23.118769 83.746154 23.034037 83.892308 22.948804 84.038462 22.863075 84.184615 22.776851 84.330769 22.690135 84.476923 22.602930 84.623077 22.515239 84.769231 22.427063 84.915385 22.338405 85.061538 22.249269 85.207692 22.159657 85.353846 22.069571 85.500000 21.979013 85.646154 21.887988 85.792308 21.796496 85.938462 21.704541 86.084615 21.612126 86.230769 21.519252 86.376923 21.425923 86.523077 21.332141 86.669231 21.237909 86.815385 21.143229 86.961538 21.048104 87.107692 20.952537 87.253846 20.856529 87.400000 20.760085 87.546154 20.663206 87.692308 20.565895 87.838462 20.468154 87.984615 20.369987 88.130769 20.271395 88.276923 20.172382 88.423077 20.072950 88.569231 19.973101 88.715385 19.872838 88.861538 19.772165 89.007692 19.671082 89.153846 19.569594 89.300000 19.467702 89.446154 19.365410 89.592308 19.262719 89.738462 19.159632 89.884615 19.056153 90.030769 18.952283 90.176923 18.848026 90.323077 18.743383 90.469231 18.638358 90.615385 18.532952 90.761538 18.427169 90.907692 18.321012 91.053846 18.214482 91.200000 18.107583 91.346154 18.000317 91.492308 17.892686 91.638462 17.784694 91.784615 17.676342 91.930769 17.567634 92.076923 17.458572 92.223077 17.349159 92.369231 17.239396 92.515385 17.129288 92.661538 17.018836 92.807692 16.908043 92.953846 16.796912 93.100000 16.685445 93.246154 16.573645 93.392308 16.461515 93.538462 16.349056 93.684615 16.236272 93.830769 16.123166 93.976923 16.009739 94.123077 15.895995 94.269231 15.781936 94.415385 15.667564 94.561538 15.552883 94.707692 15.437895 94.853846 15.322602 95.000000 15.207007 95.146154 15.091113 95.292308 14.974922 95.438462 14.858438 95.584615 14.741661 95.730769 14.624596 95.876923 14.507245 96.023077 14.389609 96.169231 14.271693 96.315385 14.153498 96.461538 14.035028 96.607692 13.916284 96.753846 13.797269 96.900000 13.677987 97.046154 13.558439 97.192308 13.438628 97.338462 13.318556 97.484615 13.198227 97.630769 13.077643 97.776923 12.956807 97.923077 12.835721 98.069231 12.714387 98.215385 12.592809 98.361538 12.470989 98.507692 12.348929 98.653846 12.226633 98.800000 12.104102 98.946154 11.981339 99.092308 11.858348 99.238462 11.735130 99.384615 11.611688 99.530769 11.488026 99.676923 11.364144 99.823077 11.240046 99.969231 11.115735 100.115385 10.991214 100.261538 10.866484 100.407692 10.741548 100.553846 10.616409 100.700000 10.491070 100.846154 10.365534 100.992308 10.239802 101.138462 10.113877 101.284615 9.987762 101.430769 9.861460 101.576923 9.734974 101.723077 9.608305 101.869231 9.481456 102.015385 9.354431 102.161538 9.227231 102.307692 9.099859 102.453846 8.972318 102.600000 8.844611 102.746154 8.716739 102.892308 8.588707 103.038462 8.460515 103.184615 8.332167 103.330769 8.203666 103.476923 8.075014 103.623077 7.946213 103.769231 7.817267 103.915385 7.688178 104.061538 7.558948 104.207692 7.429580 104.353846 7.300077 104.500000 7.170441 104.646154 7.040675 104.792308 6.910781 104.938462 6.780762 105.084615 6.650621 105.230769 6.520361 105.376923 6.389983 105.523077 6.259491 105.669231 6.128887 105.815385 5.998173 105.961538 5.867353 106.107692 5.736429 106.253846 5.605403 106.400000 5.474278 106.546154 5.343057 106.692308 5.211743 106.838462 5.080337 106.984615 4.948843 107.130769 4.817262 107.276923 4.685599 107.423077 4.553855 107.569231 4.422033 107.715385 4.290135 107.861538 4.158164 108.007692 4.026124 108.153846 3.894015 108.300000 3.761841 108.446154 3.629605 108.592308 3.497310 108.738462 3.364956 108.884615 3.232549 109.030769 3.100089 109.176923 2.967579 109.323077 2.835023 109.469231 2.702423 109.615385 2.569781 109.761538 2.437100 109.907692 2.304382 110.053846 2.171631 110.200000 2.038848 110.346154 1.906037 110.492308 1.773200 110.638462 1.640339 110.784615 1.507458 110.930769 1.374558 111.076923 1.241643 111.223077 1.108714 111.369231 0.975776 111.515385 0.842829 111.661538 0.709877 111.807692 0.576923" class="line reactive nofill" /></g></g><g class="titles" /><g transform="translate(76, 10)" class="plot overlay"><g class="series serie-0 color-0" /></g><g transform="translate(76, 10)" class="plot text-overlay"><g class="series serie-0 color-0" /></g><g transform="translate(76, 10)" class="plot tooltip-overlay"><g transform="translate(0 0)" style="opacity: 0" class="tooltip"><rect rx="0" ry="0" width="0" height="0" class="tooltip-box" /><g class="text" /></g></g></g></svg>